<svg width="12" height="13" viewBox="0 0 12 13" fill="none" xmlns="http://www.w3.org/2000/svg">
<path d="M0 13V10.6364H12V13H0ZM2.4 8.27273H3.24L7.92 3.67841L7.485 3.25L7.065 2.83636L2.4 7.44545V8.27273ZM1.2 9.45455V6.94318L7.92 0.339773C8.03 0.231439 8.1575 0.147727 8.3025 0.0886364C8.4475 0.0295455 8.6 0 8.76 0C8.92 0 9.075 0.0295455 9.225 0.0886364C9.375 0.147727 9.51 0.236364 9.63 0.354545L10.455 1.18182C10.575 1.29015 10.6625 1.41818 10.7175 1.56591C10.7725 1.71364 10.8 1.86629 10.8 2.02386C10.8 2.17159 10.7725 2.31686 10.7175 2.45966C10.6625 2.60246 10.575 2.73295 10.455 2.85114L3.75 9.45455H1.2ZM7.92 3.67841L7.485 3.25L7.065 2.83636L7.92 3.67841Z" fill="#DE83F0"/>
</svg>
