<svg xmlns="http://www.w3.org/2000/svg" width="1662" height="1016" fill="none"><g clip-path="url(#a)"><path fill="#1D0070" d="M0 0h1662v1016H0z"/><ellipse cx="1088.71" cy="505.032" fill="#FFC2E8" rx="257.709" ry="257.71"/><path fill="#2C72FF" d="m1657.15 489.177-271-470.41C1379.54 7.177 1367.09 0 1353.77 0H811.554c-13.329 0-25.778 7.176-32.387 18.768l-232.88 404.28c-3.635 6.403-11.677 9.715-18.727 7.728-7.271-1.987-12.338-8.611-12.338-16.118V258.223C515.222 115.919 399.663.11 257.666.11H37.455C16.855.11 0 16.891 0 37.646v220.687C0 361.225 61.14 453.297 155.877 492.82c6.169 2.539 10.245 8.611 10.245 15.346 0 6.734-4.076 12.806-10.245 15.345C61.139 562.703 0 654.665 0 757.667v220.687c0 20.645 16.744 37.536 37.455 37.536h220.211c141.997 0 257.556-115.809 257.556-258.113V601.342c0-7.507 5.067-14.131 12.338-16.118 7.05-1.877 15.092 1.325 18.727 7.728l232.88 404.28c6.72 11.588 19.058 18.768 32.387 18.768h542.096c13.33 0 25.78-7.18 32.39-18.768l271-470.409c3.3-5.741 4.95-12.144 4.95-18.657.11-6.735-1.54-13.248-4.84-18.989Zm-570.41 216.051c-105.759 0-191.794-88.54-191.794-197.283 0-108.743 86.035-197.283 191.794-197.283 105.75 0 191.79 88.54 191.79 197.283 0 108.743-86.04 197.283-191.79 197.283Z"/></g><defs><clipPath id="a"><path fill="#fff" d="M0 0h1662v1016H0z"/></clipPath></defs></svg>