<svg width="133" height="106" viewBox="0 0 133 106" fill="none" xmlns="http://www.w3.org/2000/svg">
<g clip-path="url(#clip0_9218_3997)">
<path d="M8.93935 53.3872C10.5975 54.21 12.392 54.7224 14.1169 55.3945C15.2809 55.8737 16.451 56.3469 17.6787 56.6423C18.576 56.9045 19.5642 57.2542 20.5312 57.227C22.6925 57.1758 24.8721 56.6966 26.7879 55.6869C27.2062 55.4457 27.5609 55.1293 27.9125 54.8098C29.1584 53.996 30.1496 52.7753 31.2318 51.7777C32.6444 50.2104 34.1055 48.6702 35.3544 46.9733C35.888 46.2681 36.3336 45.5115 36.7822 44.755C37.0732 44.3632 37.1884 43.6639 37.5825 43.4078C37.8189 44.2155 37.7037 45.0775 37.6007 45.9094C37.537 46.678 37.4733 47.4465 37.4067 48.2151C37.2763 49.5383 37.343 50.8705 37.2521 52.1996C37.055 53.6795 36.9701 55.2197 36.8428 56.7146C36.6306 59.2193 36.7549 61.736 36.764 64.2467C36.767 64.4064 36.7761 64.5662 36.7761 64.7259V64.7319C36.761 64.8314 36.7579 64.9369 36.761 65.0394C36.7549 65.1087 36.7458 65.178 36.7276 65.2473C36.6943 65.3739 36.7125 65.5035 36.7701 65.609C36.7458 66.2631 36.6034 66.9201 36.767 67.5621C37.6764 70.9408 41.2928 72.2609 44.0604 73.8343C47.6677 75.8597 51.275 77.9514 55.0763 79.6242C57.5135 80.6972 59.8658 81.8968 62.2758 83.0119C62.3121 83.2862 62.6638 83.4731 62.9427 83.5454C64.0248 83.9915 65.1373 84.2055 66.265 84.5431C68.8538 85.4382 71.3092 83.8529 73.4644 82.593C75.4257 81.3542 77.4052 80.1516 79.4028 78.9702C80.6639 78.2106 81.9461 77.5023 83.2193 76.7669C84.6773 75.7271 86.1718 74.7535 87.7966 73.985C88.321 73.7378 88.5453 74.0814 88.5605 74.5667C88.5393 74.9706 88.3119 75.3262 88.1301 75.6758C86.675 77.6771 85.8596 80.0371 84.7016 82.2042C84.1832 83.0361 83.8013 83.9342 83.2951 84.7691C83.2587 84.8324 83.2253 84.8987 83.1981 84.962C83.095 85.0253 83.0071 85.1338 82.9495 85.2936C82.6918 86.252 82.4372 87.2497 82.4614 88.2443C82.4827 89.1033 82.6827 89.9382 82.8737 90.773C82.9374 91.415 83.0738 92.051 83.3284 92.6297C83.3527 92.6658 83.3799 92.696 83.4102 92.7201C84.8835 96.4062 88.6878 98.4648 92.0768 100.418C93.541 101.238 94.99 102.154 96.3783 103.103C97.9182 104.071 99.5461 104.9 101.207 105.644C101.21 105.644 101.213 105.644 101.216 105.65C101.429 105.765 101.668 105.852 101.841 105.94C103.42 106.265 104.839 105.002 105.851 103.938C107.385 102.555 107.897 100.535 108.998 98.8325C109.11 98.6366 109.28 98.4015 109.434 98.1604C109.625 97.9283 109.719 97.5244 110.028 97.437C110.489 97.6661 110.665 98.2177 110.95 98.6155C111.817 99.7156 112.951 100.629 114.16 101.349C115.106 101.795 115.961 102.344 117.001 102.561C117.713 102.633 118.416 102.871 119.135 102.817C119.692 102.748 120.368 102.486 120.553 101.91C120.696 100.692 119.592 100.279 118.625 99.9989C117.819 99.6825 116.925 99.6976 116.118 99.3901C114.021 98.3141 113.039 95.924 111.189 94.5376C111.568 93.9468 111.959 93.3621 112.293 92.7472C114.175 93.4857 116.103 94.4863 118.177 94.3718C118.834 94.3085 119.189 94.0583 119.316 93.7388C119.744 93.1843 119.407 92.479 118.913 92.0902C118.089 91.1468 116.776 91.0443 115.618 90.8213C115.012 90.5892 114.378 90.4174 113.775 90.1853C113.566 90.0678 113.363 89.9321 113.154 89.8146C113.163 89.7543 113.166 89.694 113.16 89.6338C113.208 89.5373 113.263 89.4469 113.299 89.3474C113.457 88.6843 113.59 88.0845 113.763 87.4064C114.096 85.8331 113.624 84.2236 112.872 82.8371C112.372 82.1228 111.82 81.3753 111.229 80.7183C110.871 80.2451 110.335 79.8623 110.132 79.2926C110.486 78.949 111.074 79.145 111.514 79.1932C112.917 79.3891 114.297 80.0733 115.736 79.7568C116.879 79.6212 117.931 79.1269 118.947 78.6115C119.68 78.1112 119.78 78.2588 120.371 78.8375C121.405 79.9467 122.802 80.7303 124.327 80.8991C124.943 80.9473 125.57 80.9232 126.146 81.1824C127.022 81.5773 127.768 82.3308 128.771 82.4061C129.866 82.5026 130.526 81.4266 129.72 80.5947C128.744 79.359 127.334 78.5874 125.816 78.2166C125.055 78.0027 124.224 78.0237 123.503 77.6651C122.978 77.3998 122.633 76.9055 122.293 76.4384C122.054 76.137 121.769 75.8868 121.523 75.5884C122.142 75.1092 122.645 74.4732 123.045 73.771C124.549 74.3436 125.731 75.5492 127.019 76.4836C127.656 76.9538 128.389 77.2974 129.059 77.7223C129.747 78.0931 130.46 78.509 131.266 78.5452C132.26 78.6205 133.273 78.0147 132.912 76.9116C132.715 76.3841 132.227 76.0405 131.757 75.7632C131.011 75.3533 130.296 74.8892 129.529 74.5124C128.204 73.6805 127.331 72.2519 125.834 71.6581C125.637 71.5707 125.231 71.3718 124.809 71.2332C125.015 70.9016 125.209 70.5641 125.428 70.2084C126.81 68.1227 128.286 66.0973 129.487 63.897C131.821 60.0481 132.133 57.9444 127.822 55.5753C125.358 54.1829 122.99 52.5945 120.49 51.2743C119.798 50.8795 114.863 48.7878 113.387 49.0681C111.202 48.8842 108.983 49.1103 106.846 49.5865C104.099 50.343 102.223 52.6548 100.416 54.6953C99.54 55.711 98.6458 56.7267 97.9364 57.866C97.6697 58.291 97.4211 58.731 97.1634 59.165C96.8179 59.5991 96.4662 60.0301 96.0994 60.4641C95.8387 60.7715 95.5447 61.0518 95.2507 61.3231C95.0748 61.4858 94.9172 61.7239 94.6505 61.7119C94.5656 60.9704 94.796 60.235 94.8384 59.4966C94.8869 57.8178 95.1143 56.1872 95.0597 54.4963C95.1233 52.2388 95.4598 49.9813 95.2961 47.7208C95.2992 45.2674 94.8808 42.826 94.4807 40.4118C94.4595 40.3093 94.414 40.231 94.3564 40.1737C94.3443 40.1195 94.3352 40.0712 94.3291 40.029C94.1988 39.4142 93.7835 38.9319 93.4773 38.3985C93.2773 38.0006 93.0802 37.5967 92.7498 37.2893C91.6919 36.2374 91.0765 34.8299 89.8306 33.9588C88.7909 33.2656 87.6056 32.8406 86.5477 32.1775C84.7137 31.1558 83.001 29.917 81.2095 28.8259C79.1361 27.3943 77.0838 25.9234 75.0043 24.4767C73.1583 23.0963 71.0879 22.0715 68.8992 21.3482C66.5408 20.5012 63.9794 21.1372 61.7695 22.1258C61.1269 22.4513 60.4661 22.7436 59.8143 23.0571C59.4051 22.9486 58.8473 23.467 58.4593 23.5996C56.5708 24.7118 54.5307 25.5557 52.6179 26.6378C51.848 27.117 51.1295 27.6716 50.3323 28.1056C48.8924 28.841 47.4404 29.6035 46.0551 30.4475C45.1214 30.987 44.1999 31.6199 43.1601 31.9635C44.1241 30.354 45.1669 28.8561 46.0642 27.1773C46.6128 26.1826 47.3707 25.2453 47.8132 24.1753C48.2013 23.4369 48.3892 22.6683 48.6075 21.8605C48.9379 20.9895 48.947 19.9376 49.044 18.9972C49.0531 18.9309 49.044 18.8646 49.0197 18.8043C49.0137 18.5662 48.9773 18.3281 48.9621 18.1563C48.8954 17.4721 48.9197 16.7819 48.7621 16.1068C48.5074 13.4122 47.2676 12.1162 45.273 10.4163C42.9267 8.23718 40.3713 6.29314 37.5006 4.84641C35.6849 3.91508 33.957 2.8451 32.3049 1.63346C31.1227 0.846806 28.7067 -0.361815 27.3002 0.0872734C26.5393 0.397717 26.127 1.16629 25.6178 1.76307C25.06 2.47739 24.6659 3.24596 24.2021 4.04167C23.4746 5.14781 22.6107 6.13641 22.0408 7.35708C21.9923 7.47162 21.9105 7.60725 21.8195 7.75493C19.8461 6.68797 18.3698 4.74996 16.3692 3.73424C14.9444 3.22487 14.2442 4.72283 14.902 5.8561C15.2536 6.70304 15.9114 7.35708 16.645 7.88755C17.8394 8.80683 19.161 9.54225 20.4403 10.3379C20.3523 10.4374 20.2523 10.5218 20.1341 10.5911C19.6915 10.6243 19.2277 10.555 18.8064 10.4043C18.0243 10.1119 17.324 9.75624 16.6056 9.31318C15.7841 8.67722 14.4594 8.55365 13.9623 9.6387C13.2196 11.5556 16.2631 13.153 17.9667 13.9457C17.7393 14.4099 17.4999 14.865 17.2422 15.3111C16.9512 15.9922 16.8602 16.7337 16.8148 17.4691C16.8026 18.8978 16.26 20.3656 16.6996 21.7671C17.1816 22.8793 17.7969 23.9794 18.5669 24.9198C19.1398 25.613 20.1371 25.9114 20.6403 26.6589C20.6161 26.7191 20.5949 26.7824 20.5706 26.8397C15.0263 29.2147 13.6167 24.3742 10.3792 28.9224C10.264 28.9073 10.1549 28.8772 10.0488 28.838C9.97607 28.3648 9.10608 28.2442 8.7605 27.9579C8.10877 27.5118 7.62678 26.8638 7.02052 26.3695C5.81708 25.3478 4.23472 26.6287 4.83795 28.0152C5.2775 29.6367 6.77498 30.5801 7.95114 31.635C7.74501 32.2288 7.48128 32.8014 7.15996 33.356C5.61398 35.8094 4.01949 38.2387 2.43713 40.6861C1.32766 42.594 -0.572987 44.6495 0.154534 47.0035C0.478888 47.5219 0.782021 48.0614 1.19731 48.5165C2.10065 49.3544 3.14647 50.0054 4.20137 50.6384C5.75948 51.5878 7.2418 52.6728 8.93329 53.3811L8.93935 53.3872ZM123.497 71.622H123.5C123.5 71.622 123.485 71.6401 123.478 71.6491C123.485 71.6401 123.491 71.631 123.497 71.622ZM16.3601 6.44987C16.451 6.53727 16.542 6.62769 16.6359 6.71811C16.5389 6.63071 16.4449 6.5433 16.3601 6.44987ZM20.3705 9.23783C20.8677 9.13837 21.4163 9.02082 21.4679 9.09919C21.2587 9.1022 21.0496 9.23783 20.995 9.51512C20.9798 9.53923 20.9616 9.56636 20.9465 9.59047C20.7555 9.46991 20.5615 9.35236 20.3705 9.23482V9.23783Z" fill="#F3F3F4"/>
<path d="M120.929 73.964C120.823 73.9489 120.723 73.9188 120.632 73.8736C120.541 74.0032 120.447 74.1298 120.353 74.2564C119.132 75.8176 117.713 77.5959 115.609 77.8581C114.388 77.8883 113.163 77.5055 111.944 77.2674C111.12 77.1076 110.195 76.9931 109.422 77.3849C107.931 78.1324 108.043 79.6273 109.071 80.7395C109.616 81.3483 110.222 81.7914 110.668 82.5118C111.026 83.1176 111.347 83.7505 111.602 84.4076C111.741 85.0013 111.802 85.6162 111.805 86.2311C111.775 86.2733 111.747 86.3245 111.729 86.3878C111.678 86.7886 111.423 87.0991 111.135 87.3734C110.911 87.5602 110.665 87.729 110.386 87.8194C110.235 87.6989 110.071 87.5753 109.886 87.4517C109.252 87.0599 108.486 86.9876 107.834 86.6229C107.337 86.4692 106.676 85.5891 106.227 86.2039C105.86 86.8399 107.273 87.298 107.7 87.5602C108.389 87.8827 109.174 87.9882 109.771 88.4675C109.786 88.5096 109.81 88.5488 109.841 88.585C109.91 88.6664 109.989 88.7146 110.074 88.7417C110.456 89.1004 110.762 89.5224 111.032 89.9715C111.047 89.9925 111.062 90.0106 111.077 90.0317C111.159 90.3663 111.505 90.737 111.671 90.9902C112.457 92.0029 113.672 92.5997 114.927 92.7986C114.945 92.7986 114.967 92.8016 114.988 92.8046C115.13 92.8378 115.282 92.8679 115.43 92.8679C115.503 92.8679 115.573 92.8589 115.642 92.8438C115.664 92.8438 115.688 92.8438 115.709 92.8438C116.258 92.7926 116.322 91.9758 115.752 91.9064C115.576 91.9275 115.397 91.9275 115.218 91.9155C113.36 91.4393 112.675 90.8335 112.193 90.1342C112.723 87.9671 113.099 85.5288 112.193 83.4521C111.835 82.7107 111.477 81.9572 110.926 81.3333C110.353 80.5526 108.78 79.7117 109.334 78.5935C110.41 77.2975 112.987 78.6086 114.457 78.684C117.71 79.2596 119.941 76.4054 121.669 73.9911C121.426 73.9972 121.181 73.9911 120.938 73.958L120.929 73.964Z" fill="black"/>
<path d="M16.9299 55.4489C18.2001 55.9432 19.6308 56.3953 21.0374 56.3953C21.1374 56.3953 21.2405 56.3953 21.3405 56.3893C23.9899 56.2567 26.418 54.831 28.4854 53.2637C29.3251 52.6609 30.0192 51.8984 30.6952 51.1268C31.5137 50.2467 32.3564 49.3817 33.0415 48.3961C34.157 46.9132 35.118 45.3278 36.1274 43.7756C36.2123 43.6701 36.2971 43.5556 36.3851 43.435C36.4214 43.4019 36.4517 43.3597 36.476 43.3145C36.7549 42.9437 37.0732 42.573 37.5067 42.4555C37.8037 42.3741 38.0674 42.4886 38.31 42.6393C38.51 42.9287 38.5494 43.3536 38.6131 43.6882C38.6525 43.8811 38.6464 44.1071 38.6646 44.3211C38.5191 46.8167 38.1675 49.3515 38.0735 51.9044C37.8037 55.7443 37.8189 59.5811 37.8553 63.43C37.8431 65.1179 37.7098 66.8027 38.1493 68.4604C38.4676 69.3887 39.3164 70.0126 40.1742 70.4316C40.3743 70.8415 40.9412 70.9379 41.3019 71.1911C42.0628 71.6131 42.8873 72.0833 43.6724 72.4992C46.6522 74.1569 49.7199 75.6036 52.73 77.2131C55.3643 78.4971 57.9227 79.8142 60.5539 81.1223C62.6759 82.1049 64.7432 83.2381 67.0107 83.8681C68.2202 84.3051 69.2508 83.3858 70.3148 82.9518C71.8669 82.2435 73.2219 81.3393 74.7012 80.4743C78.6692 78.2861 82.6281 76.0407 86.3324 73.4275C86.9266 73.0417 87.4722 72.6831 87.9785 72.3364C88.0057 72.3334 88.036 72.3334 88.0633 72.3244C89.5578 72.6378 89.8094 73.3672 89.7457 74.7929C89.6821 75.0943 89.6002 75.3836 89.5002 75.6699C89.4517 75.7513 89.4183 75.8357 89.4062 75.9231C88.6302 77.9666 87.0812 79.7057 86.1354 81.6678C85.5231 82.8132 85.0108 84.079 84.4924 85.2786C84.0862 86.2461 83.5921 87.2287 83.5012 88.2866C83.3799 89.9835 83.6618 91.7316 84.4954 93.2266C84.7319 93.5943 85.0684 93.8746 85.3503 94.2062C85.6564 94.5769 85.9869 95.0049 86.3688 95.3274C87.6086 96.4365 89.0697 97.2563 90.5036 98.0882C93.2257 99.6043 95.9266 101.153 98.6063 102.745C99.0671 103.025 99.5521 103.266 100.028 103.522C100.95 103.996 101.804 104.737 102.881 104.794H102.929C104.32 104.794 104.893 103.257 105.678 102.338C106.336 101.494 107.027 100.659 107.552 99.7218C107.894 99.0467 108.216 98.4228 108.579 97.7295C108.64 97.5879 108.701 97.4432 108.764 97.3015C108.564 97.2172 108.37 97.1237 108.176 97.0273C108.097 96.9881 108.028 96.9338 107.967 96.8736C107.461 97.9315 106.958 98.9894 106.318 99.987C105.333 101.229 104.481 102.603 103.402 103.758C102.462 104.21 101.55 103.269 100.74 102.884C98.4548 101.684 96.2904 100.279 94.029 99.0376C90.9946 97.2443 87.6147 95.8186 85.423 92.9553C84.5409 91.6593 84.3348 90.0046 84.3954 88.4705C84.4864 87.292 85.1199 86.1768 85.5625 85.0887C86.1384 83.7415 86.6719 82.4756 87.4207 81.1856C88.2573 79.8232 89.1637 78.5091 89.873 77.0715C90.0731 76.7279 90.2368 76.3692 90.3641 75.9985C91.3251 74.6361 90.9855 72.8127 91.325 71.2514C91.4918 69.6329 92.1617 68.0626 92.7952 66.5646C92.7952 66.5676 92.7922 66.5736 92.7892 66.5767C92.7831 66.5917 92.774 66.6098 92.768 66.6249C92.8043 66.5495 92.8347 66.4772 92.871 66.3988C92.8619 66.4169 92.8528 66.435 92.8468 66.4531C93.3075 65.4464 93.9017 64.3674 94.902 63.8098C94.9111 63.8038 94.9202 63.8007 94.9263 63.7947C95.1627 63.7585 95.3931 63.6832 95.6083 63.5807C95.7751 63.5174 95.9357 63.4391 96.0812 63.3396C96.1903 63.2703 96.251 63.1799 96.2752 63.0834C96.9361 62.4505 97.3665 61.6126 97.9121 60.8681C99.5369 58.6287 101.238 56.4646 103.272 54.5658C105.96 52.1516 109.583 50.1623 113.317 50.8374C117.425 51.7688 121.232 53.7972 124.852 55.9131C130.138 59.1923 130.638 58.8276 127.146 64.3161C126.695 64.9581 126.252 65.6092 125.813 66.2572C125.776 66.2722 125.737 66.2903 125.703 66.3205C125.379 66.7032 125.061 67.1101 124.749 67.511C123.309 69.4882 121.854 71.0434 119.171 70.742C119.025 70.6938 118.859 70.6576 118.707 70.6667C117.531 70.0548 116.515 69.0692 115.797 67.9993C115.715 67.7672 115.427 67.6617 115.206 67.7491C114.621 68.0354 115.103 68.6925 115.4 69.021C116.609 70.5341 118.037 71.5588 119.78 72.032C119.798 72.0471 119.82 72.0592 119.841 72.0712C120.277 72.2551 120.762 72.252 121.238 72.2882C122.86 72.2792 124.33 73.2045 125.619 74.1057C127.392 75.26 129.011 76.7339 130.981 77.5447C130.993 77.5447 131.002 77.5447 131.014 77.5447C131.105 77.5838 131.193 77.623 131.287 77.6592C131.342 77.6833 131.399 77.6923 131.457 77.6923C131.636 77.6923 131.812 77.5838 131.881 77.4151C131.978 77.183 131.863 76.9238 131.636 76.8243C130.948 76.5289 130.266 76.2215 129.647 75.7995C127.998 74.5668 126.61 72.9935 124.685 72.1556C124.233 71.9145 123.757 71.7668 123.272 71.6583C124.124 70.4165 124.97 69.1717 125.807 67.8998C127.095 65.9136 128.598 64.0087 129.638 61.8657C130.893 59.5751 130.351 58.3725 128.271 56.986C124 54.2192 115.4 48.9989 110.316 49.9031C109.446 50.1352 108.54 50.2497 107.719 50.6204C106.806 51.0936 105.863 51.5186 104.978 52.0461C103.02 53.4144 101.371 55.0872 99.8128 56.9137C98.9155 58.0108 98.0425 59.129 97.218 60.2834C96.6511 61.052 96.2207 61.9501 95.475 62.5921C95.4022 62.6554 95.3143 62.7097 95.2203 62.7579C94.8657 62.8543 94.511 62.7368 94.1806 62.4565C93.9411 62.2756 93.8411 61.9742 93.7653 61.6849C93.6895 61.3353 93.6258 61.0248 93.5834 60.6903C93.5895 60.5486 93.5955 60.41 93.5895 60.2713C93.6561 59.7348 93.7289 59.1983 93.8198 58.6618C94.1442 55.0721 94.1927 51.389 93.9623 47.7782C93.835 44.939 93.9502 42.0184 92.8953 39.3239C92.5891 38.4498 92.2314 37.5878 91.5827 36.9067C90.6581 35.7041 89.3153 34.9717 88.0179 34.2362C86.9205 33.5671 85.7716 32.9945 84.6319 32.4007C81.6157 30.5832 78.9511 28.2172 75.944 26.3546C74.3495 24.9862 72.4277 24.1363 70.6604 23.0301C67.8382 21.2127 64.7796 21.3664 61.9605 23.0874C60.2932 23.9253 58.626 24.7632 56.98 25.6433C54.7489 26.7343 52.6846 28.1208 50.4444 29.1908C48.1588 30.3029 45.855 31.4573 43.7088 32.8347C43.6087 32.8377 43.5148 32.8709 43.439 32.9342C43.151 33.0517 42.8267 33.0909 42.5356 32.9734C41.317 32.5122 42.8267 30.5742 43.1419 29.8599C43.7997 28.7507 44.7455 27.7621 45.4548 26.668C46.0156 25.8301 46.4885 24.941 46.7431 23.9645C47.1706 22.8071 47.598 21.6346 47.7283 20.4019C48.1679 15.3353 46.6765 12.3545 42.5902 9.36154C40.1166 7.70685 37.5915 6.05516 35.0482 4.48787C33.9933 3.8489 32.8687 3.33953 31.8593 2.62521C30.6134 1.86568 28.9856 0.256193 27.4093 0.828856C26.6423 1.17547 26.1573 1.93199 25.6905 2.59809C25.3116 3.13458 24.9842 3.70122 24.675 4.27689C24.5931 4.3221 24.5234 4.39444 24.487 4.49692C24.3688 4.74407 24.2627 4.99724 24.1688 5.25645C23.708 6.18477 23.2654 7.12514 22.7471 8.02332C22.5743 8.35787 22.3985 8.68942 22.2196 9.01794C19.8885 8.22827 17.9212 6.62481 16.2994 4.79229C15.878 4.37334 15.2445 5.00026 15.6477 5.42523C16.8572 6.81168 18.2667 8.03839 19.8612 8.94259C19.8612 8.94259 19.8643 8.94862 19.8673 8.94862C20.322 9.24701 20.7343 9.65089 21.295 9.81063C22.5046 10.3049 23.8323 10.4134 25.1054 10.7269C25.5541 10.8716 26.0027 11.0554 26.4301 11.2785C26.8091 11.5105 27.2001 11.7517 27.5578 12.0289C28.0155 12.4147 28.4035 12.8729 28.6764 13.4214C28.6915 13.4486 28.7127 13.4727 28.734 13.4968C28.743 13.5239 28.7552 13.548 28.7643 13.5751C28.8461 13.7711 29.0037 13.8524 29.1644 13.8524C29.4524 13.8524 29.7434 13.5872 29.607 13.2346C29.3918 12.5413 28.9067 11.9807 28.3338 11.5015C28.0398 11.2242 27.7639 11.0102 27.6124 10.9318C27.4456 10.8233 27.2759 10.7239 27.1061 10.6244C26.9606 10.531 26.8181 10.4406 26.6787 10.3532C26.2452 10.097 25.7754 9.93119 25.2934 9.8046C25.2085 9.66596 25.0903 9.5454 25.0206 9.39771C24.5962 8.64119 24.5659 7.7189 24.6901 6.87498C24.7508 6.37164 24.9023 5.91652 25.063 5.46743C25.6693 4.26182 26.3574 3.08937 27.2425 2.05858C28.0095 1.08203 29.1402 1.92897 29.9404 2.42327C30.7346 2.89044 31.4379 3.48119 32.2503 3.94837C35.0846 5.47949 37.7643 7.26981 40.4622 9.01794C42.6417 10.5069 45.0577 12.1224 46.1035 14.6481C46.9371 16.4053 46.9402 18.4217 46.8189 20.3356C46.6795 21.5442 46.2339 22.6895 45.8186 23.8349C45.3002 25.7036 43.9301 27.1925 42.7781 28.7055C42.5175 29.0582 42.3265 29.459 42.1203 29.8418C41.8748 30.2336 41.605 30.6887 41.4171 31.168C41.4171 31.174 41.411 31.177 41.408 31.18C40.7926 32.3284 41.123 33.7811 40.3167 34.8632C39.9893 35.3574 39.5801 35.8005 39.3376 36.346C38.9071 37.3316 38.7828 38.5011 38.2827 39.4716C38.2887 39.4625 38.2918 39.4535 38.2978 39.4445C37.9553 40.2613 37.3096 40.8791 36.6852 41.491C36.5093 41.7472 36.0001 42.2385 35.7576 42.6875C35.2241 43.3687 34.8027 44.2096 34.3541 44.8365C33.0445 46.9253 31.6259 48.8844 29.8737 50.6536C27.7791 53.0467 24.8872 54.9154 21.7134 55.4609C19.2095 55.6117 16.9815 54.4814 14.6776 53.6013C12.5709 52.7785 10.5217 51.8291 8.47248 50.8736C6.21717 49.9332 4.09826 48.6643 2.27036 47.0307C1.98845 46.7444 1.63075 46.3737 1.72775 45.9397C1.98542 44.7612 2.72506 43.7967 3.33739 42.781C4.56812 40.644 6.02316 38.6457 7.23267 36.4967C8.01778 35.2369 8.78471 33.965 9.60014 32.7262C9.47586 32.6991 9.3546 32.675 9.22729 32.6539C9.04844 32.6267 8.86656 32.6057 8.69074 32.5695C8.66649 32.5635 8.64224 32.5574 8.62102 32.5514C7.96019 33.5882 7.33573 34.6552 6.67187 35.6769C5.31383 38.046 3.74056 40.2824 2.3613 42.6363C1.46403 44.083 -0.106207 46.1868 1.58831 47.6335C4.25286 50.1593 7.70859 51.5307 11.0006 53.0407C12.9498 53.8906 14.911 54.7195 16.9178 55.4338L16.9299 55.4489ZM38.8677 53.6736C39.0405 51.5789 39.1011 49.4811 39.3164 47.3894C39.3921 46.5033 39.5134 45.6232 39.5801 44.731C39.6043 44.6738 39.6225 44.6105 39.6165 44.5412C39.6104 44.4929 39.6074 44.4417 39.6043 44.3935C39.6225 44.068 39.6316 43.7424 39.6256 43.4139C39.6407 42.4796 39.6256 41.5482 39.5831 40.6139C39.5589 39.6193 39.7892 38.6005 39.9923 37.6119C40.438 36.0597 41.9567 35.1706 43.2147 34.3025C44.1271 33.6153 45.0426 33.0457 46.0702 32.5092C48.0951 31.2704 50.2837 30.3391 52.3814 29.236C53.4879 28.6332 54.5549 27.9671 55.6644 27.3673C57.8257 26.228 59.9901 25.0977 62.1757 24.0067C64.6826 22.4846 67.3138 22.0475 69.9147 23.651C71.6638 24.7541 73.5947 25.5679 75.1801 26.9122C76.2169 27.6807 77.3536 28.3046 78.3812 29.0853C79.621 30.0468 80.9185 31.0142 82.228 31.8974C84.7016 33.7871 87.7723 34.7426 90.1883 36.7288C91.3402 37.7295 91.9404 39.1069 92.3618 40.5385C92.8528 42.2957 92.9741 44.1192 92.9923 45.9517C93.0378 47.6938 93.1499 49.4359 93.2166 51.175C93.1893 53.8786 93.1863 56.555 92.8256 59.2315C92.8104 59.2737 92.7983 59.3159 92.7952 59.3611C92.6982 59.6836 92.6619 59.997 92.6588 60.3075C92.6497 60.3587 92.6437 60.407 92.6346 60.4582C92.3769 62.7549 92.3072 65.1299 91.4827 67.3211C90.7976 69.2863 89.0121 70.5672 87.3206 71.6553C85.4291 72.9634 83.5345 74.2564 81.5763 75.468C79.0572 76.975 76.4957 78.473 73.907 79.8775C72.0033 81.0831 69.9844 82.1983 67.8867 83.0724C66.0831 82.8312 64.4189 81.9421 62.7729 81.1615C60.9056 80.3115 59.114 79.341 57.2498 78.4549C51.8994 75.7543 46.5431 73.0869 41.3019 70.1603C41.1806 69.8378 40.7653 69.7595 40.5046 69.5816C40.1894 69.4038 39.8438 69.223 39.5771 68.9668C39.0132 68.5086 38.8859 67.8245 38.8465 67.1282C38.6616 66.3295 38.7343 65.4946 38.7556 64.6808C38.7465 61.0128 38.7192 57.3417 38.8617 53.6736H38.8677Z" fill="black"/>
<path d="M21.7983 11.1247C21.6497 10.8957 21.292 10.8173 21.0859 11.0464C20.2796 11.9687 18.8791 11.9235 17.803 11.5346C17.7878 11.5286 17.7696 11.5286 17.7545 11.5256C17.4574 11.3357 17.1633 11.1368 16.8663 10.9228C16.3904 10.5641 15.8417 11.2664 16.3024 11.6341C16.8269 12.0109 17.3725 12.3725 17.9394 12.692C18.0546 12.8367 18.2455 12.9512 18.4092 13.0326C19.4429 13.6806 20.7252 13.6475 21.7983 14.19C22.2287 14.3648 22.5682 14.6933 22.8835 15.0309C22.9471 15.0821 23.0108 15.1364 23.0714 15.1906C23.4079 15.5312 23.5989 16.0285 23.999 16.2938L23.9869 16.2878C24.0536 16.3299 24.1263 16.348 24.2021 16.348C24.3597 16.348 24.5204 16.2636 24.6023 16.125C24.6204 16.0949 24.6326 16.0647 24.6447 16.0376C24.869 15.6578 24.3507 15.2208 24.1172 14.9164C23.9596 14.7807 23.808 14.6391 23.6565 14.4944C23.2776 14.0785 22.8532 13.7047 22.3591 13.4244C21.9801 13.1833 21.5618 13.0386 21.1374 12.9181C21.4679 12.3454 21.7983 11.7697 22.0923 11.182C21.9953 11.1609 21.8983 11.1458 21.8013 11.1278L21.7983 11.1247Z" fill="black"/>
<path d="M121.417 78.3524C121.966 78.8045 122.551 79.2295 123.197 79.5309C124.003 79.9318 124.916 79.9287 125.786 80.0463C126.737 80.2844 127.568 80.839 128.356 81.4026C128.553 81.5503 128.844 81.5232 128.996 81.3272C129.141 81.1434 129.123 80.8329 128.92 80.6913C128.235 80.2 127.535 79.7208 126.743 79.4103C126.016 79.0577 125.197 79.1029 124.415 78.9763C123.418 78.7714 122.606 78.1897 121.848 77.5115C121.793 77.0232 121.09 76.9629 120.954 77.4422C120.838 77.8099 121.16 78.1324 121.414 78.3524H121.417Z" fill="black"/>
<path d="M7.8056 29.8749C7.82682 29.9232 7.8541 29.9684 7.89654 30.0106C8.88173 30.972 10.2458 31.2795 11.522 31.7135C12.9104 32.3344 14.4503 32.7805 15.675 33.7208C15.8326 33.8685 15.9842 34.0252 16.1266 34.188C16.2206 34.2754 16.3419 34.3236 16.4601 34.3236C16.5722 34.3236 16.6814 34.2845 16.7693 34.2001C16.9421 34.0343 16.9572 33.7299 16.7784 33.5611C16.7602 33.54 16.739 33.5219 16.7177 33.5008C16.6874 33.3652 16.6025 33.2386 16.4601 33.1843C16.3206 33.0577 16.1721 32.9462 16.0205 32.8377C15.5537 32.4218 15.0566 32.039 14.5109 31.7286C13.9835 31.4272 13.4227 31.2102 12.8497 31.0142C12.8437 30.9931 12.8376 30.972 12.8316 30.951C12.8407 30.9299 12.8528 30.9088 12.8588 30.8877C13.3317 29.5555 15.0748 29.3294 16.3146 29.3113C16.3479 29.3083 16.3813 29.2993 16.4146 29.2872C16.7662 29.3445 17.1148 29.3867 17.4574 29.3957C18.488 29.5585 19.5187 29.3927 20.4796 29.0039C21.2981 28.7447 22.1529 28.4071 22.6804 27.7018C23.8293 25.9959 21.3193 24.8837 20.4402 23.7414C18.4274 21.8335 18.3092 19.8985 19.0882 17.3457C19.261 16.6344 19.5278 15.9562 19.837 15.2992L19.6884 15.3172C19.6005 15.3263 19.5157 15.3323 19.4338 15.3323C19.2398 15.3323 19.0458 15.3052 18.8548 15.2539C18.7184 15.5493 18.5941 15.8507 18.482 16.1551C17.618 18.916 17.133 21.3634 19.1974 23.7414C19.8916 24.516 20.6433 25.2303 21.4284 25.9115C22.4561 26.7765 22.1529 27.2829 21.0495 27.8345C20.3341 28.1087 19.6794 28.3559 18.9155 28.5156C18.0697 28.6091 17.2149 28.4734 16.3813 28.3559C14.8292 28.1178 13.0043 27.6717 11.6615 28.7387C11.1916 29.1787 10.7581 29.6519 10.355 30.1492C8.86354 29.6097 7.5055 28.7176 6.47181 27.515C6.05046 27.093 5.41691 27.7169 5.82007 28.1449C6.39603 28.8351 7.07505 29.4017 7.81166 29.8749H7.8056Z" fill="black"/>
<path d="M18.3486 35.1706C18.3486 35.4177 18.5548 35.6227 18.8033 35.6227C19.0519 35.6227 19.258 35.4177 19.258 35.1706C19.258 34.9234 19.0519 34.7185 18.8033 34.7185C18.5548 34.7185 18.3486 34.9234 18.3486 35.1706Z" fill="black"/>
<path d="M113.684 66.1547C113.684 65.9075 113.478 65.7026 113.23 65.7026C112.981 65.7026 112.775 65.9075 112.775 66.1547C112.775 66.4018 112.981 66.6068 113.23 66.6068C113.478 66.6068 113.684 66.4018 113.684 66.1547Z" fill="black"/>
<path d="M118.547 93.0518C118.547 92.8046 118.34 92.5997 118.092 92.5997C117.843 92.5997 117.637 92.8046 117.637 93.0518C117.637 93.2989 117.843 93.5039 118.092 93.5039C118.34 93.5039 118.547 93.2989 118.547 93.0518Z" fill="black"/>
<path d="M110.702 91.7166C110.702 91.7166 110.677 91.6925 110.665 91.6804C110.659 91.6955 110.653 91.7075 110.647 91.7226C110.638 91.7226 110.629 91.7226 110.62 91.7226C110.405 91.7588 110.25 91.9456 110.241 92.1536C110.086 92.4098 109.898 92.66 109.659 92.8408C109.122 93.3803 108.328 93.4225 107.601 93.4436C105.845 92.9071 104.211 92.6961 102.705 90.7973C102.541 90.6134 102.232 90.6255 102.062 90.7882C101.683 91.1801 102.187 91.5689 102.444 91.8582C103.199 92.7896 104.218 93.311 105.303 93.6908C105.324 93.7028 105.342 93.7149 105.366 93.7239C105.697 93.8414 106.039 93.9861 106.379 94.1037C107.449 94.5045 108.528 94.6793 109.438 95.4419C110.256 96.0115 111.153 96.5058 111.65 97.404C111.687 97.4522 111.735 97.4884 111.784 97.5155C112.057 97.8772 112.32 98.2449 112.587 98.6006C114.166 100.469 116.482 101.696 118.895 102.073C118.947 102.085 119.001 102.091 119.059 102.091C119.414 102.091 119.811 101.874 119.711 101.476C119.65 101.244 119.392 101.084 119.156 101.153C118.995 101.217 118.826 101.132 118.662 101.111C116.998 100.801 115.4 99.9931 114.121 98.8869C113.354 98.26 112.814 97.3287 112.184 96.542C112.102 96.4305 112.011 96.319 111.908 96.2105C111.314 95.5263 110.732 95.0169 110.159 94.6251C110.568 93.8897 110.98 93.1543 111.344 92.3977C111.344 92.3917 111.338 92.3857 111.338 92.3766C111.268 92.3103 111.205 92.241 111.138 92.1717C111.138 92.1446 111.144 92.1174 111.144 92.0903C111.108 91.8733 110.917 91.7196 110.702 91.7166Z" fill="black"/>
<path d="M15.3205 10.8324C15.5691 10.8324 15.7782 10.6365 15.7813 10.3863C15.7843 10.1422 15.5812 9.92818 15.3326 9.92818C15.0841 9.92818 14.8749 10.1241 14.8719 10.3743C14.8688 10.6184 15.0719 10.8324 15.3205 10.8324Z" fill="black"/>
<path d="M61.7422 63.7525C71.6123 66.6158 80.4759 56.8655 76.5988 47.3864C73.4947 39.7217 63.4731 37.3105 57.2043 42.7478C49.8351 49.0411 52.433 61.0188 61.7422 63.7525ZM54.467 48.2725C57.8379 38.8597 70.903 38.0279 75.4318 47.0096C79.0269 54.1619 74.0131 62.8332 65.971 63.3185C57.8985 63.8851 51.754 55.898 54.4701 48.2725H54.467Z" fill="black"/>
<path d="M90.9584 52.1907C90.9705 52.7845 91.8648 52.7785 91.8678 52.1907C91.8314 49.6198 91.7708 47.1483 91.501 44.5623C91.4283 43.9625 91.5313 43.212 91.2615 42.6333C90.9887 42.0636 90.1309 42.4675 90.4401 43.0341C90.8281 46.0421 90.9038 49.1315 90.9584 52.1907Z" fill="black"/>
<path d="M90.9918 54.7918C90.7432 54.7918 90.5371 54.9968 90.5371 55.2439C90.5371 55.4911 90.7432 55.696 90.9918 55.696C91.2404 55.696 91.4465 55.4911 91.4465 55.2439C91.4465 54.9968 91.2404 54.7918 90.9918 54.7918Z" fill="black"/>
<path d="M51.5388 51.3287C51.5691 50.7199 51.557 50.1985 51.6904 49.5776C51.9026 48.6462 52.0905 47.6757 52.5179 46.8047C52.7331 46.5093 52.8089 46.012 52.3694 45.8824C52.136 45.8191 51.8813 45.9577 51.8146 46.1898C51.6479 46.5214 51.4812 46.865 51.3569 47.2387C50.9325 48.5769 50.6294 49.9121 50.6294 51.3287C50.6385 51.9225 51.5176 51.9195 51.5388 51.3287Z" fill="black"/>
<path d="M51.0992 53.2306C50.8507 53.2306 50.6445 53.4355 50.6445 53.6827C50.6445 53.9298 50.8507 54.1348 51.0992 54.1348C51.3478 54.1348 51.5539 53.9298 51.5539 53.6827C51.5539 53.4355 51.3478 53.2306 51.0992 53.2306Z" fill="black"/>
<path d="M89.2397 83.7053C89.9005 81.9542 91.3525 80.5466 91.9648 78.7563C92.177 78.3132 92.4468 77.3457 91.6678 77.3638C91.404 77.4 91.2525 77.6411 91.2798 77.8913C91.2009 78.3765 90.9342 78.8256 90.7462 79.2807C90.0187 80.7305 88.8607 81.9572 88.3454 83.5094C88.2605 83.9645 87.6331 84.6698 88.2484 84.9863C88.9517 85.2123 89.0153 84.1363 89.2366 83.7053H89.2397Z" fill="black"/>
<path d="M87.5723 86.4993C87.9027 87.0268 88.6939 86.5083 88.3332 86.008C87.9967 85.4836 87.2146 85.9929 87.5723 86.4993Z" fill="black"/>
<path d="M44.8243 15.6548C44.3332 14.5004 43.4935 13.5239 42.6266 12.6287C41.7839 11.8089 40.9624 10.9288 39.9499 10.317C39.6195 10.1 39.0011 9.93119 38.8707 10.4496C38.8192 10.6817 38.9738 10.9499 39.2163 10.9891C39.3527 11.0223 39.477 11.0946 39.5983 11.1609C41.3201 12.4991 43.6997 14.5607 44.1847 16.7368C44.2999 17.3216 45.179 17.1618 45.082 16.5831C45.0122 16.2697 44.9365 15.9562 44.8213 15.6578L44.8243 15.6548Z" fill="black"/>
<path d="M44.4849 19.778C44.497 20.0312 44.7123 20.212 44.9578 20.212C45.2033 20.212 45.4034 19.9799 45.3943 19.7418C45.3822 19.4886 45.167 19.3078 44.9214 19.3078C44.6759 19.3078 44.4758 19.5399 44.4849 19.778Z" fill="black"/>
<path d="M43.3693 69.1205C44.6364 69.8981 45.9611 70.5823 47.2888 71.2544C47.8193 71.5196 48.2285 70.7209 47.701 70.4497C46.3491 69.7685 45.0062 69.0632 43.7148 68.2766C43.5239 68.1138 43.2298 68.1138 43.057 68.3067C42.7812 68.6141 43.0419 68.9969 43.3693 69.1235V69.1205Z" fill="black"/>
<path d="M50.1292 72.9061C50.3778 72.9061 50.5748 72.674 50.5657 72.4359C50.5536 72.1827 50.3384 72.0019 50.0928 72.0019C49.8473 72.0019 49.6472 72.234 49.6563 72.4721C49.6684 72.7252 49.8837 72.9061 50.1292 72.9061Z" fill="black"/>
<path d="M73.5585 56.2747C74.8923 56.9016 75.4773 51.2202 75.1863 50.4064C75.153 49.9121 74.6225 49.1616 74.1314 49.6861C73.9859 49.876 74.0132 50.1744 74.2163 50.319C74.4072 50.7952 74.3345 51.38 74.3284 51.8954C74.2617 52.8689 74.1556 53.755 73.8374 54.7074C73.7616 55.2078 72.9704 55.8648 73.5585 56.2747Z" fill="black"/>
<path d="M71.8004 58.3785C72.049 58.3785 72.2521 58.1675 72.249 57.9204C72.249 57.6732 72.0368 57.4743 71.7883 57.4743C71.5397 57.4743 71.3366 57.6853 71.3396 57.9324C71.3396 58.1796 71.5518 58.3785 71.8004 58.3785Z" fill="black"/>
<path d="M65.7618 28.9587C66.0104 28.9587 66.2135 28.7477 66.2105 28.5006C66.2105 28.2534 65.9983 28.0545 65.7497 28.0545C65.5011 28.0545 65.298 28.2655 65.3011 28.5126C65.3011 28.7598 65.5133 28.9587 65.7618 28.9587Z" fill="black"/>
<path d="M47.1798 39.9779C47.4284 39.9779 47.6315 39.767 47.6284 39.5198C47.6284 39.2727 47.4162 39.0737 47.1677 39.0737C46.9191 39.0737 46.716 39.2847 46.719 39.5319C46.719 39.779 46.9312 39.9779 47.1798 39.9779Z" fill="black"/>
<path d="M62.3608 74.7537C62.1122 74.7537 61.9091 74.9647 61.9121 75.2118C61.9121 75.459 62.1243 75.6579 62.3729 75.6579C62.6215 75.6579 62.8246 75.4469 62.8215 75.1998C62.8215 74.9526 62.6093 74.7537 62.3608 74.7537Z" fill="black"/>
<path d="M80.4941 67.7039C80.2455 67.7039 80.0424 67.9149 80.0454 68.162C80.0454 68.4092 80.2576 68.6081 80.5062 68.6081C80.7548 68.6081 80.9579 68.3971 80.9548 68.15C80.9548 67.9028 80.7427 67.7039 80.4941 67.7039Z" fill="black"/>
<path d="M81.2489 58.0831C81.4974 58.0831 81.7006 57.8722 81.6975 57.625C81.6975 57.3779 81.4853 57.1789 81.2368 57.1789C80.9882 57.1789 80.7851 57.3899 80.7881 57.6371C80.7881 57.8842 81.0003 58.0831 81.2489 58.0831Z" fill="black"/>
<path d="M116.803 58.1736C116.803 57.9264 116.591 57.7275 116.343 57.7275C116.094 57.7275 115.891 57.9385 115.894 58.1856C115.894 58.4328 116.106 58.6317 116.355 58.6317C116.603 58.6317 116.807 58.4207 116.803 58.1736Z" fill="black"/>
<path d="M99.7674 66.9263C99.7674 67.1734 99.9796 67.3723 100.228 67.3723C100.477 67.3723 100.68 67.1614 100.677 66.9142C100.677 66.6671 100.465 66.4681 100.216 66.4681C99.9674 66.4681 99.7643 66.6791 99.7674 66.9263Z" fill="black"/>
<path d="M94.6504 87.934C94.4473 88.0515 94.3504 88.3469 94.4868 88.5518C94.6626 88.7689 94.7596 89.0944 95.0476 89.1848C95.4174 89.2993 95.7751 88.8472 95.5568 88.5187C95.3477 88.2143 95.0991 87.6808 94.6474 87.934H94.6504Z" fill="black"/>
<path d="M28.9463 20.6008C28.9463 20.3537 28.7341 20.1547 28.4855 20.1547C28.237 20.1547 28.0339 20.3657 28.0369 20.6129C28.0369 20.86 28.2491 21.0589 28.4977 21.0589C28.7462 21.0589 28.9493 20.848 28.9463 20.6008Z" fill="black"/>
<path d="M34.5967 25.1309C34.5967 24.8837 34.3845 24.6848 34.1359 24.6848C33.8874 24.6848 33.6843 24.8958 33.6873 25.1429C33.6873 25.3901 33.8995 25.589 34.1481 25.589C34.3966 25.589 34.5997 25.378 34.5967 25.1309Z" fill="black"/>
<path d="M26.03 40.4089C26.03 40.1618 25.8178 39.9629 25.5693 39.9629C25.3207 39.9629 25.1176 40.1738 25.1206 40.421C25.1206 40.6681 25.3328 40.8671 25.5814 40.8671C25.83 40.8671 26.0331 40.6561 26.03 40.4089Z" fill="black"/>
<path d="M15.2446 44.7823C14.996 44.7823 14.7929 44.9933 14.7959 45.2404C14.7959 45.4876 15.0081 45.6865 15.2567 45.6865C15.5053 45.6865 15.7084 45.4755 15.7053 45.2284C15.7053 44.9812 15.4931 44.7823 15.2446 44.7823Z" fill="black"/>
<path d="M80.4276 38.3293C80.6762 38.3293 80.8793 38.1183 80.8762 37.8711C80.8762 37.624 80.664 37.4251 80.4155 37.4251C80.1669 37.4251 79.9638 37.636 79.9668 37.8832C79.9668 38.1303 80.179 38.3293 80.4276 38.3293Z" fill="black"/>
</g>
<defs>
<clipPath id="clip0_9218_3997">
<rect width="133" height="106" fill="white"/>
</clipPath>
</defs>
</svg>
