<svg width="156" height="152" viewBox="0 0 156 152" fill="none" xmlns="http://www.w3.org/2000/svg">
  <g clip-path="url(#a)">
    <path d="M155.622 37.102c.327 5.597.503 11.224.282 16.821-.272 3.301-.433 6.599-.382 9.906-.055 4-.186 7.9-.285 11.882-.076 5.377-.844 10.712-1.081 16.078-.251 3.525-.162 7.056-.331 10.584-.192 3.346-.499 6.678-.595 10.027-.114 3.425-.444 6.843-.898 10.24-.179 1.184-.321 2.406-.551 3.604.069.588-.152 1.142-.399 1.673a10.83 10.83 0 0 1-.613 1.621c-.059.155-.121.31-.189.461-.947 2.017-2.255 3.834-3.546 5.641-2.127 2.985-4.588 5.704-7.555 7.859-4.082 2.629-8.357 5.077-12.921 6.715-2.262.768-4.651.96-7.008 1.219-2.007.192-4.014.416-6.034.409-7.855-.158-15.672-.292-23.489-.988-3.17-.227-6.302-.234-9.455-.602a78.538 78.538 0 0 0-6.013-.399c-1.511-.021-3.022.068-4.502-.155a148.42 148.42 0 0 1-5.332-.21c-2.114-.159-4.22-.465-6.344-.517-2.767-.151-5.531-.464-8.281-.805-2.072-.282-4.114-.761-6.2-.926-2.695-.22-5.359-.52-8.016-1.019-2.764-.564-5.418-1.549-8.092-2.423-4.826-1.673-8.53-3.714-8.984-9.29-.1-1.229-.382-2.385-.53-3.566-2.864-1.487-5.717-3.008-8.082-5.235-3.47-3.167-5.648-7.576-6.715-12.109-1.043-4.929-1.487-10.006-1.749-15.025-.134-2.382-.103-4.764-.323-7.142C.968 87.59.572 83.74.445 79.873c-.097-2.964-.293-5.92-.317-8.884.165-3.87.052-7.735-.107-11.6-.1-6.048.341-12.11.971-18.119-.014-1.545-.072-3.09-.024-4.636.217-3.036-.134-6.041-.32-9.063-.372-6.103-.362-12.79 3.27-18.016 1.88-2.237 3.958-4.447 6.491-5.93 1.057-.558 2.169-1.006 3.35-1.209l.347-.058h.007c1.143-.23 2.169-.54 3.305-.785 7.338-1.4 14.824-1.38 22.27-1.36 3.586.073 7.273.042 10.825.1 3.745.117 7.486.19 11.217.228C67.224.47 72.71.775 78.204.516c3.39-.134 6.774-.43 10.171-.509 2.674-.041 5.349.12 8.013.303 5.576.4 11.18.379 16.759.42 6.502-.041 13.208.255 19.338 2.612 4.01 1.566 7.91 3.312 11.469 5.742 1.617 1.063 3.177 2.264 4.405 3.772 1.002 1.377 2.145 2.66 2.968 4.158.891 1.831 1.934 3.631 2.292 5.666.113.447.224.895.334 1.342.272.754.509 1.511.747 2.293.829 3.528.778 7.176.922 10.777v.01Z" fill="#F3F3F4"/>
    <path d="M153.725 49.555c-.179-3.411-.641-6.805-.709-10.223-.073-1.886-.028-3.8-.031-5.69a46.767 46.767 0 0 1-.093-3.927c-.117-6.375-3.15-12.54-7.91-16.738-1.546-1.333-3.026-2.761-4.809-3.776-1.387-.785-2.884-1.384-4.34-2.038-2.072-.75-4.075-1.694-6.151-2.427-2.069-.485-4.196-.716-6.295-1.05-1.9-.21-3.707-.306-5.635-.719-1.556-.375-3.167-.475-4.76-.561-.376.003-.754.01-1.129.017-.035-.007-.069-.01-.104-.017a.8.8 0 0 0-.306.024c-4.272.072-8.54.227-12.808-.052-1.807-.154-3.62-.051-5.428-.092-3.194-.124-6.406-.197-9.596.013-1.453.159-2.916.162-4.372.269-1.614.24-3.235.213-4.86.186a44.978 44.978 0 0 1-7.49-.024c-2.495-.245-5.015-.22-7.517-.183-2.372.055-4.757-.127-7.128-.024a56.947 56.947 0 0 1-4.334.141c-2 .162-3.883.169-5.944.041-1.401-.079-2.802.025-4.2.1-2.65.038-5.3-.31-7.944.02-1.959.252-3.934.293-5.893.514-1.996.24-3.986.547-5.989.723-.998.11-1.941.46-2.891.77-.926.262-1.89.348-2.802.672-2.891 1.019-5.83 2.63-7.493 5.294-1.23 2.096-2.152 4.52-2.041 6.984.006.04.006.082.01.127-.093.244-.086.54-.096.795-.028 1.322.024 2.647.1 3.969 0 3.036.316 6.061.185 9.097-.024 3.17.076 6.354-.148 9.517-.12 5.58-.946 11.211-1.001 16.815-.207 5.559.23 11.11.399 16.666.117 3.941.492 7.727.881 11.686.2 3.418.578 6.911.953 10.33.558 4.143.775 8.288 1.185 12.449-.204.334-.08.843.106 1.315.09 1.549.23 3.098.585 4.609.365 1.717 1.209 3.27 2.01 4.819.407.819.944 1.645 1.536 2.361 1.377 1.649 2.891 3.184 4.732 4.344a30.59 30.59 0 0 0 2.63 1.511c.014.01.031.017.048.024l.162.079c.43.327.892.609 1.373.85 1.291.754 2.53 1.27 2.933 2.761.124 1.845 0 3.738.988 5.376.82 1.494 2.237 2.358 3.673 3.219 1.975 1.297 4.271 1.858 6.564 2.309 3.559.847 7.104 1.769 10.718 2.361 3.404.486 6.836.764 10.23 1.315 6.027.84 12.109 1.164 18.174 1.584 2.382.196 4.76.406 7.149.464 4.943.172 9.872.665 14.814.871 6.578.248 13.163.368 19.744.551 11.183.254 20.353-3.969 28.507-11.442 1.721-1.321 3.005-3.087 4.258-4.839.967-1.411 2.086-2.733 2.85-4.272.368-.86.65-1.779.809-2.705.024-1.391.103-2.85.512-4.213.255-.43.493-1.198.276-1.659.392-2.475.798-4.95 1.053-7.442.045-2.069.059-4.141.069-6.213-.072-1.666.317-3.29.382-4.949.107-1.618-.076-3.188.052-4.816.289-1.927.106-3.869.203-5.806.285-5.37.957-10.709 1.132-16.082.086-4.526.028-9.032-.165-13.568-.348-4.141.327-8.268.434-12.398l-.007.003ZM3.71 78.072c-.24-5.48-.55-10.963-.616-16.446-.058-6.247.63-12.412 1.016-18.642.223-4.206.155-8.498.22-12.718.014-2.537-.234-5.074-.22-7.61-.07-1.195-.11-2.4-.104-3.597a.59.59 0 0 0 .056-.197c.01-.134.013-.268.02-.402.017-.11.024-.22.014-.33.007-.39 0-.779.01-1.168a.668.668 0 0 0 .2-.578c2.585-4.024 6.543-5.022 10.89-6.017 7.28-1.8 14.815-1.504 22.264-1.745 4.11-.151 8.226.083 12.34-.027 5.383-.172 10.766-.214 16.153-.269 3.89-.044 7.782-.151 11.672-.017 4.426.213 8.925.51 13.376.489 6.24.24 15.072-.093 20.428 3.297 2.895 1.835 4.361 3.883 5.225 7.201.747 2.592.792 5.28.726 7.962.021 2.292-.155 4.574-.279 6.863-.154 2.809-.065 5.624-.031 8.433.076.864 0 1.718-.068 2.578-.052 2.003-.062 4.003-.114 6.006.131 3.064-.385 6.117-.389 9.18a.743.743 0 0 0 .004.475v.41c0 .003 0 .01.003.014-.01 1.15-.083 2.344-.065 3.5-.142 3.81-.107 7.628-.369 11.435-.458 4.161-.461 8.36-.791 12.535-.369 7.755-.131 15.545-.871 23.276-.227 1.604-.472 3.304-.864 4.901-.52 1.783-1.439 3.538-2.32 5.18-1.38 2.558-3.897 4.379-6.636 5.277-4.052 1.16-8.347.891-12.509.64a84.38 84.38 0 0 1-5.531-.272 90.323 90.323 0 0 1-7.242-.358c-2.957-.21-5.934-.609-8.908-.781a.657.657 0 0 0-.547-.169c-5.394.227-10.688-.399-16.099-.647-6.677-.434-13.365-.984-20.012-1.776-6.154-.785-12.412-1.58-18.115-4.185a17.732 17.732 0 0 1-1.966-1.105.71.71 0 0 0-.24-.162 22.271 22.271 0 0 1-2.761-2.2c-.957-.846-1.873-1.758-2.564-2.839-.462-.764-.75-1.628-1.088-2.461a6.71 6.71 0 0 1-.365-.802c-.02-.272-.038-.544-.062-.816-.213-1.628-.272-3.263-.427-4.895-.323-4.695-1.001-9.358-1.438-14.043-.241-4.162-.761-8.182-1.006-12.367v-.01Zm7.47 44.203c-.444-.747-.606-1.752.155-2.354.268-.142.53-.355.85-.276.186.042.368.045.55.079.176.114.351.221.537.324 6.874 3.907 14.99 4.574 22.69 5.559 6.578.681 13.145 1.246 19.75 1.621 3.983.203 8.034.589 12.062.575a.709.709 0 0 0 .289.038c4.302.065 8.574.74 12.87.998 2.533.237 5.083.117 7.613.399 3.219.045 6.427.327 9.648.32 2.355-.058 4.737-.275 6.991-.977 2.974-1.019 5.735-3.036 7.239-5.841.974-1.794 1.951-3.676 2.495-5.663 1.002-4.25 1.263-8.711 1.346-13.072.141-7.766.392-15.524.83-23.275.619-6.502.64-13.025.805-19.551-.003-.183 0-.393-.024-.589 0-.933.072-1.869.096-2.802.1-1.645.252-3.283.344-4.922-.086-1.772 0-3.545.031-5.321-.065-1.652.207-3.298.111-4.946-.117-4.014-.066-8.027.23-12.034.114-4.295.43-8.753-1.105-12.849-.76-2.943-2.956-5.239-5.479-6.822-5.738-3.604-15.108-3.253-21.795-3.466-4.953.007-9.865-.43-14.825-.544-4.53-.045-9.063.072-13.59.12-5.166 0-10.332.235-15.499.248-4.254-.058-8.502-.048-12.753.097-6.044.134-12.147.1-18.053 1.559-3.112.702-6.42 1.335-9.073 3.232-.379.293-.954.764-1.535 1.311 1.239-3.49 4.626-5.669 8.06-6.736.706-.196 1.44-.275 2.149-.471.867-.241 1.7-.61 2.595-.757 2.344-.231 4.667-.575 7.005-.85 2.35-.114 4.691-.424 7.038-.562 2.02-.058 4.038.183 6.058.117 2.028-.161 4.062-.123 6.093-.024 1.3.076 2.595-.024 3.89-.113 1.638.02 3.273-.073 4.908-.165 5.094.089 10.23-.149 15.334.32 1.335.034 2.674.14 4.01.075 1.101-.075 2.203-.182 3.308-.127 1.442.076 2.877-.09 4.31-.234 1.934-.062 3.854-.241 5.785-.34 5.304-.046 10.605.102 15.902.278 3.432.207 6.864-.02 10.296-.059a9.2 9.2 0 0 1 .392.066c1.236.213 2.495.382 3.704.73 2.33.946 4.46 2.505 6.23 4.333.55.589 1.07 1.201 1.555 1.842.864 1.204 1.594 2.533 2.283 3.838.096.237.161.509.361.67.134.314.262.627.379.944 1.204 3.184 1.844 6.67 2.037 10.085.2 3.111-.041 6.278-.075 9.4-.186 3.074-.393 6.144-.51 9.221-.217 3.305-.533 6.626-.737 9.941-.278 5.352-.588 10.808-.943 16.195-.351 4.502-.839 9.004-1.029 13.52-.155 1.938-.1 3.876-.168 5.817-.252 2.84-.338 5.69-.537 8.533-.059 4.32-.197 8.636-.689 12.932-.272 1.982-.272 3.996-.547 5.975-.114 1.391-1.157 5.253 1.091 5.287 1.25-.258 2.43-.816 3.583-1.342.892-.527 1.363-.751 2.014.299.767 1.232.926 2.719 1.081 4.131.096 1.239.361 2.457.44 3.7.124 1.438.262 2.87.396 4.302a1.2 1.2 0 0 0 .045.585l.02.121c.138 1.48.272 2.963.382 4.457.049.85.131 1.835.135 2.747.048.43-.083 1.067.058 1.501-2.857 1.662-5.893 2.984-9.076 3.827-.155-1.087-.369-2.158-.403-3.263a29.772 29.772 0 0 0-.238-1.776c-.055-1.143-.251-2.313-.454-3.438-.179-2.365-.272-5.601-3.143-5.298-1.628.362-2.963 1.446-4.481 2.11-5.315 1.618-10.946.572-16.398.544-5.142-.131-10.288-.289-15.417-.726-5.982-.63-11.875-1.525-17.892-2.141-5.417-.664-10.818-1.074-16.232-1.831-4.578-.348-9.15-1.15-13.727-1.587-2.953-.269-5.917-.434-8.88-.609-2.162-.238-4.351-.393-6.386-1.215a.661.661 0 0 0-.45-.379c-.654-.189-1.274-.468-1.88-.778-.044-.024-.09-.048-.134-.069-.685-.354-1.353-.743-2.034-1.098a19.42 19.42 0 0 1-4.272-3.628l.004-.003Zm96.015 26.156c-4.967-.127-9.937-.258-14.9-.465-4.943-.254-9.879-.733-14.829-.843-5.084-.361-10.167-.716-15.251-1.088-3.563-.292-7.122-.657-10.65-1.225-3.655-.485-7.383-.723-11.004-1.542-2.31-.513-4.626-.998-6.915-1.608-1.873-.492-3.876-.664-5.6-1.597-.775-.395-1.522-.788-2.203-1.225-.01-.017-.017-.034-.031-.055-.551-.534-.905-1.219-1.16-1.938-.55-1.58.489-3.184 1.697-4.158 1.136-.946 2.684-1.318 4.144-1.363.712-.021 1.428 0 2.144-.027a.637.637 0 0 0 .52-.035c2.196.155 4.392.348 6.585.692 3.604.595 7.16.795 10.797 1.26 7.803.998 15.651 1.607 23.461 2.691 3.67.431 7.328.968 11.015 1.243 6.78.475 13.579.465 20.363.86 3.377.093 6.86.135 10.092-.977 1.404-.599 2.626-1.59 4.113-1.996.926-.166 1.167.898 1.301 1.669a.72.72 0 0 0-.086.282c-.01.382.11.609.148 1.016.069.53.165 1.077.265 1.631.107 1.04.227 2.079.41 3.115.041 1.332-.186 2.62-1.06 3.759-.389.485-.902.829-1.477 1.06-.592.303-1.194.64-1.852.805a.993.993 0 0 0-.413.097c-3.201.251-6.412-.014-9.617-.035l-.007-.003Zm44.764-85.566c.151 4.165.206 8.382.127 12.564-.165 5.696-.957 11.39-1.167 17.1.031 1.803 0 3.607-.21 5.4-.027 1.773.111 3.439-.079 5.267-.554 3.493-.203 7.046-.406 10.56-.196 1.559-.447 3.105-.668 4.66a55.57 55.57 0 0 1-.375 2.393c-.048.254-.062.512.017.75-.526 1.263-.681 2.647-.757 4.007.11 2.523-1.494 4.712-2.963 6.646-.999 1.394-1.983 2.819-3.174 4.072a57.449 57.449 0 0 1-3.201 2.84c-.038.01-.076.017-.114.031-.722.275-1.483.881-2.282.843H136.762c-2.12.1-2.54-1.415-2.901-3.17-.114-.671-.289-1.329-.393-2-.155-1.628-.316-3.256-.447-4.888-.461-2.733-.269-10.171-4.172-10.013-.63.124-1.16.572-1.748.813-.768.299-1.704.733-2.537.96-.255-1.256.117-2.575.251-3.838.344-4.347.888-8.684 1.084-13.042.09-5.032.327-9.975.706-15.01-.028-6.454.719-12.874 1.208-19.307.413-5.924.637-11.806 1.067-17.737.117-3.125.558-6.23.654-9.358.251-6.733 1.012-13.5.234-20.226-.533-3.418-1.363-6.88-2.97-9.961.01-.355-.197-.771-.382-1.064a20.53 20.53 0 0 0-1.415-2.488c-.392-.668-.806-1.422-.836-2.22.041-.765.746-1.38 1.48-1.484 1.352-.083 2.867 0 4.175.303.027 0 .051 0 .075-.003 1.876.743 3.759 1.542 5.649 2.257 2.561 1.102 5.022 2.22 7.066 4.203 5.129 4.017 8.681 10.061 8.901 16.656.09 4.093.038 8.189.231 12.281.121 2.603.472 5.188.606 7.786-.155 4.468-.795 8.929-.392 13.407l.003.01Z" fill="#0D0C22"/>
    <path d="M17.4 104.772c1.239.124 2.447.183 3.69.31 5.837.465 11.737.227 17.595.506 1.976-.038 3.948-.007 5.92-.117.74-.124 2.224.427 2.324-.682a.695.695 0 0 0-.689-.688 39.351 39.351 0 0 0-3.435.079c-3.827.062-7.651-.093-11.482-.138-4.13-.065-8.213-.075-12.337-.516-.705.041-1.955-.523-2.175.472-.048.358.213.74.588.774Z" fill="#0D0C22"/>
    <path d="M12.264 108.865c.88 1.07 2.037 2.058 3.397 2.43 2.234.464 4.41.223 6.712.461 3.174.151 6.278.499 9.469.668.943.117 1.752-.406 2.537-.847a5.92 5.92 0 0 0 1.869-1.284c3.896-.086 7.824-.179 11.713-.544 1.917.014 3.9-.836 4.399-2.843.372-1.463.561-3.06-.065-4.478-1.422-2.31-3.98-2.01-6.31-1.721-1.018.024-2.037.024-3.053.155-.874.076-1.738-.093-2.599-.207-1.445-.127-2.922-.237-4.364-.413-.771-.495-1.463-1.098-2.289-1.51-.833-.59-1.618-1.285-2.681-1.357-4.19-.681-8.42-1.012-12.674-.885-1.673.042-3.521-.037-4.905 1.064-2.32 1.98-2.437 5.432-2.247 8.268a6.574 6.574 0 0 0 1.087 3.043h.004Zm2.062-10.264c1.166-.847 2.708-.668 4.075-.734a75.75 75.75 0 0 1 6.729.159c2.072.189 4.248.454 6.316.846.84.517 1.6 1.16 2.489 1.601.56.403 1.077.933 1.755 1.132 1.226.135 2.468.252 3.707.345 1.212.082 2.434.392 3.66.278 1.039-.134 2.013-.11 3.1-.158 1.694-.138 3.821-.668 4.926 1.015.444 1.253.213 2.62-.182 3.862-.506.985-1.58 1.374-2.637 1.405a87.81 87.81 0 0 0-2.946.261c-2.72.117-5.446.162-8.165.317-.533.107-1.24-.289-1.594.268-.437.149-.715.575-1.118.799-.74.32-1.401.881-2.19 1.057-5.004-.258-9.998-.83-15.027-.892-1.704-.051-3.312-1.129-4.138-2.595-.506-.96-.592-2.1-.592-3.174-.058-1.886.241-4.512 1.832-5.793ZM11.92 61.709c-.03 2.84.29 5.672.458 8.505.162 2.206.179 4.464.898 6.578.881 3.397 3.525 6.027 6.564 7.627 4.358 2.492 9.48 2.895 14.391 3.15 2.95.192 5.91.117 8.857.382 1.948.172 3.9.303 5.855.306 5.775.134 11.579.01 17.358.42 7.989.158 15.981.32 23.97.558 2.843.04 5.68-.204 8.488-.634 1.842-.3 3.68-.695 5.339-1.587 1.342-.743 2.296-2.037 2.843-3.448a14.309 14.309 0 0 0 1.401-4.069c.451-2.533.967-5.063 1.335-7.61.042-.527.104-1.05.169-1.573.217-.465.227-1.16.224-1.763.089-.798.151-1.597.117-2.399-.069-3.118.017-6.295-.014-9.441-.041-.813.179-1.597.151-2.41-.017-1.139 0-2.275.09-3.41-.103-1.78-.162-3.56-.317-5.336a147.87 147.87 0 0 0-.623-6.867c-.155-1.697-.227-3.4-.489-5.087-.402-2.65-.313-5.352-.805-7.975-.289-1.508-1.332-2.678-2.341-3.773-2.781-3.053-7.53-3.4-11.43-3.528-8.65-.14-17.27-1.032-25.92-1.208-6.715-.213-13.437-.182-20.152-.262-2.31.093-4.62.138-6.922.328-1.924.096-3.865.034-5.783.25-4.743.579-9.69.035-14.184 1.966-2.458 1.191-4.95 2.547-6.413 4.95-.964 1.635-1.411 3.517-1.903 5.335-.227 1.456-.345 2.94-.438 4.413.021 1.531-.278 3.046-.2 4.574.035 1.57-.247 3.256-.32 4.843-.268 2.85.049 5.707-.188 8.56-.2 3.208.165 6.423-.063 9.631l-.003.004Zm6.337-11.992c-.12-2.062-.076-4.12.017-6.182.059-.148.103-.303.141-.448.107-.492.252-.967.451-1.432.878-2.216 3.125-3.772 5.504-3.724.224.028.447.062.671.1a.698.698 0 0 0 .138.027c.94.186 1.859.493 2.722.92 2.224 1.066 3.924 3.256 6.55 3.304 2.723.186 5.343-1.016 7.356-2.788 1.016-.813 2.014-1.673 3.15-2.31 1.187-.56 2.326-.912 3.655-1.201 3.143-.706 6.337.327 9.015 1.976 1.556.891 2.926 2.12 4.578 2.84 1.824.65 3.907.46 5.738-.073 1.115-.351 2.134-.974 3.156-1.528 4.678-2.837 8-4.124 13.245-1.518 2.296 1.132 4.667 2.537 7.287 2.585 1.428-.014 2.798-.523 4.147-.933 1.215-.396 2.279-1.15 3.48-1.583.376-.107.754-.217 1.136-.32.1 0 .21 0 .362.01 2.998-.379 5.848.922 7.07 3.78.182.47.292.966.492 1.431.048.193.089.41.172.599.045 1.167.069 2.334.076 3.5-1.721-.602-2.771-.912-4.516-.34-.052 0-.104.007-.152.01-.272-.1-.616.007-.805.227a.64.64 0 0 0-.162.448c-.041.34.131.709.585.805.282.045.561-.041.84-.13.231-.018.458-.032.688-.01 1.449.243 2.764.467 3.115 2.123.059.609.038 1.225.09 1.855-.059.823-.22 1.724-.661 2.447-.578.627-1.456.974-2.299 1.119l-.238-.031c-1.005-.186-2.031-.313-3.039-.193a76.882 76.882 0 0 0-5.108 1.28c-.788.16-1.573.324-2.347.527a8.847 8.847 0 0 1-1.446-.044c-.073-.018-.145-.031-.217-.049-.42-.079-.916-.361-1.35-.327a.698.698 0 0 0-.268-.04c-.623.04-.816.774-.461 1.16.114.333.447.557.857.409.392.117.806.168 1.215.203.451.1.909.172 1.37.21 1.473.189 2.888-.286 4.223-.85 1.986-.902 4.076-1.154 6.172-.94.086.051.189.09.313.1.076-.007.155-.014.231-.024.347.079.688.168 1.019.258 1.18.506 1.738 1.638 2.182 2.798.045.117.093.42.12.572.004.013.014.027.018.04.01.366.017.73.031 1.095-.093.944-.124 1.893-.193 2.84.058 1.002-.554 1.883-1.033 2.76-.554.661-1.538.758-2.347.806-.059 0-.121-.01-.179-.014-1.336-.344-2.678-.678-4.052-.757-1.49 0-2.846.678-4.164 1.294-1.126-.458-1.408 1.232-.28 1.415.366.062.748-.11 1.071-.258.744-.351 1.487-.716 2.29-.93.767-.216 1.545-.144 2.312.007.038.014.079.02.121.024.196.042.392.086.588.131.616.186 1.208.337 1.873.43.743.19 1.483.393 2.254.517.3.151.575.347.795.606.269.292.537.78.565 1.218.014.4-.138.781-.103 1.188 0 .048-.011.185-.028.327-.007.433-.413.812-.189 1.242.007.01.014.017.017.024a184.292 184.292 0 0 1-.664 3.645c-.159.104-.307.23-.431.348-1.796 1.37-4.14 1.714-6.267 2.368-2.957.668-5.787 1.308-8.87 1.45-2.833.168-5.852.164-8.716.34-4.447.196-8.898.489-13.348.606-7.531.038-15.042-.176-22.552-.882a147.531 147.531 0 0 1-8.33-.819c-3.807-.413-7.645-.726-11.283-2-5.604-2.447-7.934-3.868-8.454-10.305-.237-2.998-.347-5.996-.261-9.008-.193-3.452.038-6.925-.451-10.364v.01Zm84.065-24.17c.165.09.354.144.55.151 1.563.423 3.081 1.101 3.959 2.54a.66.66 0 0 0 .323.527l.031.77c.131 1.357.258 2.713.413 4.07.141 1.063.248 2.127.348 3.19-2.248-1.37-5.046-1.535-7.552-.764-.055.01-.107.024-.162.035h-.068a.629.629 0 0 0-.4.11c-1.177.31-2.275.833-3.345 1.41-1.418.634-2.936 1.102-4.478 1.302-2.723.055-5.088-1.56-7.48-2.678-1.762-.812-3.717-1.329-5.666-1.311-4.165-.066-7.383 2.953-11.049 4.454-1.48.485-3.252.664-4.787.265-1.23-.472-2.269-1.315-3.367-2.024-3.046-2.086-6.722-3.7-10.48-3.074-2.823.372-5.429 1.528-7.56 3.414-2.123 1.935-4.887 3.474-7.861 2.875-1.046-.214-1.855-.954-2.716-1.529-1.625-1.239-3.5-2.12-5.449-2.533l-.068-.031a5.821 5.821 0 0 0-.868-.134c-2.01-.269-4.072-.035-5.989.826.017-.379.035-.757.048-1.136.355-2.881.65-6.013 2.389-8.474.809-.833 1.945-1.198 3.008-1.625 3.377-1.335 6.915-1.563 10.52-1.817 2.773-.255 5.53-.689 8.319-.789 5.287-.117 10.629-.055 15.926.045 4.581-.024 9.152.238 13.737.19 3.205.03 6.402.258 9.607.25 5.163.018 10.333.07 15.458.786 1.607.213 3.139.206 4.712.709h-.003ZM13.837 39.962c.045-1.298-.02-2.599.141-3.89.155-2.753.155-5.565 1.081-8.199.379-1.135.727-2.32 1.477-3.273 1.37-1.962 3.58-2.995 5.662-4.027 3.043-1.174 6.31-1.377 9.538-1.463 1.848-.003 3.676-.317 5.518-.423 3.865-.083 7.717-.372 11.582-.469 6.85.142 13.782.028 20.652.31 6.674.186 13.338.661 20.005 1.06 4.365.166 8.888-.203 13.011 1.515.017.007.031.017.048.024.097.09.207.169.32.23.555.538 1.178 1.22 1.081 2.056-.134.774-.939.85-1.566.657a.785.785 0 0 0-.186.024 14.782 14.782 0 0 0-2.086-.406c-.826-.062-1.655-.093-2.471-.238-5.177-.705-10.402-.764-15.617-.774-3.865-.007-7.724-.313-11.592-.258-4.933-.059-9.862-.21-14.798-.22-4.072-.19-8.144-.014-12.215-.038-2.72.093-5.473.433-8.186.743-2.292.258-4.622.3-6.911.671a28.67 28.67 0 0 0-6.034 1.814c-.812.369-1.642.775-2.248 1.45-.654.863-1.125 1.868-1.528 2.873-.516 1.167-.647 2.437-.878 3.69a36.237 36.237 0 0 0-.454 5.353c-.234 2.895-.4 5.806-.361 8.715-.055 2.12.354 4.203.358 6.32.068 1.15.12 2.295.037 3.445.1 2.069.114 4.134.107 6.21-.014 1.448.014 2.898.21 4.336.024 1.253.138 2.496.42 3.718.248 2.705 1.807 5.17 4.062 6.667 6.288 4.196 12.814 4.044 19.977 5.015 8.533.788 17.093 1.353 25.667 1.29 6.296.018 12.578-.588 18.87-.75 4.574-.055 9.145-.364 13.585-1.528l.479-.124a.693.693 0 0 0 .396.014c.705-.1 1.576-.175 2.265.062.354.268.802.496 1.008.905.22.458.437 1.122.151 1.608-.182.358-.502.67-.767.984-2.041 1.37-5.043 1.549-7.345 1.886-4.775.647-9.62.148-14.436.104-4.984-.124-9.965-.241-14.95-.303a168.89 168.89 0 0 0-9.141-.341c-3.728-.058-7.476-.028-11.207-.165-2.947-.186-5.883-.482-8.84-.486-6.116-.265-12.584-.23-17.984-3.541-1.7-1.085-3.294-2.43-4.261-4.227-1.773-3.15-1.539-6.88-1.86-10.368-.188-1.924-.264-3.858-.333-5.79.052-1.651.145-3.3.038-4.952.048-1.208.014-2.417-.048-3.625.072-1.917.227-3.838.189-5.762-.165-2.709.169-5.41.375-8.106l-.007-.003Z" fill="#0D0C22"/>
    <path d="M24.043 59.798c.072.348.475.637.73.926 2.533 2.623 5.514 4.823 8.612 6.74 4.275 2.323 9.138 3.239 13.97 3.218 3.629.049 7.253-.31 10.836-.85 2.737-.506 5.514-.895 8.106-1.955.954-.34 3.356-1.136 4.633-2.041.475 2.915 3.143 5.036 5.56 6.57 1.565.785 3.252 1.285 4.828 2.066 1.484.527 3.023.943 4.582 1.18 1.304.114 2.602.242 3.903.383.847-.066 2.64.41 2.568-.93-.131-.946.175-1.907-.017-2.85-.286-.998-.658-1.982-1.033-2.95-.503-.946-1.184-1.78-1.79-2.66-.675-.816-1.318-1.663-2.02-2.454-.83-.806-1.804-1.463-2.727-2.162-1.263-.613-2.381-1.453-3.565-2.2a6.747 6.747 0 0 0-.317-.227 13.12 13.12 0 0 0 2.137-1.084c1.143-.767 2.344-1.477 3.353-2.42 1.535-1.538 2.957-3.283 3.865-5.27.465-1.356.881-2.77.916-4.216 0-1.442-.2-2.905-.75-4.244-.152-.492-.703-.571-1.136-.444-1.628.282-3.184.843-4.792 1.212-1.51.34-2.915 1.046-4.292 1.738-2.034 1.17-3.741 2.791-5.29 4.536-1.353 1.467-2.571 3.112-3.188 5.019-.137-.134-.271-.265-.368-.403-2.09-2.23-4.96-3.583-7.762-4.695-4.01-1.497-8.236-2.392-12.518-2.588-5.762-.393-11.738.564-16.701 3.645-1.824 1.122-3.666 2.279-5.256 3.717-.764.747-1.59 1.422-2.344 2.18-.661.719-1.226 1.517-1.91 2.216-.372.361-1.043.72-.823 1.287v.01Zm3.855-2.691c1.594-1.47 3.143-2.988 4.994-4.138 4.052-2.908 8.767-4.646 13.775-4.867 5.511-.275 11.118.517 16.288 2.472 2.534.964 5.09 2.172 7.073 4.051.5.482 1.209 1.718 1.938 1.112.33.13.758.041.913-.4.719-2.715 2.774-4.777 4.688-6.725 1.628-1.68 3.782-2.912 5.965-3.773 1.913-.543 3.838-1.084 5.782-1.524 1.14 3.41.12 7.207-2.182 9.896-1.415 1.927-3.387 3.287-5.421 4.495-.792.433-1.639.767-2.506 1.015a.726.726 0 0 0-.699.706c-.144.791.909.877 1.436 1.187 1.332.868 2.602 1.845 4.037 2.534.826.602 1.656 1.222 2.437 1.886.695.781 1.325 1.621 2 2.42.83 1.173 1.773 2.289 2.11 3.717.172.496.42.97.499 1.494.058.668-.096 1.332-.069 2-1.105.055-2.303-.152-3.435-.262-2.082-.062-4.034-.616-6-1.329-1.383-.726-2.887-1.153-4.292-1.827-2.388-1.57-5.283-3.656-4.977-6.874-.038-.747-1.084-.84-1.325-.22a.705.705 0 0 0-.479.323 5.963 5.963 0 0 1-.65.437c-3.969 2.103-8.385 3.036-12.784 3.714-5.779.72-11.689 1.174-17.434-.2-3.776-.946-7.249-2.99-10.24-5.476-1.346-.963-2.52-2.12-3.683-3.283.868-.792 1.78-2.186 2.238-2.568l.003.007Z" fill="#0D0C22"/>
    <path d="M37.931 64.249c3.246 1.394 6.795 2.058 10.323 2.113h.117c2.138 0 4.265-.289 6.368-.657 3.531-.496 6.939-1.707 9.868-3.759 1.17-.785 2.355-1.57 3.329-2.595.344-.39.86-.73.936-1.274a.708.708 0 0 0-.358-.681.619.619 0 0 0-.1-.066c-1.24-1.456-2.988-2.302-4.705-3.06-3.06-1.659-6.44-2.708-9.845-3.387-4.137-.891-8.512-.915-12.487.672-1.986.688-3.983 1.452-5.783 2.547-1.697 1.153-3.232 2.516-4.774 3.862-.403.323-1.136.375-1.253.867-.224.258-.279.664.048.964 2.406 2.055 5.453 3.184 8.313 4.45l.003.004Zm15.493-8.512a1.59 1.59 0 0 1 .695-.716 3.89 3.89 0 0 1 .472-.217c-.004 0-.007 0-.01.003.003 0 .006 0 .01-.003h-.004l.031-.01c-.007 0-.013.003-.02.007h-.01.003c.172-.062.347-.114.533-.135.21-.024.407 0 .61.052.203.048.399.11.595.179.093.017.182.041.275.069a5.533 5.533 0 0 0-.203-.403c-.495-.967-1.246-1.79-2.25-2.237-.008 0-.015-.007-.018-.01 2.606.56 5.156 1.438 7.58 2.47 1.524.813 3.152 1.433 4.58 2.424.348.21.63.585.937.898-.42.455-.854.847-1.39 1.284-3.91 3.036-7.167 4.316-11.717 5.043.203-.138.389-.293.554-.482.323-.403.671-.785 1.022-1.167.86-.926 1.284-2.175 1.539-3.408-.09.038-.183.073-.272.104a3.354 3.354 0 0 1-.94.207l-.107.003a1.93 1.93 0 0 1-.623-.11 2.846 2.846 0 0 1-.657-.345c.003 0 .01.007.014.01-.017-.013-.038-.023-.055-.037-.007-.007-.017-.01-.024-.017a3.757 3.757 0 0 1-.688-.644 2.536 2.536 0 0 1-.304-.437 2.763 2.763 0 0 1-.289-.72c-.117-.554-.124-1.146.131-1.666v.01Zm-20.8 2.468c.991-.775 1.89-1.663 2.932-2.379 1.44-1.118 3.16-1.79 4.85-2.457 1.587-.589 3.188-1.178 4.85-1.48-.2.1-.4.203-.592.313-.726.499-1.25 1.225-1.78 1.917-.647.743-.974 1.69-1.025 2.671-.434 3.187.977 6.388 3.73 8.02a26.322 26.322 0 0 1-8.136-2.244c-2.096-.992-4.334-1.835-6.213-3.232.55-.348 1.084-.86 1.384-1.133v.004Z" fill="#0D0C22"/>
    <path d="M54.598 59.217s.029.018.04.029c-.019-.014-.04-.025-.058-.04.007.004.01.008.018.011ZM67.729 69.57c-.871.469-1.787.837-2.716 1.181-.489.165-.981.303-1.487.417-.43.027-.954.31-.864.84.052.357.42.653.781.578a13.725 13.725 0 0 0 2.055-.551c1.078-.44 2.3-.805 3.243-1.521.216-.228.385-.579.292-.895-.162-.623-1.098-.661-1.304-.052v.004ZM59.647 71.684a.693.693 0 0 0-.675.702.695.695 0 0 0 .703.675c.375 0 .681-.33.674-.703a.695.695 0 0 0-.702-.674ZM82.048 49.128c.465-.316.946-.599 1.442-.867.406-.207.82-.39 1.246-.558.62-.234 1.835-.516 1.363-1.418-.213-.351-.671-.416-1.002-.196-.863.358-1.758.65-2.57 1.129-.872.461-1.653 1.056-2.438 1.648-.303.22-.327.689-.1.968.696.73 1.45-.372 2.059-.71v.004ZM78.396 52.48c.375 0 .681-.33.674-.701a.695.695 0 0 0-.702-.675.693.693 0 0 0-.674.702.695.695 0 0 0 .702.675ZM68.197 35.133c-.571.385-1.253.643-1.927.795-.675.1-1.356.323-1.99-.041-.437-.155-.895-.269-1.308-.482-.53-.276-1.187-.895-1.659-.183-.644 1.264 2.427 1.842 3.225 2.224 1.59.093 3.346-.355 4.623-1.332.633-.637-.313-1.604-.964-.985v.004ZM59.533 33.377a.697.697 0 0 0-.705.672c-.01.368.296.705.671.705.375 0 .695-.289.706-.67.01-.37-.296-.707-.672-.707ZM40.582 44.168a11.372 11.372 0 0 0 2.888-2.244c.605-.54-.076-1.508-.792-1.122-.403.337-.747.757-1.167 1.084-1.112.902-2.41 1.57-3.748 2.062-.637.306-1.92-.017-1.876 1.002.3 1.58 3.862-.345 4.695-.782ZM33.26 45.332c.376 0 .696-.29.706-.672.01-.368-.296-.705-.67-.705a.697.697 0 0 0-.706.671c-.01.368.296.706.67.706ZM93.021 34.369c-.24.306-.169.72.114.967 1.053.706 2.409-.248 3.428-.64a33.97 33.97 0 0 1 2.599-1.06c.681-.33 2.361-.186 2.178-1.274-.086-.358-.468-.602-.829-.506-2.34.403-4.337 1.738-6.578 2.361-.286-.192-.702-.11-.912.155v-.003ZM103.003 32.465c.909 0 .954-1.366.038-1.408-.909 0-.95 1.367-.038 1.408ZM102.924 90.064c-.245.259-.606.293-.93.4-1.535.413-3.111.657-4.684.86-.572.114-1.876-.165-1.849.809.021.379.355.664.727.647 2.337-.151 4.681-.516 6.918-1.218.355-.114.73-.324.85-.696.255-.564-.495-1.19-1.029-.805l-.003.003ZM92.618 91.555c-.375 0-.667.368-.647.726.02.392.351.647.727.647.375 0 .667-.368.647-.726-.021-.393-.352-.647-.727-.647ZM8.967 50.797a.696.696 0 0 0 .743-.63c.12-2.154.313-4.312.382-6.467-.014-.361-.165-.664-.478-.85-.585-.348-1.291.43-.899.97-.09 2.08-.247 4.158-.378 6.237a.697.697 0 0 0 .63.744v-.004ZM9.035 54.918c.376 0 .672-.365.65-.727-.02-.389-.35-.65-.725-.65-.376 0-.672.365-.65.726.02.389.35.65.725.65ZM78.338 14.856c2.853.217 5.737-.028 8.587.334 1.443.3 1.477-1.77.128-1.37-2.847-.355-5.717-.134-8.567-.33-.902-.07-1.043 1.256-.152 1.37l.004-.004ZM74.93 14.574c.375 0 .681-.33.674-.703a.695.695 0 0 0-.702-.674.693.693 0 0 0-.674.702.695.695 0 0 0 .702.675ZM42.127 112.08c-.967-.062-1.945-.173-2.915-.086a5.482 5.482 0 0 0-2.33.76c-.445.289-.796.592-1.319.768a6.087 6.087 0 0 1-1.625.33c-.364.007-.688.327-.67.702.003.358.33.706.701.675.926-.065 1.849-.251 2.678-.685.579-.317 1.07-.771 1.711-.971.76-.268 1.573-.247 2.368-.213.55-.024 1.136.179 1.673.038a.697.697 0 0 0 .361-.905.705.705 0 0 0-.633-.417v.004ZM29.822 114.224a.693.693 0 0 0-.675.702.695.695 0 0 0 .702.675.693.693 0 0 0 .675-.702.695.695 0 0 0-.702-.675ZM109.849 116.802a.823.823 0 0 1-.031.275c-.702 1.697-1.628 3.37-2.97 4.647-.417.31-.857.623-1.35.813-.399.113-.691.502-.543.919.44.987 1.579.103 2.189-.252 1.184-.716 1.927-1.907 2.654-3.049.578-1.03 1.318-2.086 1.428-3.287.014-.902-1.311-.964-1.373-.073l-.004.007ZM102.263 123.307c-.375 0-.705.255-.726.647-.02.358.272.727.647.727s.706-.255.727-.647c.02-.358-.272-.727-.648-.727ZM120.465 20.78c.017.375.375.664.736.636 1.308-.127.262-2.912.066-3.703-.572-2.014-1.904-3.69-3.229-5.267-.595-.678-1.618.217-1.04.902.816.95 1.587 1.938 2.214 3.022.723 1.332 1.198 2.885 1.253 4.41ZM121.143 25.478c-.021.358.272.726.647.726s.705-.255.726-.647c.021-.358-.272-.726-.647-.726s-.706.255-.726.647ZM132.288 57.324c-.045-.372-.351-.665-.737-.637-.736.107-.647.726-.599 1.29-.058 2.892-.089 5.773-.23 8.681-.073.568-.358 1.44.43 1.611.355.07.75-.175.805-.544a16.24 16.24 0 0 0 .214-3.376c-.007-1.532.165-3.143.127-4.764-.01-.702.079-1.535-.007-2.261h-.003ZM131.359 71.116c-.376 0-.706.255-.727.647-.02.358.272.726.647.726.376 0 .706-.254.727-.647.02-.358-.272-.726-.647-.726ZM38.29 133.079c-1.718-.32-3.55-.161-5.15.575-.616.413-2.268.644-1.848 1.659a.698.698 0 0 0 .922.314c.572-.276 1.14-.568 1.724-.82.582-.237 1.195-.371 1.814-.464 1.04-.224 2.073.22 3.105.055a.695.695 0 0 0 .537-.813c-.124-.557-.637-.581-1.105-.509v.003ZM30.496 135.929c-.375 0-.705.255-.726.648-.02.358.272.726.647.726s.706-.255.726-.647c.021-.358-.271-.727-.647-.727ZM145.836 120.864c.052 1.063-.244 2.144-.279 3.218-.107 1.511-.396 3.063-1.149 4.392-.259.668-1.436 1.397-.73 2.117.647.509 1.091-.162 1.445-.678 1.216-1.666 1.673-3.752 1.814-5.776.014-1.184.431-2.372.252-3.545-.203-.885-1.508-.61-1.35.275l-.003-.003ZM141.991 131.723c-.375 0-.706.255-.726.647-.021.358.272.727.647.727s.705-.255.726-.647c.021-.358-.272-.727-.647-.727ZM144.848 18.732a.695.695 0 0 0-.954-.193.694.694 0 0 0-.193.953c.362.592.723 1.188 1.112 1.763.468.877.795 1.68 1.136 2.65.014.323.231.623.565.688a.697.697 0 0 0 .805-.544c-.01-.98-.62-1.893-.964-2.794-.413-.892-1.019-1.673-1.507-2.52v-.003ZM142.111 16.432c.021-.358-.272-.726-.647-.726s-.706.255-.726.647c-.021.358.272.726.647.726s.706-.254.726-.647Z" fill="#0D0C22"/>
  </g>
  <defs>
    <clipPath id="a">
      <path fill="#fff" d="M0 0h156v151.845H0z"/>
    </clipPath>
  </defs>
</svg>