<svg width="201" height="129" viewBox="0 0 201 129" fill="none" xmlns="http://www.w3.org/2000/svg">
  <path d="M34.117 41.443a3.543 3.543 0 0 1-.018-.165l-.048.178c.021-.005.042-.01.066-.013Zm8.555.88a.329.329 0 0 0-.043.02.305.305 0 0 0 .043-.02ZM200.52 90.59c.692.12.623 1.216-.149 1.182-7.753-.23-15.623-1.532-22.432-5.422-3.311-1.812-6.236-4.245-9.048-6.743-.857-.872-1.73-1.736-2.568-2.626-1.337-1.264-2.663-2.547-3.798-3.999-.838-.983-1.555-2.053-2.205-3.164-.013.05-.023.098-.034.146-.549 1.913-1.218 3.837-2.3 5.522-.896 1.278-1.697 2.626-2.689 3.84-1.385 1.63-2.825 3.206-4.396 4.66-4.151 4.272-9.188 7.717-14.732 9.908a59.38 59.38 0 0 1-5.13 1.953c-.422.122-.844.247-1.265.382-.335.856-.433 1.8-.759 2.663-.512 1.614-1.212 3.164-1.881 4.717-1.416 3.06-3.021 6.052-5.14 8.688-1.73 1.892-3.695 3.54-5.618 5.228-2.852 2.38-5.799 4.704-9.085 6.447-3.21 1.617-6.595 2.976-10.096 3.795-4.207.956-8.49 1.264-12.759 1.229-7.825-.686-15.676-2.925-22.212-7.374-1.146-.689-2.268-1.405-3.284-2.282a18.545 18.545 0 0 1-4.16-4.102c-.654-.744-1.358-1.441-1.893-2.281-.555-.657-1.144-1.282-1.637-1.987-.79-.957-1.472-1.977-1.965-3.119-.404-.734-.77-1.489-1.019-2.29-.374-1.006-.79-1.998-1.021-3.052-.297-.856-.685-1.677-.9-2.56-.61-1.993-1.36-3.985-1.58-6.063-.255-1.685-.303-3.394-.356-5.1-.034-1.05-.077-2.126.053-3.172-.09-.917-.127-1.757.276-2.605-.947-.427-1.995-.673-2.812-1.362-1.65-1.328-.795-2.947.382-4.229-.994-.379-2.082-.331-3.127-.297-.73-.01-1.462.021-2.188.098-2.152.109-4.274.43-6.396.782-2.358.448-4.838.244-7.225.164-.976.032-1.96.199-2.929.008-3.082-.729-5.666-2.87-7.65-5.252-.512-.636-1.103-1.227-1.403-2-.443-1.028-.594-2.39.183-3.297.42-.654.873-1.311 1.512-1.764.472-.53 1.12-.833 1.677-1.264 0-.043 0-.085-.006-.125 0-1.754.218-3.492.313-5.239.234-2.12.353-4.25.592-6.37l.008-.262a103.4 103.4 0 0 1-.852 1.447l-2.904 3.98a67.066 67.066 0 0 0-2.236 3.055c-.372.453-.576 1.38-1.303 1.227-.766-.043-1.411-.496-2.09-.814-.99-.532-1.82-1.303-2.865-1.73-.408-.244-.833-.453-1.246-.686-.438-.281-.79-.676-1.21-.983-.589-.342-1.393-.893-.7-1.582 1.849-1.662 3.652-3.387 5.655-4.863 2.175-1.711 4.499-3.211 6.708-4.873 1.21-.988 2.735-1.494 3.934-2.485.618-.533 1.109-1.264 1.594-1.903 1.104-1.648.796-4.425.472-6.298-.156-.98-.36-1.964-.644-2.918-.207-.744-.504-1.452-.533-2.23-.6-4.678 2.97-3.944.62-10.37-.276-.916-.392-1.878-.278-2.832.13-1.237.57-2.411.7-3.646.125-.615.162-1.24.14-1.868a.582.582 0 0 1-.185-.591c-.55-1.4-1.135-3.503.22-4.582.997-.667 2.348-.84 3.4-.201 1.653.668 2.41 1.524 2.884 3.238 1.043 2.17.528 4.56-.05 6.78-.279 1.183.127 2.375.642 3.432.27.766.679 1.482.938 2.253a.614.614 0 0 1 .3-.228c-.053-.967-.111-1.932.443-2.75.451-.647 1.335-.65 2.032-.547 2.395.25 3.905 2.934 4.61 5 .634 2.155-.793 4.163-1.331 6.17-.273 1.772.517 2.39 1.345 3.762.89 1.468 1.222 2.735.981 4.26.148-.288.308-.572.47-.844.387-.846.469-1.903.188-2.767-.451-.75-.931-1.425-1.266-2.228-.78-1.572-1.175-3.466-.373-5.11.498-1.327 1.379-2.524 1.421-3.99.077-.572-.207-1.086-.408-1.603-.17-.43-.35-.827-.555-1.23a7.025 7.025 0 0 1-.652-3.402c.146-1.51.851-2.885 1.345-4.292.063-.252.103-.504.124-.758a.58.58 0 0 1-.283-.546 5.555 5.555 0 0 1-.186-.774c-.801-3.667 1.591-5.09 4.84-3.585 1.38 1.002 2.513 2.592 2.712 4.311.403 2.393-.958 4.706-.526 7.08.165.761.528 1.352.802 2.052.485 1.35.848 2.784.758 4.228-.1 1.145-.31 2.285-.647 3.384-.302 1.15-1.263 2.332-.658 3.53 2.496 4.433 2.371 6.12.332 10.657.066.019.135.04.207.043l-.016.013a.783.783 0 0 0 .138-.053c.724-.416 1.071-1.192 1.403-1.921.387-.776.605-1.548.827-2.366.152-.676.367-1.357.38-2.054a11.209 11.209 0 0 0-.658-2.883c-.26-.48-.525-.96-.722-1.473-.692-1.609-.657-3.52.313-5.006.507-1.197.998-2.422 1.303-3.688.255-2.382 1.827-3.016 4.01-2.504 1.247.35 2.072 1.45 2.645 2.546.536 1.132.366 2.406.08 3.58-.252 1.12-.47 2.244-.785 3.35-.104.426-.229.855-.253 1.295.046.35.255.652.383.975.525 1.264 1.108 2.499 1.39 3.845.254 1.09.503 2.287.11 3.37-.195.475-.506 1.016-.649 1.471-.212.57-.318 1.198-.669 1.704a.488.488 0 0 1-.08.085c.269.43 1.057.055 1.282-.419 1.218-2.538 1.88-5.474 1.09-8.238-.345-1.378-.939-2.7-.97-4.144 0-1.736.61-3.384 1.336-4.942.364-.96.953-1.858 1.03-2.904.042-1.026-.37-1.996-.682-2.918-.517-1.1-1.053-2.35-.634-3.572.175-.601.575-1.097.875-1.64.223-.49.35-1.025.483-1.545.321-1.635-.228-3.373.64-4.87.511-1.09 1.917-.87 2.861-.56 1.889.809 2.189 3.17 2.295 4.985.156 1.24.19 2.48.133 3.726-.234 2.718 1.575 5.156 1.244 7.883-.152 2.234-1.584 4.136-1.85 6.346-.17.657-.19 1.322.038 1.969.18.885.427 1.749.695 2.605.424 2.024-.112 4.102-.777 6.017-.218.732-.53 1.463-.584 2.229l.005.042c.106.09.212.18.327.26.493.297 1.09.355 1.578.668.894.588 1.719 1.428 2.618 1.966 1.857 1.092 3.804 2.016 5.721 2.991 2.101.676 3.796 2.112 5.743 3.085.923.583 2.104.819 2.881 1.608.342.591-.292 1.113-.631 1.54-.958 1.386-2.022 2.673-3.24 3.831-.386.408-.827.846-1.286 1.145-.337.302-.798.408-1.21.194-.729-.372-1.278-1.02-1.909-1.53-2.032-1.735-3.968-3.577-5.958-5.357-.536-.525-1.069-1.058-1.615-1.574.042.458.085.92.143 1.378.395 2.678.374 5.387.313 8.09 1.146.68 2.292 1.454 3.109 2.522.432.747.737 1.569 1.093 2.356.355.938.586 1.791.687 2.589a.89.89 0 0 1 .093.132c.485.84.13 1.844.122 2.758-.194 1.903-1.491 3.416-3.016 4.465-.191.167-.56.493-.98.8.645.546 1.152 1.22 1.184 2.1.21 2.013-.578 2.821-2.23 3.788-.38.202-.754.408-1.139.605.024.183.016.405-.037.67-.072.435-.005.859.165 1.264.19.951.546 1.868.628 2.846-.01 1.577.356 3.121.555 4.68.185.956.634 1.841.814 2.803.552 1.585 1.247 3.113 1.883 4.666.457.896 1.128 1.831 1.674 2.7 1.61 1.948 3.647 3.472 5.772 4.815 1.342.676 2.907 1.214 4.313 1.656 3.979 1.018 8.281 1.778 12.31.631 2.242-.522 4.425-1.179 6.35-2.449 2.48-1.621 4.431-3.897 5.794-6.508.674-1.32 1.289-2.673 1.915-4.017-2.127-.747-4.167-1.73-6.241-2.612-4.515-1.961-8.74-4.664-12.125-8.26-1.382-1.568-2.812-3.119-3.995-4.844-1.156-1.77-2.34-3.56-3.199-5.498-1.01-1.91-1.96-3.858-2.544-5.943-.154-.552-.47-1.07-.538-1.638a.338.338 0 0 1-.027-.04c-.419-.543 1.006-2.703 1.345-3.27 1.212-2.18 2.81-4.168 4.594-5.906 3.666-4.049 7.738-7.822 12.653-10.302 2.594-1.198 5.103-2.74 7.934-3.313 1.138-.14 2.215-.543 3.345-.734.169-.034.371-.103.578-.161.09-1.367.297-2.753.79-4.036.794-2.197 2.751-3.161 4.91-3.627 1.263-.36 2.467-.939 3.587-1.617.53-.267.997-.62 1.432-1.023 1.05-.803 2.082-1.635 2.923-2.66a19.157 19.157 0 0 1 1.698-2.141c1.008-1.473 2.233-2.862 3.785-3.779 2.095-1.16 5.329-1.595 6.812.705.424.668.639 1.53.273 2.268-.425.79-.926 1.553-1.555 2.2-1.254 1.274-2.766 2.27-3.939 3.638-.588.53-1.037 1.168-1.246 1.94-.08.243-.101.498.005.736.753-.368 1.194-1.155 1.767-1.738 1.095-1.07 2.236-2.096 3.199-3.3 2.331-2.487 4.973-4.708 7.915-6.412 1.621-.92 3.66-1.417 5.493-.93.966.292 1.942.589 2.706 1.275.581.373 1.162.763 1.52 1.375 1.01 1.585 2.167 3.28 2.167 5.223a5.153 5.153 0 0 1-.027 2.477c-.021 1.23-.48 2.465-1.35 3.35-1.809 1.576-4.329 1.971-6.602 2.48-.714.175-1.393.458-2.114.607-.73.127-1.472.177-2.194.368-1.135.278-2.215.753-3.39.848-.732.204-1.403.583-2.169.668-.518.156-1.077.257-1.605.421.719.072 1.432.172 2.13.39 4.233 1.046 8.188 2.975 12.154 4.748 2.742 1.402 5.475 2.87 7.976 4.674 1.045.737 2.074 1.643 2.995 2.5.936.786 1.846 1.6 2.66 2.511.106-.223.215-.445.318-.67.844-1.638 1.587-3.326 2.73-4.786 1.43-2.064 3.125-3.935 4.83-5.771 1.576-1.455 3.053-3.005 4.563-4.523 1.825-1.876 3.854-3.657 5.902-5.263 2.766-2.342 5.679-4.539 8.936-6.15.862-.392 1.775-.65 2.653-.996.459-.138 1.18-.549 1.665-.416.595-.337 1.292.723 1.64 1.192.453.572.424 1.328.631 1.998.316.795.411 1.643.374 2.494.143 1.547.289 3.113-.13 4.637-.355 1.852-.772 3.688-1.589 5.397-1.276 3.482-3.117 6.81-5.485 9.672-1.807 2.04-4.213 3.408-6.462 4.905-.981.506-1.838 1.073-2.753 1.656-.918.477-1.839.96-2.785 1.378l.554.103c3.106.716 6.011 2.141 8.894 3.46 1.146.539 2.156 1.294 3.188 2.015 2.122 1.314 4.024 2.933 5.876 4.602.933.848 1.636 1.913 2.31 2.97.854 1.426 1.844 2.772 2.52 4.299.629 1.181 1.233 2.377 1.676 3.643.664 1.426 1.165 2.936 1.239 4.515-.042.443.159 1.225.029 1.723l.011.005Z" fill="#F3F3F4"/>
  <path d="M50.815 7.361c1.226 1.036 1.393 2.888.828 4.317-.767 1.653-2.61 3.105-4.504 2.88-1.34-.241-2.512-1.296-2.85-2.623-.325-1.23.07-2.613.727-3.673-.313-.636.502-1.007.921-1.32 1.578-1.038 3.544-.98 4.878.422V7.36ZM32.921 2.263c.695 1.227.09 2.615-.647 3.667-.868 1.044-2.483 1.86-3.854 1.685-2.512-.17-3.894-1.735-2.966-4.215.294-1.132.735-2.284 1.73-2.984a.597.597 0 0 1 .702-.098c.66-.342 1.396-.43 2.093-.148 1.18.339 2.297 1.03 2.942 2.096v-.003ZM15.828 17.905c2.109 2.355-.761 5.909-3.478 5.866-3.562-.252-3.899-4.054-1.864-6.335.084-.517.724-.713 1.143-.917.705-.26 1.445-.01 2.167.037.84.106 1.448.795 2.032 1.349ZM68.399 27.86c1.042 1.198.19 2.851-.451 4.033-.34.514-.822.909-1.334 1.24-.608.461-1.31.787-2.09.697-.905 0-2.189-.74-2.534-1.59-.308-.747-.387-1.569-.32-2.366.084-.528.392-.991.604-1.476.244-.496.629-.904 1.008-1.293a.609.609 0 0 1 .488-.403c.462-.061.897-.342 1.382-.305.329.016.65.106.966.194.8.33 1.7.577 2.278 1.266l.003.003Z" fill="#F3F3F4"/>
  <path d="M27.006 48.902a.602.602 0 0 0-.2-.758c-.185-.106-.413-.196-.623-.111-.769 0-1.543.08-2.302.193-.944.202-3.016.244-2.897 1.598.112 2.777-.329 5.551-.294 8.331.05.859.114 1.715.098 2.578.045 1.013.191 1.974.167 2.997-.087.936.823 1.13 1.53 1.352 1.298.421 2.576.304 3.932.376.782.026.851-1.126.071-1.192-1.464-.05-2.962.04-4.34-.56-.058-1.839-.185-3.678-.256-5.517.4-.058.84-.225 1.15-.26 1.06-.16 2.12-.015 3.178.075.717.077 1.056-.925.33-1.198-1.436-.066-2.934-.328-4.353.096-.096.032-.2.05-.305.063.084-2.374.376-4.75.286-7.125 1.233-.488 2.62-.54 3.934-.62.334.016.724.048.894-.32v.002ZM37.618 53.436c-.326-1.25-.612-2.56-1.257-3.691-.316-.51-1.072-.501-1.35.034-.565.972-1.188 1.958-1.58 3.058a25.563 25.563 0 0 0-2.478-3.675c-.303-.39-.767-.946-1.321-.676-.42.204-.412.7-.433 1.097-.154 1.667-.082 3.225-.06 4.926.1 1.274.01 2.552.103 3.826.146 1.84.302 3.678.382 5.52 0 .466-.008.93-.003 1.399-.026.373.072.83.501.906.465.106.857-.426.693-.85.066-2.051-.202-4.087-.29-6.135a18.348 18.348 0 0 1-.124-3.005c-.064-1.955-.175-3.876-.058-5.848.872 1.055 1.564 2.266 2.265 3.456.172.254.284.559.533.744.525.342 1.037-.18 1.17-.678.347-.96.793-1.945 1.345-2.82 1.119 2.942 1.374 6.1 1.912 9.174.082.676.096 1.36.133 2.038.071.781 1.225.694 1.19-.082-.013-1.31-.196-2.595-.442-3.877-.16-1.611-.499-3.254-.833-4.846l.002.005ZM44.006 48.727c-1.061-.686-2.348-1.041-3.61-1.07-.942-.037-1.94.084-1.573 1.293.02.89.132 1.767.297 2.644.19 2.125.705 4.195 1.085 6.285.074.848.236 1.68.437 2.505.178.813.366 1.624.491 2.448.1.522-.04 1.4.687 1.468.44.042.777-.466.586-.853-.111-1.225-.403-2.42-.666-3.62-.35-1.627-.498-3.286-.91-4.902 1.48-.28 3.324-.19 4.258-1.598 1.199-1.78.517-3.397-1.085-4.602l.003.002Zm-.48 4.433c-.897.456-1.947.377-2.908.596-.217-1.621-.53-3.256-.607-4.896 1.459-.043 3.127.363 4.048 1.57.201.274.467.674.47 1.048-.083.657-.388 1.367-1.003 1.68v.002ZM52.208 48.783h.016a7.04 7.04 0 0 0 .883-.067c.941-.145 1.894-.042 2.833-.034.546-.088.657-.89.154-1.126-.974-.188-1.977-.122-2.969-.04-.31-.114-.697.01-1.047.08a9.832 9.832 0 0 0-1.743.11c-.112.017-.22.035-.332.051-.1.006-.201.01-.305.019-.204.029-.403.074-.605.122-.185.029-.374.058-.562.084a.53.53 0 0 0-.188.067c-.032.005-.067.013-.098.016-.268.045-.536.095-.804.132-.51.074-.647.81-.218 1.078a.623.623 0 0 0 .454.09c.541-.087 1.087-.169 1.62-.296.266-.04.534-.08.8-.122.27-.024.54-.043.81-.056a4.268 4.268 0 0 1-.214.544c-.828 1.838-1.485 3.918-2.175 5.842-.584 1.863-.886 3.684-1.557 5.552a26.4 26.4 0 0 1-.698 1.99c-.225.325-.196.79.183.98.43.223.823-.162.937-.567.435-1.06.753-2.162 1.1-3.251.597-2.03.995-4.108 1.79-6.082.473-1.51 1.075-2.967 1.688-4.425.074-.225.196-.455.247-.691Z" fill="#000"/>
  <path d="M58.81 52.209c.344-.824.668-1.667.862-2.541.05-.247.08-.493-.03-.729-.326-.692-1.376-.3-1.13.427-.49 1.913-1.318 3.693-2.3 5.397-.455-1.182-1.028-2.31-1.54-3.468a.598.598 0 0 0-.406-.586.604.604 0 0 0-.756.376c-.143.544.262 1.031.44 1.519.435.922.875 1.836 1.23 2.793a.573.573 0 0 0 .423.386c-.878 1.415-1.839 2.783-2.783 4.134-.64.832-1.34 1.614-1.997 2.43a.603.603 0 0 0 .047.843c.234.206.643.206.844-.048.44-.554.91-1.087 1.355-1.632 1.22-1.458 2.237-3.069 3.255-4.67.96-1.465 1.836-2.994 2.48-4.623l.006-.008ZM64.865 32.926c3.139.077 4.788-3.882 1.672-5.397-1.568-.952-3.162.18-3.76 1.717-.832 1.738.136 3.54 2.086 3.68h.002Zm.428-4.213c.416-.063.862.048 1.22.262.148.3.32.618.329.957-.268.771-.931 1.569-1.783 1.688-.316.005-.613-.12-.894-.25-.132-.079-.334-.145-.34-.325-.084-1.12.271-2.07 1.465-2.332h.003ZM45.783 12.512c.331.596 1.048.668 1.634.859 2.09.62 3.968-1.704 3.682-3.678-.284-1.526-.987-1.919-2.411-2.252-1.09-.53-2.263.344-2.86 1.232-.443.707-.663 1.587-.525 2.416.114.363.355 1.174.477 1.423h.003Zm2.021-3.826c.573.154 1.284.23 1.576.843.223 1.044-.438 2.331-1.478 2.65-.52.042-.89-.438-1.185-.804.013-.95.238-2.135 1.09-2.692l-.003.003ZM27.475 6.174c1.57.85 3.857.27 4.49-1.492.457-1.357-.087-2.832-1.44-3.402-.474-.175-.95-.464-1.474-.36a1.743 1.743 0 0 0-1.032.108c-1.793.94-2.565 4.036-.541 5.146h-.003Zm1.557-4.028c.926.228 1.623.745 1.552 1.786a.302.302 0 0 1 .01-.047V3.86c.003.005 0 .016 0 .026v.03c-.108.336-.43.553-.679.789-.201.17-.41.368-.69.39-2.01.164-1.737-2.558-.193-2.95ZM12.43 22.59c.872.113 1.61-.369 2.268-.875 1.167-.888 1.26-2.62.307-3.702-1.57-1.735-3.796-.885-4.48 1.185-.244.715-.374 1.587.096 2.239a1.764 1.764 0 0 0 1.809 1.155v-.002Zm.366-4.24c.363.344.947.429 1.23.877.497 1.052-.323 2.053-1.44 2.035-1.777.003-.8-2.425.21-2.912ZM89.656 67.225c1.197 1.097 2.722 1.749 4.175 2.435 3.295 1.498 6.889 2.414 10.515 2.48 2.101.112 4.231-.137 6.271-.646.849-.326 1.732-.564 2.565-.933 1.451-.723 2.894-1.447 4.201-2.414.876-.596 1.682-1.3 2.345-2.13.303-.313.769-.827.722-1.24a.566.566 0 0 0-.189-.43c-.71-1.126-1.795-1.926-2.753-2.827-2.164-1.574-4.501-3.005-7.101-3.733-5.329-1.566-11.263-.864-16.114 1.823-1.825 1.1-3.568 2.347-5.024 3.913-.294.31-.544.658-.857.952a.451.451 0 0 0-.09.124.572.572 0 0 0-.337.474c-.026.321.223.562.417.788.39.482.79.956 1.26 1.364h-.006Zm18.218-4.017c.074-.604-.074-1.187-.159-1.778-.085-.94-.287-1.921-.754-2.75l.088.01c2.334.236 4.424 1.367 6.446 2.48.981.496 1.83 1.195 2.78 1.741.835.578 1.753 1.044 2.509 1.733-1.958 2.189-4.549 3.744-7.234 4.886-1.238.501-2.538.798-3.851 1.023-.695.12-1.398.225-2.104.292.91-1.193 1.751-3.053 1.958-3.731.191-.856.416-1.73.416-2.613-.013-.432-.098-.858-.095-1.29v-.003Z" fill="#000"/>
  <path d="M110.996 75.408c.249-.223.488-.47.775-.647.456-.183.963-.204 1.451-.22 1.169.067 2.376.358 3.482-.18 2.085-.805 3.356-2.027 3.624-4.303.082-.315-.136-.644-.446-.716-.427-.1-.682.247-.79.615-.507 1.662-1.961 3.071-3.693 3.39-1.262.148-2.514-.539-3.761-.136-1.737.437-2.589 2.658-4.499 2.475-1.209.087-2.024-.93-3.114-1.259-1.835-.58-3.594.663-5.424.496-.828-.943-1.852-1.96-3.175-2.054a8.73 8.73 0 0 1-1.823-.135c-.512-.055-1.026-.013-1.538-.047-.369-.165-.724-.356-1.035-.615-.315-.281-.631-.565-.888-.901-.297-.485-.467-1.044-.865-1.466-.605-.813-1.692-.702-1.719.42.1 1.412 1.655 3.065 2.96 3.523.7.157 1.4.252 2.093.45.677.144 1.385-.079 2.043.062 1.252.395 2.016 1.72 3.374 1.884.798.736 2 .665 2.957.31.711-.199 1.287-.898 2.053-.832.475.108.982.18 1.412.429.57.466 1.241.75 1.931 1.004 1.132.512 2.488.326 3.477-.403.406-.352.74-.779 1.141-1.139l-.003-.005ZM93.343 58.221c-.291-.495-.57-1.131-.387-1.709.23-.49.891-.045 1.223.127.38.3 1.016.504 1.289-.032.188-.54-.048-1.258.422-1.706.01 0 .05-.04.071-.048.534.104.77.732 1.282.859.27.042.525-.061.657-.308.167-.318-.008-.673.008-1.01.027-.349.114-.844.465-1 .41.052.816.323 1 .696-.215.76.904 1.084 1.159.347.294-1.248-1.303-2.406-2.456-2.204-.749.172-1.17.967-1.31 1.664-1.16-.724-2.229.35-2.359 1.505-2.631-1.243-3.355 1.632-2.066 3.471.443.647 1.408.013 1-.652h.002ZM114.375 47.59c.618-.198 1.536-.432 2.043.09.159.695-.608 1.142-1.162 1.362-.462.125-1.027.197-.942.825.093.506.671.57 1.072.394.536-.055 1.183-.18 1.653.146a.188.188 0 0 1-.022-.024c.014.014.027.03.04.045.037.639-.589 1.124-1.13 1.352-.453.053-1.135.071-1.191.657-.045.715.844.776 1.342.559.451-.098 1.051-.093 1.465.132.135.326-.189.727-.369.997-.417.508-1.085.713-1.706.842-.902-.365-1.257 1.108-.281 1.203.761.006 1.539-.267 2.186-.654 1.239-.726 2.209-3.032.35-3.617.769-.938.774-2.372-.56-2.761 1.167-1.532.032-3.103-1.78-2.955-.689.027-2.878.424-2.31 1.466.353.524.878.13 1.3-.059h.002ZM115.978 42.609c.233-.58.742-1.913 1.469-1.9.236.5-.339.98-.172 1.47.074.197.228.35.437.395.42.098.725-.273.802-.649.244-.387.519-.792.92-1.028.019.337-.088.668-.178.988-.09.167-.162.36-.114.544.093.508.783.657 1.077.23.194-.419.554-1.041 1.109-.856l-.019-.032c.308.318-.124.79-.27 1.105-.228.29-.263.726.071.954.258.18.658.128.831-.148.36-.56.737-1.184.663-1.876-.077-.94-1.157-1.468-2-1.14-.154-1.163-1.364-1.258-2.122-.561-.573-.991-2.016-.628-2.581.193a5.894 5.894 0 0 0-1.024 1.844c-.101.281-.215.594-.114.89.262.775 1.483.327 1.22-.429l-.005.006ZM136.641 36.464c-.019-.546-.231-2.136.692-1.884.281.175.427.503.576.787.223.691 1.297.413 1.154-.297-.096-.644-.157-1.423.339-1.924.345.138.61.424.844.705.103.464.605.864 1.061.565.392-.25.3-.777.037-1.087-.194-.776.31-1.176 1.056-1.054a.976.976 0 0 1 .456.196c.292.225.239.617.133.93-.16.765.968 1.017 1.164.26.878-2.505-2.947-3.642-3.905-1.418-1.116-.795-2.106.164-2.355 1.285-.406-.212-.915-.21-1.342-.05-1.329.49-1.196 2.284-1.043 3.434.226 1.129 1.807.447 1.138-.448h-.005ZM121.227 59.734a.603.603 0 0 0-.414.596c.021.477.56.695.952.477.608-.217 1.308-.206 1.86.154-.287.366-.727.575-1.151.747-.218.05-.427.112-.589.273-.366.363-.037 1.044.472.997.629-.162 1.355-.326 1.936.074-.268.342-.684.53-1.085.673-.559-.016-1.055.551-.657 1.052.207.262.533.24.819.15.059-.018.122.022.181.035.329.16.652.382.854.692-.435.48-1.144.604-1.743.779-.509.066-.658.803-.231 1.076.446.27.96-.08 1.411-.18 1.64-.496 2.52-1.837.884-3.045 1.095-.747 1.055-2.017-.252-2.478 1.536-1.945-1.886-2.79-3.244-2.074l-.003.002ZM118.972 81.977c.449-.268.817-.793.637-1.33-.406-1.145-2.305-1.566-3.387-1.514-.791.189-.539 1.302.254 1.182.666.061 1.396.18 1.931.605-.602.328-1.302.352-1.973.445-.783.058-.727 1.219.058 1.187v.005c.698-.042 1.34.183 1.984.511-.543.117-1.103.14-1.657.167-.401-.074-.849.186-.823.628.014.382.385.612.746.57.588.12 1.153.38 1.647.718-.679.143-1.377.191-2.066.202a.616.616 0 0 0-.68.148c-.347.368-.053.988.428 1.03 1.106-.002 2.313.006 3.323-.492.889-.546.366-1.479-.35-1.89 1.297-.45 1.032-1.656-.066-2.172h-.006ZM124.678 93.742c-.008-1.307-1.809-2.088-2.921-2.258-.631-.516-1.663.43-.912 1.002.363.21.817.135 1.207.273.517.185 1.085.445 1.422.89-.581.307-1.289.246-1.929.262-.424-.119-.949.114-.925.607.029.483.458.573.854.607.671.21 1.331.562 1.769 1.126-.432.114-.886.09-1.326.037-.499-.267-1.449-.286-1.419.477.037.557.663.623 1.1.684.486.241.971.548 1.266 1.017-.642.234-1.356.096-2.003-.053a.609.609 0 0 0-.854.136c-.504.972.957 1.147 1.613 1.205 1.607.239 3.424-.718 1.928-2.353 1.504-.413 1.027-1.78.037-2.499.536-.156 1.069-.567 1.093-1.163v.003ZM108.444 103.533c.366.278.812.434 1.242.583 1.122.471 3.17.225 2.472-1.426 1.493-.109 1.589-1.521.507-2.326.615-.069 1.289-.541 1.124-1.23-.106-.474-.514-.816-.907-1.068-.461-.28-.915-.593-1.432-.763-.337-.48-1.178-.164-1.212.39-.035.413.334.654.702.697.531.185 1.014.49 1.473.808-.587.082-1.183.066-1.775.071-.308-.042-.621.154-.684.461a.599.599 0 0 0 .573.726c.589.207 1.151.591 1.589 1.042-.504.053-1.011-.085-1.478-.268-.308-.231-.769-.387-1.058-.053-.372.424-.024.933.437 1.081.364.26.722.538 1.014.877-.637.032-1.263-.225-1.823-.509a.606.606 0 0 0-.395-.127c-.509 0-.772.716-.371 1.036l.002-.002ZM102.969 119.111c.512.48 1.213 1.028 1.95 1.028.698.04 1.3-.609 1.204-1.306 1.144.27 1.605-.888 1.199-1.81.979.382 2.101-.297 1.804-1.412-.202-.724-.764-1.275-1.263-1.813-.175-.803-1.506-.522-1.249.305.337.673 1.135 1.078 1.361 1.828-.618-.034-1.149-.479-1.629-.834a.602.602 0 0 0-.788-.011c-.257.217-.257.58-.074.843.287.548.608 1.091.764 1.693-.329-.164-.602-.416-.865-.668-.22-.432-.788-.752-1.175-.336-.326.352-.074.816.236 1.083.236.377.47.793.491 1.246-.692-.133-1.21-.748-1.655-1.254-.165-.355-.401-.691-.849-.551-.968.459.045 1.529.538 1.969ZM90.105 120.234c.644.114 1.206-.445 1.249-1.067.66.834 1.86.728 2.16-.35.535.548 1.363.71 1.957.153 1.002-.961.453-2.538.06-3.67.139-.649-.922-1.126-1.235-.474-.191.353.066.702.175 1.039.161.58.687 1.823.124 2.265-.713-.384-.912-1.232-1.185-1.929-.12-.204-.385-.302-.61-.259-.974.254-.215 1.833-.438 2.546-.594-.551-.83-1.367-1.23-2.051-.168-.236-.492-.352-.76-.212-.774.382-.092 2.019-.201 2.764a4.318 4.318 0 0 1-1.183-2.348c.042-.781-1.106-.879-1.188-.103-.003 1.195 1.04 3.439 2.305 3.696ZM72.791 121.758c.438.244.931-.034 1.205-.392.188 1.338 1.43 1.714 2.114.453.167.572.591 1.187 1.244 1.206 1.43-.059 2.167-1.625 2.302-2.875a.56.56 0 0 0 .069-.509c-.117-.626-.936-.795-1.188-.172-.112.848-.194 1.979-1.11 2.361-.394-.605-.283-1.389-.27-2.078.045-.601-.74-.885-1.087-.387-.3.573-.586 1.164-.91 1.725-.077-.628.013-1.264.09-1.889.13-.352-.037-.782-.424-.861-.361-.085-.703.204-.735.562a5.959 5.959 0 0 1-.724 1.33c.029-.596.172-1.111.347-1.736.122-.493.563-1.259-.127-1.529-.3-.108-.66.053-.761.361-.324 1.189-1.305 3.571-.037 4.433l.002-.003ZM66.08 107.868c-.406-.111-.71.222-.835.556-.544.552-1.154 1.06-1.833 1.437.188-.904.668-1.686 1.103-2.499.295-.323.276-.885-.167-1.06-.39-.167-.705.135-.878.456-.522.538-1.138.988-1.774 1.385.453-.885 1.069-1.682 1.703-2.448.244-.217.217-.625 0-.843-.205-.204-.56-.235-.786-.05-.578.458-1.108.792-1.771 1.187.445-.697.952-1.349 1.477-1.99.204-.252.14-.644-.111-.837a.607.607 0 0 0-.839.111 28.772 28.772 0 0 0-1.172 1.534c-.42.642-.968 1.299-1.045 2.083.037.965.934.925 1.578.522-.955 1.656-.122 2.867 1.634 1.722-.233.658-.289 1.625.499 1.914.899.281 1.69-.504 2.36-.991.563-.451 2.07-1.641.863-2.189h-.006ZM54.52 95.655c-.69.252-1.443.52-2.185.403.445-.642 1.241-.986 1.936-1.299-.019.006-.034.014-.053.019a.093.093 0 0 0-.027.005c.743-.183.552-1.25-.206-1.171-.823.143-1.66.291-2.5.236.476-.461 1.118-.71 1.744-.896.408-.018.787-.363.663-.792-.114-.427-.592-.512-.96-.371-.79.095-1.613.175-2.393-.019.64-.649 1.568-.975 2.453-1.102.364 0 .804.074.966-.358.252-.856-.721-.922-1.32-.803-1.15.234-2.393.679-3.123 1.643-.647.946.122 1.78 1.125 1.858-.982.986-.395 2.106.96 2.038-.703.688-.637 1.902.427 2.16.974.206 1.979-.08 2.889-.43.586.193 1.077-.623.695-1.081-.266-.369-.751-.212-1.088-.048l-.003.008Z" fill="#000"/>
  <path d="M199.541 89.969c-.011-.056-.021-.112-.037-.167-.151-.758-.112-1.537-.292-2.29-.257-1.01-.568-1.94-.881-2.952-.461-1.176-1.145-2.257-1.779-3.346-2.743-4.261-6.207-8.143-10.444-10.963-2.138-1.356-4.424-2.464-6.695-3.577-2.944-1.375-5.955-2.668-9.13-3.378 3.146-.705 6.154-2.088 8.847-3.821 1.557-1.074 2.976-2.359 4.329-3.675l.236-.273a34.018 34.018 0 0 0 1.634-1.802c1.124-1.444 2.307-2.87 3.122-4.523.83-1.673 1.541-3.398 2.018-5.207.515-1.826.841-3.692.96-5.586.149-2.067.353-4.362-.787-6.195-.475-.83-.526-1.71-1.711-1.156-1.478.742-2.823 1.744-4.064 2.836a.62.62 0 0 0-.363.325c-.051.048-.104.093-.157.141-3.82 2.393-7.143 5.48-10.597 8.37-4.949 4.209-9.522 9.015-12.618 14.776-.271.464-.541.927-.801 1.396-.239.281-.509.54-.825.73-.188.06-.382.108-.576.145a19.104 19.104 0 0 0-1.549-1.707c-1.504-1.232-2.875-2.639-4.552-3.656-1.175-.928-2.482-1.654-3.758-2.433-1.292-.917-2.74-1.58-4.159-2.27a33.257 33.257 0 0 0-5.122-2.025c-3.282-1.185-6.664-2.112-10.07-2.875-.159-.035-.321-.064-.482-.096-.136-.135-.281-.257-.372-.424-.161-.39-.087-.869.059-1.253.676-.344 1.421-.588 2.127-.819a30.743 30.743 0 0 1 2.125-.54c.4-.067.798-.138 1.193-.228l.175-.03c1.239-.11 2.481-.166 3.701-.431 2.411-.459 4.804-1.095 7.093-1.985.894-.366 1.748-.835 2.482-1.468 1.749-1.545 2.032-4.208 1.393-6.349-.589-1.892-1.74-4.338-3.698-5.098-1.551-.52-3.201-.194-4.705.326-1.868.54-3.411 1.757-4.992 2.84-1.393 1.01-2.725 2.112-4.048 3.215-1.348 1.213-2.618 2.514-4.043 3.643-.909.78-2.36 1.969-3.424.782-.255-1.121.74-2.078 1.393-2.88 1.116-1.23 2.599-2.001 3.87-3.045.769-.546 1.535-1.15 1.88-2.064.303-.573.22-1.214-.074-1.755-.162-1.976-2.788-1.987-4.218-1.393-.748.296-1.387.819-1.962 1.37-.669.62-1.252 1.309-1.802 2.027a14.595 14.595 0 0 0-1.949 2.321c-.531.742-.968 1.577-1.472 2.356-.305.357-.624.705-.966 1.03-.981.827-2.167 1.392-3.366 1.85-.589.114-1.186.201-1.769.334-1.56.326-3.146.782-4.268 1.982-.815.962-1.284 2.178-1.531 3.402-.249.771-.204 1.659-.684 2.335a2.51 2.51 0 0 1-.791.68 16.39 16.39 0 0 0-1.954.316.56.56 0 0 0-.268.064c-3.027.728-5.833 2.223-8.547 3.754a41.001 41.001 0 0 0-2.984 1.66 35.615 35.615 0 0 0-3.29 2.246c-1.5 1.124-2.925 2.37-4.28 3.649-2.319 2.205-4.128 4.85-6.03 7.398-.456.681-.875 1.38-1.337 2.056-.22.371-.676.82-.427 1.227-.241.196-.233.496-.137.806 0 .291.135.628.244.885.43 1.158.92 2.297 1.525 3.376.323.633.615 1.176.965 1.841.53 1.132.992 2.29 1.685 3.339 1.832 3.296 4.286 6.23 7.143 8.691a37.42 37.42 0 0 0 3.05 2.176 22.31 22.31 0 0 0 2.358 1.55c2.345 1.505 5.003 2.764 7.608 3.81 1.385.626 3.061.98 3.984 2.284-.106.427-.209.856-.339 1.275-1.04 2.186-2.385 4.216-3.945 6.065-1.265 1.813-2.743 3.511-4.676 4.632-2.807 1.45-5.955 2.42-9.138 2.618-4.335.387-8.825-.161-12.857-1.868-.804-.32-1.501-.758-2.268-1.182-.547-.291-1.106-.564-1.608-.93-.687-.561-1.384-1.15-1.957-1.81-.69-.927-1.55-1.873-2.18-2.867-.886-1.576-1.802-3.134-2.462-4.825-.406-.96-.655-1.974-.99-2.96-.1-.405-.204-.813-.31-1.219a89.247 89.247 0 0 0-.49-2.016c-.104-.47-.197-.94-.274-1.418-.108-.596-.268-1.179-.392-1.773a24.745 24.745 0 0 1-.173-2.125c-.13-.988-.254-1.974-.254-2.973-.008-.336.002-.686-.035-1.028.196-.04.393-.085.584-.14a.631.631 0 0 0 .297-.016 3.798 3.798 0 0 0 1.066-.56 5.56 5.56 0 0 0 .23-.142c.738-.416 1.033-1.23.956-2.027.124-.848-.106-1.68-.971-2.096-.12-.05-.242-.093-.364-.138a.678.678 0 0 0-.244-.204c-.122-.626.658-.96 1.056-1.301.626-.49 1.239-.989 1.796-1.561 1.053-1.134 1.62-2.623 1.753-4.16.01-.077.024-.151.032-.228.393-3.148-1.88-7.099-5.018-7.968-.067-.016-.136-.026-.202-.037.138-.85.026-1.982.072-2.462-.045-2.557.124-5.125-.17-7.67a83.213 83.213 0 0 1-.173-1.84c.3.03.59.138.82.334.127.117.247.223.427.246h.027c.856 1.044 1.753 2.057 2.73 2.984 1.16 1.004 2.317 2.003 3.604 2.849.721.58 1.4 1.205 2.154 1.748.512.345.925.933 1.56 1.042.307.024.556-.194.724-.427.278-.363.54-.736.822-1.1a23.895 23.895 0 0 1 1.636-1.907c.751-.771 1.828-1.672.271-2.295-3.125-1.532-5.984-3.609-9.218-4.942-1.572-.853-3.124-1.775-4.766-2.485-.364-.316-.732-.628-1.133-.89-.411-.25-.973-.584-1.488-.57-.337-.23-.719-.324-1.114-.353a6.575 6.575 0 0 1-.207-1.945c.019-.228.056-.453.106-.673.064-.111.133-.225.204-.336.852-1.402 1.29-2.793 1.343-4.216a6.555 6.555 0 0 0-.08-2.47c-.236-.834-.658-1.606-.934-2.427-.018-.042-.031-.085-.047-.13-.162-1.155.074-2.374.44-3.471.464-1.05 1.164-1.993 1.464-3.11.822-2.717-.952-5.224-1.318-7.86-.143-1.036.018-2.096.162-3.154.127-.553.21-1.11.175-1.743-.003-.04-.008-.08-.01-.12.004-.686-.083-1.361-.354-2.021-.262-.88-.705-1.683-1.474-2.184-.695-.363-1.677-.272-2.138.414-.268.477-.38.996-.42 1.534-.08.273-.137.538-.183.771-.069 1.05-.098 2.107-.416 3.122-.318.938-.836 1.841-.891 2.848-.019 2.95 2.713 5.157 1.018 8.156-1.005 1.972-1.867 3.381-1.4 5.7.4 1.465 1.008 2.878 1.124 4.414.154 1.389.146 2.83-.445 4.126-.555 1.222-1.125 2.472-1.374 3.79-.14.222-.334.394-.645.442-.448.082-.915.064-1.369.024-.328-.088-.79-.037-.997-.347-.048-.109-.1-.218-.154-.326a2.902 2.902 0 0 1 0-.456c.056-.506.282-.975.486-1.436.252-.406.445-.785.602-1.148.464-.662.544-1.46.438-2.244-.048-1.094-.451-2.186-.974-3.585a26.903 26.903 0 0 1-.671-1.934 9.33 9.33 0 0 1 .056-1.442c.236-1.627.878-3.185 1.008-4.825.01-.838-.125-1.773-.486-2.578a3.13 3.13 0 0 0-.758-1.105c-.032-.03-.062-.061-.096-.09a4 4 0 0 0-.392-.316c-.78-.615-2.115-.673-2.743.186a3.212 3.212 0 0 0-.342.68c-.44.891-.645 2.086-.78 3.024-.093.893-.618 1.611-.987 2.403a5.53 5.53 0 0 0-.385 1.837c-.063 2.07 1.37 3.712 1.677 5.705.063 1.057-.045 2.127-.483 3.1-.358.623-.692 1.248-.931 1.926-.12.29-.218.583-.294.885-.157.512.055 1.116-.319 1.553-1.86.549-2.435.08-2.809-.363 0-.071 0-.14.005-.212.252-.482.685-.887.91-1.383a9.538 9.538 0 0 0 .815-3.257c-.006-.522-.011-1.054-.12-1.568a7.16 7.16 0 0 0-.352-.91l-.07-.198c-.387-1.102-1.02-2.101-1.379-3.214-.716-1.945-.074-2.64.698-4.343.082-.25.154-.5.22-.753.22-.495.403-1.004.48-1.544.244-1.193-.109-2.39-.602-3.472-.045-.08-.093-.156-.14-.236a8.817 8.817 0 0 0-.465-.924 7.483 7.483 0 0 1-.846-3.628c.27-1.693.92-3.365.767-5.085a6.652 6.652 0 0 0-.173-.8 5.85 5.85 0 0 0-.488-1.487c-.69-1.603-3.942-3.16-4.647-.803-.268 1.082-.053 2.2.286 3.239.043.31.053.625.03.938-.558 1.923-2.099 3.768-1.364 5.856.114.445.284.866.472 1.282a6.2 6.2 0 0 0 .3.893c.355.724.7 1.468.894 2.245a5.77 5.77 0 0 1-.515 3.092c-.488.996-1.315 1.839-1.496 2.973-.292 1.547.658 2.957 1.449 4.205.069.109.137.217.206.331.112.236.218.472.313.716.364 1.102.46 2.318.194 3.452-.501.692-1.042 1.37-1.329 2.184a4.867 4.867 0 0 0-.278 2.748c.008.069 0 .188-.006.251-.082.817-1.939.867-2.334.297l-.008-.026c.008-.183-.04-.358-.074-.53.016-.385.167-.763.323-1.126l.18-.578c.404-.843.767-1.696.847-2.647.143-.774.056-1.505-.154-2.213-.241-1.232-.854-2.358-1.507-3.429a4.207 4.207 0 0 1-.217-.318 7.782 7.782 0 0 1-.515-3.155c0-.146.008-.3.027-.454.32-1.091 1.01-2.066 1.186-3.206.029-.143.05-.283.063-.427.236-1.126-.196-2.19-.928-3.041-.151-.189-.297-.38-.443-.57a7.098 7.098 0 0 0-1.043-1.16c-.029-.022-.06-.038-.092-.06-.685-.524-1.422-.696-2.072-.081-.061.053-.12.108-.175.167a2.33 2.33 0 0 0-.947 1.68c-.204 1.221.499 2.446.305 3.638-.034.156-.077.31-.125.46-.116.303-.238.605-.345.912-.082.202-.167.403-.246.61-.87 2.189-.528 4.677.756 6.63.297.562.604 1.203.787 1.892.136.561.043 1.144-.029 1.711-.087.58-.207 1.166-.347 1.752-.34.877-.714 1.749-.918 2.67a12.24 12.24 0 0 0-.223.96c-.005.013-.01.03-.016.043-.387.418-1.092.458-1.591.227-.167-.108-.247-.288-.321-.469.196-.429.488-.829.724-1.232 1.366-2.69.788-4.605-.143-6.839-.297-.922-.637-1.934-.918-3.158-.16-.925-.143-1.845-.04-2.77.024-.1.045-.2.074-.299.491-1.312 1.229-2.504 1.13-3.967.088-1.131-.318-2.109-.803-3.068-.403-1.25-.947-2.48-1.207-3.763a5.119 5.119 0 0 1-.13-.742c.106-.819.374-1.63.498-2.443.284-1.227.229-2.485-.074-3.691a4.617 4.617 0 0 0-.591-1.89c-.878-1.504-3.467-3.28-4.295-.789-.265.922.157 1.802.39 2.674.106.723.16 1.325.14 2.085l-.018.135c-.26 1.193-.774 2.353-.827 3.585-.024.44.008.87.074 1.294.01.198.026.4.05.596.287 1.619.987 3.148 1.173 4.788.016.368.034.742.034 1.113-.032.27-.08.538-.146.805-.305.771-.74 1.487-1.066 2.25-1.072 2.366-.387 4.6.36 6.844.078.398.165.793.258 1.185.356 1.335.692 2.697.71 4.112-.09.936-.341 1.847-.824 2.69-.313.68-.75 1.282-1.435 1.627-.25.17-.494.35-.759.495a.518.518 0 0 0-.233.279 39.895 39.895 0 0 0-3.226 2.114c-2.413 1.261-4.474 3.108-6.565 4.833-1.408 1.06-2.774 2.163-4.013 3.421-.406.47-1.493.748-1.31 1.49a.715.715 0 0 0-.075.304c.03.416.438.628.764.8.507.27 1.027.512 1.533.782.855.588 1.674 1.28 2.65 1.704.303.183.536.52.897.588.387.085.743-.236 1.058-.68.59-.57 1.106-1.601 1.478-2.038.708-1.074 1.398-2.163 2.217-3.156.85-1.161 1.663-2.361 2.382-3.615.457-.776.746-1.659 1.372-2.329.246-.28.506-.644.899-.734-.008.511-.016 1.023-.027 1.537-.071 1.267-.085 2.541-.185 3.808-.077.909-.043 1.96-.08 2.893-.074.753-.133 1.508-.114 2.266-.013 1.905.016 3.892-.61 5.71l-.09.207c-.345.103-.68.249-.99.442a6.3 6.3 0 0 0-1.14.848c-1.162.803-1.894 2.088-1.523 3.62.433 1.518 1.49 2.777 2.666 3.869.024.02.045.045.069.069.008.008.016.013.024.02.424.39.862.759 1.292 1.108 3.238 2.68 7.732 2.417 11.687 2.208a84.44 84.44 0 0 0 6.774-.838c2.64-.487 5.414-1.073 8.003-.026.547.222.854.426 1.027.617a.95.95 0 0 1-.07.679c-.095.17-.24.32-.273.511-.05.048-.098.095-.143.146a1.538 1.538 0 0 0-.28.352 2.89 2.89 0 0 0-.367.742c-.671 1.823 1.167 2.75 2.798 3.084-.005.027-.01.05-.01.08a13.087 13.087 0 0 0-.143 3.105c-.064 3.289.408 6.567 1.177 9.76.557 2.549 1.08 5.127 1.98 7.581 1.684 4.218 3.827 8.325 6.991 11.635 1.449 1.627 3.075 3.068 4.817 4.356.292.231.595.453.908.657.023.014.05.027.074.043 3.09 2.125 6.51 3.8 9.995 5.154 1.201.413 2.382.898 3.6 1.264 4.373 1.237 8.946 1.605 13.471 1.799 6.067.045 11.934-2.009 17.293-4.711 4.485-2.205 8.795-4.905 12.159-8.647 1.239-1.229 2.541-2.411 3.504-3.884 1.48-2.02 2.833-4.113 3.904-6.378 1.183-2.21 2.133-4.529 2.764-6.956.067-.204.125-.408.175-.615.149-.1.271-.262.356-.445.509-.652 1.098-1.264 1.777-1.741 2.273-.676 4.459-1.611 6.6-2.629 3.098-1.57 6.055-3.418 8.87-5.45 2.294-1.683 4.27-3.74 6.13-5.877 1.188-1.384 2.318-2.666 3.345-4.216 1.445-2.035 2.846-4.131 3.708-6.492.432-1.153.703-2.359.966-3.559l.021-.09c.782.647 1.191 1.643 1.512 2.58.597 1.509 1.475 2.897 2.374 4.24.875 1.034 1.618 2.181 2.578 3.138 1.363 1.29 2.91 2.443 4.382 3.627 1.244.835 2.345 1.86 3.637 2.621.809.485 1.52 1.116 2.355 1.558.149.077.297.149.448.218.674.397 1.361.778 2.054 1.141 1.604.97 3.336 1.665 5.122 2.224 2.336.845 4.766 1.375 7.183 1.937.917.236 1.819.54 2.748.726 1.329.267 2.695.27 4.016.58.748.344 1.392-.024 1.199-.819l.005.006ZM61.319 118.245a39.16 39.16 0 0 1-7.151-7.444c-.74-1.023-1.353-2.159-1.953-3.299-.586-1.033-1.185-2.067-1.596-3.182-.841-1.863-1.502-3.797-2.117-5.742-.39-1.436-.47-2.915-.61-4.386-.104-.975-.205-1.95-.321-2.922-.239-1.195-.456-2.398-.393-3.623-.06-1.367-.358-2.732-.095-4.094 1.45-.792 2.825-.977 4.586-.824 1.772-.026 3.536.215 5.305.202.745.037 1.586-.297 2.135.365 1.287 1.394 1.382 3.31 1.72 5.106.153 1.24.469 2.452.785 3.66.387 1.76.82 3.51 1.36 5.23.25.976.666 1.887 1.109 2.788.337.859.785 1.799 1.358 2.573 1.138 1.701 2.44 3.334 3.955 4.722.265.244.546.464.836.673 1.774 1.479 3.851 2.57 6.013 3.379 1.17.458 2.411.654 3.642.877 1.777.328 3.57.604 5.377.726 4.39.344 8.928-.469 12.681-2.843 4.364-2.902 7.772-7.272 9.414-12.256.162-.638 1.027-3.05.536-3.847.035-.151.006-.326-.122-.51-.199-.245-.557-.386-.843-.206-1.388-.002-2.724-.31-4.014-.8-2.085-.543-4.077-1.367-6.008-2.313a35.186 35.186 0 0 1-4.252-2.295c-.225-.162-.453-.323-.676-.493-1.995-1.637-3.724-3.561-5.3-5.599.053-.12.103-.236.157-.339.626-.848 1.657-1.455 2.734-1.224 1.512.32 3.183 1.065 4.648.19.554-.386 1.071-.945 1.82-.832 1.628.462 2.657 2.417 4.482 2.343.759-.04 1.443-.474 2.212-.466.786.288 1.475.967 1.894 1.69.613.724 1.38 1.444 2.335 1.648.864.162 1.315-.087 1.477-.405.342-.215.424-.792.013-1.039-.62-.84-1.49-1.41-2.395-1.913-.889-.522-1.753-1.102-2.753-1.391-1.722-.641-3.465-1.224-5.268-1.606-1.778-.387-3.594-.689-5.417-.434-1.93.267-3.878.455-5.706 1.213-.546.164-1.05.512-1.564.785-1.608-2.147-3.083-4.4-4.359-6.757-.809-1.254-1.387-2.6-2.013-3.954-.16-.331-.316-.665-.44-1.012.193-.146.352-.39.493-.591.528-.678.998-1.519 1.496-2.24.817-1.417 1.793-2.697 2.793-3.995 1.727-2.313 3.74-4.48 5.992-6.333a38.6 38.6 0 0 1 2.57-1.895c1.465-.858 2.974-1.788 4.492-2.65 2.013-1.012 4.108-1.873 6.212-2.705 1.01-.443 2.087-.678 3.17-.874.034-.011.071-.022.108-.03.321-.01.685-.098 1.006-.198.199-.048.384-.109.541-.196l.124-.05c1.181-.502 1.661-1.702 1.958-2.9.172-.959.231-1.937.589-2.856.475-1.847 2.247-1.958 3.817-2.281a25.903 25.903 0 0 0 2.085-.7c.56-.103 1.114-.228 1.647-.44 1.507-.554 2.43-1.58 3.252-2.787 1.284-1.466 2.292-3.215 3.486-4.786a10.23 10.23 0 0 1 1.986-1.465c.836-.485 2.725-1.516 3.671-1.04.056.051.101.102.144.152-.125.705-.724 1.261-1.186 1.786-.337.376-.679.747-1.08 1.06-1.618 1.224-3.326 2.393-4.488 4.094-.864.986-1.188 2.782-.039 3.69 1.214 1.17 3.143.783 4.453-.028 1.056-.615 1.783-1.627 2.671-2.438 1.852-1.789 3.841-3.413 5.884-4.976 1.891-1.18 7.886-5.128 9.61-2.682.347.379.552.72.851 1.187.303.472.703.89.881 1.431.438 1.086.427 2.25.199 3.384a3.273 3.273 0 0 1-.499 1.288c-1.05 1.587-3.114 1.91-4.793 2.501-2.825 1.01-5.714 1.802-8.623 2.53-.374.056-.748.117-1.117.191-1.112.175-2.22.355-3.287.716-1.713.617-3.456 1.738-4.116 3.51-.534 1.397-.727 2.92-.478 4.426.276 2.562.846 5.069 1.265 7.605.279 2.178.597 4.35.897 6.524.188 1.584.345 3.171.475 4.761.029.975.04 1.953.063 2.931.083 1.166.104 2.335.133 3.503-.085 1.624-.215 3.254-.135 4.865.087 2.735-.043 5.514.008 8.257.002 1.43-.043 2.867-.197 4.293-.143.882-.233 1.778-.371 2.673-.825 2.154-1.517 4.362-2.416 6.49-.61 1.295-1.38 2.506-2.027 3.786-.647 1.052-1.361 2.059-2.034 3.092-1.406 1.659-2.751 3.374-4.231 4.969-2.39 2.273-4.743 4.647-7.518 6.46-2.615 1.871-5.628 3.055-8.631 4.15-3.963 1.436-8.09 2.686-12.332 2.779-3.904.011-7.64-1.007-11.422-1.929-2.83-.689-5.73-1.476-8.45-2.562-2.269-1.103-4.603-2.152-6.717-3.538a.539.539 0 0 1-.05-.037l-.003-.002ZM20.096 31.75a9.51 9.51 0 0 1 .602-3.95c.408-.875.589-1.803.626-2.746.313-2.268-.748-4.55-1.244-6.752a5.532 5.532 0 0 1 0-1.025c.087-1.206.56-2.343.721-3.538 0-.01 0-.024.003-.034.12-.54.19-1.09.143-1.654-.018-.41-.032-.824-.143-1.224-.133-.562-.467-1.129-.348-1.72.133-.67.547-.31.955-.148.777.562 1.151 1.457 1.385 2.38.19 1.72-.493 3.746-.454 5.424.011.204.03.405.053.606-.098.843-.071 1.686.268 2.528.276.843.756 1.625 1.162 2.422.348 1.19.512 2.417.263 3.662a15.357 15.357 0 0 0-.732 2.934 5.28 5.28 0 0 0-.056.28c-.318 1.468-.14 2.963.233 4.402.258.657.55 1.303.823 1.955.62 1.876 1.063 3.487-.043 5.851-.196.435-.398.87-.583 1.31a.694.694 0 0 0-.085.195c0 .008-.005.016-.008.024l-.088.223c-.138.288-.36.559-.578.781-.329.186-.73.199-1.1.212-1.078 0-1.24-.328-1.38-.622.411-.928.857-1.85.939-2.868a7.27 7.27 0 0 0 .018-.633c.022-.238.035-.48.038-.718.09-1.704-.496-3.304-1.05-4.891-.17-.877-.234-1.773-.335-2.66l-.005-.006Zm9.366 3.291c-.364-.885-.913-1.677-1.212-2.591-.488-1.22-.433-2.534-.319-3.816.021-.403.138-.8.279-1.193.095-.24.19-.485.276-.728.045-.122.09-.242.13-.36a2.64 2.64 0 0 0 .13-.631c.024-.151.042-.303.047-.456.09-.803-.013-1.6-.148-2.39-.072-.514.008-1.116.345-1.527a.81.81 0 0 1 .607-.031c.244.167.462.365.658.59.133.168.257.345.398.525.297.435.549.91.793 1.367.329.695.294 1.381.111 2.054-.167.506-.405.996-.634 1.439a4.12 4.12 0 0 0-.44 1.32c-.178.675-.223 1.385-.188 2.082.037.8.345 1.519.73 2.2.453 1.176 1.177 2.223 1.63 3.407.09.387.144.785.133 1.195-.058 1.127-.4 2.12-.74 3.193-.36.724-.767 1.437-.981 2.2a.656.656 0 0 0-.117.09c-.647.689-1.82 1.046-2.605.37-.03-.209.003-.476.019-.739.26-.842.535-1.68.753-2.533.615-1.637 1.093-3.38.342-5.04l.003.003Zm8.544 2.957c.84-1.754.05-3.577-.902-5.117-.74-1.534-1.008-3.283-.411-4.926.424-.885.896-1.76 1.111-2.729.122-.946.07-1.69-.072-2.334-.177-1.232-.718-2.168-1.225-3.32-.318-1.182-.329-2.685.634-5.242-.003.008-.005.01-.008.021.133-.381.225-.797.276-1.221.066-.284.106-.573.1-.872.009-.488.006-.978-.166-1.441-.242-.663-.361-1.389.082-2.001 1.074-.18 1.934.986 2.302 1.879.053.11.096.222.136.333.17.84.175 1.718.029 2.558-.268.993-.568 1.984-.621 3.02l.003.194c-.048.342-.08.686-.085 1.036.002.882.241 1.757.644 2.541.292.551.637 1.07.931 1.616.035.083.07.165.101.25.364 1.102.398 2.294.173 3.43a4.909 4.909 0 0 1-.112.544c-.14.32-.302.633-.47.93-.617 1.373-1.212 2.91-.986 4.439.233 1.155.95 2.096 1.568 3.07.159.319.31.642.456.968.38 1.24.085 2.565-.334 3.765-.228.769-.738 1.497-.937 2.292l-.016.059c-.01.042-.018.082-.023.124-.642 1.06-.969 1.606-2.353 1.46a1.338 1.338 0 0 1-.79-.575c-.176-.122-.266-.331-.454-.426-.022-.011-.043-.016-.064-.024.093-.488.223-.975.374-1.481.29-.83.671-1.635.915-2.478.072-.111.138-.225.199-.342h-.005ZM49.95 23.721c.202.784-.026 1.638-.095 2.456-.968 2.846-1.212 3.9-.658 5.886.042 1.065.26 2.117.721 3.108.348.75.79 1.516.926 2.337a3.32 3.32 0 0 1-.19 1.28l-.136.275c-.204.276-.454.525-.66.8-.505.61-.844 1.39-.844 2.184-.194.01-.393.045-.584.074-.318.021-.636-.029-.955-.037-.421-.034-.883.045-1.297-.064.027-.302.067-.609.133-.95.263-1.222.875-2.333 1.199-3.536.284-1.452.056-2.994-.47-4.367-.692-1.438-1.161-3.028-.843-4.634.217-1.068.774-2.027.997-3.092.239-.85.244-1.831.578-2.684.112-.202.25-.382.486-.451a1.424 1.424 0 0 1 .976.347c.024.019.045.043.066.064.085.082.162.17.236.26.167.22.303.474.406.741l.008.003Zm.31 41.753c-1.96.185-3.925-.074-5.864-.345a43.668 43.668 0 0 1-4.29-.89c-1.607-.443-3.456-.986-5.14-.599-1.974.419-3.258 1.67-3.64 3.196a.717.717 0 0 0-.201.1c-.284.231-.589.472-.958.533a.63.63 0 0 0-.35.037c-2.337.082-4.615-.554-6.872-1.123-1.186-.318-2.258-.925-3.409-1.32-.395-.1-.81-.18-1.228-.228-.133-1.857-.117-3.723-.212-5.583-.128-2.146.037-4.303.103-6.45 0-.84.008-1.669.016-2.496.016-.32.032-.64.045-.962.111-.816.17-1.632.191-2.456.043-.273-.032-.662.183-.898 1.133.03 2.26-.082 3.387-.186 1.186.04 2.377.101 3.557.043 2.15-.032 4.284-.207 6.417-.43 3.605-.18 7.21-.18 10.817-.227a48.907 48.907 0 0 1 6.167.193c2.77.14 5.541.154 8.308.331.99.112 1.979.215 2.968.337.13.018.205.087.252.18.014.026.024.053.035.08.055.158.069.355.148.495.006.008.008.013.014.019.122.543.154 1.102.206 1.653.231 2.923.507 5.859.26 8.792.014 1.513-.143 3.042-.947 4.383-.236.41-.647.827-1.042 1.105a.852.852 0 0 0-.4.26c-.327.153-.65.31-.977.463-2.384 1.026-4.962 1.68-7.546 1.995l.002-.002Zm7.863-24.707c-.266.501-.435 1.05-.499 1.611-.692-.002-1.382.043-2.077.064a1.61 1.61 0 0 1-.225-.013 7.813 7.813 0 0 1 .52-1.53c2.657-5.307.673-5.654.042-10.715-.05-.962.045-1.937.355-2.851.542-1.158 1.308-2.237 1.491-3.538.228-1.505-.342-2.957-.78-4.372-.294-.906-.719-1.815-.602-2.798.027-1.426.937-2.631 1.059-4.028.037-.842-.008-1.688.037-2.53.095-.263.228-.517.419-.756.69.03.986.628 1.23 1.185.176.532.274 1.097.332 1.65 0 .03 0 .056.003.085-.006.464-.059.93-.128 1.386-.018.12-.034.241-.053.363-.066.292-.145.589-.225.901-.133.877-.077 1.781 0 2.66.17 1.877.979 3.642 1.236 5.507.093 1.18-.34 2.29-1.005 3.243-1.096 1.919-1.279 3.726-.727 5.634.013.103.026.207.045.31.3 1.105.78 2.099.965 3.246.043.304.059.604.059.9-.236 1.495-1.072 2.878-1.475 4.389l.003-.003ZM5.633 58.296a75.526 75.526 0 0 1-2.065-1.373c.745-.612 1.57-1.126 2.344-1.704 1.146-1.05 2.37-2.008 3.478-3.098 1.61-1.28 3.22-2.578 4.883-3.797.143.112.292.22.398.363a.66.66 0 0 0 .143.35c-2.257 3.546-4.867 6.866-6.968 10.512-.798-.32-1.565-.676-2.212-1.256v.003Zm10.776 8.209c1.183-.26 2.376.063 3.554.198 1.759.39 3.194 1.569 4.91 2.096 1.04.321 2.12.586 3.212.565.87.018 1.75-.154 2.61.034.287.037.613.202.9.218.175.402.41.802.71 1.19 1.83 2.355 5.634 3.131 8.486 2.972a15.251 15.251 0 0 0 3.483-.638 7.431 7.431 0 0 1 2.318-.172c.008 0 .019.002.027.005.336.111.76.307 1.055.111a.607.607 0 0 0 .456-.453c.096-.755-.718-.803-1.358-.837-1.639-.347-3.366.26-5.018.323-1.008.058-2.01.04-3.019-.019-1.618-.069-3.124-.742-4.342-1.796-1.576-1.495-2.533-3.495-.257-4.863 1.514-.784 3.366-.447 4.952-.047 1.589.49 3.183 1.015 4.836 1.264 3.49.41 7.066.196 10.498-.554 1.26-.316 2.433-.864 3.597-1.42.496-.204.99-.422 1.48-.644a5.91 5.91 0 0 0 .59-.305c.432-.18.87-.342 1.318-.477 1.607-.252 2.888.472 3.772 1.643.04.058.082.114.119.172.04.053.074.109.111.162.79 1.219 1.191 2.814 1.133 4.298-.154 1.168-.666 2.308-1.525 3.31-.685.8-1.576 1.38-2.377 2.056-.634.49-1.154 1.1-1.719 1.661-1.334-.12-2.695-.04-4.021.053-1.838.024-3.584.037-5.44.09-1.383.122-2.772.22-4.16.228-.32 0-.655.021-.992.06a2.581 2.581 0 0 0-.522-.503c-1.634-1.234-3.66-1.772-5.669-2.01-2.493-.237-4.968.195-7.422.595-1.78.294-3.575.464-5.363.7-2.623.262-5.4.448-7.892-.578-1.907-.93-3.894-2.013-4.973-3.916-.324-.845-1.096-1.654-.838-2.61.185-.551.525-1.036.947-1.444.557-.342 1.228-.557 1.83-.716l.003-.002Zm46.398 13.993a1.521 1.521 0 0 1-.095.045c-.18.096-.366.172-.555.241-2.546.257-5.098.445-7.652.549-1.966 0-3.931-.05-5.9-.114-1.262.021-2.554.013-3.73-.511-1.07-.538-1.286-1.598.049-1.932 1.172-.416 2.416-.384 3.639-.4 1.445-.17 2.9-.22 4.347-.353 2.038-.153 4.096-.132 6.141-.055a11.69 11.69 0 0 1 2.236.106c.287.069.584-.048.857.023.565.149.965.605 1.294 1.063.019.05.035.098.048.146-.095.45-.345.906-.682 1.192h.003ZM192 78.466c.101.75.246 1.5.22 2.25-.332 2.305-1.345 4.737-3.403 6.007-.098.058-.21.1-.319.143A65.175 65.175 0 0 1 184 85.578c.018-.578.135-1.142.273-1.704 1.018-2.173 1.849-4.433 2.536-6.736.331-.747.485-1.696 1.183-2.178.148-.13.284-.273.416-.418.082.074.167.148.247.222a29.947 29.947 0 0 1 3.342 3.7l.003.002Zm.119 9.298c-.005-.106-.005-.212-.008-.318.003-.374.085-.726.191-1.081.072-.223.141-.461.218-.705.329-.628.631-1.27.912-1.921.12-.125.239-.25.369-.363.355-.19.682-.432 1.005-.676.303.528.597 1.057.881 1.598.899 1.653 1.835 3.288 2.406 5.09-2.04-.355-3.99-1.044-5.971-1.624h-.003Zm-28.722-18.239c-.586-.895-.87-1.926-1.302-2.893-.417-.827-.812-1.656-1.138-2.52a4.09 4.09 0 0 1 .485-.22c.918-.043 1.836-.12 2.751-.032 1.308.156 2.562.56 3.836.877.233.05.464.104.697.16.014.275.064.566.048.791.069.84-.069 1.68-.218 2.504-.267 1.121-.673 2.232-1.347 3.175-.385.464-.788 1.346-1.464 1.529a29.261 29.261 0 0 1-2.345-3.373l-.003.002Zm-19.135 15.896c-.165.02-.324.032-.459.02-1.024-.157-1.289-1.289-1.443-2.16-.146-.867-.093-1.728-.122-2.61-.112-2.256-.17-4.405-.271-6.678-.122-2.292-.35-4.576-.421-6.874-.16-3.394-.178-6.786-.157-10.18-.032-.89-.066-1.78-.066-2.674-.059-.718-.141-1.444 0-2.162.148-.583.504-.933 1.029-.888a.51.51 0 0 0 .106.043c.257.053.483.19.692.344.526.414 1.019.867 1.454 1.37.231.289.456.586.666.906.18.334.353.673.522 1.015 1.236 2.843 1.507 6.063 1.555 9.14.103 2.064.236 4.032.273 6.115.117 1.831.079 3.68.119 5.517-.045 2.57-.135 5.25-1.223 7.623-.275.398-.517.822-.806 1.209-.475.323-.96.63-1.451.922l.003.002Zm-17.128-32.555c-.138-1.168-.273-2.337-.437-3.506-.088-.71-.226-1.425-.234-2.143.069-.114.146-.225.215-.337.422-.585 1.637-.593 2.971-.387l.146.048c.368.17.803.286.984.681.562.933.888 2.017.928 3.103.189 1.45.239 2.917.422 4.367.202 1.592.698 3.13.785 4.738.17 1.168.064 2.342.032 3.516.058 3.015-.013 5.96.048 9.036.047 2.016.047 4.067.23 6.084.223 3.383.47 6.863-.222 10.207-.292.999-.656 1.982-1.369 2.76-.589.438-1.297.767-2.048.647a1.465 1.465 0 0 1-.647-.914c.215-2.472.231-4.97.316-7.44.026-5.194.045-10.404-.433-15.581-.048-1.158-.127-2.314-.294-3.466a129.29 129.29 0 0 1-.257-1.733c-.367-3.228-.756-6.455-1.136-9.682v.002Zm10.388 36.594c-.059.016-.12.034-.178.047-2.119.968-2.181-.651-2.228-2.281.071-3.469.788-6.916.459-10.39-.361-5.342-.316-10.7-.419-16.058-.03-2.32-.443-4.618-.857-6.894-.22-1.052-.401-2.094-.385-3.17-.122-.924-.01-1.88.26-2.768.7-.08 1.382.328 1.984.646.74.246 1.369.763 1.857 1.365.942 1.706 1.159 3.75 1.294 5.675.467 4.142.427 8.308.504 12.481-.026 5.326.849 10.642.361 15.976-.159 1.306-.414 2.607-.873 3.842-.066.199-.188.395-.236.59-.514.314-1.029.626-1.543.939Zm12.071-8.768c-.244-.597-.071-1.288-.087-1.921.087-.936.13-1.869.098-2.81.061-2.307-.143-4.607-.308-6.907-.119-2.475-.39-4.94-.551-7.41-.061-1.09-.038-2.185-.064-3.277-.072-1.115-.271-2.133-.536-3.227a.658.658 0 0 1 .09-.138c.22-.281.594-.342.947-.435.799.448 1.589.907 2.369 1.389a.985.985 0 0 0 .026.069c.436.81.794 1.664 1.123 2.522.511 1.876.639 3.848.798 5.803-.032 3.098.3 6.196.125 9.31-.04.675-.053 1.356-.175 2.023a2.692 2.692 0 0 0-.101.517c-1.104 1.672-2.186 3.304-3.541 4.778-.069-.096-.133-.199-.21-.292l-.003.006Zm20.314-31.848c.61-.223 1.151.214 1.65.575.559.331 1.008.813 1.519 1.208.706.514 1.404 1.015 1.979 1.683.456.62.899 1.261 1.284 1.931.035.085.072.17.104.257.172.568.432 1.127.766 1.635.191.771.178 1.569.146 2.361a.853.853 0 0 1-.04.218.514.514 0 0 0-.018.209 27.554 27.554 0 0 1-5.677 2.284c-.366-.254-.806-.405-1.103-.745a12.646 12.646 0 0 0-.515-1.536c-.605-1.174-1.26-2.338-2.183-3.289-.424-.66-.846-1.32-1.22-2.011a1.999 1.999 0 0 1-.151-.808 84.36 84.36 0 0 1 3.461-3.97l-.002-.002Zm-5.621 6.797c.194-.05.374-.167.552-.265.443-.18.875.272 1.217.508.788.792 1.401 1.723 1.958 2.687.276.65.419 1.352.567 2.035.014.39-.034.78-.148 1.153a.563.563 0 0 0-.027.103c-.777.066-1.612.106-2.363.22a16.854 16.854 0 0 0-2.398.058c-.944.024-1.873-.026-2.767-.336.186-.543.38-1.079.624-1.6.708-1.649 1.732-3.12 2.788-4.56l-.003-.003Zm-5.639 6.571a.736.736 0 0 1 .076.254c.056.676.109 1.354.16 2.033 0 .071.008.145.021.217v.01c-.265 1.347-.57 2.68-1.106 3.949-.433 1.12-.995 2.191-1.621 3.235a1.866 1.866 0 0 0-.172-.204 10.9 10.9 0 0 1-.345-1.614 36.282 36.282 0 0 0-.202-4.361c-.22-2.072-.313-4.16-.676-6.206 0-.262.029-.522.14-.776.037-.061.077-.125.117-.186 1.268 1.15 2.454 2.396 3.613 3.652l-.005-.003Zm9.543 11.876c.173-.895.542-1.73.886-2.57.014-.04.03-.08.043-.12.39-.776.695-1.594.928-2.434.056-.128.106-.255.165-.382.416-.885.787-1.81 1.408-2.575.096-.099.21-.17.326-.239 1.223.384 2.425.83 3.6 1.343.658.218 1.297.48 1.926.766.652 2.006-.003 4.182-.441 6.182-.604 1.648-1.122 3.384-2.228 4.783-.355.403-.867.806-1.305 1.134a1.254 1.254 0 0 1-.156.106c-.194-.156-.39-.307-.579-.469-1.626-1.364-3.18-2.814-4.734-4.26.077-.451.077-.965.161-1.265Zm12.009-17.054c-.539-.135-1-.44-1.39-.824-.634-1.582-1.481-3.07-2.47-4.457-.069-.114-.135-.228-.201-.342a8.596 8.596 0 0 0-1.027-1.23 11.578 11.578 0 0 0-.814-.789c-.73-.689-1.457-1.375-1.974-2.236-.138-.228-.162-.474-.156-.724.644-.675 1.289-1.346 1.936-2.019a47.246 47.246 0 0 1 2.096-1.915c.132-.07.262-.146.416-.154.398-.021.814-.172 1.202-.059.925.403 1.623 1.182 2.379 1.829.843.869 1.918 1.489 2.591 2.525.985 1.78 1.929 3.728 1.937 5.8-.642.785-1.308 1.55-1.955 2.33a27.429 27.429 0 0 1-2.568 2.27l-.002-.005Zm4.764-9.905c-.802-1.256-1.483-2.657-2.611-3.659-.469-.358-.989-.663-1.474-1.002-.03-.02-.059-.045-.088-.066-.119-.085-.236-.172-.353-.26a8.31 8.31 0 0 1-.241-.204c-.332-.41-.7-.882-.862-1.399.114-.326.262-.662.437-.964.51-.4 1.022-.8 1.534-1.203.305-.223.602-.459.894-.694.649-.231 1.36-.242 1.992.119.856.418 1.496 1.16 2.167 1.823 1.201 1.145 2.265 2.631 2.411 4.327a.517.517 0 0 0 .074.289c-.018.069-.037.138-.053.206a33.077 33.077 0 0 1-2.079 4.95c-.931-.4-1.247-1.444-1.751-2.26l.003-.003Zm4.676-6.184a2.247 2.247 0 0 1-.056-.082c.024-.006.045-.014.067-.022a1.225 1.225 0 0 1-.014.104h.003Zm-.509-6.463c.254 1.325.666 2.642.496 4.006-.051.39 0 .907-.3 1.217-.443-.128-.629-.586-.862-.936-.324-.517-.806-.893-1.316-1.213-.451-.31-.875-.655-1.307-.991-.306-.204-.722-.374-.568-.82.042-.526.546-.728.947-.964.812-.577 2.09-1.158 2.91-.302v.003Zm-12.478 47.945a.653.653 0 0 0-.14-.15c-.398-.857-.194-1.797.148-2.635.401-1.184 1.093-2.241 1.578-3.391.52-1.108.841-2.293 1.13-3.477.205-.813.34-1.64.722-2.395.196-.332.475-.615.737-.904.085.048.173.093.258.146 1.103.705 2.244 1.37 3.363 2.064a.785.785 0 0 0 .329.217c1.461 1.712.87 4.59.114 6.794-.44.994-.905 1.977-1.252 3.008-.348.7-.748 1.378-1.263 1.95a5.035 5.035 0 0 1-1.026.975 45.003 45.003 0 0 1-2.321-.972c-.433-.157-.852-.34-1.258-.543a42.92 42.92 0 0 1-1.116-.684l-.003-.003ZM69.855 50.455c2.186 1.171 4.281 2.528 6.504 3.635a27.637 27.637 0 0 0-2.84 3.376c-.19-.154-.372-.313-.563-.46-.836-.605-1.592-1.313-2.406-1.943-.968-.681-1.94-1.357-2.796-2.178-1.037-.806-1.9-1.8-2.75-2.793a.59.59 0 0 0-.123-.35c.096-.56.478-.962.86-1.367.507.28 1.013.564 1.533.848.875.376 1.75.76 2.578 1.237l.003-.005Z" fill="#000"/>
</svg>