<svg width="129" height="130" viewBox="0 0 129 130" fill="none" xmlns="http://www.w3.org/2000/svg">
<g clip-path="url(#clip0_9218_4035)">
<path d="M128.227 37.1798C127.556 33.4197 126.075 29.8579 124.61 26.3472C122.687 22.0316 120.508 17.776 117.734 13.9319C115.019 9.92261 111.811 6.24668 108.023 3.22245C107.195 2.47164 106.305 1.79292 105.378 1.17125C105.245 1.06915 105.083 1.04812 104.938 1.08716C104.815 1.0241 104.683 0.985055 104.532 0.991062C103.626 1.1232 102.979 1.83196 102.257 2.32449C101.249 3.20443 100.271 4.07236 99.3532 5.05741C98.7785 5.69409 98.3722 6.45991 97.96 7.20771C97.1926 8.66427 96.338 10.0487 95.5255 11.4933C94.1322 14.1752 92.6547 16.836 91.6135 19.68C89.6725 24.7014 88.3876 29.927 87.5239 35.2367C87.2862 36.5371 87.0996 37.8315 86.9281 39.1318C86.0193 36.6842 85.0353 34.2666 83.9459 31.8941C81.0841 25.5243 78.6316 18.9503 75.7277 12.5925C74.9694 10.7425 74.2411 8.76938 73.3895 6.94042C72.7696 5.73313 72.1768 4.51983 71.6532 3.2675C71.5118 2.95516 71.4395 2.47164 71.0724 2.45363C70.8076 1.94909 70.4886 1.47458 70.0643 1.06614C69.5106 0.414445 68.5928 0.261282 67.7893 0.123134C65.4782 -0.279296 62.9354 0.393423 61.1118 1.871C60.0165 2.73893 58.9903 3.70897 58.2531 4.90725C57.9552 5.29466 57.9521 5.83224 57.6121 6.18361C57.1788 6.61307 56.5559 6.76323 56.0353 7.06355C54.7022 7.71826 53.4353 8.49909 52.2256 9.35801C50.5284 10.4782 49.12 11.9468 47.796 13.4754C45.2381 16.3225 43.2761 19.614 41.5879 23.0316C39.9449 26.0619 38.5576 29.2303 37.2787 32.4287C35.1301 37.8074 32.9333 43.4054 28.6482 47.5048C28.1065 48.0454 27.5588 48.5829 26.9901 49.0935C26.6982 49.3157 26.4033 49.541 26.1174 49.7692C24.2156 51.3579 22.1121 52.8956 19.5603 53.1478C17.6434 53.4001 15.7085 53.7605 13.7765 53.313C10.6439 52.5292 7.70389 50.6011 6.08793 47.7631C5.35368 46.751 5.22729 45.2734 4.10484 44.5676C3.35253 44.0331 2.83795 44.5526 2.24513 45.0271C2.1699 45.0992 2.12476 45.1953 2.11574 45.2944C2.04051 45.4176 1.98634 45.5497 1.94722 45.6848C1.67338 46.4417 1.5169 47.2015 1.40857 48.0033C0.999309 51.8144 2.22708 55.7096 4.41179 58.8269C8.45319 64.4339 15.4015 68.4282 22.3468 68.8036C23.4964 68.8246 24.6459 68.8186 25.7864 68.7135C25.5005 69.3021 25.1394 69.8457 24.7362 70.3863C24.1373 71.2842 23.4512 72.1221 22.6448 72.8459C20.77 74.5427 18.2753 75.3656 15.874 76.0263C13.5478 76.5158 11.1194 76.0593 9.05504 74.8851C8.47727 74.5487 7.89046 74.1913 7.41199 73.7228C7.09001 73.3594 6.79811 72.966 6.42797 72.6507C5.72381 71.8458 4.54118 70.2451 3.31642 70.8037C3.09073 70.9058 2.88911 71.1581 2.84698 71.4043C2.82893 71.4134 2.81087 71.4254 2.78981 71.4374C1.89004 72.062 3.62336 75.2785 4.00855 76.1224C5.25738 78.582 7.03283 80.8134 9.14532 82.6063C10.6439 83.9007 12.2358 85.144 14.0293 86.003C17.1679 87.4895 20.5594 88.2403 24.011 88.5467C29.5209 89.0212 34.9917 87.6037 39.981 85.3423C45.855 82.8466 49.8994 79.2037 53.4112 73.9361C54.3411 72.5456 55.4003 71.1971 56.1677 69.6895C57.4015 67.299 58.6713 64.9024 59.52 62.3437C60.8741 59.5687 62.1049 56.7727 63.5313 54.0278C64.5544 52.391 65.2465 50.505 66.5947 49.0875C68.4815 46.5227 70.8166 44.2103 73.8349 43.0841C74.0847 43.6216 74.2833 44.1832 74.5601 44.7058C75.6886 46.8261 76.5733 49.0424 77.4821 51.2648C78.1532 52.9857 78.9446 54.6705 79.5976 56.4003C80.052 57.6466 80.4973 58.896 80.9969 60.1243C80.5184 60.812 79.9497 61.4367 79.2756 61.9322C78.3036 62.7581 77.0849 63.3107 75.9444 63.9053C74.187 64.8694 72.3092 65.6262 70.609 66.6893C69.4745 67.4882 68.9298 68.8486 68.641 70.161C68.5055 70.9088 68.6771 71.6326 68.9208 72.3353C66.1854 73.2964 63.7931 76.7771 64.9276 79.6301C65.6859 81.5552 69.306 81.4891 71.0453 81.5852C71.4817 81.6093 71.912 81.5672 72.3363 81.4741C72.8479 82.1558 73.6212 82.8766 73.8259 83.1199C74.6895 83.7866 75.7247 84.207 76.7659 84.5314C75.9534 86.5585 75.165 88.6067 74.1328 90.5378C71.6442 94.3879 68.8817 98.19 65.4361 101.256C64.3317 102.301 63.0648 103.193 61.7227 103.929C61.3195 103.611 60.8922 103.319 60.4498 103.049C59.5049 102.455 58.3704 102.277 57.2931 102.052C56.4385 101.854 55.5598 101.752 54.6841 101.806C54.4253 101.518 54.1755 101.217 53.8837 100.962C53.5165 100.713 53.1193 100.505 52.7462 100.268C50.8172 99.3973 48.792 98.6255 46.6675 98.4333C43.568 98.229 40.321 98.5354 37.2155 98.7306C35.4039 99.0429 33.5863 99.2711 31.7688 99.5354C30.0415 99.8147 28.2449 99.9589 26.4906 99.7126C24.8144 99.5594 23.2135 99.0609 21.5975 98.4903C20.3547 98.0909 19.0517 97.3221 17.7126 97.6314C17.2191 97.7785 16.6955 97.8686 16.2862 98.199C16.2291 98.2501 16.1629 98.3071 16.0876 98.3702C15.0795 97.8656 13.93 97.6044 12.8166 97.5113C12.0372 97.3941 11.2578 97.3611 10.4814 97.5083C8.88953 97.6644 7.95065 98.3672 7.26755 99.7967C7.25551 99.8177 7.24649 99.8388 7.23144 99.8598C6.48515 99.5144 5.70877 99.2471 4.87521 99.2231C4.03262 99.148 3.19304 98.9858 2.34745 98.9828C0.343296 99.0099 -0.490263 101.68 0.283111 103.268C0.737506 104.29 1.22199 105.296 1.73055 106.29C2.45879 107.563 3.44582 108.686 4.42081 109.791C5.7208 111.149 7.11709 112.629 8.90759 113.305C8.84439 113.38 8.80527 113.476 8.80828 113.578C9.32587 118.684 15.3594 121.966 19.9334 123.645C20.132 124.006 20.3216 124.369 20.5383 124.714C20.8994 125.378 21.4802 125.856 22.0549 126.327C26.1806 129.348 31.4558 129.781 36.412 129.991C39.346 130.087 42.3101 129.964 45.214 129.519C50.0288 128.715 54.6841 127.09 59.0957 125.021C62.0357 123.42 64.8313 121.564 67.693 119.807C68.9028 118.927 70.0854 117.993 71.0514 116.84C72.0805 115.633 73.0495 114.392 74.0817 113.188C75.3004 113.146 76.5161 113.032 77.6927 112.677C80.4462 112.017 83.1214 111.077 85.6702 109.845C88.2762 108.701 90.8521 107.449 93.3679 106.109C95.5405 104.83 97.5597 103.337 99.6481 101.932C99.6782 101.971 99.7143 102.007 99.7595 102.034C100.054 102.608 100.178 103.238 100.476 103.824C100.96 104.671 101.357 105.56 101.824 106.416C103.28 109.698 104.595 113.035 106.007 116.335C106.979 118.194 107.743 120.155 108.655 122.041C109.338 123.543 111.158 123.97 112.672 124.057C113.367 124.054 114.083 124.015 114.764 123.864C116.042 123.477 117.165 122.63 118.074 121.666C119.25 120.528 120.638 119.414 121.182 117.804C121.324 117.387 121.471 116.933 121.369 116.492C121.029 115.633 120.496 114.912 120.207 114.014C119.482 111.963 118.79 109.9 118.004 107.869C116.355 103.256 114.405 98.7576 112.133 94.415C111.839 93.8894 111.562 93.3608 111.291 92.8232C111.646 92.4839 112.004 92.1505 112.362 91.8142C114.619 89.4687 116.473 86.7958 118.146 84.0178C119.494 81.9366 120.716 79.7923 121.808 77.5609C122.681 75.9422 123.596 74.3445 124.303 72.6417C125.51 69.7886 126.352 66.8004 127.083 63.7972C128.26 59.2564 128.958 54.5443 128.997 49.8443C128.988 47.7661 128.847 45.6879 128.756 43.6096C128.793 41.4593 128.693 39.303 128.224 37.1948L128.227 37.1798Z" fill="#F3F3F4"/>
<path d="M122.569 24.2359C120.914 20.9144 119.148 17.6289 117.023 14.5806C116.144 13.1571 114.911 11.8597 113.86 10.5443C112.094 8.39698 110.186 6.37882 108.134 4.50181C107.222 3.6519 106.19 2.95816 105.173 2.2434C105.089 2.08123 104.896 1.99714 104.712 2.00615C104.706 2.00615 104.703 2.00615 104.697 2.00615C104.685 2.00615 104.673 2.00615 104.658 2.00615C104.55 2.01215 104.439 2.05119 104.351 2.12327C103.415 2.55874 102.534 3.13836 101.845 3.91318C100.593 5.24961 99.6328 6.81729 98.6488 8.35193C97.096 10.6854 95.6606 13.094 94.4509 15.6257C92.3896 19.8332 91.1708 24.3741 90.1417 28.9269C89.2269 32.5368 88.5107 36.1887 88.0894 39.8887C87.972 40.7266 87.8817 41.5735 87.8516 42.4204C87.7463 42.1801 87.641 41.9398 87.5357 41.6966C81.8572 28.7407 76.1698 15.7879 70.4913 2.83203C70.4582 2.75695 70.4161 2.69688 70.371 2.65184C69.739 1.48359 68.0418 0.834893 66.2092 1.04211C63.6574 1.28537 61.0032 2.4326 59.4866 4.56188C58.7553 5.64003 58.7162 6.61607 59.1134 7.37889C58.4273 7.44796 57.7352 7.70324 57.0641 7.82937C55.3158 8.25583 53.8773 9.41807 52.451 10.4572C49.2281 12.8417 46.8508 16.1062 44.7624 19.4938C43.4112 21.497 42.3881 23.6893 41.377 25.8757C40.3779 28.071 39.4842 30.3144 38.6085 32.5608C37.7358 34.7682 36.9985 37.0236 35.8821 39.1288C33.4236 43.7117 30.0382 47.8081 26.1472 51.2678C24.9947 52.1898 23.7549 53.0037 22.4639 53.7335C22.0847 53.8296 21.6394 53.8986 21.2993 54.0878C19.9211 54.7095 18.3112 54.9738 16.7945 55.0188C14.67 55.0699 12.5575 54.5714 10.6918 53.5172C7.7698 51.9045 4.89899 49.577 4.09553 46.1864C4.42052 45.4806 3.36729 45.1683 3.19275 45.859C2.69021 46.1834 2.31707 47.4447 2.28096 47.8231C2.27494 47.8982 2.27795 47.9703 2.27795 48.0454C2.21475 48.664 2.21174 49.2887 2.25688 49.9074C2.39531 53.5352 3.88187 57.1031 6.24412 59.851C8.6816 62.8092 12.0128 64.8483 15.5848 66.1698C18.26 67.1338 21.0586 67.9146 23.9174 68.0107C24.8623 68.0317 25.8072 67.9597 26.7461 67.8546C26.8333 67.8456 26.9387 67.8365 27.05 67.8245C26.7069 69.1099 25.8343 70.6475 24.6757 72.1912C24.6125 72.2513 24.5553 72.3173 24.5132 72.3894C24.2725 72.6417 24.0197 72.8759 23.7609 73.1102C23.7729 73.1012 23.788 73.0862 23.803 73.0741C21.3776 75.3356 18.2149 76.9663 14.8596 77.1405C10.5323 77.1915 7.02351 76.1104 4.65223 72.2573C4.65223 71.8819 4.34228 71.7467 4.08349 71.8158C3.99923 71.7858 3.90895 71.7767 3.81567 71.8008C3.57794 71.8608 3.42747 72.1131 3.49368 72.3504C3.52076 72.4405 3.54484 72.5275 3.57192 72.6177C3.56891 72.6657 3.57192 72.7138 3.58095 72.7678C3.65919 73.0351 3.74344 73.2994 3.83372 73.5637C4.01428 74.2154 4.20687 74.8641 4.48372 75.4797C5.51288 77.7591 7.24319 79.6061 8.96146 81.387C13.8003 85.8678 20.3755 87.7658 26.8875 87.6397C37.5161 87.7899 47.5038 81.8465 53.2273 73.0381C57.1484 67.3921 58.8847 60.6438 62.1798 54.6614C64.2743 50.7092 66.4168 46.5648 70.1573 43.91C71.361 42.9279 72.7332 42.1981 74.1837 41.6545C74.2078 41.6545 74.2318 41.6545 74.2559 41.6515C76.9522 47.7991 79.6485 53.9497 82.3447 60.0973C82.2755 60.1543 82.2214 60.2264 82.1973 60.3195C82.1642 60.3615 82.1311 60.4006 82.098 60.4396C81.2223 61.3706 80.3346 62.2926 79.2873 63.0314C78.3154 63.8182 77.2621 64.548 76.0855 64.9895C74.9179 65.2958 73.7564 65.6202 72.7182 66.2508C70.3138 67.4281 68.3969 70.6415 69.9647 73.1072C68.2284 73.9631 66.1881 75.0773 65.7127 77.1165C65.4238 78.6571 66.4379 79.8734 67.8312 80.393C68.5233 80.6572 69.2696 80.6332 70.0008 80.6933C71.0541 80.7233 72.1133 80.6272 73.1455 80.411C73.1605 81.1257 73.6841 81.7955 74.1355 82.336C74.5418 82.8826 75.2068 83.0989 75.8026 83.3752C76.3925 83.6665 76.9763 83.6515 77.6232 83.7355C77.8038 83.7295 78.0957 83.7115 78.3876 83.6575C77.3765 85.9519 76.23 88.1923 74.9781 90.3576C73.2147 93.565 71.2437 96.6493 68.743 99.3462C67.5032 100.785 66.0828 102.172 64.5421 103.316C63.6754 103.86 62.8509 104.44 61.9391 104.929C61.8879 104.959 61.8428 104.998 61.8097 105.043C60.2449 104.139 58.5958 103.374 56.8234 102.971C56.1012 102.824 55.3729 102.725 54.6447 102.662C54.6357 102.638 54.6236 102.617 54.6086 102.593C53.4591 101.304 51.7498 100.602 50.1278 100.082C46.3211 99.0519 42.355 99.2141 38.452 99.6135C33.4928 100.265 28.35 101.662 23.4148 100.13C22.1359 99.7126 20.854 98.9558 19.4848 98.7276C18.5158 98.5834 17.2489 98.1119 16.5026 98.9768C16.3552 99.124 16.1596 99.3282 16.0723 99.5414C15.7684 99.4123 15.4644 99.2892 15.1575 99.178C13.6137 98.6465 11.9316 98.4122 10.3006 98.5384C8.69364 98.8897 8.16402 99.8237 7.52305 101.145C6.67745 100.767 5.80477 100.448 4.88696 100.226C1.27286 99.1811 0.391154 101.947 1.91082 104.743C3.46359 108.272 6.39458 110.809 9.65961 112.774C8.9073 113.215 10.2915 115.786 10.6557 116.344C12.7802 119.384 16.5297 121.519 20.7155 123C20.6403 123.321 20.9774 123.711 21.1639 123.976C22.6354 126.246 25.1692 127.282 27.709 127.943C30.0713 128.573 32.5238 128.943 34.9673 129.063C40.9376 129.135 46.9711 128.456 52.6767 126.657C57.7051 124.949 62.4838 122.45 66.7117 119.236C67.2745 118.81 67.8282 118.369 68.3728 117.915C70.1964 116.669 71.8124 115.176 73.0221 113.281C73.4013 112.99 73.6541 112.711 73.7052 112.458C73.7142 112.446 73.7203 112.434 73.7263 112.425C73.8707 112.389 74.0152 112.35 74.1415 112.338C76.4707 112.062 78.7637 111.563 81.0056 110.873C84.2496 109.776 87.3431 108.299 90.3704 106.71C93.6595 104.791 96.78 102.608 100.018 100.614C100.042 100.602 100.069 100.587 100.093 100.572C103.241 107.752 106.392 114.933 109.539 122.111C109.596 122.243 109.714 122.327 109.843 122.36C110.289 122.849 111.682 123.108 112.106 123.042H112.091C115.501 123.087 118.531 120.687 120.391 117.999C120.529 117.801 120.652 117.522 120.559 117.296C120.598 117.182 120.592 117.044 120.508 116.909C119.476 114.554 118.444 112.203 117.411 109.848C114.814 103.929 112.217 98.0068 109.62 92.0875C109.648 92.0634 109.672 92.0364 109.69 92.0034C110.132 91.5799 110.598 91.1835 111.008 90.727C113.876 87.931 116.253 84.6906 118.35 81.2939C121.654 76.1644 124.221 70.5244 125.765 64.6111C126.915 60.2294 127.354 55.7096 127.601 51.1987C127.733 44.7238 127.556 38.1198 125.684 31.8701C124.898 29.2273 123.716 26.7376 122.551 24.2449L122.569 24.2359ZM60.9521 4.23152C62.577 2.75094 64.7768 1.90704 67.0097 1.92206C66.9886 1.92206 66.9705 1.92206 66.9495 1.92206C69.7661 1.94908 70.6779 3.84411 68.5504 5.83224C66.9585 7.2918 64.7166 8.15372 62.5199 8.1327C61.4576 8.11468 60.6722 7.82937 60.2208 7.37288L60.1185 7.13563C60.0764 7.03953 60.0011 6.96745 59.9109 6.9224C59.5919 6.19863 59.8928 5.22859 60.9521 4.23152ZM70.8675 40.5193C70.1393 41.9338 68.9265 43.021 68.1291 44.3965C65.2944 46.9612 63.4076 50.4329 61.6321 53.7845C59.0984 58.3464 57.4102 63.2987 55.1653 67.9957C53.6757 70.8938 51.8612 73.6327 49.7938 76.1524C45.6742 80.6753 40.4291 84.2821 34.4317 85.8047C28.6419 87.2313 21.7206 87.1772 16.1746 84.8617C13.4573 83.7866 10.9807 82.1378 8.93438 80.0656C9.9515 80.7083 11.1131 81.1257 12.3198 81.2699C15.666 81.6903 18.594 79.6542 20.9533 77.5099C23.8632 74.7259 27.2035 71.5035 28.0581 67.4281C28.1423 67.305 28.1544 67.1428 28.0491 66.9296C27.9287 66.7614 27.7301 66.7133 27.5465 66.7674C27.4984 66.7764 27.4502 66.7944 27.4051 66.8214C25.8674 67.1458 24.2965 67.1638 22.7137 67.0287C15.4795 66.0706 7.78786 62.5599 4.60409 55.6195C4.28511 54.8657 3.97516 54.1089 3.70733 53.334C3.60803 53.0187 3.52678 52.6973 3.46359 52.373C3.7615 53.0517 4.12562 53.6974 4.63719 54.244C6.4006 56.1961 9.461 57.5716 12.0369 58.019C14.4323 58.2353 16.7283 57.3283 18.916 56.4634C20.2431 55.9108 21.5491 55.2891 22.807 54.5834C23.147 54.4933 23.4509 54.3731 23.5563 54.1479C24.6546 53.4932 25.7139 52.7784 26.713 51.9796C29.8997 49.1656 32.7284 45.9401 35.0215 42.3603C37.9284 38.1618 39.1682 33.0984 41.2446 28.4764C43.8205 22.2688 47.8077 14.92 53.3447 10.9227C53.6155 10.7215 53.8864 10.5172 54.1632 10.322C54.3859 10.31 54.6086 10.244 54.8313 10.2409C57.6208 10.3761 60.6752 11.7936 62.2189 14.1872C65.2282 21.0465 68.2374 27.9088 71.2437 34.7682C71.2557 34.8162 71.2677 34.8673 71.2828 34.9123C71.6409 36.7413 71.7161 38.8015 70.8615 40.5163L70.8675 40.5193ZM79.8501 52.1327C77.2682 46.2464 74.6862 40.3572 72.1043 34.4709C72.0953 34.4348 72.0892 34.3988 72.0802 34.3627C72.0592 34.3147 72.0321 34.2696 71.999 34.2306C69.074 27.5635 66.152 20.8993 63.227 14.2322C63.215 14.055 63.1097 13.8688 63.0044 13.7067C62.9983 13.6976 62.9923 13.6916 62.9863 13.6826C62.2671 12.0429 61.5479 10.4031 60.8287 8.76037C61.3523 8.94957 61.9451 9.04868 62.568 9.03366H62.562C65.2372 9.02465 68.0147 7.90745 69.7541 5.84725C70.0339 5.48987 70.2386 5.1475 70.383 4.81715C78.1529 22.5301 85.9197 40.243 93.6896 57.959C93.6745 58.007 93.6655 58.0611 93.6625 58.1211C92.7687 61.3436 90.6924 66.6413 87.4514 68.0317C87.313 68.1188 87.1114 68.1879 86.9308 68.272C84.5716 62.8902 82.2123 57.5085 79.8531 52.1297L79.8501 52.1327ZM98.8323 58.4605C98.3479 59.7789 98.0469 61.1634 97.6979 62.5209C96.762 65.437 96.2053 68.4822 94.8511 71.2482C94.2553 72.6807 93.5511 74.0172 92.7025 75.3265C91.8088 76.8912 90.909 78.4349 89.5007 79.6151C88.2579 80.7744 86.8435 81.7864 85.4683 82.8376C84.6558 82.9427 83.7741 83.1739 82.9947 82.7595C82.8232 82.6634 82.6727 82.6273 82.5463 82.6334C81.3306 81.1828 81.6225 78.9634 82.8021 77.1855C83.6929 75.8071 85.2547 74.9872 86.6419 74.1553C87.6861 73.3835 88.7364 72.5426 89.5428 71.5185C90.888 69.4583 91.6493 67.0827 92.7236 64.8784C93.9213 62.2416 94.8361 59.4275 96.6807 57.1421C97.0238 56.7727 97.3819 56.4574 97.7701 56.2261C97.7881 56.2381 97.8092 56.2501 97.8303 56.2592C97.9747 56.3162 98.1161 56.3733 98.2245 56.4874C98.7661 56.9469 98.8895 57.6316 98.8053 58.3073C98.8053 58.3584 98.8173 58.4095 98.8323 58.4545V58.4605ZM106.364 59.1302C106.404 59.0732 106.44 59.0161 106.473 58.959C106.641 58.6888 106.921 58.3464 107.27 58.2443C107.881 59.0191 108.36 59.9111 108.688 60.827C110.304 65.0225 109.771 69.6535 108.766 73.9391C108.39 75.5428 108.089 77.1975 107.595 78.7742C106.518 81.8886 104.887 84.7807 102.777 87.3184C101.547 88.5977 100.367 89.9402 98.7571 90.7721C97.8784 91.2105 96.9185 91.4448 95.9405 91.5139H95.9344C95.8532 91.4868 95.7629 91.4748 95.6787 91.4988C95.4289 91.3156 95.3868 90.9913 95.3777 90.703C95.3266 90.4687 95.4259 90.1324 95.5583 89.9161C95.6094 89.826 95.6275 89.739 95.6215 89.6549C99.2145 86.1141 101.869 81.7024 103.593 76.9813C104.785 73.9 105.889 70.7496 106.322 67.4551C106.81 64.7102 106.912 61.8541 106.358 59.1332L106.364 59.1302ZM105.796 64.2597C105.507 68.1609 104.616 71.9569 103.151 75.5908C101.432 80.5491 98.8384 85.2161 95.0738 88.9311C93.8821 90.1204 92.6273 91.2436 91.2461 92.2136C89.1998 93.4749 86.8526 94.3789 84.4422 94.5771C83.1662 94.6913 81.8783 94.0606 81.0357 93.1026C80.0186 91.3697 80.7438 89.1053 81.8121 87.5496C84.0329 84.5704 87.4544 82.7595 90.1477 80.2458C91.4717 79.1316 92.4588 77.609 93.2953 76.1014C94.0206 74.8791 94.815 73.6958 95.3356 72.3684C96.8703 69.4102 97.5203 66.1277 98.5134 62.9683C99.0881 60.746 99.5245 58.4155 100.815 56.4664C101.508 55.5054 102.726 54.1419 103.957 55.0939C105.411 57.8719 106.079 61.1063 105.793 64.2597H105.796ZM81.77 77.1375C82.5343 74.6388 83.1332 72.0891 83.5274 69.5003C83.6748 68.6594 83.8253 67.8485 83.9757 67.0287C84.0811 66.9566 84.1563 66.8425 84.1743 66.7103C84.1894 66.6172 84.2466 66.5422 84.2917 66.4641C84.4723 66.1577 84.7943 66.0226 85.0651 66.3349C85.0801 66.353 85.0952 66.365 85.1102 66.38C85.9588 68.314 86.8044 70.2451 87.653 72.1792C87.1926 72.5966 86.7202 73.0051 86.2146 73.3685C84.6739 74.2754 82.9586 75.2184 81.9836 76.7921C81.9084 76.9062 81.8362 77.0234 81.77 77.1405V77.1375ZM91.5229 65.3559C91.5229 65.3559 91.5289 65.3469 91.5319 65.3409C91.5319 65.3469 91.5289 65.3499 91.5259 65.3559H91.5229ZM70.3499 70.6866C70.5214 70.6235 70.6508 70.4553 70.6478 70.2631C70.6478 70.146 70.5997 70.0379 70.5214 69.9568C70.8555 68.9808 71.5596 68.0798 72.3811 67.5272C73.1064 67.0437 73.8707 66.6142 74.6922 66.3199C75.8809 66.0046 77.0635 65.6862 78.0957 64.9865C79.4829 64.1306 80.7709 63.0975 81.9114 61.9352C82.1341 62.3977 82.116 62.9113 82.0017 63.3978C81.9295 63.5149 81.8572 63.632 81.785 63.7462C81.5714 64.0495 81.3457 64.3438 81.1109 64.6291C81.0869 64.6561 81.0658 64.6832 81.0447 64.7102C80.2834 65.6262 79.4258 66.4611 78.5411 67.2599C76.2691 69.4853 73.6209 71.2782 70.7832 72.7017C70.371 72.0801 70.2536 71.3803 70.3469 70.6836L70.3499 70.6866ZM70.0701 79.7923C69.1282 79.7563 68.1381 79.7172 67.3647 79.1046C66.8441 78.8133 66.6666 78.2637 66.5733 77.6931C66.5523 76.9843 66.9134 76.4377 67.3858 75.9092C68.1351 75.0833 69.065 74.5787 70.0701 74.0532C71.4754 73.3955 72.9017 72.6387 74.2679 71.7858C76.6482 70.2932 78.7216 68.3951 80.7258 66.437C81.0869 66.0646 81.4209 65.6802 81.7399 65.2838C81.8392 65.2207 81.9385 65.1487 82.0318 65.0946C82.2605 64.9144 82.5584 64.8904 82.8322 64.8183C83.0218 64.7492 83.2475 64.7823 83.4521 64.8574C83.1271 66.8545 82.6908 68.8366 82.3628 70.8367C82.1281 72.1822 81.8332 73.5186 81.4901 74.843C81.4089 74.8671 81.3306 74.9151 81.2644 74.9992C79.6485 76.675 77.563 77.8853 75.3994 78.7202C73.7473 79.507 71.9147 79.8194 70.0731 79.7893L70.0701 79.7923ZM75.3633 82.1769C74.9149 81.9666 74.6531 81.5192 74.3703 81.1348C74.1747 80.8525 73.9911 80.5461 74.0904 80.1888C74.0904 80.1827 74.0904 80.1767 74.0934 80.1737C74.7615 79.9815 75.4175 79.7383 76.0464 79.4379C76.8679 79.1106 77.6744 78.7262 78.4538 78.2817C78.7096 78.2186 78.9894 77.9904 79.2482 77.9694C79.7989 77.8282 80.2864 78.2877 80.2894 78.8343C80.2413 78.9664 80.1721 79.1286 80.1329 79.2848C79.7417 80.393 79.3204 81.4891 78.8661 82.5733C78.7728 82.5733 78.6825 82.6003 78.6042 82.6574C77.5209 83.0568 76.3473 82.6934 75.3663 82.1799L75.3633 82.1769ZM17.3903 99.4093C19.4216 99.2802 21.2632 100.304 23.1199 100.977C24.3056 101.382 25.6326 101.59 26.8935 101.653C29.7703 101.878 32.6111 101.466 35.4397 100.98C38.2714 100.499 41.049 100.151 43.9438 100.226C47.1547 100.256 50.6183 100.62 53.2755 102.584C50.5852 102.506 47.8709 102.827 45.1897 103.004C41.7561 103.277 38.4008 103.551 34.9222 103.761C31.7414 103.917 28.5456 104.202 25.3829 103.503C22.3074 102.941 19.6984 101.211 16.9089 99.9138C17.0593 99.7366 17.2038 99.5174 17.3873 99.4153L17.3903 99.4093ZM9.09688 100.196C9.48507 99.7667 10.0538 99.4964 10.6226 99.4063C13.37 99.2351 15.9188 100.328 18.2991 101.575C23.9986 105.025 28.7743 105.127 35.2171 104.635C38.7499 104.422 42.3158 104.133 45.8577 103.848C48.7075 103.614 51.5662 103.383 54.4341 103.524C57.7502 103.722 60.7715 105.263 63.4437 107.158C63.8349 107.41 64.199 107.722 64.5631 108.029C63.2902 107.794 62.0023 107.614 60.7264 107.425C55.4452 106.74 50.0977 106.995 44.8195 107.566C39.2434 108.179 33.7275 108.999 28.0942 108.779C23.7699 108.695 19.3975 107.971 15.5005 106.019C13.1323 104.548 10.8663 102.797 8.36864 101.539C8.60938 101.088 8.77489 100.593 9.09688 100.196ZM61.3312 121.723C55.8785 124.985 49.7577 126.991 43.4413 127.703C37.7027 128.399 31.7685 128.48 26.2435 126.543C24.7539 126.024 23.2614 125.249 22.3014 123.958C22.178 123.807 22.0005 123.573 21.8591 123.375C26.6227 124.901 31.8016 125.63 35.7377 125.895C40.3869 126.072 45.0783 125.949 49.6674 125.108C51.6716 124.768 53.6095 124.135 55.5625 123.594C56.8625 123.234 58.1595 122.867 59.4143 122.375C60.3833 121.963 61.3764 121.549 62.3664 121.11C62.0233 121.318 61.6803 121.525 61.3312 121.723ZM67.8222 117.176C65.83 118.51 63.6574 119.591 61.4546 120.525C59.1194 121.645 56.6428 122.399 54.1452 123.06C50.6033 124.177 46.932 124.768 43.2246 124.949C36.9775 125.366 30.7032 124.798 24.6366 123.234C19.5299 121.837 11.4983 119.038 10.3517 113.17C11.3749 113.753 12.4191 114.287 13.4603 114.78C14.8505 115.272 16.1054 116.068 17.4776 116.603C18.5188 116.957 19.557 117.311 20.6012 117.663C26.725 119.243 33.0775 119.846 39.3879 120.038C48.6563 120.059 58.1414 119.366 66.9104 116.161C67.3166 116.014 68.8904 115.437 70.4221 114.735C69.5946 115.591 68.7279 116.404 67.8252 117.179L67.8222 117.176ZM72.4233 112.554C72.4233 112.554 72.4173 112.557 72.4173 112.56C72.321 112.59 72.2337 112.647 72.1765 112.729C69.8413 114.314 67.0247 115.143 64.3766 116.086C61.0303 117.056 57.678 117.909 54.1933 118.263C49.863 118.819 45.5478 119.152 41.1663 119.137C34.7597 119.143 28.341 118.483 22.0787 117.116C20.5651 116.774 19.1206 116.182 17.6491 115.702C16.316 115.119 15.0522 114.392 13.683 113.891C9.54826 111.864 5.18487 109.299 3.08141 105.016C2.51869 103.875 1.6099 102.428 2.44345 101.208C2.93697 100.791 3.75849 100.884 4.37238 101.016C8.23323 101.899 11.3899 104.434 14.6399 106.557C17.8688 108.338 21.5611 109.191 25.2144 109.524C36.7578 110.584 48.1628 106.818 59.7032 108.212C62.577 108.575 65.505 108.953 68.2555 109.897C69.8143 110.464 71.1383 111.488 72.5948 112.242C72.5346 112.341 72.4774 112.446 72.4203 112.548L72.4233 112.554ZM95.8171 101.92C95.5282 102.196 95.2544 102.485 94.9414 102.734C94.8662 102.776 94.809 102.836 94.7669 102.905C93.2562 103.884 91.7426 104.854 90.1958 105.773C87.5959 107.173 84.9297 108.455 82.1642 109.5C79.7598 110.398 77.2441 111.029 74.6953 111.341C74.4064 111.422 73.7804 111.425 73.3471 111.569C73.1906 111.5 72.983 111.467 72.7844 111.365C71.5055 110.533 70.1964 109.731 68.7881 109.143C68.2796 108.951 67.759 108.791 67.2384 108.641C67.0939 108.221 66.805 107.857 66.7509 107.401C66.468 105.752 66.5974 103.932 67.2444 102.355C67.3196 102.274 67.3708 102.178 67.3979 102.076C68.1171 101.385 68.8001 100.653 69.4471 99.9108C72.6941 96.4271 75.0323 92.2316 77.2922 88.0722C78.6644 85.3903 79.8832 82.6183 80.8943 79.7773C80.7047 81.6904 81.4721 83.5403 83.4973 84.4293C82.3658 85.4263 81.3396 86.5225 80.5663 87.8439C79.6725 89.5077 79.2362 91.628 80.145 93.3728C80.8521 94.5111 82.3146 95.3009 83.6447 95.4661C85.5917 95.5772 87.4965 94.9645 89.272 94.2318C90.6863 93.7092 91.9412 92.8863 93.1028 91.9403C93.4007 92.2406 94.0898 92.3968 94.4208 92.4509C95.0287 92.4809 95.6125 92.4659 96.1752 92.4028C96.2835 92.58 96.4851 92.7362 96.6326 92.8773C96.7138 92.9674 96.7891 93.0665 96.8613 93.1656C96.9726 93.4179 97.081 93.6672 97.1923 93.9194C97.4571 94.5952 97.7009 95.2739 97.9627 95.9556C98.5585 98.2471 97.4752 100.346 95.8171 101.917V101.92ZM119.722 117.323C119.707 117.359 119.692 117.399 119.686 117.441C117.914 120.071 114.863 122.432 111.519 122.12C111.167 122.038 110.89 121.933 110.559 121.756C110.493 121.708 110.418 121.669 110.34 121.642C110.261 121.438 110.138 121.231 110.078 121.056C108.817 118.182 107.556 115.308 106.295 112.434C103.551 106.17 100.8 99.9048 98.0529 93.6431C98.0229 93.562 97.9958 93.481 97.9657 93.4029C97.9807 93.3758 97.9928 93.3488 98.0018 93.3188C98.0259 93.1386 98.08 92.9734 98.1583 92.8082C98.3087 92.3457 98.7661 92.0875 99.1513 91.8322C99.1423 91.8382 99.1303 91.8442 99.1212 91.8502C100.165 91.2646 100.948 90.3426 101.977 89.7029C103.093 89.0692 104.27 88.4055 105.534 88.1172C105.727 88.1683 105.955 88.1833 106.133 88.2404C106.56 88.3935 106.975 88.7149 107.198 89.1173C107.255 89.3575 107.388 89.4897 107.532 89.5347C111.595 98.7996 115.66 108.062 119.719 117.326L119.722 117.323ZM124.754 64.9655C122.705 72.5035 118.91 79.51 114.204 85.7477C113.298 87.0631 112.196 88.2073 111.089 89.3545C111.041 89.3605 110.993 89.3726 110.948 89.3936C110.592 89.5437 110.147 89.6128 109.732 89.6188C109.1 89.6068 108.585 89.1533 108.167 88.7239C107.52 87.2463 106.87 85.7687 106.223 84.2911C106.193 84.2311 106.157 84.183 106.118 84.144C106.981 82.6604 107.704 81.0927 108.299 79.489C109.004 77.4768 109.356 75.3566 109.828 73.2784C110.644 69.6445 111.029 65.8274 110.06 62.1815C109.632 60.4847 108.949 58.8599 107.833 57.5055C107.827 57.4995 107.824 57.4935 107.818 57.4905C107.725 57.3764 107.634 57.2622 107.532 57.1541C107.011 56.6165 106.416 55.9979 105.699 55.7186C105.66 55.5474 105.597 55.3822 105.543 55.22C105.474 55.0849 105.347 54.9197 105.194 54.7666C105.191 54.7576 105.185 54.7515 105.179 54.7425C104.511 53.7395 103.247 53.5803 102.14 53.7575C101.875 53.7965 101.64 53.9287 101.426 54.0818C101.068 54.2891 100.725 54.5323 100.445 54.8446C100.403 54.8867 100.352 54.9287 100.304 54.9768C100.265 54.9828 100.223 54.9918 100.183 55.0068C97.9236 54.4422 96.2414 56.0129 95.0798 57.8058C94.7548 56.9409 94.4359 56.0339 94.0898 55.175C92.9944 51.8384 91.6974 48.5709 90.7104 45.1953C89.9069 42.8318 89.4435 40.3812 89.3773 37.8735C89.4104 37.7173 89.3863 37.5972 89.3292 37.5041C89.5097 36.2848 89.7113 35.0715 89.94 33.8612C91.0354 29.1852 91.9352 24.4612 93.6143 19.9443C95.5011 14.7608 98.4502 10.0457 101.628 5.55894C102.203 4.8652 102.774 4.14443 103.533 3.63088C103.831 3.43267 104.135 3.24347 104.454 3.07829C104.52 3.05427 104.592 3.02123 104.664 2.9882C104.797 3.08129 104.938 3.16839 105.043 3.25248C105.916 3.84111 106.753 4.47779 107.541 5.17754C109.678 7.14464 111.682 9.27392 113.511 11.5353C114.86 13.079 116.069 14.6857 117.192 16.4065C120.719 22.2898 124.185 28.4404 125.63 35.2066C126.397 39.1018 126.767 43.057 126.719 47.0303C126.863 53.0337 126.289 59.1332 124.757 64.9655H124.754Z" fill="black"/>
<path d="M65.6194 43.6036C65.3877 43.5796 65.171 43.7418 65.1289 43.967C63.7326 45.3455 62.5349 46.8981 61.5629 48.604C59.7243 51.3429 58.0752 54.205 56.697 57.2052C56.1252 58.4635 55.6528 59.7639 55.087 61.0222C54.9847 61.2445 55.1231 61.5208 55.3458 61.6049C56.044 61.7971 56.1042 60.7369 56.375 60.3015C56.9678 58.8659 57.5426 57.4274 58.2618 56.0489C59.2488 53.9647 60.4615 51.9946 61.6923 50.0425C62.908 48.1565 64.0546 46.2104 65.7157 44.6698C66.0677 44.3755 66.2001 43.6997 65.6194 43.6036Z" fill="black"/>
<path d="M53.6969 64.524C53.4501 64.524 53.2515 64.7492 53.2605 64.9895C53.2696 65.2418 53.4802 65.425 53.727 65.425C53.9737 65.425 54.1723 65.1997 54.1633 64.9595C54.1543 64.7072 53.9436 64.524 53.6969 64.524Z" fill="black"/>
<path d="M39.3907 37.5491C39.1018 38.8225 38.3917 39.9517 37.9403 41.168C37.0676 43.4294 35.6713 45.3965 34.0854 47.2435C33.5709 47.8622 33.0984 48.5229 32.5236 49.0875C32.0723 49.4959 31.5697 49.8443 31.0882 50.2197C30.8956 50.3699 30.8716 50.6672 31.025 50.8534C31.1845 51.0456 31.4674 51.0696 31.66 50.9164C32.0151 50.6401 32.3822 50.3819 32.7313 50.0966C33.6972 49.3157 34.3803 48.2646 35.1808 47.3306C36.3664 46.0092 37.2993 44.4715 38.184 42.8949C38.5963 42.057 38.8822 41.168 39.2794 40.3241C39.6465 39.4862 40.0889 38.6633 40.2694 37.7594C40.2905 37.6392 40.2815 37.5221 40.2153 37.417C40.0287 37.0836 39.4629 37.1677 39.3937 37.5461L39.3907 37.5491Z" fill="black"/>
<path d="M28.8437 52.1958C28.5969 52.1958 28.4013 52.4211 28.4074 52.6613C28.4164 52.9136 28.627 53.0968 28.8738 53.0968C29.1205 53.0968 29.3192 52.8715 29.3101 52.6313C29.3011 52.379 29.0905 52.1958 28.8437 52.1958Z" fill="black"/>
<path d="M76.898 23.2148C75.938 20.6441 74.942 18.0913 73.7804 15.6017C73.3832 14.7578 73.0883 13.8478 72.5406 13.085C72.1705 12.6255 71.4753 13.1841 71.8334 13.6436C73.8316 17.3916 75.1918 21.4579 76.8047 25.3831C76.898 25.6114 77.1748 25.7165 77.3945 25.6234C77.6232 25.5273 77.7285 25.26 77.6353 25.0318C77.3855 24.4281 77.1447 23.8215 76.898 23.2178V23.2148Z" fill="black"/>
<path d="M78.4299 27.7707C78.1831 27.7707 77.9785 27.9779 77.9785 28.2212C77.9785 28.4644 78.1862 28.6717 78.4299 28.6717C78.6736 28.6717 78.8813 28.4644 78.8813 28.2212C78.8813 27.9779 78.6736 27.7707 78.4299 27.7707Z" fill="black"/>
<path d="M104.881 102.782C103.885 100.466 102.919 98.1299 101.856 95.8445C101.55 95.3399 100.788 95.7994 101.08 96.307C102.395 99.154 103.554 102.073 104.833 104.935C104.935 105.16 105.2 105.272 105.422 105.175C105.642 105.082 105.765 104.806 105.663 104.584C105.383 103.992 105.137 103.386 104.878 102.782H104.881Z" fill="black"/>
<path d="M106.789 108.59C106.789 108.836 106.996 109.041 107.24 109.041C107.484 109.041 107.691 108.833 107.691 108.59C107.691 108.347 107.484 108.14 107.24 108.14C106.996 108.14 106.789 108.347 106.789 108.59Z" fill="black"/>
<path d="M91.3244 102.175C89.7536 103.602 87.7615 104.539 85.8597 105.464C85.5497 105.557 85.1976 105.767 85.333 106.142C85.655 106.806 86.4194 106.142 86.8798 105.977C88.4837 105.221 89.9823 104.341 91.4418 103.304C91.7758 103.034 92.4228 102.557 91.9624 102.118C91.7728 101.962 91.4839 101.986 91.3274 102.175H91.3244Z" fill="black"/>
<path d="M82.7842 106.395C82.5374 106.395 82.3268 106.575 82.3148 106.827C82.3057 107.064 82.5013 107.296 82.7481 107.296C82.9948 107.296 83.2055 107.116 83.2175 106.863C83.2266 106.626 83.031 106.395 82.7842 106.395Z" fill="black"/>
<path d="M54.9395 115.849C52.2944 116.416 49.5951 116.657 46.8988 116.852C45.9569 116.855 45.015 116.897 44.0731 116.909C43.8264 116.909 43.6187 117.11 43.6157 117.356C43.6157 117.603 43.8173 117.807 44.0641 117.81C46.9349 117.753 49.8298 117.66 52.6585 117.149C53.2663 116.933 56.074 117.014 55.6948 116.029C55.5654 115.714 55.1983 115.705 54.9365 115.852L54.9395 115.849Z" fill="black"/>
<path d="M40.6006 117.498C40.8414 118.077 41.9728 117.621 41.7231 117.038C41.4854 116.462 40.3509 116.915 40.6006 117.498Z" fill="black"/>
<path d="M21.9526 106.956C23.4873 107.263 25.0581 107.323 26.5928 107.62C27.0563 107.761 27.9169 107.548 27.622 106.914C27.5016 106.704 27.2037 106.617 26.9961 106.755C24.9528 106.398 22.8885 106.35 20.8783 105.782C20.6436 105.71 20.3878 105.863 20.3216 106.094C20.1681 106.836 21.4681 106.803 21.9556 106.953L21.9526 106.956Z" fill="black"/>
<path d="M18.5972 105.542C18.844 105.542 19.0516 105.344 19.0546 105.097C19.0546 104.854 18.853 104.641 18.6093 104.641C18.3655 104.641 18.1549 104.839 18.1519 105.085C18.1519 105.329 18.3535 105.542 18.5972 105.542Z" fill="black"/>
<path d="M31.0464 122.564C29.0814 122.168 27.1524 121.582 25.1964 121.132C24.8744 120.999 24.4471 120.72 24.2034 121.129C24.086 121.333 24.1462 121.633 24.3659 121.744C25.1483 122.15 26.036 122.249 26.8816 122.468C28.2358 122.768 29.5478 123.243 30.923 123.456C31.5038 123.537 31.6302 122.657 31.0524 122.564H31.0464Z" fill="black"/>
<path d="M33.0175 122.705C32.7707 122.705 32.5631 122.903 32.5601 123.15C32.5601 123.393 32.7617 123.606 33.0054 123.606C33.2492 123.606 33.4598 123.408 33.4628 123.162C33.4628 122.918 33.2612 122.705 33.0175 122.705Z" fill="black"/>
<path d="M99.699 63.8333C99.4552 63.8603 99.2717 64.0855 99.2988 64.3318C99.0941 66.4641 98.5194 68.4942 97.7791 70.5154C97.6286 71.0049 97.4752 71.4884 97.2976 71.966C97.1592 72.2332 97.1321 72.5936 97.4541 72.7378C98.1944 73.0351 98.3057 71.6026 98.5344 71.1341C98.7962 70.179 99.2175 69.2781 99.4703 68.317C99.7471 67.1788 99.9668 66.0316 100.168 64.8784C100.247 64.4789 100.28 63.7942 99.702 63.8333H99.699Z" fill="black"/>
<path d="M96.1479 74.837C96.3766 75.5037 97.2854 75.0893 96.9785 74.4676C96.7528 73.8039 95.841 74.2124 96.1479 74.837Z" fill="black"/>
<path d="M78.0566 71.6957C78.4538 71.3263 79.0497 71.116 79.2633 70.5875C79.4078 70.2841 79.3355 69.8637 78.9564 69.8036C78.6705 69.7556 78.4508 69.9838 78.4237 70.2541C78.2883 70.4553 78.0325 70.5544 77.852 70.7106C77.3404 71.092 76.886 71.5365 76.3895 71.9419C76.0675 72.2873 75.1587 72.5155 75.5258 73.1192C76.0284 73.8339 77.5571 72.017 78.0566 71.6957Z" fill="black"/>
<path d="M73.9489 73.7829C73.7022 73.7829 73.4915 73.9751 73.4855 74.2214C73.4795 74.4616 73.6811 74.6839 73.9248 74.6839C74.1686 74.6839 74.3822 74.4917 74.3883 74.2454C74.3943 74.0051 74.1927 73.7829 73.9489 73.7829Z" fill="black"/>
<path d="M123.656 47.8261C123.767 49.9074 123.917 51.9886 123.746 54.0698C123.445 55.8928 123.234 57.7337 122.795 59.5326C122.47 60.6919 122.509 61.9082 122.25 63.0794C122.121 63.587 121.964 64.0855 121.82 64.5871C121.751 64.8243 121.874 65.0766 122.115 65.1517C122.343 65.2237 122.614 65.0946 122.681 64.8573C123.057 63.7101 123.331 62.5419 123.388 61.3346C123.824 58.7969 124.429 56.2772 124.679 53.7094C124.793 51.7063 124.667 49.7122 124.549 47.715C124.423 47.1925 123.659 47.3006 123.656 47.8261Z" fill="black"/>
<path d="M121.161 67.4431C120.914 67.4431 120.701 67.6203 120.692 67.8756C120.683 68.1128 120.878 68.3441 121.125 68.3441C121.372 68.3441 121.585 68.1669 121.594 67.9116C121.604 67.6744 121.408 67.4431 121.161 67.4431Z" fill="black"/>
<path d="M100.174 11.5203C99.5365 11.1779 99.2055 12.2891 98.9316 12.6976C98.5254 13.5685 98.0228 14.3884 97.6377 15.2683C97.0448 16.5357 96.5272 17.8391 96.0187 19.1395C95.9314 19.3707 96.0879 19.635 96.3136 19.7041C96.8252 19.8542 96.9395 19.2326 97.084 18.8812C97.9867 16.6017 99.0159 14.2412 100.313 12.139C100.445 11.9318 100.379 11.6464 100.174 11.5173V11.5203Z" fill="black"/>
<path d="M96.0881 21.6381C96.0972 21.4009 95.9016 21.1696 95.6548 21.1696C95.408 21.1696 95.1944 21.3468 95.1854 21.6021C95.1763 21.8393 95.3719 22.0706 95.6187 22.0706C95.8654 22.0706 96.0791 21.8934 96.0881 21.6381Z" fill="black"/>
<path d="M110.972 23.1998C107.334 21.8183 103.903 24.3681 102.814 27.8248C101.114 32.9542 103.033 39.7235 108.125 42.1591C111.679 43.7928 115.314 41.5494 116.557 38.0837C117.345 36.0626 117.478 33.8252 117.123 31.6959C116.527 28.1641 114.463 24.5272 110.972 23.1998ZM115.714 37.7534C114.935 39.8406 113.108 41.7416 110.746 41.7927C104.905 41.6305 102.134 33.9483 103.41 28.984C105.314 21.6441 112.489 22.446 115.29 28.7527C116.545 31.5517 116.822 34.8643 115.714 37.7534Z" fill="black"/>
<path d="M106.804 29.4885C105.504 31.1313 106.112 33.7621 107.996 34.6811C108.483 34.9484 109.019 35.0745 109.554 35.0745C109.976 35.0745 110.4 34.9964 110.794 34.8523C110.761 34.7982 110.731 34.7411 110.704 34.6841C110.499 34.2486 110.587 33.7681 110.782 33.3477C110.918 33.0563 111.146 32.8071 111.411 32.6299C111.556 32.5338 111.721 32.4797 111.89 32.4407C112.112 32.3866 112.335 32.4407 112.552 32.5008C112.681 32.5368 112.807 32.6239 112.916 32.72C112.922 32.702 112.928 32.6839 112.934 32.6659C114.098 28.9179 109.208 26.3802 106.81 29.4915L106.804 29.4885Z" fill="black"/>
<path d="M55.6496 21.2627C55.6587 21.0225 55.4601 20.7972 55.2133 20.7972C54.9666 20.7972 54.7559 20.9804 54.7469 21.2327C54.7379 21.473 54.9365 21.6982 55.1832 21.6982C55.43 21.6982 55.6406 21.515 55.6496 21.2627Z" fill="black"/>
<path d="M32.662 78.3748C32.4153 78.3748 32.2046 78.558 32.1956 78.8103C32.1866 79.0505 32.3852 79.2758 32.6319 79.2758C32.8787 79.2758 33.0894 79.0926 33.0984 78.8403C33.1074 78.6 32.9088 78.3748 32.662 78.3748Z" fill="black"/>
<path d="M45.2768 51.7904C45.03 51.7904 44.8194 51.9736 44.8104 52.2258C44.8013 52.4661 44.9999 52.6913 45.2467 52.6913C45.4935 52.6913 45.7041 52.5081 45.7131 52.2559C45.7222 52.0156 45.5235 51.7904 45.2768 51.7904Z" fill="black"/>
<path d="M30.2035 59.833C29.9568 59.833 29.7461 60.0162 29.7371 60.2684C29.7281 60.5087 29.9267 60.7339 30.1735 60.7339C30.4202 60.7339 30.6309 60.5507 30.6399 60.2985C30.6489 60.0582 30.4503 59.833 30.2035 59.833Z" fill="black"/>
<path d="M81.3305 38.372C81.0837 38.372 80.8731 38.5552 80.8641 38.8075C80.855 39.0477 81.0537 39.273 81.3004 39.273C81.5472 39.273 81.7578 39.0898 81.7668 38.8375C81.7759 38.5973 81.5773 38.372 81.3305 38.372Z" fill="black"/>
<path d="M103.831 14.0851C104.077 14.0851 104.288 13.9019 104.297 13.6496C104.306 13.4093 104.108 13.1841 103.861 13.1841C103.614 13.1841 103.403 13.3673 103.394 13.6196C103.385 13.8598 103.584 14.0851 103.831 14.0851Z" fill="black"/>
<path d="M96.1811 39.9217C95.9343 39.9217 95.7237 40.1049 95.7147 40.3572C95.7056 40.5974 95.9042 40.8226 96.151 40.8226C96.3977 40.8226 96.6084 40.6395 96.6174 40.3872C96.6265 40.1469 96.4278 39.9217 96.1811 39.9217Z" fill="black"/>
<path d="M114.971 51.2348C114.724 51.2348 114.514 51.418 114.505 51.6703C114.496 51.9105 114.694 52.1358 114.941 52.1358C115.188 52.1358 115.398 51.9526 115.407 51.7003C115.416 51.46 115.218 51.2348 114.971 51.2348Z" fill="black"/>
<path d="M114.532 71.6536C114.285 71.6536 114.074 71.8368 114.065 72.0891C114.056 72.3293 114.255 72.5546 114.502 72.5546C114.748 72.5546 114.959 72.3714 114.968 72.1191C114.977 71.8789 114.778 71.6536 114.532 71.6536Z" fill="black"/>
<path d="M77.4067 101.103C77.1599 101.103 76.9493 101.286 76.9402 101.539C76.9312 101.779 77.1298 102.004 77.3766 102.004C77.6233 102.004 77.834 101.821 77.843 101.569C77.852 101.328 77.6534 101.103 77.4067 101.103Z" fill="black"/>
<path d="M56.08 110.167C55.8333 110.167 55.6226 110.35 55.6136 110.602C55.6045 110.843 55.8032 111.068 56.0499 111.068C56.2967 111.068 56.5073 110.885 56.5163 110.632C56.5254 110.392 56.3268 110.167 56.08 110.167Z" fill="black"/>
<path d="M30.2851 113.852C30.0383 113.852 29.8277 114.035 29.8187 114.287C29.8096 114.527 30.0082 114.753 30.255 114.753C30.5018 114.753 30.7124 114.57 30.7214 114.317C30.7305 114.077 30.5318 113.852 30.2851 113.852Z" fill="black"/>
<path d="M35.1627 107.509C35.4095 107.509 35.6201 107.326 35.6291 107.073C35.6382 106.833 35.4396 106.608 35.1928 106.608C34.946 106.608 34.7354 106.791 34.7264 107.043C34.7173 107.284 34.916 107.509 35.1627 107.509Z" fill="black"/>
<path d="M40.7662 101.905C41.013 101.905 41.2236 101.722 41.2327 101.469C41.2417 101.229 41.0431 101.004 40.7963 101.004C40.5496 101.004 40.3389 101.187 40.3299 101.439C40.3209 101.68 40.5195 101.905 40.7662 101.905Z" fill="black"/>
<path d="M40.7363 122.023C40.4895 122.023 40.2789 122.207 40.2698 122.459C40.2608 122.699 40.4594 122.924 40.7062 122.924C40.9529 122.924 41.1636 122.741 41.1726 122.489C41.1816 122.249 40.983 122.023 40.7363 122.023Z" fill="black"/>
<path d="M12.329 108.212C12.0823 108.212 11.8716 108.395 11.8626 108.647C11.8536 108.887 12.0522 109.113 12.2989 109.113C12.5457 109.113 12.7563 108.929 12.7654 108.677C12.7744 108.437 12.5758 108.212 12.329 108.212Z" fill="black"/>
</g>
<defs>
<clipPath id="clip0_9218_4035">
<rect width="129" height="130" fill="white"/>
</clipPath>
</defs>
</svg>
