<svg xmlns="http://www.w3.org/2000/svg" width="150" height="214" fill="none"><g clip-path="url(#a)"><path fill="#F3F3F4" d="M149.713 121.147c.479 1.899.331 3.955-.237 5.816-.172.692-.236 1.45-.689 2.028-.598.861-1.212 1.664-1.719 2.557-.544.827-1.527 1.245-1.983 2.138-.385.651-1.08 1-1.661 1.433-.5.432-.963.906-1.483 1.314-.469.803-1.209 1.336-1.949 1.859-.567.515-1.219.889-1.922 1.169-.996.623-2.31 1.239-3.448.661-1.584-.958-1.922-3.066-1.554-4.778.24-1.308.932-2.481 1.453-3.689.466-1.138 1.394-2.038 1.746-3.228-.544-.104-.963.401-1.388.671-1.351.91-2.496 2.118-3.942 2.889-1.27.696-2.803.921-4.185.457-.348-.145-.736-.208-1.023-.474-.351-.315-.568-.765-.699-1.215-.284-1.612.172-3.273.959-4.667.544-1.211 1.121-2.416 1.868-3.488.341-.485.52-1.069.891-1.533.639-.875 1.591-1.803-.03-2.208-2.067-1.131-3.932-3.647-3.408-6.148.476-1.782 1.696-3.222 3.236-4.132 1.243-.975 2.732-1.564 4.249-1.889.06-.986-.331-2.069-.497-3.021-.422-2.176-1.402-4.169-2.702-5.934-2.58-2.94-6.086-4.796-9.21-7.055-2.544-1.699-4.685-3.945-6.62-6.329a11.96 11.96 0 0 1-.369 2.122c-.547 2-1.955 3.837-3.806 4.72-1.267.508-2.635.996-4.013.774-1.07-.104-2.026-.588-2.938-1.138a8.494 8.494 0 0 1-1.756-1.055c-1.274-.762-2.267-1.942-3.182-3.1a10.26 10.26 0 0 1-.824-1.022v.025c-.102 1.325-.125 2.65.155 3.955.618 7.08 2.425 14.2 5.992 20.342.892 1.955 2.172 3.723 3.472 5.398 1.084 1.363 2.094 2.788 3.232 4.103 1.368 1.568 2.574 3.26 3.726 4.993.192-.069.395-.121.557-.18.649-.346 1.267-.754 1.996-.903 1.385-.45 2.82.076 4.043.755 1.213.671 2.017 1.878 2.638 3.1.942 1.848.949 3.986 1.138 6.017.132 2.675 1.973 4.308 3.385 6.329a25.916 25.916 0 0 1 2.536 3.948c1.436 2.436 2.526 5.245 2.223 8.138 0 1.654-.7 3.156-1.551 4.529-.918 1.876-2.435 3.426-4.228 4.429-1.105.741-2.382 1.152-3.425 2-.645.602-.96 1.526-1.763 1.972-1.216.8-2.594-.058-3.901.101-.774.055-1.466.425-2.189.671-.588.159-1.186.266-1.76.471-.861.159-1.716.612-2.597.429-4.094-.914-5.367-7.668-5.837-11.318-.246-.852-1.013-1.492-1.296-2.353-.328-.883-.392-1.851-.375-2.786.033-.861.378-1.671.57-2.505.284-.955 1-1.688 1.598-2.429a47.244 47.244 0 0 0 2.425-3.851c.358-.889.307-1.042-.392-1.657-.378-.419-.685-.9-.996-1.374-.78-1.512-1.382-3.187-1.199-4.91.111-.536.371-.997.473-1.443.206-.858.743-1.56 1.124-2.342.345-.654.939-1.094 1.409-1.644.257-.294.52-.612.81-.893-.476-.778-1.03-1.519-1.53-2.256-1.06-1.456-2.026-2.903-3.11-4.308-1.074-1.377-2.034-2.861-3.033-4.29-1.422-1.924-2.891-3.827-4.178-5.841-1.932-3.273-3.523-6.851-4.367-10.581-.652-2.875-1.193-5.903-1.105-8.847a9.771 9.771 0 0 1-.024-.544c-.054.08-.108.16-.165.239-.838 1.128-1.689 2.343-2.932 3.028-1.58.74-3.56 1.467-5.232.65-1.303-.536-1.867-1.228-2.249-2.422-.375 2.2-.76 4.343-1.142 6.557-.277 1.093-.516 2.211-.584 3.336-.304 4.705-.186 9.463 1.057 14.027 1.152 4.339 2.99 8.47 4.867 12.515 1.635 3.218 3.24 6.37 4.384 9.789 1.537-.931 3.51-.844 5.202-.464 3.627 1.409 5.269 5.208 3.965 8.931-.466 1.36-1.165 2.554-1.956 3.713.389 1.626.804 3.249 1.088 4.899.152.862.483 1.668.763 2.492.2.546.27 1.155.588 1.65.368.516.75 1.024 1.199 1.471.672.581 1.503.906 2.239 1.384 1.162.789 1.909 2.038 2.716 3.173.962 1.463 1.969 2.955 2.364 4.702.179.647.784 3.072.672 4.515.024 0 .044.004.068.007 1.374.232 2.834.326 4.103.966.727.456.622 1.467.855 2.207.405 1.609.784 3.232.98 4.882.097 2.16.013 4.274.168 6.374-.03 1.273.152 2.522.152 3.792-.084 1.474.068 2.755.088 4.187-.138 2.609.024 5.232-.277 7.834-.148 2.201.267 4.439.004 6.623-.163.55-.902.633-1.308.792-1.013.377-2.04.733-3.107.903-.989.132-1.969.301-2.952.46a5.277 5.277 0 0 1-.533.021c-.244 0-.487-.01-.73-.021-.365-.017-.726-.034-1.088-.014-.162-.017-.327-.024-.493-.038h-.03c-.297-.024-.595-.065-.892-.097-.338-.038-.679-.055-1.02-.072h.017H102.299c-.308-.021-.615-.049-.922-.062-.308-.014-.615-.004-.922 0-.48 0-.956 0-1.436.024-.473.024-.946.052-1.422.069-.47.017-.935.01-1.405.01h-2.509c-.308.004-.615.011-.922.014H92.342c-.206 0-.409.007-.611.011a37.539 37.539 0 0 1-2.149-.032c-.476-.017-.949-.031-1.422-.041-.47-.01-.939-.024-1.408-.024-.922.003-1.84.017-2.763.007h-.044c-.54-.018-1.074-.08-1.607-.108a39.687 39.687 0 0 1-1.585-.117c-.226-.021-.452-.045-.682-.056-.23-.01-.452-.014-.679-.02-.47-.014-.939-.011-1.405-.021-.462-.011-.922-.052-1.381-.063-.446-.01-.892-.013-1.338-.024a13.75 13.75 0 0 1-.635-.034c-.21-.018-.422-.031-.628-.056-.294-.041-.584-.1-.878-.142-.267-.038-.537-.065-.807-.093-.524-.055-1.047-.114-1.574-.131-.139-.007-.277-.007-.419-.011h-.03c-.24-.007-.48-.024-.716-.017-.237.007-.48.017-.716.034a20.268 20.268 0 0 0-.656-.193c-.577.059-1.273.346-1.746-.146-.844-1.598-.574-3.609-.412-5.363.192-1.917.409-3.834.355-5.761 0-2.107-.007-4.246-.227-6.335-.29-1.969-.415-3.893-.243-5.834.152-2.889.101-5.796.385-8.668.098-.938.324-1.865.277-2.81-.023-.529-.216-1.121.034-1.619.243-.425.797-.391 1.196-.498 1.401-.267 2.803-.568 4.221-.699-.523-4.388.294-8.249 3.628-11.259.013-.011.024-.021.04-.032-.401-1.75-.06-3.083 1.172-4.775 1.473-1.633 3.334-2.778 5.114-3.986.487-.297 1.06-.512 1.419-.986-.22-.73-.747-1.27-1.28-1.754-.683-.668-1.297-1.419-1.75-2.27-.554-1.28-.882-2.758-.71-4.159.349-1.595 1.183-3.187 2.527-4.118.406-.252.875-.37 1.304-.57.456-.256.864-.582 1.283-.89-3.09-5.951-6.133-11.958-8.43-18.29-.888-2.218-1.463-4.612-1.861-6.962-.294-1.367-.56-2.744-.675-4.142-.301-4.826-.132-9.771.868-14.501.662-3.443 1.313-6.924 2.526-10.214.419-1.377.723-2.907.817-4.326 0-.017.007-.034.01-.051-.29.522-.577 1.045-.962 1.501-.537.793-.834 1.716-1.304 2.547-1.48 2.38-3.215 4.63-5.245 6.54-.764.716-1.486 1.557-2.496 1.903-1.32.322-2.73.332-4.077.249-.915-.062-1.787-.125-2.54-.492 0 .215-.01.426-.034.64.054 1.454.395 2.866.524 4.308.257 1.312.72 2.571 1.08 3.855.224.875.447 1.744.798 2.578.996 2.668 2.033 5.315 3.056 7.976 1.277 3.107 2.679 6.259 3.523 9.515 1 4.176.987 8.643.054 12.834-.439 2.083-1.455 3.965-2.266 5.906-.497 1.128-1.121 2.18-1.777 3.214.135.308.237.654.348.897.56 1.225 1.22 2.491 1.128 3.885-.169 2.153-1.253 3.917-2.475 5.599-.757 1.304.131 2.695.881 3.764.71.776 1.175 1.717 1.635 2.661.513.969.946 2.014.976 3.132.115 2.508-.564 5.245-2.216 7.145-1.11.92-2.425 1.841-3.921 1.761-.145 2.602-2.736 6.869-5.627 6.36-1.121-.222-2.273-.491-3.3-1.01-.628-.409-1.044-1.052-1.624-1.523-.453-.311-1-.439-1.45-.772-.905-.166-1.962-.103-2.63-.896-.257-.245-.406-.605-.71-.799-.405-.218-.871-.228-1.3-.36-1.017-.315-2.05-1.086-2.388-2.152-.993-.01-1.905-.661-2.564-1.363-1.607-1.111-2.104-2.91-1.712-4.81.034-2.135.851-4.104 2.013-5.844 1.287-2.37 3.178-4.277 5.195-6 .692-.865 1.459-1.737 2.134-2.657.186-.36.365-.73.537-1.097.375-.851 1.037-1.609.997-2.592-.16-1.339-.122-2.747.375-4.01.452-.997.79-2.045 1.3-3.014 1.462-3.107 4.8-3.889 7.677-2.304.973.512 1.746 1.321 2.422 2.186.32-.553.652-1.1 1-1.643.54-.924.905-2.049 1.158-3.052 1.094-4.495.99-9.207-.037-13.702-.598-3.869-1.956-7.543-3.344-11.173-1.439-3.855-2.661-7.785-3.594-11.782-.253-1.2-.327-2.422-.668-3.598-.379-2.187-.436-4.498-.244-6.685.321-1.675.551-3.409 1.213-4.983.236-.879.601-1.692 1.027-2.48-.605.234-1.21.463-1.81.705-1.065.346-2.135.703-3.233.91a3.558 3.558 0 0 0-.23.47c-.753 2.087-1.023 4.333-1.185 6.544-.068 1.204-.247 2.415-.115 3.62.186 1.563.473 3.103 1.023 4.58.514 1.935.946 3.893 1.23 5.876.182 1.342.3 2.571.344 3.906.365 2.083.416 4.232.247 6.339-.085 3.246-1.375 6.273-3.05 8.979-.922 1.453-1.966 2.82-3.04 4.159-.246.253-.621.737-1.04 1.156.027.592.02 1.194.142 1.772.429 1.349.783 2.723.902 4.145.337 2.875-.29 5.799-3.645 5.861a36.585 36.585 0 0 1-4.711-.723c-1.351-.841-2.06.44-2.5 1.592-.26 1.937.321 4.007-.54 5.858-.213.515-.52.989-.95 1.339-.401.432-1.023.778-1.043 1.439.74 2.789 1.493 5.945.233 8.713-.155.349-.361.664-.395 1.045-.06.422.169.83.192 1.256.436 2.052.686 4.232-.597 6.041-.598.928-1.554 1.509-2.243 2.353-.223.27-.46.699-.75.934-.04.488-.07.973-.074 1.457.892.228 1.84.197 2.736.433 1.685-.063 1.88.889 1.74 2.377.421.297.928.384 1.421.477 1.54.526.54 3.71.598 4.99 0 1.059-.115 2.207-.72 3.097-.29.308-.743.276-1.124.256-.76-.042-1.52-.076-2.28-.115-1.01-.045-2.023 0-3.033.042-1.179.052-2.358.1-3.53.014-.297-.017-.614 0-.942.017-.946.052-1.952.104-2.57-.685-.43-.785-.125-1.723-.227-2.578-.006-1.643.04-3.29-.21-4.92-.077-1.194.133-2.377.177-3.571.1-.803.033-1.612.006-2.422a.745.745 0 0 1-.24-.166c-1.256-1.218-2.37-2.606-3.998-3.284-.565.249-1.142.502-1.764.526-.405.024-.766-.093-1.141-.225a1.711 1.711 0 0 0-.774.353c-.959.779-1.911 1.581-3.002 2.163.064 1.283.608 2.46.817 3.702-.101 1.111-1.273 1.574-2.148 1.941-.007.194.165.305.22.481.293 1.052-1.102 1.076-1.73 1.419-1.22.654-2.445 1.256-3.762 1.671-.267.114-.497.343-.804.315-.615-.038-.946-.661-1.365-1.045-1.141-1.228-1.324-3.041-2.401-4.332-.777-1.509-2.452-3.315-1.365-5.066.868-.785 1.834-1.463 2.685-2.277 1.865-1.397 3.891-2.66 5.668-4.131.385-.297.905-.491 1.088-.986.08-.678.29-1.332.374-2.01.058-.409.24-.772.44-1.128.34-.692.56-1.443.996-2.08.456-.644 1.047-1.183 1.645-1.682a.644.644 0 0 0 .284-.536c.077-1.163.56-2.249 1.175-3.214.317-.554.736-1.014 1.199-1.426a4.496 4.496 0 0 1-.007-2.827c-.98-.481-1.466-1.477-1.76-2.495-.412-.92-.273-1.934-.199-2.91.159-.91.747-1.671 1.21-2.439l.03-.045c-.42.024-.838.035-1.257.014-.473-.045-.881-.267-1.273-.526-.696-.481-1.496-.914-1.939-1.675-.402-.702-.31-1.564-.25-2.342.061-.312.257-.568.443-.813.412-.558.827-1.132 1.435-1.471 1.013-.606 2.01-.796 3.06-1.176 1.162-.274 2.395-.201 3.58-.167.538.073 1.061.243 1.608.232 1.601-.152 3.199-.311 4.79-.536 1.31-.322 2.624-.585 3.975-.647.354-.073.699-.149 1.037-.232.327-.142.658-.273 1.013-.325a2 2 0 0 0 .247-.014c.526-.152 1.05-.315 1.574-.495l.195-.083c.338-.131.683-.252 1.024-.38a3.49 3.49 0 0 1 .132-.353c.155-.692.27-1.388.459-2.07a5.456 5.456 0 0 1 2.108-3.633c1.81-1.612 4.981-3.045 7.113-1.297.982.685 1.888 1.512 2.401 2.612.04-.052.084-.1.122-.149 1.834-2.449 3.03-5.29 3.576-8.307.399-3.059.017-6.194-.621-9.187a46.238 46.238 0 0 1-1.152-4.986c-.446-1.948-.577-3.952-.848-5.927-.405-3.415-.253-7.087 1.156-10.25-.075 0-.149-.003-.223-.003-.916.045-1.828.166-2.743.139-1.6-.142-3.226-.267-4.796-.64-1.023-.37-2.013-.845-3.02-1.267a4.546 4.546 0 0 1-1.702-1.73c-.75-1.16-1.395-2.384-1.773-3.723-.368-1.581-.412-3.374.564-4.744 1-1.681 2.594-2.72 4.306-3.536 1.088-.478 2.165-.976 3.25-1.457 1.172-.443 2.512-.733 3.684-1.131 1.28-.367 2.375-1.163 3.554-1.768a13.838 13.838 0 0 0 4.3-2.917c1.364-1.367 2.495-2.997 3.539-4.627.73-1.45 1.104-2.937 1.638-4.446 1.28-3.297 1.75-6.83 2.233-10.321.09-1.246.435-2.443.597-3.675.098-.824.17-1.654.331-2.47.602-3.094.906-6.243 1.43-9.346.073-1.554.296-3.087.54-4.623.054-1.242.415-2.408.814-3.571.334-1.557 1.31-2.83 1.89-4.287.977-1.775 1.686-3.716 2.787-5.415 1.287-1.537 2.601-3.139 4.175-4.367.794-.422 1.638-.74 2.435-1.152 2.182-.955 4.492-2.267 6.938-1.8.804.194 1.621.201 2.438.257 1.348.249 2.689.557 4.016.906 1.425.197 2.908.402 4.016 1.43 4.556 3.428 6.742 9.079 8.16 14.497.091.298.183.595.27.896v.004c.041.086.078.166.119.232.986 2.609 2.026 5.224 2.597 7.972.584 2.917.517 5.889.679 8.84.02 2.983.598 5.928 1.371 8.8.351 1.249.662 2.512 1.017 3.76.794 2.077 1.817 4.129 3.222 5.841a22.412 22.412 0 0 0 3.766 3.848c1.479.938 3.08 1.675 4.772 2.104 1.909.266 3.746.872 5.59 1.436 2.888.848 5.793 2.536 5.019 6.104-.226 1.768-.729 3.633-2.199 4.733-.857.789-1.969 1.149-3.063 1.436-.905.297-1.76.727-2.651 1.055-2.155.554-4.242 1.713-6.475 1.734-.615-.031-1.223-.087-1.827-.135.547 1.941 1.797 3.453 2.888 5.08 1.81 2.432 4.083 4.421 6.569 6.096 1.685 1.25 3.479 2.2 5.188 3.374 1.844 1.28 3.289 3.076 4.613 4.889 1.48 1.98 2.507 4.245 3.429 6.54.104.442.456 1.453.655 2.425a4.819 4.819 0 0 1 1.236-.097 4.428 4.428 0 0 1 3.188 1c.7.779 1.203 1.772 1.537 2.768.129.471.081.966.206 1.436.206.855.156 1.751.517 2.571.51 1.36 1.547 2.381 2.351 3.547 1.152 1.785 2.34 3.567 2.847 5.678l.024-.017Z"/><path fill="#0D0C22" d="M87.975 34.477a.807.807 0 0 1-.335-.197.822.822 0 0 1-.216-.747c.024-.157.095-.291.18-.42.107-.162.263-.304.438-.39a1.855 1.855 0 0 0-.26-.132c-.554-.408-1.26.017-1.628.488-.84.896-1.111 2.785.267 3.29a1.7 1.7 0 0 0 .466.066c1.047 0 1.82-1.034 1.909-2.059a1.237 1.237 0 0 1-.551.139 1.02 1.02 0 0 1-.27-.038ZM81.73 33.383a.866.866 0 0 1-.122.1c-.02.015-.044.028-.064.042l-.074.042-.071.03c-.027.011-.054.018-.081.029l-.071.02a.506.506 0 0 1-.101.01c-.017 0-.034.004-.051.004h-.064a.722.722 0 0 1-.514-.273.484.484 0 0 1-.087-.184.577.577 0 0 1-.027-.214c.013-.08.027-.166.067-.232.01-.041.024-.08.037-.121a.616.616 0 0 1 .176-.25.831.831 0 0 1 .51-.183c.05 0 .105 0 .152.014-.216-.318-.544-.522-1.03-.488-.686.146-1.28.682-1.605 1.315-.564 1.038-.726 2.495.571 2.793.152.08.325.145.534.17.5-.018.939-.281 1.26-.665a2.368 2.368 0 0 0 .655-1.952v-.007Z"/><path fill="#0D0C22" d="M92.595 56.061c-1.648-3.3-2.938-6.789-4.198-10.263 3.624-2.325 5.972-6.39 6.57-10.695.124-2.194-.588-4.36-1.554-6.29-1.344-2.128-3.354-3.838-5.506-5.056a7.665 7.665 0 0 0-2.671-1.28 8.472 8.472 0 0 0-4.09-.522c-2.723.446-5.128 2.418-6.546 4.788-2.06 3.032-2.027 6.993-1.429 10.499.44 2.051 1.533 3.861 2.814 5.47.675.89 1.36 1.796 2.276 2.44-1.537 2.376-2.34 5.155-3.401 7.767-.939 2.412-2.209 4.623-3.418 6.896-.368.61-.706 1.464.064 1.914.875.457 1.922.149 2.868.273 1.5.246 3.185.308 4.721.491 1.493.136 2.993-.017 4.486.004 1.385.031 2.77.083 4.15-.014 2.183.024 4.334-.457 6.51-.17 1.671-.18.35-2.36-.146-3.165-.594-.98-.99-2.063-1.496-3.087h-.004Zm-9.754-22.968c-.304 1.415-.307 2.944.108 4.263l-.06.051c-.936 1.004-2.46 1.942-3.824 1.343-.409-.25-.875-.443-1.22-.789-.266-.373-.357-.844-.513-1.273-.152-.46-.074-1.052-.07-1.54.003-.63-.038-1.28.205-1.875.547-1.537 1.328-3.163 2.854-3.883 1.03-.529 2.196-.013 2.83.92.166.27.281.6.504.824a9.765 9.765 0 0 0-.814 1.962v-.003Zm4.046 6.141c-2.671-.245-3.154-3.249-2.81-5.501.53-2.09 1.99-4.47 4.35-4.28 2.405 1.197 2.648 4.474 1.682 6.75-.52 1.43-1.607 2.97-3.222 3.031ZM91.271 9.232c.314.315.558.66.855 1.09.706 1.294 1.347 2.647 1.726 4.086.1.367.472.592.824.495a.7.7 0 0 0 .483-.845c-.172-.605-.345-1.217-.591-1.795-.71-1.526-1.328-3.246-2.696-4.287-.31-.205-.743-.07-.925.245-.22.38-.017.803.324 1.014v-.003ZM95.186 16.688a.692.692 0 0 0-.686.682c-.003.374.3.702.666.702a.694.694 0 0 0 .685-.681c.004-.374-.3-.703-.665-.703ZM106.149 53.78c-.584-.843-1.378-1.567-1.709-2.56-.114-.398-.219-.799-.361-1.187-.355-.833-1.564-.321-1.25.53.159.425.25.868.395 1.294.385 1.066 1.206 1.868 1.851 2.768a.67.67 0 0 0 .946.128.707.707 0 0 0 .122-.969l.006-.003ZM106.869 57.428a.692.692 0 0 0 .685-.682c.004-.373-.3-.702-.665-.702a.695.695 0 0 0-.686.682c-.003.373.301.702.666.702ZM107.146 76.552c.047-.353.084-.713-.01-1.059-.281-.934-1.581-.474-1.291.45-.321 1.52.355 2.976.483 4.474.108.696-.341 1.986.672 2.076.369.007.676-.308.683-.681.017-.751.03-1.502-.091-2.246-.132-1.004-.605-1.986-.45-3.014h.004ZM106.504 82.96a.693.693 0 0 0-.02 1.384.694.694 0 0 0 .685-.681c.004-.374-.3-.703-.665-.703ZM92.957 77.507c-.318-.19-.7-.076-.905.222-.277.39-.649.81-.95 1.207-.378.63-1.57 1.578-.672 2.242.885.481 1.314-1.045 1.851-1.536.392-.599 1.578-1.47.676-2.135ZM89.066 82.587a.692.692 0 0 0-.686.681c-.003.374.3.703.666.703a.695.695 0 0 0 .685-.682c.004-.374-.3-.703-.665-.703ZM68.473 75.441c1.202-.398-.145-2.4-.584-3.034-.436-.578-.852-1.412-1.652-1.453-.368-.007-.679.308-.686.685a.697.697 0 0 0 .55.688c.663.761 1.288 1.623 1.544 2.623.102.367.473.592.825.495l.003-.004ZM68.355 78.3c.51.965 1.729.124 1.145-.776-.507-.965-1.73-.131-1.145.775ZM51.609 68.701c-.233.26-.486.498-.794.664-.952.502-1.976.852-3.013 1.121-.699.139-1.388.33-2.063.561a.702.702 0 0 0-.45.865c.362.958 1.412.183 2.081.087 1.83-.454 3.87-.897 5.215-2.34.601-.664-.365-1.602-.976-.955v-.003ZM43.162 71.736c-.369 0-.666.346-.656.712a.694.694 0 0 0 .696.672c.365 0 .666-.346.655-.713a.694.694 0 0 0-.695-.671ZM92.021 180.896c-.929-.315-1.915-.536-2.888-.308-3.928.924-7.278 5.073-6.039 9.287.139.671.389 1.311.757 1.886.29.519.534 1.111 1 1.498.496.322.945.606 1.425.976-.865 2.007-1.422 4.09-2.496 6.02-.365.779-1.037 1.585-1.365 2.419-.108.806.757.986 1.365.9.952-.049 1.85-.007 2.81.093l-.04-.007c1.053.135 2.097-.083 3.15-.086 2.064-.063 4.185-.156 6.205-.592.976-.664.162-1.983-.23-2.768-.182-.436-.34-.879-.52-1.315a14.54 14.54 0 0 1-1.064-2.533c-.337-.54-.48-1.19-.857-1.699 1.695-1.062 2.702-2.93 3.452-4.757.641-2.111.459-4.976-.963-6.716-.973-1.146-2.28-1.907-3.698-2.298h-.004ZM93.886 157.654c-.2-.706-.47-1.405-.477-2.145-.03-.91-1.337-.907-1.35 0 0 .868.283 1.692.523 2.512.263.872 1.52.509 1.304-.367ZM93.828 160.53c.373 0 .675-.31.675-.692a.683.683 0 0 0-.675-.692.683.683 0 0 0-.675.692c0 .382.302.692.675.692ZM108.706 186.802c-.05-.716-.138-1.429-.108-2.148.102-.685.118-2.007-.878-1.81a.702.702 0 0 0-.473.851.858.858 0 0 1 .047.357c-.111.975-.01 1.958.071 2.934.132.896 1.426.72 1.338-.184h.003ZM108.233 190.816c.374 0 .676-.31.676-.692a.684.684 0 0 0-.676-.692.684.684 0 0 0-.675.692c0 .382.302.692.675.692ZM80.78 190.308a3.823 3.823 0 0 1-.26-2.27c.044-.322.23-.616.203-.948a.693.693 0 0 0-.861-.585.694.694 0 0 0-.493.605c-.503 1.467-.284 3.139.537 4.436a.673.673 0 0 0 .925.242c.602-.384.22-1.017-.05-1.48ZM81.652 194.92c.373 0 .675-.31.675-.692a.684.684 0 0 0-.675-.692.684.684 0 0 0-.676.692c0 .382.303.692.676.692ZM120.619 141.52c.598.512 1.138 1.103 1.472 1.83.406.817 1.584.249 1.23-.574a5.93 5.93 0 0 0-1.061-1.571c-.517-.509-1.489-1.71-2.117-.744-.237.45.081.865.476 1.059ZM122.861 145.319a.695.695 0 0 0 .693.675c.365 0 .665-.343.658-.71a.694.694 0 0 0-.692-.675c-.365 0-.665.343-.659.71ZM112.698 158.509c-.739-.111-1.651-.132-1.969-.966-.125-.252-.506-.422-.851-.259-.381.173-.523.702-.26 1.045.507 1.159 1.827 1.439 2.945 1.557.882.08 1.017-1.256.139-1.377h-.004ZM115.407 157.983c-.368 0-.665.342-.658.709.01.384.327.675.692.675.365 0 .665-.343.659-.709a.695.695 0 0 0-.693-.675Z"/><path fill="#0D0C22" d="M147.987 121.229c-.503-1.391-1.442-2.532-2.131-3.82-1.189-1.84-2.233-3.747-3.695-5.384a1.66 1.66 0 0 0-.206-.249 7.64 7.64 0 0 0 .476-2.868c-.064-1.761-1.676-3.391-3.408-3.353-1.061.093-1.892.706-2.719 1.336 0-.028-.007-.056-.007-.084-.398-3.633-1.263-7.788-3.675-10.612-1.047-1.152-2.131-2.335-3.337-3.328-3.164-2.502-6.778-4.364-9.862-6.98-1.436-1.287-2.905-2.57-4.013-4.172-1.368-2.142-2.435-4.512-3.056-6.993a24.297 24.297 0 0 1-.129-.762c1.314.028 2.621-.069 3.935.052 1.372-.065 2.743-.183 4.114-.18 1.989.201 3.78-.768 5.516-1.633 1.442-.778 2.938-1.927 3.421-3.595.811-3.131-.787-5.581-3.898-5.979-2.597-.564-5.302-.792-7.771-1.886-4.705-2.21-7.59-6.9-10.471-11.107-3.404-6.879-4.337-14.716-5.134-22.307-.364-4.512-.493-9.049-2.09-13.363-1.824-4.928-5.31-9.626-10.295-11.46-3.182-1.166-6.708-.82-9.944-.066-4.742 1.515-8.329 5.48-10.426 9.986-.83 1.782-1.679 3.574-2.222 5.477-.575 2.114-1.037 4.277-1.476 6.422-.645 2.9-.875 5.851-1.152 8.803-.27 1.986-.43 3.986-.554 5.986-.514 5.906-2.22 11.671-4.418 17.135-2.067 4.155-5.04 8.415-9.44 10.176-1.804.581-3.634 1.128-5.509 1.405-1.223.183-2.479.228-3.607.806-2.513.917-5.384 2.99-4.492 6.107.439 1.9 1.607 3.491 3.13 4.633a10.763 10.763 0 0 0 2.446 1.498c1.3.485 2.709.595 4.077.772a30.75 30.75 0 0 0 4.54-.273c-.413.865-.717 1.837-.842 2.276-1.98 7.142-.408 12.256 1.142 19.194.368 1.526.665 3.069.858 4.629.344 2.613.689 5.526-.054 8.156-.456 1.879-1.351 3.578-2.32 5.221-.825 1.405-1.912 2.91-3.145 4.011-.156.11-.311.221-.466.335.017-.65.01-1.304-.135-1.944-.46-3.011-2.98-3.838-5.428-2.433-2.243 1.111-3.192 3.478-3.209 5.882-.341.08-.696.388-.993.571-.567.339-1.138.675-1.736.955-1.635.758-3.401 1.052-5.154 1.381-1.02.162-2.026.38-3.04.571-1.78.194-3.52.173-5.326.142-2.503.328-9.278-.312-7.86 4.02.865 1.734 2.939 1.094 4.421.886.53 0 1.223-.225 1.726-.024l-.182.149c-1.108.906-2.128 1.955-2.614 3.346-.601 2.045-.392 4.719 1.716 5.633-.264 1.349-.098 2.692.81 3.872a5.604 5.604 0 0 0-1.273.92c-.797.837-1.55 1.765-1.871 2.91-.068.377-.308.948-.385 1.453-1.578.858-2.527 2.654-3.121 4.336-.183.557-.378 1.131-.402 1.723-.017.388.149.765.125 1.149a.716.716 0 0 0 0 .225 47 47 0 0 0-3.286 2.564c-.865.536-1.693 1.114-2.446 1.809-.631.467-1.246.948-1.86 1.436-.666.478-3.037 1.851-1.757 2.734.854 1.474 1.445 3.09 2.256 4.588.162.342.422.633.547.993.047.166.118.342.3.47.288.205.632.115.943.042.953-.194 1.824-.623 2.692-1.048.682-.308.615-1.007.314-1.589-.027-.076-.06-.152-.091-.225l.115-.051c.618-.27 1.108-.599 1.712-.928.865-.512.054-1.526-.256-2.152-.233-.505-.352-1.159-.7-1.626 1.392-1.374 2.71-2.934 4.364-4.014l.112-.083c.493.215 1.216.232 1.63.287a8.94 8.94 0 0 0 3.885-.848 9.978 9.978 0 0 0 1.898.713c.5 1.637 1.642 3.104 3.243 3.647.007.426.067.862.044 1.26.044 1.422.104 2.84.185 4.259.217 2.384-.023 4.761.196 7.152-.06.353-.023.775.27.976.055.08.126.145.213.19.655.288 1.385.128 2.078.146.59 0 1.182.017 1.77.052 1.816.103 3.623-.315 5.437-.163.824-.17.639-1.81.784-2.498.057-.931.108-1.879.08-2.803-.158-.498-.725-.557-1.15-.426a6.97 6.97 0 0 1-.605.083c.168-.643.401-1.342-.014-1.899-.395-.45-1.04-.384-1.574-.467-.76-.114-1.655-.222-2.48-.243-.104-1.328-.222-2.636-.492-3.944-.081-.523-.05-1.083-.159-1.602 3.229-1.249 4.637-5.426 3.084-8.592.871-1.865 1.128-4.02.898-6.072-.111-1.011-.395-1.993-.689-2.962-.121-.305-.226-.64-.378-.948.55-.215 1.057-.526 1.391-1.024.453-.827 1.071-1.585 1.335-2.502.5-1.803.584-3.699 1.33-5.422.575-1.221 1.358-2.619 2.753-2.903.29.228.696.394.96.567a4.072 4.072 0 0 0 2.485.682c4.063.014 4.708-3.799 4.016-7.162-.277-1.412-1.253-2.537-1.436-3.98a5.382 5.382 0 0 1-.037-.47c.514-.37 1.02-.751 1.507-1.118 2.266-2.207 3.941-5.034 5.164-7.969 1.385-3.384 1.182-7.082.652-10.633-.578-4.484-2.02-8.902-2.685-13.387-.514-3.837-.135-7.84 1.246-11.477.186-.446.422-.872.75-1.228.024-.018.04-.042.06-.063 2.004-.443 3.932-1.17 5.678-2.3 1.236-.706 2.402-1.558 3.722-2.097.845-.374 1.77-.426 2.655-.596.014.032.024.063.037.097-2.12 1.654-3.607 4.083-4.772 6.523-1.848 4.086-1.983 8.771-1.51 13.183.713 5.283 2.76 10.224 4.32 15.28 2.003 6.093 4.438 12.21 4.756 18.709.148 4.629-1.804 8.868-4.77 12.28-.199.263-.412.515-.631.757-2.432-1.91-2.5-5.75-6.465-3.546-.878.446-1.55 1.183-2.178 1.937-.395.45-.787.921-.973 1.506-.378 1.581-.726 3.356-.24 4.934-.304.297-.338.944-.52 1.342-.375.855-.834 1.741-1.27 2.585-1.348 2.111-3.168 3.834-4.83 5.678-1.949 1.889-3.918 4.09-4.394 6.889-.436 2.222.476 5.187 2.793 5.869.335.048.821.103 1.203.007.371 1.38 1.31 2.442 3.158 2.643.169-.003.375-.014.58-.041.227.436.514.837.872 1.159.669.453 1.3.958 2.11 1.107.332.08.893.021 1.372-.156.129.184.267.364.426.523.584.477 1.135 1.02 1.86 1.27.44.166.91.231 1.352.387.787.242 1.797.132 2.506-.294.669-.561 1.29-1.315 1.412-2.218.101-1.699-.855-3.232-1.46-4.758-.35-1.328-.874-2.612-.888-4.01.054-1.01.156-2.18.98-2.861 1.398-.623 1.577 2.463 1.594 3.366-.037 1.716-.388 3.772 1.71 4.322.813.301 1.782.343 2.522-.183 1.121-1.045 1.878-2.647 1.81-4.215a10.028 10.028 0 0 0-1.84-5.962c-1.334-2.19-2.723-4.633-2.706-7.314v-.028c1.149-.305 2.263-1.038 3.003-1.924.915-1.239 1.56-3.162.912-4.65-.652-1.388-1.993-1.952-3.253-2.634.916-1.031 1.743-2.152 2.507-3.297 4.785-7.118 3.056-14.346.783-22-1.817-5.761-3.894-11.435-5.634-17.221-1.563-5.525-2.124-11.76-.033-17.235.992-2.283 2.283-4.46 4.08-6.141-.027 1.674-.916 3.577-2.22 5.868-1.374 2.567-2.144 6.699 1.244 7.938 2.134.747 4.252-.658 5.85-1.983.536-.415.955-.962 1.374-1.498.618-.748 1.287-1.45 1.83-2.26.913-1.339 1.544-2.854 2.591-4.1 1.304-1.848 2.33-3.9 3.952-5.495.02-.02.037-.041.057-.062.092.422.166.848.196 1.28.017 2.09-.27 4.18-.604 6.239-.473 2.066-.77 4.183-1.26 6.245-.73 2.782-1.361 5.602-1.672 8.467-.665 4.585-.81 9.291.149 13.844 1.29 6.81 4.157 13.201 7.065 19.422 1.04 2.142 2.196 4.201 3.138 6.398.385.879.79 1.765 1.06 2.688-.577.191-1.168.35-1.749.516-3.833.948-5.387 5.367-2.827 8.512.524.685 1.297 1.097 2.013 1.536.358.215.851.588.932 1.063.244.782-.476 1.474-.966 1.979-1.1.785-2.38 1.335-3.326 2.335-1.277 1.412-3 2.606-3.432 4.599-.206.598-.166 1.221.024 1.803a2.86 2.86 0 0 0-.382.179c-1.493.838-2.648 2.27-3.192 3.938-.5 1.315-.706 2.682-.76 4.087-.162 1.647-.273 3.321-.121 4.972-1.007.059-1.946-.035-3.01-.011-.527.121-1.428-.1-1.817.294-.33.09-.544.454-.5.8-.142 1.332-.118 2.674-.223 4.014-.179 1.525-.094 3.017-.077 4.55-.139 2.577-.017 5.155.057 7.73-.361 4.217-.425 8.456-.76 12.677-.05 1.167-.068 2.333-.145 3.499a.698.698 0 0 0 .621.744.629.629 0 0 0 .24-.028c.416.232 1.111.176 1.55.166 1.098-.01 2.247-.08 3.354.024 2.665.114 5.31.488 7.978.53 2.307.145 4.61.048 6.924.159 4.816.121 9.562-.149 14.398-.111 1.797-.055 3.581-.342 5.381-.367 1.266.056 2.52.211 3.79.142.415.08.689-.142.786-.432a.725.725 0 0 0 .318-.53c.287-1.861.101-3.74.034-5.626-.139-2.363-.078-4.578-.01-6.986 0-5.159-.656-10.287-1.007-15.429-.098-1.28-.044-2.557-.01-3.837-.03-.581.226-1.63-.615-1.72-.202 0-.348.049-.456.135h-.054c-1.469.121-2.969-.131-4.445-.155.007-.045.017-.087.024-.132.426-2.073.159-4.225-.355-6.256-.689-2.803-2.489-5.391-5.171-6.45-.493-.159-1.01-.179-1.513-.28a2.298 2.298 0 0 0-.27-.034c-.686-2.672-2.05-5.114-2.83-7.758-.298-1.408-.828-2.758-.926-4.208-.01-.28-.054-.709-.07-1.017.026-.28.043-.65-.031-.962a9.79 9.79 0 0 0 1.162-1.685c1.037-1.955 1.675-4.557.648-6.633-.983-1.581-2.793-2.585-4.627-2.467-1.283.035-2.293.893-3.313 1.599-.595-1.907-1.52-3.706-2.385-5.499-2.678-5.096-5.019-10.38-6.934-15.826-2.901-8.038-3.05-14.799-1.59-23.159.404-2.26 1.013-4.467 1.512-6.706.284-1.522.564-3.041.892-4.553.348-2.173.79-4.443.716-6.664.878 1.363 1.463 2.961 1.848 4.525.28 1.692-.068 3.36-.575 4.966-.77 2.913.629 4.304 3.35 4.76 2.416.215 4.108-1.733 5.314-3.625.932-1.499 1.79-3.056 2.729-4.55a20.321 20.321 0 0 0-.406 6.356c0-.031-.003-.059-.006-.09.091 1.156.111 2.322.263 3.474.277 1.93.882 3.785 1.375 5.664 1.746 7.017 5.515 13.367 10.055 18.858 2.114 2.813 4.492 5.456 6.255 8.529.166.311.334.619.5.934-1.777.602-3.509 1.582-4.394 3.329-.676 1.311-.72 2.882-.554 4.329.111.83.621 1.512 1.033 2.211.419.757 1.169 1.214 1.902 1.609.176.093.358.159.544.214a.6.6 0 0 0 .074.18c.209.938-.544 1.747-1.037 2.457-.419.695-1.01 1.232-1.587 1.782a25.592 25.592 0 0 0-1.915 2.505c-1.527 2.356-1.669 8.142 1.553 9.038-.307 1.072-.223 2.218 0 3.301.2 1.038.443 2.09 1 2.996.426.869 1.233 1.367 1.966 1.931.442.387.956.688 1.543.754 1.804.305 3.503-.415 4.867-1.581a.753.753 0 0 0 .085.059c1.702.917 3.495-.64 4.607-1.869.185-.225.368-.46.54-.706.193.073.399.118.584.139 1.814.287 3.135-1.526 3.614-3.111 0-.007 0-.014.004-.021l.077.032c.97.131 1.662-.942 2.311-1.533 1.77-1.993 2.05-4.831 1.553-7.384-.982-4.267-4.127-7.488-7.096-10.474a18.486 18.486 0 0 1-2.148-3.017c-.128-.218-.274-.488-.453-.678.602-1.032.838-2.229.966-3.429.196-1.468-.314-2.99-.942-4.291-1.142-1.958-3.553-2.336-5.38-1.163-.73.551-1.274 1.398-2.047 1.893-.034-.059-.064-.118-.098-.176-.969-1.955-2.263-3.71-3.58-5.433-2.294-2.996-4.752-5.837-6.87-8.972-2.854-4.311-5.195-9.052-6.38-14.152-.368-1.35-.764-2.689-1.054-4.059-.284-1.536-.3-3.097-.426-4.65 0 .01 0 .02 0 0v-.007c-.162-2.702.139-5.782 1.348-8.273.132.138.267.27.368.39 1.436 1.502 2.398 3.416 3.871 4.893 1.621 1.845 3.796 3.301 6.228 3.644 1.868.183 3.783-1 4.492-2.782.672-2.031.844-4.2 1.152-6.311.101-1.239-.091-2.474-.196-3.706.898 2.488 2.297 4.892 3.698 6.512 2.915 3.304 6.543 5.536 10.163 7.975 2.202 1.347 4.047 2.962 5.786 4.942.652.688 1.175 1.49 1.591 2.349 1.223 2.685 1.783 5.595 2.05 8.54a4.653 4.653 0 0 1-.665.335c-1.318.277-2.672.443-3.888 1.094-2.317.84-4.117 2.532-3.384 5.238.422 2.485 2.739 2.457 4.283 3.831.972.934-.021 1.851-.612 2.647-.915 1.034-1.655 2.231-2.445 3.37-1.165 1.522-2.638 4.014-1.962 5.989 1.158 1.703 3.755 1.135 5.204.125 1.713-.917 2.621-2.969 4.401-3.761.737.11.801 1.166.922 1.768.203 1.484-.239 2.034-1.101 3.131-1.091 1.734-2.266 4.761-.848 6.581 1.22 1.25 3.131.329 4.216-.667.591-.554 1.107-1.229 1.557-1.976.557-.09 1.047-.46 1.449-.875.689-.641 1.422-1.239 1.878-2.09a5.88 5.88 0 0 0 .371-.713c.811.062 1.344-.841 1.733-1.46.277-.436.452-.914.56-1.409 1.014-.346 1.905-2.024 2.064-2.899.172-1.62-.263-3.287-.797-4.803l.034-.021ZM18.634 149.848c.6-.47 1.33-.82 2.107-.72a.69.69 0 0 0 .352.115c.31 1.546 1.134 2.851 2.816 3.314 2.348.506 3.354-2.557 3.668-4.972.53 0 1.037.215 1.53.391a.517.517 0 0 0 .142.031 2.973 2.973 0 0 0 2.08 1.377c.028.025.052.052.085.077.22.1.287.353.372.567.48 1.218.827 2.564.858 3.886.118 1.28-.075 2.636-.537 3.889a6.972 6.972 0 0 0-3.493-2c-.567-.017-1.138.028-1.705.052-.703.093-1.307.509-1.898.879-.629.38-1.18.92-1.639 1.55.2-3.477-3.57-5.827-6.7-5.318.02-.08.043-.156.07-.225.277-1.163 1.037-2.111 1.895-2.896l-.003.003Zm9.896-8.924c.422-.664 1.256-1.294 1.939-.595.293.398.401.969.47 1.46a.594.594 0 0 1-.045.25c-.435.878-1.108 1.626-1.459 2.553a11.668 11.668 0 0 0-.49 1.82v.021c-.408-.111-.844-.17-1.121-.225-.044 0-.091-.003-.139-.003.004-.135.007-.267.004-.388-.058-1.647-.047-3.453.837-4.893h.004Zm-6.64 21.464c0 .027 0 .055-.004.083-.027-.011-.054-.018-.08-.028.03-.014.057-.035.087-.055h-.003Zm-5.969.301c-.408-.031-.82-.312-1.226-.215a.636.636 0 0 0-.513.031c-1.128.786-2.206 1.644-3.144 2.672-.71.771-1.53 1.429-2.169 2.29-.256.509.112.99.362 1.412.27.637.445 1.304.827 1.889-.405.246-.82.464-1.263.661a18.987 18.987 0 0 0-.554-1.003 18.709 18.709 0 0 1-.557-1.128.672.672 0 0 0-.902-.319c-.777.433-.115 1.298.142 1.862.466.841.959 1.671 1.283 2.584-.621.277-1.226.603-1.898.741-1.047-1.695-1.72-3.599-2.689-5.339 1.115-.91 2.23-1.64 3.371-2.561.558-.474 1.095-.968 1.743-1.307 1.523-1.108 2.871-2.333 4.452-3.384.398-.36.25-.869-.081-1.097-.03-.343-.129-.682-.115-1.028.172-.983.574-1.91 1.016-2.792.615-1.114 1.527-2.097 2.8-2.332 1.895-.198 3.972.591 4.918 2.363.672 1.522.102 3.46-1.033 4.588-.166.163-.392.225-.581.343a9.432 9.432 0 0 1-1.064-.8c.56-.408.97-1.079 1.097-1.751.24-1.792-1.428-3.615-3.205-3.397-1.28.017-2.118 1.214-2.53 2.335-.77 1.685.45 3.727 2.274 3.761.347 0 .742-.079 1.07-.256.308.308.639.592.993.855-.915.294-1.868.446-2.83.329l.007-.007Zm2.152-2.89c-.49-.688-.733-1.529-1.003-2.335a1.481 1.481 0 0 1-.034-.17.618.618 0 0 0 .003-.249c1.422-.135 2.56 1.972 1.034 2.754Zm-2.32-1.505c.03-.065.064-.135.098-.204.064.18.131.36.189.533a6.07 6.07 0 0 0 .797 1.744c-.027.003-.05.01-.078.014-1.064-.021-1.51-1.208-1.01-2.083l.004-.004Zm13.503 8.218c-.56-.034-.797.45-.706.862a.647.647 0 0 0 .058.467c0 .003 0 0-.004-.004.132.488.085 1.004.162 1.499.122 1.007.406 1.989.396 3.01.158.782-.105 2.356 1.063 2.27 1.128-.011 2.148.176 3.283.304-.05.267-.111.53-.175.793a.55.55 0 0 0-.108.207c-.163 0-.325.004-.483.011-.777.076-2.743-.232-2.327 1.124.172.367.57.447.918.332 1.243-.152 2.506-.01 3.75-.186 0 .961-.068 1.923-.193 2.878-2.057.056-4.104.319-6.168.149-.516-.014-1.033.028-1.547.014 0-.716-.189-1.585-.135-2.038.149-3.678-.314-7.339-.28-11.014.162-.56-.415-1-.878-.84-.696-.274-1.348-.686-1.75-1.35a10.303 10.303 0 0 0-.506-.837c-.132-.343-.186-.71-.338-1.045-.213-.889.111-1.775.422-2.595.578-1.557 1.777-2.807 3.354-3.284.52.003 1.054-.097 1.57-.017 1.102.387 2.108 1.003 2.848 1.934a7.92 7.92 0 0 1-1.165 1.567c-.659-1.46-2.746-1.896-3.959-.633-.993.813-1.35 2.135-1.419 3.381.183 1.308 1.399 2.436 2.703 2.418 1.52.146 3.215-1.02 3.235-2.674-.02-.329.004-.73-.094-1.063.449-.37.861-.782 1.185-1.287.068-.083.129-.173.193-.259.631 2.349-.544 5.048-2.902 5.91l-.003-.004Zm.128-2.785c-.337.401-.878.809-1.445.782a1.502 1.502 0 0 1-1.345-.557c1.027-.031 2.081-.333 2.925-.914 0 .235-.033.467-.131.685l-.004.004Zm-2.948-1.146c.094-1.176 1.689-2.629 2.58-1.391.098.146.122.315.142.488-.7.454-1.486.762-2.354.872a2.39 2.39 0 0 1-.368.031Zm18.296-33.566c.56 1.287 1.283 2.522 1.28 3.989.02 1.235.017 2.993-1.169 3.699-1.665.879-3.026.363-4.482-.626l-.02-.011c-.159-.176-.409-.276-.736-.193-2.645.425-3.881 3.29-4.563 5.643-.355 1.564-.348 3.339-1.253 4.696-.26.411-.44.878-.757 1.249-.304.287-.73.384-1.104.532-1.101.174-2.003-.788-1.527-1.91.22-1.262 1.06-2.235 1.658-3.325.365-.688.223-1.484-.006-2.193-.24-1.17-1.358-2.077-2.54-1.921-1.081.132-1.882 1.049-2.388 1.972-.946 1.862-.723 3.928-.824 5.945-.173.163-.257.388-.176.706.027.083.06.149.101.204a8.923 8.923 0 0 1-.158.945c-.26 1.031-.524 2.197-1.473 2.806l.02.007c-2.81-.153-2.469-4.274-2-6.287.43-1.789 1.352-3.294 2.504-4.706.303-.395.942-1.049.364-1.554-.27-.235-.726-.218-.952.08-1.257 1.588-2.53 3.29-3.077 5.311-.304 1.056-.527 2.346-.517 3.609-.054 0-.111 0-.172.014-.8.201-1.189-.54-1.46-1.18-.827-2.08 1.186-5.118 2.264-6.893.618-.747 1.162-1.657 2.033-2.114.784-.429.186-1.619-.615-1.232-.648.281-1.148.852-1.597 1.385-1.196 1.363-2.094 2.975-2.834 4.64-.101.221-.196.442-.284.667a1.562 1.562 0 0 1-.391-.297c-.933-.872-.703-2.422-.436-3.561a5.246 5.246 0 0 1 1.587-2.162c.72-.661 1.466-1.329 2.34-1.768.508-.17 1.257-.263 1.129-1-.32-.955-1.422-.492-2.375.128-.01-.011-.016-.021-.027-.031-.412-.513-1.266-.575-1.887-.533-1.048-.177-4.557 1.304-4.253-.634.402-1.2 4.006-1.249 5.124-1.304 2.124-.225 4.259.003 6.383-.215 2.074-.224 4.11-.757 6.171-1.089.253-.056.504-.122.753-.191.43-.01.943-.259 1.328-.287.412-.021.956-.263 1.388-.329.74-.09 1.564.011 2.172.471l-.048-.049c.321.34.733.26.977.007.81-.297.283-1.432.158-2.069-.108-.633-.09-1.284-.077-1.924-.02-2.494 2.306-5.062 4.826-4.498 1.375.803 1.22 2.81 1.203 4.222-.01.107-.014.211-.02.318a21.36 21.36 0 0 1-1.997 1.259 2.063 2.063 0 0 1-.381.211c.1-.453.233-.903.354-1.339.095-.363-.115-.75-.47-.851a.68.68 0 0 0-.83.481c-.26.882-.514 1.772-.547 2.699-.149.872.381 1.727.638 2.536.27.876 1.527.505 1.304-.366-.152-.544-.416-1.042-.578-1.578.473-.128 1.007-.54 1.385-.717.409-.221.82-.477 1.23-.743.074.418.182.833.317 1.238l.01.011Zm20.228 17.657c.45.688.122 1.571-.078 2.297-.587 1.658-2.465 2.81-4.157 2.55a26.04 26.04 0 0 1-2.648-.135c-.385-.096-.858.108-.916.558a.737.737 0 0 0 .078.439.673.673 0 0 0 .554.422c.48.066.919.298 1.344.523 1.115.681 1.824 1.792 2.419 2.958a.764.764 0 0 0 .108.194c.57 1.546 1.405 3 2.246 4.398a8.757 8.757 0 0 1 1.645 5.318 3.563 3.563 0 0 1-.578 2.062c-.372.765-.841 1.339-1.746 1.017-1.324-.187-1.07-1.28-1.03-2.315.047-1.449-.058-2.948-.676-4.276-.588-1.426-2.347-1.803-3.391-.668-1.023 1.041-1.233 2.65-1.185 4.066.054 1.034.3 2.024.655 2.993.132.564.263 1.131.54 1.643.422 1.222 1.351 2.502 1.074 3.834-.246.419-.554 1.007-1.067 1.08-.666.214-1.385-.09-2.05-.263-.747-.177-1.32-.748-1.868-1.26-.331-.453-.463-.993-.679-1.505a5.243 5.243 0 0 1-.284-2.401c-.04-1.07.095-2.114.23-3.17.071-1.367.318-2.616.925-3.861.15-.346.041-.755-.3-.931-.318-.159-.76-.038-.909.308-.344.782-.675 1.574-.834 2.422-.29 2.239-.621 4.512-.436 6.771.132.589.28 1.205.494 1.789a.884.884 0 0 1-.43.066c-.682-.166-1.34-.595-1.817-1.1-.557-.803-.857-1.938-.678-2.934.03-1.821.199-3.644.844-5.357.145-.377.466-.896.618-1.311.27-.869-.966-1.298-1.277-.45-1.233 2.201-1.482 4.754-1.557 7.242a5.637 5.637 0 0 0 .095 1.644c-.112 0-.22 0-.328-.038-1.868-.388-1.932-2.436-1.665-4.031.206-1.215.314-2.447.554-3.654.074-.308.236-.585.307-.89.152-.885-1.104-1.152-1.32-.29-.527 1.221-.55 2.661-.77 3.969a9.883 9.883 0 0 0-.223 2.321c-1.773.291-2.523-1.924-2.577-3.401.135-3.083 2.425-5.36 4.461-7.381 1.328-1.477 2.733-2.875 3.925-4.473.487-.603.868-1.277 1.216-1.969.233-.038.463-.198.611-.422.26-.125.544-.263.835-.263.51.287.898.031 1.016-.336a.708.708 0 0 0 .17-.869c-.413-.747-.839-1.491-1.176-2.276-.24-.955-.2-1.955.007-2.91.08-.869.327-1.682.979-2.281.828-1.031 1.97-2.041 3.334-2.069.402.042.631.426.834.741a17.031 17.031 0 0 0 1.783 2.408c.213.228.443.436.683.633-.48.45-.98.872-1.5 1.277-.534.408-1.078.803-1.625 1.194a4.24 4.24 0 0 1-.121-.765c.003-.36.094-.733-.027-1.079-.139-.35-.524-.537-.872-.398a.705.705 0 0 0-.419.792 4.52 4.52 0 0 0 .264 2.149c.334 1.512 1.881 1.823 3.07 2.384.814.353 1.351-.872.55-1.263-.658-.322-1.205-.471-1.624-.71a37.072 37.072 0 0 0 2.124-1.608c.463-.367.906-.762 1.328-1.177.21.121.422.239.642.346.807.45 1.766.841 2.28 1.689l-.004-.007Zm19.6 25.113c.196.166.442.329.753.488 1.679.838 3.178.371 4.219-.709.347.187.77.235 1.158.253 1.05.003 2.25-.045 3.057-.824.094-.097.186-.197.273-.298.078.035.156.063.234.077 1.273.076 2.732-.391 3.62-1.36a4.7 4.7 0 0 0 .419-.727c.105.049.2.114.3.166 1.919 1.343 1.676 4.246 1.676 6.356 0 .077-.007.149-.007.222a18.144 18.144 0 0 0-2.033-.059 5.94 5.94 0 0 0-1.625.028c-.057.01-.115.021-.172.027-3.942-.065-7.876.198-11.815.364-.378-.042-.8 0-1.124.045a99.165 99.165 0 0 1-4.33.072c.115-1.314-.024-2.66.054-3.979.027-.996.033-2.18.668-2.982.017-.021.038-.038.054-.056.085 1.644.794 3.004 2.757 3.256.726.111 1.344-.041 1.864-.363v.003Zm-9.366-.927c.095-2.38.929-5 3.003-6.308.523.028.918.364 1.165.824.253.405.615.827.534 1.339-.082.716-.977 1.062-1.318 1.681-.59 1.087-.709 2.388-.709 3.613-.105 1.439.112 2.875-.118 4.308-.05.841-.443 1.27-1.263 1.38a6.323 6.323 0 0 1-1.345-.27c-.277-2.186-.196-4.384.051-6.57v.003Zm36.173 37.197c0 .47-.067 1.072-.128 1.608-1.722 0-3.438-.269-5.161-.079-1.391.09-2.779.27-4.178.291-1.192-.042-2.384-.066-3.577.027-5.137.204-10.311.038-15.479.007-3.556-.072-7.086-.477-10.636-.664-1.206-.076-2.405.131-3.617-.021.03-.581.05-1.166.074-1.751.03-1.353.156-2.699.243-4.052.098-2.145.216-4.283.298-6.432.074-1.464.314-2.92.253-4.391-.088-1.142-.166-2.28-.098-3.422.027-3.028-.06-6.062.192-9.097.02-.612.038-1.225.078-1.837.247.1.56.073.828-.003.5-.066 1-.035 1.5-.039.742 0 1.482.205 2.16.502.632.46 1.436.616 2.2.651 1.05-.011 2.057-.422 2.908-1.031.875-.554 1.868-.796 2.874-.955.514-.014 1.023-.104 1.534-.16.297-.013.59-.024.888-.038a.71.71 0 0 0 .8-.034c3.266-.149 6.532-.308 9.805-.336.352.242.835.059 1.27 0h.905c.335-.01.67-.028 1.004-.041 2.05.346 1.928 2.301 4.488 2.965.956.104 1.834-.498 2.712-.81a11.872 11.872 0 0 1 4.081-.782.668.668 0 0 0 .395-.104c.081 0 .158 0 .236-.003v.263c-.226 4.903.655 9.834.865 14.726.213 2.876.111 5.748.067 8.626.01 2.139.2 4.277.223 6.416h-.007Zm-6.653-35.834c.246 1.481.219 3.011-.173 4.464-.162.855-.641 1.173-1.469 1.149a4.436 4.436 0 0 1-1.064-.184c-.135-.083-.229-.221-.337-.335-.274-3.121.662-7.097-2.003-9.398-.027-.021-.054-.045-.085-.066 0-.024 0-.045-.007-.066-.178-.636-.206-1.242-.037-1.896.085-.332.25-.678.561-.84.044-.014.091-.035.135-.042.392.187.75.464 1.142.661 2.06 1.464 3.006 4.093 3.337 6.553Zm-11.595-32.2c.972.222 1.864.907 2.408 1.758.398.768.26 1.699.223 2.536-.406 2.512-1.976 4.896-4.347 5.82-.892-.18-1.149 1.101-.314 1.381.314.086.621 0 .918-.132.298.104.635.167.875.263.405.194.666.623.868 1.018l-.01.072a.69.69 0 0 0 .169.502c.47 2.291 1.266 4.509 2.158 6.661.862 2.135 1.892 4.353 1.426 6.723-.203 1.837-.973 2.498-2.598 2.751.493-1.021.683-2.18.422-3.336-.189-.889-1.472-.623-1.324.273.213.921.02 1.869-.429 2.679-.02.01-.04.017-.06.031a.673.673 0 0 0-.287.505 4.514 4.514 0 0 1-.426.488c-.689.467-1.611.477-2.418.36.577-1.121.793-2.499.503-3.772-.196-.889-1.48-.619-1.324.273.601 2.523-1.567 5.71-3.972 3.924.746-1.045 1.148-2.505 1.3-3.706.152-.899-1.131-1.166-1.32-.283-.18 1.055-.392 2.27-1.05 3.145-.254.045-.477.256-.548.557-.047.035-.091.073-.138.104-.456.304-.99.166-1.476.031-1.331-.426-1.03-2.298-.983-3.419.189-1.01.59-2.038.932-3.02.179-.533.703-.959.689-1.547-.027-.356-.297-.675-.655-.692a.69.69 0 0 0-.723.644c-.145.314-.378.605-.503.937-.051.125-.105.253-.159.388-.328-.118-.679-.187-.966-.391-.51-.516-.8-1.315-.537-2.028.226-.993.936-1.726 1.6-2.443.693-.584 1.257-1.304 1.943-1.892.736-.571 1.554-1.014 2.337-1.512 1.074-.755 2.189-2.094 1.875-3.516-.253-1.841-2.294-2.135-3.307-3.381-1.348-1.73-1.182-4.148.625-5.473.953-.71 2.124-.907 3.25-1.232.013.11.026.221.033.332.04 1.131.003 2.266-.05 3.398a4.739 4.739 0 0 1-.024.294c-.824.021-2.104-.007-2.074.886.172 1.083 1.317.436 2.04.481.72.093 1.347-.263 1.939-.637.854-.426 1.513-1.128 2.252-1.723.906-.492.28-1.772-.6-1.267-.551.402-1.044.876-1.565 1.315a9.174 9.174 0 0 1-.61.388c.084-1.325.134-2.665-.052-3.972 1.324-.782 2.371-1.99 4.074-1.544h-.01Zm22.22-13.366c.247-.301.575-.492.939-.595 2.405-.855 3.29 1.349 3.662 3.356.101 1.087-.152 2.201-.436 3.242-.75 1.561-1.952 2.91-3.57 3.53-.76-.16-1.071.809-.574 1.211a.697.697 0 0 0 .219.2c1.017.402 2.148.063 3.212.146.456.034.905.148 1.341.287.247.232.605.308.949.37a.671.671 0 0 0 .838.228c1.229 1.357 2.601 2.585 3.702 4.066 1.351 1.675 2.56 3.592 3.056 5.723.554 2.768.034 5.536-2.327 7.287.24-1.401.318-2.844.058-4.235-.162-.675-.497-2.035-1.419-1.564-.746.484.041 1.253.105 1.882.27 1.8.061 3.761-.524 5.485-.432.737-1.04 1.723-1.955 1.584.439-.844.746-1.757.807-2.712.159-1.468.314-2.966-.095-4.409-.25-.875-1.513-.508-1.303.371.398 1.709.192 3.557-.217 5.245-.651 1.706-1.867 3.256-3.478 4.09a2.383 2.383 0 0 1-.659.097c.324-.384.618-.789.871-1.208.939-1.923 1.733-4.048 1.72-6.224-.082-.623.006-1.737-.882-1.658a.696.696 0 0 0-.581.779c.311 1.446-.111 2.882-.5 4.266-.689 2.055-1.888 3.945-3.86 4.931-1.182.581-2.743.706-3.709-.339-1.351-.744-1.881-2.277-2.134-3.741-.129-.917-.443-2.072.077-2.892.568-.08 1.216.069 1.784.186l-.007.007c.993.609 2.094 1.751 3.35 1.07 1.507-.855 2.979-3.429 2.625-5.229-.166-.636-.463-1.29-.97-1.719-.885-.634-2.192-1.021-3.215-.54-1.743.92-2.145 3.055-3.594 4.252-1.476.997-2.205-.366-2.492-1.712-.331-1.637-.159-3.471.709-4.91.824-1.281 1.854-2.364 2.905-3.443.327-.471.699-.935 1.026-1.422.213-.135.375-.388.463-.637.368-.46.679-.965 1.017-1.453.192-.26.442-.457.658-.692a.687.687 0 0 0 .159-.364c.203-.456-.128-1.117-.767-.979-.432.1-.881.149-1.368.132-.584-.049-1.077-.405-1.557-.72a2.004 2.004 0 0 1-.57-.647c-.433-.689-.906-1.381-.872-2.235-.169-1.924.527-3.723 2.216-4.696.638-.422 1.358-.661 2.077-.899.054.124.115.249.166.373.368 1.177.391 2.436.368 3.661-.024 0-.051.004-.075.007-.567.01-1.202.052-1.175.803.091 1.159 2.591.422 3.192.027.888-.609 2.479-3.027 2.036-4.121-.239-.501-1.013-.501-1.229.021-.064 1-.544 1.734-1.152 2.557a1.211 1.211 0 0 1-.229.249c-.014-.308-.038-.609-.021-.837a8.692 8.692 0 0 0-.621-3.249c.692-.436 1.273-1.055 1.827-1.657l.003.017Zm-5.377 27.498c1.159-1.118 1.544-2.917 2.993-3.73 2.634-.09 2.574 2.166 1.334 3.913-.334.477-.699 1.093-1.31 1.208-.48-.032-.831-.468-1.243-.689-.5-.398-1.122-.689-1.774-.699v-.003ZM94.497 89.58v.02c0-.014 0-.027-.004-.045v.024h.004Zm16.121-8.578c-.193 1.574-.416 3.152-.727 4.706-.732 4.145-4.286 3.622-6.974 1.657-1.402-1.024-2.469-2.374-3.5-3.758a.754.754 0 0 0-.128-.339c-.1-.135-.233-.28-.273-.488-.196-.76-.558-1.48-.655-2.266.06-1.464 1.557-2.221 2.61-2.934a.69.69 0 0 0 .578-.582.697.697 0 0 0-.567-.788 1.12 1.12 0 0 0-.48.072.55.55 0 0 0-.142.042c-.463.214-.925.418-1.358.699-.456.297-.891.626-1.347.924-.754.467-1.591.778-2.284 1.352-2.168 1.931-3.343 4.734-4.938 7.135-1.465 2.7-3.779 5.882-6.88 3.197-.533-1.08.105-2.373.362-3.463.604-2.256.307-4.685-.645-6.793l-.162-.356a.75.75 0 0 0 0-.336c-.54-1.397-1.389-3.249-.294-4.602a8.12 8.12 0 0 1 .523-.508c.108-.08.213-.166.335-.222.327-.17.439-.619.267-.937-.173-.298-.413-.377-.662-.336a.594.594 0 0 0-.403-.014c-1.496.391-2.783 1.305-3.84 2.447-1.918 1.82-3.242 4.117-4.698 6.31-.915 1.105-1.574 2.374-2.283 3.617-.527.861-1.172 1.63-1.837 2.38a10.276 10.276 0 0 1-3.371 2.983c-1.52.903-3.695.73-4.117-1.311-.298-2.063.84-4.056 1.817-5.79 2.9-5.542 1.692-8.892-3.668-11.542a1.045 1.045 0 0 0-.233-.115l-.041-.02c-.338-.149-.746.055-.875.394-.155.405.068.692.375.882.334.478.45 1.1.328 1.675-.21 1.284-1.192 2.156-2.135 2.92-.169.09-.355.225-.5.381-1.057.65-2.12 1.287-3.276 1.727-1.547.598-3.199.827-4.826 1.069-2.45.294-4.976.308-7.337-.502-4.1-1.875-7.531-7.107-1.695-9.346 1.21-.681 2.55-.871 3.898-1.013 2.165-.343 4.31-.92 6.363-1.7 5.262-2.39 9.11-8.373 10.869-13.833 2.03-5.57 3.313-11.422 3.553-17.373.517-4.495.763-9.024 1.834-13.433.378-1.691.733-3.397 1.23-5.062a39.532 39.532 0 0 1 3.171-6.972c1.213-1.81 2.516-3.612 4.286-4.889 2.07-1.53 4.445-2.55 7.015-2.675 5.475-.903 10.265 1.793 13.28 6.408 4.304 6.15 3.885 13.07 4.712 20.2.534 4.99 1.281 9.994 2.76 14.79.952 2.76 1.928 5.574 3.786 7.854 2.699 3.979 5.894 8.166 10.514 9.865 1.821.623 3.722.965 5.611 1.283 1.29.33 2.84.294 3.816 1.34.845.871.801 2.214.527 3.328-.304.841-.996 1.464-1.675 1.997-1.439.892-2.999 1.726-4.651 2.086-1.733.02-3.465.093-5.198.18a.709.709 0 0 0-.176-.059c-.662-.2-1.361-.377-1.814-.951-.905-.907-.712-2.357.098-3.26a.669.669 0 0 0 .271-.45c.054-.36-.2-.747-.568-.788-.246-.025-.473.086-.672.27-.361.21-.699.65-.993.885-.821.9-1.287 1.997-1.574 3.166a.62.62 0 0 0-.132.332c-.01.115-.01.232-.013.35-.226 1.207-.297 2.467-.392 3.647-.135 1.768.328 3.498.226 5.263l-.006-.007Zm36.234 46.03c.057-1.488-.014-2.983-.699-4.329-.277-.481-.294-1.176-.764-1.508-.493-.294-1.158.252-.962.809.223.627.49 1.232.733 1.848.351.865.378 1.792.341 2.713.054 1.024.013 2.09-.446 2.983a14.99 14.99 0 0 0 .142-1.679c-.095-1.844-.669-3.598-1.263-5.325-.281-.868-1.53-.47-1.294.398.625 1.959 1.452 4 1.121 6.097-.165 1.239-.503 2.453-1.317 3.418-.199.194-.402.395-.604.596.729-2.156.956-4.544.567-6.533a37.742 37.742 0 0 0-.574-2.284.677.677 0 0 0-.841-.463.703.703 0 0 0-.453.861c1.152 3.294.824 6.619-.706 9.657a.715.715 0 0 0-.206.391c-.064.118-.125.236-.192.353-1.503 2.367-4.698 3.921-3.52-.491.294-1.004.747-1.952 1.406-2.754a3.937 3.937 0 0 0 .972-2.9c-.131-3.668-2.32-4.889-4.877-2-1 .931-1.8 2.076-3.07 2.661-.817.408-1.986.671-2.77.083-.108-1.927 1.152-3.595 2.236-5.052.71-1.183 1.578-2.239 2.425-3.318.672-.799 1.243-1.886.777-2.938-.648-1.661-2.445-2.11-3.827-2.917-.621-.401-.77-1.256-.871-1.944-.095-.955.493-1.869 1.304-2.308 1.067-.543 2.158-1.083 3.327-1.363.749-.142 1.523-.177 2.225-.509.058.962.092 1.924.115 2.882-.229.08-.462.146-.675.194-.608.017-1.652.176-1.439 1.038.135.46.648.595 1.04.401.514-.086 1.054-.076 1.53-.314.672-.34 1.412-.564 1.956-1.118.5-.554.885-1.201 1.418-1.727.176-.211.341-.429.372-.712.064-.519-.486-.976-.966-.741a.707.707 0 0 0-.382.495c-.449.481-.871.983-1.236 1.533-.084.09-.179.173-.28.252a44.045 44.045 0 0 0-.162-2.972c.547-.419 1.074-.875 1.688-1.194.419-.218.892-.47 1.372-.311.8.315 1.526 1.052 1.57 1.965.102 1.934-.891 3.633-2.036 5.083-.068.08-.136.166-.227.215a.708.708 0 0 0-.209.955.67.67 0 0 0 .932.214 9.37 9.37 0 0 0 .334-.328c.261-.063.46-.232.764-.336.733-.083 1.567.287 2.104.785a.635.635 0 0 0 .466.246c.274.426.544.855.824 1.27.946 1.63 2.088 3.159 2.787 4.92.368 1.128.635 2.318.658 3.512-.033.557-.28 1.101-.628 1.55l-.01-.01Z"/><path fill="#0D0C22" d="M134.227 116.679c-.324.18-.399.651-.209.955.25.277.331.661.432 1.021.159.837-.162 1.699-.608 2.408-.304.519-.925 1.322-.186 1.758.669.353 1.01-.446 1.274-.934.577-.889.972-1.966.905-3.056-.108-.788-.48-2.743-1.611-2.152h.003ZM132.221 124.416c.432 1.104 1.796.263 1.162-.723-.467-.9-1.693-.135-1.162.723ZM142.249 117.731c-.369 0-.666.343-.659.709.01.384.328.675.692.675.365 0 .666-.342.659-.709a.694.694 0 0 0-.692-.675ZM34.373 135.364c-.236.291-.131.754.149.969.858.547 1.253-.793 1.888-1.145.237-.201.537-.253.81-.378a.711.711 0 0 0 .217-.955c-.845-1.045-2.52.782-3.064 1.509ZM33.83 136.994c-.369 0-.663.353-.65.719a.694.694 0 0 0 .703.665c.369 0 .662-.353.649-.72a.694.694 0 0 0-.703-.664ZM53.082 153.208a.686.686 0 0 0-.737.626c-.013.128-.097.236-.155.346-.3.613-1.371 1.253-.723 1.973.716.622 1.26-.412 1.655-.914.46-.547 1.007-1.834-.04-2.031ZM49.842 157.315c.108 1.031 1.554.765 1.334-.242-.108-1.028-1.553-.765-1.334.242ZM56.354 170.633c-.182-.796-.246-1.612-.388-2.412-.118-.356-.49-.57-.845-.456a.7.7 0 0 0-.445.865c.094.747.192 1.498.347 2.235.18.893 1.466.661 1.335-.235l-.004.003ZM55.77 173.865c.415.848 1.628.211 1.206-.626-.412-.848-1.628-.211-1.206.626ZM67.385 42.975c1.105.187.926-1.824 1.074-2.564.098-1.792.27-3.602.2-5.394a.68.68 0 0 0-.797-.537c-.446.09-.592.547-.52.959-.031.948-.055 1.896-.102 2.844-.067.938-.105 1.882-.2 2.82-.053.63-.533 1.647.345 1.875v-.003ZM66.784 45.999a.694.694 0 0 0 .497-.176.71.71 0 0 0 .223-.471c.023-.356-.26-.737-.629-.737a.694.694 0 0 0-.496.176.702.702 0 0 0-.223.471c-.024.356.26.737.628.737Z"/></g><defs><clipPath id="a"><path fill="#fff" d="M0 0h150v213.328H0z"/></clipPath></defs></svg>