<svg width="128" height="110" viewBox="0 0 128 110" fill="none" xmlns="http://www.w3.org/2000/svg">
<g clip-path="url(#clip0_9218_4080)">
<path d="M127.856 41.5911C127.466 36.8409 125.575 32.3384 122.857 28.4415C120.715 24.9565 118.17 21.7042 115.35 18.7443C113.966 17.1629 112.421 15.6859 110.645 14.5312H110.642C110.315 14.2328 109.982 13.9404 109.64 13.6629C107.593 11.9681 105.4 10.4553 103.119 9.07682C100.428 7.64162 97.6164 6.43618 94.7839 5.30532C92.7135 4.54446 90.6611 3.77464 88.5428 3.15103C85.1972 2.24098 81.7735 1.69197 78.3529 1.11013C75.4154 0.6924 72.4899 0.203061 69.5193 0.0508878C65.6486 -0.0237067 61.7689 -0.0296742 57.9103 0.286606C55.0867 0.579017 52.2392 0.638692 49.4277 1.05642C47.0693 1.42343 44.7409 2.00526 42.4725 2.74822C38.3077 4.04617 34.065 5.06065 30.0412 6.79721C27.5808 7.92508 25.3424 9.47068 23.008 10.8253C18.6662 13.451 13.9344 15.9902 11.2159 20.4212C9.29252 22.6918 7.22214 24.8222 5.65886 27.3853C4.08958 29.9752 2.70933 32.6815 1.66214 35.5191C0.782987 38.1209 0.416921 40.8839 0.0808607 43.5991C-0.525248 51.8523 2.25925 60.4694 6.66704 67.4097C8.23032 69.7937 10.1597 71.9749 12.137 74.0426C13.6373 75.5077 15.2816 76.7072 16.9109 78.0349C19.5904 80.1415 22.4889 81.9407 25.3544 83.7757C26.2396 84.3456 27.1397 84.9245 27.8899 85.6674C27.9019 85.7391 27.9379 85.8107 27.9979 85.8793C28.1389 86.0255 28.2799 86.1717 28.421 86.3149C28.712 86.6014 28.907 86.9624 29.1231 87.3055C29.4111 87.7651 29.7382 88.1052 30.0232 88.5707C30.0472 88.6095 30.0682 88.6483 30.0923 88.687C30.4583 89.5434 30.6294 90.5012 30.6384 91.4321C30.6083 92.1781 30.3623 92.9031 30.1553 93.655C29.3451 96.3464 26.6296 98.7454 24.0972 99.8911C23.4341 100.255 22.7199 100.494 21.9998 100.718C21.1116 101.076 20.2625 101.264 19.2813 101.246C17.9761 101.392 16.6828 100.932 15.3836 101.213C14.4204 101.359 13.9314 102.463 14.2044 103.337C14.3454 103.8 14.7505 104.095 15.1256 104.376C15.3806 104.674 15.7617 104.961 16.0257 105.166C17.274 105.978 18.5822 106.712 19.9324 107.342C21.4057 107.9 22.8189 108.625 24.3672 108.956C25.1444 109.168 25.9035 109.508 26.6986 109.666C28.1329 109.923 29.6032 109.94 31.0584 109.991C33.8609 110.164 36.4834 109.081 39.2259 108.75C43.7927 108.01 47.8855 105.572 51.4021 102.654C53.8385 100.565 56.0739 98.1844 58.6094 96.1674C59.8066 95.1797 61.0578 94.1712 62.5941 93.7654C65.5736 93.4253 68.5832 93.1866 71.5897 93.1866C73.9481 93.1239 76.2766 92.6167 78.599 92.2318C81.4825 91.6768 84.339 91.0084 87.2195 90.4355C89.1699 90.0208 90.9882 89.1495 92.8455 88.4483C96.6232 86.8878 100.545 85.4854 103.924 83.1372C105.889 81.7318 108.07 80.6547 110.051 79.2762C113.312 76.5878 116.85 74.1023 119.445 70.7277C120.784 68.821 122.248 66.9979 123.43 64.9839C123.88 64.8108 124.168 63.8381 124.459 63.489C125.416 61.9076 125.767 60.0636 126.182 58.2883C126.812 55.8446 127.559 53.4188 127.784 50.8915C128.048 47.8063 128.051 44.6882 127.85 41.6L127.856 41.5911Z" fill="#F3F3F4"/>
<path d="M84.0691 3.49997C56.4792 -3.26426 19.2935 4.38913 5.03194 31.0253C-4.37175 49.474 4.40483 68.8149 20.7188 79.7952C20.8388 79.8966 20.9978 80.007 21.1598 80.0608C21.1838 80.0816 21.2078 80.1025 21.2349 80.1204C21.7029 80.4069 22.195 80.6515 22.6511 80.9618C23.8903 81.8212 25.0905 82.7939 26.3838 83.5995C28.0851 84.7423 29.8434 86.0731 30.8186 87.9349C32.6579 90.8501 31.4997 93.8249 29.6754 96.4089C26.8159 100.401 21.0098 103.776 16.0229 102.227C16.0169 102.227 16.0139 102.227 16.0079 102.224C15.8219 102.168 15.6509 102.245 15.5458 102.373C15.3988 102.415 15.2788 102.529 15.2338 102.675C15.2398 102.66 15.2458 102.645 15.2548 102.633C15.2428 102.654 15.2338 102.678 15.2278 102.699C15.2278 102.69 15.2308 102.684 15.2338 102.675C15.2338 102.684 15.2278 102.69 15.2278 102.699C15.2278 102.702 15.2278 102.705 15.2278 102.708C15.2278 102.72 15.2188 102.731 15.2158 102.743C15.2158 102.731 15.2218 102.72 15.2278 102.708C15.0447 103.486 18.0693 105.104 18.6874 105.42C20.8778 106.458 23.1342 107.335 25.5286 107.783C27.1009 108.177 28.7302 108.538 30.3565 108.645C31.9918 108.726 33.6361 108.708 35.2714 108.607C36.8257 108.472 38.3349 108.028 39.8382 107.631C44.7201 106.243 48.9058 103.221 52.7255 99.9894C54.7929 98.0887 56.5002 95.7942 58.8976 94.2665C61.4031 92.2465 64.8387 91.6557 67.9953 91.9601C68.5684 92.0347 69.1475 92.0705 69.7236 92.0705C69.7236 92.0705 69.7236 92.0734 69.7296 92.0764C69.7686 92.0764 69.8046 92.0734 69.8436 92.0705C70.0176 92.0705 70.1917 92.0675 70.3627 92.0585C70.4137 92.0585 70.4647 92.0526 70.5097 92.0376C92.7047 90.8799 118.8 78.7539 125.66 56.2532C133.206 29.2768 108.154 8.94238 84.0781 3.50295L84.0691 3.49997ZM107.839 78.4465C99.849 84.1575 90.5833 87.8275 80.9366 89.7998C77.525 90.495 74.0623 90.9635 70.5877 91.226C70.3357 91.1067 69.9366 91.1723 69.6606 91.1813C69.1175 91.1813 68.5894 91.1216 68.0343 91.0619C65.6548 90.8262 63.1554 91.1216 60.929 92.0257C59.4407 92.5896 58.2225 93.6519 56.9503 94.5768C55.0089 96.1344 53.4937 98.2051 51.5583 99.8074C49.698 101.311 47.7896 102.77 45.7463 104.026C40.3903 107.335 33.8011 108.595 27.599 107.359C25.2706 106.775 22.9482 106.396 20.7278 105.336C19.4375 104.823 18.1833 104.208 17.0461 103.409C17.0341 103.403 17.0251 103.394 17.0131 103.388C17.0191 103.388 17.0251 103.388 17.0311 103.391C22.5581 104.164 28.4181 100.47 31.1216 95.7882C33.114 92.7418 33.207 89.5671 31.0436 86.5833C29.6334 84.5036 27.392 83.2683 25.3906 81.8242C24.1724 80.9678 23.0322 80.0518 21.6939 79.3446C21.6579 79.3238 21.6219 79.3088 21.5829 79.2999C19.6956 78.0139 17.8863 76.6175 16.1669 75.1166C14.6547 73.7859 13.2144 72.3656 11.8672 70.8558C3.21362 61.3316 -0.438039 48.1642 3.95775 35.8292C8.04148 24.1925 17.8923 15.4619 28.7662 10.0195C56.9653 -4.20415 100.746 0.128296 119.854 27.1703C132.279 45.5921 125.168 66.2071 107.839 78.4465Z" fill="black"/>
<path d="M61.5441 45.8428C59.2427 47.0244 58.2375 50.3841 60.884 51.7835C63.2424 53.0128 66.633 50.9391 66.444 48.2537C66.1709 45.9502 63.5665 44.5717 61.5441 45.8458V45.8428Z" fill="black"/>
<path d="M45.3502 45.9442C42.5657 45.4758 40.0363 51.0107 43.5199 51.6134C44.7921 51.694 46.2084 51.2971 47.0515 50.3035C47.4806 49.6978 47.7777 48.9071 47.8137 48.1672C47.7717 46.911 46.5204 46.0576 45.3502 45.9442ZM44.6001 47.6569C44.5761 47.6718 44.5521 47.6868 44.5281 47.7017C44.6841 47.5794 44.8641 47.4809 45.0532 47.4272C45.0652 47.4391 45.0742 47.4511 45.0832 47.463C44.9122 47.5018 44.7471 47.5674 44.5971 47.6569H44.6001Z" fill="black"/>
<path d="M84.2221 46.0278C83.4869 45.6071 82.5658 45.5146 81.7676 45.8189C80.8045 45.8875 79.8713 46.3411 79.3222 47.1586C78.8241 47.8896 78.6441 48.9161 79.1152 49.7038C79.1572 50.3334 79.4632 51.0047 80.0423 51.315C80.9545 51.7984 82.0467 51.3986 82.8658 50.9092C84.7952 50.023 86.6135 47.5316 84.2221 46.0278Z" fill="black"/>
<path d="M120.58 58.3597C119.484 61.4062 118.173 64.4079 115.944 66.8277C114.843 68.1973 113.666 69.4415 112.433 70.7185C112.181 71.1273 111.317 71.4466 111.68 72.0075C111.851 72.2313 112.181 72.2313 112.373 72.0404C113.054 71.4436 113.615 70.7245 114.276 70.1039C115.827 68.421 117.336 66.6725 118.644 64.7928C119.8 62.7817 120.781 60.6304 121.474 58.4254C121.474 57.8764 120.652 57.8286 120.58 58.3627V58.3597Z" fill="black"/>
<path d="M110.192 72.849C109.946 72.849 109.742 73.0519 109.742 73.2965C109.742 73.5412 109.946 73.7441 110.192 73.7441C110.438 73.7441 110.642 73.5412 110.642 73.2965C110.642 73.0519 110.438 72.849 110.192 72.849Z" fill="black"/>
<path d="M54.9399 92.9417C53.8837 93.8219 52.9955 94.8782 52.0564 95.8748C51.0572 96.9519 50.139 98.1872 48.7948 98.8645C48.4857 98.9749 48.1197 99.1987 48.2787 99.5777C48.6988 100.494 50.6971 98.6378 51.1232 98.22C52.4164 96.8863 53.5896 95.4362 54.9279 94.1502C55.1409 93.9532 55.375 93.7742 55.588 93.5653C55.9931 93.1416 55.351 92.53 54.9399 92.9417Z" fill="black"/>
<path d="M45.9563 100.222C45.7103 100.222 45.5092 100.431 45.5122 100.676C45.5122 100.92 45.7223 101.117 45.9683 101.117C46.2144 101.117 46.4154 100.908 46.4124 100.664C46.4124 100.419 46.2024 100.222 45.9563 100.222Z" fill="black"/>
<path d="M9.95575 64.8942C9.48466 64.5302 9.26562 63.9334 8.95357 63.4411C7.75335 61.5195 6.65215 59.5503 6.13306 57.3184C5.97403 56.9096 5.86301 56.0801 5.2479 56.295C5.02286 56.3904 4.91784 56.659 5.01386 56.8828C5.22089 57.3363 5.33792 57.8137 5.47894 58.2941C5.97403 60.1381 6.88619 61.809 7.90038 63.4172C8.38046 64.1602 8.69852 65.0643 9.42165 65.6133C9.89874 65.9564 10.4238 65.2433 9.95575 64.8942Z" fill="black"/>
<path d="M5.13687 53.9766C5.13087 53.7289 4.92083 53.5409 4.67478 53.5409C4.42874 53.5409 4.2307 53.7587 4.23671 54.0004C4.24271 54.2481 4.44974 54.4361 4.69879 54.4361C4.94783 54.4361 5.14287 54.2182 5.13687 53.9766Z" fill="black"/>
<path d="M72.6611 4.32947C70.2517 3.72973 67.7552 3.73868 65.2828 3.72675C62.9724 3.93263 60.638 3.98633 58.3456 4.38019C58.1055 4.42495 57.9285 4.6368 57.9615 4.88744C57.9945 5.12017 58.2315 5.31412 58.4716 5.26638C59.6988 5.05154 60.947 4.95606 62.1892 4.83373C64.0826 4.72631 66.0599 4.5264 67.9713 4.66962C69.4536 4.69946 70.9898 4.83074 72.4451 5.19775C73.0212 5.32904 73.2282 4.47269 72.6611 4.32947Z" fill="black"/>
<path d="M55.2579 5.7945C55.5039 5.7945 55.705 5.58265 55.702 5.34097C55.702 5.0963 55.4919 4.89937 55.2459 4.89937C54.9998 4.89937 54.7988 5.11122 54.8018 5.3529C54.8018 5.59757 55.0118 5.7945 55.2579 5.7945Z" fill="black"/>
<path d="M105.985 31.7265C105.739 31.7265 105.535 31.9354 105.538 32.1771C105.538 32.4217 105.748 32.6217 105.991 32.6217C106.234 32.6217 106.441 32.4128 106.438 32.1711C106.438 31.9264 106.228 31.7265 105.985 31.7265Z" fill="black"/>
<path d="M51.3843 22.9154C51.6303 22.9154 51.8343 22.7066 51.8313 22.4649C51.8313 22.2202 51.6213 22.0203 51.3783 22.0203C51.1352 22.0203 50.9282 22.2292 50.9312 22.4708C50.9312 22.7155 51.1412 22.9154 51.3843 22.9154Z" fill="black"/>
<path d="M23.7162 41.1582C23.4701 41.1582 23.2661 41.3671 23.2691 41.6088C23.2691 41.8535 23.4791 42.0534 23.7222 42.0534C23.9652 42.0534 24.1722 41.8445 24.1692 41.6028C24.1692 41.3582 23.9592 41.1582 23.7162 41.1582Z" fill="black"/>
<path d="M38.6768 92.5091C38.4308 92.5091 38.2268 92.7179 38.2298 92.9596C38.2298 93.2043 38.4398 93.4042 38.6828 93.4042C38.9259 93.4042 39.1329 93.1954 39.1299 92.9537C39.1299 92.709 38.9199 92.5091 38.6768 92.5091Z" fill="black"/>
<path d="M84.21 65.6461C83.964 65.6461 83.76 65.855 83.763 66.0967C83.763 66.3413 83.973 66.5413 84.2161 66.5413C84.4591 66.5413 84.6661 66.3324 84.6631 66.0907C84.6631 65.846 84.4531 65.6461 84.21 65.6461Z" fill="black"/>
<path d="M31.8268 64.7898C31.5807 64.7898 31.3767 64.9986 31.3797 65.2403C31.3797 65.485 31.5897 65.6849 31.8328 65.6849C32.0758 65.6849 32.2828 65.4761 32.2798 65.2344C32.2798 64.9897 32.0698 64.7898 31.8268 64.7898Z" fill="black"/>
<path d="M80.4924 19.0544C80.7385 19.0544 80.9425 18.8455 80.9395 18.6039C80.9395 18.3592 80.7295 18.1593 80.4864 18.1593C80.2434 18.1593 80.0363 18.3681 80.0393 18.6098C80.0393 18.8545 80.2494 19.0544 80.4924 19.0544Z" fill="black"/>
<path d="M111.197 50.8675C110.951 50.8675 110.747 51.0763 110.75 51.318C110.75 51.5627 110.96 51.7626 111.203 51.7626C111.446 51.7626 111.653 51.5537 111.65 51.312C111.65 51.0674 111.44 50.8675 111.197 50.8675Z" fill="black"/>
<path d="M68.0792 38.3565C67.8332 38.3565 67.6291 38.5653 67.6321 38.807C67.6321 39.0517 67.8422 39.2516 68.0852 39.2516C68.3282 39.2516 68.5353 39.0427 68.5323 38.8011C68.5323 38.5564 68.3222 38.3565 68.0792 38.3565Z" fill="black"/>
<path d="M28.4391 22.5305C28.193 22.5305 27.989 22.7394 27.992 22.9811C27.992 23.2257 28.202 23.4257 28.4451 23.4257C28.6881 23.4257 28.8951 23.2168 28.8921 22.9751C28.8921 22.7304 28.6821 22.5305 28.4391 22.5305Z" fill="black"/>
<path d="M60.0587 70.0084C59.5696 70.0203 59.5966 70.5544 59.6086 70.9095C59.6086 71.1542 59.8216 71.3571 60.0617 71.3541C60.5508 71.3422 60.5238 70.8081 60.5118 70.453C60.5118 70.2083 60.2987 70.0054 60.0557 70.0084H60.0587Z" fill="black"/>
<path d="M77.972 83.8621C77.726 83.8621 77.5219 84.071 77.5249 84.3126C77.5249 84.5573 77.735 84.7572 77.978 84.7572C78.2211 84.7572 78.4281 84.5484 78.4251 84.3067C78.4251 84.062 78.2151 83.8621 77.972 83.8621Z" fill="black"/>
</g>
<defs>
<clipPath id="clip0_9218_4080">
<rect width="128" height="110" fill="white"/>
</clipPath>
</defs>
</svg>
