<svg xmlns="http://www.w3.org/2000/svg" width="150" height="163" fill="none"><g clip-path="url(#a)"><path fill="#F3F3F4" d="M49.673 108.238c-.21-.647-.43-1.286-.723-1.904-1.3-2.591-2.616-5.414-5.04-7.121a5.406 5.406 0 0 0-.89-.671c-.092.31-.175.562-.228.716-.192 1.051-.824 1.97-.803 3.06-.028.324-.09.646-.16.964 2.228 1.376 4.554 2.633 6.67 4.142.395.265.804.513 1.174.81v.004Zm100.215-40.184c.032.262.042.528.028.786-.059.86-.548 1.624-.552 2.498.821 1.12.786 2.692.224 3.922-.21.517-.646.967-.681 1.537.538 2.58-1.205 2.996-1.687 5.239-.437 1.624.489 3.373-.074 4.966-.824 1.816-2.196 3.71-4.348 3.877-.328.674-.402 1.446-.782 2.096-1.121 1.83-3.538 2.11-5.431 1.47-.929 1.949-2.428 4.265-4.873 4.128-1.725-.167-3.157-1.152-4.407-2.308-.325.387-.605.806-.923 1.205-.81.712-1.781 1.47-2.912 1.453-1.666.028-2.994-1.212-3.762-2.588-.506-1.111-.943-2.257-1.415-3.388-.293-.96-.705-1.865-1.079-2.791a49.253 49.253 0 0 0-1.324-4.516c-.206-.653-.268-1.348-.506-1.987-.629-1.01-1.261-2.106-2.368-2.658-2.11-.804-2.183-.699-4.125.352-1.896.853-4.069 2.603-3.374 4.932.643 1.977 2.257 3.402 3.849 4.638 1.265.668 2.421 1.488 3.545 2.376 2.033 1.47 3.678 3.653 3.821 6.23.088.545.15 1.136-.185 1.614-.953 1.107-2.976 1.449-4.38 1.449-1.889-.146-3.793-.251-5.581-.96-.967-.363-1.928-.737-2.913-1.048-.108-.045-.241-.094-.381-.147-.415-.111-.834-.188-1.278-.167-.244.024-.674-.014-.73.297-.045 1.201 1.097 1.959 1.712 2.874 1.742 1.46 3.768 2.274 5.734 3.325.807.343 1.66.573 2.403 1.059 1.852 1.096 3.797 2.196 5.159 3.904 1.041 1.342 1.764 3.056 1.677 4.771.436 3.517-4.048 4.216-6.682 4.073-1.03-.025-2.088.052-3.066-.342a26.69 26.69 0 0 1-2.92-1.356 1.13 1.13 0 0 1-.217-.118c-.395-.22-.782-.454-1.163-.706-.496-.185-1.02-.3-1.537-.423-.716-.174-1.32-.611-1.952-.974-1.554-.852-2.993-1.907-4.191-3.22-1.129-1.184-2.218-2.508-3.835-3.011-1.359-.363-.866 1.729-.556 2.42.549 1.279 1.649 2.267 2.623 3.235 2.452 2.832 5.861 5.033 7.258 8.63.363 1.39.594 2.944-.279 4.195-.674 1.421-1.551 2.193-3.203 1.9-1.753-.161-3.339-.926-4.81-1.855-1.194-.761-2.472-1.4-3.6-2.26-.685-.562-1.373-1.138-2.058-1.704a.65.65 0 0 1-.338-.129c-1.142-.838-2.012-1.967-3.043-2.927-2.389-2.214-3.709-5.34-6.028-7.607-.35-.276-.929-.437-1.334-.213-.335.573-.374 1.289-.189 1.921.192 1.055.978 1.833 1.673 2.598 1.513 1.453 2.938 2.976 4.066 4.754.915 1.477 1.914 3.101 1.694 4.914-.042 1.226-.391 2.487-1.44 3.227-.715.961-1.934 1.394-3.111 1.24-1.006-.195-1.883-.737-2.752-1.247-1.939-1.016-3.769-2.28-5.313-3.835-.6-.621-1.337-1.086-1.949-1.697-.761-.796-1.41-1.53-2.12-2.323-.754-.96-1.355-2.032-1.886-3.14-.304-.544-.597-1.096-.897-1.641-.96-1.691-1.53-3.674-2.061-5.501-.761-2.183-1.893-2.047-.828.248.559 1.627 1.429 3.196 1.327 4.963.018 1.016.157 2.092-.216 3.063-.528 1.114-1.293 2.375-2.672 2.406-1.785 0-3.262-1.4-4.324-2.71-2.1-2.151-2.661-5.288-3.985-7.89.167 1.691.181 3.434.24 5.086.66 6.594.836 13.153.794 19.765.042 4.303.22 8.606.503 12.898.031 1.247.185 2.483.16 3.73.091.818-.042 1.677-.855 2.071-2.281 1.872-4.824 3.406-7.517 4.618-.604.283-1.201.59-1.812.859-.276.126-.556.311-.87.314-.248 0-.475-.119-.695-.223-2.808-1.268-5.41-2.927-8.117-4.401-1.31-.678-2.665-1.261-3.95-1.977a.579.579 0 0 1-.259-.084c-3.08-1.687-6.077-3.52-9.175-5.169-2.878-1.788-5.777-3.576-8.756-5.183-2.222-1.188-4.373-2.62-6.605-3.73a7.76 7.76 0 0 1-1.467-.818c-1.079-.621-2.294-1.225-2.86-2.399-.308-.657-.367-1.39-.43-2.103-.126-.967-.28-1.924-.3-2.902-.276-3.44.272-6.881.234-10.317-.032-6.972.056-13.94-.084-20.908-.06-2.053-.115-4.117.07-6.168.02-.932-.189-1.917.258-2.787.08-.188.203-.346.343-.478.048-.402-.028-.86.21-1.212.523-.5 1.229-.796 1.714-1.355.706-.8 1.666-1.272 2.49-1.928a19.745 19.745 0 0 1 2.17-1.436c.638-.524 1.299-1.062 2.102-1.198.28-.206.566-.391.912-.415.25.014.43.188.65.282.167.046.334.077.505.109-.041-1.237-.02-2.49.276-3.695.57-2.676 1.048-5.425 2.376-7.852.76-1.673 1.739-3.339 3.255-4.425-.308-2.312-.402-4.188.81-6.287.611-.989 1.303-2.187 2.291-2.875.032-.387.06-.771.07-1.16.038-.726.21-1.42.44-2.098-4.156-1.73-7.209-5.665-8.588-9.905-.919-3.116-1.44-6.451-.542-9.633.653-1.935 1.698-3.828 3.255-5.176.587-.276 1.216.178 1.768.37 1.638.611 3.21 1.47 4.799 2.158 1.247.343 2.5.985 3.594 1.586 1.959.842 3.89 1.743 5.857 2.57.492.193.97.42 1.446.654.447-1.82.684-3.681 1.103-5.505.769-2.976 1.342-6.028 2.445-8.906.842-1.456 1.272-3.102 2.211-4.492 1.104-1.802 2.546-3.67 4.6-4.404 1.949-.772 3.084-.835 4.97.182 2.697 1.372 2.2 4.275 1.505 6.706-.199.691-.618 1.278-.981 1.886-.276.705-.684 1.418-.772 2.172a1.45 1.45 0 0 0 0 .175c.01-.01.021-.018.032-.032.632-.628 1.194-1.316 1.596-2.116 1.585-3.507 3.272-6.979 5.11-10.366 1.26-2.533 2.671-5.002 4.404-7.244 1.606-2.096 3.367-4.223 5.525-5.75.632-.649 1.436-1.065 2.176-1.564.37-.314.716-.653 1.191-.814 1.072-.346 2.183-.052 3.248.168 1.75.339 3.587 1.125 4.618 2.644 2.088 3.555-1.254 8.12-3.73 10.614-2.159 2.033-4.817 3.49-6.818 5.714-.744.982-1.47 2.078-1.897 3.262.032.13.08.252.157.37 1.425-.15 2.56-1.096 3.381-2.214.475-.88 1.121-1.62 1.771-2.375.44-.705 1.118-1.166 1.778-1.645.611-.653 1.083-1.428 1.855-1.92.496-.43.743-1.06 1.218-1.513a41.548 41.548 0 0 0 1.618-1.708c.866-.887 1.61-1.88 2.602-2.637 1.442-1.23 3-2.326 4.53-3.45 1.351-1.087 2.804-1.999 4.397-2.694 2.308-1.04 5.396-1.152 7.404.563 1.474 1.557 1.376 3.915 1.422 5.923.042.734-.342 1.352-.79 1.897-.401.824-1.152 1.575-1.85 2.092-1.08 1.006-2.34 1.767-3.528 2.626-1.432 1.397-3.255 2.257-4.806 3.49a68.358 68.358 0 0 1-2.483 1.6c-1.191.774-2.917 1.372-3.19 2.922.263.968 3.315-.817 3.99-1.009a63.152 63.152 0 0 0 6.548-4.16c2.396-1.606 4.873-3.094 7.356-4.572 2.057-1.229 4.498-1.997 6.873-2.312.912-.129 1.799.178 2.69.332.964.245 1.935.562 2.717 1.195 1.345 1.03 1.98 2.759 1.809 4.41a.73.73 0 0 1 .095.378c.014.89-.64 1.586-1.16 2.246-1.736 2.193-4.527 2.923-6.895 4.163-2.476 1.233-5.144 2.001-7.565 3.343-.985.513-2.333.621-2.976 1.627.706.646 1.824-.269 2.55-.534 1.827-.587 3.42-1.516 5.13-2.34 4.335-1.851 8.771-3.762 13.49-4.293 1.746-.09 3.559.482 5.05 1.373.88.72 1.858 1.45 2.305 2.529a6.65 6.65 0 0 1 .398 2.898c-.524 1.935-1.767 3.717-3.429 4.848a18.011 18.011 0 0 1-4.551 2.407c-1.572.447-3.2.635-4.782 1.023-1.341.342-2.665.74-4.013 1.04-.692.19-1.439.256-2.075.616.371.143.929.02 1.254-.018a17.398 17.398 0 0 0 2.955-.636c3-.719 5.941-1.931 9.053-1.351 1.939.416 3.908 1.673 4.383 3.657a.693.693 0 0 1 .28.408c1.229 3.891-5.683 5.658-7.977 7.503-.661.551-1.01 1.372-1.212 2.193-.046.342-.336.73-.168 1.058 1.055 1.66 2.881 3.007 4.914 2.896 1.589-.315 2.717-1.69 3.992-2.599 1.764-1.558 3.587-3.077 5.121-4.865 1.128-1.327 1.948-2.882 3.146-4.16 1.314-1.439 2.648-2.98 4.509-3.692 1.041-.454 2.253-.95 3.413-.974 1.069-.241 2.183.22 3.038.873 2.351 1.74 2.616 4.987 4.618 6.992.628.552 1.599.776 1.844 1.673.335.856.353 1.778.318 2.683-.025.325.115.597.328.831.356.43.782.82.988 1.352.217.538.2 1.142.434 1.68.489.932 1.267 1.707 1.627 2.713.566 1.932-.719 3.912-.216 5.854.817 1.492 1.163 3.22.897 4.883l.007.01Z"/><path fill="#F3F3F4" d="M46.877 109.031a.698.698 0 0 1-.541-.429c-.388.154-.849.363-1.223.056-.223-.182-.352-.496-.279-.783-.447.161-.947.433-1.422.234-.384-.167-.548-.586-.426-.974a.807.807 0 0 1-.555-.14.687.687 0 0 1-.318-.496c-1.016.374-1.638-.796-.873-1.505-.936.052-1.125-1.132-.471-1.649-.458-.265-.416-.953-.109-1.327-.377-.119-.51-.531-.46-.894.188-.716.925-1.114 1.47-1.55-.465-.476.02-1.331.663-1.16.852-.165 2.805-1.69 3.15-.252.532-.178 1.104.27 1.048.825 1.097-.332 1.562.897.66 1.491.346.017.703.255.786.597.08.332-.035.615-.227.856.552-.287 1.45-.014 1.377.702.75-.046 1.148.901.53 1.372 1.247-.579 1.935.734.748 1.422.653.234.593 1.097-.007 1.362.01.039.017.08.02.119.497.3.354 1.145-.223 1.257-.709.056-1.383.419-2.085.43-.384.185-.772.517-1.219.436h-.014Z"/><path fill="#0D0C22" d="M26.945 129.987c-.02-.206-.024-.416-.045-.622.374-.311.688-.856 1.03-1.107 1.44-1.174 2.232-2.871 2.812-4.596 2.843-7.583-5.547-18.194-13.555-13.772-1.286.705-2.386 1.666-3.021 3.004-.877 1.798-1.048 3.925-.93 5.902.19 1.673.605 3.332 1.506 4.771.409.776 1.034 1.401 1.544 2.113-.05.06-.091.126-.126.192-1.093 1.31-1.918 2.812-2.93 4.178-.915 1.463-1.824 2.927-2.85 4.317-.542.653-2.082 2.214-.549 2.699 1.499.423 2.763 1.471 4.184 2.11 2.348 1.03 4.447 2.487 6.78 3.59 1.589.86 3.276 1.506 4.907 2.274.625.276 1.317.444 1.816.943.217.231.479.273.706.199.419.154.988-.104.957-.698-.287-1.429-.12-2.972-.493-4.391-.814-3.663-1.247-7.387-1.736-11.103l-.007-.003Zm-10.844-6.846c-1.757-2.801-2.044-6.748-.626-9.741 1.073-1.987 3.388-3.115 5.62-3.133-4.764 2.679-3.241 11.397-1.198 15.654-.524-.084-1.484-.597-2.221-.656a.434.434 0 0 0-.039-.07c-.45-.716-1.079-1.341-1.54-2.054h.004Zm-.133 5.333c.38-.565.716-1.009 1.152-1.568.074-.077.147-.164.21-.258.954.112 1.764.562 2.69.712-.228.287-.43.598-.612.797-1.554 2.085-2.923 4.145-4.408 6.307 0-.003.007-.01.007-.014-1.079.287-2.27.161-3.35.486 1.552-2.071 2.84-4.331 4.304-6.462h.007Zm10.558 15.407c-1.205-.587-2.466-1.055-3.674-1.635-2.239-1.062-4.279-2.246-6.465-3.468-1.579-.72-3.088-1.582-4.614-2.396l.095-.042c.506-.248 1.068-.178 1.61-.248.593-.094 1.208-.136 1.795-.269.6.381 1.341.58 1.935.978 1.788 1.013 3.681 1.813 5.445 2.871 1.435.8 3.185 1.044 4.408 2.228a.681.681 0 0 0 .408.227l.025.112c.045.706.07 1.408.132 2.11a6.94 6.94 0 0 0-1.1-.472v.004Z"/><path fill="#0D0C22" d="M147.187 72.872c-.069-.699.186-1.342.622-1.876.444-.67.72-1.523.412-2.305-.129-.294-.346-.713-.618-1.02a.603.603 0 0 0-.147-.398 1.627 1.627 0 0 0-.366-.311c.227-.248.426-.503.565-.678.378-.527.535-1.177.496-1.82.007-.642-.192-1.295-.628-1.784-.325-.363-.741-.716-.755-1.24.07-1.03.797-1.938.681-3.01.046-1.475-.681-2.431-1.725-2.777.098-.273.15-.552.14-.772-.035-.905-.259-1.897-.912-2.56-.279-.276-.66-.426-.932-.71.034-.925.628-1.847.178-2.759-.398-.925-1.335-1.299-2.316-1.38.084-.722-.035-1.536-.622-2.018-.468-.398-1.201-.465-1.498-1.048-.122-.52.217-1.065.052-1.606-.248-1.048-1.093-1.91-2.039-2.39-2.389-1.065-4.708.549-6.441 2.096-2.043 1.848-3.761 4.038-5.511 6.158-1.429 1.774-3.046 3.388-4.729 4.925-1.156 1.012-2.491 2.04-3.989 2.553a6.91 6.91 0 0 1-1.537.447c-.464-.16-1.156-.028-1.592-.27-1.188-.328-2.194-1.04-3.112-1.85-1.153-1.02-1.872-2.358-1.872-3.933.006-.053.017-.101.027-.15.147-.35.297-.702.482-1.048.119-.189.238-.374.339-.562l.095-.147c1.019-1.209 2.539-1.781 3.918-2.448.119-.08.238-.154.36-.231a16.635 16.635 0 0 0 2.179-1.334c.43-.287.839-.597 1.209-.957.709-.66 1.048-1.652.768-2.595-.492-1.775-2.5-2.414-4.152-2.55-2.487-.087-4.859.971-7.251 1.526-1.687.451-3.427.88-5.183.769-.912-.136-2.12-.555-2.456-1.492.098-.548.842-.695 1.251-.957 1.924-.83 4.006-1.166 5.99-1.809 2.21-.8 4.61-1.45 6.761-2.441 1.111-.541 2.005-1.23 3.095-1.855.877-.5 1.865-.908 2.473-1.746 1.687-2.822-.51-5.42-3.325-6.07-2.7-.727-5.477-.133-8.068.737-2.124.663-4.223 1.92-6.256 2.944-2.441 1.243-4.984 2.295-7.54 3.272-4.028 1.233-4.81-1.39-1.656-3.656 1.676-1.024 3.36-1.74 5.263-2.379 1.684-.611 3.287-1.421 4.89-2.207 2.347-1.285 4.946-2.455 6.65-4.586.901-1.097.591-2.83-.471-3.706-.94-.72-2.078-1.16-3.234-1.39-1.799-.325-3.622.255-5.302.86-3.867 1.536-7.314 3.817-10.8 6.073-1.736 1.209-3.377 2.56-5.288 3.496-1.648.786-4.04 2.407-5.885 1.656-2.881-1.855 3.608-6.546 5.162-7.53 1.8-1.083 3.42-2.42 5.16-3.594 1.326-.891 2.633-1.813 3.771-2.948 1.844-1.54 2.162-4.244.884-6.242-1.523-2.04-4.418-1.226-6.399-.373C80.708 7.69 76.181 12.427 71.99 17.17c-1.376 1.502-2.986 2.76-4.366 4.261-1.117 1.23-2.396 2.299-3.744 3.266-.573.363-2.04.402-2.298-.346.017-1.956.894-3.835 2.2-5.27 2.375-3.178 6.15-4.995 8.777-7.95.64-.73 1.034-1.62 1.464-2.48.5-1.016 1.013-2.105.849-3.268-.224-1.963-2.131-3.36-4.07-3.137-3.883.43-6.89 3.217-9.332 6.06-1.83 1.994-3.307 4.261-4.603 6.629-1.128 1.977-2.295 3.926-3.395 5.913-.653 1.174-1.097 2.452-1.722 3.64-.709 1.246-1.48 2.455-2.26 3.656-.443.531-.838 1.261-1.544 1.457-.824.112-1.634-.552-1.798-1.348-.07-.398.02-.797.16-1.167.381-.877.772-1.75 1.202-2.605 1.222-1.701 1.572-4.363.007-5.983-1.747-1.75-4.394-.437-5.819 1.086-1.68 1.585-2.72 3.66-3.482 5.812-.681 1.746-1.233 3.534-1.708 5.343a.715.715 0 0 0-.157.563l-.028.153c-.573 2.31-1.027 4.646-1.44 6.99-.24 1.096-.422 2.214-.796 3.275-.15.36-.31.713-.482 1.062-1.826-1.048-3.632-2.158-5.584-2.962-1.387-.559-2.732-1.215-4.055-1.907-1.96-.88-3.933-1.721-5.85-2.692-.699-.283-1.384-.814-2.17-.762a.67.67 0 0 0-.53.311c-.915.726-1.816 3.423-1.834 4.366.07 1.785-.258 3.594.178 5.347.426 1.96.755 3.957 1.865 5.676.716 1.267 1.827 2.252 2.934 3.175.541.481 1.167.834 1.84 1.11 1.07.67 2.226 1 3.41 1.104-.207.353-.37.744-.538 1.093-.8 1.698-1.041 3.629-.626 5.456-1.85.349-2.996 2.28-3.366 4.01-.395 1.871-.3 3.576.188 5.067-.377.203-.723.52-1.055.737-2.008 1.498-3.15 3.846-3.88 6.19-1.006 3.555-.995 7.281-1.055 10.956-.702-.437-1.39-.908-2.078-1.349a.682.682 0 0 0-.492-.062.72.72 0 0 0-.444.08c-.908.545-1.875.978-2.836 1.418-1.376.73-2.7 1.55-4.03 2.364-.573.37-1.764.734-1.22 1.569.011.031.025.063.039.09-.084.388-.031.877-.063 1.23.07 1.495.15 2.986.157 4.481.116 1.488.032 2.979-.038 4.467.024 1.17.073 2.34.045 3.514.032 1.921-.188 3.849-.014 5.766.014.856-.143 1.82-.024 2.697.042 5.563.017 11.169 0 16.743.003 1.328-.07 2.658-.101 3.986.034.716-.458 2.176.51 2.375a.704.704 0 0 0 .261.31c.475.308.95.619 1.436.916 5.969 3.23 11.732 6.919 17.792 10.006 6.674 3.639 13.122 7.621 19.677 11.463a.84.84 0 0 0 .206.059.8.8 0 0 0 .35.147c.038.004.073 0 .111 0 .35.115.744-.136 1.045-.367 1.509-.719 2.745-1.861 4.16-2.731.925-.709 1.798-1.208 2.85-1.799.258-.146.548-.321.607-.639.611-7.272.367-14.659.039-21.955-.224-4.977-.297-9.908-.737-14.879-.412-2.549-.074-4.987-.343-7.533a.74.74 0 0 0-.153-.339c0-.028-.007-.056-.01-.084.02-.213-.06-.433-.284-.601a23.06 23.06 0 0 0-1.267-.866c-2.875-1.68-5.788-3.29-8.572-5.12a1.738 1.738 0 0 0-.433-.276c.067-.161.13-.321.179-.482.758-2.56 1.072-5.274 1.484-7.935.08.014.164.02.244.028.538.181.964.394 1.502.632.765.29 1.565.828 2.197 1.404 1.799 1.268 2.78 3.325 3.888 5.159.097.157.192.314.29.471.034.098.073.192.115.286a.72.72 0 0 0 .216.266c1.25 2.155 2.215 4.474 2.965 6.88.619 1.859 1.411 3.65 2.075 5.487.86 1.991 1.687 4.324 3.584 5.55 2.347 1.38 4.334-1.585 3.904-3.733-.234-1.352-1.005-2.522-1.246-3.881-.322-1.068-.703-2.228-.311-3.353.227-1.254 2.064.444 2.406.933.531.716.685 1.617 1.017 2.427.489 1.212 1.016 2.417 1.686 3.538 3.109 5.306 6.84 10.978 13.042 12.867 3.098 1.149 3.783-2.954 2.801-5.061-.646-1.421-1.722-2.612-2.574-3.911-1.247-1.523-2.731-2.952-3.646-4.715-.35-.94-.685-1.932-.503-2.945.154-.702.181-1.704.95-1.991 1.352-.328 2.511.881 3.541 1.59 1.436 1.194 2.585 2.671 3.594 4.233 1.324 1.991 3.053 3.664 4.709 5.375 2.406 2.434 5.273 4.502 8.56 5.553 3.901 1.202 6.06-1.603 3.528-4.931-.716-1.062-1.754-1.838-2.745-2.627-1.663-1.551-3.609-2.759-5.201-4.383-.95-1.097-1.921-2.267-2.26-3.713-.157-.817-.175-1.648-.181-2.48.045-.576.003-1.24.408-1.704 1.523-1.306 3.926.042 5.25 1.083 3.503 3.279 7.498 6.227 12.116 7.687 2.511.615 5.794 2.054 8.068.203 3.066-3.196-1.331-6.43-4.066-7.817-2.071-1.1-4.1-2.27-6.147-3.416-1.823-1.027-3.8-2.036-5.1-3.72-1.288-1.508-.75-3.992 1.405-4.187 2.511-.276 4.785.957 7.139 1.627 2.773 1.017 5.92 1.003 6.287-2.633.115-3.27-3.615-4.44-6.116-5.407-.957-.426-2.078-.953-2.941-1.603-1.044-1.027-2.001-2.221-2.375-3.66-.241-1.034-.01-2.05.486-2.99a.931.931 0 0 0 .038-.119c.912-1.086 1.848-2.144 2.892-3.115.922-.769 1.953-1.404 2.983-2.019 1.121-.517 2.42-.276 3.569.024 1.104.36 1.799 1.352 2.463 2.24.971 1.24 1.858 2.612 2.193 4.173.22 1.949.723 3.849 1.146 5.763.335 2.008.834 4.1 2.249 5.64.817 1.181 2.546 1.422 3.552.34.325-.357.465-.818.615-1.265.297-.702.684-1.359.807-2.124.178-.471.541-.778.918-1.072.583 1.767 1.614 3.681 3.521 4.233 1.257.357 2.525-.555 3.272-1.498.496-.653.601-1.474.87-2.225.14-.29.283-.58.451-.852l.094-.126c.737.65 1.621 1.121 2.602 1.233 2.207-.216 3.989-2.197 3.395-4.46 0-.07.003-.14.014-.21 1.477.566 2.965-.75 3.447-2.106.566-1.369-.241-2.766-.286-4.142-.011-.765.541-1.327.887-1.96a2.83 2.83 0 0 0 .314-1.976c1.306-.329 2.319-1.673 2.134-3.046-.091-.925-.698-1.694-.796-2.616l-.004.018ZM123.87 52.897a.68.68 0 0 0 .22-.032c.304-.157.709-.01.8.332 0 .126.039.248.105.357-.276 1.264-.524 2.535-.838 3.772-.992 3.433-3.315 3.653-5.84 5.515-2.333 1.739-3.898 4.285-6.217 6.049-1.362.856-3.856-.098-4.736-1.338-.493-.65-.433-1.467-.454-2.235-.073-1.006-.234-2.019-.601-2.962-.936-2.546-3.667-3.531-5.26-5.588-.524-.65-.548-1.733-.429-2.896.209-.317.331-.768.492-1.058.182-.286.461-.562.821-.43.297.05.566.175.855.245h.007c3.088 2.836 6.815 5.106 11.037 5.511 4.066.154 7.283-2.469 10.035-5.235l.003-.007Zm-84.337-27.05c.621-1.68 1.351-3.34 2.577-4.678.992-1.02 2.32-2.44 3.88-2.025 1.199.478 1.335 2.148 1.03 3.237-1.047 2.442-3.939 5.875-.991 8.055 1.917 1.351 3.559.136 4.638-1.551 1.561-2.239 2.812-4.642 3.898-7.14 1.98-3.401 3.797-6.915 6.018-10.166 2.008-2.484 4.041-5.096 6.832-6.738 1.435-.688 3.108-1.578 4.729-1.037 2.204 1.048 1.205 3.217.321 4.837-.8 1.858-2.487 3.091-4.041 4.293-2.078 1.767-4.383 3.318-5.983 5.578-.842.995-1.558 2.13-1.848 3.415-.227.985-.646 2.047-.279 3.043.573 1.295 2.28 1.564 3.531 1.25 1.013-.304 1.754-1.11 2.581-1.729 1.093-.849 2.001-1.907 2.976-2.885.947-.95 1.98-1.806 2.923-2.763 3.81-4.226 7.68-8.5 12.556-11.525 1.52-.982 5.725-3.256 6.968-1.034.41.94.566 2.057.091 3-1.299 2.04-3.541 3.224-5.455 4.635-3.392 2.65-7.572 4.537-9.99 8.235-1.547 2.096-.58 4.89 2.152 5.005.968.014 1.935-.258 2.826-.607 2.497-1.059 4.89-2.393 7.037-4.055 1.75-1.303 3.633-2.407 5.466-3.584 3.029-1.781 6.35-3.79 9.937-4.146 1.278.01 3.165.486 3.915 1.583 1.429 2.308-7.261 5.969-8.986 6.873-3.217 1.527-7.635 2.215-9.605 5.494-.842 1.303-.66 3.259.831 4 1.97.918 4.205.013 6.064-.783 1.669-.678 3.335-1.362 4.949-2.166 2.294-1.11 4.477-2.483 6.912-3.283 2.808-.936 6.244-1.648 8.92.053 1.373.793 1.666 2.899.199 3.733-1.551.818-2.979 1.852-4.534 2.658-2.291.957-4.638 1.66-6.992 2.47-2.081.61-4.278.988-6.217 2.008-2.364 1.167-1.495 3.388.57 4.3 1.135.6 2.469.586 3.716.443 2.27-.244 4.432-1.016 6.643-1.565 1.355-.325 2.721-.852 4.139-.65 1.103.154 2.888.685 2.605 2.107a2.145 2.145 0 0 1-.412.632.726.726 0 0 0-.258.206c.013-.014.024-.032.038-.046.007-.006.014-.013.021-.017a13.14 13.14 0 0 1-.768.611c-.325.203-.661.388-.964.587-.35.255-.723.482-1.108.695-.331.175-.667.342-1.006.5-1.306.628-2.731 1.25-3.635 2.434 0 0-.004.007-.007.007l-.084.101c-.014.021-.028.046-.046.067-.049.066-.101.129-.15.199-.042.08-.087.16-.136.24-.049.084-.101.168-.147.252-.276.461-.562.926-.702 1.443-.125.279-.248.558-.38.834-.842 1.4-2.637 1.226-3.832.398a.76.76 0 0 0-.23-.104c-1.188-1.16-2.393-2.305-3.538-3.507a342.223 342.223 0 0 0-4.883-5.675c-5.187-5.533-11.4-10.43-19.018-11.935-5.5-1.411-11.197-.611-16.625.734-3.241.723-6.507 1.438-9.566 2.759a40.548 40.548 0 0 0-7.534 4.027c-.552.318-1.093.653-1.628.995-1.062.528-1.554.262-2.333-.716-.985-1.718-.527-3.835-.457-5.717.006-.224.076-.433.111-.65.042-.178.08-.36.123-.538.447-1.652 1.075-3.391 1.659-5.022l-.014.01Zm5.843 13.355a1.31 1.31 0 0 1-.273-.726c0-.28-.073-.646-.076-.943l.02-.095c.029-.017.06-.038.088-.056.566-.412 1.076-.677 1.711-1.082.053-.028.102-.06.154-.091l.105-.053a.619.619 0 0 1 .073-.024.666.666 0 0 0 .325-.171 39.45 39.45 0 0 1 4.893-2.075c3.828-1.177 7.754-2.046 11.694-2.762.65.398 1.281.813 1.638 1.519.202.405.049.94.192 1.31-.901 3.946-.594 8.347-3.367 11.585-1.677 2.644-5.305 2.955-8.096 2.242-1.212-.405-2.176-1.278-3.325-1.886-.748-.548-1.038-1.498-1.502-2.267-.692-1.05-1.348-2.162-2.235-3.06a8.65 8.65 0 0 0-2.02-1.361v-.004ZM24.22 63.372c1.938.132 3.922.583 5.529 1.725 2.231 1.764 3.035 4.67 4.593 6.957 1.704 2.812 3.552 3.695 6.44 4.977 2.043 1.01 4.268 2.257 5.913 3.923a4.708 4.708 0 0 1 1.188 4.697c-.482 1.108-1.411 2.033-2.7 1.865-1.142-.066-1.851-1.103-2.843-1.571.066-.769.077-1.544.02-2.316.423.335.888.608 1.426.772a.702.702 0 0 0 .848-.503c.2-.915-.974-.835-1.41-1.376-.8-.688-1.482-1.499-2.187-2.277-.643-.681-1.418-1.216-2.221-1.694a2.442 2.442 0 0 0-.262-.154c-.095-.052-.185-.108-.28-.16a15.426 15.426 0 0 0-3.81-1.478c-1.673-.391-3.353-.248-5.058-.374-4.208-.346-8.756-2.766-8.937-7.467-.203-2.417.656-5.959 3.75-5.543v-.004Zm9.039 34.926c-.168.597-.339 1.25-.475 1.928a16.23 16.23 0 0 0-.517-.328c-2.578-1.582-5.299-2.94-7.915-4.464-1.522-.894-3.09-1.645-4.544-2.661.287-2.152.004-4.387.34-6.542.415-2.54.712-5.309 1.822-7.67.496.636 1.24 1.223 1.649 1.443.88.621 1.869.94 2.892 1.12l.01.06c.046.342.063.692.05 1.038-.095.387-.12.789-.182 1.184-.765 2.085-2.494 3.918-2.658 6.213-.067 1.359.618 2.696 1.732 3.356.653.503 1.949.73 2.504.821 1.586.196 3.07-.52 4.65-.548.376-.074.883.087 1.288.052-.157 1.677-.346 3.346-.646 5.002v-.004Zm-5.843-13.712c.213-.234.293-.548.342-.884l.073-.23c.032-.189.08-.49.119-.835.112-.29.314-.517.723-.604.674-.175 1.425.01 2.113.087.444.066 1.107.108 1.495.458 1.785 1.666 1.903 5.169.653 7.17-.492.584-1.1 1.034-1.722 1.478-.283.038-.562.083-.838.132-.908.21-1.75.657-2.707.64-.58.062-1.076-.032-1.467-.245-.01-.01-.024-.017-.035-.028a.612.612 0 0 0-.147-.084c-.632-.44-.95-1.233-.873-2.221.36-1.764 1.537-3.22 2.274-4.841l-.004.007Zm5.452-6.653c.352.956.628 1.938.841 2.937a5.202 5.202 0 0 0-.373-.178c-3.13-1.29-7 .028-9.71-2.379-.325-.35-.678-.698-.831-1.156 0-.003-.007-.01-.01-.014.216-.31.45-.615.712-.904.07-.035.129-.074.181-.116 1.174.664 2.522 1.142 4 1.415 1.697.38 3.468.237 5.19.395Zm-17.932 8.012c.136-3.902.479-8.498 3.004-11.606a.681.681 0 0 0 .181-.144c.828-.68 2.079-.076 2.728.601.273.513.5 1.146.395 1.736-.028.293-.241.503-.252.8 0 .024.004.045.008.07-1.558 3.003-1.95 6.503-2.369 9.832-.24 2.312.234 4.767-.604 6.981-.356.472-.908.835-1.47.884-.503-.15-.971-.475-1.355-.856-.681-1.795-.21-6.758-.27-8.291l.004-.007Zm19.297 68.924c-5.864-3.611-11.98-6.776-17.987-10.132-4.045-2.546-8.295-4.624-12.343-7.178a.8.8 0 0 0-.185-.08c.007-.293-.018-.608.014-.856.115-1.76.14-3.527.157-5.291.014-5.162-.01-10.324.01-15.483-.115-3.276 0-6.552.025-9.835 0-1.457-.105-2.781.014-4.282.105-1.258-.053-2.39-.014-3.678-.098-1.3-.115-2.599-.164-3.901 4.034 2.815 8.372 5.197 12.573 7.774 3.476 2.26 7.248 4.251 10.863 6.315 4.533 2.574 9.039 5.204 13.66 7.621.01.276.059.566.038.824-.084 2.326.234 4.625.46 6.937.242 5.86.51 11.732.759 17.599.087 4.942.24 9.885.174 14.827-.038 1.044-.007 2.088-.125 3.126 0 .118-.014.251-.035.391a49.719 49.719 0 0 1-3.161-1.928c-1.561-.982-3.144-1.795-4.726-2.773l-.007.003Zm15.794.381c-1.914 1.016-3.625 2.336-5.403 3.569-.356.248-.73.468-1.104.692.035-.328.067-.653.088-.981.087-2.072.1-4.153.083-6.228-.07-5.742-.157-11.487-.447-17.222-.066-2.12-.202-4.237-.325-6.357-.045-3.102-.181-6.147-.604-9.238-.073-1.209-.024-2.428-.049-3.636 1.39-.527 2.662-1.299 3.884-2.131.706-.429 1.485-.712 2.183-1.163.22-.139.44-.269.667-.394.123 1.516.004 3.035.039 4.554.129 1.153.258 2.309.325 3.468.408 4.698.447 9.63.674 14.373.328 6.891.499 13.803-.014 20.694h.003Zm-1.764-44.266c-.793.457-1.582.918-2.42 1.295-1.216.723-2.242 1.502-3.601 2.079-.22.073-.465.164-.653.3a1.069 1.069 0 0 0-.067-.042c-3.213-1.659-6.402-3.37-9.5-5.239-4.879-2.826-9.89-5.424-14.658-8.438-4.261-2.602-8.596-5.058-12.752-7.841a7.368 7.368 0 0 1-.38-.294c1.595-1.04 3.244-1.924 5.04-2.609 1.27-.422 2.783.192 3.258 1.495.272.975.705 1.886 1.11 2.812.088.143.189.283.294.415.318.647.87 1.17 1.561 1.425.283.109.576.161.866.168l.063.021c1.568.384 2.927-.985 4.492-.716.583-.028 1.34.538 1.868.335.332.182.657.37.975.566 1.38.82 2.804 1.572 4.219 2.34a.6.6 0 0 0 .283.21c.185.129.373.248.559.373 1.037.937 2.172 1.845 2.86 3.084.38.751.629 1.562 1.11 2.274.193.273.413.521.654.755.328.412.75.768 1.303 1.051.251.119.5.192.744.234.345.126.702.217 1.065.269 1.397.129 2.703-.845 4.1-.451.318.077.73.287 1.08.269.572.353 1.145.706 1.704 1.079 1.603.933 3.273 1.761 4.82 2.784l.003-.003Zm-8.683-13.468c-.492 2.343-.548 7.792-3.583 8.148a2.843 2.843 0 0 1-.5-.136 4.294 4.294 0 0 1-1.082-.793c-1.359-1.928.436-6.15.527-8.197.479-4.195 1.024-8.449.59-12.668-.038-.395-.083-.79-.129-1.188.021-.167.01-.345.025-.51.042-.47.164-.939.328-1.382.318-1.017 1.387-1.715 2.35-1.027a.73.73 0 0 0 .186.108c.478.3.943.629 1.376.992.342.318.663.674.981 1.037.05.164.088.328.123.493-.004.045-.008.087 0 .136.09 2.05-.179 4.08-.224 6.136-.031 2.976-.461 5.924-.971 8.847l.003.004Zm68.925-3.657c1.561.545 3.14 1.142 4.341 2.33.807.838.702 2.483-.258 3.157-1.17.678-2.487.077-3.678-.23-2.155-.608-4.209-1.701-6.493-1.715-2.43-.262-4.617 1.278-4.586 3.835.42 4.446 6.479 6.398 9.766 8.536 2.473 1.481 5.532 2.497 7.115 5.057.586.975-.182 2.361-1.272 2.543-1.764.328-3.531-.37-5.232-.769a21.48 21.48 0 0 1-4.139-1.655c-1.889-.992-3.643-2.211-5.326-3.514-2.06-1.673-3.898-3.943-6.692-4.299-1.198-.245-2.564.059-3.36 1.044-1.037 1.457-.691 3.954-.363 5.627.702 2.28 2.441 4.118 4.247 5.606 1.044.827 2.127 1.606 3.112 2.507 1.03.901 2.214 1.656 3.004 2.798 1.163 1.641 1.334 3.154-1.167 2.972-1.156-.216-2.28-.719-3.353-1.271-2.05-1.055-3.922-2.564-5.546-4.219-2.072-2.03-3.975-4.202-5.533-6.654-1.56-1.973-4.694-5.421-7.443-4.862-2.249.577-2.462 3.923-1.886 5.77.283 1.174.915 2.183 1.69 3.088 1.126 1.568 2.634 3 3.672 4.673 1.114 1.397 2.284 3.528 1.03 5.187-.283.209-.692-.018-.999-.074-2.735-.828-4.998-2.686-6.992-4.701-1.425-1.806-2.906-3.615-4.013-5.644-1.034-1.677-1.988-3.255-2.707-5.152-.531-1.743-1.226-3.433-2.937-4.327-1.377-.845-2.955-.433-3.22 1.285-.507 1.928.418 3.846.904 5.686.73 1.436 1.173 2.969-.16 4.226h.017c-1.95.978-3.905-4.683-4.426-6.073-1.152-2.641-1.938-5.484-3.07-8.152-.513-1.272-1.177-2.442-1.875-3.605-.157-.475-.175-.964-.276-1.491-.136-.681-.018-1.509.657-1.862.153-.038.3-.01.45.035 2.787 1.512 5.599 2.99 8.53 4.202 4.355 1.753 9.007 2.822 13.715 2.864 2.731.119 5.452-.391 8.057-1.191 2.613-.72 4.967-2.064 7.045-3.786 2.969-2.11 5.306-4.991 7.499-7.87a73.863 73.863 0 0 0 1.711-2.193c.178-.153.343-.342.52-.468 1.576-1.306 3.48-1.47 5.1-.146.241.14.496.39.765.548.056.063.112.122.171.185 1.128.975 2.529 1.579 3.884 2.166v-.004Zm37.508-19.835c.195.65.646 1.257.573 1.963-.147 1.069-1.366 1.547-2.25.975-.887-.51-1.767-1.045-2.598-1.642-2.431-1.61-4.991-3.192-7.946-3.535-.905-.192-1.212 1.125-.332 1.359 1.132.22 2.284.395 3.332.908 1.635.786 3.189 1.746 4.67 2.794.964.524 1.855 1.296 2.906 1.628.087.339.22.698.087 1.01-.164.537-.566.95-.814 1.449-.59 1.051-.422 2.298-.083 3.398.31 1.076.195 2.28-.804 2.948-1.278.894-3.639-2.407-4.271-3.377-1.425-1.977-3.294-3.546-5.337-4.855-.503-.336-1.006-.577-1.509-.926-.681-.517-1.519.465-.905 1.058 1.446.936 2.927 1.834 4.265 2.941 2.001 1.666 3.136 4.247 5.187 5.83-.186.586-.046 1.463.01 1.938-.028 1.11-1.002 1.823-1.994 2.099-1.659-.21-2.805-1.785-3.402-3.23a19.292 19.292 0 0 1-1.086-1.813c-.542-.947-1.307-1.733-1.977-2.585-.646-.79-2.85-3.339-3.926-2.63-.391.283-.325.933.094 1.156 1.345.559 2.264 1.76 3.158 2.86 1.138 1.296 2.053 2.788 2.808 4.328.178.346.391.685.632 1.01-.286.398-.513.915-.695 1.211-.444.748-.391 1.712-.971 2.386-.412.398-.926.873-1.526.876-1.167-.261-1.809-1.31-2.284-2.319-.479-.834-.57-1.882-.786-2.815-.158-.688-.433-1.344-.594-2.036-.318-1.236-1.202-4.278-2.358-4.83-.82-.161-1.149.814-.538 1.32.737 1.16 1.202 2.473 1.53 3.8.245.807.465 1.617.664 2.434a.089.089 0 0 0-.028.025c-.304.31-.594.419-.943.747-.423.423-.81.93-.978 1.51-.098.572-.339 1.082-.611 1.592-.224.408-.213.988-.615 1.278-.272.136-.671.203-.919-.02-1.222-1.09-1.816-2.687-2.13-4.255-.3-1.764-.772-3.49-1.118-5.246-.153-1.456-.45-2.98-1.233-4.261-.604-1.142-1.435-2.148-2.228-3.16-.94-1.202-2.33-1.897-3.842-2.034-1.537-.29-3.098.126-4.324 1.083-1.554.915-2.885 2.124-4.051 3.496-5.033 5.578-8.77 12.246-14.268 17.411-1.603 1.216-3.143 2.546-4.918 3.51-1.886.943-4.037 1.59-6.126 2.026-7.31 1.334-14.917-.629-21.476-3.919-1.478-.73-2.938-1.505-4.401-2.27a.725.725 0 0 0-.328-.251 3.56 3.56 0 0 0-.496-.178c-3.014-1.555-6.074-3-9.389-3.818-.314-.112-.635-.238-.967-.293.307-2.13.363-4.282.454-6.43.003-.091.01-.182.014-.273.786.479 1.432 1.202 2.354 1.425 4.142 1.013 6.21-3.81 4.547-7.097-1.823-3.384-6.133-5.225-9.461-6.839-1.939-.792-3.27-2.396-4.317-4.16-1.39-2.357-2.375-5.148-4.666-6.803-1.715-1.15-3.846-1.816-5.945-1.904a1.035 1.035 0 0 0-.049-.356c-.073-.678-.101-1.355-.02-2.033.223-.883.307-1.837.939-2.546.597-.859 1.446-1.456 2.385-1.868.66-.15 1.314-.329 1.95-.524h.013c-.269 4.184 2.574 7.624 5.379 10.404 1.121 1.048 2.288 2.159 3.706 2.795 1.407.457 2.822 1.005 4.316 1.065 3.88.272 7.251-.636 10.447-2.854 2.508-1.739 5.197-3.555 6.7-6.29.048-.077.072-.157.153-.238.167-.206.199-.422.146-.61a.666.666 0 0 0-.216-.563c-3.93-2.913-8.246-5.264-12.448-7.75-1.823-1.048-3.618-2.152-5.438-3.207a17.788 17.788 0 0 1-2.326-3.688c-.322-1.275.304-2.47 1.268-3.506.066-.028.129-.056.192-.08.761-.092 1.544.177 2.273.383.853.255 1.736.458 2.431 1.045.06.031.12.052.178.07.63.635 1.055 1.438 1.6 2.147.657.989 1.027 2.187 1.928 3.004 1.631 1.062 3.259 2.361 5.253 2.595 2.361.3 4.935.074 6.898-1.383 2.567-2.162 3.874-5.452 4.335-8.714.544-2.92.293-6.434 2.752-8.54a.617.617 0 0 0 .265-.122c4.087.045 8.177 1.006 11.91 2.655 2.93 1.418 5.61 3.325 8.072 5.445 2.088 1.812 4.02 3.733 5.79 5.87 1.447 1.611 2.77 3.336 4.28 4.887 0 .115.024.234.09.35.028.607-.087 1.208-.164 1.809-.328 2.217-.842 4.854.943 6.6 1.505 1.625 3.852 2.6 4.635 4.81.51 1.306.352 2.717.569 4.066.489 1.935 2.413 3.052 4.265 3.388 1.907.468 3.146-.406 4.407-1.722a32.131 32.131 0 0 0 2.85-3.011c1.348-1.561 3.123-2.63 4.918-3.601 3.685-1.89 3.685-6.42 4.649-9.926.422-1.764 1.072-3.451 2.074-4.97.021-.039.035-.077.049-.112 3.248-3.849 7.524-8.103 9.598-4.09l-.01.014c-.171 1.352-.273 2.12 1.034 2.986.286.203.653.27.918.496.129.28.161.67.045.978a5.374 5.374 0 0 0-.363.07c-2.165.75-3.562 2.661-4.841 4.45-1.1 1.271-2.417 2.563-4.194 2.665-.276.007-.552-.01-.828-.028-.608-.035-.936.796-.493 1.198.28.269.699.199 1.055.23 1.705.014 3.332-.824 4.481-2.054 1.523-1.376 2.354-3.367 4.101-4.516.594-.468 1.453-.806 2.246-.68.461.076 1.149.034 1.316.576.032.115.049.167.042.3-.126.594-.353 1.18-.349 1.799-.035.559.311 1.058.761 1.358.227.168.489.3.685.507.276.492.437 1.09.377 1.655-.035.196-.157.353-.286.496a4.08 4.08 0 0 0-.933.287c-.656.325-1.191.848-1.757 1.306-1.131.831-2.193 1.753-3.307 2.609-1.097.615-2.497.493-3.702.314-.374-.07-.737.238-.786.598-.091 1.145 1.886.89 2.647.925.954-.042 1.939-.175 2.724-.754 1.132-.887 2.246-1.813 3.395-2.683.811-.72 1.775-1.557 2.938-1.17.559.192.625.79.646 1.296.185 1.08-.688 2.001-.657 3.074-.031.964.583 1.694 1.195 2.357.607 1.08-.175 2.145-1.045 2.777a.752.752 0 0 1 .224-.108.82.82 0 0 0-.255.14l-.241-.022c-1.666-.097-3.203.556-4.771 1.003a7.815 7.815 0 0 1-5.103-.067c-.129-.049-.258-.09-.381-.153a.712.712 0 0 0-.915-.178c-1.494 1.446 2.176 2.043 3.095 2.165 1.502.182 2.986-.213 4.415-.629 1.449-.485 3.167-1.11 4.659-.527.143.405.656.775.705 1.222.025.814-.817 1.279-.964 2.047-.265.856-.269 1.774.039 2.62l-.028-.01Z"/><path fill="#0D0C22" d="M98.968 73.08c-.61-.38-1.184-.848-1.903-1.008-1.334-.332-2.703-.175-4.08-.29.189-.297.364-.601.56-.776 1.302-1.212 2.989-2.172 3.757-3.852.996-1.939.283-4.324-1.795-5.141-2.2-.933-3.926.035-5.606 1.215 0-.189-.01-.377-.028-.566.08-1.666 1.216-3.031 2.152-4.33 1.729-2.117 2.302-4.087-.548-5.505-2.166-.769-4.607.223-6.416 1.453-1.76 1.31-3.305 2.895-4.859 4.439-2.343 2.113-4.75 4.174-7.366 5.948-1.044.678-2.03 1.467-3.196 1.928-1.337.436-2.63.838-4.072.964-.098-.01-.217.003-.293-.063a.722.722 0 0 0-.325-.175c-.067-1.34-.276-2.675-.744-3.911-.461-.818-1.67-.144-1.226.67.639 2.166.835 4.576.342 6.787-.618 2.972-2.144 5.616-4.135 7.882-.653.804-1.303 1.6-2.096 2.267-.489.507-1.7 1.195-.936 1.96.38.328.88.111 1.142-.252a24.4 24.4 0 0 0 2.54-2.56c.363.234.66.545.97.845.493.507 1.156 1.121 1.551 1.806.402.782.632 1.635.88 2.476.42 1.373.367 2.79.206 4.199 0 1.11-.24 2.19-.387 3.286.048 1.1.188 2.225.496 3.287.328.765.841 1.46 1.4 2.07 1.142 1.244 2.871.832 4.104-.045.021-.014.042-.031.066-.048.13-.067.248-.161.36-.276.814-.671 1.474-1.52 2.435-2.009.366-.244.709-.534 1.152-.625.374-.056.877-.206 1.1-.513.748.859 1.565 1.652 2.627 2.06 2.19.818 4.17-1.257 4.753-3.21.241-1.1.336-2.22.765-3.279.109-.28.377-.59.59-.901.507.325 1.02.58 1.544.726 1.76.36 4.38-.586 5.264-2.204.803-1.498 1.01-3.3 2.134-4.634.75-1.135 1.645-2.288 2.927-2.847.793-.262 1.606-.471 2.333-.894 1.523-.87 4.009-2.644 3.213-4.666a2.9 2.9 0 0 0-1.359-1.684l.007-.003Zm-31.15-4.442s-.032.007-.046.014c-.025 0-.05.007-.074.01.042-.003.08-.013.12-.02v-.004Zm30.822 7.813c-1.16 1.523-3.004 2.12-4.73 2.728-1.595.824-2.636 2.323-3.614 3.772-.992 1.341-1.062 3.07-1.987 4.467-.45.584-1.198.783-1.844 1.07-1.474.645-2.798-.176-3.811-1.22-1.142-.953-2.089-2.103-3.007-3.262-1.38-1.656-2.669-3.402-4.233-4.89-.964-1.1-2.061-2.13-3.51-2.539-.727-.13-1.897-1.027-2.334-.038a.706.706 0 0 0 .437.887c1.044.367 2.176.6 3.06 1.299 1.233 1.18 2.427 2.407 3.5 3.737.02.025.045.053.066.077.084.175.195.346.31.489 1.31 1.83 2.404 3.81 3.182 5.93.308 1.925-.115 3.923-.957 5.666a.649.649 0 0 0-.181.321c-.94 1.01-2.386.283-3.154-.611-.737-.86-1.6-1.628-2.183-2.606-.947-1.861-1.418-3.929-1.96-5.937-.691-2.567-.764-4.017-2.961-5.85-.702-.598-1.586.433-.922 1.05.97.843 1.777 1.83 2.001 3.13.374 1.272.674 2.616 1.03 3.95.014.245.088.507.161.74.416 1.663.72 3.577-.206 5.125-.779.932-1.593 1.833-2.305 2.822a.873.873 0 0 0-.168.126c-.761.551-1.697.974-2.406.23-.772-.82-1.286-1.806-1.303-2.944-.266-.947-.108-1.893.098-2.833.094-1.694.419-3.423.157-5.11-.367-1.718-.748-3.57-1.897-4.952-.02-.021-.045-.042-.07-.067-.007-.014-.007-.024-.014-.038-.384-.594-.527-1.334-.534-2.043.066-1.764 1.289-3.214 1.59-4.942.51-1.632.967-3.36 2.043-4.72.475-.509 1.215-.575 1.837-.82a.642.642 0 0 0 .227-.101c.796-.224 1.54-.482 2.046-.622.73-.272 1.398-.667 2.044-1.1 2.403-1.572 4.715-3.276 6.863-5.19 2.301-1.844 4.219-4.107 6.513-5.959 1.464-1.075 3.28-1.91 5.131-1.659.622.234 1.485.713 1.436 1.478-.039.129-.084.251-.133.373a.754.754 0 0 0-.363.52c-.786 1.29-1.97 2.313-2.64 3.668-1.227 2.718-1.813 4.017-4.981 4.548-.157 0-.325.01-.49.045-2.294-.01-4.575.342-6.632 1.408-.737.317-1.41.754-2.12 1.128a.72.72 0 0 0-.464.3.705.705 0 0 0 .195.968c.657.377 1.3-.308 1.876-.573 1.156-.618 2.333-1.135 3.6-1.52a21.253 21.253 0 0 1 3.738-.32c1.48.048 2.976.247 4.436-.081 2.106-.629 3.503-3.088 5.874-2.896.772.077 1.359.357 1.754.758.16.213.244.444.227.716.02 2.236-2.089 3.654-3.93 4.453-1.187.475-2.469.587-3.73.71-.9.146-1.805-.039-2.71-.014-.353.01-.779-.053-1.086.062-1.53-.108-3.063.133-4.59.234-1.872-.052-3.698.287-5.525.65-.692.108-1.373.272-2.06.388a.69.69 0 0 0-.504.167c-.44.364-.223 1.129.332 1.216 2.365-.189 4.684-1.048 7.087-1.01 1.917.01 3.824-.468 5.738-.192 1.429.227 2.833.577 4.17 1.142.989.28 2.009.412 2.987.737 1.498.287 3.052.014 4.544.34.74.23 1.376.743 1.998 1.19.233.27.36.64.433.985-.06.325-.294.59-.468.863l-.004-.004ZM113.961 56.316s.011.004.014.008c.011 0 .025.007.036.01-.018-.007-.032-.01-.05-.018Z"/><path fill="#0D0C22" d="M93.6 76.022c-1.488.275-2.84 1.173-3.912 2.214-.416.608-1.684 1.334-.971 2.13.713.608 1.243-.377 1.683-.83.58-.745 1.39-1.234 2.194-1.709.395-.195.807-.367 1.243-.43.898-.174.667-1.505-.24-1.376h.003ZM86.92 82.36c.123 1.049 1.614.759 1.38-.261-.118-1.044-1.61-.758-1.38.262ZM114.437 74.904c-.517-.2-1.194-.318-1.379.377a.708.708 0 0 0 .53.835c1.39.339 2.812.974 3.752 2.092.597.692 1.641-.206 1.061-.908-1.013-1.191-2.469-1.987-3.964-2.396ZM109.693 74.838c.301.88 1.684.415 1.404-.461-.297-.877-1.683-.416-1.404.46ZM104.912 113.397c1.177.733 2.47 1.373 3.87 1.509.915.056 1.034-1.289.122-1.394-1.152-.119-2.217-.663-3.192-1.261-.765-.513-1.54.622-.8 1.146ZM103.956 111.074c-.049-.922-1.471-.841-1.436.074.063.929 1.46.841 1.436-.074ZM83.084 110.631c-.444-.503-.863-1.052-1.478-1.359a8.593 8.593 0 0 0-1.872-.754c-.897-.185-1.19 1.135-.304 1.365.325.091.636.206.947.332.87.276 1.317 1.058 1.97 1.61.303.227.758.133.974-.174.245-.346.105-.804-.237-1.02Z"/><path fill="#0D0C22" d="M77.097 109.049c.283.89 1.743.387 1.45-.486-.294-.894-1.733-.394-1.45.486ZM56.088 107.417c-.412-.817-1.631-.23-1.261.608.367.789.64 1.628 1.055 2.393.21.321.65.412.967.202a.704.704 0 0 0 .192-.981c-.352-.723-.621-1.488-.953-2.218v-.004ZM55.158 105.001c-.017-.395-.35-.664-.73-.664s-.681.367-.664.73c.018.395.35.663.73.663.381 0 .681-.366.664-.729ZM86.604 58.74c.535-.346 1.59-.793 1.059-1.575-.64-.747-1.44.259-2.05.562-.517.402-1.646.839-1.104 1.653.674.768 1.47-.318 2.095-.64ZM81.208 62.736c.34.143.78-.018.915-.374.206-.524.605-1.303-.111-1.614-.343-.143-.78.018-.915.374-.206.524-.605 1.303.111 1.614ZM73.795 34.811c2.42.22 4.684.877 6.922 1.845.797.419 1.436 1.09 2.243 1.484.339.168.772-.035.915-.37.157-.367-.032-.751-.374-.919-.636-.367-1.18-.87-1.81-1.247-2.402-1.19-5.039-1.907-7.707-2.176-.912-.101-1.094 1.237-.189 1.383ZM71.44 33.523c-.469-.79-1.691-.073-1.237.723.471.793 1.69.07 1.236-.723ZM28.283 68.443c.447.328.901.674 1.202 1.149.237.737 1.362.559 1.358-.22 0-.356-.261-.664-.471-.93-.503-.551-2.357-2.388-2.965-1.326-.384.695.384 1.037.873 1.33l.003-.003ZM26.272 66.738c-.126-.964-1.96-.712-1.823.252.129.967 1.959.709 1.823-.252ZM38.678 85.459c-1.167-.206-.919 1.352-1.006 2.085-.042.622-.046 1.24-.07 1.865-.014.381.318.702.692.706 1.075-.084.614-1.481.754-2.204.042-.538.042-1.083.122-1.617.091-.332-.136-.748-.489-.831l-.003-.004ZM37.228 92.28c.188 1.017 1.592.671 1.376-.331-.189-1.016-1.593-.67-1.376.332ZM5.661 99.284c-.251 1.295-.248 2.612-.234 3.925.049.915 1.404.863 1.397-.056-.024-1.292-.007-2.591.248-3.862.073-1.01-1.46-1.034-1.41-.007ZM5.252 106.586c.398.842 1.662.244 1.26-.608-.398-.845-1.662-.241-1.26.608ZM48.383 131.416c.048-.737.373-2.218-.846-2.005-.349.109-.58.503-.468.86-.084.848-.111 1.697.018 2.546.108 1.226.049 2.452.237 3.671.171.901 1.502.67 1.38-.238-.175-1.6-.171-3.217-.318-4.834h-.004ZM47.099 139.69c.32.898 1.641.43 1.32-.454-.314-.894-1.642-.436-1.32.454ZM67.89 10.58c1.062-.964 2.543-1.768 2.9-3.255.122-1.1-1.324-1.15-1.436-.063-.559.936-1.55 1.515-2.347 2.231a.705.705 0 0 0-.101.982.706.706 0 0 0 .985.101v.004ZM64.878 13.227c.608.15.884-.468.957-.968.095-.37-.157-.754-.52-.841-.618-.147-.88.468-.957.967-.095.37.157.755.52.842ZM102.433 19.524c.537-.304 1.267-.549 1.474-1.191.104-.367-.161-.755-.521-.838-.559-.13-.81.471-1.285.632-.629.443-2.522.74-2.096 1.767.545.982 1.708-.147 2.428-.37ZM97.504 21.026c.381 0 .685-.356.67-.727-.013-.39-.345-.67-.726-.67-.38 0-.684.356-.67.726.014.392.346.671.726.671ZM109.82 44.62c.622-.273 1.366-.263 1.938-.626.283-.255.35-.678.102-.981-.269-.35-.709-.273-1.059-.116-.806.22-3.674.839-3.014 2.06.577.818 1.376-.156 2.037-.334l-.004-.004ZM106.219 47.598c.904.206 1.219-1.19.328-1.407-.901-.207-1.219 1.19-.328 1.407ZM134.404 49.163c.985.583 1.335-.94 1.886-1.467.245-.28.573-.482.667-.866.102-.367-.16-.755-.52-.838a.704.704 0 0 0-.779.36c-.262.237-.51.502-.712.796-.322.59-1.296 1.39-.545 2.015h.003ZM132.418 50.945c.576.415 1.075-.185 1.32-.675.199-.324.042-.771-.279-.946-.385-.213-.818 0-1.003.367-.318.363-.496.925-.038 1.257v-.003ZM140.299 56.103c.381 0 .685-.356.671-.726-.014-.392-.346-.67-.727-.67-.38 0-.684.355-.67.725.014.392.346.671.726.671ZM141.77 65.124c.936-.3 2.088-.52 2.707-1.348.412-.754-.678-1.435-1.177-.744-.591.37-1.275.57-1.942.755-.598.115-1.502.08-1.401.94.189.869 1.205.509 1.816.394l-.003.003ZM138.198 65.41c.38 0 .684-.355.67-.726-.014-.39-.346-.67-.726-.67-.381 0-.685.356-.671.726.014.391.346.67.727.67ZM138.239 81.097c.828.699 1.604 1.865 2.781 2.096.894.188 1.208-1.128.317-1.359-.957-.29-1.494-1.289-2.273-1.865-.751-.527-1.548.566-.825 1.128ZM136.944 79.075c.38 0 .684-.356.67-.727-.014-.39-.345-.67-.726-.67s-.685.356-.671.726c.014.391.346.67.727.67ZM131.348 91.047a.7.7 0 0 0 .318.37c.514.308 1.212-.248 1.003-.817-.252-.723-.636-1.387-1.08-2.008a.723.723 0 0 0-.433-.311c-.573-.16-1.096.555-.754 1.048.384.534.719 1.103.943 1.722l.003-.004ZM112.628 64.472c-.405.266-.762.755-.405 1.212.775.82 1.61-.492 2.144-1.002.66-.86 1.264-1.754 1.945-2.595.203-.322.063-.772-.255-.954-.359-.21-.789-.042-.984.304-.332.43-.72.82-1.003 1.289-.405.618-.873 1.25-1.439 1.746h-.003ZM111.042 66.151a.703.703 0 0 0-.688.71.707.707 0 0 0 .709.687c.38 0 .695-.331.688-.709a.708.708 0 0 0-.709-.688ZM57.156 46.163c.825.046 1.642-.049 2.351-.503.716-.304 1.757-1.275.716-1.868a.704.704 0 0 0-.887.325c-.919.775-2.17.8-3.266.419-.489-.252-1.083-.65-1.477-.018-.556 1.191 1.764 1.593 2.563 1.645ZM53.566 44.528c.381 0 .696-.332.689-.71a.708.708 0 0 0-.71-.687.703.703 0 0 0-.688.709.708.708 0 0 0 .71.688ZM31.661 137.263c-.252-1.677-.272-3.413-.706-5.054-.467-.905-1.69-.224-1.246.681.255 1.509.38 3.042.569 4.561.147.908 1.484.72 1.383-.188ZM31.45 141.873a.699.699 0 1 0 0-1.398.699.699 0 0 0 0 1.398ZM51.212 78.952a20.467 20.467 0 0 0-1.184-1.499c-1.142-1.254-2.77-1.882-4.107-2.888-.898-.632-1.66.75-.678 1.222.94.664 1.939 1.233 2.903 1.855.8.552 1.358 1.362 1.931 2.127.545.733 1.66-.073 1.135-.817ZM52.061 81.268a.708.708 0 0 0-.723.674c-.014.37.294.723.674.723.381 0 .71-.283.723-.674.014-.37-.293-.723-.674-.723Z"/></g><defs><clipPath id="a"><path fill="#fff" d="M0 0h150v162.79H0z"/></clipPath></defs></svg>