<svg width="206" height="159" viewBox="0 0 206 159" fill="none" xmlns="http://www.w3.org/2000/svg">
<g clip-path="url(#clip0_6121_21416)">
<path d="M44.3733 114.427C44.6844 113.977 45.0371 113.552 45.3379 113.092C44.7328 112.847 44.1278 112.594 43.5469 112.29C41.6454 111.374 39.8959 110.178 38.1914 108.94C33.8489 105.973 29.8659 102.343 27.0965 97.8415C27.0516 97.9175 27.0101 97.9902 26.979 98.0593C25.8622 100.037 24.5415 101.897 23.2484 103.764C20.5102 107.121 18.4772 111.004 16.4581 114.807C14.5012 118.375 14.7743 122.856 16.6136 126.396C17.4745 128.284 19.0719 129.94 21.1913 130.241C22.837 130.839 24.5968 130.628 26.2979 130.407C27.6359 130.182 28.9255 129.854 30.1494 129.252C31.325 128.657 32.2619 127.81 33.2992 127.026C37.6036 123.426 41.2823 119.091 44.3733 114.43V114.427ZM53.3764 97.3298C53.5562 97.4335 53.7325 97.5407 53.9123 97.6375C49.8464 94.0141 47.2429 89.1737 45.4796 84.0637C44.1416 79.9735 41.9462 76.3191 40.2901 72.3707C39.8095 71.1468 39.3116 69.8364 38.6443 68.7162C38.6028 68.6436 38.5613 68.571 38.5164 68.4984C38.1845 69.6462 38.1119 70.8771 37.8629 72.0422C37.4135 74.2653 36.9917 76.568 37.2925 78.8326C37.7074 82.8847 39.5467 86.8192 42.5443 89.5886C45.7113 92.7349 49.3347 95.3971 53.3729 97.3263L53.3764 97.3298ZM136.451 81.6573C136.057 80.2017 131.327 80.3711 129.924 79.8629C128.558 79.7523 127.175 79.1334 125.816 79.3305C125.038 79.8041 124.281 80.3227 123.514 80.8137C123.776 80.9935 124.056 81.1491 124.33 81.315C125.623 82.1552 126.936 83.0368 127.946 84.2089C130.311 83.8182 135.02 83.6834 136.451 81.6608V81.6573ZM159.184 39.3696C157.476 39.3004 155.775 39.1622 154.105 38.7749C153.458 38.5294 152.013 38.7058 151.737 37.9797C151.17 37.5959 150.896 36.8007 150.751 36.1334C150.561 35.5768 150.343 35.0305 150.233 34.4497C150.046 33.5231 149.735 32.6276 149.465 31.7252C149.143 30.4425 148.915 29.1425 148.573 27.8598C148.113 25.5468 147.774 23.1681 147.366 20.862C147.266 20.2881 147.218 19.7038 147.131 19.1264C147.069 18.715 147.332 18.3416 147.553 18.0166C148.559 16.6232 149.641 15.2852 150.713 13.9437C150.893 13.7259 151.069 13.4977 151.239 13.2695C151.235 13.1935 151.221 13.1209 151.194 13.0483C150.516 13.0241 150.018 13.5392 149.434 13.8054C147.992 14.8046 146.938 16.2671 146.519 17.9785C146.122 20.2086 146.73 22.608 147.007 24.7931C147.335 26.6221 147.508 28.4338 147.843 30.2385C148.404 32.6899 148.895 35.1619 149.05 37.6789C149.175 40.4068 149.261 43.1486 148.67 45.8384C148.521 46.8687 148.096 47.823 147.633 48.7496C147.335 49.5448 146.913 50.2674 146.457 50.9831C145.824 51.9615 145.178 52.9849 144.369 53.8389C143.435 58.133 141.921 62.3442 139.376 65.9572C139.349 65.9952 139.321 66.0298 139.29 66.0643C139.418 66.0747 139.535 66.0816 139.636 66.0816C141.16 66.2165 142.63 66.6383 144.12 66.9598C145.724 67.5441 147.353 68.1699 148.749 69.176C149.071 69.418 149.379 69.6808 149.683 69.947C150.208 68.9686 150.786 68.0143 151.335 67.0497C151.605 66.621 151.871 66.1923 152.138 65.7601C151.349 64.1766 150.903 62.5136 150.668 60.7607C150.253 59.0285 150.312 57.2514 150.409 55.4846C150.533 53.8977 150.983 52.3695 151.391 50.8379C151.861 49.3857 152.269 47.8818 153.057 46.5645C154.558 43.7743 156.86 41.4683 159.18 39.3661L159.184 39.3696ZM158.171 91.345C158.316 90.5394 158.596 89.7131 158.437 88.8868C158.364 88.8868 158.295 88.8799 158.226 88.8626C157.666 90.2317 157.175 91.632 156.459 92.9389C155.025 95.8085 152.954 98.3878 150.699 100.642C150.322 101.081 149.911 101.482 149.468 101.849C149.98 101.994 150.499 102.122 151.031 102.187C151.837 102.34 152.632 102.602 153.462 102.509C155.394 100.099 156.47 97.1984 157.338 94.2734C157.69 93.3192 157.95 92.3304 158.167 91.3381L158.171 91.345ZM159.661 132.219C159.775 131.389 159.806 130.445 159.536 129.657C159.205 128.45 158.513 127.385 157.842 126.351C157.078 124.93 155.927 123.772 154.91 122.531C154.617 122.223 154.288 121.947 153.935 121.701C152.985 122.337 152.024 122.963 150.959 123.395C148.877 124.453 146.772 125.525 144.604 126.372C143.252 126.835 141.831 127.046 140.434 127.326C138.512 127.731 136.558 128.07 134.595 128.004C134.916 128.509 135.317 128.969 135.687 129.439C137.627 131.859 139.687 134.248 142.149 136.15C143.864 137.18 145.534 138.356 147.415 139.068C149.137 139.673 150.969 140.057 152.753 139.483C155.384 139.04 157.593 137.322 158.976 135.116C159.44 134.245 159.595 133.149 159.661 132.222V132.219ZM205.942 63.9761C206.184 65.1239 205.638 66.3202 205.354 67.4196C204.621 70.7733 202.516 73.5808 200.552 76.3156C198.916 78.3693 197.198 80.3504 195.476 82.335C193.319 85.2911 191.196 88.6932 191.224 92.4721C191.224 93.0979 191.469 93.6995 191.673 94.2838C192.506 95.5527 193.589 96.6556 193.879 98.1872C194.014 99.5045 193.243 100.289 192.261 100.403C191.974 100.514 191.673 100.562 191.431 100.535C190.159 100.535 189.011 99.9678 188.122 99.1242C186.622 98.0489 185.647 96.417 184.755 94.8301C182.435 89.5368 184.312 83.3895 187.275 78.7427C188.42 77.0693 189.547 75.3752 190.788 73.7709C191.504 72.8547 192.133 71.8763 192.793 70.9255C193.153 70.2893 193.502 69.6428 193.872 69.017C193.979 68.73 194.086 68.4396 194.218 68.163C194.761 66.4861 194.851 64.6053 193.972 63.0218C193.146 61.4418 192.154 59.8444 190.629 58.8556C189.277 58.216 187.86 57.7734 186.418 57.3931C185.948 57.3551 185.197 57.3931 184.866 57.0647C184.036 57.0163 183.203 57.037 182.38 57.1373C181.132 57.2929 179.762 57.3724 178.777 58.2333C176.623 59.7096 174.441 61.7011 171.741 61.8981C171.295 62.4064 170.884 62.9319 170.514 63.5128C169.57 65.1965 168.453 66.8561 167.779 68.6609C168.28 69.6151 168.761 70.5763 169.176 71.5755C169.95 73.6949 170.856 75.7728 171.582 77.9095C172.27 80.6685 172.81 83.5451 173.027 86.3663C173.484 91.1479 172.505 95.8984 171.454 100.538C170.936 103.138 169.836 105.558 168.578 107.875C168.412 108.245 168.225 108.601 168.024 108.95C168.668 109.407 169.276 109.925 169.902 110.364C170.839 110.997 171.835 111.526 172.744 112.204C173.878 113.061 174.677 114.278 175.721 115.232C177.273 116.429 178.445 118.06 179.628 119.578C181.125 121.687 182.532 123.914 183.182 126.445C184.005 128.616 184.447 130.877 184.582 133.194C184.845 135.901 184.637 138.663 183.534 141.17C182.535 143.68 180.627 145.623 178.659 147.404C176.803 149.506 174.618 151.266 172.204 152.69C169.297 154.446 166.292 156.154 163.084 157.25C160.757 157.89 158.319 158.073 155.917 158.156C154.198 158.108 152.473 158.205 150.762 157.983C149.341 157.81 147.968 157.385 146.575 157.074C144.531 156.597 142.574 155.833 140.628 155.058C138.699 154.149 136.96 152.832 135.359 151.438C133.236 149.647 131.002 147.922 129.18 145.813C127.777 144.25 126.681 142.418 125.802 140.516C124.682 137.948 123.725 135.396 122.629 132.858C121.418 130.32 120.26 127.748 119.638 124.996C119.524 124.578 119.354 124.17 119.251 123.748C118.767 123.997 118.213 124.232 117.664 124.45C116.824 124.827 115.963 125.159 115.084 125.439C115.043 125.456 115.005 125.477 114.967 125.494C111.713 126.87 108.145 127.323 104.633 127.133C101.5 127.019 98.354 126.3 95.55 124.872C93.4479 123.72 91.5843 122.147 89.9801 120.377C89.4062 119.727 88.853 119.06 88.3447 118.358C88.2721 118.382 88.1995 118.403 88.1269 118.427C84.5692 119.682 80.7903 120.031 77.039 120.01C75.6768 119.979 74.3249 119.793 72.9696 119.689C70.5978 119.506 68.1672 119.305 65.9821 118.289C65.7989 118.403 65.6191 118.517 65.4359 118.634C62.9362 120.173 60.6646 122.05 58.4692 123.993C55.6963 126.427 52.9235 128.865 50.2336 131.385C50.0884 131.665 49.7945 131.918 49.5767 132.129C49.1168 132.613 48.695 133.128 48.2352 133.615C46.299 135.597 44.318 137.522 42.1813 139.289C40.6289 140.79 38.8034 141.993 36.9813 143.141C35.1005 144.06 33.3441 145.27 31.3215 145.875C28.7284 146.726 26.004 147.324 23.2726 147.193C21.6546 147.224 20.0503 147.016 18.4392 146.992C16.1953 146.975 13.9583 146.418 11.9288 145.471C6.42463 142.76 1.97838 137.571 0.941158 131.441C0.291163 128.101 -0.0476642 124.598 0.457119 121.238C0.692224 117.915 2.11668 114.904 3.47199 111.917C4.73395 109.32 6.14112 106.786 7.71424 104.366C9.47407 101.921 11.1959 99.4526 13.1389 97.1604C13.5988 96.5519 14.0448 95.9779 14.4493 95.3452C14.8227 94.8819 15.1961 94.4359 15.49 93.9277C15.2687 94.0556 15.0474 94.1801 14.8192 94.2976C14.0448 94.6814 13.2081 94.9476 12.3506 95.0686C11.6764 95.1897 11.023 95.4766 10.3246 95.4144C9.53285 95.3591 8.76876 95.4524 8.00467 95.3902C6.69085 95.2346 5.48075 94.6814 4.34672 94.028C3.57917 93.5647 3.11242 92.7487 2.80471 91.9362C2.36561 90.8575 2.01642 89.7477 1.69488 88.6275C1.40445 86.9714 1.04488 85.2807 1.17626 83.5969C1.36988 81.6331 1.82626 79.5898 2.97066 77.951C3.6414 76.8861 4.59911 76.1462 5.64671 75.5169C4.59219 75.2645 3.51694 74.8082 2.99141 73.8401C2.46588 72.6922 2.79434 71.413 3.52385 70.4069C3.08822 69.7015 2.64912 68.9962 2.17546 68.3151C1.3111 67.3436 0.370684 66.3133 0.0491435 65.0167C-0.172131 63.9415 0.519353 62.887 1.13823 62.0606C2.52811 60.3769 4.94139 59.6647 7.05388 60.0623C9.19402 60.4391 9.71955 60.5705 10.0757 62.8386C10.1414 63.6718 10.335 64.4774 10.5562 65.2795C10.6427 65.6667 10.6911 66.0609 10.7429 66.4516C12.8174 66.2061 14.8607 66.6486 14.4216 69.4249C14.3283 70.3239 13.827 71.0154 13.2012 71.61C13.5642 72.0457 14.024 72.3949 14.5876 72.5989C14.8988 72.7026 15.2307 72.8132 15.5626 72.8858C15.6006 72.6991 15.6421 72.5124 15.694 72.3257C15.8738 71.6619 16.1019 71.0119 16.299 70.3515C16.3785 69.9989 16.5687 69.6359 16.9525 69.5494C17.8479 69.5321 18.5325 70.1925 19.2447 70.7215C20.1126 66.621 21.5785 62.5965 23.8397 59.0665C24.4793 58.1192 25.1085 57.1407 25.9971 56.4078C26.1423 56.2314 26.2875 56.0447 26.4396 55.858C23.1793 53.2477 19.4798 51.194 16.4235 48.3209C15.49 47.5049 14.4528 46.8203 13.4847 46.0493C11.8666 44.6871 10.4145 43.0829 9.23551 41.3265C7.34776 38.1595 6.30362 34.4566 6.21718 30.7744C6.1342 28.4614 6.97781 26.2936 8.0185 24.271C8.64083 23.0782 9.30466 21.8612 10.3903 21.028C10.4663 20.9657 10.5459 20.8966 10.6323 20.824C10.7257 20.4782 10.8916 20.1152 10.9366 19.8179C11.2581 18.3796 11.6592 16.9863 11.9392 15.5445C12.0948 14.7908 12.2089 14.0302 12.3783 13.2799C12.5131 12.4882 12.6756 11.5616 13.457 11.1536C14.1727 10.635 15.1408 10.3653 15.8945 9.99189C18.007 9.0411 20.116 8.1318 22.2492 7.26745C22.5327 7.18101 22.9546 7.01851 23.4075 6.87676C24.3963 5.83262 25.5027 4.88183 26.6851 4.04859C26.6955 4.03822 26.7024 4.0313 26.7162 4.02093C26.7957 3.96561 26.8822 3.91029 26.9686 3.85151C26.9824 3.8446 26.9928 3.83423 27.0066 3.82731C27.3351 3.60604 27.667 3.39513 28.0024 3.19115C28.5521 2.78317 29.133 2.43051 29.7691 2.18158C29.9109 2.06057 30.0872 2.00179 30.2601 2.00871C31.7468 1.36217 33.2992 1.00951 34.4228 1.59728C35.6813 2.25073 36.5699 3.22572 35.7643 4.66055C35.6848 4.7781 35.5983 4.88183 35.5015 4.97863C35.5015 4.97863 35.5015 4.97863 35.5015 4.98209C35.46 5.04432 35.4082 5.09964 35.3425 5.14805C35.3287 5.15496 35.3114 5.16188 35.2975 5.16533C35.1904 5.37278 34.9795 5.52145 34.7374 5.54219C34.4159 5.72544 34.0736 5.88448 33.7486 6.06426C33.6518 6.13687 33.5585 6.21293 33.4617 6.29245C31.7848 7.42303 30.2117 8.80946 29.3197 10.6453C29.496 10.8632 29.6931 11.0672 29.8867 11.2711C31.076 12.4812 32.5524 13.3456 33.8005 14.4727C34.2811 15.0432 34.1773 15.8384 34.2707 16.5299C34.2845 16.6129 34.288 16.6958 34.2776 16.7754C34.6994 17.1349 35.135 17.4807 35.5257 17.8783C38.2121 20.2501 38.5302 24.2676 37.2959 27.4692C36.2587 29.8997 34.6337 32.2335 32.3103 33.568C31.8263 33.8585 31.3077 34.0521 30.7752 34.1938C29.776 34.5949 28.687 34.7643 27.6186 34.6502C24.4654 34.5292 21.5336 33.0771 18.9993 31.2965C18.9785 31.2792 18.9578 31.2619 18.9336 31.2481C18.9509 31.5316 18.9751 31.8117 19.0442 32.0641C19.1894 32.8178 19.6112 33.4747 20.0088 34.1212C22.0349 37.4749 25.6271 39.3281 28.8875 41.2816C30.4226 42.0456 31.93 42.9895 33.3648 43.8746C35.3217 45.0674 37.2821 46.281 38.9209 47.906C39.2459 48.1826 39.5571 48.4764 39.8648 48.7738C42.24 48.1618 44.6326 47.5084 47.0908 47.6017C50.5966 47.3977 54.061 47.6363 57.5599 47.4669C58.649 47.46 59.7242 47.294 60.796 47.1073C62.3761 46.9206 63.9699 46.6751 65.4497 46.0874C66.6149 45.6448 67.6071 44.9015 68.4784 44.0233C70.1034 42.6403 71.4068 40.9185 72.1294 38.9028C72.1778 38.7818 72.2297 38.6574 72.285 38.5364C70.909 37.6893 69.4983 36.8975 68.1499 36.009C67.2752 35.3866 66.4005 34.7574 65.6018 34.0383C65.3978 33.8654 65.2561 33.6441 65.1558 33.3952C64.1221 30.2282 63.2819 27.0128 62.5558 23.7628C61.9888 23.5519 61.4495 23.2995 60.9896 22.9192C58.9774 21.7575 55.7032 18.5352 58.5176 16.523C58.5176 16.523 58.5176 16.523 58.521 16.523C58.6144 16.4158 58.7354 16.3363 58.8806 16.2982C62.2378 15.5411 61.8021 12.7163 62.7944 10.1648C63.9526 7.79297 65.6606 6.45495 68.3401 6.3132C70.7741 6.1023 73.2358 7.49909 74.7709 9.3661C76.9802 9.74642 79.148 10.3203 81.3331 10.8148C82.194 11.0879 83.086 11.3403 83.9676 11.6238C84.4863 11.489 85.0464 11.8209 85.5477 11.9522C86.6506 12.2358 87.5737 13.0586 88.1096 14.044C88.362 15.1815 88.6283 16.3293 88.8564 17.4807C88.8737 17.5152 88.8876 17.5498 88.8979 17.5878C89.4407 20.1083 89.6793 22.6945 90.0527 25.2495C90.5195 27.891 90.7615 28.2713 89.1157 30.567C88.528 31.4625 88.1373 32.4617 87.6152 33.3952C87.1934 34.2146 86.5676 35.0444 86.1147 35.8154C85.6825 36.5691 85.1881 37.2848 84.6591 37.9693C84.6142 38.1733 84.5761 38.3635 84.5692 38.5191C84.3065 39.8813 84.0645 41.2677 83.5804 42.5677C82.7714 44.6698 82.0592 46.7823 80.8525 48.6839C79.3727 50.786 77.8411 52.8881 76.019 54.7067C72.5409 57.9982 67.8976 59.8444 63.2266 60.6396C60.5332 61.0096 57.8261 61.2412 55.1051 61.2758C53.3729 61.2931 51.6373 61.1133 49.9086 61.1963C49.8049 61.1963 49.6977 61.1963 49.594 61.2032C49.6908 61.3657 49.7807 61.5282 49.8637 61.6838C51.0288 63.5612 52.0833 65.5008 53.0963 67.4611C54.0783 69.5287 55.0014 71.6273 56.2391 73.5566C57.2867 75.3268 58.1442 77.1938 59.5617 78.6908C61.7295 81.2044 64.4816 83.1855 67.3305 84.8416C69.0869 85.9341 71.0162 86.6671 73.0007 87.1926C71.9289 86.8538 70.8848 86.4355 69.8717 85.8926C66.8984 84.1847 64.1359 81.889 62.5005 78.8222C61.3008 76.9103 60.917 74.6318 60.7269 72.4191C60.7545 70.2582 61.484 68.1111 62.7218 66.3444C63.6795 64.7332 65.1973 63.5162 66.7946 62.5896C67.5449 62.1575 68.4162 62.0848 69.2632 62.0157C70.4837 61.7875 71.7768 61.8567 72.9765 62.1609C73.3223 62.2646 73.6472 62.4098 73.9584 62.5758C74.0518 62.5343 74.1589 62.5101 74.2834 62.5136C74.7398 62.5516 75.0786 62.925 75.4382 63.1739C77.1807 64.3114 77.3398 66.4343 75.5419 67.596C75.006 67.9555 74.4494 68.2805 73.8063 68.3877C73.0941 68.571 72.3196 68.2045 71.6454 68.4914C69.5053 70.0335 70.3177 73.1521 72.0707 74.6595C72.8175 75.3268 73.5193 76.1323 74.4839 76.4746C76.0916 77.0486 77.7547 77.2698 79.4419 76.9483C81.5371 76.7305 83.6219 76.2534 85.6376 75.6207C85.1051 74.7736 84.6902 73.8677 84.6038 72.8443C84.5001 71.1156 85.1916 69.4422 86.3464 68.1803C86.2668 66.009 86.6126 63.779 87.2695 61.708C86.7509 60.6708 86.4397 59.5367 86.1873 58.4062C85.8519 57.0889 85.5581 55.7474 85.7206 54.3852C85.9349 52.3004 86.9687 50.3227 88.5107 48.9224C89.3094 48.224 90.2705 47.8299 91.2835 47.6294C91.5636 46.682 92.0407 45.6344 92.1859 45.0605C93.2162 42.5954 94.3019 40.1337 95.8301 37.9244C97.6694 35.3832 100.027 33.2707 102.209 31.0372C104.474 29.063 107.229 27.7354 109.954 26.5149C112.474 25.6194 115.06 24.7966 117.767 24.9279C119.448 24.9764 121.19 25.367 122.794 25.82C124.509 26.2176 126.238 26.6359 127.787 27.5037C129.274 28.3923 130.857 29.0699 132.347 29.9239C132.897 28.1537 132.797 26.342 132.655 24.5407C132.534 21.7817 132.451 18.9432 133.101 16.2395C133.54 14.2376 134.29 12.3014 135.169 10.4552C135.687 9.19669 136.424 8.03154 137.291 6.98048C140.303 3.58875 144.251 0.494359 148.915 0.0898411C151.315 -0.304305 153.638 0.66723 155.823 1.50738C157.714 2.25764 159.564 3.21881 161.065 4.60869C161.286 4.81613 161.466 5.0547 161.635 5.30363C162.015 5.34512 162.396 5.40044 162.773 5.42118C166.116 5.94325 169.522 5.99512 172.83 6.72463C173.542 6.82835 174.237 7.01505 174.95 7.12569C175.309 7.18793 175.714 7.22596 175.932 7.55787C176.212 7.99005 176.308 8.53978 176.45 9.0169C176.768 9.96423 177.069 10.9047 177.207 11.9004C177.774 10.5969 178.155 9.21397 178.421 7.81372C179.261 5.08927 180.938 2.2853 183.821 1.44169C185.785 0.687975 188.485 1.14435 188.167 3.77545C187.988 4.67784 187.452 5.33475 187.085 6.13341C186.591 6.99085 186.283 8.09031 186.038 8.97541C185.678 10.5174 185.789 12.0594 185.522 13.5807C184.831 17.2594 183.974 21.1144 181.699 24.1673C181.782 24.5718 181.858 24.9694 182.017 25.2184C182.359 26.1692 183.102 27.2029 182.248 28.1122C180.63 29.7061 179.154 31.4452 177.501 33.0079C176.07 34.2422 174.932 35.722 173.46 36.8906C173.193 37.1361 172.917 37.3677 172.637 37.5959C175.683 38.3877 178.507 40.8425 180.361 43.1762C180.845 43.8297 181.232 44.535 181.56 45.2645C181.923 45.2368 182.252 45.2265 182.463 45.223C183.69 45.344 184.917 45.4858 186.152 45.5238C188.216 45.752 190.325 45.7451 192.289 46.4953C193.654 46.8929 195.037 47.2387 196.285 47.944C198.163 48.836 200.033 49.977 201.247 51.7091C204.476 56.0136 206.236 58.7968 205.9 63.8689C205.918 63.9 205.932 63.938 205.942 63.9761Z" fill="#F3F3F4"/>
<path d="M92.3961 67.5199C93.5024 67.1189 93.4229 65.6391 93.5993 64.6641C93.6892 63.5957 94.0107 62.4721 93.6995 61.421C93.2501 60.446 92.0745 61.02 91.8394 61.8359C91.5663 62.6726 91.5525 63.5646 91.4522 64.4324C91.4176 65.3452 91.065 66.4032 91.5594 67.233C91.7495 67.475 92.0918 67.596 92.3926 67.5165L92.3961 67.5199Z" fill="#0D0C22"/>
<path d="M103.809 60.8644C104.528 61.3692 105.019 60.6155 105.199 59.9827C105.68 58.6828 106.35 57.4588 107.256 56.4043C108.176 55.1769 109.334 54.0775 110.717 53.3929C113.507 52.532 116.64 53.8527 117.383 56.8019C117.774 58.057 117.704 59.4157 117.583 60.7123C117.583 61.3311 117.2 62.2923 118.085 62.4513C118.828 62.5447 118.932 61.7045 118.932 61.1444C119.004 60.2421 119.094 59.3362 119.046 58.4304C118.915 53.5934 114.676 50.6062 110.088 52.1517C107.363 53.5969 105.272 56.1969 104.1 59.0181C103.951 59.6647 103.131 60.3077 103.809 60.8644Z" fill="#0D0C22"/>
<path d="M107.08 74.1823C107.325 74.3725 107.647 74.3656 107.896 74.1962C108.456 73.9922 108.981 73.6879 109.448 73.318C112.511 70.9047 113.573 66.7731 113.722 63.0322C113.87 58.987 110.593 57.3896 107.394 59.8444C105.77 61.0683 104.912 63.0875 104.272 64.9683C103.501 67.2675 102.921 69.909 103.654 72.2808C104.241 73.5704 105.666 74.4105 107.08 74.1823ZM105.79 64.7782C106.229 63.5923 106.866 62.3303 107.716 61.3657C110.606 58.8072 112.767 60.2178 112.301 63.9069C111.931 67.3124 110.817 71.4164 107.391 72.91C107.229 72.8097 107.025 72.7786 106.838 72.827C105.991 72.9342 105.202 72.3949 104.877 71.6238C104.404 69.3281 105.009 66.9425 105.79 64.7782Z" fill="#0D0C22"/>
<path d="M107.152 70.1061C109.13 70.1614 109.424 67.3228 109.963 65.8984C110.153 64.958 111.232 62.1644 109.389 62.4444C108.525 62.116 108.165 63.2154 107.861 63.8101C107.491 64.55 107.128 65.2933 106.903 66.0885C106.717 67.2018 105.403 69.7672 107.149 70.1026L107.152 70.1061Z" fill="#0D0C22"/>
<path d="M106.305 79.7591C107.356 79.7591 108.449 79.8767 109.479 79.6139C110.914 79.0988 112.376 78.4937 113.376 77.2871C113.801 76.6578 115.246 75.6898 114.409 74.9222C114.119 74.6975 113.659 74.7424 113.438 75.0467C112.549 76.2429 111.505 77.4565 110.015 77.9129C109.355 78.2241 108.673 78.4661 107.93 78.39C107.346 78.3727 106.751 78.4661 106.177 78.3381C103.18 77.4461 101.793 75.4616 102.191 72.3084C102.274 71.8935 101.931 71.489 101.513 71.4925C100.434 71.527 100.777 73.4943 100.801 74.2342C101.136 77.2905 103.404 79.1818 106.309 79.7661L106.305 79.7591Z" fill="#0D0C22"/>
<path d="M197.999 51.0073C196.426 49.9147 194.684 49.04 192.9 48.352C191.461 47.9475 189.982 47.6674 188.505 47.4358C186.061 47.211 183.592 47.2006 181.138 47.1972C180.743 47.2145 180.353 47.2352 179.962 47.1972C179.872 46.8342 179.772 46.4677 179.644 46.1047C177.936 39.864 167.083 36.9148 161.741 39.7465C158.294 41.5028 155.774 44.6871 154.229 48.1791C152.88 50.9036 151.905 53.8977 152.123 56.9852C152.14 57.1165 152.185 57.2203 152.247 57.3067C152.247 57.3067 152.247 57.3067 152.247 57.3102C152.282 58.5375 152.455 59.7684 152.586 60.9819C152.866 62.5689 153.136 64.1662 153.592 65.7117C153.572 65.7497 153.554 65.7912 153.54 65.8362C153.482 66.1127 153.385 66.379 153.26 66.6314C152.949 67.3056 150.985 69.3662 150.74 70.6005C150.315 71.3888 149.924 72.2185 149.561 73.0138C149.561 73.0138 149.561 73.0138 149.561 73.0172C149.074 71.9039 148.226 70.9531 147.255 70.234C146.297 69.6151 145.18 69.2555 144.109 68.8683C142.909 68.5122 141.685 68.201 140.451 67.9659C140.344 67.8968 140.216 67.8587 140.063 67.8657C139.818 67.8242 139.576 67.7965 139.33 67.7792C138.311 67.6305 137.284 67.5407 136.253 67.5407C137.771 65.6979 139.102 63.7755 140.181 61.8152C141.367 59.1806 142.09 56.349 142.522 53.4966C142.539 53.3583 142.556 53.22 142.57 53.0817C143.555 52.9987 144.907 51.0903 145.308 50.4299C146.411 48.6735 147.3 46.7132 147.518 44.6353C147.549 44.3587 147.583 44.0855 147.614 43.8089C147.621 43.7813 147.632 43.7536 147.639 43.7225C147.652 43.6603 147.652 43.598 147.649 43.5392C147.863 41.7656 148.074 39.9816 148.033 38.1975C148.019 36.1162 147.514 34.097 147.168 32.0537C146.681 29.509 146.187 26.9609 145.779 24.4024C145.018 19.9735 144.544 14.0302 149.779 12.2876C151.013 11.9038 152.296 11.9488 153.537 12.2323C152.534 13.3871 151.815 14.7528 150.913 15.9871C150.363 16.7996 149.772 17.5809 149.163 18.3485C148.942 18.6631 148.558 18.9328 148.441 19.2993C148.354 19.3857 148.289 19.4929 148.258 19.6104C148.213 19.7902 148.24 19.9596 148.323 20.1048C148.596 20.786 148.704 21.5189 148.897 22.2208C149.309 24.1639 149.986 26.0101 150.491 27.9324C151.276 30.6673 151.86 33.4643 152.749 36.1646C152.804 36.3374 152.897 36.4584 153.012 36.538C153.094 36.6624 153.226 36.7662 153.416 36.8215C155.653 36.6901 157.9 37.0116 160.141 37.181C163.242 37.3747 166.271 37.4092 169.393 37.6063C169.458 37.6167 169.521 37.6132 169.583 37.6063C169.949 37.6167 170.33 37.3643 170.299 36.8768C170.295 36.863 170.292 36.8457 170.288 36.8318C170.468 36.7281 170.631 36.5691 170.783 36.4204C171.446 35.8776 172.055 35.2656 172.684 34.6848C173.946 33.4263 175.267 32.2957 176.574 31.058C177.13 30.6016 177.583 30.0622 178.064 29.5332C178.735 28.9455 179.405 28.3715 180.059 27.7181C181.034 27.1269 180.1 26.0689 180.004 25.2529C179.99 24.9902 179.928 24.6756 179.793 24.4335C182.095 21.1697 182.942 16.2187 183.585 12.5262C184.056 9.98497 184.325 7.41611 185.553 5.06161C185.777 4.67438 185.968 4.2664 186.196 3.87917C186.365 3.54034 186.213 3.11854 185.878 2.95258C185.577 2.86269 185.238 2.79008 184.941 2.92146C180.681 4.13156 179.765 9.06184 178.662 12.7544C178.154 14.4762 177.939 16.357 176.878 17.8264C176.432 16.5748 175.951 15.3336 175.564 14.0613C175.447 13.1969 175.191 12.3706 174.894 11.5581C174.849 11.3956 174.811 11.2331 174.766 11.0741C174.6 10.5935 174.517 9.72221 174.119 9.34881C174.026 9.07913 173.766 8.89589 173.466 8.88206C173.355 8.88206 173.255 8.90626 173.165 8.95466C173.154 8.95466 173.148 8.94775 173.141 8.94429C170.624 8.50866 168.079 8.15946 165.534 7.83446C165.316 7.72728 165.04 7.69962 164.784 7.73765C163.671 7.5959 162.557 7.4576 161.448 7.3193C161.378 7.30893 161.313 7.31239 161.254 7.3193C160.193 6.31319 158.993 5.44192 157.741 4.70549C155.802 3.7305 153.824 2.71402 151.629 2.50312C150.159 2.27493 148.645 2.04674 147.168 2.35099C144.679 2.81428 142.418 4.2422 140.554 5.91559C137.667 8.46371 135.932 12.1113 134.967 15.7865C134.431 18.1998 134.169 20.6788 134.397 23.1439C134.615 25.5572 134.971 27.9809 134.57 30.3976C134.438 31.0303 134.12 31.5973 133.664 32.0502C133.56 32.1367 133.463 32.2404 133.384 32.351C132.893 32.0606 132.405 31.7633 131.932 31.4452C129.173 29.7925 126.306 28.1295 123.063 27.7077C119.544 26.9609 115.882 26.8434 112.366 27.6697C110.326 28.2782 108.349 29.1979 106.52 30.2869C104.217 31.8981 102.001 33.7063 100.099 35.7842C98.6851 37.4092 97.6962 39.176 96.5795 41.0464C94.9683 43.6706 93.9104 46.5921 92.9215 49.4929C91.3346 49.2613 89.7234 50.0288 88.5375 51.8094C87.075 54.5892 87.3586 58.0189 88.9974 60.6466C89.0873 60.8678 89.2429 60.9958 89.4226 61.0476C89.2671 61.6665 89.146 62.2819 89.025 62.8593C88.866 63.9104 88.5928 65.9744 88.662 67.9141C88.2056 68.1734 87.8218 68.6401 87.5107 69.0688C86.6844 70.1925 86.5737 71.6273 86.5357 72.9757C86.4423 74.6042 87.4035 76.001 88.745 76.7789C88.745 76.7789 88.745 76.7789 88.7484 76.7789C88.1849 76.7754 87.6179 76.8446 87.0785 76.9379C85.1423 77.2768 83.2719 77.8334 81.3841 78.3658C79.0435 78.8706 76.5092 79.0089 74.1962 78.1964C71.247 76.9345 68.2356 73.9023 68.3739 70.4898C68.5882 69.0827 69.3419 67.6167 70.5728 66.8492C71.406 66.2718 72.4571 66.1266 73.4493 66.1888C73.9541 66.2234 74.4831 66.6037 74.8461 66.0298C75.0259 65.6875 74.9637 65.4247 74.7805 65.2311C74.5211 64.5189 73.0241 64.0487 72.381 63.9138C68.8925 63.0737 65.4074 65.3314 63.6026 68.2149C60.2904 73.8712 64.467 81.3703 69.8433 84.0706C72.8201 85.7163 76.2672 86.4977 79.6347 86.8019C81.5916 86.878 83.5761 86.7501 85.4915 87.2514C84.7689 88.0017 83.9979 88.6932 83.1889 89.3362C82.3868 89.3466 81.4809 89.6025 80.6408 89.5402C78.7772 89.6267 76.8964 89.3604 75.0398 89.0493C67.8967 87.6698 61.0994 83.8908 56.6774 78.0374C54.6444 75.0744 53.2269 71.8694 51.6607 68.6159C50.779 67.0462 50.1463 65.3625 49.4168 63.7271C49.1644 63.2396 48.1376 61.4418 47.1176 60.3354C48.2724 60.1072 49.4687 60.1383 50.6408 60.0588C54.3921 59.7788 58.2471 59.9067 61.9534 59.1115C66.9874 58.7554 71.9143 56.7362 75.4719 53.1094C76.5818 52.0964 77.4842 50.8863 78.3243 49.645C79.1852 48.4419 80.053 47.2318 80.6442 45.8661C81.8543 43.1486 82.9365 40.3031 83.1509 37.3124C83.1509 37.1707 83.1474 37.0289 83.1405 36.8837C83.3618 36.7281 83.5208 36.4377 83.6626 36.1957C84.1743 35.4696 84.6791 34.7436 85.0905 33.9553C85.4397 33.3364 85.8027 32.7175 86.1761 32.0986C86.4458 31.9534 86.553 31.7183 86.5461 31.4867C87.1338 30.5221 87.7389 29.5678 88.3577 28.6412C88.5548 28.337 88.866 28.0569 88.8452 27.6628C88.8452 27.6144 88.8314 27.5729 88.821 27.5279C88.821 27.5072 88.8314 27.483 88.8314 27.4622C88.8314 26.6117 88.6758 25.7681 88.5652 24.9245C88.382 22.8397 87.9256 20.779 87.3586 18.7599C87.0439 17.6017 86.7708 16.5748 86.4631 15.3682C86.3386 14.9948 86.2833 14.5557 85.9756 14.2791C85.2806 13.8884 84.4197 13.8573 83.6937 13.5081C83.2373 13.3006 82.7602 13.1693 82.2658 13.0863C81.519 12.8062 80.7618 12.578 79.9666 12.4743C78.5214 12.0525 77.0693 11.6549 75.5999 11.3403C74.936 11.2124 74.2791 11.1156 73.6291 10.9358C73.2419 10.2028 72.6922 9.50094 72.3741 9.29695C70.4345 7.77223 67.3228 7.95893 65.6183 9.76716C63.53 11.7759 64.5119 15.2748 62.4755 17.3355C62.2542 17.5533 62.0502 17.8022 61.7702 17.9474C61.2758 18.1445 60.7157 18.1652 60.2178 17.9785C59.9447 17.9128 59.6439 18.0581 59.4987 18.2897C59.1011 18.9155 60.1072 20.1463 60.5739 20.5543C60.8678 20.8793 61.2654 21.0418 61.6768 21.1732C62.2162 21.3875 62.7659 21.6019 63.3571 21.6019C63.3606 21.6019 63.3641 21.6019 63.3675 21.6019C64.1765 23.4966 64.5638 25.5745 65.1377 27.5556C65.5284 29.2428 66.2337 30.8436 66.6659 32.5135C66.6901 32.638 66.7523 32.7486 66.8353 32.8385C66.8422 32.8766 66.8491 32.9111 66.863 32.9492C66.9287 33.1359 67.0704 33.2742 67.2398 33.3502C67.3435 33.5058 67.506 33.6199 67.6962 33.6579C68.2805 33.9691 68.8233 34.3633 69.4422 34.6122C71.1882 35.4835 72.8996 36.4342 74.6352 37.3159C74.1962 38.6159 73.6706 39.8882 73.1002 41.1294C71.572 44.1512 70.2893 46.0182 67.1396 47.498C64.3494 48.6735 61.4002 49.5344 58.3646 49.6969C54.6963 49.8836 51.0245 49.6693 47.3562 49.8871C44.8427 49.9113 42.3499 50.2847 39.9469 51.0176C39.94 51.0176 39.9297 51.0211 39.9227 51.0246C38.9685 49.6278 36.0781 47.7711 35.4523 47.2663C30.6914 44.0993 25.4258 41.6549 21.1662 37.7826C19.2301 35.9191 17.3562 33.53 17.1522 30.7433C17.1349 30.5774 17.1314 30.4149 17.1349 30.2558C17.1764 30.0968 17.1902 29.9135 17.1764 29.7165C17.2594 29.2324 17.4564 28.7864 17.8091 28.3819C18.5524 29.0423 19.3373 29.6542 20.1947 30.1694C20.3192 30.2385 20.4402 30.2627 20.5543 30.2627C20.9726 30.7433 21.5431 31.1824 21.8577 31.383C22.7912 31.988 23.8699 32.23 24.9417 32.4513C25.6782 32.8005 26.4699 32.8558 27.2755 32.842C30.6188 33.3883 34.0278 30.7157 35.2725 27.7354C36.0539 25.8061 36.13 23.5865 35.6355 21.5742C35.1584 20.0288 34.014 18.791 32.8558 17.7123C32.6967 17.5325 32.4962 17.3355 32.2784 17.2179C32.3199 16.8756 32.3648 16.523 32.3199 16.1841C32.3994 16.0009 32.3959 15.7831 32.2542 15.5272C31.2204 14.4174 29.8651 13.6395 28.6654 12.7267C28.1399 12.3637 27.7941 11.807 27.2962 11.406C27.272 11.3852 27.2444 11.3714 27.2167 11.3541C28.3024 8.88552 29.9481 6.62436 32.1505 5.05124C32.6414 4.664 33.2983 4.59486 33.7893 4.22837C34.5119 3.9172 34.2007 2.80391 33.4193 2.91109C31.8704 2.98024 30.2523 3.57146 28.942 4.38741C27.1614 5.35549 25.6955 6.77995 24.4543 8.37036C24.3505 8.5052 24.233 8.66078 24.1051 8.83711C23.4205 8.41531 22.5838 8.87514 21.9269 9.20014C21.0003 9.67035 20.0184 10.023 19.0468 10.3791C18.2067 10.8217 17.3493 11.2435 16.478 11.6169C16.0631 11.7725 15.382 11.8727 15.0328 12.215C14.9775 12.2081 14.9221 12.2046 14.8565 12.2116C14.5349 12.2565 14.2445 12.5573 14.2514 12.8892C13.9783 13.6568 13.8849 14.4658 13.7362 15.2645C13.3456 17.1038 13.0448 18.9604 12.6402 20.8344C12.5019 21.2527 12.4051 21.5846 12.3498 21.8543C12.0871 21.9373 11.8243 22.079 11.6099 22.1862C10.4586 22.7394 9.57697 23.7559 8.95464 24.8519C5.85333 30.5705 9.49399 39.418 13.6844 43.7778C16.2913 46.4953 19.2474 48.8498 22.3729 50.9381C23.6418 51.8716 25.0143 52.6496 26.2832 53.5865C27.3308 54.3437 28.4579 55.0421 29.3154 56.0171C29.0837 56.2176 28.8555 56.4216 28.6343 56.636C27.2478 58.1918 25.8268 59.7407 24.7931 61.5628C23.8492 63.0944 23.0263 64.7021 22.3106 66.3513C21.7609 68.0212 21.346 69.7638 21.1628 71.5132C21.0383 72.5228 20.8482 73.5255 20.7341 74.5316C20.3987 73.9922 20.0149 73.484 19.5516 73.0449C19.3234 72.8236 19.0918 72.6092 18.8567 72.3949C18.5593 72.1217 18.2205 71.7414 17.778 71.814C16.7477 72.063 17.4046 73.1313 17.5429 73.7986C17.5878 74.0164 17.6293 74.2342 17.6673 74.452C16.7961 74.2411 15.8868 74.0683 15.0224 74.2757C14.8288 74.331 14.5868 74.3552 14.3517 74.4002C14.3517 74.4002 14.3448 74.4002 14.3448 74.3967C14.1581 74.2965 13.9506 74.2688 13.7432 74.2446C13.4043 74.1098 13.062 73.9957 12.7785 73.7848C12.1078 72.9654 11.7344 72.0249 11.1501 71.0914C11.2504 71.0327 11.3506 70.9773 11.4509 70.9186C11.4509 70.9186 11.4578 70.9186 11.4613 70.9186C11.8035 70.9082 12.0801 70.6454 12.1251 70.317C12.8511 69.3731 11.9557 68.2045 11.0187 67.8484C10.5036 67.6548 9.98149 67.7377 9.47671 67.9383C9.35915 67.672 9.26235 67.3885 9.14134 67.1223C8.52592 65.601 8.21475 63.983 7.81023 62.4133C7.59933 61.9915 7.12912 61.9016 6.70385 61.8497C5.61131 61.6527 4.48073 61.9016 3.50574 62.4098C2.19884 63.0737 1.34485 65.4109 2.65522 66.4308C2.74511 66.4689 2.835 66.5 2.92489 66.5276C3.02862 66.6521 3.14617 66.7662 3.24989 66.8768C3.72702 67.3263 4.09696 67.8311 4.45307 68.3843C4.92674 68.9513 5.33817 69.5494 5.58365 70.2513V70.2582C5.20333 70.476 4.83685 70.7111 4.50148 70.9981C3.64058 71.8452 4.17302 73.3768 5.36238 73.5324C5.94322 73.643 6.48604 73.4598 7.01157 73.2212C7.20172 73.6534 7.45066 74.0752 7.59241 74.5177C7.96927 75.2853 7.60624 76.0597 7.30545 76.7858C3.96558 78.5491 2.45469 82.4456 3.08048 86.0794C3.41239 89.9724 5.4419 93.4471 9.69798 93.6304C13.5046 93.8758 17.2628 91.7392 19.4756 88.6448C19.4272 89.1323 19.3304 89.6128 19.1886 90.0796C19.1471 90.1833 19.1091 90.2905 19.0641 90.3908C19.0054 90.4979 18.9708 90.6155 18.957 90.733C18.9016 90.8679 18.8463 90.9993 18.7875 91.1306C18.3277 92.3234 17.4806 93.4851 16.6474 94.4912C15.4684 96.0644 14.2514 97.634 13.1105 99.2452C11.2746 101.904 9.51128 104.552 7.67539 107.225C5.57328 110.565 3.931 114.226 3.0217 118.074C2.62064 120.415 2.09857 122.731 2.24033 125.134C2.21267 126.227 2.39245 127.302 2.62756 128.367C3.02516 130.324 3.38473 132.315 4.16957 134.162C5.7012 138.041 8.79559 141.173 12.3809 143.234C14.7527 144.551 17.5878 145.042 20.2811 145.187C22.8431 145.284 25.4362 145.028 27.929 144.441C30.4702 143.6 32.8489 142.363 35.1861 141.073C37.8794 139.804 40.1129 137.789 42.4259 135.953C44.7182 134.335 46.7339 132.305 48.7392 130.345C50.0772 129.083 51.4256 127.869 52.7187 126.555C56.5149 122.87 60.3008 119.022 64.9476 116.422C65.2898 116.56 65.684 116.65 65.9606 116.747C66.7316 116.992 67.5164 117.172 68.3082 117.331C70.7699 117.964 73.3111 118.195 75.8453 118.233C79.5171 118.258 83.2062 118.043 86.795 117.238C87.8115 116.961 88.8279 116.684 89.8444 116.404C89.8652 116.439 89.8894 116.474 89.9205 116.508C91.6872 118.607 93.4747 120.778 95.7981 122.296C97.8103 123.9 100.39 124.616 102.869 125.155C107.412 125.916 112.325 125.072 116.404 122.956C116.802 122.711 117.791 122.289 118.437 121.777C119.305 122.234 120.197 122.655 121.11 123.022C121.144 123.039 121.179 123.05 121.21 123.06C121.428 124.318 121.981 125.487 122.327 126.714C123.264 130.189 124.678 133.612 126.14 136.907C128.965 142.857 133.702 147.808 139.165 151.425C143.549 154.114 148.652 155.549 153.779 155.729C157.081 155.843 160.424 155.376 163.626 154.581C166.039 153.876 168.304 152.687 170.499 151.476C174.205 149.198 177.774 146.494 180.17 142.809C181.286 140.921 182.199 138.926 182.489 136.734C182.808 133.166 182.13 129.543 180.896 126.196C179.208 121.528 176.332 117.269 172.3 114.316C171.163 113.493 170.067 112.605 168.822 111.951C167.595 111.191 166.226 110.651 165.064 109.77C165.002 109.721 164.936 109.683 164.87 109.659C164.87 109.659 164.867 109.659 164.864 109.659C166.471 107.315 167.754 104.684 168.802 101.631C169.96 98.1492 170.61 94.6088 170.814 90.9405C171.156 86.6602 170.883 82.2866 169.635 78.1619C168.822 75.3994 167.571 72.8236 166.402 70.1925C166.219 69.8364 166.036 69.4768 165.856 69.1172C166.081 68.2563 166.354 67.3885 166.623 66.5034C167.287 64.2077 168.802 62.0745 170.717 60.6396C170.776 60.612 170.824 60.5843 170.869 60.5498C173.808 60.6154 176.301 58.3128 177.998 56.0724C178.299 56.062 178.607 55.941 178.897 55.8407C179.281 55.6091 179.724 55.5296 180.145 55.3913C180.301 55.3705 180.425 55.3221 180.526 55.2599C180.847 55.1804 181.176 55.1147 181.504 55.0836C182.811 55.0144 184.114 54.7205 185.411 55.0767C188.613 55.5607 191.918 56.6636 194.276 58.987C195.749 60.7123 196.734 62.9838 196.748 65.2726C196.693 66.379 196.292 67.43 195.884 68.4465C195.559 69.4042 195.24 70.3723 194.836 71.3023C194.169 72.6161 193.322 73.8297 192.596 75.109C191.226 77.1557 189.574 78.9813 188.153 80.9831C185.705 84.3437 184.785 89.0078 186.32 92.9423C187.313 95.283 189.314 96.8838 191.206 98.4811C191.358 98.609 191.558 98.6436 191.745 98.609C191.835 98.609 191.921 98.5952 192.008 98.5572C192.347 98.4154 192.533 97.9971 192.378 97.6513C192.305 97.4888 192.198 97.3505 192.111 97.195C191.562 96.1854 190.701 95.3764 190.307 94.2769C189.097 92.1056 189.798 89.7892 190.528 87.5833C191.04 85.9445 192.025 84.5235 192.914 83.0645C193.764 81.7956 194.646 80.5682 195.641 79.4065C197.941 76.3744 200.572 73.5151 202.169 70.0231C205.443 63.2327 203.957 55.7405 197.989 51.0211L197.999 51.0073ZM159.881 87.732C159.968 89.312 159.954 90.8921 159.823 92.4721C159.346 97.0601 157.185 101.112 154.066 104.324C154.066 104.324 154.066 104.324 154.063 104.328C153.803 104.283 153.537 104.269 153.271 104.245C151.587 103.94 149.876 103.664 148.261 103.076C147.386 102.723 146.536 102.426 145.706 102.018C145.945 101.876 146.18 101.717 146.397 101.607C147.874 100.656 149.039 99.3109 150.183 97.9971C152.4 95.3141 154.325 92.403 155.919 89.3086C156.227 88.7485 156.517 88.1815 156.801 87.611C156.97 87.3551 157.195 87.1373 157.454 86.9714C158.357 86.4804 159.453 86.6014 159.84 87.6698C159.85 87.6905 159.864 87.7078 159.878 87.7285C159.878 87.7285 159.878 87.732 159.878 87.7355L159.881 87.732ZM153.845 119.609C154.65 120.149 155.394 120.792 156.206 121.338C160.49 124.706 162.983 131.202 160.559 136.35C158.087 140.731 152.372 142.47 147.597 141.27C145.305 140.828 143.355 139.472 141.464 138.179C138.781 136.333 136.769 133.84 135.033 131.105C133.844 129.273 132.768 127.354 132.004 125.318C132.063 125.325 132.122 125.331 132.181 125.342C137.011 125.432 141.844 125.034 146.339 123.126C148.935 122.178 151.521 121.1 153.852 119.609H153.845ZM125.968 77.0174C126.977 77.0071 127.987 77.097 128.989 77.2076C130.763 77.3079 132.595 77.7885 134.321 78.2932C135.932 78.7185 137.775 79.1783 138.708 80.6927C139.14 83.1163 136.838 84.1432 134.991 84.9349C132.602 85.8684 129.919 86.3075 127.364 85.8373C127.295 85.8235 127.23 85.82 127.164 85.827C126.666 85.4086 126.182 84.9695 125.715 84.4924C124.588 83.3826 123.274 82.4352 121.902 81.6262C121.262 81.2528 120.581 80.9555 119.872 80.7688C121.912 79.7004 123.966 78.435 125.964 77.0209L125.968 77.0174ZM152.341 70.5901C152.5 70.3515 152.655 70.0992 152.818 69.8502C152.873 69.8468 152.929 69.8364 152.98 69.826C154.64 70.3585 155.321 72.1598 155.992 73.6119C157.133 76.0494 158.104 78.7392 158.097 81.4637C157.949 82.6945 157.14 83.7006 156.597 84.7794C156.448 85.0041 156.313 85.2807 156.293 85.54C154.816 88.3301 153.502 91.2171 151.646 93.7929C150.436 95.3902 149.253 97.1224 147.829 98.5814C147.784 98.6056 147.742 98.6332 147.704 98.6678C147.614 98.7577 147.531 98.8234 147.417 98.896C146.712 99.2037 146.034 99.5771 145.236 99.4146C144.005 99.2867 143.597 98.1146 142.67 97.4646C142.56 97.3644 142.442 97.2918 142.318 97.2434C142.318 97.2434 142.314 97.2434 142.311 97.2434C141.643 96.6625 140.876 96.1958 140.001 95.8915C137.685 94.9338 134.822 94.7229 132.568 95.9987H132.561C132.478 95.7083 132.426 95.4075 132.381 95.1136C132.374 95.0859 132.371 95.0548 132.367 95.0237C132.395 94.4947 132.478 93.9726 132.62 93.4609C132.772 93.1256 132.965 92.804 133.169 92.4963C133.705 91.6493 134.66 91.4798 135.562 91.186C135.745 91.1237 135.946 91.0684 136.125 90.9993C137.865 90.7088 139.379 89.8998 140.917 88.6586C143.825 86.3145 146.041 83.0956 147.86 79.8318C149.367 76.7581 150.709 73.6015 152.337 70.5866L152.341 70.5901ZM139.929 110.06C135.399 111.72 130.324 109.109 128.754 104.611C128.059 102.72 127.924 100.587 128.308 98.609C128.868 96.6763 129.774 94.8647 131.088 93.3192C131.14 93.2673 131.192 93.2189 131.24 93.1705C131.04 93.741 130.943 94.3426 130.97 94.92C130.97 94.92 130.97 94.9373 130.97 94.9442C130.801 98.5745 132.9 102.461 136.236 103.937C136.243 103.94 136.25 103.944 136.253 103.947C136.464 104.079 136.692 104.203 136.945 104.175C136.993 104.172 137.042 104.162 137.087 104.148C137.481 104.134 137.837 103.944 137.854 103.477C137.861 103.111 137.557 102.768 137.18 102.772C137.031 102.73 136.89 102.682 136.748 102.627C135.825 102.066 134.985 101.337 134.552 100.32C133.868 98.9963 134.113 97.8934 135.192 96.8873C135.261 96.825 135.358 96.7282 135.462 96.6349C135.545 96.6037 135.614 96.5657 135.673 96.5173C137.183 96.417 138.722 96.7973 140.084 97.4404C143.009 98.8269 144.444 102.606 143.849 105.683C143.645 106.748 143.134 107.557 142.449 108.435C141.706 109.123 140.841 109.638 139.929 110.07V110.06ZM127.717 88.0328C127.769 88.0743 127.821 88.1123 127.876 88.1538C127.924 88.2541 127.997 88.3543 128.101 88.4477C129.989 90.0623 129.975 91.7288 128.823 93.8136C128.014 94.8197 127.212 98.7093 125.366 97.2399C124.882 96.9045 124.706 95.9987 124.298 95.5596C124.298 95.5596 124.298 95.5596 124.298 95.5561C124.087 94.7921 123.903 94.0245 123.699 93.295C122.776 89.5852 122.389 84.9349 119.575 82.1379C122.825 83.0161 125.038 86.1243 127.72 88.0328H127.717ZM134.839 123.948C134.822 123.938 134.808 123.924 134.787 123.914C133.501 123.534 132.215 122.922 131.576 121.663C130.773 120.249 130.905 118.534 131.005 116.968C131.047 115.537 131.665 113.794 133.111 113.251C133.218 113.244 133.311 113.217 133.394 113.182C133.394 113.182 133.394 113.182 133.398 113.182C134.175 113.313 134.967 113.372 135.762 113.341C138.283 113.466 140.786 113.089 143.196 112.366C143.199 112.366 143.206 112.366 143.21 112.363C143.393 112.345 143.562 112.294 143.701 112.211C143.708 112.211 143.711 112.207 143.718 112.204C144.804 111.858 145.865 111.443 146.902 110.973C147.12 110.973 147.348 110.966 147.552 111.038C147.919 111.056 148.04 111.536 148.102 111.841C148.102 111.841 148.102 111.848 148.102 111.851C147.324 113.071 145.92 113.991 144.9 115.091C143.116 117.189 142.363 120.166 142.788 122.873C140.209 123.596 137.526 123.904 134.839 123.945V123.948ZM143.058 110.98C142.992 110.98 142.926 110.976 142.864 110.959C142.736 110.81 142.612 110.651 142.511 110.482C142.584 110.35 142.622 110.205 142.618 110.06C144.371 108.67 145.505 106.589 145.384 104.037C145.374 103.812 145.353 103.584 145.326 103.36C147.652 104.514 150.218 105.133 152.773 105.555C149.99 108.027 146.612 109.894 143.054 110.98H143.058ZM144.651 70.5417C146.104 71.0223 147.386 71.8763 148.133 73.2454C148.399 73.7364 148.541 74.293 148.61 74.8462C148.593 74.9292 148.593 75.0156 148.607 75.0951C148.489 75.3406 148.372 75.5723 148.261 75.7866C146.47 79.8318 144.212 83.7248 140.983 86.7985C138.349 89.1426 136.558 90.0139 133.01 89.644C132.582 89.312 132.302 88.8073 132.277 88.2506C132.385 87.8323 132.744 87.5073 133.111 87.2964C134.196 86.7674 135.32 86.349 136.423 85.8304C136.592 85.7924 136.751 85.7059 136.879 85.5953C138.604 84.7966 140.108 83.3376 140.157 81.3288C140.267 80.3677 139.742 79.5344 139.037 78.9294C137.336 77.3528 134.905 77.0624 132.761 76.4228C132.523 76.364 132.284 76.3121 132.046 76.2603C131.949 76.1842 131.842 76.1185 131.724 76.077C131.157 75.6276 130.507 75.1574 130.632 74.3241C130.67 73.8608 131.071 73.522 131.333 73.1659C131.824 72.6576 132.305 72.1356 132.837 71.6688C133.875 70.801 134.971 70.0404 136.267 69.5494C137.159 69.3109 138.103 69.1242 139.04 69.1484C140.955 69.4077 142.847 69.8675 144.655 70.5348L144.651 70.5417ZM153.447 14.6732C153.658 14.5661 153.869 14.4381 154.083 14.3932C155.318 14.006 156.867 14.3413 157.517 15.5376C157.582 15.7727 157.727 15.9179 157.897 15.994C157.945 16.0458 157.994 16.0942 158.049 16.1426C159.245 16.9932 160.919 17.3458 162.302 16.7511C163.778 16.0735 164.867 14.4692 164.784 12.8235C164.77 12.7267 164.749 12.6299 164.729 12.5366C164.981 11.8036 164.698 10.5278 164.514 10.0057C164.494 9.69109 164.646 9.33844 164.915 9.16211C167.308 9.46982 169.697 9.80173 172.072 10.1786C171.699 10.635 171.35 11.1052 171.052 11.6169C169.898 13.2453 168.788 14.9083 167.629 16.5299C166.948 17.4392 166.288 18.3623 165.531 19.2094C165.313 19.5309 164.853 19.9458 164.622 20.3642C164.545 20.378 164.469 20.4022 164.4 20.4437C159.736 20.1221 155.076 19.6796 150.456 18.9293C151.573 17.5948 152.493 16.115 153.454 14.6698L153.447 14.6732ZM164.794 36.0228C161.171 36.0194 157.568 35.4005 153.952 35.4351C153.779 34.9337 153.623 34.4289 153.499 33.9138C152.368 29.3362 150.937 24.845 149.817 20.2639C151.528 20.4506 153.202 20.7583 154.951 20.9761C158.021 21.2838 161.095 21.633 164.182 21.8059C164.908 24.1397 165.863 26.425 166.572 28.7726C166.744 29.6197 167.132 30.3976 167.363 31.2308C167.795 32.8558 168.276 34.5154 168.698 36.168C168.66 36.168 168.622 36.168 168.587 36.168C167.318 36.1473 166.053 36.1058 164.791 36.0263L164.794 36.0228ZM172.498 32.9492C171.706 33.6683 170.959 34.4324 170.164 35.1481C170.084 35.2069 169.998 35.276 169.911 35.3452C168.722 30.6258 167.145 25.9686 165.465 21.3979C165.773 21.2112 165.998 20.779 166.247 20.5094C168.086 18.3969 169.666 16.07 171.232 13.7501C171.927 12.8581 172.47 11.8589 173.179 10.9842C173.296 11.2746 173.41 11.5685 173.517 11.8658C173.725 12.6576 173.946 13.4424 174.185 14.2238C174.268 14.6456 174.33 15.0743 174.368 15.5065C174.548 17.1003 174.295 18.7703 172.653 19.4652C172.176 19.7902 170.952 20.9139 170.651 21.8197C169.341 23.8181 169.894 27.3343 172.487 27.8218C173.566 27.929 174.53 27.8529 175.398 27.6317C175.502 27.6559 175.62 27.6593 175.747 27.6247C175.986 27.521 176.225 27.5798 176.47 27.6317C176.595 27.6489 176.671 27.7665 176.709 27.8771C176.864 28.1987 176.678 28.5098 176.515 28.7864C176.491 28.8106 176.48 28.8521 176.442 28.8625C176.124 28.987 175.969 29.35 176.048 29.6681C176.031 29.6854 176.014 29.7026 175.996 29.7234C174.842 30.8125 173.632 31.8393 172.501 32.9526L172.498 32.9492ZM179.042 16.5921C179.547 14.8427 180.004 13.0794 180.498 11.3265C181.186 8.97195 181.967 6.16107 184.163 4.74353C181.093 10.8182 182.68 25.8407 173.645 26.4942C171.128 26.9298 170.703 23.4205 172.228 22.0756C172.906 21.391 173.877 21.3011 174.766 21.1179C175.412 20.9139 176.021 20.6027 176.543 20.1705C177.673 19.2267 178.583 17.9993 179.046 16.5921H179.042ZM136.672 14.7942C138.131 10.0576 141.305 5.93979 145.993 4.08316C147.597 3.50231 149.305 3.51268 150.965 3.81694C153.205 4.00018 155.238 4.97171 157.202 5.99857C159.228 7.2709 161.209 8.8544 162.409 10.9703C162.848 11.5996 163.311 12.2772 163.411 13.0552C163.342 14.0613 162.703 14.9879 161.811 15.4477C160.836 15.866 159.674 15.624 158.837 14.9775C158.792 14.9014 158.754 14.8184 158.72 14.7355C158.502 13.8296 157.634 13.1831 157.026 12.5193C156.707 12.1286 156.251 11.928 155.826 11.6791C155.449 11.3645 155.003 11.1847 154.529 11.081C153.292 10.7629 151.964 10.4379 150.688 10.7076C144.413 11.6238 143.234 17.7019 144.192 23.0575C144.6 26.3801 145.315 29.5713 145.893 32.88C146.356 35.1723 146.774 37.3954 146.622 39.7949C146.494 40.9635 146.425 42.2116 146.283 43.4459C146.183 43.7017 146.114 43.9956 145.989 44.2238C145.796 44.5626 145.626 44.9602 145.284 45.2195C144.631 45.7935 143.753 46.1738 142.971 45.5895C142.504 45.3233 142.625 44.6698 142.418 44.2307C141.567 42.2254 140.686 40.227 139.714 38.2736C138.753 36.2752 137.031 34.6502 136.527 32.4444C136.412 31.8324 136.139 31.0165 136.215 30.3526C136.229 30.1383 136.233 29.917 136.188 29.7303C136.229 29.2394 136.257 28.7484 136.222 28.2574C136.198 27.9497 136.198 27.5314 136.115 27.1891C136.056 25.9133 135.897 24.6756 135.807 23.7006C135.51 20.7168 135.773 17.6604 136.675 14.7942H136.672ZM122.718 29.0665C125.898 29.4606 128.682 31.134 131.385 32.7486C132.429 33.4263 133.487 34.0659 134.57 34.6779C135.054 34.9614 135.493 35.314 135.897 35.7013C135.911 35.7186 135.921 35.7393 135.932 35.7566C135.973 35.8015 136.018 35.8396 136.067 35.8707C136.067 35.8707 136.07 35.8741 136.074 35.8776C136.488 36.2925 136.869 36.7454 137.239 37.2052C139.209 40.0403 140.758 43.2903 141.028 46.7996C141.726 51.5812 140.955 56.5495 139.023 61.0131C138.715 61.6146 138.383 62.1989 138.031 62.7729C137.398 63.1117 137.056 63.4574 136.381 62.842C136.264 62.7418 136.153 62.6242 136.105 62.4721C136.077 62.4064 136.036 62.3476 135.991 62.2957C135.932 61.6112 135.825 60.9301 135.669 60.2628C134.843 55.9376 132.094 51.882 128.215 49.7349C126.331 48.7323 124.19 48.428 122.13 47.982C119.011 47.4012 115.509 46.0113 114.434 42.744C114.005 41.4752 113.659 40.1302 113.908 38.7818C114.237 37.2433 115.014 35.722 115.298 34.1454C115.578 33.2465 115.526 32.2992 115.225 31.4417C115.097 30.8885 114.897 30.3388 114.938 29.7649C115.132 29.1875 115.55 28.7311 116.121 28.5271C118.327 28.3992 120.56 28.6308 122.707 29.0699L122.718 29.0665ZM93.9104 58.0431C95.4385 58.7104 95.1239 61.8255 95.1032 63.2673C94.9614 65.2173 94.5292 67.4197 93.3364 69.0585C92.7971 69.8018 92.0676 70.8425 91.058 70.967C90.6984 70.9531 90.5256 70.5521 90.4322 70.2513C89.8825 68.8303 90.0692 67.226 90.0657 65.7013C90.1936 63.8792 90.9785 56.6982 93.9069 58.0466L93.9104 58.0431ZM71.0499 83.1855C67.5268 81.5086 64.7643 78.2275 63.9933 74.3725C63.5784 72.5539 63.7859 70.6247 64.7436 69.0066C66.0712 66.8941 68.3739 65.1239 70.96 65.1343C70.9635 65.1343 70.9704 65.1343 70.9738 65.1343C69.2417 65.7463 67.959 67.1742 67.264 69.1069C66.5207 71.164 67.226 73.4252 68.4361 75.1539C70.3377 78.148 73.7259 80.1637 77.3009 80.1637C79.2924 80.2086 81.2839 79.9355 83.1785 79.3063C84.1501 79.002 85.1423 78.7669 86.1381 78.5595C86.1727 78.5767 86.2072 78.594 86.2453 78.6044C86.47 78.6459 86.6429 78.8153 86.833 78.9363C87.929 79.8767 88.7 81.4429 87.9878 82.8363C87.8253 83.3445 87.7043 83.9115 87.2306 84.2262C86.6221 84.724 86.2937 85.1458 85.5088 85.4397C84.9211 85.5815 84.3229 85.3637 83.7352 85.5054C83.7006 85.5227 83.6695 85.54 83.6384 85.5607C82.6495 85.4778 81.6503 85.4812 80.6581 85.4639C77.3701 85.3982 74.0475 84.5927 71.0568 83.1855H71.0499ZM32.5619 129.698C32.4271 129.75 32.313 129.823 32.2265 129.923C31.7148 130.251 31.1858 130.556 30.6327 130.822C26.8848 132.575 22.2484 133.484 18.4211 131.472C17.007 130.715 15.8522 129.38 14.8737 128.118C13.145 125.511 12.4985 122.351 12.7059 119.26C13.0275 117.182 13.5323 115.091 14.3828 113.165C15.6136 110.337 17.4288 107.833 18.9777 105.182C21.7678 101.423 24.9901 97.8173 26.5944 93.3503C26.6359 93.25 26.6705 93.1429 26.7119 93.0426C26.7603 93.1532 26.8088 93.2673 26.8572 93.378C26.9747 93.7064 27.0853 94.0418 27.272 94.3426C27.2997 94.3944 27.3377 94.4359 27.3792 94.4774C29.6162 98.8718 33.1877 102.661 37.1084 105.648C40.4414 108.407 44.2998 110.333 48.1825 112.183C48.02 112.38 47.8575 112.58 47.695 112.781C45.0432 115.81 43.0586 119.354 40.3757 122.365C39.0826 123.821 37.7377 125.287 36.2648 126.576C35.1204 127.721 33.8999 128.803 32.5584 129.709L32.5619 129.698ZM35.6839 93.8378C35.155 92.6346 34.3874 91.4107 34.3044 90.1003C34.3425 90.0346 34.3736 89.9655 34.384 89.886C34.422 89.6854 34.4324 89.4814 34.4842 89.2844C34.6848 88.7381 35.1031 88.3232 35.6528 88.1331C35.9467 88.0397 36.289 87.815 36.6002 87.9429C36.773 88.0155 36.9286 88.14 37.0946 88.2195C37.8587 89.4434 38.7541 90.5844 39.8294 91.5697C43.0863 94.7471 46.9828 97.2883 51.0591 99.2936C52.283 99.9298 53.5139 100.559 54.7551 101.164C54.7724 101.202 54.7931 101.24 54.8208 101.275C55.7404 102.305 55.6817 103.335 55.049 104.494C54.5442 105.631 53.5139 106.388 52.6495 107.239C50.9899 108.642 49.0572 110.71 46.6682 109.835L46.6716 109.842C46.5645 109.783 46.4573 109.752 46.357 109.749C44.1304 108.663 41.9557 107.488 39.9227 106.018C37.9278 104.597 35.9882 103.041 34.2249 101.313C35.0374 100.746 35.8084 99.9574 36.2129 99.062C36.939 97.3609 36.4066 95.449 35.6839 93.8378ZM60.2731 101.887C60.204 101.928 60.1314 101.97 60.0622 102.011C57.9152 101.212 55.8787 100.141 53.8147 99.1519C48.4764 96.5553 43.1105 93.4955 39.2416 88.8799C37.5579 86.7777 36.5552 84.2193 35.6494 81.7057C34.7401 78.2345 34.9164 74.4762 35.7393 70.9912C36.2406 68.8787 37.2018 66.9598 38.5052 65.3452C38.5121 65.3521 38.5225 65.359 38.5294 65.3659C39.7049 66.9978 40.7767 68.6712 41.6342 70.514C42.8927 73.1451 44.1477 75.7797 45.1711 78.5111C45.5618 79.7834 45.9006 81.0661 46.3812 82.3073C47.3078 84.8658 48.3001 87.1477 49.441 89.2014C49.4583 89.5783 49.5517 89.9102 49.9181 90.0381C52.7117 94.7367 56.4146 98.1769 62.1712 100.887C61.5385 101.219 60.9093 101.551 60.2766 101.89L60.2731 101.887ZM74.3033 90.3285C74.3863 90.4046 74.4762 90.4806 74.5695 90.5533C74.9602 90.8921 75.2299 91.3485 75.4616 91.8083C75.5999 93.779 73.4286 94.8889 71.897 95.6495C69.7153 96.7524 67.4092 97.6375 65.0063 98.1112C62.7486 98.5572 60.7675 98.7715 58.7657 97.3644C58.7207 97.3471 58.6723 97.3367 58.6274 97.3298C55.1942 95.0341 52.7705 92.2301 50.8447 88.8729C50.8413 88.7416 50.8344 88.6136 50.8309 88.4995C50.5993 86.3387 51.3841 84.2123 52.691 82.5078C53.1577 81.9858 53.5899 81.4741 53.9668 80.9416C54.0152 80.9036 54.0636 80.8586 54.0982 80.8033C54.1984 80.6547 54.3367 80.5336 54.4647 80.4057C54.8968 80.0219 55.4362 79.7626 55.9998 79.6382C56.0793 79.6658 56.1519 79.6762 56.2245 79.6797C60.6949 85.1908 67.3021 88.9179 74.3033 90.3285ZM52.5216 73.5808C52.9538 74.5834 53.4482 75.5515 53.9944 76.4781C54.1224 79.7868 51.7506 80.8102 50.4195 83.5209C50.0115 84.406 49.6761 85.3429 49.5136 86.3041C48.7115 84.5961 47.9889 82.7602 47.3043 80.7964C46.3639 77.2664 44.8254 73.9473 43.2384 70.6662C42.578 69.1933 41.8174 67.7758 40.9219 66.4205C40.9461 66.3409 40.9565 66.251 40.9461 66.1508C40.8528 65.3245 41.119 64.3979 41.7379 63.8239C42.4086 63.3088 43.1105 62.7245 43.9437 62.5101C44.9083 62.2335 45.9248 62.3787 46.8272 62.7902C47.045 62.9872 47.3009 63.1947 47.5567 63.2742C48.2586 64.4048 48.7253 65.6702 49.237 66.901C50.34 69.1276 51.3841 71.33 52.5181 73.5773L52.5216 73.5808ZM85.1527 31.1236C84.883 31.2931 84.6168 31.4728 84.3333 31.625C83.1336 32.2473 82.4698 31.3103 81.557 30.4875C81.5086 30.4183 81.4533 30.3492 81.391 30.2835C80.1118 28.9973 77.6847 28.3508 76.2948 29.8029C75.9076 30.2282 75.8246 30.7433 75.8211 31.2758C75.8177 31.3207 75.8142 31.3657 75.8108 31.4141C75.8108 31.421 75.8039 31.4279 75.8039 31.4348C75.5515 31.9085 75.4235 32.4305 75.2507 32.9388C75.057 33.4297 74.7148 33.8965 74.2618 34.1765C73.6914 34.3045 73.0656 34.422 72.4951 34.2319C71.527 33.976 70.6108 33.5611 69.7603 33.0252C69.4249 32.8282 69.1379 32.5412 68.8095 32.3337C69.0342 32.0295 69.259 31.7252 69.539 31.4901C70.7802 30.2109 71.8901 28.7864 73.0483 27.4311C73.9749 26.4976 74.7666 25.4846 75.6586 24.4854C75.9041 24.2123 76.1046 23.9046 76.3052 23.6003C77.0762 23.8665 77.8541 24.1155 78.6217 24.3886C80.1809 24.9349 81.7264 25.5088 83.2096 26.2487C84.5373 26.8157 85.9272 27.2168 87.1788 27.9394C87.1407 27.9912 87.1027 28.0431 87.0578 28.088C86.4043 29.0872 85.7681 30.1037 85.1493 31.1271L85.1527 31.1236ZM76.0286 12.865C77.6052 13.2211 79.1333 13.7709 80.7272 14.0405C81.3115 14.248 81.8924 14.4727 82.5078 14.5661C83.3376 14.8565 84.1501 15.2022 85.0144 15.3855C85.7647 18.39 86.795 21.3461 87.1062 24.437C87.1788 25.1008 87.2859 25.7854 87.3655 26.4665C86.3939 25.9617 85.3602 25.571 84.316 25.2253C82.3868 24.278 80.3815 23.5173 78.3485 22.8155C77.9993 22.7671 77.5257 22.5216 77.0727 22.3729C77.0727 22.3625 77.0727 22.3556 77.0658 22.3453C76.6993 21.1801 76.6475 19.9458 76.2637 18.7876C75.6828 16.8238 75.1815 14.8392 74.5315 12.8996C74.5108 12.7924 74.4831 12.6748 74.4485 12.5538C74.981 12.6541 75.5238 12.7405 76.0286 12.8615V12.865ZM61.4037 19.4721C63.5611 19.1817 64.626 16.8583 65.1619 14.9844C65.5042 13.5046 65.5007 11.7517 66.6936 10.6488C67.4127 9.96423 68.4084 9.64615 69.38 9.68072C69.4145 9.80173 69.4837 9.91928 69.6047 10.023C70.2789 10.6246 70.5659 11.6238 70.4898 12.5054C70.4518 12.7544 70.2893 13.0137 70.1268 13.273C70.1164 13.2834 70.106 13.2903 70.0991 13.3006C69.6635 13.8677 69.2486 14.4589 68.8683 15.0639C67.793 17.3285 66.1576 20.0426 63.3883 20.2362C62.7037 20.1567 61.9292 19.9354 61.4072 19.4721H61.4037ZM65.0893 22.2726C65.0167 22.0237 64.9303 21.6849 64.7989 21.3737C66.8699 20.7099 68.4534 18.8049 69.4906 16.9378C69.8087 16.1634 70.2409 15.4408 70.7318 14.7631C70.9566 14.6283 71.1363 14.3655 71.2885 14.0786C71.8451 13.6395 72.5158 13.356 73.1002 12.9514C73.7847 14.9982 74.3275 17.0969 74.9395 19.1679C75.2576 20.1775 75.3544 21.2354 75.6102 22.2623C75.3025 22.5216 75.0674 23.0056 74.8496 23.3064C72.827 25.6263 70.8217 27.9601 68.7957 30.28C68.4395 30.6258 68.1042 31.0096 67.7826 31.4002C67.7723 31.3657 67.7584 31.3345 67.7481 31.3034C66.6659 28.3473 65.9986 25.2841 65.0893 22.2726ZM71.2746 46.3778C74.3033 42.9584 76.4296 37.6547 77.0658 32.9077C77.1626 32.7901 77.2283 32.6415 77.2318 32.4686C77.2387 32.4029 77.2387 32.3372 77.2387 32.2715C77.4012 31.8912 77.6086 31.5385 77.9336 31.2619C78.5076 30.9127 79.2578 30.7917 79.9044 31.013C79.9182 31.2412 80.0426 31.4625 80.34 31.5904C82.6876 35.6079 81.6815 39.8294 80.0081 43.8677C79.4307 45.3717 78.5905 46.9863 77.5844 48.307C76.0009 50.7653 73.968 52.9227 71.5581 54.5857C68.6193 56.4423 65.3348 57.5003 61.8566 57.7492C58.9074 58.3612 55.8234 58.458 52.7498 58.579C52.1966 57.4415 53.6729 56.7881 54.3955 56.1934C54.6479 56.0344 54.8795 55.8615 55.1112 55.6817C55.6505 55.3048 56.138 54.8588 56.546 54.3333C57.2029 53.628 57.8218 52.8847 58.5064 52.2105C58.9386 51.8474 59.388 51.5501 59.8755 51.2597C60.0899 51.1559 60.3354 51.0315 60.5324 50.8759C60.8851 50.824 61.2343 50.7618 61.5835 50.6892C65.0409 49.9493 68.6332 48.8326 71.2746 46.3812V46.3778ZM34.3909 22.3695C34.9337 25.3636 34.0693 28.5582 31.4624 30.3319C30.5428 30.892 29.5609 31.4936 28.4545 31.5627C27.7665 31.542 27.0888 31.4348 26.3973 31.4556C25.9409 31.4314 25.5433 31.179 25.1042 31.0787C24.1707 30.9231 23.2511 30.6707 22.4524 30.1487C22.2899 30.0276 22.1378 29.8963 21.9857 29.758C22.0202 29.7476 22.0548 29.7407 22.0894 29.7338C23.8527 29.3085 25.571 28.7795 27.2582 28.1157C28.7069 27.7734 27.4173 25.6194 30.5808 23.8389C31.1202 23.5934 31.6768 23.3686 32.2473 23.2096C32.8316 23.0851 32.9284 22.2139 32.4098 21.9442C32.2749 21.875 32.1366 21.8543 32.0018 21.8612C32.0675 21.3046 32.1332 20.7479 32.1332 20.1878C32.1643 19.7937 32.1712 19.3961 32.1781 19.0019C33.1497 19.9423 34.1108 21.0141 34.3943 22.3695H34.3909ZM30.8989 16.9067C30.8055 18.2517 30.7848 19.5897 30.7191 20.9485C30.7018 21.3391 30.5289 21.8992 30.5912 22.328C28.6758 23.0921 27.1061 24.7724 26.7361 26.8364C26.1449 26.9955 25.6643 27.2375 25.0939 27.4864C24.3747 27.6835 23.6556 27.8771 22.9434 28.0915C22.4455 28.209 21.9511 28.3439 21.4567 28.4753C21.7644 26.8883 21.9372 25.2737 22.3349 23.704C22.5319 22.7705 22.6841 21.8336 22.9572 20.9173C23.0678 20.5474 23.258 19.9562 23.2649 19.4618C23.5899 19.3892 23.9045 19.2924 24.2191 19.1748C25.9548 18.7565 27.6178 18.141 29.2808 17.4979C29.7994 17.3597 30.2835 17.128 30.7744 16.9136C30.8159 16.9136 30.8574 16.9136 30.8989 16.9102V16.9067ZM29.0699 5.92251C27.8321 7.28819 26.8744 8.86131 26.055 10.5036C25.7612 11.081 25.5537 11.6964 25.3463 12.3049C25.1215 13.2522 24.717 14.4658 23.5588 14.4762C23.4136 14.4865 23.258 14.4347 23.1646 14.3206C23.092 11.565 26.7742 7.27436 29.0699 5.92251ZM19.7798 11.5788C20.9761 11.2227 22.079 10.6281 23.22 10.1406C22.9122 10.635 22.6114 11.1743 22.3591 11.7206C22.2899 11.7379 22.2208 11.7586 22.1516 11.8001C20.7963 12.1251 20.2224 13.4355 20.6649 14.7147C21.0867 15.79 22.3383 16.2567 23.417 16.3259C24.5891 16.3708 26.1726 15.9352 26.3939 14.6041C26.425 14.3655 26.3489 14.1754 26.221 14.044C26.425 13.6395 26.5771 13.1969 26.6705 12.7475C26.6912 12.7682 26.7085 12.7855 26.7292 12.8062C27.7423 13.9333 29.0803 14.6871 30.2662 15.6206C27.7699 16.6474 25.2114 17.5567 22.5803 18.1825C20.6615 16.4504 18.7011 14.7493 16.8306 12.9618C17.8437 12.5677 18.8048 12.0456 19.7833 11.5788H19.7798ZM15.1434 15.2264C15.2437 14.6802 15.3025 14.12 15.4753 13.5876C15.7623 13.8573 16.0423 14.1304 16.3328 14.3966C18.103 16.1184 20.0495 17.6535 21.7886 19.3995C21.8162 19.4272 21.8474 19.4549 21.875 19.4756C21.5154 21.1075 21.1248 22.6288 20.7859 24.2952C20.5162 25.5952 20.3607 26.9194 20.1117 28.2229C20.0944 28.2955 20.0772 28.3715 20.0564 28.4511C19.6381 28.1295 19.2474 27.7734 18.8256 27.4553C16.9102 25.9306 15.5687 23.8147 13.674 22.2692C14.3344 19.9596 14.6248 17.6086 15.1469 15.2264H15.1434ZM16.9067 45.0052C15.3612 43.5427 13.7916 42.0733 12.6195 40.2824C10.2546 36.4308 8.44985 31.7218 9.48362 27.1718C9.51474 27.1303 9.54585 27.0854 9.5666 27.0335C9.615 26.954 9.68761 26.8779 9.74638 26.8019C10.182 26.2591 10.7421 25.858 11.4336 25.7093C13.674 25.3013 15.3336 27.521 15.7208 29.5056C15.7416 29.6197 15.7485 29.7407 15.7519 29.8617C15.6136 32.0814 16.478 34.2561 17.778 36.0332C21.5466 41.2262 27.6178 43.8815 32.8523 47.2905C33.4816 47.6951 34.1281 48.103 34.7677 48.5214C34.7677 48.5352 34.7677 48.549 34.7746 48.5663C34.3079 52.4179 30.885 53.6937 27.4933 52.4836C27.2478 52.4214 27.0784 52.3695 26.826 52.3073C23.4412 49.9804 19.9492 47.7919 16.9102 45.0086L16.9067 45.0052ZM22.0444 75.102C22.3279 73.2627 22.4939 71.3957 22.8777 69.5736C23.2338 67.4404 24.1465 65.4766 25.1941 63.5992C26.6082 61.0511 28.3888 58.662 30.5946 56.7466C34.2145 53.9979 38.7057 52.6668 43.0967 51.6607C46.2879 51.2389 49.6277 51.1283 52.857 51.1871C54.2123 51.1732 55.571 51.1905 56.9263 51.1594C56.4077 51.7748 56.0551 52.5285 55.6506 53.2269C55.5849 53.3237 55.5123 53.4102 55.4397 53.5001C55.1319 53.8285 54.8104 54.1432 54.4577 54.4301C54.4266 54.4578 54.3955 54.482 54.3609 54.5096C53.7593 54.9384 53.0851 55.2737 52.404 55.5745C51.557 56.0482 50.7998 56.7362 50.3296 57.5902C50.1913 57.9117 49.9112 58.3335 49.8213 58.7208C48.8291 58.783 47.8437 58.8625 46.8687 58.9801C38.4222 60.695 34.1903 66.8976 33.689 75.2473C33.5542 78.3071 33.8446 81.4049 35.1066 84.2227C35.231 84.5339 35.3624 84.845 35.4972 85.1528C35.4661 85.17 35.4316 85.1873 35.4004 85.2046C33.9898 86.1692 33.0563 87.9014 32.9353 89.599C32.7209 91.3969 33.8273 92.9665 34.4877 94.5569C36.2129 98.4777 34.2941 99.4907 33.2223 100.293C31.2965 98.246 29.6369 95.9676 28.4234 93.4022C28.3438 93.2362 28.2609 93.0772 28.171 92.9181C28.0258 92.5309 27.8356 92.161 27.6731 91.7772C27.6178 91.4902 27.5002 91.2067 27.3274 91.02C27.6869 89.4158 27.7803 87.7424 27.6282 86.1278C27.4103 84.6722 26.8744 83.2892 26.3247 81.9304C25.6298 80.3539 24.5407 78.9121 23.1231 77.9164C22.7567 77.6882 22.3833 77.3044 21.9476 77.2318C22.2277 76.689 21.8543 75.6967 22.0375 75.0986L22.0444 75.102ZM8.33921 78.9709C8.30464 78.5664 8.33576 78.1584 8.44294 77.7643C8.57086 77.626 8.64001 77.4151 8.61581 77.2249C8.99612 76.3605 9.32458 75.4063 9.03416 74.4659C8.86474 73.8193 8.50863 73.235 8.27698 72.6161C8.80597 72.343 9.33841 72.0768 9.86739 71.8037C9.95037 72.0872 10.1232 72.3776 10.2719 72.5989C10.6903 73.3111 11.119 74.1409 11.7379 74.7252C12.1147 75.2403 12.6852 75.5031 13.3006 75.5999C14.8426 76.4401 15.9905 78.3002 16.4572 79.9113C16.8548 81.7956 15.0881 83.9392 13.4216 84.6376C12.6886 84.8969 11.8934 85.1044 11.0948 84.9246C10.953 84.89 10.794 84.8693 10.6661 84.8001C10.5969 84.7586 10.5208 84.7379 10.4448 84.7275C10.2754 84.399 10.1025 83.9669 9.85356 83.4068C9.20357 81.9961 8.60544 80.5198 8.34613 78.9847L8.33921 78.9709ZM17.8782 75.9284C18.0062 77.0589 18.0304 78.1964 17.8886 79.3235C17.37 77.9821 16.7027 76.6648 15.7519 75.5792C16.4572 75.5723 17.1937 75.7693 17.8748 75.9249L17.8782 75.9284ZM8.25969 68.6125C8.13868 68.692 8.02113 68.7715 7.90704 68.8441C7.75491 68.9686 7.59587 69.0861 7.42991 69.1968C7.36422 68.4465 7.41263 67.6755 7.35039 66.9183C7.36422 66.7247 7.38497 66.5311 7.40571 66.3375C7.65119 67.1119 7.92778 67.8726 8.25969 68.6125ZM5.72886 63.1601C5.71849 64.2803 4.58791 65.2588 3.49191 65.2449C3.47117 65.2449 3.44696 65.2415 3.42622 65.238C3.16346 63.8827 4.6052 63.2431 5.72886 63.1567V63.1601ZM4.7193 66.417C5.23791 66.2165 5.71849 65.888 6.10918 65.4835C6.00546 66.3582 5.96397 67.2364 5.98471 68.1111C5.82913 67.8968 5.68737 67.717 5.58711 67.5994C5.31743 67.1915 5.04084 66.7835 4.71584 66.417H4.7193ZM5.65971 72.1771C5.58711 72.1736 5.52142 72.1356 5.45918 72.0975C5.45918 72.0872 5.45918 72.0768 5.45918 72.0664C5.45918 72.0388 5.4661 72.0076 5.46956 71.98C6.26476 71.3265 7.28816 71.0188 8.12485 70.3688C8.84746 69.9609 10.3272 68.4638 10.9945 69.5321C10.9841 69.5563 10.9738 69.5805 10.9634 69.6047C10.2062 70.1095 9.36261 70.4414 8.58123 70.9013C7.64773 71.3438 6.70385 72.0111 5.66317 72.1736L5.65971 72.1771ZM11.1536 92.2508C7.78948 92.5551 5.45573 90.9543 4.73658 87.611C4.52914 86.7086 4.3943 85.7993 4.35972 84.9107C4.43233 84.6929 4.45999 84.4336 4.48765 84.1881C4.74695 83.4794 5.04084 82.7395 5.52833 82.1517C5.90173 81.9132 6.34083 81.8302 6.76955 81.7576C7.12566 81.7472 7.50598 81.8993 7.73762 82.1794C7.7964 82.3038 7.87246 82.4249 7.96581 82.5251C8.2182 83.1405 8.49134 83.7421 8.76448 84.3403C9.14134 85.1286 9.36953 86.0517 10.1682 86.5288C10.9634 87.0889 12.0075 86.9921 12.9307 86.9368C15.2713 86.7881 17.1868 84.9246 18.2413 82.9435C19.5966 80.3919 19.5101 77.3805 19.1056 74.5973C19.9769 75.8246 20.6407 77.2802 20.9277 78.76C20.9761 79.9148 20.9277 81.1352 20.7064 82.3108C20.295 83.2374 19.9734 84.202 19.7694 85.1908C19.6761 85.4121 19.5793 85.6333 19.4825 85.8512C19.441 85.9134 19.4099 85.9825 19.3891 86.0586C19.0849 86.7155 18.7391 87.3517 18.3 87.9222C16.6128 90.211 13.9817 91.8636 11.1536 92.2508ZM8.95809 107.799C11.1155 104.711 13.1347 101.524 15.3751 98.488C16.7649 96.4516 18.5697 94.6538 19.7176 92.4203C20.008 91.836 20.2673 91.2309 20.4713 90.612C21.0245 89.274 21.0625 87.7666 21.2354 86.3421C21.4705 84.9004 22.2726 80.6996 24.4024 81.5812C24.5407 81.6988 24.6479 81.8509 24.7931 81.9616C25.2183 82.7637 25.5537 83.6211 25.8199 84.4855C26.8122 87.4243 26.304 90.6985 25.042 93.5128C23.7973 96.863 21.3979 99.6221 19.32 102.499C18.0995 103.895 17.1556 105.496 16.2118 107.087C15.4235 108.387 14.5591 109.628 13.8987 111.004C12.8477 112.978 12.1043 115.104 11.686 117.3C11.6168 117.566 11.5615 117.839 11.5097 118.112C11.4371 118.112 11.361 118.116 11.2919 118.13C10.6038 118.054 10.0126 118.254 9.34187 118.43C7.7964 118.745 5.51104 119.9 4.4427 118.185C4.69855 117.02 5.02009 115.872 5.50413 114.717C6.43763 112.342 7.51635 109.949 8.96501 107.802L8.95809 107.799ZM32.8558 140.755C31.0683 141.73 29.2324 142.56 27.272 143.186C26.1242 143.431 24.9521 143.545 23.7939 143.715C20.2155 144.022 16.4469 143.739 13.19 142.1C10.5347 140.617 8.15943 138.421 6.52753 135.832C5.31397 133.768 4.63286 131.458 4.19031 129.114C3.55069 126.476 3.40893 123.789 3.89989 121.103C3.91372 121.02 3.92755 120.937 3.94138 120.854C3.95521 120.854 3.96904 120.858 3.98286 120.858C6.30625 121.176 8.40491 119.765 10.6937 119.762C10.8873 119.782 11.0948 119.841 11.2988 119.886C11.2469 120.968 11.3195 122.061 11.5373 123.091C12.1804 127.904 15.662 132.723 20.5923 133.712C24.8864 134.549 29.4295 133.342 33.084 130.995C34.3598 130.881 35.4972 131.586 36.5068 132.295C37.3988 132.889 38.2666 133.574 39.1829 134.158C39.2555 134.328 39.3626 134.49 39.4491 134.649C39.7084 135.109 39.6185 135.624 39.5286 136.115C39.4456 136.26 39.4214 136.423 39.4387 136.582C38.3012 137.464 37.1741 138.376 35.9363 139.116C34.9129 139.673 33.8619 140.174 32.8523 140.755H32.8558ZM46.2153 130.856C45.0847 132.035 43.84 133.08 42.5677 134.096C41.9108 133.982 41.2884 133.757 40.6937 133.456C38.6504 132.388 36.9321 130.462 34.709 129.816C36.9736 127.976 39.0446 125.902 40.998 123.738C44.2411 120.166 46.6232 115.934 49.8386 112.338C52.8397 108.808 56.3904 105.828 60.3354 103.449C60.4529 103.418 60.5497 103.356 60.6292 103.273C61.9189 102.509 63.25 101.804 64.6156 101.168C67.5579 99.667 70.4621 98.0973 73.4493 96.6867C77.3355 94.7575 81.3807 92.7833 84.6618 89.8894C86.3697 88.5652 87.7147 86.9022 88.8141 85.0525C89.1288 84.5996 89.592 83.9945 89.8168 83.4586C90.4771 81.519 91.4625 79.5448 91.4003 77.4565C93.6476 77.5534 95.7566 75.6794 96.7835 73.8124C97.2157 73.0138 96.054 72.343 95.5907 73.114C95.2034 73.9127 94.6641 74.459 93.9795 75.0433C93.4436 75.4443 92.8766 75.8696 92.2128 76.0252C90.6604 76.2672 88.9006 75.7935 88.1641 74.293C87.8288 73.681 87.8875 72.9792 87.9359 72.3119C87.974 71.3335 88.2091 70.3585 88.8245 69.6082C89.0838 71.0188 89.6577 72.1217 90.7883 72.3223C91.0303 72.5124 91.4141 72.4951 91.6388 72.2912C92.5447 72.0249 93.2638 71.3577 93.8654 70.6592C96.3306 67.7723 96.7766 63.7029 96.417 60.045C96.3098 57.649 94.55 55.9652 92.1263 56.6429C91.0476 57.2583 90.3803 58.2748 89.9274 59.4192C89.796 59.191 89.6577 58.9697 89.5333 58.7415C89.2048 57.9947 89.07 57.1649 88.9593 56.3594C88.9282 54.9764 89.1253 53.5104 89.8548 52.3142C91.0891 50.7445 92.8247 50.2708 94.384 51.7091C95.3279 52.57 95.9329 53.787 96.3064 54.9971C96.7178 56.2211 97.1742 57.4727 97.0532 58.783C96.9494 59.2083 97.2813 59.6543 97.7274 59.6474C97.9313 59.637 98.0869 59.5575 98.2045 59.4296C99.1656 58.5375 98.0835 54.399 97.6997 53.6107C96.7247 50.8828 96.0643 47.8714 96.5899 44.981C96.6313 44.8496 96.6417 44.7286 96.6244 44.6214C96.7973 43.9126 97.0428 43.2177 97.3782 42.547C97.4646 42.2738 97.7723 41.9177 97.8691 41.572C98.7404 40.0611 99.6393 38.5951 100.753 37.1603C101.735 35.9122 103.097 34.7643 104.321 33.7098C105.576 32.6864 106.724 31.7218 108.165 30.9127C108.978 30.5255 109.794 30.1556 110.617 29.7925C110.855 29.8686 111.101 29.7718 111.356 29.7822C112.394 29.9896 113.403 30.6915 113.856 31.6423C113.884 31.7529 113.915 31.867 113.946 31.9811C113.97 32.0641 114.008 32.1332 114.05 32.1954C114.105 32.4478 114.129 32.7141 114.098 32.9872C113.939 34.8957 112.968 36.5967 112.58 38.4499C112.166 40.8425 112.937 43.3802 114.275 45.3648C116.515 48.3001 120.332 49.0469 123.748 49.7349C126.472 50.174 128.989 51.4153 130.811 53.5277C133.38 56.4354 134.877 60.3147 134.642 64.2112C134.611 65.4731 134.207 66.8492 133.671 68.0109C133.629 68.2425 133.491 68.4914 133.353 68.7438C132.53 69.6151 131.672 70.4587 130.804 71.2816C129.11 72.8443 127.344 74.3276 125.484 75.6829C125.484 75.6829 125.484 75.6829 125.48 75.6829C125.328 75.7347 125.203 75.8143 125.12 75.9422C123.997 76.7443 122.842 77.5015 121.642 78.1964C120.577 78.881 119.454 79.4446 118.309 79.9874C117.943 80.1844 117.531 80.3435 117.234 80.6408C117.141 80.7411 117.082 80.8586 117.054 80.9797C116.719 81.2874 116.688 81.8924 117.327 82.1794C122.866 84.9764 121.061 96.9737 125.732 101.123C125.573 101.285 125.421 101.451 125.276 101.624C124.277 102.917 123.267 104.224 122.621 105.735C122.565 105.873 122.51 106.011 122.455 106.153C122.424 106.115 122.389 106.074 122.351 106.036C121.103 105.175 119.924 104.189 118.818 103.111C118.015 102.167 117.103 101.309 116.342 100.327C115.599 99.3316 114.987 98.2529 114.333 97.2019C112.667 94.671 111.751 91.7945 111.619 88.7589C111.533 88.337 111.467 87.8945 111.277 87.5107C110.807 86.8019 109.718 87.4243 110.067 88.1815C110.433 89.3708 110.302 90.6708 110.592 91.8844C110.807 92.8421 111.097 93.7825 111.498 94.6814C111.968 95.8915 112.542 97.0532 113.275 98.125C114.008 99.3074 114.689 100.531 115.578 101.603C116.418 102.568 117.279 103.515 118.195 104.407C118.199 104.421 118.202 104.431 118.209 104.445C118.302 104.649 118.451 104.798 118.593 104.967C120.795 107.685 121.182 109.03 120.854 112.501C120.813 113.507 120.692 114.486 120.636 115.495C120.622 116.273 120.532 117.12 120.259 117.877C120.135 118.669 119.616 119.271 118.963 119.703C118.735 119.962 118.42 119.962 118.105 119.993C117.507 119.651 116.916 119.288 116.335 118.908C113.912 117.414 111.654 115.602 109.279 114.015C109.351 113.784 109.306 113.514 109.061 113.31C108.449 112.829 107.816 112.359 107.246 111.83C106.305 110.924 105.717 109.721 105.306 108.497C104.895 106.862 105.092 105.154 105.216 103.491C105.258 101.091 105.762 98.6471 105.195 96.2787C104.825 94.8163 104.023 93.499 103.079 92.3407C101.486 90.166 98.6885 89.7027 96.2856 90.7365C93.658 91.9016 91.5386 93.9865 89.6059 96.0644C87.6524 98.1077 85.8338 100.265 83.9322 102.357C81.1663 105.275 78.3036 108.082 74.8565 110.247C74.1512 110.672 73.4424 111.066 72.7129 111.426C70.2789 112.283 67.9278 113.417 65.5975 114.503C62.7383 115.893 60.2282 117.874 57.7527 119.845C53.8492 123.444 50.1187 127.223 46.2325 130.846L46.2153 130.856ZM94.0106 109.552C94.0106 109.552 93.9968 109.552 93.9933 109.552C93.5058 109.534 93.0183 109.514 92.5378 109.5C88.0742 109.296 83.6003 109.552 79.1783 110.188C78.473 110.274 77.7711 110.344 77.0658 110.427C80.3158 108.134 83.1578 105.22 85.858 102.291C89.0008 98.8511 91.7979 95.079 95.7843 92.5205C98.0247 91.1721 100.621 91.1618 102.205 93.4713C103.823 95.3867 104.293 97.8311 104.009 100.282C103.93 102.678 103.508 105.112 103.736 107.508C103.57 108.833 102.329 109.666 101.102 109.998C100.846 110.098 100.58 110.122 100.317 110.178C98.45 109.821 96.538 109.666 94.6364 109.579C94.6364 109.579 94.6295 109.579 94.6261 109.579C94.4082 109.528 94.1939 109.514 94.0141 109.552H94.0106ZM102.678 112.183C102.685 112.183 102.696 112.19 102.706 112.193C102.706 112.193 102.709 112.193 102.713 112.193C102.689 112.193 102.661 112.193 102.637 112.19C102.651 112.19 102.665 112.186 102.678 112.183ZM85.6264 116.069C81.5051 116.812 77.2698 117.03 73.0932 116.695C73.0829 116.688 73.0725 116.681 73.0621 116.678C70.8563 115.882 71.6895 114.185 73.2142 113.161C74.2549 112.494 75.4685 112.117 76.6682 111.854C76.682 111.854 76.6924 111.844 76.7028 111.841C76.7062 111.841 76.7132 111.841 76.7166 111.841C77.2871 111.761 77.9509 111.737 78.6044 111.654C81.1974 111.319 83.7732 110.959 86.3905 110.907C88.3301 110.765 90.2766 110.796 92.2197 110.879C92.8835 110.886 93.5473 110.904 94.2077 110.935C94.6226 111.042 95.0997 111.115 95.3556 111.464C95.5941 112.166 95.0859 113.013 94.467 113.348C94.2907 113.4 94.1731 113.524 94.104 113.67C91.3104 114.586 88.4822 115.402 85.6195 116.072L85.6264 116.069ZM104.428 123.98C99.8606 123.461 96.7835 121.729 93.9761 118.98C93.9069 118.714 93.8032 118.434 93.7859 118.195C93.7894 117.521 93.8101 116.799 94.104 116.183C94.9614 114.997 96.379 114.354 97.7619 113.977C101.786 113.12 105.838 113.469 109.251 115.948C111.287 117.476 114.313 119.665 113.507 122.572C113.434 122.631 113.383 122.704 113.341 122.78C110.492 123.776 107.45 124.208 104.428 123.98ZM130.234 141.094C128.097 138.269 126.756 134.998 125.473 131.71C124.394 129.117 123.734 126.393 122.801 123.751C122.234 121.611 122.092 119.36 122.095 117.148C121.998 113.728 122.444 110.295 123.568 107.059C123.9 106.122 124.391 105.213 124.961 104.352C125.376 104.21 125.819 104.013 126.272 104.093C126.908 104.487 127.185 105.282 127.568 105.894C128.025 106.852 128.651 107.702 129.131 108.646C129.121 108.784 129.145 108.929 129.218 109.061C129.321 109.465 129.408 109.88 129.411 110.299C129.314 111.958 128.886 113.549 128.765 115.215C128.699 118.168 129.003 121.231 130.134 123.976C130.134 123.976 130.134 123.976 130.134 123.98C130.255 124.405 130.379 124.83 130.511 125.252C131.295 127.714 132.665 129.933 134.037 132.105C135.023 133.484 135.911 134.953 137.097 136.177C138.518 137.668 140.112 138.992 141.851 140.098C142.311 140.423 142.781 140.724 143.268 141C142.764 141.536 142.38 142.494 142.148 142.971C141.353 144.932 141.74 147.162 140.938 149.115C140.848 149.343 140.669 149.751 140.485 150.004C140.371 150.114 140.257 150.242 140.164 150.38C136.312 147.971 132.958 144.741 130.231 141.083L130.234 141.094ZM181.096 133.536C181.172 134.736 181.307 135.942 181.01 137.125C179.696 143.576 173.984 147.953 168.508 150.979C167.014 151.743 165.496 152.483 163.913 153.046C162.219 153.582 160.455 153.848 158.695 154.083C152.814 154.892 146.664 153.869 141.405 151.096C141.675 150.768 141.889 150.336 142.045 150.045C142.809 148.562 142.788 146.909 143.013 145.302C143.116 145.084 143.189 144.824 143.313 144.62C143.618 144.133 144.022 143.431 144.555 143.071C145.132 142.74 145.844 142.605 146.505 142.57C146.66 142.594 146.826 142.587 146.978 142.546C147.818 142.767 148.679 142.909 149.558 142.964C153.184 143.327 157.036 142.083 159.712 139.6C163.162 136.651 163.477 131.735 162.153 127.62C162.329 127.174 162.395 126.586 162.575 126.241C162.945 125.515 163.536 124.868 164.241 124.446C164.345 124.398 164.449 124.301 164.57 124.308C164.829 124.308 165.064 124.18 165.192 123.973C166.596 123.658 168.055 123.568 169.476 123.319C171.702 122.728 174.119 121.245 175.471 119.26C177.863 122.234 179.533 125.791 180.495 129.501C180.771 130.836 181.096 132.163 181.093 133.532L181.096 133.536ZM174.548 118.178C173.168 120.187 170.987 121.642 168.591 122.092C166.966 122.223 165.344 122.413 163.785 122.922C163.245 123.143 161.524 123.762 160.756 124.502C160.127 123.416 159.373 122.403 158.481 121.525C158.028 121.027 157.513 120.602 156.981 120.197C156.842 119.668 156.652 119.112 156.911 118.583C157.122 118.137 157.503 117.805 157.852 117.466C158.668 116.754 159.522 116.003 160.348 115.253C160.722 114.956 161.098 114.665 161.472 114.392C163.902 112.67 165.189 112.024 168.12 113.137C168.124 113.137 168.131 113.137 168.134 113.137C168.954 113.597 169.752 114.091 170.482 114.693C171.993 115.685 173.348 116.861 174.548 118.175V118.178ZM164.093 110.731C164.093 110.731 164.099 110.738 164.106 110.745C164.093 110.748 164.082 110.752 164.068 110.755C164.075 110.745 164.082 110.734 164.089 110.727V110.731H164.093ZM168.784 96.3513C167.598 101.904 165.441 107.277 161.648 111.595C159.664 113.777 157.081 115.575 154.675 117.324C151.947 119.454 148.707 120.799 145.45 121.96C145.011 122.14 144.568 122.303 144.122 122.458C143.863 120.64 144.302 118.745 145.139 117.12C145.772 115.996 146.757 115.132 147.77 114.361C148.866 113.345 149.858 112.051 150.031 110.523C150.035 110.202 150.08 109.742 150.031 109.334C154.875 106.361 158.74 101.776 160.452 96.3202C160.742 95.366 160.946 94.3979 161.088 93.4195C161.372 93.3953 161.662 93.3261 161.894 93.2915C165.863 92.5343 165.832 88.2644 168.38 86.1208C168.725 85.8546 169.099 85.6195 169.496 85.4328C169.714 89.0769 169.375 92.7764 168.784 96.3548V96.3513ZM161.399 53.2546C161.603 49.8041 162.882 47.2871 166.464 46.4711C168.985 46.0493 172.141 46.7408 173.825 48.7392C171.716 49.0711 169.732 49.9458 167.882 50.9969C166.084 51.92 164.469 53.1198 162.969 54.4612C162.474 54.9453 161.966 55.4189 161.486 55.9203C161.378 55.0386 161.337 54.1501 161.399 53.2546ZM163.792 55.7681C163.754 55.7958 163.712 55.8235 163.667 55.8407C163.712 55.82 163.754 55.7958 163.792 55.7681ZM167.007 62.5793C166.644 63.0529 166.347 63.5577 166.091 64.0763C166.049 64.1005 166.008 64.1316 165.97 64.1697C165.797 64.3218 165.545 64.3667 165.33 64.4428C164.767 64.6433 164.21 64.2941 163.965 63.7859C163.104 61.9708 162.647 59.8617 162.703 57.8357C162.775 57.4657 162.841 57.075 163.031 56.7431C163.266 56.3836 163.543 56.0102 163.854 55.7163C163.84 55.7267 163.826 55.737 163.812 55.7474C163.958 55.6368 164.037 55.4881 164.061 55.336C165.458 54.112 166.955 53.0091 168.618 52.1655C169.414 51.7195 170.226 51.3081 171.063 50.9623C171.115 50.9485 171.17 50.9312 171.225 50.9035C172.58 50.3262 173.96 51.7541 173.874 53.099V53.0091C173.929 53.6384 173.594 54.1604 173.407 54.7447C173.379 54.807 173.352 54.8623 173.32 54.9176C172.425 55.9548 171.467 56.9333 170.309 57.725C169.932 57.9532 169.673 58.0846 169.23 58.254C168.895 58.3785 168.466 58.3992 168.262 58.7311C168.221 58.7934 168.193 58.8556 168.176 58.9213C168.034 59.0665 167.948 59.2671 167.982 59.478C168.065 59.9343 168.47 60.1521 168.943 60.2766C168.217 60.9474 167.612 61.7322 167.004 62.5723L167.007 62.5793ZM171.519 59.1564C171.218 59.1841 170.911 59.1806 170.596 59.153C171.429 58.7 172.176 58.0915 172.854 57.4242C174.102 56.2003 175.353 54.9142 175.903 53.1958C176.207 52.5424 176.373 51.8405 176.266 51.1214C175.862 46.3882 170.16 44.2791 166.018 45.1539C161.731 46.2084 160.168 49.365 159.995 53.507C159.913 54.9003 160.092 56.2764 160.359 57.6351C160.362 57.6697 160.369 57.7043 160.379 57.7389C160.538 58.5375 160.728 59.3293 160.915 60.121C161.043 60.9577 161.327 61.7564 161.603 62.5551C163.038 67.4404 165.953 71.7414 167.619 76.5576C168.563 78.9467 169.113 81.436 169.372 83.9634C168.404 84.2746 167.156 85.2911 166.796 85.699C165.707 86.8123 165.233 88.3232 164.428 89.6267C164.113 90.2317 163.712 90.733 163.242 91.1237C163.114 91.1306 162.976 91.1687 162.831 91.2516C162.506 91.3554 162.049 91.4072 161.748 91.2274C161.655 91.1203 161.579 90.9958 161.51 90.8713C161.461 90.778 161.392 90.7019 161.309 90.6432C161.372 88.5203 161.192 86.3767 160.922 84.285C160.009 80.0496 158.713 75.9007 157.226 71.8279C156.569 69.7292 155.753 67.6997 154.996 65.6425C154.422 63.6096 153.976 61.5282 153.796 59.4226C153.582 57.8426 153.579 56.2626 153.738 54.6618C153.751 54.2365 153.99 53.6626 153.803 53.2823C155.186 48.0823 158.291 42.2842 163.688 40.4518C168.069 39.2555 173.801 40.8113 176.989 44.0544C178.52 45.9283 178.959 48.4211 178.873 50.7895C178.624 52.2416 177.998 53.6349 177.179 54.8554C175.782 56.8088 173.953 58.6655 171.516 59.1668L171.519 59.1564ZM186.3 53.8182C184.975 53.5139 183.644 53.4136 182.303 53.628C182.265 53.6073 182.227 53.583 182.182 53.5658C181.024 53.2546 180.598 52.6461 180.605 51.4498C180.65 50.5647 180.688 49.4791 181.393 48.8498C181.642 48.7461 181.954 48.6839 182.206 48.5767C182.555 48.5767 182.901 48.5767 183.25 48.5871C185.435 48.6286 187.627 48.6424 189.774 49.04C189.809 49.0642 189.843 49.0884 189.888 49.1057C190.984 50.5129 190.981 52.3764 191.531 54.0118C191.621 54.399 191.78 54.762 191.956 55.1147C192.029 55.3394 192.105 55.5607 192.184 55.782C191.524 55.4431 190.843 55.1458 190.161 54.8692C188.924 54.3541 187.627 54.0049 186.3 53.8147V53.8182ZM200.637 70.03C199.562 72.1494 198.055 74.1513 196.523 75.9733C195.434 77.5257 194.248 78.9121 193.048 80.3919C192.077 81.8578 191.078 83.3065 190.217 84.8416C189.166 86.916 188.391 89.2221 188.267 91.5524C188.187 92.5689 188.505 93.5508 188.91 94.4878C188.896 94.4705 188.879 94.4567 188.865 94.4394C187.188 92.4548 186.673 89.7235 187.091 87.1996C187.43 84.5373 188.754 82.2209 190.48 80.1844C192.004 78.3209 193.494 76.4124 194.673 74.3103C195.752 72.7337 196.561 70.9946 197.101 69.1622C197.567 67.9694 198.051 66.7524 198.127 65.4627C198.207 62.8074 197.063 60.1383 195.372 58.1226C195.009 57.7181 194.611 57.3586 194.186 57.0301C194.179 56.999 194.176 56.9644 194.165 56.9298C194.158 56.916 194.155 56.9022 194.148 56.8918C194.131 56.6048 194.041 56.2971 193.951 56.0655C193.726 55.5503 193.46 55.0525 193.221 54.5408C193.09 54.1293 192.969 53.7144 192.869 53.2926C192.672 52.4974 192.45 51.5086 192.734 50.6684C192.876 50.4437 193.114 50.2259 193.315 50.0012C194.483 50.4817 195.593 51.1179 196.724 51.7956C198.656 53.1578 200.171 55.0213 201.232 57.1407C203.272 61.1721 202.681 66.1127 200.641 70.0335L200.637 70.03Z" fill="#0D0C22"/>
<path d="M13.197 78.5561C13.6949 79.3132 14.8393 78.5768 14.3656 77.8127C14.013 77.2284 13.4874 76.7893 12.9412 76.3952C12.6196 76.1393 12.2877 75.8835 12.0042 75.5861C11.7553 75.1954 11.2505 74.9603 10.8529 75.2957C9.78107 76.4367 12.7787 77.588 13.197 78.5526V78.5561Z" fill="#0D0C22"/>
<path d="M13.9473 79.8215C13.9611 80.2053 14.2826 80.4922 14.6595 80.4922C15.0364 80.4922 15.3406 80.1499 15.3302 79.78C15.3164 79.3962 14.9949 79.1093 14.618 79.1093C14.2412 79.1093 13.9369 79.4515 13.9473 79.8215Z" fill="#0D0C22"/>
<path d="M156.511 26.5114C156.089 26.8019 156.11 27.4242 155.975 27.8806C155.715 29.5159 156.614 31.1962 158.032 32.0087C160.642 33.5265 161.586 29.9654 160.915 28.0327C160.476 25.8442 157.952 23.991 156.511 26.5114Z" fill="#0D0C22"/>
<path d="M69.6151 24.6963C70.2547 24.7482 70.9289 24.6514 71.4544 24.2607C72.8823 23.1613 74.127 19.7903 71.6722 19.1852C70.2581 18.9294 68.7265 19.7661 68.3185 21.1698C67.4127 22.3418 67.9382 24.6479 69.6185 24.6929L69.6151 24.6963Z" fill="#0D0C22"/>
<path d="M82.3317 21.6469C83.5037 22.0445 84.458 21.1663 84.2298 19.9666C84.0915 19.2543 83.6593 18.632 83.1372 18.1411C82.8295 17.7538 82.463 17.3804 82.0032 17.1764C81.2426 16.765 80.4923 16.9724 79.7524 17.2871C78.9883 17.5844 78.6461 18.5387 78.8846 19.2924C79.3341 20.7722 80.9487 21.3876 82.3351 21.6434L82.3317 21.6469Z" fill="#0D0C22"/>
<path d="M17.1419 23.3375C17.9406 23.5346 18.5768 22.8223 18.9709 22.2208C19.8733 21.0625 19.8664 18.8152 18.1238 18.5075C15.9699 18.2862 14.8358 22.8846 17.1385 23.3375H17.1419Z" fill="#0D0C22"/>
<path d="M26.7226 20.4436C25.1287 20.0149 24.209 24.9452 25.8962 25.0939C27.3414 25.2011 28.6276 22.9572 28.1643 21.6745C27.9569 21.0383 27.4417 20.4022 26.7226 20.4436Z" fill="#0D0C22"/>
<path d="M137.402 50.3124C137.402 50.9624 137.374 51.6193 137.305 52.2658C137.17 52.7775 137.104 53.3895 137.751 53.5451C138.885 53.6592 138.646 52.0791 138.753 51.3358C138.791 49.3789 138.743 47.3356 138.114 45.4651C137.799 44.6111 136.53 45.0502 136.803 45.9111C137.308 47.3114 137.315 48.8361 137.402 50.3089V50.3124Z" fill="#0D0C22"/>
<path d="M137.232 57.1235C137.609 57.1235 137.899 56.7467 137.875 56.3871C137.861 56.2073 137.778 56.0344 137.647 55.9169C137.502 55.789 137.329 55.744 137.142 55.744C136.765 55.744 136.475 56.1209 136.499 56.4805C136.513 56.6602 136.596 56.8331 136.727 56.9507C136.872 57.0786 137.045 57.1235 137.232 57.1235Z" fill="#0D0C22"/>
<path d="M86.1311 94.5258C86.6877 93.9968 87.234 93.4713 87.7941 92.9388C88.3784 92.3926 88.8382 91.7357 89.343 91.1168C89.7199 90.7088 90.1832 90.0277 89.5781 89.599C89.0422 89.2636 88.6515 89.6612 88.3819 90.1072C87.8978 90.6984 87.4587 91.3208 86.9194 91.8636C86.2486 92.4928 85.6574 93.1083 84.9486 93.7133C84.5407 93.9311 84.2295 94.3979 84.5268 94.837C84.9936 95.5008 85.7024 94.9269 86.1311 94.5293V94.5258Z" fill="#0D0C22"/>
<path d="M82.3074 98.571C82.6842 98.571 82.9747 98.1942 82.9505 97.8346C82.9366 97.6548 82.8537 97.482 82.7223 97.3644C82.5771 97.2365 82.4042 97.1915 82.2175 97.1915C81.8406 97.1915 81.5502 97.5684 81.5744 97.928C81.5882 98.1077 81.6712 98.2806 81.8026 98.3982C81.9478 98.5261 82.1207 98.571 82.3074 98.571Z" fill="#0D0C22"/>
<path d="M141.502 15.8177C141.855 15.911 142.266 15.6898 142.346 15.3233C142.577 14.2342 142.785 13.0898 143.563 12.2427C143.977 11.7172 144.479 11.285 144.994 10.8667C145.616 10.2097 144.634 9.26587 143.998 9.90549C142.826 10.8148 141.765 12.0111 141.357 13.4701C141.27 14.1892 140.503 15.4719 141.499 15.8211L141.502 15.8177Z" fill="#0D0C22"/>
<path d="M140.797 19.4134C141.173 19.4134 141.488 19.0918 141.481 18.715C141.478 18.3346 141.16 18.0304 140.783 18.0304C140.406 18.0304 140.091 18.3519 140.098 18.7288C140.102 19.1091 140.42 19.4134 140.797 19.4134Z" fill="#0D0C22"/>
<path d="M165.347 100.459C165.033 100.282 164.573 100.386 164.407 100.722C163.743 102.302 162.875 103.778 161.973 105.233C161.641 105.735 161.278 106.205 160.894 106.665C160.652 106.955 160.746 107.415 161.036 107.633C161.918 108.262 162.703 106.478 163.176 105.915C163.951 104.649 164.725 103.377 165.344 102.025C165.545 101.513 166.015 100.867 165.347 100.455V100.459Z" fill="#0D0C22"/>
<path d="M158.896 108.954C158.519 108.954 158.205 109.275 158.212 109.652C158.215 110.032 158.533 110.337 158.91 110.337C159.287 110.337 159.602 110.015 159.595 109.638C159.591 109.258 159.273 108.954 158.896 108.954Z" fill="#0D0C22"/>
<path d="M175.785 139.763C176.076 139.981 176.543 139.932 176.754 139.621C177.117 139.078 177.473 138.528 177.691 137.906C178.264 136.212 178.659 134.373 178.396 132.585C178.34 132.212 177.984 131.945 177.611 132.001C176.971 132.105 176.975 132.748 177.089 133.252C177.12 134.815 176.843 136.326 176.238 137.799C176.007 138.418 175.052 139.158 175.782 139.766L175.785 139.763Z" fill="#0D0C22"/>
<path d="M173.365 141.927C172.988 141.927 172.674 142.249 172.681 142.625C172.684 143.006 173.002 143.31 173.379 143.31C173.756 143.31 174.071 142.988 174.064 142.612C174.06 142.231 173.742 141.927 173.365 141.927Z" fill="#0D0C22"/>
<path d="M27.9431 66.8112C28.8731 66.8838 28.7106 65.7187 28.9837 65.124C29.3571 64.1386 29.9311 63.2362 30.5984 62.4272C31.0029 61.8463 32.2406 61.2102 31.5491 60.4219C31.2829 60.166 30.8265 60.1626 30.5707 60.4392C29.8446 61.1825 29.1324 61.9501 28.5896 62.8421C28.147 63.5509 26.4875 66.5761 27.9431 66.8112Z" fill="#0D0C22"/>
<path d="M27.5521 69.909C27.929 69.909 28.2436 69.5874 28.2367 69.2106C28.2333 68.8303 27.9152 68.526 27.5383 68.526C27.1615 68.526 26.8468 68.8475 26.8537 69.2244C26.8572 69.6047 27.1753 69.909 27.5521 69.909Z" fill="#0D0C22"/>
<path d="M59.1875 87.2721C59.4848 87.4485 59.7822 87.6248 60.0691 87.815C60.9542 88.4269 61.8877 88.9628 62.8489 89.44C63.6683 89.8237 64.263 88.6171 63.454 88.1987C62.2197 87.6179 61.1133 86.8227 59.9516 86.1208C59.1771 85.6402 58.4407 86.7604 59.184 87.2721H59.1875Z" fill="#0D0C22"/>
<path d="M66.6038 91.1099C66.9807 91.1099 67.3091 90.8437 67.3299 90.453C67.3471 90.09 67.0498 89.7269 66.6729 89.7269C66.2961 89.7269 65.9676 89.9932 65.9469 90.3838C65.9296 90.7469 66.2269 91.1099 66.6038 91.1099Z" fill="#0D0C22"/>
<path d="M13.7398 138.107C12.6784 137.616 11.6792 136.986 10.8632 136.119C10.2271 135.476 9.60472 134.594 9.11377 133.802C8.87867 133.356 8.75074 132.692 8.08692 132.831C6.51725 133.325 8.8925 135.832 9.38691 136.558C10.4034 137.768 11.6999 138.698 13.1348 139.351C13.9542 139.739 14.5454 138.532 13.7433 138.11L13.7398 138.107Z" fill="#0D0C22"/>
<path d="M17.1902 139.669C16.8134 139.669 16.4849 139.936 16.4676 140.326C16.4503 140.689 16.7477 141.052 17.1245 141.052C17.5014 141.052 17.8299 140.786 17.8506 140.395C17.8679 140.032 17.5706 139.669 17.1937 139.669H17.1902Z" fill="#0D0C22"/>
<path d="M11.4716 32.9146C11.2538 33.1774 11.2607 33.6027 11.5062 33.8412C11.6721 34.3702 11.8035 34.913 11.9729 35.442C12.1527 36.0056 13.024 36.0298 13.2453 35.487C13.432 34.9165 13.0067 34.3391 12.9306 33.7721C12.8338 33.0598 12.1527 32.2301 11.4716 32.9146Z" fill="#0D0C22"/>
<path d="M14.1064 38.239C13.7295 38.239 13.4011 38.5122 13.3838 38.8994C13.3699 39.2624 13.6673 39.622 14.0441 39.622C14.421 39.622 14.7494 39.3488 14.7667 38.9616C14.7806 38.5986 14.4832 38.239 14.1064 38.239Z" fill="#0D0C22"/>
<path d="M107.861 120.823C107.564 120.885 107.256 120.844 106.955 120.851C106.105 120.868 105.254 120.757 104.445 120.495C104.079 120.325 103.605 120.457 103.46 120.854C103.328 121.19 103.491 121.636 103.847 121.75C104.656 122.012 105.479 122.196 106.333 122.22C107.159 122.203 109.144 122.534 108.808 121.162C108.653 120.802 108.21 120.647 107.861 120.82V120.823Z" fill="#0D0C22"/>
<path d="M101.97 119.692C101.593 119.692 101.282 120.017 101.285 120.391C101.289 120.771 101.607 121.075 101.984 121.075C102.36 121.075 102.672 120.75 102.668 120.377C102.665 119.997 102.347 119.692 101.97 119.692Z" fill="#0D0C22"/>
<path d="M156.901 50.1083C156.006 49.8905 155.709 51.6088 155.487 52.2381C155.418 52.9849 154.533 54.5995 155.598 54.883C155.957 54.966 156.348 54.7274 156.424 54.3575C156.576 53.6245 156.732 52.8915 156.939 52.1724C157.119 51.5017 157.97 50.4437 156.905 50.1083H156.901Z" fill="#0D0C22"/>
<path d="M156.331 56.3905C155.484 55.737 154.692 56.9506 155.553 57.5729C156.403 58.2264 157.192 57.0024 156.331 56.3905Z" fill="#0D0C22"/>
<path d="M147.756 85.0006C148.088 85.177 148.506 85.049 148.693 84.7171C149.194 83.7318 149.872 82.7741 150.069 81.6711C150.211 80.793 148.925 80.5337 148.714 81.398C148.51 82.3592 147.905 83.1959 147.469 84.0671C147.283 84.3956 147.428 84.8278 147.753 85.0006H147.756Z" fill="#0D0C22"/>
<path d="M145.879 86.8815C145.502 86.8815 145.205 87.2445 145.222 87.6075C145.243 87.9982 145.571 88.2644 145.948 88.2644C146.325 88.2644 146.622 87.9014 146.605 87.5384C146.584 87.1477 146.256 86.8815 145.879 86.8815Z" fill="#0D0C22"/>
<path d="M140.897 104.086C140.938 104.888 140.43 105.673 139.908 106.25C139.486 106.537 139.106 107.011 139.496 107.495C140.71 108.698 142.653 104.86 142.255 103.84C142.065 102.952 140.748 103.194 140.893 104.086H140.897Z" fill="#0D0C22"/>
<path d="M137.788 107.349C137.411 107.349 137.114 107.713 137.131 108.076C137.152 108.466 137.481 108.732 137.857 108.732C138.234 108.732 138.532 108.369 138.514 108.006C138.494 107.616 138.165 107.349 137.788 107.349Z" fill="#0D0C22"/>
<path d="M99.6359 47.7953C99.75 46.5679 99.4768 45.306 99.8433 44.1062C100.006 43.5634 100.258 43.0414 100.355 42.4813C100.531 41.5892 99.2244 41.3023 99.0066 42.1805C98.8268 43.0137 98.4016 43.7847 98.3151 44.6456C98.2114 45.4408 98.2875 46.2498 98.284 47.0485C98.2391 47.581 98.1699 48.3589 98.8891 48.428C99.2521 48.4591 99.6186 48.1722 99.6359 47.7953Z" fill="#0D0C22"/>
<path d="M99.501 49.9252C99.1241 49.9252 98.8268 50.2882 98.8441 50.6512C98.8648 51.0419 99.1933 51.3081 99.5702 51.3081C99.947 51.3081 100.244 50.9451 100.227 50.5821C100.206 50.1914 99.8779 49.9252 99.501 49.9252Z" fill="#0D0C22"/>
<path d="M115.889 40.7941C116.031 41.1882 116.114 41.5997 116.28 41.9869C116.764 43.1797 117.615 44.2273 118.711 44.9084C119.461 45.4201 120.246 44.3345 119.52 43.7882C118.562 43.2074 117.839 42.2843 117.469 41.2297C117.29 40.5867 117.058 39.3835 116.128 39.8537C115.803 40.0508 115.71 40.4691 115.889 40.7941Z" fill="#0D0C22"/>
<path d="M121.722 45.9318C122.099 45.9318 122.406 45.5999 122.403 45.2299C122.396 44.8496 122.078 44.5488 121.701 44.5488C121.324 44.5488 121.017 44.8773 121.02 45.2507C121.027 45.631 121.345 45.9318 121.722 45.9318Z" fill="#0D0C22"/>
<path d="M107.657 98.011C106.748 98.0283 106.99 99.1381 106.772 99.7466C106.706 100.576 105.749 103.46 107.066 103.505C107.429 103.515 107.782 103.207 107.775 102.831C107.757 101.98 107.923 101.136 108.076 100.303C108.152 99.5703 108.805 98.1631 107.657 98.0144V98.011Z" fill="#0D0C22"/>
<path d="M107.446 104.297C107.069 104.297 106.748 104.587 106.737 104.971C106.727 105.341 107.035 105.679 107.411 105.679C107.788 105.679 108.11 105.389 108.12 105.005C108.131 104.635 107.823 104.297 107.446 104.297Z" fill="#0D0C22"/>
</g>
<defs>
<clipPath id="clip0_6121_21416">
<rect width="206" height="158.153" fill="white"/>
</clipPath>
</defs>
</svg>
