<svg xmlns="http://www.w3.org/2000/svg" width="73" height="70" fill="none"><g clip-path="url(#a)"><path fill="#D657D9" d="M2.492 68.66h26.522c.16-.017.326-.013.482-.023.745-.013 1.482-.046 2.227-.026.056-.17.096-.36.156-.53V40.343c0-.007-.007-.013-.007-.02-.422-.069-.847-.056-1.27-.095H1.436a4.01 4.01 0 0 1-.063.615v26.993c.037.235.07.47.067.71.295.052.71.039 1.053.114ZM44.282 9.894c-3.41 3.71-6.84 7.404-10.249 11.114 3.616 3.537 7.205 7.1 10.817 10.64l3.809 3.746.006.006.027.026 3.546 3.488h.09a.728.728 0 0 1 .136-.203l10.368-10.198 5.284-5.197c1.05-1.033 2.103-2.066 3.153-3.102-6.383-6.28-12.76-12.555-19.144-18.831-2.619 2.834-5.228 5.674-7.846 8.508l.003.003Z"/><path fill="#FFC2E8" d="M31.773 7.018H1.472c-.033 0-.067.003-.1.006V33.45c.083.206.133.438.146.634.103.007.216.007.333.01h28.416c.519-.079 1.074.03 1.592-.062.003-.02.013-.033.02-.053V8.571s-.007-.027-.007-.04a25.633 25.633 0 0 0-.1-1.516v.003ZM51.108 40.797h.02-.02c-1.17-.069-2.313-.346-3.466-.506-.44-.01-.885-.036-1.323-.066h-9.554v26.631l.013.032c.01.036.013.075.02.111 0 .004.003.007.006.01.094.21.1.432.09.657.023.265.034.533.037.798.269.036.541.078.81.11a.73.73 0 0 1 .257.083h25.684c.024-.007.044-.02.067-.027.887.007 1.758.02 2.632-.042a.972.972 0 0 1 .063-.405V40.405c-.346-.003-.701-.04-.957-.003-2.944-.023-5.882.186-8.83.17-1.854.065-3.692.29-5.546.222l-.003.003Z"/><path fill="#000" d="M52.796.193a.623.623 0 0 0-.701-.14c-.233-.072-.502-.03-.672.153-.917.987-1.824 1.98-2.738 2.971l-5.19 5.63c-2.267 2.464-4.54 4.925-6.813 7.386a.725.725 0 0 0-.246.115 1.91 1.91 0 0 1-2.227.157 2.57 2.57 0 0 1-.887-1.24c-.056-.117-.07-.368-.116-.538v-7.08a.778.778 0 0 0-.087-.35c-.033-.249-.063-.478-.053-.654a.613.613 0 0 0-.186-.399.67.67 0 0 0-.641-.497H1.276c-.445-.062-.923.16-.93.648-.203.124-.346.353-.3.68v26.47a.658.658 0 0 0 0 .114v.88c-.002.35.23.656.592.696.087.055.2.094.323.124.09.049.196.081.322.081h.346c.186.017.385.023.571 0H32.13a.673.673 0 0 0 .422-.147c.329-.11.595-.336.611-.693a.55.55 0 0 0 .047-.209v-6.845a.716.716 0 0 0 .037-.258c.152-.931.804-1.68 1.784-1.794.751-.131 1.39.2 2.027.575.163.098.346.21.522.314l9.358 9.205c.12.277.412.45.665.653l.252.249c.02.023.044.046.06.072.818 1.2-.233 1.876-1.31 2.281-.145.01-.295.043-.431.102a2.354 2.354 0 0 0-.549.013h-9.258c-.369.01-.578.238-.635.5a.622.622 0 0 0-.289.497V68.588c0 .144.04.278.113.392-.01.2.01.392.106.579a.63.63 0 0 0 .157.166c.11.141.279.24.512.242h.727c.313.02.625.03.937.023.539.023 1.077-.006 1.615-.006.05 0 .097-.01.14-.02h26.958a.671.671 0 0 0 .571-.327c.226-.183.376-.454.402-.784a.558.558 0 0 0 .097-.3V40.106a.737.737 0 0 0-.17-.526c-.063-.29-.339-.546-.658-.523-.03 0-.06 0-.09.007a.753.753 0 0 0-.421-.15H58.77a4.503 4.503 0 0 1-1.31-.497c-.707-.337-.847-1.272-.498-1.913.117-.33.452-.634.608-.96 2.154-2.122 4.31-4.24 6.467-6.362 1.761-1.729 3.52-3.461 5.28-5.194 1.054-1.036 2.104-2.072 3.158-3.105a.654.654 0 0 0 .14-.719.652.652 0 0 0-.163-.65L69.694 16.8C64.061 11.264 58.435 5.724 52.8.183l-.003.01ZM31.883 22.208v11.77c-.007.017-.017.033-.02.053-.518.092-1.077-.016-1.592.062H1.851c-.113 0-.226-.003-.332-.01a2.266 2.266 0 0 0-.146-.634V7.021c.033 0 .066 0 .1-.006H31.773c.044.503.09 1.01.1 1.517 0 .013.007.026.007.039v13.637h.003Zm33.6 18.2c.26-.036.616 0 .958.003V68.19a.915.915 0 0 0-.063.406c-.874.062-1.745.049-2.632.042-.023.007-.043.016-.067.026H37.994a.734.734 0 0 0-.255-.081c-.27-.033-.542-.076-.811-.112a10.637 10.637 0 0 0-.037-.797c.01-.226.003-.448-.09-.657 0-.004-.003-.007-.006-.01l-.02-.111c-.003-.013-.01-.023-.014-.033v-26.63h9.555c.438.03.884.055 1.322.065 1.154.16 2.3.438 3.466.507 1.855.068 3.693-.157 5.547-.223 2.944.017 5.885-.19 8.83-.17l.003-.003Zm2.64-17.085-5.284 5.197L52.47 38.718a.592.592 0 0 0-.136.203h-.09c-1.183-1.164-2.366-2.324-3.546-3.488l-.026-.026-.007-.006c-1.27-1.25-2.539-2.501-3.808-3.746-3.612-3.54-7.201-7.103-10.817-10.64 3.41-3.71 6.839-7.404 10.248-11.114 2.62-2.837 5.228-5.674 7.847-8.508l19.145 18.83c-1.05 1.037-2.104 2.07-3.154 3.103l-.004-.003Z"/><path fill="#000" d="M2.366 69.954a.618.618 0 0 0 .156 0c.077 0 .15.007.216.017h26.078c.11.029.222.029.335 0h2.705c.093 0 .183-.02.266-.056.572-.043 1.05-.222.93-.856a.564.564 0 0 0 .154-.38V40.277a.826.826 0 0 0-.044-.268c-.04-.268-.18-.53-.359-.752-.255-.163-.548-.228-.85-.258-.34-.13-.825-.068-1.177-.075h-.123c-.046-.006-.09-.01-.136-.02a.995.995 0 0 0-.445.02H1.027a.666.666 0 0 0-.425.15.642.642 0 0 0-.452.474c-.05.262-.037.54-.05.818a.599.599 0 0 0-.057.333v.088c-.046.301-.06.589 0 .909V67.316a.74.74 0 0 0-.016.461l.016.236v.32c0 .095.017.183.05.268.077.775.193 1.046.635 1.167.346.337 1.067.206 1.638.19v-.004Zm-.993-6.746V40.843c.036-.203.056-.399.063-.615h29.17c.423.04.848.026 1.27.095 0 .007.007.013.007.02v27.739c-.06.172-.1.362-.156.529-.745-.02-1.483.013-2.227.026-.156.01-.322.007-.482.023H2.496c-.342-.079-.758-.066-1.054-.115a4.236 4.236 0 0 0-.066-.709v-4.628h-.003Z"/></g><defs><clipPath id="a"><path fill="#fff" d="M0 0h72.658v70H0z"/></clipPath></defs></svg>