<svg xmlns="http://www.w3.org/2000/svg" width="71" height="70" fill="none"><g clip-path="url(#a)"><path fill="#DE83F0" d="M34.153 31.699c-9.08-4.456-18.156-8.914-27.236-13.373-.04-.013-.082-.03-.12-.04-1.86-.699-4.601-1.144-5.223 1.356-.147.323-.14.824-.268 1.19v30.779a4.73 4.73 0 0 1 0 .528c8.828 4.333 17.652 8.67 26.48 13.003a.782.782 0 0 1 .232.09c.704.036 1.345.398 2.049.418 1 .01 1.956-.584 2.715-1.17 1.077-.822 1.263-2.24 1.296-3.503a.661.661 0 0 1 .088-.402V32.777c.036-.297-.022-.702-.02-1.078h.007Z"/><path fill="#FFC2E8" d="m63.323 15.955 4.486-2.315L43.171 4.23c-.831-.3-1.662-.584-2.516-.795-1.43-.36-2.827-.86-4.313-.81-1.4-.113-2.84.237-4.175.626-.307.118-.664.28-.975.287-.173.052-.34.105-.55.145l-.072.006a9465.11 9465.11 0 0 1-10.32 3.925c-5.028 1.912-10.054 3.829-15.083 5.738l-3.04 1.158c1.813.89 3.625 1.78 5.438 2.667.337.142.664.304.978.479.01 0 .017.01.023.013l19.701 9.672c2.163 1.066 4.326 2.124 6.492 3.186a.704.704 0 0 1 .137.09c4.731-2.438 9.456-4.882 14.19-7.322 4.748-2.447 9.496-4.897 14.24-7.344l-.003.003Z"/><path fill="#D657D9" d="m69.187 20.367.006.03c-.422-2.22-2.015-3.34-4.217-2.978-.766.086-1.483.307-2.202.472-.187.082-.4.135-.593.135-3.15 1.626-6.301 3.248-9.453 4.874-4.855 2.507-9.71 5.01-14.566 7.516l-2.684 1.385v36.646c7.039-3.621 14.067-7.265 21.105-10.886 3.998-2.065 7.993-4.123 11.992-6.187.281-.126.625-.37.952-.478V21.99a2.166 2.166 0 0 0-.033-.297 17.53 17.53 0 0 1-.307-1.322v-.003Z"/><path fill="#000" d="M70.833 38.825V22.656a.656.656 0 0 0 .026-.38c-.003-.121-.016-.24-.026-.358v-7.803c.049-.432-.121-.914-.612-.947-.026 0-.05 0-.075.004a1.743 1.743 0 0 0-.337-.185.52.52 0 0 0-.246-.092l-.176-.06-3.55-1.355-20.909-7.984a.625.625 0 0 0-.203-.083 33.78 33.78 0 0 0-1.096-.412l-3.995-1.524a.618.618 0 0 0-.347-.21c-.363-.261-.785-.42-1.171-.644C37.527.37 36.938.03 36.284.007c-.56.141-1.096.425-1.623.666-.148.076-.288.145-.432.22-3.776 1.435-7.549 2.87-11.321 4.308-5.085 1.932-10.17 3.868-15.254 5.8-2.284.871-4.571 1.739-6.859 2.61a.652.652 0 0 0-.327.28c-.255.079-.47.306-.47.586v37.701c0 .11.022.212.065.304a.63.63 0 0 0 .356.696c11.19 5.497 22.387 10.988 33.578 16.486.114.05.222.066.324.062a.628.628 0 0 0 .46.248.689.689 0 0 0 .164-.017c.02.007.036.02.06.027.18.049.356.01.52-.08.991-.507 1.98-1.022 2.97-1.533 2.415-1.243 4.827-2.49 7.242-3.733 4.93-2.546 9.861-5.086 14.789-7.632 2.277-1.173 4.555-2.344 6.829-3.522.92-.474 1.835-.956 2.758-1.421a.584.584 0 0 0 .265-.297c.596-.165.439-.98.451-1.52V38.832l.004-.007Zm-36.66 10.752v10.995a.662.662 0 0 0-.088.402c-.03 1.263-.216 2.68-1.296 3.502-.762.587-1.714 1.184-2.716 1.17-.703-.016-1.344-.382-2.048-.418a.78.78 0 0 0-.232-.089c-8.828-4.333-17.653-8.67-26.48-13.003.013-.172.003-.357 0-.528V20.836c.127-.37.12-.87.268-1.19.621-2.5 3.363-2.055 5.222-1.356.042.01.082.026.12.04L34.16 31.701c0 .373.056.782.02 1.079v16.802l-.007-.006Zm.723-18.96a.704.704 0 0 0-.137-.089l-6.492-3.186c-6.567-3.222-13.134-6.447-19.7-9.672-.01-.004-.017-.01-.023-.013a9.983 9.983 0 0 0-.979-.479c-1.812-.89-3.625-1.78-5.438-2.668l3.04-1.157c5.029-1.91 10.055-3.829 15.084-5.738 3.439-1.31 6.878-2.619 10.32-3.925.023 0 .045 0 .072-.006.206-.043.376-.093.55-.145.31-.007.67-.169.974-.287 1.339-.39 2.775-.739 4.176-.627 1.485-.05 2.882.452 4.312.811.854.211 1.685.495 2.516.795L67.81 13.64l-4.486 2.315c-4.748 2.447-9.496 4.9-14.24 7.344-4.732 2.44-9.46 4.881-14.19 7.322l.002-.004Zm34.631 3.05v17.225c-.327.11-.667.353-.952.478-3.998 2.065-7.993 4.123-11.992 6.187-7.038 3.625-14.066 7.265-21.104 10.886V31.798l2.683-1.385c4.855-2.507 9.711-5.01 14.567-7.516 3.15-1.626 6.302-3.252 9.453-4.874.196 0 .405-.053.592-.136.72-.161 1.44-.385 2.202-.471 2.202-.363 3.795.762 4.218 2.978 0-.01-.007-.02-.007-.03.082.422.19.894.308 1.323.02.095.026.197.032.296V33.668Z"/></g><defs><clipPath id="a"><path fill="#fff" d="M0 0h70.875v70H0z"/></clipPath></defs></svg>