<svg xmlns="http://www.w3.org/2000/svg" width="55" height="56" fill="none"><g clip-path="url(#a)"><path fill="#D657D9" d="M51.446 9.01c.622-1.273 1.414-2.448 2.309-3.547a.586.586 0 0 0-.1-.114c-.493-.297-.867-.73-1.293-1.109-1.173-.78-2.277-1.68-3.36-2.584-.13.103-.27.196-.382.286a26.856 26.856 0 0 1-4.607 2.837c-3.837 2.08-8.307 3.176-12.663 2.51-2.582-.35-4.952-1.444-7.21-2.643-1.328-.677-2.45-1.618-3.663-2.462-.43-.295-.794-.661-1.165-1.017-1.025.807-2.074 1.582-3.096 2.389-.519.43-1.078.82-1.597 1.247-.114.074-.238.183-.365.289.273.334.492.836.757 1.048a69.307 69.307 0 0 0 4.068 3.773c3.127 2.518 6.363 4.007 10.383 4.365 1.66.066 3.35-.13 4.98-.215.287-.058.61-.082.792.13.25.218.263.475.13.682a.532.532 0 0 1-.06.167c-.84.942-1.867 1.762-2.744 2.646l.018-.024a15.862 15.862 0 0 1-2.017 2.114c-.146.141-.315.31-.493.412-2.682 2.677-5.32 5.405-7.984 8.103-1.96 2.006-3.877 4.052-5.868 6.029-2.727 2.775-5.638 5.37-8.33 8.183-1.96 1.881-3.846 3.837-5.808 5.715-.294.284-.58.576-.871.865 1.274 1.123 2.216 2.537 3.247 3.866.31.393.58.82.913 1.194.22.165.416.361.564.587.162-.162.323-.324.495-.473.74-.668 1.412-1.406 2.135-2.093 3.148-3.062 6.382-6.042 9.421-9.215 5.408-5.488 10.963-10.829 16.164-16.518.651-.711 1.316-1.406 1.978-2.104.064-.165.188-.324.331-.459.461-.55.911-1.032 1.277-1.643.749-1.029 1.445-2.098 2.264-3.075a.589.589 0 0 1 .694-.265c.034.013.06.034.09.053a.47.47 0 0 1 .325.292c.066.151.045.302-.01.448-.239.987-.408 1.86-.424 2.85-.143 1.733-.032 3.468.516 5.126.72 2.866 2.095 5.562 3.806 7.953.749 1.05 1.641 1.987 2.52 2.926.337.396.713.804 1.123 1.117.4.356.776.733 1.258.98 1.303-1.52 2.606-3.044 3.895-4.564-.62-1.064-1.626-1.863-2.309-2.89-.768-1.287-1.52-2.592-2.097-3.98-.445-.955-.68-1.982-1.035-2.972-.233-1.037-.25-1.982-.398-3.009-.26-2.754-.045-5.575.927-8.177.765-2.041 1.465-4.134 2.566-6.021l.003-.008Z"/><path fill="#000" d="M51.812 10.518c.73-1.313 1.459-2.78 2.43-3.964.403-.451 1.272-1.483.348-1.836-.027-.006-.056-.008-.082-.011-.178-.204-.43-.348-.65-.507-.82-.875-1.858-1.478-2.798-2.213-.26-.228-.532-.443-.803-.658-.338-.276-.638-.645-1.067-.772-.272-.19-.71-.12-.823.244-3.183 2.481-6.885 4.315-10.807 5.28-3.477.643-7.144.385-10.399-1.135-1.313-.608-2.688-1.295-3.945-2.057-.48-.371-.962-.78-1.48-1.111-.363-.255-.732-.504-1.07-.791-.36-.268-.808-.96-1.277-.976a.456.456 0 0 0-.18-.006c-.46.143-.797.55-1.186.82-.59.52-1.258.934-1.87 1.425-.76.616-1.512 1.191-2.285 1.794-.342.278-.977.61-.68 1.135.005.008.01.01.015.019-.037.286.233.578.41.836.806 1.194 1.971 2.085 2.977 3.099 3.39 3.157 7.086 5.48 11.765 6.076 1.515.247 3.051.13 4.576.014-.339.37-.62.811-.953 1.185-.543.767-1.21 1.433-1.79 2.171-1.825 1.767-3.604 3.646-5.394 5.458-4.332 4.31-8.445 8.841-12.901 13.023-2.778 2.693-5.511 5.434-8.265 8.154-.744.777-1.53 1.51-2.301 2.26-.384.375-.757.765-1.144 1.136a.506.506 0 0 0-.148.345c-.027.08-.04.167-.027.266.032.214.19.374.342.517.683.626 1.337 1.255 1.88 2.017.768 1.024 1.557 2.122 2.375 3.12.225.228.524.39.562.745.098.322.376.42.62.364.55.154 1-.74 1.456-1.038 1.112-1.063 2.187-2.162 3.288-3.237 4.45-4.107 8.644-8.48 12.918-12.768a322.647 322.647 0 0 0 11.543-11.86c1.522-1.715 3.222-3.29 4.652-5.082a40.016 40.016 0 0 0-.082 2.643c.138 2.163.829 4.267 1.602 6.28a25.635 25.635 0 0 0 5.376 8.11c.664.8 1.382 1.411 2.182 2.1.301.224.656.362.903.659.46.342.852-.167 1.104-.515.937-1.024 1.76-2.152 2.733-3.144.36-.435.72-.87 1.059-1.322.185-.145.291-.376.249-.591a.508.508 0 0 0 .042-.515c-.672-1.332-1.954-2.21-2.7-3.521-.258-.573-.602-1.096-.92-1.637-.786-1.441-1.371-3.134-1.85-4.731-.39-2.563-.612-5.177-.197-7.75.503-2.633 1.658-5.085 2.667-7.547Zm-3.858 12.691c.148 1.027.164 1.969.397 3.01.352.989.59 2.013 1.035 2.971.578 1.39 1.33 2.693 2.098 3.98.683 1.027 1.689 1.826 2.309 2.89-1.287 1.52-2.593 3.043-3.896 4.563-.482-.246-.858-.623-1.257-.979-.41-.313-.787-.721-1.123-1.117-.882-.939-1.772-1.878-2.521-2.926-1.71-2.391-3.085-5.087-3.805-7.953-.549-1.658-.66-3.393-.517-5.126.016-.992.186-1.863.424-2.85.056-.146.077-.297.01-.448a.475.475 0 0 0-.325-.292c-.03-.019-.056-.037-.09-.053a.583.583 0 0 0-.694.265c-.818.98-1.515 2.049-2.264 3.076-.365.61-.818 1.093-1.276 1.642a1.301 1.301 0 0 0-.332.459c-.662.698-1.326 1.396-1.978 2.104-5.2 5.689-10.756 11.03-16.163 16.518-3.04 3.173-6.274 6.153-9.422 9.215-.72.687-1.393 1.425-2.134 2.093-.175.149-.337.31-.496.473a2.417 2.417 0 0 0-.564-.587c-.333-.374-.603-.801-.913-1.194-1.03-1.33-1.973-2.743-3.247-3.866.292-.289.578-.58.872-.865 1.962-1.878 3.847-3.831 5.807-5.715 2.695-2.81 5.603-5.405 8.33-8.183 1.992-1.977 3.906-4.026 5.869-6.029 2.666-2.698 5.301-5.423 7.983-8.103.178-.104.347-.271.493-.412.736-.64 1.411-1.35 2.018-2.114-.005.008-.013.016-.019.024.877-.884 1.904-1.704 2.744-2.646a.534.534 0 0 0 .06-.167c.133-.207.12-.464-.13-.682-.182-.212-.505-.188-.791-.13-1.631.085-3.32.281-4.981.215-4.02-.358-7.256-1.847-10.383-4.365a70.227 70.227 0 0 1-4.067-3.773c-.265-.212-.485-.714-.758-1.048.127-.106.252-.215.366-.29.519-.427 1.078-.817 1.597-1.247 1.024-.806 2.073-1.58 3.095-2.388.373.359.736.725 1.165 1.017 1.21.843 2.336 1.785 3.662 2.462 2.26 1.2 4.632 2.293 7.211 2.643 4.356.666 8.826-.43 12.663-2.51a27.061 27.061 0 0 0 4.608-2.837c.11-.087.251-.183.381-.286 1.083.904 2.185 1.804 3.36 2.584.427.38.8.812 1.293 1.11.04.034.069.073.1.113-.895 1.099-1.687 2.272-2.309 3.548-1.101 1.886-1.803 3.98-2.566 6.02-.972 2.603-1.186 5.421-.927 8.178l-.002.008Z"/></g><defs><clipPath id="a"><path fill="#fff" d="M0 0h55v56H0z"/></clipPath></defs></svg>