<svg xmlns="http://www.w3.org/2000/svg" width="56" height="56" fill="none"><g clip-path="url(#a)"><path fill="#D657D9" d="M27.371 26.35a1.146 1.146 0 0 0-1.247.793c-.226.605-.066 1.433.64 1.58.635.012 1.442-.198 1.662-.866.109-.385.058-.805-.21-1.114-.278-.15-.511-.39-.845-.393Z"/><path fill="#D657D9" d="M53.938 27.325c-.274-.06-.555-.023-.833-.028-.2.023-.4.028-.59-.022-.49-.218-.339-.914.137-.97.294-.124.676-.013.99-.094a1.757 1.757 0 0 0 1.07-.744.644.644 0 0 0 .073-.289c.003-.023.008-.043.013-.066a27.094 27.094 0 0 0-3.12-9.98c-.339.171-.68.338-1 .551-.242.147-.442.243-.637.357-.347.253-.865.534-1.139.026-.147-.282.026-.659.337-.722.245-.155.529-.309.774-.443.375-.24.767-.45 1.162-.65-.269-.454-.55-.902-.846-1.338a26.432 26.432 0 0 0-7.955-7.717 2.63 2.63 0 0 1-.4-.028c-1.025-.137-1.28.914-1.673 1.415a1.238 1.238 0 0 1-.19.266c-.232.218-.672.147-.794-.16a.54.54 0 0 1 .091-.582c.02-.04.046-.08.066-.121.048-.124.124-.248.205-.365.207-.504.306-1.112.167-1.64-.043-.092-.101-.175-.154-.264a27.275 27.275 0 0 0-10.997-2.681c0 .62 0 1.24-.003 1.86-.015.378.081.9-.342 1.084a.514.514 0 0 1-.71-.466c.088-.82.03-1.66.04-2.491a26.363 26.363 0 0 0-8.604 1.506c-.91.317-1.791.68-2.644 1.082-.306.314-.28.757-.37 1.162-.055.23-.02.448.056.658.185.32.512.62.494 1.013a.503.503 0 0 1-.476.433c-.002 0-.007 0-.01.002l-.015.003a.502.502 0 0 1-.445-.096.52.52 0 0 1-.178-.32 3.307 3.307 0 0 0-1.13-1.09c-.261-.168-.537-.18-.836-.142h-.033a26.947 26.947 0 0 0-8.618 8.9c.567.258 1.129.541 1.642.89.534.388-.045 1.201-.587.826-.4-.288-.858-.473-1.283-.719a1.572 1.572 0 0 1-.276-.116A27.203 27.203 0 0 0 1.083 26.1c.114.276.202.587.362.77.255.283.655.417 1.012.529.397.045.972.04.982.574a.45.45 0 0 1-.086.279.495.495 0 0 1-.516.367h-.03c-.049-.008-.097-.013-.143-.018-.458.066-.908.228-1.22.583-.159.167-.245.44-.374.643a26.657 26.657 0 0 0 1.427 6.996 26.044 26.044 0 0 0 1.822 4.132c.198-.137.43-.246.582-.347.484-.24.866-.772 1.427-.803.276 0 .489.276.471.54-.04.453-.595.519-.878.792-.321.253-.67.43-1.015.64a.502.502 0 0 1-.083.062c2.265 3.775 5.435 6.917 9.145 9.183a.673.673 0 0 1 .336.05c.327-.118.668.044.995-.017.544-.091.698-.719 1.057-1.04a.768.768 0 0 1 .44-.325c.271-.045.535.167.57.433a.487.487 0 0 1-.06.307c-.006.017-.01.038-.021.055-.144.185-.218.4-.276.628-.129.593-.174 1.147.322 1.578a.7.7 0 0 1 .076.106 26.44 26.44 0 0 0 10.797 2.178c-.056-.461-.112-.877-.104-1.317 0-.41-.162-.86.038-1.243.235-.41.91-.269.946.207-.055.42.038.874.028 1.294.018.345.066.684.104 1.026.18-.01.362-.016.541-.03a27.02 27.02 0 0 0 9.282-2.305c.144-.23.352-.43.518-.635.34-.628-.232-1.228-.425-1.81a.505.505 0 0 1-.017-.21.999.999 0 0 1-.038-.1.51.51 0 0 1 .374-.61.475.475 0 0 1 .476.15c.121.06.218.17.258.308.37.836 1.02 1.317 1.951 1.158a.463.463 0 0 1 .157.002 27.055 27.055 0 0 0 9.258-9.85c-.45-.285-.936-.508-1.379-.802-.172-.121-.377-.192-.546-.316-.316-.244-.243-.765.137-.9.26-.133.473.067.678.196.518.326 1.063.607 1.589.926a27.064 27.064 0 0 0 2.907-12.097c-.207-.37-.62-.59-1.014-.692h.015Zm-17.41 6.748.059.03c-2.09-1.24-4.17-2.504-6.205-3.84-.534-.332-.974-.674-1.49-.973-.412.42-.98.689-1.67.65-.777.01-1.688-.217-2.116-.923-.47-1.056-.38-2.49.537-3.28.202-.174.473-.326.772-.435a84.51 84.51 0 0 0 .136-2.111c.124-1.53.097-3.064.14-4.596.098-2.084.007-4.18.28-6.254.061-.43.243-1.04.73-1.152.32-.073.604.142.692.44.481 2.115.248 4.323.23 6.475.003 2.025-.235 4.043-.354 6.064-.06.372-.053.757-.083 1.134 1.22.37 1.624 1.532 1.417 2.603.23.073.428.273.63.403.911.65 1.888 1.207 2.857 1.772 1.174.64 2.333 1.31 3.428 2.081.504.37 1.164.707 1.357 1.345.111.878-.752.97-1.351.57l.005-.003Z"/><path fill="#000" d="M36.52 32.159c-1.093-.772-2.254-1.44-3.428-2.081-.97-.563-1.946-1.12-2.857-1.773-.202-.129-.4-.329-.63-.402.21-1.072-.197-2.234-1.417-2.603.028-.378.023-.76.084-1.135.119-2.02.356-4.038.354-6.064.017-2.152.253-4.357-.23-6.474-.091-.299-.375-.517-.694-.44-.486.11-.668.721-.729 1.151-.273 2.072-.182 4.17-.28 6.254-.04 1.532-.016 3.067-.14 4.596-.038.704-.08 1.408-.136 2.112a2.54 2.54 0 0 0-.772.435c-.918.79-1.007 2.223-.536 3.28.427.706 1.338.933 2.115.923.69.036 1.258-.23 1.67-.65.516.296.957.64 1.49.972 2.035 1.337 4.115 2.6 6.205 3.84l-.058-.03c.6.4 1.46.31 1.351-.57-.192-.637-.853-.974-1.356-1.344l-.005.003Zm-8.097-4.304c-.22.668-1.03.878-1.662.865-.706-.146-.866-.974-.64-1.58.17-.534.69-.866 1.247-.792.334.003.567.243.845.392.266.31.32.73.21 1.115Z"/><path fill="#000" d="M55.955 27.788c-.104-9.251-4.806-18.182-12.832-23.342a.496.496 0 0 0-.435-.273 27.719 27.719 0 0 0-5.468-2.598c-7.19-2.542-14.77-1.9-21.2 1.152a.501.501 0 0 0-.26.127C9.043 6.127 3.615 12.04 1.27 19.695a27.403 27.403 0 0 0-1.179 6.05c-.121.151-.101.328-.038.513-.827 13.377 8.237 26.11 21.9 29.072 5.917 1.355 12.058.608 17.455-1.81a.464.464 0 0 0 .31-.142c5.13-2.372 9.566-6.261 12.449-11.305a27.583 27.583 0 0 0 3.79-13.88.489.489 0 0 0 .018-.367c-.005-.013-.013-.026-.018-.036l-.002-.003Zm-3.91 12.326c-.524-.319-1.068-.6-1.589-.926-.205-.127-.417-.327-.678-.195-.38.134-.453.655-.137.898.17.122.377.193.547.317.443.296.928.519 1.379.803a27.075 27.075 0 0 1-9.259 9.849.41.41 0 0 0-.157-.002c-.93.159-1.581-.325-1.95-1.158a.5.5 0 0 0-.259-.309.485.485 0 0 0-.475-.149.513.513 0 0 0-.375.61c.008.03.02.064.038.099a.465.465 0 0 0 .018.21c.192.58.764 1.183.425 1.81-.167.206-.377.406-.519.636a27.033 27.033 0 0 1-9.281 2.304c-.183.013-.362.02-.542.03-.04-.341-.088-.68-.104-1.025.01-.418-.083-.873-.027-1.294-.038-.476-.711-.617-.947-.207-.2.382-.038.833-.038 1.243-.007.44.048.856.104 1.316a26.44 26.44 0 0 1-10.797-2.177.491.491 0 0 0-.076-.106c-.496-.428-.45-.983-.321-1.578.058-.228.134-.443.275-.628.008-.017.013-.038.02-.055a.484.484 0 0 0 .061-.307c-.035-.266-.298-.48-.569-.433a.76.76 0 0 0-.44.324c-.36.322-.514.947-1.058 1.041-.324.06-.665-.101-.994.018a.676.676 0 0 0-.337-.05c-3.71-2.265-6.88-5.407-9.145-9.184a.863.863 0 0 0 .084-.061c.341-.208.693-.388 1.014-.64.284-.274.84-.343.878-.793.018-.264-.194-.54-.47-.54-.562.03-.947.563-1.427.803-.15.101-.385.21-.582.347a26.149 26.149 0 0 1-1.822-4.132 26.658 26.658 0 0 1-1.427-6.996c.129-.203.215-.476.374-.643.311-.355.762-.517 1.22-.583.048.008.096.01.142.018h.03a.495.495 0 0 0 .516-.367.45.45 0 0 0 .086-.279c-.01-.534-.587-.531-.982-.574-.356-.112-.756-.246-1.012-.53-.16-.182-.25-.493-.362-.77a27.254 27.254 0 0 1 3.285-11.084c.093.05.187.088.276.116.425.246.885.43 1.282.72.542.376 1.121-.436.588-.826-.514-.352-1.076-.636-1.643-.892a26.924 26.924 0 0 1 8.619-8.9h.033c.298-.037.574-.025.835.142.44.254.857.646 1.13 1.092a.52.52 0 0 0 .178.319.502.502 0 0 0 .445.096l.015-.003c.003 0 .008 0 .01-.002.23-.018.448-.182.476-.433.018-.39-.308-.691-.493-1.013a1.12 1.12 0 0 1-.056-.658c.086-.403.064-.848.37-1.162a27.014 27.014 0 0 1 2.644-1.082 26.363 26.363 0 0 1 8.603-1.506c-.01.83.048 1.668-.04 2.491-.008.357.387.613.71.466.423-.185.33-.706.342-1.083 0-.62.005-1.241.003-1.861a27.318 27.318 0 0 1 10.997 2.68c.053.087.114.173.154.264.137.532.04 1.14-.167 1.641-.08.116-.157.24-.205.365-.022.04-.045.078-.065.121a.53.53 0 0 0-.091.582c.123.307.561.378.794.16.076-.079.137-.172.19-.266.392-.501.648-1.552 1.672-1.415.132.02.266.028.4.028a26.432 26.432 0 0 1 7.956 7.717c.293.438.574.884.845 1.337-.397.2-.787.41-1.162.65-.245.135-.528.287-.774.444-.311.063-.483.44-.336.721.273.507.792.228 1.138-.025.195-.111.395-.207.638-.357.316-.213.66-.38 1-.552a27.078 27.078 0 0 1 3.12 9.981.515.515 0 0 0-.013.066c0 .104-.03.195-.074.289a1.774 1.774 0 0 1-1.07.744c-.314.081-.696-.03-.99.094-.475.055-.627.752-.136.97.19.053.39.045.59.022.275.005.559-.033.832.028.395.102.807.322 1.015.691a27.023 27.023 0 0 1-2.908 12.098h-.015Z"/></g><defs><clipPath id="a"><path fill="#fff" d="M0 0h56v56H0z"/></clipPath></defs></svg>