<svg xmlns="http://www.w3.org/2000/svg" width="47" height="56" fill="none"><g clip-path="url(#a)"><path fill="#D657D9" d="M23.499 23.699c6.597-.074 11.77-6.63 8.991-12.976-3.3-7.397-14.248-7.76-18.146-.734-3.63 6.692 2.002 13.97 9.155 13.712V23.7Zm-6.395-9.71c.03-.897.272-1.799.753-2.645a5.843 5.843 0 0 1 1.38-1.677l.045-.038a5.79 5.79 0 0 1 .493-.378l.025-.017c.126-.086.252-.167.383-.243.028-.018.055-.033.086-.051.103-.058.206-.112.312-.162l.169-.084c.065-.03.133-.058.2-.086.097-.04.19-.079.285-.114.005 0 .013-.005.018-.005a6.801 6.801 0 0 1 3.16-.34c.028.003.058.008.085.01.106.016.212.034.318.054.063.012.128.023.191.038.076.015.149.033.224.05a5.393 5.393 0 0 1 .423.117c.126.038.252.081.375.13.018.007.036.012.05.02 1.038.397 1.975 1.038 2.685 1.902.02.023.04.045.06.07.028.036.053.074.08.112a5.758 5.758 0 0 1 1.07 2.341c.02.089.038.177.056.266l.008.058c.02.13.043.259.055.39a5.8 5.8 0 0 1-.018 1.275c.076.235-.012.466-.128.689a5.837 5.837 0 0 1-1.015 2.097c-1.518 2.014-4.26 3.108-6.853 2.465a6.307 6.307 0 0 1-3.1-1.657 5.741 5.741 0 0 1-1.377-1.94c-.128-.213-.204-.5-.27-.76a4.502 4.502 0 0 1-.077-.317 1.044 1.044 0 0 0-.033-.106 5.4 5.4 0 0 1-.118-1.467v.003Z"/><path fill="#FFC2E8" d="M2.727 52.233c1.488-1.039 2.918-2.15 4.527-2.99 2.5-4.387 4.902-8.752 7.068-13.306.664-1.391 1.384-2.756 1.986-4.178.46-1.137.889-2.254 1.42-3.328.335-.543.617-1.11.894-1.68-.164-1.576-1.226-3.01-2.687-3.602-.828-.456-1.845-.388-2.681-.003a1.171 1.171 0 0 1-.176.094c-.058.099-.116.198-.182.294-1.6 3.65-3.419 7.202-5.385 10.667-2.118 4.145-4.233 8.29-6.29 12.464.023 1.654.078 3.258-.118 4.887.02.562.03 1.132-.015 1.694.544-.342 1.072-.704 1.636-1.01l.003-.003ZM29.094 24.788c-.297.41-.514.9-.57 1.408.018.107.003.32-.02.395-.037.261 0 .421-.05.652.073.144.146.29.214.44.735 1.569 1.594 3.068 2.332 4.634.843 1.743 1.626 3.513 2.482 5.251 1.347 2.916 2.959 5.662 4.326 8.555a205.637 205.637 0 0 1 1.687 3.422c1.45 1.014 2.686 2.316 4.152 3.299.705.537 1.455 1.015 2.145 1.57.015-2.247-.013-4.595.206-6.779-3.228-6.63-6.31-13.375-9.902-19.805-.778-1.31-1.425-2.688-2.095-4.055-.108-.049-.21-.112-.328-.132-1.59-.37-3.386-.033-4.577 1.145h-.002Z"/><path fill="#000" d="M17.257 15.562c.023.106.05.21.078.316.063.261.141.548.27.76.31.715.765 1.376 1.377 1.94.008.008.015.011.02.019a6.317 6.317 0 0 0 3.08 1.639c2.593.643 5.335-.451 6.853-2.465a.615.615 0 0 0 .085-.112 5.885 5.885 0 0 0 .93-1.986c.115-.225.203-.453.128-.689.05-.41.06-.836.018-1.274-.013-.134-.036-.261-.056-.39l-.007-.058c-.016-.092-.036-.178-.056-.266a5.724 5.724 0 0 0-1.07-2.341c-.028-.036-.053-.074-.08-.112a1.72 1.72 0 0 0-.06-.07c-.71-.864-1.648-1.505-2.685-1.903l-.05-.02a9.377 9.377 0 0 0-.375-.13c-.046-.012-.088-.027-.134-.04a5.406 5.406 0 0 0-.29-.076 5.823 5.823 0 0 0-.223-.05l-.192-.039a6.897 6.897 0 0 0-.317-.053c-.028-.005-.058-.007-.086-.01a6.801 6.801 0 0 0-3.16.34c-.005 0-.012.005-.017.005-.096.035-.191.076-.285.114a4.825 4.825 0 0 0-.201.086c-.058.025-.113.055-.169.083-.105.05-.209.107-.312.162l-.086.051c-.13.076-.256.157-.382.243l-.026.018a6.383 6.383 0 0 0-.637.502 5.79 5.79 0 0 0-1.281 1.59 5.717 5.717 0 0 0-.753 2.645c-.025.494.013.988.118 1.467.01.033.02.068.033.106v-.002Zm1.103-2.84.015-.046c.025-.08.058-.16.088-.238a5.417 5.417 0 0 1 1.49-2.042c.066-.05.134-.1.195-.157.08-.063.163-.124.249-.182 1.312-.869 2.986-1.145 4.527-.806 1.256.304 2.41 1.014 3.188 2.024.01.016.022.028.032.044l.046.065c.067.1.136.198.198.302.262.425.449.861.567 1.3a4.959 4.959 0 0 1 .128 1.808c-.007.053-.012.107-.022.16a2.554 2.554 0 0 1-.302.876c-.187.408-.376.816-.562 1.224-.96 1.368-2.576 2.32-4.419 2.336-2.555.134-4.882-1.622-5.514-3.922-.015-.058-.03-.117-.043-.175a5.084 5.084 0 0 1 .142-2.568l-.003-.003Z"/><path fill="#000" d="M.31 54.43c.287.288.69.02 1-.147.704-.39 1.273-.829 1.996-1.219 1.49-1.044 2.93-2.156 4.55-3 .254-.154.277-.361.448-.622.46-.844.944-1.718 1.465-2.597 2.384-4.172 4.505-8.486 6.61-12.806.71-1.484 1.309-2.986 1.94-4.519.3-.714.784-1.332 1.083-2.047.36-.788.695-1.588 1.209-2.29.11-.192.302-.428.42-.666 1.64.327 3.299.271 4.865-.109.098.25.267.491.345.745.599 1.373 1.417 2.627 2.024 3.997 1.8 3.41 3.371 6.934 5.048 10.407 1.745 3.372 3.53 6.771 5.17 10.209.15.52.646.73 1.024 1.056.864.623 1.601 1.396 2.46 2.03 1.36 1.048 2.782 2.006 4.132 3.06.221.16.543.1.702-.125.149-.233.108-.418-.015-.577-.045-1.29.096-2.579.04-3.868.02-.993.028-1.99.098-2.98.028-.4.184-.833-.04-1.2-1.115-2.154-2.075-4.4-3.147-6.577-2.47-5.122-5.023-10.201-7.83-15.161-.705-1.495-1.408-2.99-2.216-4.433-.27-.537-.45-1.11-.678-1.667a.738.738 0 0 0-.042-.127c.98-1.717 1.463-3.75 1.223-5.97-.571-4.885-4.305-8.153-8.606-9.057.005-.226-.04-.466-.042-.676-.078-.852-.139-1.66-.514-2.486-.43-1.023-1.866-1.428-2.55-.43-.567 1.036-.56 2.264-.683 3.415a11.016 11.016 0 0 0-5.234 2.034c-4.79 3.475-5.414 9.292-2.838 13.525a.513.513 0 0 0-.113.197c-.247.464-.491.93-.688 1.417-.307.878-.82 1.654-1.21 2.492-1.486 3.501-3.289 6.825-5.14 10.15-1.387 2.76-2.827 5.495-4.197 8.264-.702 1.419-1.425 2.833-2.11 4.259a.906.906 0 0 0-.05.456c.018.91-.01 1.819.02 2.728.025.562-.065 1.117-.13 1.675-.031.73.042 1.464-.046 2.193-.055.395-.199.882.244 1.047H.31Zm33.358-30.785c.118.02.222.084.328.132.67 1.366 1.316 2.746 2.094 4.056 3.593 6.43 6.675 13.175 9.903 19.805-.22 2.184-.192 4.53-.207 6.779-.69-.557-1.44-1.034-2.145-1.57-1.468-.986-2.704-2.286-4.152-3.299a171.435 171.435 0 0 0-1.687-3.422c-1.367-2.893-2.978-5.64-4.325-8.555-.856-1.738-1.637-3.509-2.483-5.252-.738-1.565-1.596-3.067-2.331-4.633-.068-.15-.139-.294-.214-.44.05-.231.015-.39.05-.652.023-.076.035-.289.02-.395.058-.51.272-.996.57-1.408 1.19-1.176 2.985-1.513 4.577-1.146h.002ZM14.344 9.986c3.897-7.022 14.845-6.662 18.146.735 2.78 6.346-2.395 12.904-8.991 12.975-7.153.261-12.786-7.02-9.155-13.712v.002ZM1.105 51.55c.194-1.629.141-3.235.119-4.886 2.057-4.173 4.172-8.32 6.29-12.464 1.966-3.468 3.78-7.02 5.385-10.667.063-.097.123-.195.181-.294a.84.84 0 0 0 .176-.094c.836-.385 1.853-.453 2.682.003 1.457.592 2.52 2.026 2.686 3.602-.277.57-.561 1.14-.894 1.68-.53 1.073-.959 2.19-1.42 3.328-.601 1.421-1.321 2.784-1.986 4.177-2.163 4.555-4.567 8.92-7.068 13.308-1.606.84-3.039 1.953-4.527 2.989-.564.306-1.092.669-1.636 1.01.043-.564.032-1.132.015-1.694l-.003.002Z"/></g><defs><clipPath id="a"><path fill="#fff" d="M0 0h47v56H0z"/></clipPath></defs></svg>