<svg xmlns="http://www.w3.org/2000/svg" width="59" height="56" fill="none"><g clip-path="url(#a)"><path fill="#D657D9" d="M15.1 34.932c-.662-.094-1.15.412-1.183 1.024.249.322.568.587.9.82.592-.392.928-1.413.286-1.844H15.1Z"/><path fill="#FFC2E8" d="M23.209 20.014c.605.457 1.425.493 2.114.791 1.425.146 2.588.545 4.043.545 1.448-.181 2.947.007 4.339-.522.766-.45.981-1.313 1.166-2.1.31-3.395.689-6.803.521-10.214-.165-1.621-.356-3.255-.726-4.847-.585-.953-1.452-1.965-2.702-1.945-.575-.04-1.143-.201-1.714-.201a.804.804 0 0 1-.655.123c-.925-.214-2.037.237-2.971.389-.515.143-1.042.039-1.563.03-.444.126-.888.356-1.167.719a8.038 8.038 0 0 0-.584 3.307c-.06 1.109-.141 2.214-.192 3.326a82.008 82.008 0 0 1-.235 3.275c.013 2.085.124 4.166.128 6.251.05.357.053.746.201 1.077l-.003-.004Z"/><path fill="#D657D9" d="M57.357 22.968a41.579 41.579 0 0 0-.41-3.213c-.669-3.563-7.273-3.858-10.268-4.338-2.493-.292-5.02-.879-7.528-.383-.638.146-1.33.25-1.879.623a.795.795 0 0 1-.366.285c-.08.947-.178 1.894-.289 2.837-.107 1.81-.776 3.307-2.793 3.667-.648.191-1.314.23-1.986.285-.75.12-1.499.218-2.252.081-1.19-.022-2.42.036-3.58-.262-1.276-.175-2.799-.292-3.68-1.313-.608-.649-.665-1.563-.877-2.374a11.104 11.104 0 0 1-.208-1.66 1.082 1.082 0 0 1-.107-.308c-.952-1.786-3.381-1.611-5.156-1.53-1.872.11-3.758.078-5.606.425a64.452 64.452 0 0 1-3.438.311c-.75.01-1.512.045-2.228.279-1.042.37-2.205.765-2.565 1.86-.258.62-.376 1.252-.427 1.894l-.03.84c-.003.82.05 1.647.017 2.467a49.884 49.884 0 0 0-.034 3.09c.074 1.806.185 3.612.202 5.421.037 1.028.067 2.056.06 3.087-.124 1.945.051 3.89.034 5.836-.013.532-.04 1.063-.057 1.595v1.618c.007.162.01.321.02.483.172 2.263.68 4.49.935 6.744.514 2.597 1.677 2.321 4.02 2.526 2.745.055 5.504.074 8.243.275 9.986.156 19.977-.074 29.963.104 1.549.02 3.091-.052 4.64-.11 1.302.078 2.595.026 3.832-.415 3.966-1.073 3.405-5.79 3.452-8.92-.078-1.754.238-3.488.198-5.242.064-1.887.158-3.784.239-5.68a66.609 66.609 0 0 1-.037-2.591c-.03-2.766.043-5.532-.057-8.297l.003.003Zm-50.621 7c.517-.62 1.367-.869 2.144-1.06 2.319-.279 4.604-.905 6.954-.85 1.727 0 3.434.496 4.98 1.216.965.399 1.91.866 2.931 1.119.783.142 1.596.065 2.376-.068 1.73-.328 3.156-1.511 4.934-1.709.793-.071 1.566-.117 2.35-.272 1.562-.185 2.963.687 4.27 1.371 1.177.636 2.572.872 3.842.418 1.455-.405 2.803-1.196 4.346-1.28 1.425-.137 2.934.013 4.147.804.336.23.649.554.877.885.427.645-.487 1.443-1.105.947-.44.12-.757-.227-1.049-.483-2.006-1.755-4.984.541-7.26.69-2.278.717-4.56-.577-6.678-1.264-.76-.24-1.364-.344-2.124-.422-.668.292-1.146.535-1.747.853-1.425.804-3.089 1.277-4.729 1.397-1.361 0-2.742-.103-3.993-.668-.907-.43-1.825-.96-2.79-1.228-2.916-1.11-5.676-.678-8.596.136-1.25.33-2.202 1.264-3.512 1.09-.763-.143-1.062-1.067-.568-1.635v.013Zm43.936 16.63c-1.489 1.32-3.898 1.958-5.908 1.656a8.33 8.33 0 0 1-1.16-.266 7.154 7.154 0 0 1-.625-.227c-.961.419-2.053.302-3.065.17-.622.048-1.267.048-1.875-.101-.982-.227-1.768-.856-2.52-1.472-2.461-1.278-4.857-2.724-7.764-1.829-2.67.973-5.19 3.031-8.198 2.633-1.152-.182-2.261-.62-3.31-1.103-1.428-.784-2.884-1.611-4.57-1.692-.939-.02-1.91.029-2.757.45-.622.29-1.112.801-1.771 1.022-.504.181-1.102-.182-1.096-.717.125-.985 1.1-1.627 1.93-2.078 1.203-.668 2.688-.639 4.016-.383 1.337.344 2.645.837 3.851 1.495.817.444 1.734.947 2.629 1.19 2.655.976 5.192-.525 7.44-1.757 2.276-1.135 5.052-.999 7.401-.133 1.432.5 2.611 1.51 3.942 2.185.545.276 1.042.496 1.644.6.675.217 1.358.279 2.023-.01-.464-.606-.716-1.407-.652-2.162.034-.302.205-.578.393-.82.078-.302.192-.578.39-.83.703-.818 1.93-1.174 3.001-1.113 1.049.133 2.004.983 2.232 1.981-.023 1.232-.793 2.39-1.633 3.278 1.102.046 2.241.055 3.303-.269.4-.136.8-.289 1.19-.45.198-.143.35-.276.588-.296.659-.262 1.304.506.931 1.047Zm-.863-6.686c-.66.03-1.254-.321-1.698-.613-.548-.324-1.109-.677-1.727-.865a5.797 5.797 0 0 0-1.771.055c-1.167.256-2.232.797-3.368 1.14a7.904 7.904 0 0 1-3.26.238c-2.991-.386-5.727-2.007-8.648-2.614-.947-.178-1.925-.356-2.846.017-1.049.48-2.067 1.018-3.166 1.397-2.679.872-5.724 1.015-8.392.026-1.287.503-2.608.869-4.006.746-1.23-.091-2.484-.143-3.674-.483-.571-.234-1.348-.386-1.122-1.17-.541-.513.003-1.418.736-1.217.35.16.722.24 1.099.318 1.69.311 3.377.613 5.078.415-1.684-2.357.04-4.069 2.702-3.907 2.09.25 2.164 2.902.857 4.082 3.011.652 3.57.493 6.258-.846 4.709-2.04 7.048-.914 11.508.668 1.889.55 4.006 1.164 5.945.525 1.415-.48 2.722-1.271 4.235-1.443 1.445-.185 2.924-.12 4.325.279a6.104 6.104 0 0 1 1.674.72c1.287.833.874 2.519-.74 2.526v.006Z"/><path fill="#D657D9" d="M41.977 43.91c-.057.541-.124 1.235.313 1.647.806-.422 1.885-1.067 1.905-2.04-.53-.862-1.687-.103-2.218.396v-.003Z"/><path fill="#000" d="M58.788 23.088c-.05-1.611-.16-3.223-.413-4.821-.427-3.22-2.934-3.54-5.713-3.978-1.53-.12-2.85-.594-4.4-.775-3.717-.438-7.484-.418-11.218-.25H37c.104-1.987.128-3.981.044-5.969-.202-2.098-.46-4.357-1.91-6.037-.86-.85-2.17-.995-3.337-1.135-.92-.194-1.912-.013-2.843-.12-1.532.02-3.102.007-4.604.331-2.622.279-2.985 2.85-2.958 4.931-.077 1.764-.02 3.531-.128 5.292-.053 1.047-.047 2.098-.063 3.145-.652-.023-1.301-.104-1.95-.136-1.435 0-2.877.029-4.308.155-2.303.013-4.615-.013-6.91.201-1.116.153-2.232-.003-3.344.046-1.436.301-2.857 1.063-3.828 2.136-.579.827-.555 1.887-.67 2.844-.043.434-.063.869-.08 1.303-.01.195-.017.386-.02.574 0 .081-.007.162-.007.24-.12 1.81-.094 3.618-.02 5.424-.003.46-.007.921-.007 1.381.064 1.18.141 2.36.195 3.544.027 1.611.027 3.226.024 4.838v.194c0 1.469-.007 2.938.017 4.406.013.386.02.772.023 1.158-.023.697-.04 1.394-.013 2.091-.04 2.364-.111 4.73.232 7.075.188 1.656 1.048 3.398 2.678 4.124 1.018.37 2.134.428 3.213.499 1.183 0 2.356-.175 3.532-.272 3.307-.088 6.618.146 9.925.223 5.314.01 10.624.065 15.934.227 4.557.056 9.115-.087 13.669.004 1.962.038 3.992.006 5.905-.467 1.804-.652 2.6-2.552 3.125-4.206.612-2.895.333-5.894.417-8.835.07-2.953 0-5.904-.057-8.857.165-3.512.185-7.033-.094-10.538l.006.01ZM23.248 9.412c.053-1.112.134-2.217.19-3.326a7.975 7.975 0 0 1 .586-3.307c.282-.363.722-.594 1.166-.72.52.01 1.048.113 1.563-.03.93-.152 2.046-.602 2.97-.388.23.055.471.013.656-.124.571 0 1.14.163 1.714.201 1.25-.019 2.117.993 2.702 1.946.37 1.592.561 3.226.726 4.847.168 3.414-.212 6.822-.52 10.213-.186.791-.4 1.65-1.167 2.101-1.391.529-2.887.34-4.339.522-1.455 0-2.618-.399-4.043-.545-.686-.298-1.509-.334-2.114-.79-.145-.332-.148-.72-.202-1.077-.003-2.085-.114-4.166-.127-6.251.104-1.09.174-2.182.235-3.275l.003.003ZM57.124 39.54c.04 1.754-.28 3.489-.199 5.243-.05 3.129.511 7.846-3.451 8.92-1.237.44-2.53.489-3.831.414-1.547.059-3.093.13-4.642.11-9.985-.178-19.977.05-29.962-.103-2.74-.201-5.498-.22-8.244-.276-2.343-.2-3.506.075-4.02-2.526-.255-2.253-.763-4.477-.934-6.743-.014-.163-.014-.321-.02-.484v-1.617c.017-.532.04-1.064.057-1.595.017-1.946-.161-3.891-.034-5.837a72.633 72.633 0 0 0-.06-3.086c-.017-1.81-.128-3.615-.202-5.421a49.884 49.884 0 0 1 .034-3.09c.033-.82-.02-1.647-.017-2.467l.03-.84c.05-.642.168-1.274.427-1.894.36-1.096 1.52-1.491 2.564-1.86.716-.234 1.48-.273 2.229-.28a63.825 63.825 0 0 0 3.438-.31c1.848-.348 3.73-.315 5.606-.426 1.774-.08 4.208-.256 5.155 1.53.024.12.06.221.108.309.03.554.09 1.109.208 1.66.212.814.269 1.728.877 2.373.88 1.025 2.403 1.138 3.68 1.313 1.16.295 2.39.24 3.58.263.753.136 1.502.039 2.252-.081.668-.052 1.337-.094 1.986-.285 2.016-.36 2.689-1.858 2.793-3.667.11-.944.208-1.89.289-2.837a.84.84 0 0 0 .366-.286c.545-.373 1.24-.476 1.879-.622 2.507-.496 5.034.09 7.528.382 2.995.48 9.602.775 10.268 4.339.181 1.066.312 2.14.41 3.213.1 2.762.027 5.53.057 8.296-.007.866.013 1.729.037 2.591-.078 1.9-.175 3.794-.239 5.68l-.003-.003Z"/><path fill="#000" d="M7.212 31.599c1.31.175 2.262-.759 3.512-1.09 2.918-.813 5.68-1.244 8.597-.136.965.27 1.882.798 2.79 1.23 1.25.563 2.628.667 3.993.667 1.64-.12 3.303-.593 4.728-1.397a21.502 21.502 0 0 1 1.748-.853c.76.078 1.364.178 2.124.421 2.117.684 4.396 1.978 6.678 1.265 2.275-.15 5.253-2.445 7.26-.69.292.256.611.606 1.048.482.622.496 1.533-.301 1.106-.946a3.545 3.545 0 0 0-.877-.886c-1.214-.79-2.723-.936-4.148-.803-1.542.084-2.89.872-4.345 1.28-1.27.454-2.665.214-3.842-.418-1.307-.684-2.709-1.556-4.271-1.372-.783.156-1.556.201-2.35.273-1.774.198-3.203 1.381-4.933 1.708-.78.133-1.593.211-2.377.069-1.021-.25-1.966-.72-2.93-1.119-1.546-.723-3.253-1.216-4.98-1.216-2.354-.055-4.636.57-6.955.85-.773.188-1.623.437-2.144 1.06-.494.567-.195 1.488.568 1.634v-.013ZM50.453 37.383a6.102 6.102 0 0 0-1.673-.72c-1.405-.398-2.88-.463-4.326-.279-1.515.172-2.82.96-4.234 1.443-1.94.639-4.057.026-5.946-.525-4.46-1.582-6.799-2.71-11.507-.668-2.692 1.34-3.247 1.495-6.258.846 1.307-1.18 1.233-3.832-.857-4.082-2.659-.162-4.386 1.55-2.702 3.907-1.701.198-3.388-.103-5.079-.415-.376-.078-.75-.159-1.099-.318-.732-.2-1.277.704-.736 1.216-.225.785.551.937 1.123 1.17 1.186.341 2.44.393 3.673.484 1.398.123 2.72-.243 4.006-.746 2.666.989 5.71.846 8.393-.026 1.098-.38 2.117-.92 3.165-1.397.921-.373 1.9-.195 2.847-.016 2.924.606 5.66 2.227 8.648 2.613a8.016 8.016 0 0 0 3.26-.237c1.136-.347 2.201-.888 3.367-1.141a5.897 5.897 0 0 1 1.771-.055c.615.188 1.177.541 1.728.865.44.292 1.035.642 1.697.613 1.61-.01 2.023-1.692.74-2.526v-.006Zm-35.638-.606a4.176 4.176 0 0 1-.9-.82c.033-.613.52-1.12 1.182-1.025.646.431.306 1.452-.285 1.845h.003ZM49.65 45.547c-.239.02-.39.156-.588.295-.39.162-.79.315-1.19.45-1.062.328-2.201.315-3.304.27.84-.889 1.61-2.046 1.634-3.278-.229-.995-1.183-1.845-2.232-1.981-1.075-.062-2.299.298-3.001 1.112-.195.25-.31.525-.39.83-.188.243-.36.519-.393.82-.064.756.188 1.553.652 2.163-.67.288-1.348.227-2.023.01-.602-.104-1.1-.321-1.644-.6-1.33-.675-2.507-1.686-3.942-2.185-2.35-.866-5.126-1.002-7.4.132-2.25 1.233-4.787 2.734-7.442 1.758-.894-.244-1.811-.746-2.628-1.19a16.71 16.71 0 0 0-3.852-1.495c-1.324-.253-2.81-.282-4.016.383-.833.454-1.805 1.096-1.929 2.078-.01.535.592.898 1.096.717.658-.218 1.146-.733 1.77-1.022.848-.421 1.82-.47 2.757-.45 1.687.08 3.145.907 4.57 1.692 1.05.483 2.158.92 3.311 1.102 3.008.4 5.529-1.66 8.197-2.632 2.907-.895 5.304.55 7.764 1.828.753.616 1.539 1.249 2.52 1.472.609.146 1.254.15 1.876.1 1.011.137 2.104.254 3.065-.168.205.084.413.16.625.227.38.117.766.201 1.16.266 2.01.302 4.419-.337 5.908-1.657.373-.541-.269-1.313-.931-1.047Zm-7.36.01c-.434-.409-.37-1.103-.313-1.647.531-.5 1.687-1.255 2.218-.396-.023.973-1.102 1.618-1.905 2.04v.003Z"/></g><defs><clipPath id="a"><path fill="#fff" d="M0 0h59v56H0z"/></clipPath></defs></svg>