<svg xmlns="http://www.w3.org/2000/svg" width="71" height="70" fill="none"><g clip-path="url(#a)"><path fill="#D657D9" d="M54.105 7.49c-1.185-.787-2.52-1.298-3.822-1.84-1.347-.585-2.717-1.13-4.154-1.455-1.959-.459-3.842-1.19-5.8-1.638-1.975-.316-3.977-.537-5.979-.534-2.23-.158-4.576.519-6.669.99-1.824.335-3.545.763-5.31 1.178-1.453.455-2.823 1.558-4.099 2.294-2.369 1.626-4.71 3.437-6.827 5.347-3.072 2.39-5.492 5.664-6.973 9.26-1.054 3.263-2.093 6.566-2.326 10.01-.28 5.115-.304 10.34 1.288 15.264 1.89 4.873 4.777 9.314 8.52 12.961.956 1.013 1.896 1.99 2.86 2.84 1.192 1.017 2.503 1.768 3.746 2.686 2.326 1.566 5.058 2.357 7.747 3.03 2.27.688 4.537 1.265 6.898 1.083 7.886-.083 17.615-3.275 23.917-8.013 3.127-2.646 5.445-6.048 7.304-9.663 2.784-5.031 4.482-10.545 4.533-16.288.403-5.656-2.25-10.794-4.97-15.544-1.604-2.717-3.152-5.474-5.197-7.863-1.414-1.523-3.02-2.867-4.683-4.113l-.004.008ZM36.676 38.93a109.218 109.218 0 0 1-.458 9.164c-.146 1.396.292 6.111-2.23 4.873-1.37-1.297-.89-5.15-.98-6.989.134-4.635.257-9.283.245-13.918.02-.36.245-.712.6-.823.34-.352.877-.356 1.303-.19 1.11.293 1.31 1.198 1.433 2.211.225 1.879.174 3.785.087 5.668v.004Zm-.268-15.489c-.636.578-1.552 1.088-2.42.775-.85-.364-1.647-1.17-1.37-2.167.189-1.104 1.16-2.223 2.356-2.084 1.517.249 2.555 2.25 1.434 3.476Z"/><path fill="#000" d="M52.258 5.017C47.724 2.462 42.665.724 37.48.186c-3.968-.349-8.168-.322-11.939 1.064-1.428.794-3.043 1.29-4.518 2.068-2.31 1.176-4.641 2.423-6.7 4.018-1.933 1.103-3.543 2.52-5.1 4.107C7.56 13.1 5.962 14.885 4.8 16.937 2.895 20.56 1.285 24.354.584 28.41c-.74 4.475-.844 9.291.1 13.762.988 4.565 2.668 9.09 5.312 12.977 1.22 1.73 2.416 3.484 3.856 5.04 1.556 1.495 3.143 2.973 4.909 4.228 5.152 3.491 11.4 5.3 17.59 5.586a41.548 41.548 0 0 0 13.639-2.362c2.718-1.03 5.517-1.95 8.06-3.371 3.26-2.045 6.175-4.662 8.71-7.546 2.462-2.884 4.255-6.314 5.497-9.887 4.634-11.896.446-25.709-7.727-35.042-2.45-2.602-5.129-5.018-8.272-6.771v-.008ZM68.14 34.891c-.05 5.622-1.715 11.018-4.444 15.942-1.823 3.535-4.096 6.868-7.162 9.458-6.182 4.638-15.717 7.762-23.448 7.843-2.315.178-4.537-.387-6.763-1.06-2.636-.663-5.319-1.437-7.595-2.966-1.22-.898-2.505-1.638-3.674-2.629-.945-.832-1.866-1.788-2.803-2.78-3.67-3.569-6.504-7.916-8.354-12.685-1.556-4.82-1.533-9.934-1.262-14.94.228-3.371 1.246-6.604 2.28-9.798 1.452-3.519 3.829-6.724 6.837-9.062 2.075-1.87 4.37-3.647 6.693-5.234 1.25-.724 2.594-1.8 4.018-2.246 1.735-.406 3.419-.824 5.207-1.153 2.052-.46 4.355-1.123 6.539-.968 1.962-.004 3.925.21 5.86.523 1.921.437 3.768 1.153 5.688 1.602 1.409.318 2.748.852 4.072 1.425 1.282.53 2.59 1.03 3.748 1.8 1.63 1.22 3.205 2.532 4.591 4.026 2.005 2.342 3.527 5.037 5.095 7.696 2.667 4.65 5.268 9.682 4.873 15.214l.004-.008Z"/><path fill="#000" d="M35 31.013c-.422-.163-.944-.16-1.277.185-.349.109-.566.45-.589.806.012 4.537-.108 9.082-.24 13.623.09 1.8-.383 5.57.96 6.84 2.474 1.212 2.044-3.403 2.187-4.77.268-2.984.434-5.973.45-8.969.085-1.846.139-3.709-.086-5.547-.116-.991-.317-1.878-1.405-2.164v-.004ZM34.818 20.166c-1.173-.136-2.122.96-2.311 2.04-.267.975.51 1.769 1.343 2.121.852.306 1.75-.194 2.373-.759 1.096-1.2.077-3.163-1.405-3.402Z"/></g><defs><clipPath id="a"><path fill="#fff" d="M0 0h70.182v70H0z"/></clipPath></defs></svg>