<svg xmlns="http://www.w3.org/2000/svg" width="57" height="56" fill="none"><g clip-path="url(#a)"><path fill="#FFC2E8" d="M6.115 54.087c2.537-1.243 5.127-2.423 7.856-3.195 2.13-.609 4.439-.669 6.623-.504 1.42.12 2.794.478 4.115 1 1.206.389 2.348.916 3.453 1.527a4.95 4.95 0 0 1 1.002.595c.483.224.943.509 1.347.846.226.146.467.281.69.44.205-.138.444-.255.593-.407 1.243-.947 2.41-1.989 3.568-3.035-.351-.517-.598-1.102-1.031-1.561-.704-.627-1.344-1.303-2.009-1.97-3.217-3.3-8.076-4.039-12.494-4.41a24.093 24.093 0 0 0-1.365-.044.552.552 0 0 1-.627-.19c-.332-.502.258-.823.606-1.089.791-.624 1.527-1.316 2.26-2.005 2.38-2.231 4.764-4.463 7.12-6.721.162-.19.37-.37.492-.535.276-.358.581-.744.704-1.177.512-1.619-.726-3.438-2.407-3.683-.43-.079-.895-.1-1.323-.003-.632.31-1.236.676-1.892.94-.095.062-.202.135-.316.203-2.035 2.05-4.088 4.075-6.123 6.108-.723.71-1.366 1.363-2.051 2.047 0 .005-.003.013-.006.02-.175.355-.557.57-.828.857-.439.336-.933.892-1.541.783a.562.562 0 0 1-.348-.261c-.231-.206-.26-.603-.194-.846a16.483 16.483 0 0 0-.138-3.834c-.76-4.816-2.819-9.034-6.363-12.46-.465.38-.869.7-1.294 1.11-.757.854-1.623 1.587-2.473 2.344-.14.118-.29.298-.451.457.632.7 1.256 1.929 1.532 2.258 3.215 5.207 4.224 12.007 1.629 17.655a14.05 14.05 0 0 1-2.179 3.362c-.185.204-.374.51-.587.734.024.031.046.065.07.097.313.334.555.608.834.952 1.073 1.31 2.574 2.23 3.551 3.602l-.005-.007Z"/><path fill="#D657D9" d="M29.998 27.935c1.618.979 2.614.545 3.9-.624.107-.112.24-.23.383-.308a52.178 52.178 0 0 0 1.54-1.621c1.648-1.673 3.364-3.349 4.992-5.017 1.106-1.117 2.12-2.362 3.348-3.344.12-.279.358-.509.701-.404a.72.72 0 0 1 .25.164c.146.092.252.25.236.48-.029.196-.114.512-.138.671-.61 3.905 1.75 8.779 3.743 12.091.686 1.464 1.868 2.44 2.742 3.748.258-.159.518-.313.778-.47 1.206-.749 2.232-1.73 3.294-2.633-1.559-2.148-3.302-4.351-3.974-6.944-.59-2.19-.887-4.484-.635-6.742a7.231 7.231 0 0 1 .22-1.91c.072-.522.134-1.05.29-1.556.404-1.733.808-3.53 1.79-5.048.375-.739.617-1.538 1.16-2.188.32-.506.671-.989 1.038-1.464-.367-.428-.869-.676-1.297-1.042-.874-.668-1.729-1.378-2.489-2.176-.087.086-.186.164-.27.237-.617.53-1.228 1.075-1.945 1.477-1.28.804-2.657 1.298-3.99 1.956-2.174.864-4.469 1.443-6.82 1.297a17.422 17.422 0 0 1-6.992-1.608c-1.772-.812-3.42-1.874-4.995-3.002a8.93 8.93 0 0 1-.837-.739c-.132.115-.27.222-.393.34-.542.48-.977 1.06-1.471 1.584a8.24 8.24 0 0 0-1.063 1.08c-.518.445-.972.894-1.443 1.35.226.31.457.619.675.937 2.901 4.297 8.387 6.095 13.461 5.764 1.108-.034 2.194-.25 3.278-.454.25-.021.425.104.51.276.147.165.197.405.027.653a28.59 28.59 0 0 0-3.047 3.062c-1.722 1.511-3.448 3.119-5.146 4.643-.816.833-1.628 1.705-2.436 2.56-.098.173-.218.343-.29.494-.634.919-.624 2.08-.023 3.015.313.616.685 1.183 1.336 1.425l.002-.01Z"/><path fill="#000" d="M4.992 54.316c.398.525.621 1.266 1.437.807.927-.566 1.98-.916 2.954-1.404 3.698-1.739 7.367-2.773 11.506-2.248 1.36.133 2.64.572 3.913 1.068 2.184.757 4.187 1.973 6.038 3.312l-.026-.029c.263.288.65.186.829-.06.39-.167.8-.595 1.105-.767.943-.78 1.875-1.566 2.795-2.38.212-.189.411-.395.632-.577a.538.538 0 0 0 .321-.564l-.002-.01a.5.5 0 0 0 .002-.168c-.053-.303-.26-.527-.417-.777-.194-.314-.353-.64-.566-.943-.38-.577-.959-.979-1.442-1.462a14.638 14.638 0 0 0-3.382-2.915c-3.246-2.005-7.168-2.55-10.94-2.827 1.158-1.008 2.248-2.088 3.387-3.114 1.764-1.67 3.528-3.341 5.282-5.022a.54.54 0 0 0 .138-.13 314.682 314.682 0 0 0 5.834-5.72c.85-.76 1.543-1.642 2.348-2.443 2.213-2.213 4.434-4.419 6.591-6.687.245-.27.489-.535.75-.786-.325 3.939 1.782 8.238 3.62 11.556.372.524.627 1.12.98 1.654.71.964 1.59 1.799 2.232 2.817.077.112.173.18.274.214.356.527 1.028-.044 1.445-.298 1.124-.626 2.114-1.446 3.068-2.302 1.772-1.558 1.6-1.138.258-2.95-1.36-1.96-2.819-3.894-3.286-6.295-.803-3.12-.672-6.5.156-9.614.3-1.668.909-3.26 1.783-4.722.383-1.11 1.118-2.057 1.812-2.996.313-.34.725-.932.167-1.253-.002 0-.008 0-.01-.005-.338-.452-.813-.789-1.281-1.1-.587-.433-1.15-.929-1.71-1.404-.476-.344-.848-.822-1.27-1.227a.667.667 0 0 0-.553-.185.513.513 0 0 0-.385.19.536.536 0 0 0-.29.322c-.55.475-1.09.963-1.698 1.365-2.81 1.6-5.916 3.075-9.215 3.284-3.034.101-6.081-.515-8.757-1.942-1.69-.961-3.49-1.948-4.877-3.331a.59.59 0 0 0-.316-.154c-.202-.13-.481-.144-.675.065-.401.48-.94.838-1.347 1.321-.43.512-.869 1.007-1.381 1.438-.611.739-1.374 1.331-2.038 2.023a.581.581 0 0 0-.154.188.457.457 0 0 0-.18.303c-.027.496.48.833.711 1.234 2.508 3.981 7.13 6.273 11.809 6.604 1.549.107 3.106.066 4.641-.148a21.895 21.895 0 0 0-1.687 1.811c-1.767 1.577-3.512 3.174-5.265 4.766-.77.804-1.541 1.616-2.314 2.428a.516.516 0 0 0-.183.162l-.07.102a381.043 381.043 0 0 1-5.648 5.852c-.19.096-.353.237-.411.417l-.125.126c-2.194 2.195-4.42 4.419-6.644 6.609-.728.746-1.408 1.451-2.208 2.156.245-4.761-1.352-9.76-4.107-13.654a27.319 27.319 0 0 0-2.15-2.532c-.331-.33-.61-.762-1.088-.898a.668.668 0 0 0-.269-.005.527.527 0 0 0-.393.054c-1.041.76-1.987 1.757-2.898 2.679-.526.375-.975.84-1.443 1.284-.167.149-.372.331-.475.532a.701.701 0 0 0-.133.12c-.218.264-.082.655.202.815.207.216.38.46.558.702.635.887 1.163 1.837 1.718 2.772 2.8 5.306 3.25 12.156-.135 17.319-.491.665-1.02 1.305-1.549 1.945-.186.154-.319.383-.29.605-.254.47.418 1.002.75 1.378 1.041 1.376 2.428 2.404 3.629 3.647l.008.002Zm23.694-30.821c.072-.152.191-.321.29-.494.807-.856 1.62-1.728 2.436-2.56 1.697-1.525 3.424-3.133 5.145-4.644a28.58 28.58 0 0 1 3.047-3.062c.17-.248.12-.488-.026-.652a.501.501 0 0 0-.51-.277c-1.084.204-2.17.42-3.278.454-5.072.332-10.558-1.467-13.461-5.763-.218-.319-.45-.627-.675-.937.47-.457.922-.906 1.442-1.35.322-.394.675-.749 1.063-1.08.494-.525.93-1.102 1.472-1.585.122-.117.26-.227.393-.34.268.26.537.515.837.74 1.575 1.13 3.222 2.19 4.994 3.001a17.421 17.421 0 0 0 6.992 1.608c2.352.146 4.647-.433 6.82-1.297 1.33-.658 2.707-1.151 3.99-1.955.715-.4 1.328-.945 1.945-1.478.085-.073.183-.15.27-.237.76.799 1.613 1.509 2.49 2.177.428.365.932.613 1.296 1.041-.366.475-.717.958-1.038 1.465-.542.65-.784 1.448-1.159 2.187-.983 1.52-1.39 3.315-1.79 5.048-.157.507-.218 1.031-.29 1.556a7.122 7.122 0 0 0-.22 1.91c-.253 2.261.047 4.553.635 6.743.67 2.59 2.412 4.792 3.974 6.943-1.063.903-2.088 1.887-3.294 2.634-.26.157-.521.31-.779.47-.874-1.308-2.056-2.284-2.741-3.749-1.993-3.312-4.354-8.185-3.743-12.09.026-.16.108-.475.138-.671a.507.507 0 0 0-.237-.48.708.708 0 0 0-.25-.165c-.342-.104-.579.126-.7.405-1.228.981-2.243 2.229-3.348 3.344-1.629 1.67-3.345 3.343-4.992 5.016-.5.551-1.017 1.089-1.54 1.621a1.625 1.625 0 0 0-.383.308c-1.286 1.172-2.282 1.606-3.9.624-.651-.245-1.023-.809-1.336-1.425-.603-.932-.614-2.093.024-3.015l-.003.01ZM1.732 49.532c-.024-.031-.045-.065-.07-.097.213-.224.405-.532.588-.733a13.969 13.969 0 0 0 2.178-3.362C7.024 39.69 6.018 32.89 2.8 27.684c-.276-.326-.898-1.558-1.533-2.258.16-.159.308-.342.452-.456.85-.758 1.713-1.491 2.473-2.345.425-.407.829-.728 1.294-1.109 3.544 3.425 5.603 7.643 6.362 12.459.197 1.287.24 2.506.138 3.834-.066.243-.034.642.194.846a.563.563 0 0 0 .348.261c.609.11 1.103-.444 1.541-.783.271-.285.654-.501.83-.856l.004-.021c.688-.684 1.331-1.337 2.051-2.047 2.035-2.036 4.089-4.061 6.124-6.108.114-.067.22-.14.316-.203.656-.264 1.257-.63 1.891-.94.428-.096.893-.073 1.323.003 1.68.245 2.917 2.065 2.407 3.683-.125.436-.427.82-.704 1.177-.122.165-.33.345-.491.535-2.357 2.258-4.74 4.49-7.12 6.721-.73.692-1.466 1.381-2.26 2.005-.349.266-.938.587-.606 1.089.133.19.409.276.627.19.457 0 .9.019 1.365.045 4.418.37 9.277 1.109 12.494 4.408.662.666 1.302 1.344 2.008 1.971.433.46.68 1.044 1.031 1.56-1.158 1.048-2.324 2.092-3.568 3.037-.148.148-.39.269-.592.407-.223-.157-.462-.295-.69-.441a6.058 6.058 0 0 0-1.348-.846 4.95 4.95 0 0 0-1.001-.595c-1.105-.611-2.248-1.14-3.454-1.527-1.32-.525-2.694-.88-4.115-1-2.186-.164-4.495-.104-6.623.504-2.728.773-5.318 1.952-7.855 3.195-.978-1.376-2.479-2.295-3.552-3.602a16.25 16.25 0 0 0-.834-.953l.005.008Z"/></g><defs><clipPath id="a"><path fill="#fff" d="M0 0h57v56H0z"/></clipPath></defs></svg>