<svg xmlns="http://www.w3.org/2000/svg" width="58" height="56" fill="none"><g clip-path="url(#a)"><path fill="#FFC2E8" d="M15.894 36.537c.013-.3.238-.467.49-.49.24-.157.625-.06.93-.03 1.294.084 2.59.157 3.885.204 2.249.097 4.502.207 6.75.264.644.013 1.288.005 1.932-.003l.006-.002h-.006c1.728-.637 2.33-2.83 1.783-4.454-.126-.365-.356-.715-.68-.934a.479.479 0 0 1-.132-.055c-1.77.086-3.538.118-5.313.029-2.45-.12-4.903-.01-7.353-.13-.649-.024-1.3-.016-1.95-.055a.53.53 0 0 1-.547-.59.495.495 0 0 1 .134-.494c2.895-2.393 5.274-5.33 6.831-8.731a14.652 14.652 0 0 0 1.503-7.19c.018-.532-.063-1.072-.068-1.602-1.079 0-2.154-.091-3.233-.044-.319-.032-.903.112-1.405.14-.013.342-.097.7-.097 1.019a10.912 10.912 0 0 1-.12 1.516c-.545 3.785-2.46 7.267-4.859 10.199-2.51 2.892-6.01 4.808-9.72 5.677-.82.204-1.684.295-2.519.34-.115.02-.248.041-.38.044-.007.209-.007.415-.004.616.07 1.423-.126 2.85-.181 4.263.275.013.56.068.803.076 2.592.036 5.05 1 7.246 2.318 4.96 2.873 8.8 7.924 9.493 13.675.113.64.144 1.318.162 1.96.006.165.032.358.037.546.168-.008.335-.026.5-.029 1.494.042 2.994.113 4.468.327.026-.217.042-.436.047-.656.058-1.193-.092-2.385-.246-3.565-.607-4.3-2.193-8.601-5.418-11.637-.783-.734-1.505-1.389-2.377-1.992a.528.528 0 0 1-.392-.525v-.005ZM46.334 30.758c-.458.112-.926.209-1.324.477-1.089.849-2.66 2.553-2.46 4.013.102.76.73 1.195 1.327 1.579 2.44.018 4.876.05 7.316.044 1.434.034 2.881.175 4.297.089.456-.06.916-.013 1.372-.031.02-.006.042-.008.06-.013.018-.253.047-.494.032-.752-.066-.358-.168-.71-.134-1.078.16-1.43.173-2.817.02-4.224-.025 0-.051 0-.078-.005-1.102-.029-2.203.076-3.305.047-1.084.013-2.157-.125-3.24-.1-1.205-.012-2.411-.044-3.615-.075a.519.519 0 0 1-.267.026v.003Z"/><path fill="#D657D9" d="M14.296 20.854c-.3-.449-.618-.913-1.055-1.24-.235-.143-.47-.334-.704-.475a.785.785 0 0 1-.141-.086c-2.102-.026-4.206-.102-6.308.005a61.931 61.931 0 0 1-4.178.076c-.141-.018-.311-.013-.487-.016-.068 1.87-.196 3.673-.319 5.529.005.149-.008.3-.02.449.096.008.19.02.274.029a58.57 58.57 0 0 0 1.665.086c1.45.052 2.9-.016 4.35.055.926.02 1.88.008 2.827.01 1.845-.556 4.986-2.185 4.101-4.42l-.005-.002ZM33.851 7.408c.427 2.193 1.186 4.341 2.529 6.15 1.217 1.73 2.536 3.446 4.193 4.782.293.126.557.397.442.726v.008c-.04.804-1.222.451-1.767.55-2.036-.012-4.07-.02-6.106-.036-1.877.04-3.751-.076-5.628-.157-1.662.546-2.539 1.65-2.486 3.46.107.78.494 1.639 1.183 2.061a.792.792 0 0 1 .068.04c.32-.008.639-.014.958-.016.112-.003.235 0 .348.023 3.604-.013 7.214-.08 10.813.079.761.052 1.528.031 2.285.06a.49.49 0 0 1 .369.42.475.475 0 0 1 .013.433c-.197.34-.55.374-.804.637-2.769 2.446-4.858 5.665-6.169 9.092-.602 1.679-1.036 3.428-1.196 5.208-.024.72 0 1.47-.058 2.182-.008.125-.01.272-.029.418.142.031.286.06.417.068 1.656.08 3.305.211 4.965.156.495-3.01.735-6.15 2.154-8.912 1.437-2.954 3.717-5.565 6.486-7.337a25.159 25.159 0 0 1 3.403-1.744c1.238-.451 2.567-.736 3.842-1.039a2.81 2.81 0 0 1 1.152-.06c.238-.029.474-.026.71-.003-.02-.417-.08-.832-.035-1.253v.014c.084-1.107.136-2.217.215-3.326.005-.081.008-.172.013-.266-.942.047-2.35-.387-3.002-.45-3.372-.668-6.458-2.302-9.017-4.567-2.607-2.345-4.366-5.493-5.264-8.86-.445-1.428-.644-2.921-.73-4.411a7.385 7.385 0 0 0-.05-.199c-.128.01-.257.013-.372.013a22.024 22.024 0 0 1-3.892-.138c-.126-.016-.277-.018-.43-.026a26.514 26.514 0 0 0 .472 6.22h.005Z"/><path fill="#000" d="M.103 25.814c-.016-.024-.024-.05-.037-.076 0 .005.003.01.006.016l.03.057v.003Z"/><path fill="#000" d="M35.34 13.89a25.812 25.812 0 0 0 2.338 3.035c.484.559.976 1.144 1.531 1.65-.335.005-.67.005-1.005-.013-2.08.02-4.162-.024-6.24-.016-1.458-.01-2.913-.086-4.368-.156a.517.517 0 0 0-.181-.008c-.471-.024-.942-.045-1.41-.063-.365-.026-.789-.055-1.213-.112.518-2.026.474-4.143.327-6.213v-.047.019a.366.366 0 0 0-.018-.107.477.477 0 0 0 .016-.123c-.087-.828-1.155-.42-1.712-.525-1.33-.044-2.66-.091-3.981.097-.047 0-.204.02-.312.005a.533.533 0 0 0-.458.178c-.225.117-.377.378-.256.647a17.055 17.055 0 0 1-1.078 5.967c-.011 0-.019-.003-.03-.005-.588-.013-1.175-.068-1.763-.07-2.123-.06-4.249.023-6.371-.082-2.047-.044-4.094.173-6.138.15-.67-.016-1.335-.003-2.003-.055a.515.515 0 0 0-.468.276.526.526 0 0 0-.136.3c-.084 2.175-.238 4.37-.372 6.544-.037.191-.05.395.037.572 0-.008-.006-.015-.008-.023.06.17.18.269.314.31a.654.654 0 0 0 .427.1c1.345.093 2.693.185 4.044.143 1.73.029 3.462.026 5.193.047a.472.472 0 0 0 .27.003c.415.005.832.015 1.25.026a17.421 17.421 0 0 1-9.985 3.774.483.483 0 0 0-.388.178.463.463 0 0 0-.19.057c-.168.07-.315.3-.273.546-.034.394-.016.79-.008 1.185.024 1.368-.13 2.71-.21 4.098-.002.084.006.165.009.248-.01.248.078.418.21.517.02.026.044.05.07.07.332.249.73-.007 1.117.084 1.034.107 2.094.107 3.092.433 2.706.713 5.114 2.287 7.24 4.067 2.928 2.504 5.001 6.062 5.742 9.855.1.783.212 1.563.246 2.354.042.331-.047.87.115 1.203a.52.52 0 0 0 .186.525c.327.201.754.097 1.12.091.88-.007 1.762.047 2.639.115.49.01.976.089 1.463.13.225.03.52.108.767.082a.56.56 0 0 0 .113.034c.931.133.698-1.84.759-2.454-.233-5.725-2.005-11.742-6.434-15.639-.275-.26-.576-.53-.89-.793l.722.039c2.107.115 4.217.211 6.327.277 1.198.018 2.39.12 3.588.13 1.243-.096 2.497-.023 3.74-.034a21.934 21.934 0 0 0-.588 3.362c-.04.92.018 1.835-.113 2.749-.029.18.05.36.186.475a.461.461 0 0 0 .081.165c.249.279.6.271.948.35 1.55.086 3.096.221 4.65.177.537-.037 1.527.227 1.556-.57.392-2.385.63-4.447 1.185-6.42.12.007.241.01.348.015.977.02 1.953.044 2.927.047a.48.48 0 0 0 .227 0h.105c2.57.02 5.143.031 7.714.052 1.814.102 3.69.154 5.517 0a.424.424 0 0 0 .16-.073.437.437 0 0 0 .084.008c.442 0 .568-.447.523-.812.045-.501.094-1.013-.068-1.498-.063-.295.016-.593.018-.89.118-1.345.12-2.713-.044-4.057a.717.717 0 0 0-.531-.71.501.501 0 0 0-.4-.073c-.386 0-.77-.031-1.155-.003-1.257.066-2.52.066-3.78.003-1.973-.097-4.02-.07-6.004-.144-.11 0-.22-.002-.33-.005.537-.465 1.11-.893 1.728-1.279 1.463-.854 3.01-1.73 4.687-2.09.835-.24 1.641-.442 2.5-.614.144-.034.285-.018.427.008.434.013.869-.047 1.295.075.464.136.859-.31.686-.71.037-.339-.023-.691-.042-1.03-.02-.416.029-.826.047-1.243.1-1.005.11-2.018.202-3.026-.005-.172.089-.37.037-.548a.527.527 0 0 0-.367-.376c-.016-.002-.029-.002-.044-.005a.536.536 0 0 0-.568-.057c-1.505-.045-2.992-.426-4.44-.823-2.117-.53-4.015-1.663-5.774-2.923C43.054 12.81 40.947 9.58 39.98 6c-.29-.866-.49-1.761-.623-2.664-.184-.6.036-2.692-.691-2.934-.16-.154-.414-.22-.62-.113-1.61.126-3.191-.028-4.798-.161a.531.531 0 0 0-.317-.134c-.558-.013-.576.57-.6 1-.07 4.427.435 9.155 3.021 12.89l-.01.005ZM7.37 25.262c-1.45-.07-2.9 0-4.35-.055-.555-.021-1.107-.05-1.664-.086-.084-.008-.178-.021-.275-.029.013-.149.026-.3.02-.449.126-1.856.252-3.657.32-5.529.175 0 .348 0 .487.016 1.392.02 2.785 0 4.177-.076 2.102-.107 4.207-.031 6.308-.005.047.031.095.063.142.086.233.141.468.332.704.475.437.327.754.791 1.055 1.24.887 2.235-2.257 3.864-4.102 4.42-.947 0-1.9.01-2.827-.01l.006.002ZM18.668 39.05c3.225 3.035 4.811 7.337 5.419 11.637.154 1.18.303 2.372.246 3.565-.006.22-.019.439-.047.656-1.471-.215-2.974-.285-4.468-.327-.168 0-.335.021-.5.029-.006-.185-.032-.381-.037-.546-.018-.642-.05-1.32-.162-1.96-.694-5.75-4.534-10.802-9.494-13.676-2.196-1.318-4.654-2.281-7.245-2.318-.246-.007-.529-.06-.803-.075.054-1.413.25-2.84.18-4.263-.002-.198 0-.407.005-.616.131-.005.262-.024.38-.044.835-.042 1.701-.136 2.518-.34 3.711-.869 7.21-2.785 9.721-5.677 2.398-2.932 4.314-6.414 4.858-10.199.084-.501.107-1.01.12-1.517 0-.318.084-.678.097-1.018.506-.028 1.087-.175 1.406-.14 1.078-.048 2.154.044 3.232.044.006.532.087 1.07.069 1.602a14.65 14.65 0 0 1-1.503 7.19c-1.557 3.4-3.937 6.337-6.831 8.731a.502.502 0 0 0-.134.493.53.53 0 0 0 .547.59c.65.04 1.298.032 1.95.055 2.45.12 4.902.013 7.353.13 1.774.09 3.543.058 5.313-.028a.576.576 0 0 0 .13.055c.325.216.556.566.681.934.55 1.624-.055 3.82-1.782 4.456h.005-.005a47.48 47.48 0 0 1-1.932.003c-2.248-.058-4.5-.167-6.75-.264-1.296-.047-2.591-.12-3.884-.203-.307-.032-.692-.128-.932.028-.252.024-.48.19-.49.491a.53.53 0 0 0 .393.525c.871.603 1.596 1.255 2.376 1.991v.006Zm-1.293-9.184s-.026 0-.036.003c.95-.84 1.837-1.78 2.67-2.738.256-.303.505-.611.746-.924h.044c.76.047 1.654-.01 2.434-.073.971-.055 1.935-.053 2.916-.094 3.594-.006 7.19-.03 10.784.013.772.028 1.547.073 2.322.102-1.107.95-2.152 2.171-3.07 3.474-.035.005-.066.008-.1.018-2.18.097-4.35.345-6.533.426-2.85.005-5.704-.144-8.554-.136-1.21.042-2.413-.052-3.623-.07Zm36.085 1.037c1.101.028 2.203-.076 3.305-.047.026.002.053.002.079.005a19.16 19.16 0 0 1-.021 4.224c-.032.368.068.723.133 1.078.016.255-.013.498-.031.751-.02.006-.042.006-.06.013-.456.019-.916-.028-1.372.032-1.416.083-2.863-.058-4.298-.089-2.436.005-4.876-.026-7.315-.044-.597-.387-1.228-.82-1.327-1.58-.2-1.459 1.371-3.16 2.46-4.012.398-.269.866-.365 1.325-.477.088.015.18.005.266-.027 1.204.032 2.408.063 3.615.076 1.081-.026 2.157.11 3.24.1v-.003Zm-19.65-29.69a22.03 22.03 0 0 0 3.893.138c.115 0 .243 0 .371-.013.019.068.034.133.05.198.086 1.49.285 2.981.73 4.412.898 3.367 2.657 6.512 5.264 8.86 2.56 2.262 5.646 3.9 9.017 4.567.65.063 2.06.496 3.002.45-.005.096-.008.187-.013.266-.081 1.106-.133 2.216-.215 3.325v-.013c-.044.418.016.835.035 1.253a3.223 3.223 0 0 0-.71.003 2.814 2.814 0 0 0-1.151.06c-1.275.303-2.605.587-3.843 1.039a25.479 25.479 0 0 0-3.403 1.743c-2.766 1.773-5.046 4.383-6.486 7.338-1.418 2.762-1.66 5.902-2.154 8.912-1.66.055-3.31-.073-4.965-.157a2.813 2.813 0 0 1-.416-.068c.015-.146.02-.292.029-.417.057-.713.034-1.462.057-2.182.162-1.778.594-3.527 1.196-5.208 1.312-3.428 3.4-6.649 6.17-9.092.256-.264.61-.298.803-.637a.476.476 0 0 0-.013-.433.498.498 0 0 0-.369-.42c-.756-.03-1.523-.008-2.285-.06-3.599-.16-7.208-.092-10.813-.079-.112-.023-.235-.029-.348-.023-.322.002-.641.01-.958.015-.02-.013-.042-.029-.068-.039-.688-.425-1.076-1.282-1.183-2.062-.052-1.81.825-2.916 2.487-3.459 1.874.078 3.75.196 5.627.157 2.037.015 4.073.023 6.107.036.544-.099 1.725.254 1.766-.55v-.008c.116-.332-.149-.6-.442-.726-1.654-1.336-2.976-3.051-4.193-4.782-1.343-1.806-2.102-3.957-2.529-6.15a26.52 26.52 0 0 1-.47-6.22c.148.01.3.01.429.026h-.006Z"/></g><defs><clipPath id="a"><path fill="#fff" d="M58 0v56H0V0z"/></clipPath></defs></svg>