<svg xmlns="http://www.w3.org/2000/svg" width="56" height="56" fill="none"><g clip-path="url(#a)"><path fill="#FFC2E8" d="M44.438 48.338a5.902 5.902 0 0 0-3.519-.525c-1.13.222-2.47.41-3.245 1.346-.096.122-.198.257-.31.362v5.258a.402.402 0 0 1 0 .11 52.96 52.96 0 0 0 4.406.056c1.412-.033 2.818.091 4.228-.054.076-.18.02-.352.07-.525v-4.812c-.408-.558-1.012-.92-1.627-1.216h-.003Z"/><path fill="#D657D9" d="M52.976 36.896H22.9c-.028.01-.056.02-.086.028-2.341 1.53-2.151 4.746-1.691 7.162.185.8.695 1.522 1.368 1.968h32.444c.013 0 .023.003.035.005v-8.727c0-.13-.007-.283-.007-.434h-1.988l.002-.002ZM32.947 18.91c.266-.096.502-.254.718-.423 1.516-1.292 2.006-3.543 1.557-5.441-.26-1.142-.752-2.348-1.841-2.914a.56.56 0 0 1-.13-.048H1.023V17.807c-.048.306.051.82.008 1.223H32.67a.905.905 0 0 1 .274-.12h.002Z"/><path fill="#FFC2E8" d="M15.477 20.557c-1.384-.064-2.88.275-3.984 1.099a3.734 3.734 0 0 0-.871.912 2.659 2.659 0 0 1-.122.202v32.198h8.438V22.864c-.21-.28-.343-.732-.536-.969a3.65 3.65 0 0 0-2.925-1.338ZM41.783 34.89c1.597-.102 3.466-.706 4.233-2.22a.454.454 0 0 1 .053-.113V2.342a.454.454 0 0 1-.012-.104c-.013-.156 0-.308.012-.461v-.388c0-.053.01-.1.023-.145a.96.96 0 0 0-.018-.145.648.648 0 0 0-.012-.074h-8.339c-.104-.003-.226 0-.35.005 0 .058.005.114.012.165.003.23.023.538-.023.806v29.708c.122.283.145.609.29.882.751 1.529 2.493 2.352 4.129 2.296l.002.003ZM13.763 8.465c1.93.201 3.733-.83 5.07-2.149a.562.562 0 0 0 .102-.12V1.028h-7.407c-.279-.038-.69.041-1.028.008v5.462c.703 1.099 2.014 1.787 3.263 1.968Z"/><path fill="#D657D9" d="M6.874 36.965a.755.755 0 0 1-.183-.07H1.366c0 .019.005.034.005.052v1.81c.026.221.049.463 0 .66v5.837c.038.216.02.436.005.655v.148h4.65c.137-.072.304-.12.464-.176.498-.125.917-.444 1.27-.808.904-1.012 1.102-2.325 1.112-3.63.061-1.687-.528-3.538-1.998-4.476v-.002ZM49.919 18.926c.08.023.162.061.236.104h4.253v-8.679a1.199 1.199 0 0 1-.003-.27h-4.938c-.03.01-.059.02-.092.026-1.945 1.16-2 3.749-1.66 5.745.218 1.361.837 2.63 2.204 3.071v.003Z"/><path fill="#000" d="M55.985 45.396V36.67a.518.518 0 0 0-.226-.423.512.512 0 0 0-.485-.373h-8.189V20.047h7.603a.513.513 0 0 0 .5-.433c.3-.181.246-.67.241-1.017v-8.554a.51.51 0 0 0-.142-.35.51.51 0 0 0 .018-.125c-.016-.586-.645-.517-1.064-.51H47.085V1.805c.051-.356.018-.72-.038-1.078a.517.517 0 0 0-.058-.288.515.515 0 0 0-.5-.436h-8.763c-.366.013-.94-.094-1.158.22a.493.493 0 0 0-.219.265c-.04.221-.005.448.02.673-.01.043-.02.086-.02.137v.561c-.01.056-.02.115-.027.173a.516.516 0 0 0 .027.207v6.828a.387.387 0 0 0-.076-.007h-16.32V.833a.489.489 0 0 0-.312-.512.513.513 0 0 0-.47-.316H10.43a.506.506 0 0 0-.287.092.486.486 0 0 0-.15-.026c-.81.066-.421 1.19-.508 1.739v7.249H.767a.514.514 0 0 0-.508.51c0 .01.003.02.003.033-.328.186-.254.731-.254 1.09v8.42c0 .275.226.504.5.51.033.221.2.425.49.43h8.486V35.88H.981a.511.511 0 0 0-.437.254c-.175.082-.302.263-.27.54-.048.74.024 1.416.082 2.155v7.124c-.008.178-.005.36.01.553.02.3.231.456.455.477.312.186.868.058 1.221.091h7.44v7.94c.002.128.04.232.099.309a.526.526 0 0 0-.028.155c.025.65.774.497 1.221.51h8.2c.099 0 .192-.03.274-.084.294.112.695-.048.703-.466V47.06c.026.005.05.007.079.01h16.317v6.245a.557.557 0 0 0-.048.191c.089.721-.399 1.692.282 2.235l.022.008c.132.196.412.273.66.237h6.933c.089.003.177.005.266.01.102 0 .206-.005.307-.01h1.54a.515.515 0 0 0 .474-.336.559.559 0 0 0 .084-.143c.058-.204.152-.459.188-.706a.603.603 0 0 0 .028-.158V47.07h7.851a.495.495 0 0 0 .353-.143.482.482 0 0 0 .19.038c.772-.066.442-1.052.508-1.575v.005Zm-6.61-35.287c.034-.008.064-.018.092-.026h4.939c-.01.09-.008.184.002.27v8.68h-4.253a1.023 1.023 0 0 0-.236-.105c-1.366-.443-1.986-1.713-2.204-3.071-.34-1.994-.284-4.586 1.66-5.746v-.002Zm-40.5 31.334c-.01 1.305-.21 2.618-1.112 3.63-.353.361-.772.683-1.27.808-.16.056-.327.104-.464.175H1.377c.002-.048.002-.099 0-.147.015-.22.033-.439-.005-.655v-5.838c.048-.196.025-.438 0-.66v-1.81c0-.017-.003-.033-.005-.05H6.69c.059.03.12.053.183.068 1.47.938 2.06 2.789 1.998 4.476l.003.003Zm28.49-14.911V2.003c.046-.267.026-.576.023-.805a1.712 1.712 0 0 1-.013-.166c.125-.002.247-.01.35-.005h8.34c.005.026.007.051.012.074.008.048.015.097.018.145a.512.512 0 0 0-.023.146v.387a2.545 2.545 0 0 0-.013.461c0 .036.006.072.013.105V32.56a.453.453 0 0 0-.053.112c-.767 1.512-2.633 2.118-4.233 2.22-1.635.056-3.38-.767-4.129-2.297-.145-.272-.167-.596-.29-.881v-5.182h-.002ZM10.5 1.035c.338.033.75-.046 1.028-.008h7.407v5.172a.564.564 0 0 1-.101.12c-1.338 1.315-3.141 2.35-5.071 2.148-1.25-.18-2.56-.869-3.263-1.967V1.035Zm8.438 53.935H10.5V22.772c.043-.064.084-.133.122-.201.244-.357.495-.628.871-.913 1.104-.823 2.6-1.162 3.984-1.099a3.657 3.657 0 0 1 2.925 1.339c.19.237.325.688.536.968V54.97ZM6.371 19.03h-5.34c.044-.403-.055-.918-.007-1.223v-7.724h32.228c.04.023.083.039.13.049 1.088.566 1.584 1.771 1.84 2.913.45 1.9-.04 4.15-1.556 5.442a2.71 2.71 0 0 1-.72.423.91.91 0 0 0-.273.12H6.37Zm13.583 16.78V20.05h16.35c.015 0 .03-.003.045-.005v15.76c0 .025.006.048.008.074H20.748a2.09 2.09 0 0 0-.797-.07h.003Zm26.115 18.558c-.05.174.008.347-.07.526-1.407.145-2.817.02-4.228.053a51.9 51.9 0 0 1-4.406-.056v-5.368c.112-.105.213-.24.31-.362.774-.935 2.115-1.124 3.245-1.346a5.883 5.883 0 0 1 3.52.525c.614.296 1.218.658 1.627 1.216v4.813h.002Zm8.903-12.839v4.532s-.023-.005-.035-.005H22.492a3.27 3.27 0 0 1-1.369-1.967c-.46-2.417-.647-5.636 1.691-7.163a.872.872 0 0 0 .087-.028h32.065c0 .153.008.306.008.433v4.196l-.003.002Z"/></g><defs><clipPath id="a"><path fill="#fff" d="M0 0h56v56H0z"/></clipPath></defs></svg>