<svg xmlns="http://www.w3.org/2000/svg" width="159" height="129" fill="none"><g clip-path="url(#a)"><path fill="#F3F3F4" d="M105.046 70.3c.719.354 1.481.575 2.226.861.241.117.708.207.917.42.149.048.295.093.442.144 1.114.366 2.215.792 3.146 1.52.157.154.493.35.733.568.923-1.529 2.003-2.958 3.353-4.143.246-.219.504-.42.768-.613-.312-.601-.513-1.253-.734-1.891-.424-1.336-.925-2.649-1.364-3.982a1.625 1.625 0 0 1-.097-.28.342.342 0 0 1-.049-.174 26.272 26.272 0 0 1-.309-1.049c-.811-2.328-1.659-4.636-2.608-6.913-1.04-2-2.046-4.016-3.178-5.97-1.538-2.782-3.172-5.612-5.192-8.068-.753-.921-1.673-1.783-2.347-2.756-1.782-1.951-3.98-3.494-6.25-4.84-1.59-.775-3.257-1.558-4.888-2.224-3.768-1.43-7.911-1.75-11.903-1.412-8.76 1.143-15.075 6.38-20.179 13.192-1.272 1.798-2.487 3.633-3.762 5.428-1.817 2.983-3.62 5.963-5.198 9.066-1.654 3.272-3.083 6.647-4.499 10.021-.418.916-.685 1.886-1.049 2.822-.106.264-.22.525-.34.783a.34.34 0 0 1-.115.13 19.165 19.165 0 0 1 2.298 1.787c1.421-1.305 3.195-2.258 5.009-2.938.106-.049.212-.097.32-.136.023-.006.046-.006.066-.009.032-.011.064-.025.095-.034.278-.062.559-.12.843-.173a.423.423 0 0 1 .146-.034c.206-.07.407-.145.573-.196 3.756-1.25 7.22-3.902 8.8-7.557.054-.128.106-.264.172-.389 1.836-4.466 4.111-8.77 7.117-12.57 3.256-3.92 8.48-6.16 13.597-5.803 2.614.429 5.055 1.682 7.213 3.165 1.398 1.109 2.63 2.49 3.745 3.854 1.874 2.104 3.307 4.495 4.556 6.999 1.008 2.115 1.983 4.276 2.61 6.533.072.102.115.241.158.36 1.02 3.185 2.198 4.844 5.166 6.492l-.008.008Zm4.335-16.982a.358.358 0 0 1-.716-.005.358.358 0 0 1 .716.005Zm-2.252-4.452c.625.936 1.132 1.946 1.659 2.938.221.406-.395.746-.627.343-.488-.935-.986-1.868-1.545-2.767-.619-.434.075-1.087.51-.514h.003Zm-59.293 14.2c-.31.665-.544 1.363-.862 2.027.003.278-.35.445-.57.275-.25-.182-.147-.497-.012-.718.353-.848.72-1.69 1.055-2.543a.36.36 0 0 1 .464-.202c.49.238.026.806-.072 1.16h-.003Zm.662-2.854c-.18-.516.562-.768.69-.227.181.514-.558.769-.69.227Zm28.62-28.678c-1.108.19-2.306.298-3.329.717a.367.367 0 0 1-.504.043c-.871-1.024 3.192-1.31 3.776-1.466.465-.034.522.66.055.706h.003Zm1.795-.003c-.195 0-.347-.19-.338-.374.01-.202.183-.335.378-.335.194 0 .346.19.338.375-.012.2-.184.334-.378.334Z"/><path fill="#fff" d="M50.527 70.302c-.132.045-.26.096-.392.147-2.064 1.092-3.112 3.659-2.47 5.868.037.113.051.25.028.368.055.258.029.463-.143.556-.17.085-.401.023-.482-.156-1.094-3.15-4.109-5.158-6.888-6.76-1.806-.973-3.665-1.991-5.737-2.26a12.77 12.77 0 0 0-4.18-.1c-2.064.437-4.064 1.288-5.74 2.536l.006-.006c-.14.108-.278.218-.413.332-.123.116-.247.23-.364.351-.095.082-.19.168-.28.25a20.136 20.136 0 0 0-1.396 1.605c-.009.008-.018.017-.023.025l-.052.1c-.367.663-.925 1.194-1.28 1.863-.29.57-.614 1.117-.998 1.627a.368.368 0 0 1-.496.108c-.16-.102-.217-.332-.108-.49.128-.179.26-.363.384-.55a.784.784 0 0 1 .065-.18c.086-.325.152-.654.198-.989.393-2.246-.79-4.602-2.708-5.79-.089-.046-.189-.077-.272-.125-1.69-.468-3.533-.463-5.318.028-3.124 1.09-5.846 3.273-7.749 5.918C1.802 77.094.862 80.244.705 83.364c.031 2.039.74 4.018 1.81 5.742.76 1.086 1.755 1.934 2.806 2.728 2.909 1.968 6.548 2.584 10 2.161.06-.08.147-.153.221-.23.31-.433.731-.782.983-1.262 1.264-2.075.227-5.512-2.527-5.481a4.206 4.206 0 0 0-1.163.125.765.765 0 0 1-.072.03.322.322 0 0 1-.12.052c-.39.142-.705-.448-.276-.652.006 0 .012-.006.018-.009.08-.06.174-.1.28-.125.56-.255 1.084-.587 1.628-.867 1.14-.593 2.376-.97 3.62-1.285 3.913-1.236 7.87-.715 11.424 1.276 1.295.65 2.659 1.163 4.026 1.645 1.665.448 3.433.29 5.092-.1 1.928-.513 3.75-1.434 5.682-1.948a10.933 10.933 0 0 1 1.742-.329c2.58-.21 5.393.414 7.376 2.122l.006.005.109.074c.146.074.278.218.4.303a.418.418 0 0 1 .11.091c.097.037.18.116.212.221a.36.36 0 0 1-.235.446c-.364.09-.648-.244-.903-.451-.049-.046-.103-.088-.152-.134-.134-.093-.27-.184-.4-.283-.838-.49-1.78-.91-2.766-.848-1.808.045-3.797.706-4.903 2.186-1.17 2.082-.011 4.563 1.588 6.06 2.699.766 5.493 1.203 8.3 1.004 4.83-.21 8.86-2.32 10.205-7.157 1.32-4.444.619-9.304-1.075-13.555-.435-.916-.862-1.872-1.584-2.603-1.379-1.246-3.184-1.892-4.949-2.4-2.21-.553-4.507-.045-6.694.375l.003.011ZM2.986 84.73c-.419-.467.129-1.02.516-.535.415.468-.126 1.023-.516.536Zm.865-6.139c-.226.465-.36 1.001-.496 1.492-.143.714-.269 1.477-.18 2.2.046.46-.656.539-.714.077-.2-.596.413-5.005 1.384-4.438.264.164.16.468.006.67Zm30.406 7.48c-1.63.066-3.155-.754-4.476-1.624-.45-.167-.18-.814.238-.664-.003 0-.006-.002-.012-.005.017.008.038.011.052.02-.014-.006-.029-.012-.043-.015 1 .619 2.077 1.231 3.227 1.526.418.156 1.315-.213 1.378.42-.006.187-.175.357-.37.343h.006Zm1.676-.107a.358.358 0 0 1-.347-.366.36.36 0 0 1 .37-.343c.195 0 .352.176.347.366a.36.36 0 0 1-.37.343Zm1.272-14.834c-.876-.383-1.71-.751-2.613-1.018-.355.162-.682-.326-.387-.587.255-.244.645-.09.932.011.802.278 1.587.596 2.36.945.425.193.135.83-.292.646v.003Zm1.353.743a.358.358 0 0 1-.347-.366.36.36 0 0 1 .37-.343c.195 0 .352.176.347.366a.36.36 0 0 1-.37.343Zm7.791 19.678a.358.358 0 0 1-.24.442c-.181.054-.399-.051-.448-.238-.26-.865-.392-1.781-.014-2.635.106-.235.16-.604.502-.564.71.17-.029 1.027-.012 1.48-.083.525.103 1.024.212 1.515Zm.479 1.627a.363.363 0 0 1-.37-.343.36.36 0 0 1 .347-.366c.195 0 .364.148.37.344a.36.36 0 0 1-.347.365Zm16.402-14.99a.36.36 0 0 1-.347.366.363.363 0 0 1-.37-.343.36.36 0 0 1 .347-.366c.195 0 .364.148.37.343Zm-2.235-4.976c.269.079.455.3.601.527.58.88.983 1.843 1.307 2.839.132.44-.541.646-.685.204-.252-.726-.501-1.455-.905-2.116-.175-.263-.287-.646-.582-.79-.433-.174-.175-.823.264-.662v-.002ZM135.675 94.188c-.593-2.725-1.98-4.563-4.559-5.711-1.287-.426-2.791-.565-4.035.045-.501.159-.882.476-1.229.856-.39.324-.633.755-.854 1.2-.55.788-.957 1.752-1.203 2.651-1.33 4.044.776 9.123 5.327 9.75 1.931.312 3.862-.658 5.017-2.15.295-.351.387-.848.716-1.162.754-1.722 1.324-3.636.817-5.48h.003Zm-4.121 7.801c-.578.516-1.309.746-2.054.746-.467 0-.937-.091-1.381-.252-2.184-.8-3.138-3.406-2.728-5.553.292-1.545 1.645-2.495 3.02-3.09a1.58 1.58 0 0 0-.017.234 1.012 1.012 0 0 0-.135.639c.034.24.132.47.275.669.109.156.255.297.419.394.203.119.438.179.67.215.106.017.209.026.312.026.198 0 .39-.031.582-.108.267-.102.527-.28.711-.499a2.47 2.47 0 0 0 .387-.663c.08-.196.146-.395.177-.602a.918.918 0 0 0 .02-.102c1.015.624 1.694 1.685 1.932 2.867.338 1.914-.516 4.027-2.184 5.076l-.006.003Z"/><path fill="#fff" d="M128.732 60.365c-.94-2.614-1.883-5.223-2.957-7.787-.548-1.19-.906-2.458-1.433-3.658-.722-1.432-1.209-2.969-1.966-4.384-1.269-2.56-2.453-5.206-3.9-7.67-3.109-4.714-6.59-9.29-10.977-12.904-2.585-2.175-5.499-3.802-8.522-5.271-1.519-.78-3.12-1.381-4.717-1.965-1.645-.576-3.315-1.183-5.049-1.421-1.561-.134-3.089-.392-4.65-.31-1.098.023-2.196-.084-3.27.06-2.768.3-5.61.502-8.296 1.262-1.739.496-3.455 1.066-5.06 1.906a34.502 34.502 0 0 0-6.513 3.647c-1.273.825-2.336 1.76-3.419 2.79-1.501 1.222-2.84 2.617-4.163 4.018-2.723 2.726-5.175 5.714-7.233 8.959-.507.72-1.08 1.392-1.602 2.1-1.152 1.62-2.06 3.395-3.137 5.06-1.095 1.738-2.066 3.542-3.164 5.277-.971 1.934-2.066 3.775-3.011 5.706-.99 2-2.03 3.993-2.98 6.017v.077c.223 2.38 1.679 4.676 3.853 5.76 3.256 1.701 6.688-1.285 8.204-3.999a.332.332 0 0 1 .138-.227c2.255-5.365 5.029-10.478 8.106-15.42 1.917-2.76 3.734-5.596 5.9-8.174 5.006-5.93 11.084-10.07 18.964-11.048 4.963-.377 10.07.295 14.52 2.598 2.054.84 3.934 1.99 5.716 3.3 1.43 1.09 2.828 2.28 3.871 3.75 2.809 2.912 4.929 6.372 6.846 9.9 1.152 1.947 2.138 3.98 3.201 5.974 1.017 2.371 1.897 4.793 2.742 7.229.135.448.275.89.419 1.333.017.045.037.09.054.136.96 1.613 2.324 3.13 4.244 3.539 1.412.329 2.905.323 4.298.712a.453.453 0 0 1 .097.06c.957.101 1.92.288 2.854.566a.416.416 0 0 1 .118 0c.189 0 .375-.05.547-.11 1.791-.8 2.341-3.091 1.906-4.847v.014c0 .009 0 .02.003.029v.006a9.536 9.536 0 0 0-.069-.406c-.172-.729-.341-1.455-.507-2.184h-.006ZM56.53 29.07c-.599.553-1.16 1.08-1.699 1.676-.616.677-1.126 1.451-1.682 2.172-.373.524-.894.95-1.21 1.514a.366.366 0 0 1-.452.224c-.842-.388.854-1.718 1.086-2.155 1.026-1.44 2.144-2.802 3.487-3.964.353-.298.82.22.47.536v-.003Zm2.19-1.688c-.195 0-.367-.13-.379-.331-.011-.185.14-.375.336-.375.194 0 .366.13.378.332.011.184-.14.374-.336.374Zm53.469 3.86c-.736-.786-1.427-1.656-2.286-2.311-.384-.224-.075-.811.329-.627.955.652 1.674 1.61 2.47 2.442.321.334-.18.825-.51.496h-.003Zm1.594 1.99a.358.358 0 0 1-.358-.354.358.358 0 0 1 .716 0 .36.36 0 0 1-.358.355Z"/><path fill="#F3F3F4" d="M138.219 85.879c-.567-.181-1.166-.267-1.733-.44a20.993 20.993 0 0 1-2.078-.385c-4.986-1.098-10.333-1.458-15.178.414-.928.34-1.848.743-2.774 1.137a.88.88 0 0 1-.157.088c-.874.63-1.88.973-2.834 1.452-1.353.652-2.473 1.857-2.665 3.363.043 1.222.154 2.445.372 3.63 1.017 4.106 2.748 8.037 4.788 11.729 1.39 2.529 2.717 5.172 4.711 7.293.232.253.476.497.725.729h.043c.255-.023.527-.125.748-.249.224-.21.39-.497.487-.769.336-.834.278-1.699.427-2.546.201-1.183.55-2.374 1.238-3.369 0 0 0 .005-.003.008.158-.303.679-.207.671.165.063.218-.075.419-.184.601-1.653 2.668-.848 6.136.634 8.686.971 1.265 2.286 2.158 3.567 3.077.172.107.344.21.519.317.481-.919 1.114-1.732 1.728-2.563 1.103-1.495 2.195-2.984 3.129-4.574 1.656-3.04 3.209-6.143 4.287-9.424 1.541-4.736 2.209-9.758 2.249-14.715.003-.133 0-.269 0-.402-.258-1.552-1.052-2.794-2.714-3.242l-.003-.011Zm-26.159 9.744c-.34-1.384-.455-2.859-.06-4.226a.36.36 0 0 1 .33-.363c.441-.002.441.42.315.715-.307 1.217-.18 2.516.115 3.72.097.452-.591.608-.7.154Zm.725 2.263c-.194 0-.349-.187-.338-.375.012-.2.184-.334.379-.334.194 0 .349.187.338.374-.012.201-.184.335-.379.335Zm22.42-9.446c.195 0 .35.184.344.368a.363.363 0 0 1-.373.34c-.194 0-.349-.184-.343-.368a.362.362 0 0 1 .372-.34Zm-5.946 15.27c-5.347-.592-7.725-6.411-6.032-11.079.55-1.608 1.39-3.236 2.731-4.327 1.914-1.265 4.542-1.154 6.45.056 1.25.724 2.347 1.733 3.023 3.012.599 1.307 1.109 2.728 1.141 4.177.04 1.943-.685 3.862-1.699 5.479-1.244 1.781-3.405 2.941-5.614 2.682Zm5.737 5.851c-.195 0-.35-.187-.338-.375.011-.201.183-.334.378-.334s.35.187.338.374c-.011.201-.183.335-.378.335Zm1.871-3.588c-.292.758-.516 1.546-.888 2.272a.37.37 0 0 1-.479.167.354.354 0 0 1-.169-.473c.247-.491.427-.99.608-1.503.131-.389.275-.752.421-1.106.132-.241.06-.647.43-.675.733.059.223.944.08 1.318h-.003Zm.441-13.31c-.189.016-.378-.131-.387-.324-.117-.84-.567-1.582-1.063-2.254a.356.356 0 0 1 .095-.494c.467-.26.69.428.928.706.224.417 1.264 2.238.43 2.365h-.003ZM17.465 67.86c.252.13.482.3.694.485a9.402 9.402 0 0 1 3.086 2.102c.27.26.498.555.73.847.078.103.175.216.258.335 1.296-1.438 2.76-2.544 4.359-3.3.054-.03.109-.057.154-.086.516-.329.983-.723 1.445-1.123 2.017-1.525 2.782-3.956 4.031-6.037a.423.423 0 0 1 .072-.105c.946-1.974 1.966-3.916 2.934-5.873 2.003-3.962 4.235-7.804 6.582-11.578 1.215-2.065 2.47-4.18 4.006-6.018 2.098-3.239 4.476-6.298 7.218-9.03 1.425-1.482 2.814-2.997 4.419-4.29 1.08-1.012 2.175-2.002 3.424-2.81 1.848-1.288 3.828-2.535 5.903-3.412 1.788-.876 3.608-1.673 5.54-2.189 2.49-.743 5.088-1.089 7.676-1.282 3.235-.433 6.524-.235 9.754.162 7.138 1.662 15.115 5.538 20.339 10.668 2.198 1.997 4.043 4.328 5.826 6.687 1.154 1.47 2.249 2.99 3.226 4.58 1.206 2.09 2.261 4.262 3.287 6.446a47.77 47.77 0 0 1 1.951 4.265c.891 1.766 1.45 3.666 2.247 5.473.917 2.144 1.647 4.347 2.49 6.516.289.76.481 1.546.65 2.337.012.026.026.045.032.074.051.264.103.53.152.797.054.255.106.51.163.765.295 1.257.685 2.49.951 3.755.258.975.525 1.945.777 2.92.003.012.009.023.011.035.023.068.046.136.066.204.04.213.198.516.215.763.069.068.141.136.209.204.659.664 1.367 1.293 2.032 1.957.685-.976 3.676-2.58 4.195-2.725.298-.14.599-.267.903-.389.126-.07.258-.142.389-.153.47-.176.946-.335 1.425-.474a.377.377 0 0 1 .111-.076c.227-.162.516-.281.72-.426.793-.456 1.109-1.367 1.573-2.1 1.063-1.807.911-3.98.659-5.967-.006-.346-.367-1.033-.261-1.415a7.248 7.248 0 0 1-.12-.684c-.098-2.257-.7-4.44-1.41-6.579-1.335-4.551-3.109-8.953-4.722-13.413-1.591-3.976-2.895-8.108-5.118-11.803-1.109-1.704-2.324-3.369-3.697-4.874-.836-.797-1.642-1.7-2.453-2.49-.684-.621-1.421-1.189-2.04-1.878-1.011-1.074-2.137-1.962-3.266-2.9-2.135-1.932-4.522-3.71-7.009-5.145a91.934 91.934 0 0 0-4.657-2.172c-1.286-.425-2.481-1.06-3.716-1.61-2.084-.871-4.098-1.861-6.253-2.516-2.298-.8-4.668-1.217-7.04-1.687C88.624.726 84.549.612 80.5.758c-2.23.033-4.516.138-6.728.365-2.304.51-4.645.845-6.88 1.622a36.837 36.837 0 0 0-9.327 3.933c-2.379 1.602-4.768 3.199-7.038 4.946-5.522 3.896-10.791 8.275-15.03 13.535-1.733 2.13-3.346 4.345-4.782 6.678a43.09 43.09 0 0 0-2.516 3.84c-.882 1.45-1.808 2.87-2.487 4.427-1.705 3.07-3.333 6.199-4.656 9.454-.622 1.29-1.33 2.535-1.734 3.92a73.356 73.356 0 0 0-2.089 5.569l-.072.173a.452.452 0 0 1-.046.11c-.005.014-.01.032-.02.046-.46 1.877-1.237 3.737-1.077 5.7 0 1.131.407 2.226 1.438 2.784h.01ZM141.168 51.17c.009.184-.146.371-.341.371-.195 0-.364-.136-.375-.337-.009-.184.146-.372.341-.372.195 0 .364.137.375.338Zm-2.808-6.775c.662-.351.759 1.021 1.011 1.407.413 1.134.814 2.277 1.195 3.423.144.436-.524.663-.679.224-.418-1.228-.834-2.473-1.298-3.684-.143-.278-.195-.601-.332-.88-.115-.155-.055-.388.103-.49ZM100.2 4.79c.195 0 .367.13.378.331.012.185-.14.375-.335.375s-.367-.13-.378-.332c-.011-.184.14-.374.335-.374Zm-6.608-1.742c1.585.352 3.227.548 4.743 1.14.441.156.215.817-.23.672-.888-.388-1.848-.521-2.788-.734-.742-.133-1.481-.38-2.237-.397a.361.361 0 0 1-.379-.335c-.005-.473.568-.388.891-.346ZM37.2 25.14c.195 0 .366.13.378.332.011.184-.14.374-.335.374s-.367-.13-.379-.331c-.011-.185.14-.375.336-.375Zm-4.62 5.765c.319-.436.631-.882.923-1.335.487-.86 1.072-1.656 1.682-2.428a.365.365 0 0 1 .496-.102c.16.105.215.335.103.49-.415.59-.92 1.112-1.264 1.748-.43.757-.954 1.454-1.444 2.175.003.286-.378.448-.59.252a.363.363 0 0 1-.12-.295c0-.19.111-.357.217-.508l-.002.003Zm-3.338 32.348c.195 0 .367.13.378.332.012.184-.14.374-.335.374s-.366-.13-.378-.331c-.012-.185.14-.375.335-.375ZM25.06 67.07c.833-.465 1.705-.89 2.37-1.588.318-.227.578-.958 1.042-.63.476.429-.71 1.24-.997 1.552-.805.686-1.805 1.089-2.699 1.644-.395.131-.774.865-1.192.471-.447-.573 1.097-1.185 1.476-1.449Z"/><path fill="#fff" d="M145.22 64.015v.035h.009c0-.012-.006-.023-.006-.035h-.003Z"/><path fill="#F3F3F4" d="M41.363 86.993a.516.516 0 0 1-.27-.022c-2.131.774-4.274 1.471-6.59 1.177-2.653-.375-5.034-1.776-7.436-2.879-1.836-.74-3.854-1.03-5.83-.887a.251.251 0 0 1-.081.014c-1.697.1-3.316 1.404-3.688 3.043-.034.23-.037.46-.037.689 0 .014 0 .028-.003.042 1.04 3.772 3.18 7.203 5.175 10.55.668 1.049 1.278 2.132 2.074 3.093.08.122.075.247.024.346-.003.014 0 .029-.01.043a.364.364 0 0 1-.423.229c-3.336-.34-6.433 1.274-9.193 2.944-5.089 3.156-8.155 8.173-9.545 13.861-.616 2.09-1.166 6.035-3.003 7.305.863.034 1.717.182 2.58.216.633-.011 1.26-.114 1.89-.153 2.545-.071 5.027-.678 7.368-1.628 5.183-2.201 9.625-6.04 12.96-10.498 1.1-1.429 2.023-2.989 2.69-4.654a.36.36 0 0 1 .33-.235c.253-.04.502.224.39.527-.123 2.176.138 4.444 1.026 6.435a18.75 18.75 0 0 0 1.25 2.155 18.643 18.643 0 0 0 7.564 5.119c3.052 1.134 6.379 1.069 9.517 1.866.736.195 1.49.402 2.146.796.705.417 1.218 1.07 1.773 1.648.284-1.066.731-2.135.76-3.238.146-3.023-.441-6.083-1.803-8.777-2.003-4.223-4.888-8.065-8.559-11a23.62 23.62 0 0 0-3.991-2.671c-.53-.19-.963-.602-1.51-.732a.361.361 0 0 1-.21-.15c-.524-.284.473-1.362.62-1.761.607-1.07 1.203-2.141 1.724-3.253.992-1.996 1.697-4.115 2.198-6.281.075-.616.095-1.248-.175-1.807-.303-.689-.896-1.426-1.693-1.474l-.009.002Zm-19.19 7.83c-.169.1-.387.04-.49-.127-.653-1.2-1.407-2.354-1.96-3.608-.36-.292.072-.84.441-.558.39.425.52 1.043.849 1.522.4.777.876 1.518 1.29 2.286.102.165.033.392-.13.485Zm.909 1.64a.36.36 0 0 1-.359-.355.36.36 0 0 1 .358-.355.36.36 0 0 1 .359.355.36.36 0 0 1-.359.354ZM6.53 121.21a.362.362 0 0 1-.366-.346.358.358 0 0 1 .35-.363c.194 0 .36.15.366.346a.358.358 0 0 1-.35.363Zm2.622-6.902c-.636 1.117-.957 2.413-1.332 3.618-.206.369-.029 1.265-.599 1.242-.186-.02-.347-.198-.318-.391.109-.873.464-1.676.656-2.518.373-1.052.734-2.17 1.51-3.009.2-.471.803-.377.742.128-.149.382-.46.581-.659.924v.006Zm24.59 3.062c-.4-.646-.852-1.27-1.09-1.996-.272-.856-.447-1.755-.61-2.62.037-.326.501-.411.67-.134.172.278.132.624.207.933.22 1.26.682 2.425 1.438 3.463.232.397-.375.754-.619.357l.003-.003Zm1.693 1.946a.36.36 0 0 1-.359-.355.36.36 0 0 1 .359-.354.36.36 0 0 1 .358.354.36.36 0 0 1-.358.355Z"/><path fill="#fff" d="M154.083 71.294c-1.287-.768-2.682-1.37-4.115-1.718-1.218-.215-2.496-.36-3.719-.343-1.703.13-3.413.388-5.049.876-.516.187-1.029.386-1.539.59-1.88 1.035-3.106 3.182-2.8 5.309a1.41 1.41 0 0 1-.005.453c.111.304.117.57-.129.69a.365.365 0 0 1-.488-.242 4.584 4.584 0 0 0-.584-1.131c-.969-1.6-2.467-2.785-3.78-4.095-2.576-2.668-6.441-3.848-10.103-3.78-2.519.11-4.843 1.472-6.465 3.332-1.069 1.075-1.865 2.362-2.605 3.675-.415.919-.682 1.895-1.083 2.819-.155.383-.341.754-.438 1.157-.029.179-.06.346-.083.49-.029.168-.012.366-.115.502-.086.278-.241.477-.556.395-.412-.193-.097-.638-.051-.956.02-.213.063-.42.117-.621.057-.287.123-.57.186-.86.376-1.474-.106-3.014-.911-4.253-.347-.45-.733-.825-1.229-1.1a.395.395 0 0 1-.106-.088c-5.121-1.778-10.554-1.234-14.015 3.573-.768 1.024-1.095 2.345-1.339 3.567-.335 2.964.958 5.919 2.671 8.275 1.745 2.317 3.86 4.49 6.588 5.615 1.622.672 3.378 1.05 5.132 1.214.074-.051.155-.1.238-.14.885-.623 1.584-1.46 1.928-2.492.393-1.015-.309-2.044-1.069-2.677-1.014-.913-2.352-1.338-3.467-2.107-.742-.454-1.318-1.109-1.943-1.704-.057-.048-.123-.102-.18-.165-.049-.034-.095-.07-.143-.105-.341-.289.06-.822.438-.558a.89.89 0 0 1 .232.173c.725.556 1.39 1.259 2.192 1.667 1.505.729 3.227 1.024 4.872.984 2.278-.014 4.321-1.103 6.395-1.888 4.654-2.224 9.955-2.669 15.004-1.756 1.513.239 3.026.633 4.539.862.037 0 .074.006.115.017.1.014.2.031.3.043 3.261.349 6.565-.179 9.118-2.32.347-.306.717-.604 1.026-.938 0 0 0-.003.003-.006-.02-.496.742-.474.739.008 0 .009-.005.017-.008.029a.63.63 0 0 1-.146.385c-.232.46-.636.851-.992 1.211-1.544 1.543-4.072 2.467-4.536 4.798-.08.814.066 1.705.487 2.41.293.455.751.78 1.152 1.118.129.125.33.193.487.29 6.387-.267 13.268-4.266 14.001-10.865.109-1.755-.203-3.57-.63-5.257-.625-1.784-1.96-3.335-3.542-4.364l.003.002ZM94.787 80.84c.195 0 .356.173.35.363a.36.36 0 0 1-.367.346.356.356 0 0 1-.35-.363.36.36 0 0 1 .367-.346Zm1.06 5.484c-.355-.456-2.06-3.683-1.077-3.822a.365.365 0 0 1 .396.314c.183 1.203.727 2.357 1.435 3.313.08.484-.533.575-.753.195Zm21.77-14.68a.361.361 0 0 1-.37-.344.36.36 0 0 1 .347-.366.36.36 0 0 1 .369.344.36.36 0 0 1-.346.365Zm4.753-1.952c-.724-.107-1.395.034-2.071.27a7.74 7.74 0 0 0-1.032.502.365.365 0 0 1-.493-.111c-.263-.559.625-.703.969-.927.868-.369 1.822-.579 2.768-.428.653-.023.481.862-.141.697v-.003Zm33.871 12.506a.36.36 0 0 1-.359-.354.36.36 0 0 1 .359-.355.36.36 0 0 1 .358.355.36.36 0 0 1-.358.354Zm.372-1.76c-.183-.026-.344-.21-.307-.4.215-1.487-.203-3.038-.831-4.368-.544-.371.161-.978.542-.48.513.957.877 2.029.983 3.109.034.468.358 2.18-.387 2.138Z"/><path fill="#000" d="M153.292 70.055c-2.032-1.043-4.33-1.537-6.622-1.523.143-.632-.267-2.021-.355-2.688-.393-1.778-.585-3.641-1.213-5.362-.449-1.398-.452-2.859-.661-4.308-.485-2.05-1.101-4.064-1.763-6.066-.53-1.707-1.049-3.414-1.736-5.067-1.169-3.185-2.33-6.372-3.582-9.526a42.413 42.413 0 0 0-2.052-5.087c-2.023-4.985-5.636-9.165-9.679-12.67-1.611-1.758-3.528-3.188-5.299-4.776a54.602 54.602 0 0 0-4.708-3.397c-2.45-1.472-5.137-2.507-7.765-3.61-2.805-1.319-5.639-2.606-8.605-3.53-2.287-.735-4.662-1.14-7.012-1.608-3.777-.82-7.657-.92-11.508-.789-2.384.037-4.79.12-7.158.394-1.467.352-2.96.576-4.433.908-1.404.38-2.79.825-4.192 1.22-2.476.836-4.897 1.842-7.155 3.158-1.696.959-3.215 2.187-4.84 3.253-1.077.686-2.069 1.492-3.092 2.254-5.226 3.701-10.206 7.836-14.313 12.75-2.083 2.473-3.96 5.105-5.68 7.838-1.237 1.617-2.194 3.412-3.28 5.13-.361.57-.702 1.149-.994 1.761-.493 1.126-1.138 2.17-1.726 3.247-.799 1.588-1.587 3.188-2.378 4.781a74.96 74.96 0 0 1-2.306 5.014c-.528 1.56-1.195 3.065-1.771 4.608a71.947 71.947 0 0 1-1.849 4.872c-.475 1.225-1.051 2.476-1.495 3.749-.364.802-.347 1.755-.829 2.498a.374.374 0 0 0-.068.159 11.135 11.135 0 0 0-5.405 2.101C4.556 71.85 1.926 75.041.82 78.722c-.548 1.843-.989 3.794-.763 5.722.745 6.247 6.11 10.03 12.196 10.385 1.83.008 3.694-.051 5.459-.573.298-.082.599-.167.905-.219.123-.014.275-.034.413-.073.493.927 1.031 1.832 1.544 2.748.986 1.659 1.957 3.403 3.112 4.974-2.79-.088-5.479 1.032-7.843 2.421-2.857 1.569-5.367 3.764-7.25 6.412-1.876 2.646-3.034 5.706-3.83 8.822-.313 1.245-.58 2.428-.995 3.661-.335.95-.604 1.988-1.35 2.72-.295.377-1.323.592-1.108 1.174.086.178.286.249.47.281 1.097.107 2.197.209 3.3.292 3.05-.151 6.107-.443 8.964-1.605 5.946-2.312 10.889-6.764 14.542-11.88.172-.252.335-.51.493-.774.137.533.324 1.055.519 1.571.65 1.591 1.639 3.006 2.785 4.285.031.043.057.091.089.133.043.06.091.1.146.122a26.94 26.94 0 0 0 1.521 1.506c2.287 2.087 5.155 3.511 8.161 4.265 3.084.729 6.373.613 9.319 1.869.946.431 1.43 1.424 2.275 1.968.467.264.74-.201.797-.598.1-.392.22-.774.343-1.16.536-1.475.505-3.063.413-4.605-.172-3.23-1.43-6.245-3.04-9.038-2.98-5.249-7.496-9.852-13.058-12.373.203-.357.415-.711.616-1.069 1.083-1.874 2.063-3.814 2.828-5.839.012.003.023.012.035.015 2.905 1 5.865 1.914 8.957 2.095 9.628.57 14.777-3.993 14.388-13.668-.2-3.494-1.147-8.295-3.596-10.938-.96-.862-2.132-1.452-3.339-1.9a11.601 11.601 0 0 0-.593-.227c.479-1.375.888-2.776 1.416-4.134 2.111-6.1 4.885-12.126 9.135-17.075 3.138-3.283 7.768-5.124 12.341-4.81 2.433.423 4.771 1.612 6.8 3.004 1.373 1.089 2.539 2.4 3.642 3.746 2.347 2.626 4.006 5.774 5.456 8.958.616 1.398 1.115 2.847 1.62 4.288.005.031.013.062.02.094 0 .008 0 .02.002.028 0 .008.006.014.006.023.2.958.404 1.914.63 2.87.284 1.321.576 2.637.857 3.958.046.133.063.298.129.426-1.287.26-2.528.743-3.65 1.5-1.571.97-2.88 2.365-3.786 3.959-.605 1.395-1.046 2.906-.98 4.44.235 3.029 1.608 5.893 3.565 8.204 1.189 1.427 2.467 2.828 4.057 3.823 2.98 1.996 6.66 2.53 10.187 2.55.135.005.269-.02.404-.006h.009c.295 1.313.753 2.597 1.183 3.862.997 2.793 2.298 5.465 3.731 8.062 2.398 4.588 4.822 8.618 9.737 10.912a.334.334 0 0 0 .175.068c1.172 1.299 2.662 2.3 4.14 3.233.261.187.536-.02.568-.258.137-.176.229-.445.341-.613.997-1.639 2.292-3.079 3.321-4.704.796-1.12 1.547-2.351 2.134-3.602 1.387-2.543 2.611-5.243 3.522-7.999 1.264-3.891 1.946-7.966 2.181-12.052.063.008.126.011.183.017.651.056 1.304.082 1.954.116 6.548-.037 13.967-4.021 15.188-10.833.326-1.886-.066-3.786-.399-5.64-.676-2.638-2.722-4.84-5.183-5.984h.011Zm-8.075-6.04s.006.023.006.034h-.009v-.034h.003Zm-128.116-4.64c.006-.014.012-.03.02-.045a.363.363 0 0 0 .046-.11l.072-.173c.624-1.9 1.31-3.715 2.089-5.57.407-1.384 1.111-2.626 1.733-3.919 1.324-3.252 2.952-6.383 4.657-9.454.679-1.557 1.604-2.98 2.487-4.427a43.074 43.074 0 0 1 2.516-3.84c1.436-2.336 3.049-4.551 4.782-6.678 4.238-5.26 9.508-9.639 15.03-13.535 2.27-1.75 4.66-3.346 7.038-4.946a37.044 37.044 0 0 1 9.327-3.933c2.235-.777 4.576-1.112 6.88-1.622 2.209-.227 4.496-.332 6.728-.366 4.049-.142 8.123-.028 12.086.87 2.373.471 4.743.888 7.04 1.688 2.156.655 4.17 1.642 6.253 2.515 1.233.55 2.427 1.189 3.717 1.611 1.544.67 3.146 1.41 4.656 2.172 2.49 1.435 4.875 3.213 7.009 5.144 1.129.94 2.255 1.827 3.267 2.901.619.692 1.352 1.26 2.04 1.878.811.794 1.616 1.693 2.453 2.49 1.373 1.503 2.588 3.17 3.697 4.874 2.226 3.693 3.527 7.827 5.117 11.803 1.614 4.46 3.387 8.859 4.723 13.413.71 2.138 1.312 4.322 1.409 6.58.029.229.072.456.121.683-.106.382.255 1.069.261 1.415.255 1.988.404 4.16-.66 5.966-.464.735-.782 1.645-1.573 2.101-.203.148-.493.264-.719.426a.396.396 0 0 0-.112.076c-.478.14-.954.295-1.424.474-.134.008-.266.08-.39.153-.3.122-.604.25-.902.389-.519.144-3.51 1.75-4.195 2.725-.668-.664-1.376-1.293-2.032-1.957-.069-.07-.14-.136-.209-.204-.017-.25-.175-.55-.215-.763-.02-.068-.043-.136-.066-.204l-.011-.034c-.252-.976-.519-1.945-.777-2.921-.266-1.265-.656-2.498-.951-3.755-.057-.255-.112-.51-.164-.765-.048-.267-.1-.533-.151-.797-.006-.029-.02-.048-.032-.074-.172-.791-.364-1.577-.65-2.337-.843-2.169-1.574-4.375-2.49-6.516-.794-1.807-1.356-3.706-2.247-5.473a46.926 46.926 0 0 0-1.951-4.265c-1.026-2.184-2.081-4.353-3.287-6.446-.977-1.59-2.075-3.11-3.227-4.58-1.782-2.36-3.627-4.69-5.825-6.687-5.224-5.13-13.201-9.006-20.34-10.668-3.229-.397-6.518-.598-9.754-.162-2.587.19-5.186.54-7.676 1.282-1.931.516-3.751 1.313-5.54 2.19-2.074.876-4.054 2.123-5.902 3.411-1.252.805-2.347 1.798-3.424 2.81-1.605 1.293-2.992 2.808-4.419 4.29-2.742 2.732-5.123 5.791-7.218 9.03-1.536 1.835-2.791 3.953-4.006 6.017-2.344 3.775-4.576 7.617-6.582 11.579-.968 1.96-1.989 3.9-2.934 5.873-.026.031-.052.062-.072.105-1.25 2.081-2.014 4.512-4.032 6.037-.46.4-.928.794-1.444 1.123-.046.026-.1.054-.154.085-1.6.757-3.064 1.863-4.359 3.301-.083-.119-.183-.232-.258-.335-.232-.292-.464-.587-.73-.847a9.433 9.433 0 0 0-3.087-2.102 3.653 3.653 0 0 0-.693-.485c-1.032-.561-1.439-1.653-1.439-2.784-.163-1.96.616-3.823 1.078-5.7H17.1Zm112.207 3.571s0-.02-.003-.028v-.015c.433 1.756-.115 4.047-1.906 4.847-.171.06-.358.113-.547.11a.402.402 0 0 0-.117 0 15.986 15.986 0 0 0-2.854-.567c-.029-.022-.058-.045-.098-.06-1.392-.388-2.885-.382-4.298-.711-1.92-.409-3.284-1.926-4.244-3.54-.017-.044-.034-.09-.054-.135-.141-.443-.284-.888-.419-1.333-.842-2.436-1.725-4.858-2.742-7.229-1.063-1.993-2.049-4.026-3.201-5.974-1.917-3.531-4.037-6.99-6.845-9.9-1.043-1.47-2.442-2.657-3.871-3.75-1.78-1.31-3.663-2.46-5.717-3.3-4.45-2.303-9.556-2.978-14.52-2.598-7.882.976-13.957 5.119-18.963 11.049-2.167 2.577-3.983 5.413-5.9 8.172-3.078 4.94-5.852 10.056-8.107 15.421a.332.332 0 0 0-.137.227c-1.52 2.717-4.95 5.7-8.204 3.999-2.175-1.084-3.63-3.38-3.854-5.76v-.076c.954-2.025 1.991-4.019 2.98-6.018.945-1.931 2.04-3.772 3.011-5.706 1.098-1.732 2.07-3.539 3.164-5.277 1.077-1.664 1.986-3.44 3.138-5.059.521-.709 1.094-1.381 1.601-2.101 2.058-3.247 4.51-6.233 7.233-8.959 1.324-1.398 2.662-2.796 4.163-4.018 1.084-1.026 2.147-1.962 3.419-2.79a34.508 34.508 0 0 1 6.513-3.647c1.605-.84 3.324-1.41 5.06-1.906 2.686-.757 5.528-.961 8.296-1.262 1.075-.144 2.175-.037 3.27-.06 1.561-.081 3.089.174 4.65.31 1.737.238 3.405.845 5.05 1.42 1.596.585 3.197 1.189 4.716 1.966 3.023 1.469 5.937 3.094 8.522 5.272 4.387 3.615 7.869 8.19 10.978 12.902 1.447 2.465 2.63 5.11 3.9 7.671.756 1.415 1.243 2.952 1.965 4.384.528 1.2.886 2.468 1.433 3.658 1.075 2.567 2.017 5.176 2.957 7.788.166.726.335 1.454.507 2.183.026.133.052.27.069.406v-.006h.006ZM43.232 90.275c-.502 2.166-1.207 4.281-2.198 6.28-.522 1.112-1.12 2.184-1.725 3.253-.143.4-1.14 1.478-.62 1.761a.36.36 0 0 0 .21.151c.547.13.98.541 1.51.731a23.505 23.505 0 0 1 3.992 2.672c3.67 2.935 6.559 6.777 8.559 11 1.364 2.694 1.948 5.753 1.802 8.776-.026 1.101-.475 2.173-.759 3.239-.559-.579-1.069-1.231-1.774-1.648-.656-.394-1.407-.604-2.146-.797-3.138-.796-6.465-.728-9.516-1.866a18.63 18.63 0 0 1-7.565-5.118 18.75 18.75 0 0 1-1.25-2.155c-.888-1.991-1.146-4.26-1.025-6.435.111-.303-.138-.564-.39-.527a.36.36 0 0 0-.33.235c-.664 1.665-1.59 3.222-2.69 4.654-3.336 4.455-7.777 8.297-12.96 10.498-2.342.95-4.823 1.557-7.368 1.628-.63.039-1.258.141-1.891.153-.863-.034-1.717-.182-2.58-.216 1.838-1.27 2.388-5.215 3.004-7.305 1.39-5.688 4.456-10.702 9.545-13.861 2.76-1.67 5.854-3.284 9.192-2.944a.364.364 0 0 0 .424-.229c.006-.015.003-.029.009-.043a.331.331 0 0 0-.023-.346c-.797-.961-1.407-2.044-2.075-3.094-1.994-3.349-4.135-6.777-5.175-10.549l.003-.042c0-.23 0-.463.037-.69.37-1.639 1.992-2.943 3.688-3.042a.25.25 0 0 0 .08-.014c1.978-.142 3.995.15 5.832.887 2.401 1.103 4.782 2.504 7.436 2.878 2.315.292 4.461-.402 6.59-1.176.075.028.164.04.27.022.8.049 1.39.786 1.693 1.475.27.556.25 1.188.175 1.806l.009-.002Zm18.932-17.948c.722.731 1.149 1.687 1.584 2.603 1.694 4.25 2.396 9.111 1.075 13.555-1.344 4.838-5.376 6.948-10.204 7.158-2.808.198-5.602-.239-8.301-1.004-1.6-1.498-2.76-3.979-1.588-6.06 1.106-1.478 3.095-2.141 4.903-2.187.986-.065 1.929.355 2.765.848.132.1.267.193.401.284.052.045.107.088.152.133.255.207.536.542.903.45a.359.359 0 0 0 .235-.444.355.355 0 0 0-.212-.221.368.368 0 0 0-.109-.091c-.123-.085-.258-.233-.401-.304a7.686 7.686 0 0 0-.11-.073l-.005-.006c-1.983-1.707-4.797-2.331-7.376-2.121a10.934 10.934 0 0 0-1.742.329c-1.928.513-3.75 1.435-5.682 1.948-1.656.386-3.424.547-5.092.1-1.367-.483-2.728-.996-4.026-1.646-3.553-1.987-7.513-2.51-11.425-1.276-1.243.315-2.478.692-3.619 1.285-.547.28-1.069.612-1.627.868a.787.787 0 0 0-.281.124c-.006 0-.012.006-.017.009-.43.201-.115.794.275.652a.342.342 0 0 0 .12-.05.807.807 0 0 1 .072-.032 4.114 4.114 0 0 1 1.163-.125c2.754-.031 3.791 3.403 2.527 5.482-.252.479-.673.828-.982 1.262-.075.08-.16.15-.221.23-3.45.422-7.092-.194-10-2.162-1.052-.793-2.047-1.641-2.806-2.727-1.069-1.725-1.78-3.704-1.81-5.743.157-3.122 1.097-6.273 3.014-8.785 1.902-2.646 4.622-4.83 7.748-5.919 1.788-.493 3.627-.496 5.318-.028.083.051.186.08.272.125 1.92 1.188 3.1 3.545 2.708 5.79a8.307 8.307 0 0 1-.197.99.95.95 0 0 0-.066.179c-.124.187-.255.371-.384.55-.112.159-.052.388.109.49a.366.366 0 0 0 .495-.107c.384-.513.708-1.06.998-1.628.355-.67.914-1.2 1.28-1.863.015-.034.035-.065.052-.1.008-.008.017-.02.023-.025.444-.556.9-1.1 1.395-1.605.095-.082.19-.164.281-.25.118-.121.24-.238.364-.351a7.73 7.73 0 0 1 .413-.332l-.006.006c1.676-1.248 3.674-2.099 5.74-2.535a12.69 12.69 0 0 1 4.18.099c2.072.267 3.932 1.285 5.737 2.26 2.78 1.602 5.797 3.61 6.889 6.76.08.176.315.242.481.156.172-.093.198-.297.143-.555a.765.765 0 0 0-.028-.369c-.645-2.209.407-4.775 2.47-5.867.132-.048.26-.102.392-.148 2.187-.416 4.485-.924 6.694-.374 1.765.508 3.57 1.154 4.949 2.4l-.003-.012Zm37.712-8.519c-.04-.12-.083-.258-.157-.36-.628-2.257-1.605-4.415-2.61-6.534-1.25-2.504-2.683-4.894-4.557-6.998-1.117-1.367-2.347-2.748-3.745-3.854-2.158-1.486-4.599-2.737-7.212-3.165-5.118-.355-10.342 1.883-13.597 5.802-3.006 3.797-5.281 8.105-7.118 12.571-.063.125-.114.26-.172.388-1.579 3.656-5.043 6.307-8.8 7.558-.163.05-.367.125-.573.196-.051 0-.1.017-.146.034-.28.05-.562.107-.842.173-.032.01-.063.022-.095.034-.023 0-.043 0-.066.008-.109.04-.215.088-.32.136-1.815.68-3.588 1.634-5.01 2.938a19.153 19.153 0 0 0-2.298-1.786.338.338 0 0 0 .115-.13c.12-.259.235-.52.34-.784.365-.935.631-1.905 1.05-2.821 1.415-3.378 2.845-6.752 4.498-10.022 1.582-3.102 3.382-6.083 5.198-9.066 1.278-1.795 2.49-3.63 3.763-5.427 5.103-6.812 11.419-12.05 20.179-13.193 3.991-.337 8.135-.017 11.903 1.413 1.63.666 3.295 1.446 4.888 2.223 2.27 1.347 4.47 2.89 6.25 4.84.673.973 1.593 1.835 2.347 2.757 2.02 2.459 3.653 5.286 5.192 8.068 1.129 1.954 2.135 3.97 3.178 5.97.948 2.276 1.799 4.584 2.607 6.913.095.351.201.7.31 1.049 0 .057.014.113.049.173.017.085.051.179.097.28.436 1.333.937 2.646 1.364 3.982.221.638.424 1.29.734 1.892-.264.192-.522.394-.768.612-1.35 1.186-2.43 2.618-3.353 4.143-.241-.221-.576-.414-.734-.567-.931-.729-2.031-1.151-3.146-1.52-.146-.051-.295-.096-.441-.144-.207-.213-.674-.301-.917-.42-.745-.287-1.51-.508-2.227-.862-2.968-1.648-4.146-3.307-5.166-6.491l.008-.009Zm41.051 25.718c-.04 4.957-.71 9.979-2.249 14.715-1.075 3.281-2.63 6.383-4.287 9.423-.934 1.591-2.023 3.083-3.129 4.574-.613.834-1.246 1.645-1.728 2.564-.172-.105-.346-.21-.518-.318-1.281-.919-2.597-1.812-3.568-3.077-1.481-2.546-2.287-6.017-.633-8.686.109-.181.246-.383.183-.601.006-.369-.516-.468-.67-.164 0 0 0-.006.003-.009-.688.995-1.038 2.186-1.238 3.369-.152.848-.095 1.713-.427 2.547a2.012 2.012 0 0 1-.487.768 1.966 1.966 0 0 1-.748.25h-.043c-.25-.236-.493-.477-.725-.729-1.995-2.124-3.321-4.764-4.711-7.294-2.04-3.692-3.768-7.623-4.788-11.729-.218-1.185-.327-2.407-.373-3.63.195-1.502 1.313-2.71 2.665-3.363.954-.476 1.96-.822 2.834-1.452a.875.875 0 0 0 .158-.088c.925-.394 1.845-.796 2.773-1.137 4.846-1.871 10.19-1.511 15.179-.414.679.162 1.375.292 2.077.386.568.173 1.167.258 1.734.44 1.662.448 2.456 1.69 2.714 3.24v.403l.002.012Zm17.322-8.61c-.733 6.596-7.613 10.598-14 10.864-.158-.096-.356-.164-.488-.289-.401-.338-.862-.66-1.152-1.117-.421-.706-.567-1.597-.487-2.41.467-2.335 2.992-3.259 4.536-4.799.356-.357.76-.751.992-1.21a.656.656 0 0 0 .146-.386c0-.009.006-.017.009-.029.002-.482-.76-.505-.74-.008 0 0 0 .003-.003.005-.312.335-.682.636-1.025.939-2.554 2.141-5.857 2.668-9.118 2.32l-.301-.043a.417.417 0 0 0-.115-.017c-1.513-.23-3.026-.62-4.539-.862-5.049-.913-10.35-.47-15.003 1.755-2.078.786-4.121 1.875-6.396 1.89-1.645.039-3.367-.256-4.872-.985-.805-.408-1.467-1.112-2.192-1.667a.873.873 0 0 0-.232-.173c-.378-.264-.779.269-.438.558.049.034.094.071.143.105.06.06.123.117.181.165.624.595 1.2 1.25 1.942 1.704 1.115.771 2.453 1.194 3.468 2.107.759.635 1.461 1.665 1.068 2.677-.343 1.032-1.043 1.869-1.928 2.493a2.05 2.05 0 0 0-.238.139c-1.754-.165-3.51-.545-5.132-1.214-2.728-1.129-4.843-3.298-6.588-5.615-1.713-2.356-3.006-5.311-2.67-8.275.246-1.222.57-2.543 1.338-3.567 3.464-4.807 8.894-5.351 14.015-3.573a.42.42 0 0 0 .106.088c.496.272.883.646 1.229 1.1.805 1.24 1.287 2.776.911 4.254-.063.289-.128.572-.186.859a3.81 3.81 0 0 0-.117.62c-.046.318-.361.764.051.956.316.08.467-.119.556-.394.103-.136.083-.334.115-.502.026-.141.054-.312.083-.49.097-.403.284-.774.438-1.157.402-.925.671-1.9 1.084-2.819.739-1.31 1.535-2.598 2.604-3.675 1.622-1.86 3.946-3.222 6.465-3.332 3.662-.068 7.527 1.111 10.103 3.78 1.313 1.31 2.812 2.495 3.78 4.095.238.354.447.726.585 1.131a.364.364 0 0 0 .487.241c.246-.119.24-.385.129-.689a1.41 1.41 0 0 0 .005-.454c-.306-2.126.92-4.276 2.8-5.308.51-.207 1.023-.403 1.539-.59 1.636-.488 3.347-.746 5.049-.876 1.22-.014 2.501.127 3.719.343 1.43.349 2.826.95 4.115 1.718 1.582 1.03 2.917 2.58 3.542 4.365.427 1.687.742 3.499.63 5.257l-.003-.003Z"/><path fill="#000" d="M136.572 95.546c-.032-1.449-.542-2.87-1.141-4.177-.676-1.279-1.771-2.286-3.023-3.012-1.908-1.21-4.536-1.321-6.45-.056-1.344 1.091-2.181 2.72-2.731 4.327-1.693 4.668.685 10.487 6.032 11.08 2.209.255 4.37-.902 5.614-2.683 1.014-1.617 1.739-3.536 1.699-5.479Zm-2.43 5.283c-1.155 1.492-3.086 2.462-5.018 2.15-4.55-.63-6.659-5.706-5.326-9.75.246-.901.65-1.863 1.203-2.651.221-.445.464-.876.854-1.2.347-.38.725-.697 1.229-.856 1.244-.61 2.748-.47 4.035-.046 2.582 1.149 3.969 2.984 4.559 5.712.51 1.846-.06 3.757-.817 5.479-.329.314-.424.811-.716 1.162h-.003Z"/><path fill="#000" d="M131.807 94.046c-.006.034-.012.068-.021.102-.031.207-.1.403-.177.601a2.467 2.467 0 0 1-.387.664 1.78 1.78 0 0 1-.711.499 1.586 1.586 0 0 1-.581.108c-.103 0-.207-.009-.313-.026a1.931 1.931 0 0 1-.67-.215 1.356 1.356 0 0 1-.419-.394 1.615 1.615 0 0 1-.275-.67c-.034-.23.029-.442.135-.638 0-.08.009-.159.017-.235-1.375.595-2.728 1.548-3.02 3.09-.41 2.148.542 4.754 2.728 5.553.444.165.914.253 1.381.253.745 0 1.476-.227 2.055-.746 1.667-1.049 2.524-3.162 2.183-5.076-.241-1.183-.917-2.243-1.931-2.867l.006-.003ZM32.489 119.205l-.009-.014.009.014ZM156.017 75.19c-.381-.495-1.086.112-.542.48.631 1.33 1.046 2.881.831 4.367-.037.19.124.375.307.4.745.043.421-1.667.387-2.138-.106-1.08-.47-2.152-.983-3.108ZM156.241 82.195a.357.357 0 0 0 .358-.354.357.357 0 0 0-.358-.355.357.357 0 0 0-.359.355c0 .196.161.354.359.354ZM122.511 68.995c-.943-.148-1.897.06-2.768.428-.344.224-1.232.371-.969.927.106.17.327.207.493.11.333-.19.674-.36 1.032-.501.676-.238 1.347-.377 2.071-.27.622.165.794-.72.141-.697v.003ZM117.594 70.934a.358.358 0 0 0-.347.366.361.361 0 0 0 .37.343.357.357 0 0 0 .346-.365.36.36 0 0 0-.369-.344ZM94.767 82.502c-.985.139.722 3.366 1.078 3.822.223.38.834.29.753-.195-.707-.956-1.252-2.113-1.435-3.313a.365.365 0 0 0-.396-.314ZM94.77 81.549c.195 0 .361-.15.367-.346a.358.358 0 0 0-.35-.363.362.362 0 0 0-.366.346.358.358 0 0 0 .35.363ZM136.79 104.652c-.367.028-.298.431-.43.675-.146.354-.29.717-.421 1.106-.181.516-.359 1.012-.608 1.503a.354.354 0 0 0 .169.473.365.365 0 0 0 .479-.167c.372-.726.596-1.514.888-2.271.143-.375.653-1.259-.08-1.319h.003ZM135.036 108.849c-.195 0-.367.133-.378.334-.012.185.143.375.338.375.195 0 .367-.133.378-.335.012-.184-.143-.374-.338-.374ZM112.76 95.47c-.298-1.206-.422-2.504-.115-3.72.126-.293.126-.718-.315-.716a.36.36 0 0 0-.33.363c-.398 1.367-.281 2.842.06 4.226.109.453.797.297.7-.153ZM112.826 97.177c-.195 0-.367.133-.379.334-.011.185.144.375.339.375.194 0 .366-.134.378-.335.011-.184-.144-.374-.338-.374ZM135.956 89.591a.358.358 0 0 0-.095.494c.496.672.946 1.415 1.063 2.254.009.193.198.34.387.323.837-.125-.203-1.948-.43-2.365-.238-.278-.461-.967-.928-.706h.003ZM135.176 89.149c.195 0 .364-.14.373-.34.008-.188-.146-.37-.344-.37-.198 0-.364.14-.373.341-.008.187.147.369.344.369ZM138.589 45.764c.464 1.21.88 2.453 1.298 3.684.155.44.823.212.679-.224a132.583 132.583 0 0 0-1.195-3.423c-.252-.386-.349-1.756-1.011-1.407-.158.102-.218.335-.103.49.137.279.189.6.332.88ZM140.455 51.203c.011.201.18.337.375.337s.35-.187.341-.371c-.012-.201-.181-.337-.375-.337-.195 0-.35.187-.341.371ZM93.077 3.729c.756.014 1.493.264 2.238.397.94.213 1.9.346 2.788.735.444.147.67-.517.229-.673-1.516-.59-3.158-.788-4.742-1.14-.324-.042-.897-.127-.892.346.012.196.184.34.379.335ZM100.24 5.499c.195 0 .347-.19.336-.375-.012-.201-.184-.332-.379-.332-.194 0-.346.19-.335.375.012.201.184.332.378.332ZM33.07 31.455c.49-.718 1.015-1.415 1.445-2.175.344-.639.85-1.16 1.263-1.747a.354.354 0 0 0-.103-.49.366.366 0 0 0-.495.101c-.614.769-1.195 1.568-1.682 2.428-.293.453-.602.899-.923 1.335-.106.15-.218.318-.218.508a.362.362 0 0 0 .12.295c.212.195.596.034.59-.253l.004-.002ZM37.24 25.848c.195 0 .346-.19.335-.374-.011-.201-.183-.332-.378-.332s-.347.19-.335.374c.011.202.183.332.378.332ZM24.772 68.053c.894-.553 1.894-.958 2.7-1.644.286-.312 1.472-1.123.997-1.552-.465-.329-.728.403-1.043.63-.665.698-1.536 1.123-2.37 1.588-.378.264-1.923.876-1.476 1.449.421.397.797-.34 1.192-.47ZM29.28 63.964c.194 0 .346-.19.335-.374-.012-.202-.184-.332-.378-.332-.195 0-.347.19-.336.374.012.202.184.332.378.332ZM56.06 28.537c-1.344 1.162-2.464 2.524-3.487 3.964-.232.437-1.926 1.764-1.086 2.155.183.063.39-.04.453-.224.315-.564.834-.99 1.209-1.514.556-.72 1.069-1.495 1.682-2.172.539-.593 1.1-1.123 1.7-1.676.349-.312-.118-.834-.47-.536v.003ZM58.676 26.676c-.194 0-.346.19-.335.375.012.2.184.331.378.331.195 0 .347-.19.336-.374-.012-.201-.184-.332-.379-.332ZM110.232 28.304c-.404-.184-.713.405-.329.627.859.655 1.55 1.525 2.286 2.31.33.33.834-.16.511-.495-.794-.831-1.516-1.79-2.471-2.442h.003ZM113.78 32.524a.36.36 0 0 0-.358.354.36.36 0 0 0 .358.355.36.36 0 0 0 .358-.355.36.36 0 0 0-.358-.354ZM106.616 49.377c.559.899 1.057 1.832 1.545 2.767.232.403.848.063.627-.343-.527-.992-1.034-1.999-1.659-2.938-.438-.575-1.129.08-.51.514h-.003ZM108.662 53.31a.358.358 0 0 0 .716.006.358.358 0 0 0-.716-.006ZM77.061 30.825c-.584.156-4.65.442-3.776 1.466a.364.364 0 0 0 .504-.042c1.023-.42 2.218-.528 3.33-.718.467-.045.41-.74-.055-.706h-.003ZM78.95 30.82c-.195 0-.367.133-.378.334-.012.184.143.374.338.374.195 0 .367-.133.378-.334.011-.185-.143-.375-.338-.375ZM47.905 61.905a.36.36 0 0 0-.464.202c-.332.856-.7 1.698-1.055 2.543-.134.219-.237.536.012.718.22.17.573.003.57-.275.318-.661.553-1.362.863-2.028.097-.354.561-.922.071-1.16h.003ZM48.495 60.212c.13.542.872.287.691-.227-.129-.538-.871-.286-.69.227ZM60.731 73.872c.295.145.407.528.582.791.401.661.65 1.39.905 2.116.146.442.817.235.685-.204-.326-.996-.728-1.96-1.306-2.839-.147-.224-.333-.448-.602-.527-.439-.162-.697.487-.264.66v.003ZM62.513 78.208a.36.36 0 0 0 .37.343.358.358 0 0 0 .347-.365.36.36 0 0 0-.37-.344.358.358 0 0 0-.347.366ZM46.149 88.556c-.344-.04-.396.329-.502.564-.378.854-.246 1.77.014 2.635.05.187.267.292.447.238a.363.363 0 0 0 .241-.442c-.109-.488-.295-.99-.212-1.515-.017-.456.725-1.313.012-1.48ZM46.808 92.47a.358.358 0 0 0-.347.365.36.36 0 0 0 .37.343.358.358 0 0 0 .346-.365.36.36 0 0 0-.37-.344ZM37.498 70.484a28.209 28.209 0 0 0-2.361-.945c-.287-.102-.677-.255-.932-.011-.295.26.032.746.387.587.903.266 1.737.635 2.613 1.018.427.184.72-.454.293-.647v-.002ZM38.578 71.164a.363.363 0 0 0-.37.343.36.36 0 0 0 .347.366.363.363 0 0 0 .37-.343.36.36 0 0 0-.347-.366ZM33.245 85.309c-1.149-.295-2.226-.907-3.226-1.526-.421-.15-.688.5-.238.664 1.321.87 2.845 1.69 4.476 1.625.192.014.364-.156.37-.343-.064-.63-.96-.264-1.379-.42h-.003ZM30.01 83.778l.011.005c.015.006.029.009.043.014-.014-.008-.034-.014-.051-.02h-.003ZM35.953 85.255a.363.363 0 0 0-.37.343.36.36 0 0 0 .347.366.363.363 0 0 0 .37-.343.36.36 0 0 0-.347-.366ZM3.845 77.922c-.97-.567-1.584 3.842-1.384 4.438.058.46.76.38.714-.077-.089-.72.037-1.483.18-2.2.135-.49.27-1.024.496-1.492.155-.201.261-.505-.006-.67ZM2.986 84.73c.387.488.931-.068.516-.535-.387-.485-.932.068-.516.536ZM21.01 92.052c-.33-.479-.459-1.094-.848-1.522-.37-.281-.8.27-.442.558.553 1.254 1.304 2.408 1.96 3.608.103.164.321.226.49.127.164-.096.232-.32.13-.485-.416-.771-.892-1.508-1.29-2.285ZM23.081 96.462a.356.356 0 0 0 .359-.354.356.356 0 0 0-.359-.355.356.356 0 0 0-.358.355c0 .195.16.354.358.354ZM32.919 113.554c-.075-.31-.037-.656-.207-.933-.169-.278-.633-.193-.67.133.163.865.338 1.764.61 2.62.238.726.69 1.35 1.09 1.996.243.398.85.04.618-.357-.756-1.038-1.218-2.203-1.438-3.462l-.003.003ZM35.435 119.319a.357.357 0 0 0 .358-.355.356.356 0 0 0-.358-.354.356.356 0 0 0-.359.354c0 .196.16.355.359.355ZM9.072 113.256c-.774.839-1.135 1.956-1.51 3.008-.192.843-.547 1.645-.656 2.519-.032.19.132.368.318.391.57.023.392-.873.599-1.242.375-1.205.696-2.504 1.332-3.619.198-.346.51-.541.66-.924.06-.505-.542-.601-.743-.128v-.005ZM6.513 120.501a.358.358 0 0 0-.35.363.36.36 0 0 0 .367.346.356.356 0 0 0 .35-.363.36.36 0 0 0-.367-.346Z"/></g><defs><clipPath id="a"><path fill="#fff" d="M0 0h159v129H0z"/></clipPath></defs></svg>