<svg width="124" height="125" viewBox="0 0 124 125" fill="none" xmlns="http://www.w3.org/2000/svg">
<g clip-path="url(#clip0_9218_3918)">
<path d="M34.1401 12.269C34.5311 13.2321 35.3732 13.9342 36.1402 14.6033C37.0124 15.3414 38.0501 15.8155 38.9313 16.5416C39.5298 17.1537 40.0472 17.8739 40.4111 18.678C40.8261 19.4371 40.4923 21.0934 41.5931 21.2314C42.5946 21.2824 43.1781 20.2382 43.2112 19.3531C43.0849 18.0659 42.3841 16.8687 41.7345 15.7765C40.8652 14.6033 39.5328 13.9252 38.4471 12.9921C37.7764 12.305 37.1688 11.5068 36.7899 10.6127C36.2725 9.56552 36.6124 8.24231 35.8033 7.31816C35.283 6.62205 34.1221 6.41202 33.7792 7.37817C33.4153 7.48319 33.4122 7.89426 33.4273 8.20631C33.4002 9.58953 33.6138 10.9878 34.1401 12.269ZM42.3059 19.2451C42.2698 19.2151 42.2307 19.1881 42.1856 19.1701C42.0202 18.762 41.8307 18.3599 41.6593 17.9609C41.4367 17.7298 41.3194 17.4178 41.151 17.1417C41.2983 16.9767 41.2622 16.7637 41.175 16.5776C41.6412 17.4208 42.1164 18.2969 42.3059 19.2451ZM38.4832 15.0924C38.5102 15.1224 38.5373 15.1524 38.5644 15.1824C38.5223 15.1554 38.4802 15.1314 38.4381 15.1044C38.4531 15.1014 38.4681 15.0984 38.4802 15.0924H38.4832Z" fill="#F3F3F4"/>
<path d="M25.6732 24.6129C26.0341 24.844 26.4672 24.883 26.8673 25.012C27.2673 25.231 27.6402 25.5341 27.8628 25.9391C27.9891 26.2002 28.0402 26.5422 28.329 26.6833C29.4599 27.1363 30.3201 25.6181 29.9712 24.6519C29.5862 23.3017 28.4312 22.8667 27.3274 22.2336C26.6567 21.7475 26.6026 20.8233 26.0792 20.2382C25.5469 19.7822 24.5514 19.9262 24.2205 20.5593C23.6069 20.6043 23.7303 21.3514 23.7814 21.7835C23.8445 22.9897 24.7258 23.9618 25.6762 24.6129H25.6732ZM28.4824 23.9468C28.3591 23.9438 28.2357 23.9888 28.1455 24.0848C28.1184 24.1149 28.0944 24.1449 28.0763 24.1779C27.9831 24.1089 27.8869 24.0458 27.7816 23.9948C27.6553 23.9348 27.5289 23.8808 27.3966 23.8298C27.3786 23.8238 27.3605 23.8148 27.3455 23.8088C27.2733 23.5268 27.0718 23.2927 26.9244 23.0407C27.4237 23.3767 28.0102 23.5718 28.4824 23.9438V23.9468Z" fill="#F3F3F4"/>
<path d="M12.894 30.7489C14.5483 32.6422 17.3243 32.0241 19.4387 32.9093C20.2959 33.3443 21.1711 33.8124 21.6885 34.6675C21.9742 35.3157 22.2419 36.0508 22.8795 36.4378C23.4329 36.7559 24.1247 36.4048 24.3382 35.8377C24.7924 34.5775 23.8239 33.3323 23.1051 32.3662C22.5908 31.6851 21.893 31.166 21.1651 30.7279C19.9651 29.8668 18.5334 29.4137 17.0597 29.3417C16.3739 29.4077 15.4776 29.4527 15.1287 28.7176C15.0205 28.5016 15.0235 28.2585 14.9874 28.0275C14.9002 27.4844 14.5152 26.9953 14.04 26.7313C13.4264 26.4102 12.7166 26.8483 12.4639 27.4334C12.4309 27.5114 12.4068 27.5894 12.3827 27.6734C12.1481 28.0815 12.1301 28.5376 12.2233 28.9876C11.9286 29.4437 12.6234 30.3859 12.894 30.7459V30.7489ZM13.8715 29.8098C14.0279 29.9598 14.1934 30.0978 14.3588 30.2388C14.449 30.3169 14.5422 30.3889 14.6355 30.4639C14.7107 30.7219 14.8941 30.929 15.1378 31.097C14.6204 30.929 14.1392 30.6799 13.7181 30.2959C13.8114 30.1518 13.8685 29.9748 13.8745 29.8068L13.8715 29.8098ZM13.3061 27.9375C13.4204 27.9975 13.4956 28.1175 13.5738 28.2195C13.4835 28.1835 13.3933 28.1775 13.3091 28.1925C13.3181 28.1115 13.3211 28.0305 13.2941 27.9525C13.2971 27.9465 13.3001 27.9405 13.3061 27.9375ZM22.8855 33.5904C22.8855 33.5904 22.8975 33.6144 22.9036 33.6264C22.6659 33.3173 22.3983 33.0233 22.1396 32.7382C22.1607 32.7232 22.1727 32.7082 22.1907 32.6902C22.4494 32.9633 22.684 33.2603 22.8855 33.5904Z" fill="#F3F3F4"/>
<path d="M8.86644 48.2837C8.92359 48.4397 9.06495 48.5628 9.23939 48.5838C9.76574 48.7188 10.271 48.9378 10.8124 49.0068C11.3117 49.0879 11.7959 48.9288 12.2862 48.8718C13.1012 48.7788 13.9013 48.9558 14.6923 49.1329C15.5916 49.3909 16.2653 48.7878 16.3014 47.8907C16.2803 46.8075 15.2126 46.0694 14.2502 45.8173C12.9388 45.3733 11.5854 46.0154 10.265 45.8173C9.80183 45.7333 9.37173 45.4303 8.8875 45.5293C7.50698 45.8233 7.73556 47.7856 8.86644 48.2867V48.2837ZM14.7254 46.9815C14.56 46.9005 14.3885 46.8345 14.2231 46.7745C13.9975 46.6965 13.7629 46.6395 13.5283 46.5975C13.4682 46.5855 13.408 46.5764 13.3479 46.5674C13.8291 46.6005 14.3013 46.7295 14.7254 46.9815ZM9.68754 46.5885C10.2079 46.7535 10.7944 46.8165 11.3448 46.7385C11.2786 46.8255 11.2395 46.9365 11.2485 47.0475C11.1372 47.0565 11.0259 47.0685 10.9117 47.0805C10.7853 47.0955 10.665 47.1315 10.5718 47.2036C10.5267 47.1945 10.4816 47.1825 10.4395 47.1705C10.1597 47.0985 9.88604 47.0175 9.62137 46.9035C9.38376 46.8015 9.10104 46.6215 8.83937 46.7445C8.84539 46.2014 9.37775 46.4744 9.68754 46.5854V46.5885Z" fill="#F3F3F4"/>
<path d="M13.4895 61.9959C14.6264 61.7019 16.428 62.9771 16.9243 61.3628C17.1017 60.3247 16.1303 59.5445 15.2731 59.1755C13.0534 58.2513 10.527 58.8214 8.30733 59.4815C6.85162 60.0126 5.32974 60.3277 3.76575 59.9886C2.94466 59.7336 2.18372 59.2805 1.28443 59.2625C0.159564 59.0945 -0.378808 60.3337 0.300925 61.1528C0.734028 61.6839 1.29947 62.1009 1.90702 62.41C2.03635 62.701 2.41832 62.707 2.683 62.8061C4.07855 63.3221 5.57637 63.3911 7.05012 63.4542C9.30888 63.5562 11.3 62.308 13.4925 62.0019L13.4895 61.9959ZM15.0114 60.9788C15.1438 61.0388 15.246 61.1588 15.3573 61.2518C15.2159 61.2218 15.0776 61.1888 14.9332 61.1558C14.9061 61.1498 14.8791 61.1438 14.855 61.1378C14.9182 61.0988 14.9723 61.0448 15.0114 60.9758V60.9788ZM1.37165 60.9398C1.68445 61.0628 2.00627 61.1588 2.3311 61.2398C2.35516 61.2998 2.38824 61.3568 2.43035 61.4078C2.49351 61.4858 2.57472 61.5489 2.66194 61.6029C2.22583 61.3988 1.75062 61.2398 1.37165 60.9398ZM9.71792 62.0019C9.85327 62.0019 9.99162 62.0019 10.127 62.0019C9.9435 62.0649 9.76003 62.1279 9.57355 62.185C9.63672 62.1369 9.68785 62.0769 9.71792 62.0049V62.0019ZM3.34468 61.8579C3.9793 61.9809 4.59587 62.1369 5.22146 62.293C6.46965 62.482 7.74189 62.464 8.99308 62.314C8.47576 62.404 7.96445 62.557 7.4321 62.557C6.33731 62.527 5.26959 62.479 4.18382 62.29C4.05148 61.9599 3.6274 61.9869 3.34468 61.8579Z" fill="#F3F3F4"/>
<path d="M7.97339 78.7776C8.12678 78.8466 8.31325 78.8286 8.46063 78.7506C9.0772 78.5706 9.73287 78.4896 10.3043 78.1685C11.0562 77.8985 11.4232 77.1604 12.0518 76.7343C12.9962 76.1522 14.085 75.8941 15.0895 75.4471C15.7121 75.12 15.8084 74.2439 15.3031 73.7668C14.6173 73.0107 13.4624 73.0977 12.5721 73.3887C11.733 73.6678 10.8758 73.9798 10.1389 74.4749C9.68775 74.802 9.37195 75.276 8.8817 75.5491C8.25611 75.9662 7.54329 76.1822 6.82145 76.3772C5.71463 76.5933 5.76877 77.8295 6.49361 78.4596C6.89965 78.8136 7.46509 78.8526 7.97639 78.7746L7.97339 78.7776ZM12.7315 74.991C12.7315 75.054 12.7466 75.114 12.7676 75.174C12.7917 75.237 12.8247 75.2941 12.8699 75.3421C12.7225 75.4051 12.5751 75.4681 12.4277 75.5341C12.4277 75.5281 12.4277 75.5191 12.4247 75.5131C12.4127 75.4561 12.3886 75.4021 12.3556 75.3571C12.4879 75.243 12.6473 75.147 12.7345 74.991H12.7315ZM6.93273 77.5834C6.89664 77.5024 6.86055 77.4154 6.85153 77.3254C7.43802 77.0973 8.06362 76.9923 8.63206 76.7103C8.59597 76.7493 8.55988 76.7913 8.5298 76.8333C8.18693 76.9863 7.83503 77.1093 7.48013 77.2294C7.2726 77.2954 7.02898 77.3704 6.93273 77.5834Z" fill="#F3F3F4"/>
<path d="M20.4309 85.3307C20.0038 85.3097 19.5586 85.3547 19.1496 85.4807C17.4683 86.0688 16.16 87.452 15.3359 88.9972C14.7945 89.9034 14.4005 90.8635 13.7929 91.7397C13.1523 92.6698 12.5808 93.783 11.4831 94.2391C9.99727 94.9322 7.98815 94.9142 6.93847 96.3004C6.65274 96.9575 7.12194 97.8247 7.77761 98.0557C8.17462 98.1817 8.61073 98.1607 9.02278 98.1907C9.86794 98.2087 10.7642 98.0797 11.5191 97.6926C12.0515 97.3776 12.6861 97.2876 13.2245 96.9845C14.226 96.4324 15.0531 95.7633 15.793 94.8512C16.4517 94.1101 17.1284 93.3809 17.5976 92.4988C18.3586 91.3646 18.909 90.1314 19.5857 88.9522C20.0729 88.2351 20.8008 87.761 21.4264 87.167C22.1603 86.3898 21.3662 85.3247 20.4278 85.3337L20.4309 85.3307ZM11.4259 95.4423C11.3928 95.4633 11.3627 95.4843 11.3297 95.5053C11.3477 95.4963 11.3627 95.4843 11.3808 95.4753C11.1642 95.5983 10.9507 95.7213 10.7281 95.8323C10.9266 95.7093 11.1011 95.5503 11.1041 95.3253C11.2094 95.2833 11.3176 95.2442 11.4259 95.2082C11.4139 95.2622 11.4109 95.3193 11.4139 95.3823C11.4139 95.4033 11.4199 95.4243 11.4229 95.4423H11.4259ZM12.9297 96.1144C12.653 95.9103 12.2921 96.0934 11.9913 96.1534C12.2921 95.8983 12.644 95.8023 13.0109 95.6823C13.6666 95.4063 14.2681 95.0252 14.8246 94.5841C14.3133 95.2022 13.6335 95.7033 12.9297 96.1144ZM19.3361 87.8421C19.318 87.8061 19.297 87.773 19.2699 87.743C19.2158 87.683 19.1496 87.641 19.0804 87.617C19.4594 87.398 19.8474 87.197 20.1692 86.8939C20.1872 86.9269 20.2083 86.9599 20.2323 86.9899C20.2354 86.9929 20.2414 86.9989 20.2444 87.0019C19.9045 87.242 19.6158 87.542 19.3361 87.8451V87.8421Z" fill="#F3F3F4"/>
<path d="M28.8795 99.6579C27.6974 99.6249 27.0749 100.789 26.359 101.545C25.6673 102.316 24.6356 102.742 24.0582 103.616C23.4927 104.453 23.6341 105.818 24.6687 106.202C24.9905 106.316 25.3334 106.211 25.6402 106.097C25.6883 106.118 25.7395 106.133 25.7936 106.136C25.9139 106.145 26.0162 106.103 26.1094 106.034C26.1004 106.043 26.0883 106.049 26.0793 106.058C26.0703 106.064 26.0613 106.067 26.0553 106.073C27.529 105.437 28.8494 104.324 29.2705 102.727C29.3366 102.487 29.3216 102.226 29.4329 102.001C29.6193 101.695 29.9231 101.464 30.0494 101.125C30.3291 100.366 29.6584 99.6009 28.8764 99.6579H28.8795ZM26.9004 104.564C26.735 104.498 26.5455 104.543 26.4041 104.648C26.0553 104.831 25.6703 104.951 25.2763 104.963C25.2612 104.873 25.3124 104.792 25.3394 104.711C25.574 104.948 25.9139 104.816 26.1214 104.615C26.3861 104.42 26.6598 104.234 26.8854 103.994C27.15 103.994 27.3425 103.745 27.532 103.586C27.8177 103.319 28.0824 103.027 28.3291 102.724C28.0403 103.469 27.5831 104.12 26.9034 104.567L26.9004 104.564Z" fill="#F3F3F4"/>
<path d="M36.0498 107.687C34.7294 109.533 34.2993 111.777 33.8301 113.946C33.5384 115.32 32.2902 116.191 31.43 117.22C30.6299 117.949 30.263 119.443 31.6736 119.668C32.5849 119.71 33.3609 119.074 34.0647 118.564C34.9399 117.988 35.6738 117.199 36.137 116.254C37.4724 114.387 38.6003 112.29 38.7627 109.959C38.7446 108.374 41.7102 106.769 40.2274 105.353C38.6033 104.399 36.9551 106.532 36.0498 107.684V107.687ZM31.7909 118.774C31.43 118.765 31.7127 118.336 31.8059 118.165C31.8059 118.462 32.1368 118.696 32.4135 118.579C32.5158 118.54 32.5909 118.45 32.6992 118.426C32.4195 118.63 32.1458 118.714 31.7909 118.774ZM35.8843 109.848C35.8994 109.809 35.9174 109.77 35.9355 109.731C36.1851 109.124 36.543 108.572 36.9069 108.029C36.8618 108.2 36.8408 108.374 36.922 108.53C36.8017 108.566 36.6994 108.653 36.6423 108.77C36.4137 109.139 36.2001 109.548 35.8843 109.848ZM37.7491 110.697C37.5566 111.747 37.2047 112.761 36.6964 113.706C36.6032 113.679 36.5039 113.685 36.4107 113.718C36.5069 113.325 36.8648 112.869 36.6122 112.482C36.5731 112.419 36.5159 112.371 36.4528 112.341C36.7445 111.096 37.5656 110.046 38.104 108.896C37.8544 109.47 37.8694 110.094 37.7431 110.697H37.7491Z" fill="#F3F3F4"/>
<path d="M47.8762 112.866C47.6416 113.751 47.9875 114.666 47.807 115.554C47.6176 116.494 46.6611 117.568 47.3138 118.501C48.198 119.317 49.4552 118.351 49.7711 117.421C50.6252 116.908 50.6072 113.484 50.4779 112.509C50.0808 110.988 48.0386 111.486 47.8792 112.869L47.8762 112.866Z" fill="#F3F3F4"/>
<path d="M64.2139 113.571C63.9973 112.458 63.9041 109.713 62.1326 110.925C61.1761 111.726 61.0588 113.13 61.119 114.297C61.2152 115.99 62.0484 117.505 62.3732 119.14C62.4484 119.785 62.4965 120.433 62.4243 121.078C62.3762 121.273 62.3401 121.48 62.316 121.699C62.0604 122.861 61.6303 124.631 63.095 124.997C64.2259 125.003 64.7402 123.734 65.3508 122.972C66.8366 120.976 66.0786 118.291 65.0801 116.242C64.6771 115.392 64.3131 114.51 64.2139 113.568V113.571ZM63.5161 114.726C63.9312 116.149 64.7402 117.43 65.1222 118.864C65.065 118.861 65.0079 118.864 64.9508 118.891C64.665 117.898 64.25 116.953 63.868 115.996C63.6484 115.263 63.465 114.51 63.2304 113.778C63.1251 113.217 63.095 112.638 63.0319 112.068C63.2635 112.935 63.2815 113.862 63.5221 114.726H63.5161ZM62.0093 113.973C62.0604 114.027 62.1205 114.069 62.1927 114.096C62.1927 114.483 62.1145 115.11 62.6409 115.158C62.7311 115.942 62.8243 116.74 62.9597 117.52C62.9446 117.565 62.9356 117.613 62.9236 117.658C62.5416 116.452 62.0333 115.281 62.0123 113.973H62.0093Z" fill="#F3F3F4"/>
<path d="M79.5015 112.086C79.2489 111.804 78.9 111.63 78.521 111.603C77.0052 111.429 76.948 113.538 77.5495 114.48C77.7872 115.023 78.0939 115.548 78.2293 116.128C78.2985 116.896 78.3466 118.129 79.3391 118.246C80.3647 118.294 80.9241 117.136 80.9452 116.248C81.3482 116.059 81.1708 115.618 81.1016 115.263C80.8129 114.108 80.3286 112.962 79.5045 112.086H79.5015ZM79.6128 116.824C79.5918 116.506 79.5827 116.185 79.5587 115.864C79.5466 115.717 79.5376 115.569 79.5196 115.422C79.6188 115.485 79.7451 115.503 79.8594 115.476C79.8053 115.93 79.8895 116.431 79.6128 116.821V116.824Z" fill="#F3F3F4"/>
<path d="M93.1145 108.533C92.2453 107.378 91.6016 106.028 91.1926 104.63C90.9189 103.991 90.5189 103.349 89.9745 102.913C89.2496 102.559 88.6361 103.31 88.5037 103.964C88.1879 105.557 88.8767 107.186 89.5594 108.599C90.158 109.782 90.8317 111.009 91.9174 111.81C92.8107 112.485 93.7611 113.118 94.471 113.997C95.0695 114.723 95.3943 115.618 95.674 116.503C95.9567 117.307 96.0199 118.474 96.9011 118.861C97.8786 119.044 98.2726 118.159 98.423 117.355C98.8712 115.726 97.8666 114.147 97.0996 112.773C96.1011 111.066 94.4198 109.974 93.1175 108.533H93.1145ZM90.4347 108.344C90.3535 108.173 90.2753 107.996 90.1941 107.825C90.1249 107.681 90.0557 107.534 89.9865 107.39C89.9925 107.393 89.9985 107.399 90.0016 107.402C90.1158 107.483 90.2452 107.564 90.3865 107.585C90.4647 107.732 90.5459 107.882 90.6211 108.029C90.5219 108.101 90.4527 108.209 90.4347 108.341V108.344ZM92.6212 109.389C91.7851 108.848 91.6016 107.759 91.0693 106.961C91.0693 106.934 91.0723 106.907 91.0723 106.88C91.5565 107.819 92.0528 108.767 92.7957 109.53C92.7385 109.482 92.6784 109.434 92.6182 109.386L92.6212 109.389ZM94.88 111.645C94.5642 111.252 94.2153 110.889 93.8604 110.529C95.0063 111.483 96.1161 112.593 96.6094 114.051C96.074 113.223 95.4996 112.416 94.88 111.648V111.645Z" fill="#F3F3F4"/>
<path d="M105.918 99.4149C105.374 99.1299 104.898 98.8028 104.405 98.4127C103.692 97.9087 103.425 96.8315 102.498 96.6485C101.731 96.4414 101.187 97.3836 101.286 98.0527C101.452 99.3639 102.372 100.474 103.397 101.254C104.041 101.704 104.85 101.848 105.482 102.31C106.258 102.775 106.204 104.072 107.196 104.255C107.837 104.315 108.249 103.658 108.303 103.087C108.532 102.172 108.062 101.29 107.518 100.579C107.217 99.991 106.513 99.6609 105.915 99.4149H105.918ZM102.781 99.3549C102.961 99.4569 103.184 99.4059 103.325 99.2679C103.545 99.4599 103.758 99.6549 103.969 99.856C103.906 100.222 104.219 100.54 104.441 100.801C103.743 100.513 103.232 99.94 102.784 99.3579L102.781 99.3549ZM105.807 101.431C105.807 101.431 105.786 101.419 105.777 101.413C105.804 101.392 105.828 101.368 105.849 101.341C105.87 101.362 105.891 101.38 105.912 101.401C105.876 101.407 105.843 101.416 105.807 101.431Z" fill="#F3F3F4"/>
<path d="M118.21 88.8502C117.019 87.368 115.383 86.2008 113.503 85.8077C111.72 84.9856 109.756 84.6105 107.921 83.9084C107.115 83.6624 106.237 82.7802 105.364 83.1973C103.885 84.7006 107.04 86.3898 108.216 86.8879C109.99 87.692 111.933 87.9381 113.644 88.8982C114.336 89.4833 114.929 90.2004 115.509 90.9055C115.861 91.5356 116.237 92.1417 116.661 92.7268C116.995 93.3239 117.47 93.855 118.126 94.1011C118.514 94.2631 118.947 94.1431 119.278 93.909C119.792 93.462 119.639 92.5918 119.612 91.9767C119.35 90.8695 118.842 89.7954 118.21 88.8532V88.8502Z" fill="#F3F3F4"/>
<path d="M118.728 76.6773C118.884 75.9962 118.842 75.159 118.267 74.679C117.576 74.0729 116.637 74.0969 115.783 73.9288C114.739 73.7248 113.813 73.1997 112.796 72.9087C112.333 72.7496 111.78 73.0377 111.635 73.5028C111.5 74.1179 111.792 74.796 112.225 75.231C113.566 76.5363 115.66 76.0922 117.179 77.0553C117.696 77.3164 118.52 77.3314 118.728 76.6743V76.6773Z" fill="#F3F3F4"/>
<path d="M122.075 59.0674C121.895 58.7914 121.465 58.8904 121.17 58.7674C119.867 58.5304 118.544 58.2813 117.218 58.3863C115.479 58.5754 114.024 59.9376 112.228 59.8326C111.29 59.8116 110.084 59.4965 109.274 60.1206C108.799 60.5647 108.92 61.3208 109.226 61.8279C109.933 62.9081 111.425 62.734 112.55 62.9171C114.95 63.3731 116.8 60.8017 119.188 61.4378C120.523 61.5969 121.847 62.302 123.203 61.9899C124.018 61.8159 124.15 60.8077 123.847 60.1506C123.552 59.4545 122.755 59.2175 122.072 59.0674H122.075ZM116.403 60.8977C116.352 60.9217 116.303 60.9457 116.255 60.9668C116.261 60.8587 116.225 60.7477 116.159 60.6607C116.291 60.6547 116.421 60.6457 116.553 60.6307C116.589 60.6517 116.625 60.6667 116.664 60.6757C116.727 60.6907 116.791 60.6967 116.854 60.6997C116.7 60.7597 116.553 60.8287 116.406 60.8977H116.403ZM119.961 59.4785C119.795 59.4785 119.627 59.4815 119.458 59.4875C119.44 59.4545 119.422 59.4245 119.398 59.3915C119.398 59.3915 119.395 59.3855 119.392 59.3825C119.482 59.3915 119.57 59.4005 119.66 59.4125C119.759 59.4275 119.858 59.4455 119.958 59.4635C119.958 59.4665 119.958 59.4695 119.961 59.4725V59.4785Z" fill="#F3F3F4"/>
<path d="M115.452 48.9588C114.328 49.1539 113.203 50.027 114.039 51.1942C115.004 52.1453 116.55 51.4642 117.693 51.2362C118.532 50.9872 119.45 50.9902 120.325 50.8341C121.997 50.3091 121.05 48.3917 119.651 48.3347C119.501 48.1757 119.269 48.1607 119.083 48.2657C117.874 48.4788 116.637 48.6318 115.446 48.9558L115.452 48.9588ZM116.998 49.5319C116.956 49.5469 116.914 49.5649 116.872 49.5799C116.866 49.5739 116.857 49.5679 116.851 49.5619C116.899 49.5529 116.95 49.5439 116.998 49.5319Z" fill="#F3F3F4"/>
<path d="M106.736 44.4281C106.919 44.7252 107.28 44.8872 107.611 44.9502C107.816 45.0672 108.044 45.1722 108.276 45.2232C109.96 45.4753 111.136 43.951 112.532 43.3149C113.515 42.8739 114.622 42.8499 115.66 42.5858C117.521 42.1357 119.362 41.2986 120.508 39.7144C122.809 37.1189 121.022 35.2887 118.297 37.419C118.105 37.401 117.961 37.536 117.843 37.674C116.105 38.7962 114.348 39.9724 112.258 40.3325C110.378 40.8815 108.204 41.1486 106.808 42.6518C106.489 43.1679 106.399 43.906 106.739 44.4311L106.736 44.4281ZM116.252 40.8305C115.963 41.0346 115.524 41.2626 115.59 41.6767C115.073 41.8087 114.553 41.9047 114.023 41.9707C114.842 41.7757 115.485 41.1486 116.252 40.8305ZM112.691 41.1546C112.691 41.1546 112.685 41.1606 112.685 41.1666C111.957 41.3766 111.244 41.6287 110.532 41.8837C110.535 41.8297 110.532 41.7727 110.514 41.7217C111.223 41.5206 111.96 41.3346 112.691 41.1576V41.1546Z" fill="#F3F3F4"/>
<path d="M109.72 33.6534C109.906 33.3863 109.903 33.0203 109.702 32.7622C109.166 31.9941 108.096 31.7121 107.296 32.2402C107.133 32.2192 106.989 32.3182 106.863 32.4172C105.915 32.7622 105.344 33.5994 104.574 34.1935C103.837 34.6255 102.947 34.7426 102.303 35.3307C101.554 36.2548 102.643 37.287 103.629 37.206C104.354 37.32 105.013 37.0319 105.632 36.6899C106.604 36.2848 107.29 35.4687 108.096 34.8296C108.592 34.3705 109.347 34.2385 109.726 33.6564L109.72 33.6534ZM104.083 36.3208C103.96 36.3208 103.837 36.3148 103.714 36.3088C104.471 35.9368 105.452 35.7147 105.921 34.9556C106.601 34.4365 107.311 33.9624 108.011 33.4704C108.201 33.3323 108.424 33.1523 108.448 32.9003C108.625 32.9693 108.796 33.0713 108.92 33.2183C108.399 33.6024 107.777 33.8544 107.296 34.3075C106.36 35.1476 105.359 36.0778 104.083 36.3178V36.3208Z" fill="#F3F3F4"/>
<path d="M99.2471 29.8758C99.0335 30.6919 99.6471 31.283 100.402 31.445C101.656 31.6431 102.799 30.5719 103.641 29.7648C105.702 27.7244 106.95 25.105 108.583 22.7406C109.578 21.3574 111.335 20.6433 112.09 19.0891C112.568 17.5468 110.775 16.7427 109.575 17.4628C108.649 17.9549 107.882 18.684 107.193 19.4641C106.3 20.2292 105.446 21.0874 104.793 22.0715C104.282 22.7616 104.041 23.4878 103.719 24.2979C103.316 25.195 102.745 26.0052 102.143 26.7793C101.677 27.3344 101.151 27.8445 100.582 28.3005C100.062 28.7356 99.4245 29.1857 99.2501 29.8758H99.2471ZM100.655 29.4047C100.561 29.5067 100.468 29.6117 100.378 29.7138C100.243 29.8698 100.119 30.0348 100.122 30.2508C100.08 29.8848 100.432 29.6447 100.655 29.4047Z" fill="#F3F3F4"/>
<path d="M96.0349 22.7646C97.4545 22.7136 98.417 21.2344 99.1508 20.1752C99.5449 19.6201 99.7163 18.963 99.9358 18.3299C100.053 17.9129 100.21 17.4838 100.119 17.0457C99.8637 15.7045 98.2756 14.9574 97.5267 16.3766C97.1838 16.9557 97.2199 17.6398 96.7628 18.1469C96.068 18.978 95.2228 19.7252 94.8168 20.7513C94.3596 21.7325 94.91 22.7736 96.0349 22.7646ZM98.6576 16.9137C98.6576 16.9557 98.6606 16.9947 98.6606 17.0337C98.6546 17.1957 98.6426 17.3548 98.6275 17.5138C98.3568 17.6098 98.1553 17.8108 97.9749 18.0269C98.1343 17.6188 98.3478 17.2258 98.6576 16.9107V16.9137ZM96.9162 20.7243C97.0335 20.5743 97.1477 20.4243 97.262 20.2742C97.2681 20.2802 97.2711 20.2862 97.2771 20.2892C97.2049 20.3913 97.1327 20.4933 97.0575 20.5923C96.9462 20.7303 96.8289 20.8653 96.7056 20.9914C96.7748 20.9013 96.844 20.8113 96.9131 20.7213L96.9162 20.7243Z" fill="#F3F3F4"/>
<path d="M83.9892 20.6763C84.6058 20.8653 85.1893 20.5323 85.6795 20.1872C86.5698 19.6621 87.0059 18.78 87.6676 17.9969C89.3489 15.8215 89.3068 12.9921 89.9474 10.4417C90.3384 8.7644 91.9084 7.10214 91.0211 5.31985C90.6181 4.67175 89.7098 4.53373 89.006 4.59374C88.3383 4.66275 87.821 5.15783 87.5382 5.74292C87.1262 6.55005 86.9066 7.44719 86.7623 8.33833C86.5036 9.03445 86.3653 9.76956 86.2239 10.4927C85.9863 12.0889 86.1698 13.7572 85.5141 15.2724C85.1983 16.2386 84.4674 17.0127 83.8448 17.7958C82.9004 18.84 81.9139 20.2922 83.9952 20.6733L83.9892 20.6763Z" fill="#F3F3F4"/>
<path d="M76.1934 14.0092C77.3995 13.2321 77.8777 11.6419 77.7784 10.2676C77.6762 9.43951 77.6341 8.61138 77.595 7.77724C77.5769 7.23716 77.3243 6.63706 76.7949 6.41803C76.2355 6.226 75.5648 6.48104 75.1858 6.91611C74.9001 7.24016 74.7918 7.67223 74.5933 8.04129C74.4911 8.79741 74.4068 9.56853 74.2234 10.3217C74.0158 11.4678 72.8098 13.1721 73.7933 14.1713C74.4941 14.7864 75.4926 14.4503 76.1934 14.0092ZM76.1032 7.67823C76.1122 7.69323 76.1182 7.71123 76.1272 7.72624C76.1393 7.75624 76.1483 7.78325 76.1603 7.81325C76.1122 7.80725 76.0611 7.80725 76.0099 7.81625C76.04 7.76824 76.0731 7.72324 76.1062 7.67823H76.1032ZM75.7422 10.0786C75.655 10.6907 75.5618 11.3058 75.3182 11.8789C75.1708 12.1159 75.1888 12.443 75.4535 12.587C75.3242 12.71 75.1888 12.8211 75.0505 12.9321C75.0204 12.9531 74.9933 12.9741 74.9633 12.9951C74.9693 11.9779 75.4385 11.0328 75.7453 10.0786H75.7422Z" fill="#F3F3F4"/>
<path d="M62.6735 10.3757C63.0555 11.4858 62.9833 12.722 62.7216 13.8502C62.3577 14.6964 61.1877 16.5627 62.3336 17.2018C63.7653 17.7898 64.6826 16.0676 65.1578 14.9814C66.2285 12.455 65.6751 9.56253 64.5443 7.15615C64.1142 5.78793 63.4826 4.31469 63.9758 2.87146C64.2465 2.17535 64.5382 1.36822 64.2375 0.633102C63.3833 -0.87914 61.5937 0.675108 60.8869 1.58125C59.8523 3.02448 60.2403 4.92379 60.6704 6.51704C61.1907 7.87626 62.108 9.04045 62.6705 10.3757H62.6735ZM62.8239 16.4156C62.8239 16.4156 62.7938 16.4126 62.7788 16.4096C62.7727 16.4096 62.7667 16.4066 62.7607 16.4036C62.7457 16.1756 62.8118 15.9506 62.881 15.7375C62.8449 15.9596 62.7487 16.1966 62.8269 16.4186L62.8239 16.4156ZM64.824 12.437C64.818 12.554 64.8119 12.674 64.8029 12.791C64.8029 12.782 64.8029 12.773 64.8029 12.761C64.8029 12.773 64.8029 12.788 64.7999 12.803C64.7999 12.809 64.7999 12.8151 64.7999 12.8211C64.7999 12.8151 64.7999 12.812 64.7999 12.806C64.7999 12.8151 64.7999 12.8211 64.7999 12.8301C64.7999 12.797 64.7969 12.764 64.7939 12.728C64.7728 12.629 64.8119 12.536 64.824 12.437ZM61.8043 2.85046C61.8043 2.85046 61.8103 2.83845 61.8103 2.83245C61.7622 3.01548 61.708 3.19551 61.6659 3.37854C61.6569 3.38754 61.6509 3.39354 61.6419 3.40254C61.687 3.21651 61.7411 3.03349 61.8013 2.85046H61.8043Z" fill="#F3F3F4"/>
<path d="M48.4113 12.641C48.6519 13.4242 48.4143 14.6784 49.4279 14.9544C50.1587 15.1194 50.7091 14.4083 50.9467 13.7902C51.4911 12.422 50.643 11.0748 49.9813 9.91959C49.7527 9.44552 49.5602 8.95344 49.4429 8.44035C49.3677 8.0743 49.2474 7.68423 48.9376 7.4502C48.2128 6.98512 47.3014 7.68423 47.2503 8.47036C46.733 8.69539 47.0067 9.38851 47.0398 9.81757C47.1992 10.8977 48.0594 11.6449 48.4113 12.638V12.641ZM48.6729 11.2008C48.6158 11.1228 48.5556 11.0478 48.5015 10.9698C48.4413 10.8737 48.3842 10.7747 48.3301 10.6757C48.4684 10.5047 48.3992 10.2826 48.3601 10.0876C48.4564 10.4207 48.5436 10.7597 48.6429 11.0928C48.6549 11.1288 48.6639 11.1648 48.6759 11.2008H48.6729ZM48.4233 8.21532C48.4504 8.25732 48.4684 8.30533 48.4835 8.35334C48.4564 8.33234 48.4293 8.31133 48.4022 8.29333C48.3752 8.27533 48.3481 8.26333 48.318 8.25132C48.3511 8.23332 48.3902 8.22432 48.4263 8.21832L48.4233 8.21532Z" fill="#F3F3F4"/>
<path d="M102.516 81.8831C102.672 81.535 102.826 81.187 102.979 80.8359C104.173 78.0845 105.079 75.213 105.686 72.2786C105.921 71.4654 106.101 70.6373 106.128 69.8002C106.579 66.7877 106.721 63.7272 106.552 60.6817C106.387 58.3743 106.161 56.067 105.821 53.7806C105.328 51.7313 104.832 49.6339 103.882 47.7316C103.506 46.6065 102.946 45.5683 102.426 44.5121C102.483 43.735 101.328 42.1807 101.087 41.6347C99.8482 39.4443 98.1158 37.611 96.609 35.6097C95.1533 33.6084 93.5231 31.7031 91.5741 30.1668C89.159 28.1625 86.398 26.5362 83.664 24.979C78.4337 21.7505 72.295 20.3372 66.2195 19.8152C63.1547 19.5031 60.0478 19.6051 56.992 19.9622C55.1844 20.2052 53.4279 20.7333 51.6775 21.2284C50.0112 21.7115 48.2999 21.9965 46.6396 22.5036C46.0862 22.7046 41.698 24.1059 41.1476 25.162C41.0875 25.201 41.0303 25.243 40.9702 25.285C40.1431 25.8401 39.2528 26.3292 38.4407 26.9143C36.4076 28.3275 34.245 29.5847 32.4374 31.298C30.3351 33.3293 28.4312 35.5677 26.768 37.9681C24.6777 40.7915 22.9152 43.843 21.5948 47.0985C20.2895 50.096 19.4413 53.2795 18.7315 56.484C18.2864 58.7344 18.2352 61.0178 18.2352 63.3041C18.2202 65.6835 18.4007 68.0509 18.6563 70.4273C18.8759 71.5915 19.2548 72.7226 19.4985 73.8838C20.0098 75.4711 20.4068 77.0883 20.9301 78.6696C21.2519 79.7498 21.8775 80.8239 22.2324 81.9101C22.8009 83.0293 23.2641 84.2235 23.9288 85.3066C24.3949 86.1558 24.9484 86.9449 25.5258 87.719C25.7935 88.3401 26.0732 88.9582 26.5063 89.4893C28.0523 91.3436 29.7787 93.0419 31.4389 94.7972C36.8677 100.396 43.9327 104.282 51.4278 106.385C55.3107 107.399 59.3711 107.555 63.3653 107.804C67.0166 107.852 70.6649 107.201 74.1808 106.256C76.4847 105.614 78.6201 104.534 80.8278 103.619C82.6053 102.778 84.452 102.07 86.1573 101.047C87.7123 100.003 89.177 98.8298 90.714 97.7586C93.857 95.3763 96.2721 92.2528 98.6632 89.1563C99.0843 88.6372 99.3971 88.0461 99.755 87.485C99.9174 87.275 100.17 86.9929 100.137 86.7199C100.775 85.6517 101.319 84.5295 101.872 83.4193C102.092 82.9123 102.305 82.4052 102.507 81.8921L102.516 81.8831Z" fill="#F3F3F4"/>
<path d="M105.818 65.0354C106.579 44.7912 92.299 26.2632 72.5146 21.7445C52.0204 16.7997 30.3832 27.9165 22.5152 47.4346C11.7808 73.4908 28.9425 102.973 56.9559 106.556C82.1481 109.974 105.205 90.3985 105.818 65.0354ZM22.5212 77.5444C13.4862 51.2932 31.8359 23.5448 59.6328 21.5975C87.5589 19.6682 109.68 44.8722 104.08 72.2606C100.414 90.6775 84.1663 104.843 65.3413 105.929L65.3804 105.926C46.5043 107.282 28.6358 95.4303 22.5242 77.5444H22.5212Z" fill="black"/>
<path d="M92.0948 69.5571C95.3461 53.6366 84.7501 37.638 68.7914 34.3915C60.1384 32.5372 50.7514 34.7276 43.8519 40.2694C43.6594 40.4225 43.6173 40.7045 43.7707 40.8995C43.918 41.0916 44.2098 41.1336 44.4023 40.9806C44.4684 40.9296 44.5376 40.8785 44.6038 40.8275C44.691 40.8605 44.7872 40.8755 44.8835 40.8545C47.1603 40.3325 49.4251 40.1524 51.7861 40.3055C65.7266 41.1936 75.8624 54.4587 73.0142 68.1289C71.0893 78.1565 62.0663 86.0868 51.8192 86.6839C49.2386 86.8639 46.5858 86.6179 44.0534 85.9277C43.8158 85.8647 43.5661 86.0058 43.5 86.2428C43.497 86.2548 43.497 86.2698 43.494 86.2818C43.4729 86.2998 43.4518 86.3208 43.4338 86.3448C42.9947 86.9419 44.312 87.506 44.676 87.8811C48.992 91.0796 54.1742 93.0869 59.5218 93.615C74.7646 95.2982 89.2556 84.5925 92.0918 69.5601L92.0948 69.5571ZM52.9681 91.2536C50.583 90.4225 48.2912 89.2673 46.1948 87.8511C45.855 87.62 45.5091 87.374 45.1662 87.1189C45.7617 87.245 46.3633 87.35 46.9648 87.428C62.9445 89.5943 76.6234 75.6391 74.0939 59.7426C72.157 46.8495 59.7534 37.68 46.8204 39.5823C46.6039 39.6123 46.3873 39.6483 46.1708 39.6844C46.2039 39.6603 46.2369 39.6363 46.273 39.6123C58.2074 31.463 74.9421 33.5754 84.4614 44.5001C94.134 55.2718 94.1731 72.1525 84.4974 82.9693C76.873 91.7847 63.9912 95.1692 52.9711 91.2476L52.9681 91.2536Z" fill="black"/>
<path d="M62.83 8.27832C63.0676 8.73139 63.221 9.23547 63.4075 9.71255C63.9579 11.0778 64.003 12.689 63.4466 14.0752C63.3744 14.4293 63.0315 14.8134 63.1248 15.1944C63.0676 15.2964 63.0105 15.3955 62.9473 15.4945C62.9232 15.5275 62.8962 15.5605 62.8721 15.5935C62.7007 15.6565 62.5744 15.8245 62.5744 16.0166C62.5744 16.2626 62.7789 16.4666 63.0255 16.4666C63.7864 16.3586 64.0782 15.2664 64.3248 14.6453C65.0797 12.407 64.8361 9.87758 63.6481 7.83425C62.7999 6.03696 62.4661 3.92162 62.9563 1.97731C63.0135 1.75528 63.1368 1.53924 63.0766 1.30521C63.0075 1.01416 62.6435 0.888139 62.3939 1.03816C61.8285 1.50324 61.6179 2.28636 61.4194 2.96447C61.0645 4.3837 61.266 5.90494 62.0661 7.14414C62.2977 7.5402 62.5713 7.90626 62.833 8.28132L62.83 8.27832Z" fill="black"/>
<path d="M38.1283 14.9604C39.2682 15.7825 40.6457 16.5116 41.0367 17.9729C41.1811 18.4079 41.2924 18.987 41.3224 19.4701C41.3284 19.5511 41.3615 19.6261 41.4127 19.6862C41.4127 19.9112 41.5661 20.1122 41.8006 20.1422C42.6248 20.1662 42.2969 18.909 42.1947 18.4049C41.3104 14.7294 38.3178 14.8854 36.5372 12.0859C35.4364 10.8167 35.3221 9.85058 35.3582 8.22132C35.4485 7.67523 34.856 7.24016 34.489 7.75024C34.3988 7.92127 34.3807 8.1253 34.3687 8.31733C33.9627 11.0958 35.7913 13.6312 38.1283 14.9544V14.9604Z" fill="black"/>
<path d="M18.3799 31.6041C19.3183 31.8351 20.2296 32.2132 21.0657 32.6992C21.5319 33.1223 21.8627 33.6804 22.1364 34.2415C22.2146 34.4035 22.368 34.5085 22.5365 34.5175C22.6116 34.7306 22.6417 34.9496 22.6417 35.1746C22.6568 35.7657 23.541 35.7597 23.544 35.1746C23.544 34.7426 23.4538 34.3195 23.2703 33.9294C22.5365 32.4472 21.0777 31.304 19.5107 30.8059C17.9528 30.3259 16.1181 30.8599 14.6985 29.9388C14.0187 29.2727 14.2624 28.0725 13.5977 27.4244C12.3826 26.9983 12.8157 29.5247 13.2999 30.0108C14.518 31.5651 16.6234 31.322 18.3799 31.6071V31.6041Z" fill="black"/>
<path d="M27.1384 24.1058C27.4572 24.2829 27.6768 24.796 28.1038 24.6309C28.2422 24.754 28.2963 24.943 28.2813 25.126C28.2813 25.3721 28.4858 25.5761 28.7324 25.5761C29.2889 25.5581 29.2347 24.877 29.0813 24.5049C28.555 23.3077 26.9339 23.3377 26.1278 22.4496C25.8511 22.0205 25.9834 21.4534 25.7308 21.0244C25.2917 20.5473 24.8104 21.0394 24.8074 21.5554C24.627 23.1577 25.9233 23.5928 27.1384 24.1089V24.1058Z" fill="black"/>
<path d="M48.1678 10.6007C48.8024 11.2998 49.2956 12.0679 49.2565 13.0521C49.1813 13.1331 49.1362 13.2381 49.1362 13.3551C49.1332 13.6522 49.434 13.8652 49.7167 13.7932C50.5679 13.7062 50.0295 11.9899 49.8791 11.4588C49.6385 10.6277 48.8776 10.0606 48.676 9.21747C48.5798 8.86942 48.7693 8.35634 48.3512 8.17331C47.9692 8.01428 47.6595 8.39534 47.7046 8.7554C47.7046 9.3915 47.8189 10.0576 48.1678 10.5977V10.6007Z" fill="black"/>
<path d="M13.7661 61.1768C13.8804 61.2068 14.0007 61.2098 14.112 61.1858C14.1872 61.3028 14.3225 61.3928 14.515 61.4048C14.7255 61.4468 14.9992 61.5428 15.2248 61.4528C15.3421 61.4048 15.4203 61.3298 15.4714 61.2458C15.8985 61.3028 16.1903 60.6757 15.7512 60.4087C14.4398 59.6675 12.8698 59.4185 11.3931 59.7095C8.91173 60.1806 6.48154 62.0229 3.86487 61.0538C3.05882 60.8137 2.28284 60.4927 1.50686 60.1686C1.27226 60.0756 1.0136 59.9376 0.76096 60.0366C-0.562412 60.9217 3.05581 62.0829 3.68742 62.278C5.54916 62.842 7.54024 62.692 9.408 62.2389C10.8577 61.8339 12.1991 60.9427 13.7661 61.1798V61.1768Z" fill="black"/>
<path d="M10.7495 48.0347C11.4022 48.1547 12.0428 47.9327 12.6925 47.8847C13.3452 47.8967 13.9587 48.2057 14.6174 48.2117C14.7798 48.2237 14.9272 48.1247 15.0084 47.9897C15.4144 48.0587 15.6881 47.5216 15.3904 47.2306C15.231 47.0685 15.0595 46.9125 14.867 46.7925C13.3692 45.7783 11.6188 47.1975 10.0367 46.5014C9.78408 46.4234 9.55249 46.2884 9.29984 46.2134C8.79756 46.0454 8.41559 46.5674 8.69831 47.0025C9.14345 47.6626 10.0006 47.8997 10.7495 48.0317V48.0347Z" fill="black"/>
<path d="M20.3647 86.0658C19.8143 86.0598 19.3662 86.4708 18.9 86.7289C16.6081 88.1871 15.8021 90.9086 14.2231 92.9819C12.9869 94.7612 10.8785 95.4573 8.90551 96.1054C8.53858 96.2464 8.12953 96.3124 7.79869 96.5224C7.34754 96.9065 7.73252 97.4556 8.24683 97.4376C11.1522 97.3206 14.1479 95.9343 15.8743 93.555C17.5345 91.4426 18.139 88.3701 20.5151 86.9059C20.888 86.7109 20.7798 86.1168 20.3647 86.0658Z" fill="black"/>
<path d="M39.4306 106.187C38.826 105.494 38.1704 106.646 37.8125 107.084C36.7508 108.035 35.8906 109.277 35.5627 110.676C35.268 111.813 35.2349 113.01 34.8379 114.12C34.4348 115.17 33.701 116.047 32.943 116.866C32.6212 117.208 32.2934 117.541 31.9656 117.874C31.6858 118.117 31.3821 118.546 31.74 118.855C32.2844 119.254 32.8859 118.516 33.304 118.216C34.6544 117.049 35.7703 115.62 36.6515 114.072C37.4485 112.803 37.6801 111.318 37.9598 109.872C38.1764 108.923 38.6877 107.999 39.22 107.18C39.2381 107.171 39.2561 107.162 39.2742 107.153C39.2772 107.153 39.2802 107.153 39.2832 107.15C39.9539 107.252 40.1795 106.229 39.4306 106.19V106.187Z" fill="black"/>
<path d="M28.7383 100.636C28.5458 100.48 28.2601 100.513 28.1037 100.702C27.6736 101.227 27.4029 101.773 26.9427 102.298C26.3081 103.072 25.1953 103.328 24.681 104.204C24.4704 104.534 24.5697 105.008 24.9216 105.2C25.5863 105.539 26.3562 105.11 26.8916 104.702C27.6616 104.123 28.1548 103.298 28.4977 102.412C28.6511 102.022 29.2466 101.593 28.8586 101.173C28.9428 100.99 28.8947 100.765 28.7353 100.633L28.7383 100.636ZM25.7096 104.357C25.7096 104.357 25.7246 104.345 25.7306 104.339C25.86 104.237 25.9953 104.147 26.1307 104.057C26.2991 103.952 26.4645 103.847 26.6299 103.736C26.3622 103.994 26.0585 104.225 25.7096 104.36V104.357Z" fill="black"/>
<path d="M85.3935 19.1521C86.1785 18.789 86.5604 17.7478 86.8582 16.9797C87.8537 15.2484 88.2718 13.3011 88.5906 11.3538C88.759 9.80857 90.0764 8.64738 90.1546 7.06913C90.1967 6.55905 90.2208 5.95595 89.8719 5.54489C89.6192 5.24184 89.1621 5.28685 88.9184 5.57789C88.2177 6.42703 87.8507 7.5162 87.574 8.56937C87.4928 8.91442 87.2522 9.28348 87.3514 9.63754C87.0387 10.9908 86.8973 12.365 86.8311 13.7482C86.5454 15.6715 85.7544 17.4838 84.4009 18.912C83.9678 18.861 83.7633 19.3951 84.0129 19.7102C84.4881 20.2862 85.0807 19.5301 85.3935 19.1551V19.1521Z" fill="black"/>
<path d="M74.6291 13.3551C74.8546 13.4602 75.1374 13.3941 75.3569 13.3011C76.5931 12.776 76.9901 11.2998 76.7976 10.0696C76.7164 9.48452 76.578 8.89943 76.6472 8.30533C76.6683 8.0833 76.7826 7.72324 76.56 7.54321C76.5299 7.30017 76.2953 7.14115 76.0667 7.10214C75.6968 7.01813 75.396 7.4922 75.6156 7.78925C75.1915 8.86042 75.2817 10.0426 74.8877 11.1168C74.7043 11.7529 73.7538 12.9081 74.6291 13.3521V13.3551Z" fill="black"/>
<path d="M100.913 30.5299C102.167 30.3318 102.976 29.1557 103.617 28.1595C105.647 26.6413 106.321 24.1149 107.683 22.0655C108.252 21.2644 109.043 20.6643 109.855 20.1182C110.243 19.8362 111.308 19.2721 110.959 18.666C111.362 18.4079 111.184 17.7658 110.688 17.8078C109.467 18.483 108.357 19.4371 107.334 20.4003C105.428 22.1105 104.775 24.6489 103.424 26.7433C102.931 27.9285 101.584 28.2615 100.748 29.1527C100.272 29.5577 100.095 30.4669 100.916 30.5299H100.913Z" fill="black"/>
<path d="M95.8665 21.6635C96.4861 22.0505 96.9433 21.1834 97.3192 20.8113C97.9268 20.1212 98.3629 19.3051 98.7749 18.489C98.8471 18.3389 98.82 18.1679 98.7268 18.0389C99.8456 16.2296 97.5989 16.2806 98.0771 17.3008C97.7914 18.3959 94.9913 20.6853 95.8665 21.6635Z" fill="black"/>
<path d="M107.96 44.3231C109.497 44.6141 110.423 42.9969 111.65 42.4148C112.595 42.0817 113.639 42.1658 114.61 41.9347C116.105 41.6227 117.552 40.9416 118.749 39.9934C119.242 39.5643 119.675 39.0723 120.078 38.5622C120.285 38.2951 120.713 38.0251 120.52 37.644C120.64 37.1099 119.813 36.8219 119.621 37.359C118.282 38.2321 117.287 39.5103 115.738 40.0624C113.572 40.8275 111.281 41.2296 109.19 42.2018C108.456 42.5198 106.525 43.618 107.96 44.3201V44.3231Z" fill="black"/>
<path d="M121.823 59.6976C120.502 59.3555 119.134 58.9984 117.762 59.1455C116.183 59.3525 114.863 60.4357 113.254 60.5377C112.354 60.6517 111.464 60.6067 110.553 60.5917C110.285 60.6427 110.126 60.9127 110.204 61.1708C110.288 61.4558 110.604 61.5248 110.857 61.5939C111.407 61.7379 111.966 61.8579 112.529 61.9359C113.497 62.0739 114.49 61.9929 115.395 61.6089C116.367 61.2848 117.218 60.6547 118.198 60.3727C118.61 60.3457 118.992 60.5497 119.377 60.6697C120.132 60.9338 120.926 61.0778 121.726 61.0298C121.913 61.0208 122.069 60.8947 122.129 60.7267C122.49 60.8617 122.996 61.1558 123.2 60.6427C123.381 59.9466 122.28 59.8806 121.823 59.6886V59.6976Z" fill="black"/>
<path d="M108.941 32.9333C108.664 32.2732 107.783 32.8583 107.314 32.9933C105.987 33.6234 105.202 35.0096 103.867 35.6307C103.704 35.4657 103.434 35.4417 103.25 35.5947C102.922 35.8677 103.157 36.3298 103.482 36.4828C103.858 36.6659 104.255 36.4678 104.586 36.2758C106.24 35.8017 107.064 34.0344 108.703 33.4794C108.908 33.3833 109.01 33.1493 108.944 32.9333H108.941Z" fill="black"/>
<path d="M117.654 49.1539C117.046 49.1989 116.553 49.6069 115.972 49.7029C115.651 49.3789 115.133 49.7 115.187 50.129C115.055 50.243 114.998 50.4441 115.052 50.6121C115.302 51.2212 116.033 50.7621 116.439 50.5851C117.473 50.3481 118.505 49.817 119.588 49.925C119.816 49.979 120.072 49.913 120.183 49.6909C120.565 48.5718 118.219 49.0969 117.651 49.1569L117.654 49.1539Z" fill="black"/>
<path d="M117.967 90.5335C117.338 88.8922 115.931 87.611 114.264 87.0679C112.806 86.2968 111.221 85.8497 109.669 85.3007C109.184 85.1356 108.685 84.9676 108.21 84.7546C107.62 84.5175 107.169 83.9984 106.556 83.8304C106.252 83.7524 105.915 83.9294 105.912 84.2625C105.912 84.5115 106.114 84.7066 106.36 84.7156C107.891 85.7027 109.554 86.5428 111.287 87.1609C112.129 87.476 113.013 87.635 113.87 87.8841C115.257 88.6102 116.189 89.9154 116.92 91.2596C117.173 91.7217 117.413 92.1867 117.648 92.6578C117.759 92.9069 117.886 93.2189 118.207 93.2189C118.595 93.2249 118.752 92.7988 118.616 92.4808C118.448 91.8177 118.213 91.1726 117.967 90.5335Z" fill="black"/>
<path d="M91.9472 108.41C91.3366 107.417 90.9066 106.319 90.4855 105.236C90.4253 105.077 90.2749 104.978 90.1125 104.963C90.0163 104.66 90.1276 104.249 89.8569 104.027C89.6524 103.874 89.3847 103.925 89.2253 104.114C89.0027 104.486 89.2313 104.972 89.2764 105.371C89.5802 106.67 90.0313 107.96 90.7441 109.094C91.5321 110.307 92.7352 111.141 93.7789 112.119C95.0451 113.313 96.1248 114.741 96.7053 116.395C96.8076 116.881 96.8076 117.409 97.0392 117.859C97.2858 118.282 97.9475 118.039 97.9084 117.568C97.6166 116.236 97.4242 114.819 96.7715 113.604C95.5534 111.531 93.2555 110.418 91.9532 108.416L91.9472 108.41Z" fill="black"/>
<path d="M104.736 99.6249C103.984 99.1689 103.391 98.5298 102.997 97.7496C102.868 97.5696 102.603 97.5276 102.414 97.6386C102.014 97.8757 102.263 98.3467 102.408 98.6648C102.766 99.4599 103.226 100.294 103.993 100.759C104.624 101.068 105.343 101.179 105.921 101.608C106.414 101.95 106.925 102.289 106.964 102.943C107.043 103.325 107.611 103.394 107.791 103.054C107.96 102.562 107.62 101.974 107.373 101.554C106.754 100.615 105.65 100.222 104.739 99.6279L104.736 99.6249Z" fill="black"/>
<path d="M115.516 75.5701C115.958 75.5491 116.325 75.6961 116.679 75.9572C116.881 76.1102 117.107 76.3202 117.371 76.1792C117.949 76.6323 118.424 75.7891 118.015 75.3271C117.609 74.811 116.896 74.736 116.282 74.703C115.413 74.3009 114.415 74.3309 113.558 73.8928C113.443 73.8358 113.335 73.7668 113.221 73.7188C112.809 73.5328 112.412 74.0639 112.691 74.4089C112.914 74.6399 113.218 74.796 113.497 74.952C114.129 75.273 114.809 75.5041 115.519 75.5671L115.516 75.5701Z" fill="black"/>
<path d="M63.6721 114.876C63.3774 113.946 63.3232 113.019 63.1548 112.035C63.1638 111.315 61.8825 111.327 62.1111 112.101C61.687 113.487 61.8104 114.972 62.4089 116.29C63.0194 117.892 63.5879 119.599 63.3864 121.333C63.3142 122.009 63.1909 122.672 63.0856 123.341C63.0525 123.518 63.0706 123.71 63.1758 123.86C64.012 124.667 64.5684 122.66 64.8331 122.111C65.4587 120.625 65.3263 118.924 64.6887 117.466C64.3548 116.599 63.9548 115.756 63.6691 114.873L63.6721 114.876ZM64.3338 120.331C64.3127 119.551 64.1443 118.789 63.9398 118.036C64.2255 118.765 64.3849 119.548 64.3338 120.331Z" fill="black"/>
<path d="M79.3002 113.109C79.204 112.968 79.0265 112.905 78.8641 112.929C78.6777 112.782 78.3919 112.818 78.2416 113.001C77.9588 113.385 78.416 113.859 78.5032 114.258C78.9393 115.23 78.9604 116.122 79.1619 117.103C80.1604 118.099 80.4582 115.714 80.2958 115.092C80.1634 114.357 79.7153 113.715 79.3002 113.109Z" fill="black"/>
<path d="M49.6082 113.115C49.7105 112.503 48.8984 112.062 48.6157 112.707C48.5705 112.854 48.6066 113.022 48.7059 113.139C48.6818 114.204 48.754 115.311 48.3329 116.314C48.2517 116.494 48.1435 116.725 48.0292 116.953C47.8848 117.241 47.6622 117.592 47.8848 117.901C48.5826 118.624 49.3195 117.487 49.4428 116.836C49.7074 115.963 49.8037 115.05 49.7706 114.138C49.7345 113.808 49.8488 113.385 49.6052 113.118L49.6082 113.115Z" fill="black"/>
<path d="M11.408 76.2902C11.9885 75.8822 12.6261 75.5521 13.3239 75.3991C13.5404 75.3661 13.778 75.2761 13.8412 75.051C14.3314 75.027 14.933 74.4869 14.4187 74.0639C14.2322 73.9348 13.9735 73.9678 13.8232 74.1329C12.59 74.3099 11.3118 74.5889 10.3884 75.4921C9.98236 75.8522 9.63347 76.1792 9.14022 76.4462C8.65298 76.6923 8.1146 76.8123 7.57924 76.9173C7.14614 76.9563 6.6228 77.1754 6.88748 77.6914C7.2093 78.1265 7.85895 77.8625 8.31311 77.8355C9.49813 77.6794 10.5298 77.0763 11.405 76.2932L11.408 76.2902Z" fill="black"/>
<path d="M27.7306 44.7222C27.52 44.5991 27.2373 44.6741 27.114 44.8842C26.717 45.5143 26.317 46.1444 25.9951 46.8165C25.1229 48.8028 24.2266 50.8041 23.6642 52.9015C23.5619 53.3515 23.4717 53.8076 23.3664 54.2577C23.3093 54.4947 23.4386 54.7438 23.6822 54.8098C23.9108 54.8728 24.1815 54.7348 24.2356 54.4947C24.359 53.9756 24.4492 53.4506 24.5845 52.9345C24.9003 51.7193 25.3996 50.5731 25.8718 49.4149C26.4132 47.9897 27.0298 46.6185 27.896 45.3373C28.0193 45.1272 27.9471 44.8452 27.7336 44.7222H27.7306Z" fill="black"/>
<path d="M22.9575 56.58C22.7109 56.58 22.5063 56.7841 22.5063 57.0301C22.5063 57.2762 22.7109 57.4802 22.9575 57.4802C23.2041 57.4802 23.4086 57.2762 23.4086 57.0301C23.4086 56.7841 23.2041 56.58 22.9575 56.58Z" fill="black"/>
<path d="M101.157 73.5478C101.376 73.6408 101.656 73.5358 101.746 73.3077C101.933 72.8306 102.116 72.3476 102.26 71.8555C102.943 69.3711 102.973 66.8177 103.118 64.2523C103.133 63.7272 103.106 63.2051 103.045 62.686C103.018 62.443 102.778 62.269 102.537 62.302C102.291 62.335 102.122 62.566 102.149 62.809C102.278 63.8592 102.188 64.9184 102.125 65.9746C102.032 67.5648 101.942 69.1401 101.617 70.7333C101.457 71.4984 101.205 72.2335 100.913 72.9567C100.823 73.1847 100.925 73.4487 101.154 73.5448L101.157 73.5478Z" fill="black"/>
<path d="M100.08 76.4612C100.327 76.4612 100.531 76.2572 100.531 76.0112C100.531 75.7651 100.327 75.5611 100.08 75.5611C99.8334 75.5611 99.6289 75.7651 99.6289 76.0112C99.6289 76.2572 99.8334 76.4612 100.08 76.4612Z" fill="black"/>
<path d="M70.2019 56.8531C70.0545 56.436 69.8801 56.028 69.7267 55.6169C69.4951 55.0738 68.677 55.4249 68.8935 55.9649C69.1823 56.7151 69.45 57.3752 69.6876 58.1643C70.1718 59.9286 70.4034 61.7439 70.3553 63.5802C70.3132 63.8382 70.4545 64.1142 70.7372 64.1473C71.5704 64.2013 71.1884 62.794 71.2455 62.266C71.1493 60.4267 70.8485 58.5814 70.2019 56.8501V56.8531Z" fill="black"/>
<path d="M69.4106 66.9677C69.4106 67.2138 69.6152 67.4178 69.8618 67.4178C70.1084 67.4178 70.3129 67.2138 70.3129 66.9677C70.3129 66.7217 70.1084 66.5176 69.8618 66.5176C69.6152 66.5176 69.4106 66.7217 69.4106 66.9677Z" fill="black"/>
<path d="M76.7918 86.4888C75.5195 87.1729 74.2052 87.788 72.9239 88.4992C72.3314 88.8022 71.6577 89.0332 70.9539 89.1983C70.7163 89.2523 70.5749 89.5223 70.6381 89.7504C70.9449 90.8305 74.4067 88.6762 75.0654 88.3791C75.7932 88.0131 76.5301 87.656 77.2459 87.263C77.7542 86.9629 77.3001 86.1948 76.7918 86.4858V86.4888Z" fill="black"/>
<path d="M68.5117 89.6543C68.2651 89.6543 68.0605 89.8584 68.0605 90.1044C68.0605 90.3504 68.2651 90.5545 68.5117 90.5545C68.7583 90.5545 68.9628 90.3504 68.9628 90.1044C68.9628 89.8584 68.7583 89.6543 68.5117 89.6543Z" fill="black"/>
<path d="M71.6818 24.802C72.0457 24.859 72.4066 24.934 72.7645 25.03C74.3797 25.5071 76.0249 25.9272 77.5918 26.5603C77.8114 26.6593 78.0821 26.5963 78.1994 26.3652C78.3077 26.1552 78.2295 25.8581 78.0039 25.7591C76.7226 25.222 75.3752 24.847 74.0428 24.4629C73.33 24.2589 72.6081 24.0189 71.8683 23.9168C71.2878 23.8058 71.1103 24.676 71.6848 24.799L71.6818 24.802Z" fill="black"/>
<path d="M68.4365 24.6129C68.6831 24.6129 68.8756 24.3729 68.8606 24.1389C68.8455 23.8838 68.632 23.7158 68.3854 23.7158C68.1387 23.7158 67.9462 23.9558 67.9613 24.1899C67.9763 24.4449 68.1899 24.6129 68.4365 24.6129Z" fill="black"/>
<path d="M30.8436 87.344C30.5218 86.9509 30.218 86.5248 29.7999 86.2278C29.3036 85.9097 28.8164 86.6509 29.3036 86.9809C30.1548 87.74 30.6842 88.7392 31.4361 89.6093C31.8752 90.1194 32.3444 90.6055 32.8046 91.0976C33.2046 91.5326 33.8663 90.9445 33.4843 90.5035C32.5128 89.5223 31.6556 88.4661 30.8466 87.347L30.8436 87.344Z" fill="black"/>
<path d="M35.4064 92.5918C35.1598 92.5918 34.9432 92.7628 34.9312 93.0179C34.9192 93.2549 35.1117 93.492 35.3583 93.492C35.6049 93.492 35.8185 93.3209 35.8335 93.0659C35.8455 92.8289 35.653 92.5918 35.4064 92.5918Z" fill="black"/>
<path d="M37.7824 46.6755C37.5358 46.6755 37.3192 46.8465 37.3072 47.1015C37.2951 47.3386 37.4876 47.5756 37.7343 47.5756C37.9809 47.5756 38.1974 47.4046 38.2095 47.1496C38.2215 46.9125 38.029 46.6755 37.7824 46.6755Z" fill="black"/>
<path d="M60.0332 69.3831C60.0452 69.1461 59.8527 68.909 59.6061 68.909C59.3595 68.909 59.1429 69.0801 59.1309 69.3351C59.1189 69.5721 59.3114 69.8092 59.558 69.8092C59.8046 69.8092 60.0212 69.6381 60.0332 69.3831Z" fill="black"/>
<path d="M40.8952 64.7504C40.6486 64.7504 40.432 64.9214 40.42 65.1764C40.4079 65.4135 40.6004 65.6505 40.8471 65.6505C41.0937 65.6505 41.3072 65.4795 41.3223 65.2244C41.3343 64.9874 41.1418 64.7504 40.8952 64.7504Z" fill="black"/>
<path d="M71.3869 44.7612C71.1403 44.7612 70.9237 44.9322 70.9117 45.1872C70.8996 45.4243 71.0921 45.6613 71.3388 45.6613C71.5854 45.6613 71.8019 45.4903 71.814 45.2352C71.826 44.9982 71.6335 44.7612 71.3869 44.7612Z" fill="black"/>
<path d="M84.1423 67.8769C83.8956 67.8769 83.6791 68.0479 83.667 68.3029C83.655 68.54 83.8475 68.777 84.0941 68.777C84.3408 68.777 84.5573 68.606 84.5693 68.3509C84.5814 68.1139 84.3889 67.8769 84.1423 67.8769Z" fill="black"/>
<path d="M90.6208 87.8811C90.3741 87.8811 90.1576 88.0521 90.1456 88.3071C90.1335 88.5442 90.326 88.7812 90.5726 88.7812C90.8193 88.7812 91.0358 88.6102 91.0479 88.3551C91.0599 88.1181 90.8674 87.8811 90.6208 87.8811Z" fill="black"/>
<path d="M58.3337 99.865C58.087 99.865 57.8705 100.036 57.8584 100.291C57.8464 100.528 58.0389 100.765 58.2855 100.765C58.5322 100.765 58.7487 100.594 58.7607 100.339C58.7728 100.102 58.5803 99.865 58.3337 99.865Z" fill="black"/>
<path d="M35.7912 81.409C35.5445 81.409 35.328 81.58 35.316 81.8351C35.3039 82.0721 35.4964 82.3092 35.7431 82.3092C35.9897 82.3092 36.2032 82.1381 36.2183 81.8831C36.2303 81.6461 36.0378 81.409 35.7912 81.409Z" fill="black"/>
<path d="M44.2636 30.6229C44.5102 30.6229 44.7267 30.4519 44.7388 30.1968C44.7508 29.9598 44.5583 29.7227 44.3117 29.7227C44.0651 29.7227 43.8485 29.8938 43.8365 30.1488C43.8244 30.3859 44.0169 30.6229 44.2636 30.6229Z" fill="black"/>
<path d="M83.8417 33.0443C84.0883 33.0443 84.3049 32.8733 84.3169 32.6182C84.3289 32.3812 84.1364 32.1441 83.8898 32.1441C83.6432 32.1441 83.4266 32.3152 83.4146 32.5702C83.4026 32.8072 83.5951 33.0443 83.8417 33.0443Z" fill="black"/>
<path d="M93.8119 50.6811C94.0585 50.6811 94.2751 50.5101 94.2871 50.2551C94.2991 50.018 94.1067 49.781 93.86 49.781C93.6134 49.781 93.3968 49.952 93.3848 50.207C93.3728 50.4441 93.5653 50.6811 93.8119 50.6811Z" fill="black"/>
</g>
<defs>
<clipPath id="clip0_9218_3918">
<rect width="124" height="125" fill="white"/>
</clipPath>
</defs>
</svg>
