<svg xmlns="http://www.w3.org/2000/svg" width="474" height="199" fill="none"><rect width="474" height="199" fill="#ADAEB4" rx="4"/><g clip-path="url(#a)"><path fill="#8AE1EF" d="M72 102.497c.267-.272.622-.608.835-.901.834-1.055.834-2.447.532-3.68a4.692 4.692 0 0 0-.923-1.603.695.695 0 0 1-.088-.046H.042v6.463H71.77a.84.84 0 0 1 .23-.233ZM8.22 98.187a.54.54 0 0 1-.55-.518c-.01-.283.223-.555.514-.555a.54.54 0 0 1 .55.519c.011.282-.223.554-.514.554Zm12.84-.014c-.515.007-1.03.05-1.544.025-1.722.047-3.44.179-5.16.233-1.076 0-2.147-.061-3.216-.126-.49-.039-1.355.083-1.323-.644.103-.711.915-.407 1.405-.425.973.053 1.93.121 2.903.118 2.104-.029 4.198-.247 6.303-.233.35-.032.702-.01 1.054-.021a.542.542 0 0 1 .645.433c.071.672-.606.665-1.064.64h-.004Zm11.16 2.307c-.29 0-.525-.265-.518-.55a.54.54 0 0 1 .547-.523c.29 0 .525.265.518.55a.54.54 0 0 1-.547.523Zm20.562 1.119a.54.54 0 0 1-.55-.518c-.011-.283.223-.555.514-.555.291 0 .54.219.55.519.01.283-.223.554-.514.554Zm14.557-.182c-1.292 0-2.58-.007-3.872.079-2.253.039-4.507.189-6.76.222-.561.025-1.122.028-1.683.057a.539.539 0 0 1-.55-.519c.047-.898 1.37-.476 1.963-.601 1.732-.025 3.464-.136 5.195-.168 2.506-.175 5.022-.064 7.527-.197a.535.535 0 0 1 .756.39c.142 1.027-1.934.673-2.576.737Z"/><path fill="#C7F182" d="M75.688 105.97c1.373.912 3.219 1.034 4.78 1.324 1.413.164 2.797.393 4.216.382.344-.007.92.018.905-.454.007-.018.007-.036.01-.057V92.45a.72.72 0 0 1-.067-.382c-1.778-.147-3.587.232-5.326.536-1.502.258-2.935.744-4.17 1.595-.163.136-.37.272-.493.433a.654.654 0 0 1-.228.225v10.487c.032.036.06.076.09.122.074.182.13.368.28.501l.003.003Zm6.423-4.596c-.29 0-.525-.264-.518-.551a.541.541 0 0 1 .547-.522c.29 0 .525.265.518.551a.54.54 0 0 1-.547.522Zm-3.776-7.178c.33-.1.671-.115.987-.168 1.292-.25 2.57-.74 3.904-.623.635-.128.883.823.287 1.03-.731.061-1.48.022-2.204.226-.983.19-2.015.611-3.013.522-.415-.175-.397-.851.04-.987Zm-1.178.565c.291 0 .518.279.508.562a.543.543 0 0 1-.557.511c-.291 0-.519-.279-.508-.562a.543.543 0 0 1 .557-.511Z"/><path fill="#DEDFE2" d="M86.85 101.188c.343.841.507 1.914 1.365 2.354 1.615.554 3.393.354 5.072.361.028 0 .053 0 .081-.004.092 0 .181-.003.273-.007v-8.76a1.97 1.97 0 0 0-.33.026c-.358.01-.72.028-1.078.046-.245.025-.494.05-.739.068-1.242.172-2.65.072-3.765.687-.369.343-.543.776-.678 1.252-.11.308-.27.554-.319.869a.646.646 0 0 1-.067.161v2.339a.504.504 0 0 1 .081.251c.014.118.071.264.103.364v-.007Z"/><path fill="#000" d="M.011 102.729v.308c0 .143-.003.286-.007.429v.337h.04v-1.074H.011ZM.007 95.193c.022.358-.025.716 0 1.073h.037v-1.073H.007Z"/><path fill="#000" d="M73.722 103.803a.408.408 0 0 0 .135-.022c.131 0 .266 0 .397.025v1.732a.51.51 0 0 0 .188.411.746.746 0 0 0 .068.129c.596 2.085 7.803 2.539 9.816 2.671.773.026 1.774.008 2.16-.801.05-.146.11-.329.157-.518.007-.025.014-.05.018-.075.046-.222.064-.448.007-.634v-1.58c.6.017 1.217.01 1.824.01 1.267.007 2.527-.128 3.794-.125.234-.007.468-.021.702-.036.224-.003.45-.01.678-.014.043.004.085 0 .124 0 .273.021.568-.036.713-.254a.506.506 0 0 0 .21-.422v-9.407a.53.53 0 0 0-.1-.329c0-.325-.312-.633-.66-.53-.095.012-.191.015-.287.022h-.021c-.486.022-.97.05-1.455.083a43.55 43.55 0 0 0-1.53.071c-1.323.086-2.654.204-3.978.111h-.01v-2.2a.536.536 0 0 0-.064-.26v-.004c-.249-1.21-1.81-.88-2.715-.852-1.48.14-2.956.337-4.408.662-1.565.311-3.09.905-4.361 1.91a2.15 2.15 0 0 0-.408.404.48.48 0 0 0-.156.172.51.51 0 0 0-.299.476v.658a.524.524 0 0 0-.294-.093H.042v1.073h72.314a.695.695 0 0 0 .088.046c.405.465.731 1.009.923 1.603.302 1.234.302 2.625-.532 3.68-.213.293-.568.63-.834.901a.84.84 0 0 0-.23.233H.041v1.073h73.683-.003Zm12.942-5.566a.644.644 0 0 0 .068-.16c.05-.315.21-.562.32-.87.134-.472.304-.904.677-1.251 1.114-.612 2.527-.516 3.765-.687.245-.018.493-.043.738-.068.359-.018.72-.036 1.08-.047.102-.017.216-.021.33-.025v8.76c-.09.003-.182.01-.274.007-.028 0-.053 0-.082.003-1.678-.01-3.456.194-5.07-.361-.86-.44-1.023-1.513-1.367-2.353-.032-.1-.089-.243-.103-.365a.475.475 0 0 0-.082-.25v-2.34.007ZM75.32 94.865a.654.654 0 0 0 .227-.226c.124-.16.33-.296.493-.432 1.235-.852 2.669-1.338 4.17-1.596 1.739-.304 3.549-.683 5.327-.536a.663.663 0 0 0 .067.382v14.715c0 .018 0 .036-.01.057.014.472-.561.447-.905.455-1.42.01-2.804-.219-4.216-.383-1.562-.293-3.407-.411-4.78-1.323-.153-.133-.206-.322-.28-.501a.816.816 0 0 0-.09-.122V94.868l-.003-.003Z"/><path fill="#000" d="M69.154 100.287c-2.501.133-5.021.022-7.526.197-1.732.036-3.464.147-5.196.168-.592.129-1.916-.293-1.962.601a.54.54 0 0 0 .55.519c.56-.029 1.121-.032 1.682-.058 2.253-.032 4.507-.182 6.76-.221 1.288-.086 2.58-.079 3.872-.079.642-.064 2.718.29 2.576-.737a.536.536 0 0 0-.755-.39ZM52.745 100.526c-.29 0-.525.272-.514.555.01.3.259.518.55.518.29 0 .525-.271.514-.554a.541.541 0 0 0-.55-.519ZM21.477 97.1c-.351.01-.703-.01-1.054.022-2.104-.015-4.201.204-6.302.232-.97.004-1.927-.064-2.903-.118-.486.018-1.303-.286-1.406.426-.032.722.834.604 1.324.643 1.072.065 2.14.126 3.215.126 1.721-.054 3.439-.183 5.16-.233.515.025 1.03-.014 1.544-.025.458.025 1.136.029 1.064-.64a.538.538 0 0 0-.645-.433h.003ZM8.18 97.114c-.291 0-.525.272-.515.555.011.3.26.518.55.518.291 0 .526-.272.515-.554a.54.54 0 0 0-.55-.519ZM78.296 95.183c.994.09 2.03-.332 3.013-.522.724-.204 1.473-.168 2.204-.225.593-.208.344-1.159-.287-1.03-1.335-.118-2.616.372-3.904.622-.312.05-.657.064-.987.168-.436.136-.454.812-.039.987ZM77.108 95.834a.543.543 0 0 0 .557-.512c.014-.282-.217-.561-.508-.561a.543.543 0 0 0-.557.511c-.014.283.217.562.508.562ZM82.14 100.302a.538.538 0 0 0-.547.522c-.007.286.227.551.518.551.291 0 .54-.222.547-.522.007-.287-.228-.551-.519-.551ZM32.251 99.407a.538.538 0 0 0-.546.522c-.007.287.227.551.518.551.29 0 .54-.222.546-.522.008-.286-.227-.55-.518-.55ZM168.747 105.632v5.749c.05.075.085.166.096.283.163.98.373 1.934.937 2.751.83 1.018 2.086 1.605 3.321 1.962 1.81.28 3.57.124 5.38.064.295-.028.589-.004.888-.018.01 0 .021-.003.031-.007a.525.525 0 0 1 .33-.01h108.146a.467.467 0 0 1 .163-.007c1.551.088 3.048.152 4.571.116 1.369-.017 2.864.074 4.095-.594 1.409-.841 2.264-2.415 2.594-3.981.078-.393-.014-.792.032-1.185.004-.028.014-.049.021-.074V87.257s-.014-.032-.017-.05c-.071-.657 0-1.343-.249-1.97a5.085 5.085 0 0 0-2.878-3.2c-1.781-.823-3.84-.696-5.749-.749a.547.547 0 0 1-.479-.007H179.117c-.018 0-.036-.003-.057-.007h-.004c-1.1-.053-2.14.028-3.219-.021-2.984-.18-6.284.506-6.927 3.861.004-.025 0-.007.015-.067a2.974 2.974 0 0 0-.114.633.913.913 0 0 1-.064.31v19.642Z"/><path fill="#DE83F0" d="m141.876 117.756-.071.003c13.251-.873 21.392-15.154 15.423-26.928-7.538-14.684-28.798-13.302-34.38 2.189-4.451 12.608 5.685 25.751 19.028 24.736Zm.082-16.647c.291 0 .532.241.532.531 0 .29-.241.53-.532.53a.535.535 0 0 1-.533-.53c0-.29.242-.531.533-.531Zm-18.287-2.482a.536.536 0 0 1-.533-.53c0-.29.242-.53.533-.53.291 0 .532.24.532.53 0 .29-.241.53-.532.53Zm1.366-3.96c-.209.52-.145 1.651-.962 1.507-.745-.262-.166-1.107-.106-1.634a29.336 29.336 0 0 1 2.931-6.131c.27-.287.454-.74.863-.831.447-.081.794.502.493.849-.855.912-1.352 2.075-1.895 3.185-.543 1.001-.955 1.998-1.324 3.052v.003Z"/><path fill="#FFC2E8" d="M103.766 132.126c1.203 3.1 3.563 4.147 6.721 4.349 1.956.092 3.9.212 5.835.328h236.127c.114 0 .22.039.306.099.954.011 1.919.018 2.871.015 6.21-.036 10.614-.831 11.192-7.938.018-.248.089-.481.114-.729a.53.53 0 0 1-.053-.226v-.201a.642.642 0 0 1 0-.223V71.519c-.011-.035-.022-.07-.025-.113-.146-.983-.089-2.02-.192-2.995-.174-2.125-1.157-4.126-2.849-5.445-.991-.672-2.006-1.156-3.145-1.425-1.692-.283-3.414-.103-5.096-.29a.412.412 0 0 1-.092.01H112.624l-.014.008c-.203.035-.409-.011-.614.01-5.118-.247-7.893 1.118-8.766 6.425-.057.276-.028.69-.11 1.008v61.133c.117.279.11.665.202.919.068.485.306.927.44 1.358l.004.004Zm261.065-31.444a.54.54 0 0 1-.546-.516.537.537 0 0 1 .518-.545c.287 0 .539.227.546.516a.538.538 0 0 1-.518.545Zm.412-23.672c.01 5.813.546 11.675.301 17.484-.035.966-.078 1.934-.071 2.903a.532.532 0 0 1-.518.541.54.54 0 0 1-.546-.516c.042-3.31.234-6.57.078-9.865-.139-3.461-.295-6.92-.298-10.377-.1-.68.937-.853 1.054-.163v-.007ZM121.822 125.46a.535.535 0 0 1-.532-.531c0-.29.241-.53.532-.53.291 0 .532.24.532.53 0 .29-.241.531-.532.531Zm65.166-4.851a.535.535 0 0 1-.525-.538.54.54 0 0 1 .539-.523c.288 0 .529.251.526.537a.541.541 0 0 1-.54.524Zm19.352-.312c-4.373.053-8.805.223-13.181.329-1.16.089-2.196.103-3.332.156-.287.01-.529-.262-.525-.538.003-.3.252-.512.539-.523.639-.035 1.406-.056 2.016-.078 2.594-.127 5.195-.198 7.782-.272 2.194.004 4.387-.148 6.576-.131.682-.078.82.962.125 1.054v.003Zm18.819 9.335a.536.536 0 0 1-.533-.531c0-.289.242-.53.533-.53.291 0 .532.241.532.53 0 .29-.241.531-.532.531Zm63.196-1.581a.535.535 0 0 1-.532-.53c0-.29.241-.53.532-.53.291 0 .532.24.532.53 0 .29-.241.53-.532.53Zm62.81-4.578c.291 0 .532.24.532.53 0 .29-.241.53-.532.53a.535.535 0 0 1-.533-.53c0-.29.242-.53.533-.53Zm-6.573-54.352c.291 0 .533.24.533.53 0 .29-.242.53-.533.53a.535.535 0 0 1-.532-.53c0-.29.241-.53.532-.53Zm-33.45-.902c.291 0 .532.24.532.53 0 .29-.241.53-.532.53a.536.536 0 0 1-.533-.53c0-.29.242-.53.533-.53Zm-.384 21.508c7.985-15.451 30.381-13.991 36.297 2.337 4.802 13.624-6.352 27.65-20.742 26.115-13.691-1.414-21.776-16.257-15.555-28.452Zm-6.653 44.349c4.822-.074 9.645.029 14.468.106 1.022 0 2.044-.067 3.062 0 .341-.014.703.17.692.552-.003.283-.252.537-.539.523-5.894-.053-11.8-.194-17.698-.123-.688-.015-.685-1.061.015-1.061v.003Zm-2.548-.063c.291 0 .528.251.525.537a.54.54 0 0 1-.54.523.538.538 0 0 1-.525-.537.538.538 0 0 1 .54-.523Zm-28.795-56.555c3.24-.007 6.473.025 9.713 0 2.739-.035 5.486.018 8.226-.039.362-.081.852-.028.905.424.039.273-.163.577-.454.598-.994.095-1.998.05-2.996.064-3.233-.015-6.462.042-9.691.024-1.899 0-3.801-.007-5.7-.007a.535.535 0 0 1-.532-.53c0-.29.241-.53.532-.53l-.003-.004Zm-3.631-.318c.291 0 .533.24.533.53 0 .29-.242.53-.533.53a.535.535 0 0 1-.532-.53c0-.29.241-.53.532-.53Zm-23.599-8.444c.291 0 .532.24.532.53 0 .29-.241.531-.532.531a.535.535 0 0 1-.532-.53c0-.29.241-.53.532-.53Zm-58.569-3.094c.291 0 .533.24.533.53 0 .29-.242.531-.533.531a.535.535 0 0 1-.532-.53c0-.29.241-.53.532-.53Zm-19.28 20.398a.49.49 0 0 1 .039-.198c0-.102.011-.205.039-.304.018-.23.064-.456.128-.675 0 .007 0 .01-.004.018 0 .014-.007.028-.007.042.433-2.471 2.615-4.264 5.068-4.55 1.859-.255 4.13-.117 6.082-.11-.018 0-.032-.004-.049 0h.031a.4.4 0 0 1 .068.007h-.05.039c.018 0 .036-.007.054-.007h111.158c.042 0 .081.007.124.018 2.289.02 4.723-.078 6.757 1.096 1.139.615 2.157 1.594 2.629 2.804.245.565.483 1.06.518 1.644.015.403.093.714.075 1.082.025.06.039.127.039.205v23.594a.454.454 0 0 1-.014.12.824.824 0 0 1-.025.272c.103 2.157-1.146 4.424-2.917 5.633-1.941 1.213-4.358.806-6.541.884h.018-.046.028c-.841-.018-1.643-.067-2.477-.096-.152-.014-.326 0-.486-.017H179.543c-.27.042-.575 0-.82.017-1.21.05-2.331.131-3.531.099-1.838.11-3.588-.403-5.096-1.439-1.146-.717-1.821-1.994-2.094-3.274-.099-.297-.124-.636-.191-.94a.523.523 0 0 1-.128-.347V86.001Zm-3.659 35.27c.291 0 .532.24.532.53 0 .29-.241.53-.532.53a.535.535 0 0 1-.532-.53c0-.29.241-.53.532-.53Zm-.869-45.42c0 .29-.242.53-.533.53a.535.535 0 0 1-.532-.53c0-.29.241-.531.532-.531.291 0 .533.24.533.53Zm-17.372-12.436c1.058 0 2.115.035 3.177.035 3.818.064 7.622-.329 11.437-.297.596-.007 1.196.007 1.792-.05a.552.552 0 0 1 .6.036.54.54 0 0 1 .096.746c-.401.442-1.104.262-1.643.322-4.511-.046-9.003.42-13.517.29a71.128 71.128 0 0 0-1.945-.021.535.535 0 0 1-.532-.53c0-.29.241-.531.532-.531h.003Zm6.576 3.118c0 .29-.241.53-.532.53a.535.535 0 0 1-.532-.53c0-.29.241-.53.532-.53.291 0 .532.24.532.53Zm-10.965-3.355c.291 0 .532.24.532.53 0 .29-.241.53-.532.53a.536.536 0 0 1-.533-.53c0-.29.242-.53.533-.53ZM126.29 85.485c10.405-10.734 28.646-6.396 33.089 7.846 4.521 14.585-8.656 28.566-23.553 24.977-14.788-3.6-20.122-21.911-9.536-32.823Zm-8.162-11.626c.291 0 .532.241.532.53 0 .29-.241.531-.532.531a.535.535 0 0 1-.532-.53c0-.29.241-.53.532-.53Zm-12.169 44.933c.291 0 .543.209.554.509.01.28-.22.552-.511.552-.291 0-.543-.209-.554-.509-.011-.28.22-.552.511-.552Zm-.071 3.285c.284-.011.55.219.554.509.028 1.683.103 3.366.181 5.049.071.665-.036 1.326-.007 1.991.117.718.344 1.418.688 2.061 1.271 2.097 3.982 2.044 6.154 2.054a.54.54 0 0 1 .66.128.533.533 0 0 1-.064.746c-.266.226-.625.184-.948.173-.482 0-.968.039-1.455-.011-3.488-.102-5.905-1.856-6.107-5.484.113-1.955-.16-3.907-.138-5.865-.008-.478-.196-1.287.486-1.348l-.004-.003Z"/><path fill="#DE83F0" d="M329.684 117.187c.827-.06 1.664-.166 2.466-.329 10.025-1.955 16.704-12.081 14.578-21.992-1.724-8.978-10.44-15.568-19.543-14.858-10.22.57-18.244 9.756-17.438 19.886.592 10.116 9.823 18.096 19.933 17.293h.004Zm3.233-27.943c.291 0 .532.24.532.53 0 .29-.241.53-.532.53a.536.536 0 0 1-.533-.53c0-.29.242-.53.533-.53Zm-18.245 18.294c-.22.173-.578.152-.748-.085-1.814-2.676-2.783-7.793-2.073-10.947.163-.463.092-1.272.774-1.22.277.036.511.308.461.595-.852 2.98-.231 6.102.696 8.973.227.601.493 1.196.837 1.744.245.261.39.678.057.94h-.004Zm11.427-1.054c.291 0 .533.241.533.531 0 .29-.242.53-.533.53a.535.535 0 0 1-.532-.53c0-.29.241-.531.532-.531Zm-10.234 2.419c.291 0 .532.24.532.53a.537.537 0 0 1-.532.531.536.536 0 0 1-.533-.531c0-.286.242-.53.533-.53Z"/><path fill="#000" d="M135.826 118.308c14.897 3.589 28.074-10.395 23.553-24.976-4.443-14.239-22.684-18.58-33.089-7.846-10.586 10.911-5.256 29.223 9.536 32.822Zm-12.982-25.291c5.582-15.49 26.843-16.876 34.381-2.189 5.969 11.778-2.172 26.055-15.423 26.929l.071-.004c-13.347 1.015-23.483-12.128-19.029-24.736ZM326.312 118.18c14.391 1.531 25.544-12.492 20.743-26.115-5.912-16.328-28.312-17.789-36.297-2.337-6.221 12.198 1.863 27.041 15.554 28.452Zm.873-38.172c9.103-.71 17.819 5.88 19.543 14.857 2.126 9.911-4.553 20.037-14.578 21.993-.805.162-1.639.272-2.466.329-10.111.802-19.341-7.182-19.934-17.294-.805-10.13 7.215-19.316 17.439-19.885h-.004ZM179.011 80.217h-.032.1a.435.435 0 0 1-.068-.007v.007Z"/><path fill="#000" d="M168.002 112.866c.273 1.28.948 2.557 2.094 3.274 1.508 1.036 3.258 1.546 5.096 1.439 1.199.032 2.321-.049 3.531-.099.245-.017.55.025.82-.017h108.418c.16.014.334 0 .486.017.834.029 1.636.078 2.477.096 2.183-.078 4.596.329 6.541-.884 1.77-1.209 3.016-3.479 2.917-5.632a.85.85 0 0 0 .025-.273.668.668 0 0 0 .014-.12V87.073a.61.61 0 0 0-.039-.205c.017-.364-.064-.68-.075-1.082-.035-.58-.273-1.079-.518-1.644-.468-1.21-1.49-2.189-2.63-2.804-2.033-1.174-4.468-1.075-6.756-1.096a.489.489 0 0 0-.125-.018H179.12c-.017 0-.035.004-.053.007h-.039c-1.952-.007-4.223-.145-6.083.11-2.455.286-4.634 2.075-5.067 4.55 0-.014.007-.028.007-.042a3.347 3.347 0 0 0-.124.658 1.267 1.267 0 0 0-.039.303.563.563 0 0 0-.039.198v25.578c0 .149.053.262.127.347.068.304.093.643.192.94v-.007Zm.809-27.19c.011-.212.057-.424.114-.633-.015.064-.007.043-.015.067.646-3.352 3.943-4.04 6.928-3.86 1.079.049 2.118-.029 3.218.02h.004c.018 0 .035.008.057.008H289.98c.128.067.288.081.479.007 1.906.053 3.968-.075 5.749.75a5.085 5.085 0 0 1 2.878 3.2c.252.625.181 1.311.249 1.969.003.017.01.032.018.05v23.424a.946.946 0 0 0-.022.074c-.046.392.043.792-.032 1.184-.333 1.567-1.185 3.14-2.594 3.982-1.231.671-2.725.58-4.095.594-1.519.035-3.02-.029-4.571-.117a.63.63 0 0 0-.163.007H179.731a.524.524 0 0 0-.33.011.088.088 0 0 0-.032.007c-.295.014-.593-.014-.887.017-1.81.061-3.571.216-5.38-.063-1.235-.357-2.492-.944-3.322-1.963-.564-.813-.774-1.771-.937-2.75a.621.621 0 0 0-.096-.283V85.987a.889.889 0 0 0 .064-.31Z"/><path fill="#000" d="M102.055 107.598v22.382a.53.53 0 0 0 .071.254c.011.085.029.17.054.255.514 3.066 2.626 6.078 5.841 6.693 2.661.527 5.373.456 8.084.665a.799.799 0 0 0 .415.018h235.408c.159.049.344.063.514.067.22.053.564.021.816.028.863.074 1.672-.014 2.552.028h-.068c7.552-.014 11.669-1.619 12.258-9.804a1.34 1.34 0 0 0-.057-.471V71.541a.457.457 0 0 0-.032-.17v-.092c-.128-.774-.071-1.538-.156-2.337-.046-3.925-2.509-7.224-6.331-8.295-1.618-.463-3.332-.255-4.993-.386a32.812 32.812 0 0 0-1.075-.099.546.546 0 0 0-.242.043H112.595a.57.57 0 0 0-.188.035c-.834-.138-1.796.05-2.63.014-2.796-.042-5.649 1.52-6.71 4.17-.472 1.201-.841 2.4-.951 3.701a2.845 2.845 0 0 0-.039.315.471.471 0 0 0-.025.145v21.434m1.068 34.403V68.716c.082-.322.057-.736.11-1.008.873-5.307 3.648-6.672 8.765-6.425.206-.02.412.025.614-.01a.03.03 0 0 0 .015-.007H355.48a.387.387 0 0 0 .092-.01c1.682.187 3.403.01 5.096.289 1.139.269 2.154.75 3.144 1.425 1.693 1.322 2.68 3.32 2.85 5.445.103.976.046 2.012.192 2.995a.588.588 0 0 0 .024.113v56.081a.695.695 0 0 0 0 .223v.201a.54.54 0 0 0 .054.226c-.022.244-.096.481-.114.729-.575 7.11-4.982 7.902-11.193 7.938-.951.003-1.916-.007-2.871-.014a.511.511 0 0 0-.305-.1H116.321c-1.937-.116-3.882-.236-5.834-.328-3.158-.198-5.518-1.245-6.721-4.349-.135-.432-.376-.874-.44-1.358-.096-.255-.085-.64-.203-.919v-5.431h-.003Zm-1.065-33.304v15.409-15.409Z"/><path fill="#000" d="M364.49 87.554c.153 3.295-.035 6.555-.078 9.865a.532.532 0 0 0 1.065-.025c-.007-.969.035-1.934.071-2.903.245-5.809-.288-11.671-.302-17.484-.113-.69-1.15-.516-1.054.162.004 3.459.16 6.92.298 10.378v.007ZM364.806 99.621a.533.533 0 0 0-.518.545.536.536 0 0 0 .546.516.53.53 0 0 0 .518-.545.535.535 0 0 0-.546-.516ZM304.087 135.139c5.898-.071 11.803.07 17.697.123.288.014.536-.24.54-.523.01-.382-.352-.566-.692-.552-1.019-.07-2.044 0-3.063 0-4.823-.077-9.646-.18-14.468-.106-.699 0-.703 1.047-.014 1.061v-.003ZM301.538 135.074a.536.536 0 0 0 .54-.523.535.535 0 0 0-.525-.537.536.536 0 0 0-.54.523.535.535 0 0 0 .525.537ZM206.215 119.245c-2.189-.018-4.383.134-6.576.13-2.587.075-5.188.145-7.782.273-.611.021-1.377.042-2.016.077-.291.011-.536.223-.539.524 0 .279.238.551.525.537 1.139-.053 2.175-.071 3.332-.155 4.376-.106 8.808-.276 13.18-.329.696-.092.558-1.132-.124-1.054v-.003ZM187.006 119.549a.536.536 0 0 0-.54.523.536.536 0 0 0 .526.538c.291 0 .535-.23.539-.524a.535.535 0 0 0-.525-.537ZM105.544 129.286c.202 3.628 2.619 5.382 6.107 5.484.483.05.969.011 1.455.011.323.01.681.053.947-.173a.532.532 0 0 0 .064-.746.546.546 0 0 0-.66-.128c-2.172-.01-4.879.043-6.153-2.054a6.69 6.69 0 0 1-.689-2.061c-.028-.665.078-1.326.007-1.991a173.38 173.38 0 0 1-.181-5.049c-.003-.29-.269-.52-.553-.509-.682.06-.494.869-.486 1.347-.022 1.955.255 3.907.138 5.866l.004.003ZM106.002 119.853c.291 0 .521-.273.511-.552a.543.543 0 0 0-.554-.509c-.287 0-.522.272-.511.552a.543.543 0 0 0 .554.509ZM145.783 64.476c.65 0 1.295.004 1.945.021 4.51.131 9.007-.336 13.517-.29.536-.06 1.242.12 1.643-.321a.538.538 0 0 0-.096-.746.55.55 0 0 0-.599-.036c-.597.053-1.196.04-1.792.05-3.815-.029-7.623.364-11.438.297-1.058 0-2.115-.032-3.176-.036a.536.536 0 0 0-.533.53c0 .29.242.531.533.531h-.004ZM141.393 64.239c.291 0 .532-.241.532-.53 0-.29-.241-.531-.532-.531a.535.535 0 0 0-.532.53c0 .29.241.53.532.53ZM272.761 78.52c1.899 0 3.801.007 5.7.007 3.233.017 6.462-.04 9.691-.025.998-.01 2.002.035 2.996-.064.291-.017.493-.325.454-.597-.053-.453-.54-.506-.905-.425-2.74.057-5.483 0-8.226.04-3.237.024-6.473-.008-9.713 0a.535.535 0 0 0-.532.53c0 .29.241.53.532.53l.003.004ZM269.131 78.201c.291 0 .533-.24.533-.53 0-.29-.242-.53-.533-.53a.535.535 0 0 0-.532.53c0 .29.241.53.532.53ZM313.778 104.854c-.926-2.871-1.547-5.996-.695-8.973.05-.283-.185-.559-.461-.594-.682-.053-.611.756-.774 1.22-.71 3.153.259 8.27 2.072 10.946.171.234.529.258.749.085.334-.258.188-.679-.057-.94a9.609 9.609 0 0 1-.837-1.744h.003ZM315.865 109.963a.537.537 0 0 0 .532-.53.538.538 0 0 0-.532-.531.54.54 0 0 0-.532.531c0 .29.244.53.532.53ZM127.763 87.578c-.409.092-.597.548-.863.831a29.167 29.167 0 0 0-2.931 6.131c-.057.527-.635 1.372.106 1.634.82.145.753-.987.962-1.506.373-1.054.784-2.051 1.324-3.052.543-1.11 1.04-2.273 1.895-3.186.302-.346-.046-.93-.493-.848v-.004ZM123.671 97.567a.535.535 0 0 0-.532.53c0 .29.241.531.532.531.291 0 .532-.24.532-.53 0-.29-.241-.53-.532-.53ZM344.592 70.183c.291 0 .533-.24.533-.53 0-.29-.242-.53-.533-.53a.535.535 0 0 0-.532.53c0 .29.241.53.532.53ZM332.917 90.305c.291 0 .532-.24.532-.53 0-.29-.241-.53-.532-.53a.536.536 0 0 0-.533.53c0 .29.242.53.533.53ZM326.1 107.545c.291 0 .532-.24.532-.53a.535.535 0 0 0-.532-.531.536.536 0 0 0-.533.531c0 .29.242.53.533.53ZM351.165 124.534c.291 0 .532-.24.532-.53 0-.29-.241-.53-.532-.53a.535.535 0 0 0-.533.53c0 .29.242.53.533.53ZM311.142 69.28c.291 0 .532-.24.532-.53 0-.29-.241-.53-.532-.53a.536.536 0 0 0-.533.53c0 .29.242.53.533.53ZM288.355 126.992a.535.535 0 0 0-.532.531c0 .289.241.53.532.53a.535.535 0 0 0 .532-.53.535.535 0 0 0-.532-.531ZM245.532 69.758c.291 0 .532-.24.532-.53 0-.29-.241-.53-.532-.53a.535.535 0 0 0-.532.53c0 .29.241.53.532.53ZM225.158 128.572a.535.535 0 0 0-.532.531c0 .29.241.53.532.53.291 0 .533-.24.533-.53a.536.536 0 0 0-.533-.531ZM186.963 66.664c.291 0 .532-.24.532-.53 0-.29-.241-.53-.532-.53a.535.535 0 0 0-.532.53c0 .29.241.53.532.53ZM162.09 75.85c0 .29.241.531.532.531.291 0 .532-.24.532-.53 0-.29-.241-.53-.532-.53a.535.535 0 0 0-.532.53ZM164.024 122.331c.291 0 .532-.24.532-.53 0-.29-.241-.53-.532-.53a.535.535 0 0 0-.532.53c0 .29.241.53.532.53ZM121.822 124.4a.535.535 0 0 0-.532.531c0 .29.241.53.532.53.291 0 .532-.24.532-.53a.535.535 0 0 0-.532-.531ZM118.128 74.92c.291 0 .532-.24.532-.53 0-.29-.241-.53-.532-.53a.536.536 0 0 0-.533.53c0 .29.242.53.533.53ZM141.958 102.171c.291 0 .532-.24.532-.53a.535.535 0 0 0-.532-.531.536.536 0 0 0-.533.531c0 .29.242.53.533.53ZM268.751 140.039c-2.796.46-5.564.276-8.421.308-2.353.056-4.659.449-7.009.601-1.462.007-2.821-.089-4.322-.138-1.125-.036-2.321 0-3.52.01-.291 0-.522.266-.515.548a.538.538 0 0 0 .55.513c1.107-.007 2.218-.049 3.325-.018.909.029 1.881.089 2.857.114 2.282.13 4.532-.273 6.814-.471 1.664-.152 3.495-.13 5.195-.081 2.08.12 4.227-.297 6.31-.407a.537.537 0 0 0 .514-.548c-.12-.834-1.199-.41-1.778-.427v-.004ZM238.811 140.332c-.291 0-.522.269-.515.548a.541.541 0 0 0 .55.513c.288 0 .522-.269.515-.548a.541.541 0 0 0-.55-.513ZM241.408 56.336c-1.604.128-3.407-.233-5.05-.272-1.117-.113-2.239-.046-3.357 0a24.828 24.828 0 0 0-6.157.467c-2.101.304-4.212-.053-6.334-.014-.703.067-.611 1.089.081 1.057 1.072-.025 2.165.074 3.276.127 1.707.117 3.396-.141 5.067-.438 1.313-.205 2.559-.166 3.918-.138 1.384-.053 2.758-.103 4.142.056 1.078.064 2.157.138 3.236.244.593 0 1.884.248 1.81-.671a.537.537 0 0 0-.632-.41v-.008ZM216.198 56.517c-.291 0-.546.201-.561.502-.014.279.213.558.504.558.291 0 .547-.201.561-.502.014-.28-.213-.558-.504-.558ZM151.294 66.533c0 .29.242.53.533.53.291 0 .532-.24.532-.53 0-.29-.241-.53-.532-.53a.536.536 0 0 0-.533.53Z"/><path stroke="#fff" stroke-width="1.286" d="M224.714 95.143V90h7.715M245.286 95.143V90h-7.715M224.714 102.857V108h7.715M245.286 102.857V108h-7.715M232.429 94.5v8.357h5.785"/></g><defs><clipPath id="a"><path fill="#fff" d="M0 56h368v87H0z"/></clipPath></defs></svg>