<svg xmlns="http://www.w3.org/2000/svg" width="474" height="199" fill="none"><rect width="474" height="199" fill="#F3F3F4" rx="4"/><g clip-path="url(#a)"><path fill="#000" d="M168.912 105.626v5.749c.05.074.085.166.096.282.163.98.372 1.934.936 2.751.83 1.018 2.085 1.605 3.319 1.962 1.808.28 3.567.124 5.376.064.294-.028.588-.003.886-.018a.092.092 0 0 0 .032-.007.524.524 0 0 1 .33-.01h108.057a.493.493 0 0 1 .163-.007c1.55.088 3.046.152 4.567.116 1.369-.017 2.862.075 4.092-.594 1.408-.841 2.263-2.414 2.592-3.981.078-.392-.014-.792.032-1.184.004-.028.015-.05.022-.074V87.251s-.015-.032-.018-.05c-.071-.657 0-1.343-.248-1.969a5.084 5.084 0 0 0-2.876-3.2c-1.78-.823-3.837-.696-5.744-.749a.547.547 0 0 1-.479-.007H179.273c-.018 0-.035-.004-.057-.007h-.003c-1.099-.053-2.138.028-3.216-.021-2.982-.18-6.28.505-6.922 3.86.004-.024 0-.007.014-.067a3.033 3.033 0 0 0-.113.633.912.912 0 0 1-.064.311V105.626Z"/><path fill="#fff" d="M222.027 107h-1.007l-.678-1.743h-3.235L216.43 107h-.988l2.682-6.779h1.24l2.663 6.779Zm-3.302-5.888-1.279 3.273h2.557l-1.278-3.273Zm5.029 7.825h-.92v-6.779h.92v.678c.242-.436.92-.775 1.598-.775 1.21 0 2.082.92 2.082 2.518 0 1.598-.969 2.518-2.179 2.518-.678 0-1.259-.339-1.501-.775v2.615Zm1.365-2.615h.078c.736 0 1.317-.581 1.317-1.743 0-1.162-.581-1.743-1.317-1.743h-.078c-.687 0-1.365.581-1.365 1.743 0 1.162.678 1.743 1.365 1.743Zm4.404 2.615h-.92v-6.779h.92v.678c.242-.436.92-.775 1.598-.775 1.21 0 2.082.92 2.082 2.518 0 1.598-.969 2.518-2.179 2.518-.678 0-1.259-.339-1.501-.775v2.615Zm1.365-2.615h.078c.736 0 1.317-.581 1.317-1.743 0-1.162-.581-1.743-1.317-1.743h-.078c-.687 0-1.365.581-1.365 1.743 0 1.162.678 1.743 1.365 1.743Zm4.404.678h-.92v-4.842h.871v1.065c.194-.726.775-1.114 1.404-1.114h.436V103h-.387c-.872 0-1.404.581-1.404 1.55V107Zm4.593.097c-1.307 0-2.324-1.017-2.324-2.518s1.017-2.518 2.324-2.518c1.308 0 2.325 1.017 2.325 2.518s-1.017 2.518-2.325 2.518Zm-.038-.775h.077c.785 0 1.366-.629 1.366-1.743s-.581-1.743-1.366-1.743h-.077c-.785 0-1.366.629-1.366 1.743s.581 1.743 1.366 1.743Zm5.187-.223 1.404-3.941h.939L245.586 107h-1.114l-1.791-4.842h.949l1.404 3.941Zm5.102.998c-1.2 0-2.285-.833-2.285-2.528 0-1.675 1.114-2.508 2.256-2.508 1.259 0 2.053.872 2.053 2.131v.532h-3.389c.058 1.104.765 1.598 1.356 1.598h.077c.475 0 .93-.242 1.027-.755h.92c-.175.978-1.017 1.53-2.015 1.53Zm-1.307-3.099h2.411c-.038-.843-.542-1.162-1.094-1.162h-.077c-.504 0-1.066.3-1.24 1.162ZM231.546 97 227 92.26l1.137-1.185 3.409 3.555 7.317-7.63L240 88.185 231.546 97Z"/><path fill="#8AE1EF" d="M3.096 102.302H88.96a.856.856 0 0 1 .23-.23c.266-.268.62-.601.833-.891.834-1.043.834-2.418.532-3.638a4.627 4.627 0 0 0-.922-1.584.705.705 0 0 1-.088-.046H.089v6.386h3.01l-.003.003Zm65.16-2.022c.705.003 1.517-.028 2.205-.032 2.893-.237 5.819-.247 8.716-.184.666-.184.953.824.283 1.022-.49.12-1-.011-1.5.007-1.553-.046-3.11.053-4.663.05-1.702.074-3.35.212-5.038.198-.291-.015-.532-.23-.532-.531 0-.279.24-.544.532-.53h-.004Zm-2.635-.237c.29 0 .531.24.531.53 0 .29-.24.531-.531.531a.535.535 0 0 1-.532-.531c0-.29.24-.53.532-.53ZM53.355 97.84c.291 0 .525.262.518.545a.538.538 0 0 1-.546.516.535.535 0 0 1-.518-.544.538.538 0 0 1 .546-.517Zm-37.92-.336c2.493.053 4.986.011 7.468-.141 1.752-.099 3.525.103 5.266.014.666-.177.957.831.284 1.022-1.596.194-3.23-.085-4.844.01-2 .004-3.894.262-5.872.184-.766-.024-1.536-.046-2.301-.024-.291.01-.532-.248-.532-.53 0-.298.24-.52.531-.531v-.004Zm-3.3-.063c.29 0 .531.24.531.53 0 .29-.241.53-.532.53a.535.535 0 0 1-.532-.53c0-.29.242-.53.532-.53Zm-5.717.944c.291 0 .525.261.518.544a.538.538 0 0 1-.546.516.535.535 0 0 1-.518-.544.538.538 0 0 1 .546-.516Z"/><path fill="#DE83F0" d="M329.715 117.184c.826-.06 1.663-.167 2.464-.329 10.017-1.955 16.691-12.081 14.567-21.992-1.724-8.977-10.432-15.567-19.527-14.856-10.213.569-18.23 9.754-17.425 19.884.592 10.115 9.815 18.095 19.917 17.293h.004Zm3.23-27.942c.291 0 .532.24.532.53 0 .29-.241.53-.532.53a.535.535 0 0 1-.532-.53c0-.29.241-.53.532-.53Zm-18.229 18.293c-.22.173-.578.152-.748-.085-1.812-2.676-2.78-7.792-2.071-10.946.163-.463.092-1.273.773-1.22.276.035.51.308.461.594-.851 2.98-.231 6.103.695 8.973.227.601.493 1.195.837 1.743.244.262.39.679.056.941h-.003Zm11.417-1.054c.291 0 .532.241.532.531 0 .29-.241.53-.532.53a.534.534 0 0 1-.531-.53c0-.29.241-.531.531-.531Zm-10.226 2.419c.291 0 .532.24.532.53 0 .286-.241.53-.532.53a.535.535 0 0 1-.532-.53c0-.286.241-.53.532-.53Z"/><path fill="#C7F182" d="M92.781 104.869c1.373.902 3.217 1.022 4.777 1.308 1.411.163 2.794.393 4.212.379.146-.004.334 0 .5-.036V91.112c-1.663-.074-3.35.265-4.975.548-1.5.251-2.932.736-4.166 1.577-.163.134-.369.269-.493.428a.64.64 0 0 1-.227.22v10.365c.032.036.06.075.089.121.074.18.131.367.28.498h.003Zm6.415-4.54a.535.535 0 0 1-.518-.544.538.538 0 0 1 .546-.516c.291 0 .525.261.518.544a.537.537 0 0 1-.546.516Zm-1.933-7.318c1.139-.248 2.188-.513 3.341-.584.585-.456 1.216.435.656.88-.217.181-.536.174-.802.195-.819.057-1.744.28-2.514.442-.574.018-1.46.746-1.766-.056-.156-.64.646-.74 1.09-.88l-.005.003Zm-2.726.781c.29 0 .532.24.532.53 0 .29-.242.53-.532.53a.535.535 0 0 1-.532-.53c0-.29.241-.53.532-.53Z"/><path fill="#DE83F0" d="M142.038 117.753h-.05c13.241-.873 21.375-15.154 15.411-26.927-7.532-14.684-28.775-13.301-34.353 2.188-4.446 12.601 5.67 25.736 18.992 24.735v.004Zm.106-16.646c.291 0 .532.241.532.531 0 .289-.241.53-.532.53a.536.536 0 0 1-.532-.53c0-.29.242-.531.532-.531Zm-18.275-2.482a.535.535 0 0 1-.532-.53c0-.29.241-.53.532-.53.291 0 .532.24.532.53 0 .29-.241.53-.532.53Zm1.365-3.96c-.209.52-.145 1.651-.961 1.506-.745-.261-.167-1.106-.106-1.633a29.326 29.326 0 0 1 2.929-6.13c.269-.287.453-.74.861-.832.447-.08.795.503.493.849-.854.912-1.351 2.075-1.893 3.186-.543 1-.954 1.997-1.323 3.05v.004Z"/><path fill="#FFC2E8" d="M103.979 132.122c1.202 3.1 3.56 4.147 6.716 4.348 1.954.092 3.897.213 5.83.329h235.936c.114 0 .22.039.305.099.954.011 1.919.018 2.869.014 6.205-.035 10.606-.83 11.184-7.937.017-.248.088-.481.113-.728a.534.534 0 0 1-.053-.227v-.201a.668.668 0 0 1 0-.223V71.518a.536.536 0 0 1-.025-.113c-.145-.983-.088-2.02-.191-2.995-.174-2.125-1.156-4.126-2.848-5.445-.989-.672-2.003-1.156-3.141-1.425-1.692-.282-3.411-.102-5.092-.29a.407.407 0 0 1-.092.011H112.83l-.014.007c-.202.035-.408-.01-.614.01-5.113-.247-7.886 1.118-8.758 6.425-.057.276-.028.69-.11 1.008v61.13c.117.279.11.665.202.919.067.485.305.927.44 1.358l.003.004Zm260.858-31.442a.54.54 0 0 1-.546-.517.536.536 0 0 1 .517-.544c.287 0 .539.226.546.516.007.283-.23.545-.517.545Zm.411-23.671c.011 5.812.546 11.674.301 17.483-.035.965-.078 1.934-.071 2.903a.532.532 0 0 1-.517.54.54.54 0 0 1-.546-.515c.046-3.31.234-6.57.078-9.865-.139-3.461-.295-6.919-.298-10.377-.1-.678.936-.852 1.053-.166v-.003Zm-243.227 48.448a.535.535 0 0 1-.532-.53c0-.29.241-.531.532-.531.291 0 .532.241.532.531 0 .29-.241.53-.532.53Zm65.117-4.851a.535.535 0 0 1-.525-.537.54.54 0 0 1 .539-.523c.287 0 .528.251.525.537a.54.54 0 0 1-.539.523Zm19.332-.311c-4.369.053-8.797.223-13.17.329-1.159.088-2.194.102-3.329.155-.287.011-.529-.261-.525-.537.004-.301.252-.513.539-.523.638-.036 1.404-.057 2.014-.078 2.592-.127 5.191-.198 7.776-.272 2.192.003 4.383-.149 6.574-.131.681-.078.819.962.124 1.054l-.003.003Zm18.807 9.334a.535.535 0 0 1-.532-.53c0-.29.242-.531.532-.531.291 0 .532.241.532.531 0 .29-.241.53-.532.53Zm63.142-1.58a.535.535 0 0 1-.532-.531c0-.29.241-.53.532-.53.291 0 .532.24.532.53 0 .29-.241.531-.532.531Zm62.759-4.579c.291 0 .532.24.532.53 0 .29-.241.531-.532.531a.535.535 0 0 1-.532-.531c0-.29.241-.53.532-.53Zm-6.567-54.35c.291 0 .532.241.532.531 0 .29-.241.53-.532.53a.535.535 0 0 1-.532-.53c0-.29.241-.53.532-.53Zm-33.42-.9c.291 0 .532.24.532.53 0 .29-.241.53-.532.53a.535.535 0 0 1-.532-.53c0-.29.241-.53.532-.53Zm-.387 21.506c7.979-15.45 30.357-13.99 36.268 2.337 4.797 13.623-6.347 27.649-20.726 26.114-13.68-1.414-21.758-16.256-15.542-28.45Zm-6.648 44.347c4.819-.074 9.637.029 14.456.106 1.022 0 2.043-.067 3.06 0 .341-.01.703.17.692.552-.004.283-.252.537-.539.523-5.89-.053-11.79-.194-17.683-.124-.688-.014-.685-1.06.014-1.06v.003Zm-2.543-.063c.291 0 .529.251.525.537a.54.54 0 0 1-.539.523.538.538 0 0 1-.525-.537.538.538 0 0 1 .539-.523Zm-28.775-56.552c3.238-.007 6.468.024 9.706 0 2.737-.04 5.481.017 8.219-.04.362-.08.851-.028.904.425.039.272-.163.576-.454.598-.993.095-1.996.05-2.993.063-3.23-.014-6.457.043-9.683.025-1.897 0-3.798-.007-5.695-.007a.535.535 0 0 1-.532-.53c0-.29.241-.53.532-.53l-.004-.004Zm-3.627-.319c.291 0 .532.24.532.53 0 .29-.241.531-.532.531a.535.535 0 0 1-.532-.53c0-.29.241-.53.532-.53Zm-23.58-8.442c.29 0 .532.24.532.53 0 .29-.242.53-.532.53a.535.535 0 0 1-.532-.53c0-.29.241-.53.532-.53Zm-58.522-3.094c.291 0 .532.24.532.53 0 .29-.241.53-.532.53a.536.536 0 0 1-.532-.53c0-.29.242-.53.532-.53ZM167.848 86a.49.49 0 0 1 .039-.198c0-.103.011-.205.039-.304.018-.23.064-.456.128-.676 0 .007 0 .011-.004.018 0 .014-.007.028-.007.042.433-2.47 2.613-4.264 5.064-4.55 1.858-.254 4.127-.116 6.081-.11-.018 0-.032-.003-.05 0h.032c.025 0 .046.004.067.008h-.049.039c.017 0 .035-.008.053-.008h111.068c.043 0 .082.008.124.018 2.287.021 4.72-.078 6.751 1.096 1.139.615 2.156 1.595 2.628 2.804.245.566.482 1.06.518 1.644.014.403.092.714.074 1.082.025.06.039.127.039.205v23.593a.416.416 0 0 1-.014.12.83.83 0 0 1-.025.273c.103 2.156-1.145 4.423-2.915 5.632-1.939 1.212-4.354.806-6.535.884h.018-.046.028c-.84-.018-1.641-.068-2.475-.096-.152-.014-.326 0-.485-.018H179.702c-.27.043-.575 0-.819.018-1.209.05-2.33.131-3.528.099-1.837.11-3.585-.403-5.092-1.439-1.146-.718-1.819-1.994-2.092-3.274-.1-.297-.124-.636-.192-.94a.527.527 0 0 1-.127-.347V86h-.004Zm-3.659 35.267c.29 0 .532.241.532.531 0 .29-.242.53-.532.53a.535.535 0 0 1-.532-.53c0-.29.241-.531.532-.531Zm-.866-45.418c0 .29-.241.53-.531.53a.535.535 0 0 1-.532-.53c0-.29.241-.53.532-.53.29 0 .531.24.531.53Zm-17.36-12.435c1.056 0 2.113.036 3.173.036 3.816.063 7.617-.33 11.429-.297.595-.007 1.195.007 1.79-.05a.552.552 0 0 1 .6.035c.234.18.266.513.095.747-.4.441-1.102.261-1.638.321-4.507-.046-8.996.421-13.506.29a70.938 70.938 0 0 0-1.943-.021.535.535 0 0 1-.532-.53c0-.29.241-.53.532-.53Zm6.574 3.119c0 .29-.241.53-.532.53a.535.535 0 0 1-.532-.53c0-.29.241-.53.532-.53.291 0 .532.24.532.53Zm-10.961-3.356c.291 0 .532.24.532.53 0 .29-.241.531-.532.531a.535.535 0 0 1-.531-.53c0-.29.241-.53.531-.53Zm-15.087 22.307c10.396-10.735 28.622-6.396 33.062 7.845 4.517 14.584-8.649 28.564-23.535 24.976-14.775-3.6-20.105-21.91-9.527-32.822Zm-8.159-11.626c.29 0 .531.24.531.53 0 .29-.241.531-.531.531a.535.535 0 0 1-.532-.53c0-.29.241-.53.532-.53Zm-12.159 44.931c.29 0 .542.208.553.509.01.279-.22.552-.511.552-.291 0-.542-.209-.553-.51-.011-.279.22-.551.511-.551Zm-.068 3.284c.284-.01.55.22.553.51.029 1.683.103 3.365.181 5.048.071.665-.035 1.326-.007 1.991.117.718.344 1.418.688 2.061 1.27 2.097 3.979 2.044 6.149 2.054a.535.535 0 0 1 .659.128.533.533 0 0 1-.064.746c-.266.226-.624.184-.946.173-.483 0-.968.039-1.454-.011-3.486-.102-5.901-1.856-6.103-5.483.114-1.956-.159-3.907-.138-5.866-.007-.477-.195-1.287.486-1.347l-.004-.004Z"/><path fill="#000" d="M68.258 101.341c1.692.014 3.34-.124 5.039-.198 1.553 0 3.11-.092 4.663-.05.5-.018 1.01.113 1.5-.007.67-.198.379-1.206-.284-1.022-2.897-.06-5.823-.053-8.716.184-.691 0-1.5.035-2.206.032-.29-.014-.531.251-.531.53 0 .301.244.516.531.531h.004ZM65.624 101.104c.29 0 .532-.244.532-.531 0-.29-.245-.53-.532-.53a.54.54 0 0 0-.532.53c0 .29.245.531.532.531ZM15.44 98.565c.765-.021 1.534 0 2.3.025 1.979.078 3.873-.177 5.872-.184 1.61-.095 3.248.184 4.844-.01.67-.191.383-1.2-.284-1.022-1.74.088-3.514-.117-5.265-.014a89.114 89.114 0 0 1-7.468.141c-.29.014-.532.237-.532.53 0 .283.245.541.532.53v.004ZM12.137 98.501c.291 0 .532-.244.532-.53 0-.29-.244-.53-.532-.53a.54.54 0 0 0-.532.53c0 .29.245.53.532.53ZM97.94 93.948c.77-.163 1.696-.386 2.515-.442.266-.022.588-.015.801-.195.56-.445-.071-1.34-.656-.88-1.152.074-2.202.34-3.34.583-.443.142-1.241.24-1.089.88.305.803 1.188.075 1.766.057l.004-.003ZM94.537 94.853c.29 0 .532-.244.532-.53 0-.29-.245-.531-.532-.531a.54.54 0 0 0-.532.53c0 .29.245.53.532.53ZM136.017 118.304c14.886 3.589 28.052-10.394 23.535-24.975-4.44-14.238-22.666-18.58-33.062-7.846-10.578 10.911-5.252 29.222 9.527 32.821Zm-12.97-25.29c5.577-15.49 26.821-16.875 34.352-2.188 5.964 11.777-2.17 26.054-15.41 26.927h.049c-13.325.997-23.438-12.134-18.991-24.735v-.004ZM326.346 118.177c14.379 1.531 25.524-12.491 20.726-26.114-5.907-16.327-28.289-17.788-36.267-2.337-6.216 12.198 1.861 27.04 15.541 28.451Zm.876-38.17c9.095-.71 17.804 5.88 19.527 14.856 2.124 9.911-4.549 20.037-14.566 21.992-.805.162-1.638.272-2.464.329-10.103.802-19.326-7.181-19.918-17.293-.805-10.13 7.209-19.315 17.425-19.884h-.004ZM179.164 80.215h-.032.1a.435.435 0 0 1-.068-.007v.007Z"/><path fill="#000" d="M168.167 112.863c.273 1.28.947 2.556 2.092 3.274 1.507 1.036 3.256 1.545 5.092 1.439 1.199.032 2.319-.049 3.529-.099.244-.018.549.025.819-.018h108.33c.16.015.334 0 .486.018.833.028 1.635.078 2.475.096 2.181-.078 4.592.328 6.535-.884 1.77-1.21 3.014-3.479 2.915-5.633a.817.817 0 0 0 .025-.272.668.668 0 0 0 .014-.12V87.071a.61.61 0 0 0-.039-.205c.018-.364-.064-.679-.075-1.082-.035-.58-.273-1.078-.517-1.644-.468-1.21-1.49-2.189-2.628-2.804-2.035-1.174-4.464-1.075-6.751-1.096a.481.481 0 0 0-.124-.018H179.277a.265.265 0 0 0-.053.008h-.04c-1.95-.008-4.219-.145-6.081.11-2.453.285-4.631 2.075-5.063 4.55 0-.015.007-.029.007-.043a3.346 3.346 0 0 0-.124.658 1.268 1.268 0 0 0-.039.304.562.562 0 0 0-.039.198v25.576c0 .149.053.262.127.347.068.304.093.643.192.94l.003-.007Zm.805-27.189c.011-.212.057-.424.114-.633-.014.064-.007.043-.014.068.645-3.352 3.939-4.042 6.921-3.861 1.078.05 2.117-.029 3.216.021h.004c.018 0 .035.007.057.007h110.773c.128.067.288.081.479.007 1.904.053 3.964-.074 5.744.75a5.084 5.084 0 0 1 2.876 3.2c.252.625.181 1.311.248 1.969.004.017.011.032.018.05V110.674l-.021.074c-.046.392.042.792-.032 1.184-.333 1.567-1.184 3.14-2.592 3.981-1.231.672-2.723.58-4.092.594-1.518.036-3.018-.028-4.567-.116a.63.63 0 0 0-.163.007H179.883a.525.525 0 0 0-.33.01c-.01 0-.021.004-.032.007-.294.015-.592-.014-.886.018-1.809.06-3.567.216-5.376-.064-1.234-.357-2.489-.944-3.319-1.962-.563-.813-.773-1.771-.936-2.751a.606.606 0 0 0-.096-.282v-25.39a.889.889 0 0 0 .064-.31ZM0 102.302v1.061h.09v-1.061H0ZM.09 94.856H0v1.061h.09v-1.06Z"/><path fill="#000" d="M9.865 103.363h81.048a.412.412 0 0 0 .132-.021c.102 0 .202 0 .305.01v1.086a.49.49 0 0 0 .191.406.745.745 0 0 0 .067.128c.596 2.061 7.798 2.51 9.808 2.641.107 0 .213.007.327.007.177 0 .358-.007.535-.028v22.38c0 .092.028.177.071.254.011.085.028.17.053.255.514 3.065 2.624 6.078 5.837 6.693 2.659.527 5.368.452 8.077.665a.788.788 0 0 0 .415.017h235.217c.16.05.344.064.514.067.22.053.564.022.816.029.861.074 1.67-.014 2.549.028h-.067c7.545-.018 11.659-1.619 12.244-9.804a1.354 1.354 0 0 0-.057-.47V71.539a.527.527 0 0 0-.032-.17v-.092c-.128-.774-.071-1.538-.156-2.337-.046-3.924-2.507-7.223-6.326-8.294-1.617-.463-3.329-.255-4.989-.386a32.749 32.749 0 0 0-1.074-.099.54.54 0 0 0-.241.043H112.802a.574.574 0 0 0-.188.035c-.833-.138-1.794.05-2.627.014-2.794-.042-5.645 1.52-6.706 4.169-.471 1.202-.84 2.4-.95 3.702a2.845 2.845 0 0 0-.039.314.503.503 0 0 0-.025.145v21.433c-.454-.014-.932.046-1.301.057-1.479.138-2.95.332-4.404.654-1.564.307-3.088.894-4.358 1.888-.117.085-.276.23-.408.396a.478.478 0 0 0-.156.17.503.503 0 0 0-.297.47v1.237a.558.558 0 0 0-.203-.042H.09v1.06h89.46a.693.693 0 0 0 .088.046c.404.46.73.997.922 1.584.301 1.22.301 2.595-.532 3.638-.213.29-.567.623-.833.891a.84.84 0 0 0-.23.23H.088v1.061h9.776v.007Zm93.47 21.054V68.714c.081-.322.056-.735.11-1.008.872-5.307 3.645-6.671 8.758-6.424.206-.021.411.025.613-.01a.03.03 0 0 0 .015-.008H355.49a.382.382 0 0 0 .092-.01c1.681.187 3.401.01 5.092.29 1.139.269 2.153.75 3.142 1.425 1.691 1.322 2.677 3.32 2.847 5.444.103.976.047 2.012.192 2.995a.525.525 0 0 0 .025.113V127.6a.667.667 0 0 0 0 .223v.202c0 .081.021.155.053.226-.021.244-.096.481-.114.728-.574 7.11-4.978 7.902-11.183 7.938-.951.003-1.915-.007-2.869-.014a.513.513 0 0 0-.305-.099H116.529c-1.936-.117-3.879-.241-5.83-.329-3.155-.198-5.513-1.245-6.715-4.349-.135-.431-.376-.873-.44-1.358-.096-.254-.085-.64-.202-.919v-5.431h-.007Zm-10.922-30.53a.641.641 0 0 0 .227-.219c.124-.159.33-.297.493-.428 1.23-.841 2.667-1.322 4.167-1.576 1.624-.283 3.311-.623 4.974-.548v15.408c-.166.032-.354.032-.5.035-1.418.011-2.8-.216-4.212-.378-1.56-.29-3.404-.407-4.776-1.308-.153-.131-.206-.319-.28-.499a.794.794 0 0 0-.09-.12V93.887h-.003Z"/><path fill="#000" d="M364.494 87.552c.152 3.295-.036 6.555-.078 9.864a.532.532 0 0 0 1.063-.025c-.007-.968.036-1.934.071-2.902.245-5.81-.287-11.671-.301-17.484-.114-.69-1.149-.516-1.053.166.003 3.458.159 6.92.298 10.377v.004ZM364.812 99.619a.533.533 0 0 0-.518.544.535.535 0 0 0 .546.516.53.53 0 0 0 .518-.544.535.535 0 0 0-.546-.516ZM304.142 135.134c5.893-.071 11.793.071 17.683.124.287.014.536-.241.539-.524.011-.382-.351-.565-.691-.551-1.018-.071-2.043 0-3.06 0-4.819-.078-9.638-.181-14.457-.106-.699 0-.702 1.046-.014 1.06v-.003ZM301.596 135.07c.291 0 .536-.23.539-.523a.535.535 0 0 0-.525-.537.535.535 0 0 0-.539.523.535.535 0 0 0 .525.537ZM206.347 119.241c-2.188-.017-4.38.135-6.574.131-2.585.074-5.185.145-7.777.272-.609.022-1.375.043-2.014.078-.29.011-.535.223-.539.524 0 .279.238.551.525.537 1.138-.053 2.174-.071 3.33-.156 4.372-.106 8.801-.275 13.169-.328.695-.092.557-1.132-.124-1.054l.004-.004ZM187.152 119.545c-.29 0-.535.23-.539.524a.535.535 0 0 0 .525.537c.291 0 .536-.23.539-.523a.535.535 0 0 0-.525-.538ZM105.757 129.282c.202 3.628 2.617 5.382 6.102 5.484.483.05.968.011 1.454.011.323.01.681.053.947-.173a.533.533 0 0 0 .064-.746.546.546 0 0 0-.66-.128c-2.17-.01-4.875.043-6.148-2.054a6.68 6.68 0 0 1-.688-2.061c-.029-.665.078-1.326.007-1.991a169.8 169.8 0 0 1-.181-5.049c-.004-.29-.27-.519-.553-.509-.681.06-.493.87-.486 1.347-.021 1.956.255 3.907.138 5.866l.004.003ZM106.214 119.849c.29 0 .521-.272.51-.551a.542.542 0 0 0-.553-.509c-.287 0-.521.272-.51.551a.542.542 0 0 0 .553.509ZM145.964 64.475c.648 0 1.294.003 1.943.021 4.506.13 8.999-.336 13.506-.29.535-.06 1.241.12 1.638-.322a.54.54 0 0 0-.096-.746.55.55 0 0 0-.599-.035c-.596.053-1.195.039-1.79.05-3.812-.029-7.617.364-11.429.297-1.057 0-2.113-.032-3.173-.036a.535.535 0 0 0-.532.53c0 .29.241.53.532.53ZM141.577 64.238c.291 0 .532-.24.532-.53 0-.29-.241-.53-.532-.53a.535.535 0 0 0-.532.53c0 .29.241.53.532.53ZM272.839 78.518c1.897 0 3.798.007 5.695.007 3.23.018 6.457-.038 9.684-.024.996-.011 2 .035 2.992-.064.291-.018.493-.325.454-.597-.053-.453-.539-.503-.904-.425-2.737.057-5.478 0-8.219.04-3.234.024-6.468-.008-9.705 0a.535.535 0 0 0-.532.53c0 .29.241.53.532.53l.003.003ZM269.212 78.2c.29 0 .531-.24.531-.53 0-.29-.241-.53-.531-.53a.535.535 0 0 0-.532.53c0 .29.241.53.532.53ZM313.823 104.851c-.926-2.871-1.546-5.996-.695-8.973.049-.283-.185-.559-.461-.594-.681-.053-.61.757-.773 1.22-.71 3.153.258 8.27 2.07 10.946.171.233.529.258.749.085.333-.258.188-.679-.057-.941a9.6 9.6 0 0 1-.837-1.743h.004ZM315.911 109.96a.537.537 0 0 0 .532-.53c0-.29-.245-.53-.532-.53a.54.54 0 0 0-.532.53c0 .29.245.53.532.53ZM127.957 87.576c-.408.092-.596.549-.862.831a29.21 29.21 0 0 0-2.929 6.131c-.056.527-.634 1.372.107 1.633.819.145.752-.986.961-1.506.372-1.053.78-2.05 1.322-3.05.543-1.111 1.039-2.274 1.894-3.186.301-.347-.046-.93-.493-.849v-.004ZM123.869 97.564a.535.535 0 0 0-.532.53c0 .29.241.531.532.531.291 0 .532-.24.532-.53 0-.29-.241-.53-.532-.53ZM344.611 70.181c.291 0 .532-.24.532-.53 0-.29-.241-.53-.532-.53a.535.535 0 0 0-.532.53c0 .29.241.53.532.53ZM332.945 90.302c.291 0 .532-.24.532-.53 0-.29-.241-.53-.532-.53a.535.535 0 0 0-.532.53c0 .29.241.53.532.53ZM326.133 107.542c.291 0 .532-.24.532-.53a.535.535 0 0 0-.532-.531.535.535 0 0 0-.531.531c0 .29.241.53.531.53ZM351.178 124.531a.535.535 0 0 0 .532-.531c0-.29-.241-.53-.532-.53-.29 0-.532.24-.532.53 0 .29.242.531.532.531ZM311.191 69.28c.291 0 .532-.24.532-.53 0-.29-.241-.531-.532-.531a.535.535 0 0 0-.532.53c0 .29.241.53.532.53ZM288.42 126.988a.535.535 0 0 0-.532.53c0 .29.241.531.532.531.29 0 .531-.241.531-.531 0-.29-.241-.53-.531-.53ZM245.631 69.757c.291 0 .532-.24.532-.53 0-.29-.241-.53-.532-.53-.29 0-.531.24-.531.53 0 .29.241.53.531.53ZM225.278 128.568a.535.535 0 0 0-.532.531c0 .29.241.53.532.53.291 0 .532-.24.532-.53a.535.535 0 0 0-.532-.531ZM187.11 66.663c.291 0 .532-.24.532-.53 0-.29-.241-.53-.532-.53a.535.535 0 0 0-.532.53c0 .29.241.53.532.53ZM162.26 75.849c0 .29.241.53.532.53.29 0 .532-.24.532-.53 0-.29-.242-.53-.532-.53a.535.535 0 0 0-.532.53ZM164.189 122.328a.535.535 0 0 0 .532-.53.535.535 0 0 0-.532-.531.535.535 0 0 0-.532.531c0 .289.241.53.532.53ZM122.021 124.396a.535.535 0 0 0-.532.531c0 .289.241.53.532.53a.535.535 0 0 0 .532-.53.535.535 0 0 0-.532-.531ZM118.33 74.92c.29 0 .532-.241.532-.531 0-.29-.242-.53-.532-.53a.535.535 0 0 0-.532.53c0 .29.241.53.532.53ZM142.144 102.168a.535.535 0 0 0 .532-.53.535.535 0 0 0-.532-.531.535.535 0 0 0-.532.531c0 .289.241.53.532.53ZM99.225 99.269c-.29 0-.539.219-.546.516a.535.535 0 0 0 .518.544c.29 0 .538-.219.546-.516a.535.535 0 0 0-.518-.544ZM53.324 98.901c.29 0 .538-.22.546-.516a.535.535 0 0 0-.518-.545c-.29 0-.54.22-.546.516a.535.535 0 0 0 .518.545ZM6.39 99.445c.29 0 .539-.219.546-.516a.535.535 0 0 0-.518-.544c-.29 0-.539.219-.546.516a.535.535 0 0 0 .518.544ZM268.836 140.034c-2.795.46-5.56.276-8.415.308-2.351.053-4.655.449-7.003.601-1.461.007-2.819-.089-4.319-.138-1.124-.035-2.319 0-3.517.011-.291 0-.522.265-.514.548.01.297.258.512.549.512 1.106-.007 2.216-.049 3.323-.017.907.028 1.879.088 2.854.113 2.28.131 4.528-.273 6.808-.471 1.663-.152 3.493-.13 5.191-.081 2.078.12 4.224-.297 6.305-.406a.538.538 0 0 0 .514-.548c-.12-.835-1.198-.411-1.776-.432ZM238.916 140.328c-.291 0-.522.268-.514.548.01.297.262.512.549.512.287 0 .521-.268.514-.548a.539.539 0 0 0-.549-.512ZM241.514 56.336c-1.603.127-3.404-.233-5.046-.272-1.117-.114-2.237-.046-3.354 0a24.789 24.789 0 0 0-6.152.466c-2.099.304-4.213-.053-6.33-.014-.702.067-.61 1.09.082 1.057 1.071-.025 2.163.075 3.273.128 1.705.116 3.393-.142 5.063-.439 1.312-.205 2.557-.166 3.915-.138 1.383-.053 2.755-.102 4.138.057 1.078.064 2.156.138 3.234.244.592 0 1.883.247 1.808-.672a.536.536 0 0 0-.631-.41v-.007ZM216.321 56.516c-.291 0-.546.202-.561.502-.014.28.213.559.504.559.291 0 .546-.202.56-.502.014-.28-.213-.559-.503-.559ZM151.474 66.533c0 .29.241.53.532.53.29 0 .531-.24.531-.53 0-.29-.241-.53-.531-.53a.535.535 0 0 0-.532.53Z"/></g><defs><clipPath id="a"><path fill="#fff" d="M0 56h368v86H0z"/></clipPath></defs></svg>