<svg xmlns="http://www.w3.org/2000/svg" width="474" height="199" fill="none"><g clip-path="url(#a)"><rect width="474" height="199" fill="#F3F3F4" rx="4"/><g clip-path="url(#b)"><path fill="#FFC2E8" d="M-470.156 279.243c6.541 16.873 19.373 22.569 36.547 23.665 10.632.5 21.206 1.155 31.723 1.79H882.049c.617 0 1.196.211 1.659.538 5.191.058 10.439.096 15.611.077 33.768-.192 57.715-4.521 60.86-43.194.097-1.347.483-2.617.618-3.964a2.881 2.881 0 0 1-.29-1.231v-1.097c-.058-.404-.077-.808 0-1.212V-50.554a2.863 2.863 0 0 1-.135-.616c-.791-5.349-.482-10.986-1.042-16.297-.945-11.563-6.291-22.453-15.495-29.63-5.384-3.655-10.902-6.291-17.096-7.754-9.205-1.539-18.563-.557-27.71-1.577a2.253 2.253 0 0 1-.501.058H-421.993l-.077.038c-1.1.192-2.219-.058-3.338.058-27.826-1.347-42.915 6.08-47.662 34.96-.309 1.5-.154 3.751-.598 5.483v332.664c.637 1.52.598 3.617 1.1 5.002.366 2.636 1.659 5.041 2.392 7.388l.02.02ZM949.393 108.139c-1.583 0-2.934-1.231-2.972-2.809-.039-1.539 1.254-2.963 2.817-2.963 1.563 0 2.933 1.231 2.972 2.809.038 1.539-1.254 2.963-2.817 2.963Zm2.238-128.813c.058 31.63 2.971 63.53 1.64 95.143-.193 5.252-.425 10.524-.386 15.796.019 1.578-1.235 2.924-2.817 2.944-1.563.038-2.933-1.25-2.972-2.81.251-18.008 1.274-35.748.425-53.68-.753-18.836-1.602-37.653-1.621-56.47-.541-3.694 5.094-4.637 5.731-.904v-.02ZM-371.977 242.975c-1.582 0-2.894-1.309-2.894-2.886 0-1.578 1.312-2.886 2.894-2.886s2.894 1.308 2.894 2.886c0 1.577-1.312 2.886-2.894 2.886Zm354.357-26.398c-1.583 0-2.875-1.366-2.856-2.924.02-1.578 1.37-2.848 2.933-2.848 1.563 0 2.875 1.366 2.856 2.925-.02 1.577-1.37 2.847-2.933 2.847Zm105.203-1.693c-23.773.289-47.874 1.212-71.666 1.789-6.31.481-11.945.558-18.12.847-1.563.058-2.875-1.424-2.856-2.925.02-1.635 1.37-2.789 2.933-2.847 3.474-.193 7.642-.308 10.96-.423 14.106-.693 28.25-1.078 42.318-1.482 11.925.019 23.85-.808 35.775-.712 3.705-.423 4.457 5.234.675 5.734l-.02.019Zm102.347 50.794c-1.582 0-2.894-1.308-2.894-2.886 0-1.577 1.312-2.886 2.894-2.886 1.583 0 2.895 1.309 2.895 2.886 0 1.578-1.312 2.886-2.895 2.886Zm343.609-8.6c-1.583 0-2.895-1.308-2.895-2.886s1.312-2.886 2.895-2.886c1.582 0 2.894 1.308 2.894 2.886s-1.312 2.886-2.894 2.886Zm341.524-24.916c1.583 0 2.895 1.308 2.895 2.886s-1.312 2.886-2.895 2.886c-1.582 0-2.894-1.308-2.894-2.886s1.312-2.886 2.894-2.886ZM839.327-63.599c1.582 0 2.894 1.308 2.894 2.886 0 1.577-1.312 2.886-2.894 2.886-1.583 0-2.895-1.309-2.895-2.886 0-1.578 1.312-2.886 2.895-2.886Zm-181.868-4.907c1.583 0 2.895 1.309 2.895 2.886 0 1.578-1.312 2.886-2.895 2.886-1.582 0-2.894-1.308-2.894-2.886 0-1.577 1.312-2.886 2.894-2.886Zm-2.103 117.039c43.417-84.08 165.195-76.134 197.362 12.718 26.108 74.132-34.54 150.458-112.787 142.108-74.444-7.696-118.401-88.467-84.575-154.826Zm-36.18 241.33c26.223-.404 52.447.154 78.67.577 5.558 0 11.115-.365 16.653 0 1.853-.057 3.821.924 3.763 3.002-.02 1.539-1.37 2.925-2.933 2.848-32.051-.289-64.16-1.059-96.231-.674-3.743-.077-3.724-5.772.078-5.772v.019Zm-13.836-.346c1.582 0 2.875 1.366 2.856 2.925-.019 1.577-1.37 2.847-2.933 2.847-1.563 0-2.875-1.366-2.856-2.924.02-1.578 1.351-2.848 2.933-2.848ZM448.751-18.231c17.617-.038 35.196.135 52.814 0 14.897-.211 29.832.096 44.729-.211 1.968-.443 4.631-.154 4.92 2.308.212 1.482-.888 3.136-2.47 3.252-5.403.52-10.864.27-16.286.346-17.579-.077-35.138.231-52.698.135-10.323 0-20.666-.039-30.99-.039-1.582 0-2.894-1.308-2.894-2.886 0-1.577 1.312-2.886 2.894-2.886l-.019-.019Zm-19.74-1.731c1.582 0 2.894 1.308 2.894 2.886 0 1.577-1.312 2.886-2.894 2.886s-2.895-1.309-2.895-2.886c0-1.578 1.313-2.886 2.895-2.886Zm-128.32-45.946c1.582 0 2.894 1.308 2.894 2.886s-1.312 2.886-2.894 2.886c-1.583 0-2.895-1.308-2.895-2.886s1.312-2.886 2.895-2.886ZM-17.775-82.743c1.582 0 2.895 1.308 2.895 2.886 0 1.577-1.312 2.886-2.895 2.886-1.582 0-2.894-1.309-2.894-2.886 0-1.578 1.312-2.886 2.894-2.886ZM-122.592 28.254c0-.405.077-.77.212-1.078 0-.558.058-1.116.212-1.654.097-1.251.348-2.482.695-3.675 0 .038 0 .057-.019.096 0 .077-.039.154-.039.23 2.354-13.448 14.222-23.203 27.555-24.762 10.111-1.385 22.461-.634 33.093-.596-.096 0-.173-.02-.27 0h.174c.135 0 .25.02.367.038h-.27.212c.096 0 .193-.038.29-.038h604.416c.232 0 .444.038.675.096 12.446.116 25.683-.423 36.74 5.965 6.194 3.347 11.732 8.677 14.299 15.257 1.331 3.079 2.624 5.772 2.817 8.947.077 2.193.502 3.887.405 5.887.135.328.213.693.213 1.116v128.391c0 .23-.02.461-.078.654.039.442 0 .943-.135 1.481.56 11.737-6.232 24.07-15.861 30.65-10.555 6.599-23.696 4.387-35.563 4.81h.096-.25.154c-4.573-.096-8.934-.366-13.469-.519-.83-.077-1.775 0-2.644-.097h-589.52c-1.466.231-3.126 0-4.457.097-6.58.269-12.678.711-19.2.538-9.995.597-19.508-2.193-27.709-7.831-6.233-3.905-9.899-10.851-11.385-17.816-.54-1.616-.675-3.463-1.042-5.118-.405-.462-.675-1.077-.695-1.885V28.254h-.019Zm-19.914 191.921c1.582 0 2.895 1.308 2.895 2.886s-1.313 2.886-2.895 2.886-2.894-1.308-2.894-2.886 1.312-2.886 2.894-2.886Zm-4.708-247.16c0 1.578-1.312 2.886-2.895 2.886-1.582 0-2.894-1.308-2.894-2.886s1.312-2.886 2.894-2.886c1.583 0 2.895 1.308 2.895 2.886Zm-94.475-67.668c5.751 0 11.501.192 17.271.192 20.762.346 41.448-1.79 62.191-1.616 3.242-.038 6.503.038 9.745-.27 1.003-.577 2.335-.519 3.261.193 1.274.981 1.447 2.79.521 4.06-2.18 2.405-6.001 1.423-8.915 1.75-24.525-.25-48.954 2.29-73.499 1.578-3.512-.096-7.043-.115-10.575-.115-1.582 0-2.894-1.308-2.894-2.886s1.312-2.886 2.894-2.886Zm35.776 16.97c0 1.577-1.312 2.886-2.895 2.886-1.582 0-2.894-1.309-2.894-2.886 0-1.578 1.312-2.886 2.894-2.886 1.583 0 2.895 1.308 2.895 2.886Zm-59.645-18.26c1.582 0 2.894 1.31 2.894 2.887 0 1.578-1.312 2.886-2.894 2.886s-2.895-1.308-2.895-2.886 1.313-2.886 2.895-2.886Zm-82.106 121.388c56.577-58.414 155.76-34.806 179.919 42.694 24.583 79.366-47.064 155.442-128.07 135.913-80.407-19.587-109.409-119.232-51.849-178.607Zm-44.4-63.263c1.582 0 2.894 1.309 2.894 2.887 0 1.577-1.312 2.886-2.894 2.886-1.583 0-2.895-1.309-2.895-2.886 0-1.578 1.312-2.887 2.895-2.887Zm-66.167 244.506c1.582 0 2.952 1.135 3.01 2.77.058 1.52-1.196 3.002-2.779 3.002-1.582 0-2.952-1.135-3.01-2.771-.058-1.52 1.196-3.001 2.779-3.001Zm-.367 17.874c1.544-.058 2.991 1.193 3.01 2.77.155 9.159.56 18.317.984 27.476.386 3.617-.193 7.215-.038 10.832.637 3.906 1.872 7.715 3.743 11.217 6.908 11.409 21.651 11.121 33.46 11.178a2.917 2.917 0 0 1 3.589.693c1.023 1.212.849 3.04-.347 4.06-1.447 1.231-3.396 1-5.152.943-2.625 0-5.268.211-7.912-.058-18.968-.558-32.109-10.101-33.209-29.842.618-10.64-.868-21.26-.752-31.919-.039-2.598-1.062-7.004 2.643-7.331l-.019-.019Z"/><path fill="#000" d="M-120.855 174.441c1.485 6.965 5.152 13.911 11.384 17.817 8.201 5.637 17.714 8.408 27.71 7.83 6.522.173 12.62-.269 19.2-.538 1.331-.097 2.99.134 4.457-.097h589.52c.868.077 1.814 0 2.644.097 4.534.154 8.895.423 13.469.519 11.867-.423 24.988 1.789 35.563-4.81 9.628-6.58 16.401-18.932 15.861-30.65.135-.538.174-1.019.135-1.481.039-.212.077-.424.077-.654V34.084c0-.424-.096-.79-.212-1.117.096-1.981-.347-3.694-.405-5.887-.193-3.155-1.486-5.868-2.817-8.947-2.548-6.58-8.105-11.91-14.299-15.257-11.076-6.388-24.294-5.85-36.74-5.965a2.601 2.601 0 0 0-.675-.096H-60.4c-.097 0-.193.02-.29.038h-.212c-10.613-.038-22.963-.788-33.093.597-13.353 1.558-25.201 11.294-27.555 24.762 0-.077.038-.154.038-.23 0-.04 0-.058.02-.097a18.164 18.164 0 0 0-.695 3.675 6.953 6.953 0 0 0-.212 1.655c-.116.327-.212.673-.212 1.077v139.184c0 .808.289 1.424.694 1.886.367 1.654.502 3.501 1.042 5.118l.02-.039Zm4.38-147.958c.058-1.154.309-2.308.617-3.444-.077.347-.038.231-.077.366 3.512-18.24 21.438-21.992 37.666-21.01 5.866.269 11.52-.154 17.502.115h.02c.096 0 .192.039.308.039h602.815c.695.365 1.563.442 2.605.038 10.363.289 21.574-.404 31.26 4.079 7.526 3.232 13.257 9.524 15.65 17.412 1.37 3.406.984 7.139 1.35 10.717.02.096.058.173.097.27V162.53c-.039.135-.077.25-.116.404-.251 2.136.232 4.31-.174 6.446-1.814 8.523-6.445 17.085-14.105 21.664-6.696 3.656-14.82 3.156-22.268 3.233-8.259.192-16.421-.154-24.854-.635-.308-.039-.598 0-.887.038H-57.101a2.86 2.86 0 0 0-1.794.058.545.545 0 0 0-.174.039c-1.601.076-3.222-.077-4.824.096-9.841.327-19.412 1.173-29.253-.347-6.715-1.943-13.546-5.137-18.061-10.678-3.068-4.425-4.207-9.639-5.095-14.969a3.367 3.367 0 0 0-.521-1.539V28.177c.213-.52.328-1.097.348-1.694Z"/><path fill="#000" d="M-982.317 122.742h441.055c.251 0 .483-.038.714-.115.56 0 1.1 0 1.66.058v5.907c0 1.019.424 1.731 1.042 2.212.096.231.212.462.366.693 3.242 11.217 42.433 13.66 53.374 14.372.579 0 1.157.039 1.775.039.965 0 1.949-.039 2.914-.154v121.791c0 .5.154.962.386 1.385.057.462.154.923.289 1.385 2.798 16.682 14.279 33.074 31.762 36.422 14.472 2.867 29.214 2.463 43.957 3.617.791.25 1.563.25 2.257.096H879.252c.868.27 1.871.347 2.798.366 1.196.289 3.068.115 4.438.154 4.689.404 9.088-.077 13.874.154h-.367c41.063-.096 63.446-8.812 66.63-53.353a7.273 7.273 0 0 0-.309-2.559V-50.439c0-.327-.077-.635-.173-.924v-.5c-.695-4.214-.386-8.37-.849-12.718-.251-21.356-13.643-39.308-34.425-45.137-8.799-2.521-18.119-1.386-27.15-2.097a174.545 174.545 0 0 0-5.846-.539c-.483-.039-.907.077-1.313.231H-422.146a3.12 3.12 0 0 0-1.023.192c-4.534-.75-9.764.269-14.298.077-15.206-.231-30.72 8.273-36.49 22.684-2.566 6.542-4.573 13.064-5.171 20.145a15.944 15.944 0 0 0-.212 1.712c-.077.25-.135.52-.135.79V50.11c-2.47-.076-5.075.25-7.082.308-8.047.75-16.054 1.809-23.966 3.56-8.51 1.674-16.807 4.868-23.715 10.274a12.046 12.046 0 0 0-2.219 2.155c-.367.23-.637.558-.849.924-.888.404-1.582 1.23-1.621 2.558v6.735a3.037 3.037 0 0 0-1.1-.231h-495.493v5.772h486.829c.154.096.309.173.482.25 2.2 2.501 3.976 5.426 5.018 8.62 1.64 6.637 1.64 14.122-2.895 19.798-1.158 1.577-3.087 3.386-4.535 4.848-.501.327-.926.77-1.254 1.251h-483.645v5.772h53.203v.038Zm508.65 114.576v-303.13c.444-1.75.309-4.002.598-5.484 4.747-28.879 19.837-36.306 47.662-34.959 1.119-.116 2.238.135 3.338-.058a.147.147 0 0 0 .077-.038H898.529c.173 0 .347-.02.501-.058 9.147 1.02 18.505.058 27.71 1.578 6.194 1.462 11.713 4.079 17.096 7.754 9.205 7.195 14.569 18.066 15.495 29.63.56 5.31.251 10.947 1.042 16.296.019.212.077.423.135.616v305.169c-.077.385-.058.789 0 1.213v1.096c0 .443.116.847.29 1.232-.116 1.327-.521 2.616-.618 3.963-3.126 38.692-27.092 43.002-60.86 43.195-5.172.019-10.42-.039-15.611-.077a2.798 2.798 0 0 0-1.659-.539H-401.866c-10.535-.635-21.11-1.309-31.723-1.79-17.173-1.077-30.005-6.772-36.547-23.665-.733-2.347-2.045-4.752-2.393-7.388-.521-1.386-.463-3.483-1.099-5.003v-29.553h-.039ZM-533.1 71.178a3.478 3.478 0 0 0 1.235-1.192c.676-.866 1.795-1.617 2.683-2.328 6.695-4.58 14.51-7.196 22.673-8.581 8.837-1.54 18.022-3.387 27.072-2.983v83.849c-.907.173-1.929.173-2.72.193-7.719.057-15.244-1.174-22.924-2.059-8.491-1.578-18.525-2.213-25.992-7.119-.83-.712-1.12-1.732-1.525-2.713a4.431 4.431 0 0 0-.482-.654V71.179h-.02Z"/></g><path fill="#000" d="M-121.767 136.445v31.896c.273.412.468.922.527 1.569.897 5.434 2.049 10.73 5.152 15.262 4.568 5.649 11.477 8.905 18.27 10.887 9.954 1.549 19.635.686 29.589.353 1.62-.157 3.24-.02 4.88-.098.058 0 .116-.02.175-.04a2.875 2.875 0 0 1 1.815-.058h594.795c.293-.059.586-.079.898-.04 8.53.491 16.766.844 25.14.648 7.534-.098 15.751.412 22.524-3.296 7.748-4.668 12.452-13.398 14.267-22.088.43-2.177-.078-4.393.176-6.571.02-.157.078-.275.117-.412V34.501s-.078-.177-.097-.275c-.391-3.648 0-7.454-1.367-10.926-2.42-8.042-8.217-14.457-15.829-17.752-9.798-4.57-21.119-3.865-31.619-4.159-1.054.432-1.933.334-2.635-.04H-64.735c-.098 0-.196-.019-.313-.038h-.02c-6.05-.295-11.769.157-17.702-.118-16.415-1-34.567 2.805-38.1 21.42.02-.137 0-.039.078-.372-.312 1.157-.566 2.315-.624 3.511a5.064 5.064 0 0 1-.351 1.726v108.967Z"/><path fill="#fff" d="m292.384 94.597-17.882-30.466a2.477 2.477 0 0 0-2.138-1.216h-35.779c-.879 0-1.701.465-2.137 1.216l-15.367 26.184c-.24.414-.771.629-1.236.5a1.088 1.088 0 0 1-.814-1.044V79.64c0-9.216-7.626-16.717-16.996-16.717h-14.531c-1.359 0-2.471 1.087-2.471 2.431v14.294c0 6.663 4.034 12.627 10.286 15.186.407.165.676.558.676.994 0 .436-.269.83-.676.994-6.252 2.538-10.286 8.495-10.286 15.166v14.293c0 1.337 1.105 2.431 2.471 2.431h14.531c9.37 0 16.996-7.501 16.996-16.717v-10.132c0-.486.334-.915.814-1.044.465-.121.996.086 1.236.501l15.367 26.184a2.485 2.485 0 0 0 2.137 1.215h35.772c.88 0 1.701-.465 2.137-1.215l17.883-30.467c.218-.372.327-.787.327-1.209a2.345 2.345 0 0 0-.32-1.23Zm-37.64 13.993c-6.979 0-12.656-5.734-12.656-12.777 0-7.043 5.677-12.777 12.656-12.777 6.978 0 12.656 5.734 12.656 12.777 0 7.043-5.678 12.777-12.656 12.777Z"/></g><defs><clipPath id="a"><rect width="474" height="199" fill="#fff" rx="4"/></clipPath><clipPath id="b"><path fill="#fff" d="M-1036-135H966.6v468H-1036z"/></clipPath></defs></svg>