<svg xmlns="http://www.w3.org/2000/svg" width="474" height="199" fill="none"><rect width="474" height="199" fill="#F3F3F4" rx="4"/><g clip-path="url(#a)"><path fill="#8AE1EF" d="M3.096 102.302H88.96a.856.856 0 0 1 .23-.23c.266-.268.62-.601.833-.891.834-1.043.834-2.418.532-3.638a4.627 4.627 0 0 0-.922-1.584.705.705 0 0 1-.088-.046H.089v6.386h3.01l-.003.003Zm65.16-2.022c.705.003 1.517-.028 2.205-.032 2.893-.237 5.819-.247 8.716-.184.666-.184.953.824.283 1.022-.49.12-1-.011-1.5.007-1.553-.046-3.11.053-4.663.05-1.702.074-3.35.212-5.038.198-.291-.015-.532-.23-.532-.531 0-.279.24-.544.532-.53h-.004Zm-2.635-.237c.29 0 .531.24.531.53 0 .29-.24.531-.531.531a.535.535 0 0 1-.532-.531c0-.29.24-.53.532-.53ZM53.355 97.84c.291 0 .525.262.518.545a.538.538 0 0 1-.546.516.535.535 0 0 1-.518-.544.538.538 0 0 1 .546-.517Zm-37.92-.336c2.493.053 4.986.011 7.468-.141 1.752-.099 3.525.103 5.266.014.666-.177.957.831.284 1.022-1.596.194-3.23-.085-4.844.01-2 .004-3.894.262-5.872.184-.766-.024-1.536-.046-2.301-.024-.291.01-.532-.248-.532-.53 0-.298.24-.52.531-.531v-.004Zm-3.3-.063c.29 0 .531.24.531.53 0 .29-.241.53-.532.53a.535.535 0 0 1-.532-.53c0-.29.242-.53.532-.53Zm-5.717.944c.291 0 .525.261.518.544a.538.538 0 0 1-.546.516.535.535 0 0 1-.518-.544.538.538 0 0 1 .546-.516Z"/><path fill="#DE83F0" d="M329.715 117.184c.826-.06 1.663-.167 2.464-.329 10.018-1.955 16.691-12.081 14.567-21.992-1.723-8.977-10.432-15.567-19.527-14.856-10.213.569-18.23 9.754-17.425 19.884.592 10.115 9.815 18.095 19.917 17.293h.004Zm3.23-27.942c.291 0 .532.24.532.53 0 .29-.241.53-.532.53a.536.536 0 0 1-.532-.53c0-.29.242-.53.532-.53Zm-18.229 18.293c-.22.173-.578.152-.748-.085-1.812-2.676-2.78-7.792-2.071-10.946.163-.463.092-1.273.773-1.22.276.035.51.308.461.594-.851 2.98-.231 6.103.695 8.973.227.601.493 1.195.837 1.743.244.262.39.679.056.941h-.003Zm11.418-1.054c.29 0 .532.241.532.531 0 .29-.242.53-.532.53a.535.535 0 0 1-.532-.53c0-.29.241-.531.532-.531Zm-10.227 2.419c.291 0 .532.24.532.53 0 .286-.241.53-.532.53a.535.535 0 0 1-.532-.53c0-.286.241-.53.532-.53Z"/><path fill="#C7F182" d="M92.782 104.869c1.372.902 3.216 1.022 4.776 1.308 1.411.163 2.794.393 4.213.379.145-.004.333 0 .5-.036V91.112c-1.663-.074-3.351.265-4.975.548-1.5.251-2.933.736-4.167 1.577-.163.134-.368.269-.493.428a.64.64 0 0 1-.227.219v10.366c.032.036.06.075.09.121.074.18.13.367.28.498h.003Zm6.414-4.54a.535.535 0 0 1-.517-.544.538.538 0 0 1 .546-.516c.29 0 .525.261.518.544a.537.537 0 0 1-.547.516Zm-1.932-7.318c1.138-.248 2.188-.513 3.34-.584.585-.456 1.216.435.656.88-.216.181-.535.174-.801.195-.82.057-1.745.28-2.514.442-.575.018-1.461.746-1.766-.056-.156-.64.645-.74 1.088-.88l-.003.003Zm-2.727.781c.29 0 .532.24.532.53 0 .29-.241.53-.532.53a.535.535 0 0 1-.532-.53c0-.29.241-.53.532-.53Z"/><path fill="#DE83F0" d="M142.038 117.753h-.05c13.241-.873 21.375-15.154 15.411-26.927-7.532-14.684-28.775-13.301-34.353 2.188-4.446 12.601 5.67 25.736 18.992 24.735v.004Zm.106-16.646c.291 0 .532.241.532.531 0 .289-.241.53-.532.53a.536.536 0 0 1-.532-.53c0-.29.242-.531.532-.531Zm-18.275-2.482a.535.535 0 0 1-.532-.53c0-.29.241-.53.532-.53.291 0 .532.24.532.53 0 .29-.241.53-.532.53Zm1.365-3.96c-.209.52-.145 1.651-.961 1.506-.745-.261-.167-1.106-.106-1.633a29.277 29.277 0 0 1 2.929-6.13c.269-.287.453-.74.861-.832.447-.08.794.503.493.849-.855.912-1.351 2.075-1.893 3.186-.543 1-.954 1.997-1.323 3.05v.004Z"/><path fill="#FFC2E8" d="M103.98 132.122c1.202 3.1 3.56 4.147 6.716 4.348 1.954.092 3.897.212 5.829.329h235.937c.113 0 .22.039.305.099.954.011 1.918.018 2.869.014 6.205-.035 10.605-.831 11.183-7.937.018-.248.089-.481.114-.729a.526.526 0 0 1-.053-.226v-.201a.642.642 0 0 1 0-.223V71.518c-.011-.036-.022-.071-.025-.113-.146-.983-.089-2.02-.192-2.995-.173-2.125-1.156-4.126-2.847-5.445-.989-.672-2.004-1.156-3.142-1.425-1.691-.283-3.411-.102-5.092-.29a.412.412 0 0 1-.092.011H112.83l-.014.007c-.202.035-.408-.01-.613.01-5.113-.247-7.886 1.118-8.759 6.425-.056.276-.028.69-.11 1.007v61.131c.117.279.11.665.203.919.067.485.305.927.439 1.358l.004.004Zm260.857-31.443a.54.54 0 0 1-.546-.516.537.537 0 0 1 .518-.544c.287 0 .539.226.546.516a.537.537 0 0 1-.518.544Zm.411-23.67c.011 5.812.546 11.674.302 17.483-.036.965-.078 1.934-.071 2.903a.533.533 0 0 1-.518.54.54.54 0 0 1-.546-.515c.046-3.31.234-6.57.078-9.865-.138-3.461-.294-6.919-.298-10.377-.099-.679.936-.852 1.053-.166v-.004Zm-243.227 48.448a.536.536 0 0 1-.532-.53c0-.29.242-.531.532-.531.291 0 .532.241.532.531 0 .289-.241.53-.532.53Zm65.117-4.851a.535.535 0 0 1-.525-.537.54.54 0 0 1 .539-.524c.288 0 .529.251.525.538a.54.54 0 0 1-.539.523Zm19.332-.311c-4.368.053-8.797.223-13.169.329-1.16.088-2.195.102-3.33.155-.287.011-.528-.261-.524-.537.003-.301.251-.513.538-.523.639-.036 1.405-.057 2.015-.078 2.592-.127 5.191-.198 7.776-.272 2.191.003 4.382-.149 6.574-.131.681-.078.819.961.124 1.053l-.004.004Zm18.808 9.334a.535.535 0 0 1-.532-.53c0-.29.241-.531.532-.531.291 0 .532.241.532.531 0 .289-.241.53-.532.53Zm63.142-1.58a.535.535 0 0 1-.532-.531c0-.29.241-.53.532-.53.29 0 .531.24.531.53 0 .29-.241.531-.531.531Zm62.758-4.579c.291 0 .532.24.532.53 0 .29-.241.531-.532.531a.536.536 0 0 1-.532-.531c0-.29.242-.53.532-.53Zm-6.567-54.35c.291 0 .532.241.532.531 0 .29-.241.53-.532.53a.536.536 0 0 1-.532-.53c0-.29.242-.53.532-.53Zm-33.42-.901c.291 0 .532.24.532.53 0 .29-.241.53-.532.53a.535.535 0 0 1-.532-.53c0-.29.241-.53.532-.53Zm-.386 21.507c7.978-15.45 30.356-13.99 36.267 2.337 4.798 13.623-6.347 27.649-20.726 26.114-13.68-1.414-21.757-16.257-15.541-28.45Zm-6.649 44.347c4.819-.074 9.638.028 14.457.106 1.021 0 2.042-.067 3.06 0 .34-.01.702.17.691.552-.003.283-.251.537-.539.523-5.889-.053-11.79-.194-17.683-.124-.688-.014-.684-1.06.014-1.06v.003Zm-2.542-.063c.291 0 .528.251.525.537a.54.54 0 0 1-.539.523.537.537 0 0 1-.525-.537.537.537 0 0 1 .539-.523Zm-28.775-56.552c3.237-.007 6.468.024 9.705 0 2.737-.04 5.482.017 8.219-.04.362-.08.851-.028.905.425.039.272-.164.576-.454.597-.993.096-1.997.05-2.993.064-3.23-.014-6.457.042-9.684.025-1.897 0-3.798-.007-5.695-.007a.535.535 0 0 1-.531-.53c0-.29.241-.53.531-.53l-.003-.004Zm-3.628-.319c.291 0 .532.24.532.53 0 .29-.241.531-.532.531a.535.535 0 0 1-.531-.53c0-.29.241-.53.531-.53Zm-23.58-8.443c.291 0 .532.24.532.53 0 .29-.241.531-.532.531a.535.535 0 0 1-.532-.53c0-.29.241-.53.532-.53Zm-58.521-3.093c.291 0 .532.24.532.53 0 .29-.241.53-.532.53a.535.535 0 0 1-.532-.53c0-.29.241-.53.532-.53ZM167.848 86c0-.075.015-.142.039-.198 0-.103.011-.206.039-.305.018-.23.064-.456.128-.675 0 .007 0 .01-.003.018 0 .014-.007.028-.007.042.432-2.471 2.613-4.264 5.063-4.55 1.858-.254 4.127-.117 6.081-.11-.017 0-.032-.003-.049 0h.032c.024 0 .046.004.067.008h-.05.039c.018 0 .036-.008.053-.008h111.069c.042 0 .081.008.124.018 2.287.021 4.719-.078 6.751 1.096 1.138.615 2.156 1.595 2.627 2.804.245.566.483 1.06.518 1.644.014.403.092.714.075 1.082.024.06.039.127.039.205v23.593a.415.415 0 0 1-.015.12.823.823 0 0 1-.024.272c.102 2.157-1.146 4.423-2.915 5.633-1.94 1.212-4.354.806-6.535.884h.018-.047.029c-.841-.018-1.642-.068-2.475-.096-.153-.014-.326 0-.486-.018H179.702c-.269.043-.574 0-.819.018-1.209.05-2.329.131-3.528.099-1.837.11-3.585-.403-5.092-1.439-1.145-.718-1.819-1.994-2.092-3.274-.099-.297-.124-.636-.191-.94a.528.528 0 0 1-.128-.347V86h-.004Zm-3.659 35.267c.291 0 .532.241.532.531 0 .289-.241.53-.532.53a.535.535 0 0 1-.532-.53c0-.29.241-.531.532-.531Zm-.865-45.418c0 .29-.241.53-.532.53a.535.535 0 0 1-.532-.53c0-.29.241-.53.532-.53.291 0 .532.24.532.53Zm-17.361-12.435c1.057 0 2.114.035 3.174.035 3.815.064 7.616-.328 11.428-.296.596-.008 1.195.007 1.791-.05a.55.55 0 0 1 .599.035.54.54 0 0 1 .096.746c-.401.442-1.103.262-1.638.322-4.507-.046-8.996.42-13.507.29a71.34 71.34 0 0 0-1.943-.021.535.535 0 0 1-.532-.53c0-.29.241-.53.532-.53Zm6.574 3.119c0 .29-.241.53-.532.53a.535.535 0 0 1-.531-.53c0-.29.241-.53.531-.53.291 0 .532.24.532.53Zm-10.96-3.356c.291 0 .532.24.532.53 0 .29-.241.531-.532.531a.535.535 0 0 1-.532-.53c0-.29.241-.53.532-.53Zm-15.088 22.306c10.397-10.734 28.623-6.395 33.062 7.846 4.518 14.584-8.648 28.564-23.534 24.975-14.776-3.599-20.105-21.91-9.528-32.82Zm-8.159-11.625c.291 0 .532.24.532.53 0 .29-.241.531-.532.531a.535.535 0 0 1-.532-.53c0-.29.241-.53.532-.53Zm-12.159 44.931c.291 0 .543.208.553.509.011.279-.219.551-.51.551-.291 0-.543-.208-.553-.509-.011-.279.219-.551.51-.551Zm-.067 3.284c.283-.01.549.22.553.509.028 1.683.103 3.366.181 5.049.071.665-.036 1.326-.007 1.991.117.718.344 1.418.688 2.061 1.269 2.097 3.978 2.044 6.148 2.054a.537.537 0 0 1 .66.128.533.533 0 0 1-.064.746c-.266.226-.624.183-.947.173-.482 0-.968.039-1.454-.011-3.485-.102-5.9-1.856-6.102-5.484.113-1.955-.16-3.906-.138-5.865-.008-.477-.195-1.287.485-1.347l-.003-.004Z"/><path fill="#000" d="M68.258 101.341c1.692.014 3.34-.124 5.04-.198 1.552 0 3.109-.092 4.662-.05.5-.018 1.01.113 1.5-.007.67-.198.38-1.206-.284-1.022-2.897-.06-5.822-.053-8.716.184-.691 0-1.5.035-2.205.032-.29-.014-.532.251-.532.53 0 .301.245.516.532.531h.004ZM65.624 101.104c.29 0 .532-.244.532-.531 0-.29-.245-.53-.532-.53a.54.54 0 0 0-.532.53c0 .29.245.531.532.531ZM15.439 98.565c.766-.021 1.535 0 2.301.025 1.979.078 3.872-.177 5.872-.184 1.61-.095 3.248.184 4.844-.01.67-.192.383-1.2-.284-1.022-1.74.088-3.514-.117-5.265-.014a89.111 89.111 0 0 1-7.468.14c-.29.015-.532.238-.532.531 0 .283.245.541.532.53v.004ZM12.138 98.501c.29 0 .531-.244.531-.53 0-.29-.244-.53-.531-.53a.54.54 0 0 0-.532.53c0 .29.244.53.532.53ZM97.941 93.948c.77-.163 1.695-.386 2.514-.442.266-.022.589-.014.802-.195.56-.445-.071-1.34-.656-.88-1.153.074-2.202.34-3.34.583-.444.142-1.242.24-1.09.88.306.803 1.189.075 1.767.057l.003-.003ZM94.537 94.853c.29 0 .532-.244.532-.53 0-.29-.245-.53-.532-.53a.54.54 0 0 0-.532.53c0 .29.245.53.532.53ZM136.017 118.304c14.886 3.589 28.052-10.394 23.534-24.975-4.439-14.238-22.665-18.58-33.062-7.846-10.577 10.911-5.251 29.222 9.528 32.821Zm-12.971-25.29c5.578-15.49 26.821-16.875 34.353-2.188 5.964 11.777-2.17 26.054-15.411 26.927h.05c-13.326.997-23.438-12.134-18.992-24.735v-.004ZM326.346 118.177c14.379 1.531 25.524-12.491 20.726-26.114-5.907-16.327-28.289-17.788-36.267-2.337-6.216 12.198 1.861 27.04 15.541 28.451Zm.876-38.17c9.095-.71 17.804 5.88 19.527 14.856 2.124 9.911-4.549 20.037-14.566 21.992-.805.162-1.638.272-2.464.329-10.103.802-19.326-7.181-19.918-17.293-.805-10.13 7.209-19.315 17.425-19.884h-.004ZM179.164 80.215h-.033.101a.435.435 0 0 1-.068-.007v.007Z"/><path fill="#000" d="M168.168 112.863c.273 1.28.946 2.556 2.092 3.274 1.507 1.036 3.255 1.545 5.092 1.439 1.198.032 2.319-.049 3.528-.099.244-.018.549.025.819-.018h108.33c.16.015.334 0 .486.018.834.028 1.635.078 2.475.096 2.181-.078 4.592.328 6.535-.884 1.77-1.21 3.014-3.479 2.915-5.633a.817.817 0 0 0 .025-.272.668.668 0 0 0 .014-.12V87.071a.61.61 0 0 0-.039-.205c.018-.364-.064-.679-.074-1.082-.036-.58-.273-1.078-.518-1.644-.468-1.21-1.489-2.189-2.628-2.804-2.035-1.174-4.464-1.075-6.751-1.096a.481.481 0 0 0-.124-.018H179.277a.265.265 0 0 0-.053.008h-.039c-1.951-.008-4.22-.145-6.082.11-2.453.285-4.63 2.075-5.063 4.55 0-.015.007-.029.007-.043 0-.007 0-.01.004-.018-.064.22-.11.446-.128.676a1.268 1.268 0 0 0-.039.304.585.585 0 0 0-.039.198v25.576c0 .149.053.262.128.347.067.304.092.643.191.94l.004-.007Zm.805-27.189c.01-.212.056-.424.113-.633-.014.064-.007.043-.014.068.645-3.352 3.939-4.042 6.921-3.861 1.078.05 2.117-.029 3.216.021h.004c.018 0 .036.007.057.007h110.774c.127.067.287.081.478.007 1.904.053 3.965-.074 5.745.75a5.083 5.083 0 0 1 2.875 3.2c.252.625.181 1.311.249 1.969.003.017.01.032.017.05V110.674l-.021.074c-.046.392.043.792-.032 1.184-.333 1.567-1.184 3.14-2.592 3.981-1.23.672-2.723.58-4.092.594-1.518.036-3.018-.028-4.567-.116a.63.63 0 0 0-.163.007H179.883a.525.525 0 0 0-.33.01c-.01 0-.021.004-.031.007-.295.015-.593-.014-.887.018-1.808.06-3.567.216-5.376-.064-1.233-.357-2.489-.944-3.318-1.962-.564-.813-.773-1.771-.937-2.751a.617.617 0 0 0-.095-.282v-25.39a.912.912 0 0 0 .064-.31ZM0 102.302v1.061h.09v-1.061H0ZM.09 94.856H0v1.061h.09v-1.06Z"/><path fill="#000" d="M9.865 103.363h81.048a.412.412 0 0 0 .132-.021c.102 0 .202 0 .305.01v1.086a.49.49 0 0 0 .191.406.745.745 0 0 0 .067.128c.596 2.061 7.798 2.51 9.808 2.641.107 0 .213.007.327.007.177 0 .358-.007.535-.028v22.38c0 .092.028.177.071.254.011.085.028.17.053.255.514 3.065 2.624 6.078 5.837 6.693 2.659.527 5.368.452 8.077.665a.788.788 0 0 0 .415.017h235.217c.16.05.344.064.514.067.22.053.564.022.816.029.861.074 1.67-.014 2.549.028h-.067c7.545-.018 11.659-1.619 12.244-9.804a1.354 1.354 0 0 0-.057-.47V71.539a.527.527 0 0 0-.032-.17v-.092c-.128-.774-.071-1.538-.156-2.337-.046-3.924-2.507-7.223-6.326-8.294-1.617-.463-3.329-.255-4.989-.386a32.749 32.749 0 0 0-1.074-.099.54.54 0 0 0-.241.043H112.802a.574.574 0 0 0-.188.035c-.833-.138-1.794.05-2.627.014-2.794-.042-5.645 1.52-6.706 4.169-.471 1.202-.84 2.4-.95 3.702a2.845 2.845 0 0 0-.039.314.503.503 0 0 0-.025.145v21.433c-.454-.014-.932.046-1.301.057-1.479.138-2.95.332-4.404.654-1.564.307-3.088.894-4.358 1.888-.117.085-.276.23-.408.396a.478.478 0 0 0-.156.17.503.503 0 0 0-.297.47v1.237a.558.558 0 0 0-.203-.042H.09v1.06h89.46a.693.693 0 0 0 .088.046c.404.46.73.997.922 1.584.301 1.22.301 2.595-.532 3.638-.213.29-.567.623-.833.891a.84.84 0 0 0-.23.23H.088v1.061h9.776v.007Zm93.47 21.054V68.714c.081-.322.056-.735.11-1.008.872-5.307 3.645-6.671 8.758-6.424.206-.021.411.025.613-.01a.03.03 0 0 0 .015-.008H355.49a.382.382 0 0 0 .092-.01c1.681.187 3.401.01 5.092.29 1.139.269 2.153.75 3.142 1.425 1.691 1.322 2.677 3.32 2.847 5.444.103.976.047 2.012.192 2.995a.525.525 0 0 0 .025.113V127.6a.667.667 0 0 0 0 .223v.202c0 .081.021.155.053.226-.021.244-.096.481-.114.728-.574 7.11-4.978 7.902-11.183 7.938-.951.003-1.915-.007-2.869-.014a.513.513 0 0 0-.305-.099H116.529c-1.936-.117-3.879-.241-5.83-.329-3.155-.198-5.513-1.245-6.715-4.349-.135-.431-.376-.873-.44-1.358-.096-.254-.085-.64-.202-.919v-5.431h-.007Zm-10.922-30.53a.641.641 0 0 0 .227-.219c.124-.159.33-.297.493-.428 1.23-.841 2.667-1.322 4.167-1.576 1.624-.283 3.311-.623 4.974-.548v15.408c-.166.032-.354.032-.5.035-1.418.011-2.8-.216-4.212-.378-1.56-.29-3.404-.407-4.776-1.308-.153-.131-.206-.319-.28-.499a.794.794 0 0 0-.09-.12V93.887h-.003Z"/><path fill="#000" d="M364.493 87.552c.153 3.295-.035 6.555-.078 9.864a.532.532 0 0 0 1.064-.025c-.007-.968.035-1.934.071-2.902.244-5.81-.287-11.671-.302-17.484-.113-.69-1.148-.516-1.053.166.004 3.458.16 6.92.298 10.377v.004ZM364.812 99.619a.532.532 0 0 0-.517.544.534.534 0 0 0 .546.516.53.53 0 0 0 .517-.544.535.535 0 0 0-.546-.516ZM304.142 135.134c5.893-.071 11.794.071 17.683.124.288.014.536-.241.539-.524.011-.382-.351-.565-.691-.551-1.018-.071-2.043 0-3.06 0-4.819-.078-9.638-.181-14.457-.106-.698 0-.702 1.046-.014 1.06v-.003ZM301.596 135.07c.291 0 .536-.23.539-.523a.535.535 0 0 0-.525-.537.535.535 0 0 0-.539.523.535.535 0 0 0 .525.537ZM206.346 119.241c-2.188-.017-4.379.135-6.574.131-2.585.074-5.184.145-7.776.272-.61.022-1.376.043-2.014.078-.291.011-.535.223-.539.523 0 .28.238.552.525.538 1.138-.053 2.173-.071 3.329-.156 4.372-.106 8.801-.275 13.17-.329.695-.091.557-1.131-.124-1.053l.003-.004ZM187.152 119.545c-.29 0-.535.23-.539.524a.535.535 0 0 0 .525.537c.291 0 .536-.23.539-.523a.535.535 0 0 0-.525-.538ZM105.756 129.282c.202 3.628 2.617 5.382 6.103 5.484.482.05.968.011 1.454.011.322.01.68.053.946-.173a.533.533 0 0 0 .064-.746.545.545 0 0 0-.659-.128c-2.17-.01-4.876.043-6.149-2.054a6.706 6.706 0 0 1-.688-2.061c-.028-.665.078-1.326.007-1.991a173.254 173.254 0 0 1-.181-5.049c-.003-.29-.269-.519-.553-.509-.681.06-.493.87-.486 1.347-.021 1.956.256 3.907.139 5.866l.003.003ZM106.214 119.849c.29 0 .521-.272.51-.551a.542.542 0 0 0-.553-.509c-.287 0-.521.272-.51.551a.542.542 0 0 0 .553.509ZM145.963 64.475c.649 0 1.294.003 1.943.021 4.507.13 9-.336 13.507-.29.535-.06 1.241.12 1.638-.322a.54.54 0 0 0-.096-.746.55.55 0 0 0-.599-.035c-.596.053-1.195.039-1.791.05-3.812-.029-7.616.364-11.428.297-1.057 0-2.114-.032-3.174-.036a.535.535 0 0 0-.532.53c0 .29.241.53.532.53ZM141.577 64.238c.291 0 .532-.24.532-.53 0-.29-.241-.53-.532-.53a.535.535 0 0 0-.532.53c0 .29.241.53.532.53ZM272.839 78.518c1.897 0 3.797.007 5.695.007 3.23.018 6.457-.039 9.683-.024.997-.011 2 .035 2.993-.064.291-.018.493-.325.454-.598-.053-.452-.539-.502-.904-.424-2.738.057-5.479 0-8.22.039-3.233.025-6.467-.007-9.705 0-.29 0-.532.24-.532.53 0 .29.242.53.532.53l.004.004ZM269.211 78.2c.291 0 .532-.24.532-.53 0-.29-.241-.53-.532-.53-.29 0-.531.24-.531.53 0 .29.241.53.531.53ZM313.822 104.851c-.925-2.87-1.546-5.996-.695-8.973.05-.283-.184-.559-.461-.594-.68-.053-.61.757-.773 1.22-.709 3.154.259 8.27 2.071 10.946.17.233.529.258.748.085.334-.258.188-.679-.056-.941a9.6 9.6 0 0 1-.837-1.743h.003ZM315.911 109.96a.537.537 0 0 0 .532-.53c0-.29-.245-.53-.532-.53a.54.54 0 0 0-.532.53c0 .29.245.53.532.53ZM127.957 87.576c-.408.092-.596.549-.861.831a29.111 29.111 0 0 0-2.929 6.131c-.057.527-.635 1.372.106 1.633.819.145.752-.986.961-1.506.372-1.053.78-2.05 1.323-3.05.542-1.111 1.038-2.274 1.893-3.186.301-.347-.046-.93-.493-.849v-.004ZM123.869 97.564a.535.535 0 0 0-.532.53c0 .29.241.531.532.531.291 0 .532-.24.532-.53 0-.29-.241-.53-.532-.53ZM344.611 70.181c.291 0 .532-.24.532-.53 0-.29-.241-.53-.532-.53-.29 0-.532.24-.532.53 0 .29.242.53.532.53ZM332.945 90.302c.291 0 .532-.24.532-.53 0-.29-.241-.53-.532-.53-.29 0-.532.24-.532.53 0 .29.242.53.532.53ZM326.134 107.542c.29 0 .532-.24.532-.53a.536.536 0 0 0-.532-.531.535.535 0 0 0-.532.531c0 .29.241.53.532.53ZM351.178 124.531a.535.535 0 0 0 .532-.531c0-.29-.241-.53-.532-.53a.535.535 0 0 0-.532.53c0 .29.241.531.532.531ZM311.191 69.28c.291 0 .532-.24.532-.53 0-.29-.241-.531-.532-.531a.535.535 0 0 0-.532.53c0 .29.241.53.532.53ZM288.42 126.988a.535.535 0 0 0-.532.53c0 .29.241.531.532.531.29 0 .531-.241.531-.531 0-.29-.241-.53-.531-.53ZM245.631 69.757c.291 0 .532-.24.532-.53 0-.29-.241-.53-.532-.53a.535.535 0 0 0-.532.53c0 .29.241.53.532.53ZM225.278 128.568a.535.535 0 0 0-.532.531c0 .29.241.53.532.53.291 0 .532-.24.532-.53a.535.535 0 0 0-.532-.531ZM187.11 66.663c.291 0 .532-.24.532-.53 0-.29-.241-.53-.532-.53a.535.535 0 0 0-.532.53c0 .29.241.53.532.53ZM162.26 75.849c0 .29.241.53.532.53.291 0 .532-.24.532-.53 0-.29-.241-.53-.532-.53a.535.535 0 0 0-.532.53ZM164.189 122.328a.535.535 0 0 0 .532-.53.535.535 0 0 0-.532-.531.535.535 0 0 0-.532.531c0 .289.241.53.532.53ZM122.021 124.396a.536.536 0 0 0-.532.531c0 .289.242.53.532.53a.535.535 0 0 0 .532-.53.535.535 0 0 0-.532-.531ZM118.33 74.919c.291 0 .532-.24.532-.53 0-.29-.241-.53-.532-.53a.535.535 0 0 0-.532.53c0 .29.241.53.532.53ZM142.144 102.168a.535.535 0 0 0 .532-.53.535.535 0 0 0-.532-.531.536.536 0 0 0-.532.531c0 .289.242.53.532.53ZM99.225 99.269c-.291 0-.54.219-.546.516a.535.535 0 0 0 .517.544c.291 0 .54-.219.547-.516a.535.535 0 0 0-.518-.544ZM53.323 98.901c.29 0 .54-.22.546-.516a.535.535 0 0 0-.517-.545c-.291 0-.54.22-.546.516a.535.535 0 0 0 .517.545ZM6.39 99.445c.29 0 .539-.219.546-.516a.535.535 0 0 0-.518-.544c-.29 0-.539.219-.546.516a.535.535 0 0 0 .518.544ZM268.836 140.034c-2.795.46-5.56.276-8.415.308-2.351.053-4.656.449-7.003.601-1.461.007-2.819-.089-4.319-.138-1.124-.035-2.319 0-3.517.011-.291 0-.522.265-.515.548a.538.538 0 0 0 .55.512c1.106-.007 2.216-.049 3.323-.017.907.028 1.879.088 2.854.113 2.28.131 4.528-.273 6.808-.471 1.663-.152 3.493-.13 5.191-.081 2.078.12 4.223-.297 6.305-.406a.538.538 0 0 0 .514-.548c-.121-.835-1.198-.411-1.776-.432ZM238.915 140.328c-.29 0-.521.268-.514.548a.54.54 0 0 0 .55.512c.287 0 .521-.268.514-.548a.54.54 0 0 0-.55-.512ZM241.514 56.336c-1.602.127-3.404-.233-5.045-.272-1.117-.114-2.238-.046-3.355 0a24.792 24.792 0 0 0-6.152.466c-2.099.304-4.212-.053-6.329-.014-.702.067-.61 1.09.081 1.057 1.071-.024 2.163.075 3.273.128 1.706.116 3.393-.142 5.064-.439 1.312-.205 2.556-.166 3.914-.138 1.383-.053 2.755-.102 4.138.057 1.078.064 2.156.138 3.234.244.592 0 1.883.247 1.809-.672a.537.537 0 0 0-.632-.41v-.007ZM216.321 56.516c-.291 0-.546.202-.56.502-.015.28.212.559.503.559.291 0 .546-.202.56-.502.015-.28-.212-.559-.503-.559ZM151.474 66.533c0 .29.241.53.531.53.291 0 .532-.24.532-.53 0-.29-.241-.53-.532-.53-.29 0-.531.24-.531.53Z"/></g><path fill="#000" d="M168 105.881v5.861c.05.076.086.17.097.289.165.998.376 1.971.947 2.804.839 1.038 2.109 1.636 3.357 2.001 1.829.284 3.608.126 5.437.064.298-.028.596-.003.897-.018a.092.092 0 0 0 .032-.007.537.537 0 0 1 .334-.011h109.3a.533.533 0 0 1 .165-.007c1.567.09 3.081.155 4.619.119 1.385-.018 2.895.076 4.139-.605 1.424-.858 2.289-2.462 2.622-4.059.079-.4-.014-.808.032-1.208.004-.029.015-.05.022-.076v-23.88s-.014-.033-.018-.05c-.072-.671 0-1.37-.251-2.009a5.169 5.169 0 0 0-2.909-3.262c-1.8-.84-3.881-.71-5.81-.764a.548.548 0 0 1-.484-.007H178.48c-.018 0-.036-.004-.057-.007h-.004c-1.112-.055-2.162.028-3.253-.022-3.016-.184-6.352.515-7.001 3.936.004-.025 0-.007.014-.068a3.02 3.02 0 0 0-.114.645.946.946 0 0 1-.065.317v20.024Z"/><path fill="#fff" d="m244.105 98.191-3.286-5.599a.455.455 0 0 0-.393-.223h-6.575a.456.456 0 0 0-.393.223l-2.823 4.812a.207.207 0 0 1-.228.092.2.2 0 0 1-.149-.192v-1.862c0-1.693-1.401-3.072-3.123-3.072h-2.671c-.249 0-.454.2-.454.447v2.627c0 1.224.742 2.32 1.89 2.79.075.03.125.103.125.183s-.05.152-.125.183a3.004 3.004 0 0 0-1.89 2.786v2.627a.45.45 0 0 0 .454.447h2.671c1.722 0 3.123-1.379 3.123-3.072v-1.862a.2.2 0 0 1 .149-.192.209.209 0 0 1 .228.092l2.823 4.812a.457.457 0 0 0 .393.223h6.574a.454.454 0 0 0 .392-.223l3.286-5.599a.439.439 0 0 0 .061-.222.434.434 0 0 0-.059-.226Zm-6.917 2.571c-1.282 0-2.326-1.053-2.326-2.348 0-1.294 1.044-2.348 2.326-2.348s2.326 1.054 2.326 2.348c0 1.295-1.044 2.348-2.326 2.348Z"/><defs><clipPath id="a"><path fill="#fff" d="M0 56h368v86H0z"/></clipPath></defs></svg>