<svg xmlns="http://www.w3.org/2000/svg" width="24" height="14" fill="none"><path fill="#000" d="M23.93 6.74 20.017.26A.545.545 0 0 0 19.549 0h-7.83a.545.545 0 0 0-.467.259l-3.363 5.57a.248.248 0 0 1-.27.107.233.233 0 0 1-.179-.222V3.558c0-1.96-1.669-3.556-3.72-3.556H.54A.53.53 0 0 0 0 .519v3.04c0 1.419.883 2.687 2.25 3.232a.23.23 0 0 1 .149.211.229.229 0 0 1-.148.212C.883 7.754 0 9.02 0 10.44v3.041A.53.53 0 0 0 .54 14h3.18c2.051 0 3.72-1.596 3.72-3.557V8.286c0-.103.073-.195.178-.222a.25.25 0 0 1 .27.107l3.364 5.57c.096.16.275.259.467.259h7.828a.545.545 0 0 0 .468-.259l3.913-6.482A.495.495 0 0 0 24 7.002a.487.487 0 0 0-.07-.261Zm-8.237 2.978c-1.527 0-2.77-1.22-2.77-2.719 0-1.498 1.243-2.718 2.77-2.718s2.77 1.22 2.77 2.718c0 1.499-1.243 2.719-2.77 2.719Z"/></svg>